<?xml version="1.0" encoding="UTF-8"?>
<svg xmlns="http://www.w3.org/2000/svg" width="1360" height="980" viewBox="0 0 1360 980">
  <defs>
    <linearGradient id="bg" x1="0" y1="0" x2="1" y2="1">
      <stop offset="0%" stop-color="#f4efe6" />
      <stop offset="100%" stop-color="#eef5f2" />
    </linearGradient>
  </defs>
  <rect x="0" y="0" width="1360" height="980" fill="url(#bg)" />
  <text x="46" y="36" fill="#1f2937" font-size="31" font-weight="700">159509 离线研究图（持仓逐日估值版）</text>
  <text x="46" y="66" fill="#5b6b68" font-size="13">历史前十大持仓 + 持仓逐日涨跌幅 + USDCNY；双目标 lambda=0.10；披露期数 10；覆盖率均值 92.1%</text>
  <g>
    <text x="54" y="110" fill="#1f2937" font-size="16" font-weight="700">A. 净值拟合（同日对齐，无平移）</text>
    <line x1="98" y1="112" x2="124" y2="112" stroke="#0f766e" stroke-width="2"  />
      <text x="130" y="116" fill="#24312e" font-size="12">真实净值</text>
<line x1="313" y1="112" x2="339" y2="112" stroke="#1d4ed8" stroke-width="2"  />
      <text x="345" y="116" fill="#24312e" font-size="12">持仓分段估值</text>
<line x1="528" y1="112" x2="554" y2="112" stroke="#b45309" stroke-width="2" stroke-dasharray="6 4" />
      <text x="560" y="116" fill="#24312e" font-size="12">持仓双目标估值</text>
    <line x1="98" y1="132.00" x2="1292" y2="132.00" stroke="#d7e3df" stroke-width="1" />
      <text x="90" y="136.00" text-anchor="end" fill="#5b6b68" font-size="11">1.990</text>
<line x1="98" y1="209.50" x2="1292" y2="209.50" stroke="#d7e3df" stroke-width="1" />
      <text x="90" y="213.50" text-anchor="end" fill="#5b6b68" font-size="11">1.781</text>
<line x1="98" y1="287.00" x2="1292" y2="287.00" stroke="#d7e3df" stroke-width="1" />
      <text x="90" y="291.00" text-anchor="end" fill="#5b6b68" font-size="11">1.572</text>
<line x1="98" y1="364.50" x2="1292" y2="364.50" stroke="#d7e3df" stroke-width="1" />
      <text x="90" y="368.50" text-anchor="end" fill="#5b6b68" font-size="11">1.363</text>
<line x1="98" y1="442.00" x2="1292" y2="442.00" stroke="#d7e3df" stroke-width="1" />
      <text x="90" y="446.00" text-anchor="end" fill="#5b6b68" font-size="11">1.154</text>
    <line x1="98.00" y1="132" x2="98.00" y2="442" stroke="#eef3f1" stroke-width="1" />
      <text x="98.00" y="470" text-anchor="middle" fill="#5b6b68" font-size="11">25-01-02</text>
<line x1="290.72" y1="132" x2="290.72" y2="442" stroke="#eef3f1" stroke-width="1" />
      <text x="290.72" y="470" text-anchor="middle" fill="#5b6b68" font-size="11">25-03-17</text>
<line x1="479.24" y1="132" x2="479.24" y2="442" stroke="#eef3f1" stroke-width="1" />
      <text x="479.24" y="470" text-anchor="middle" fill="#5b6b68" font-size="11">25-05-23</text>
<line x1="697.09" y1="132" x2="697.09" y2="442" stroke="#eef3f1" stroke-width="1" />
      <text x="697.09" y="470" text-anchor="middle" fill="#5b6b68" font-size="11">25-08-06</text>
<line x1="910.76" y1="132" x2="910.76" y2="442" stroke="#eef3f1" stroke-width="1" />
      <text x="910.76" y="470" text-anchor="middle" fill="#5b6b68" font-size="11">25-10-24</text>
<line x1="1099.28" y1="132" x2="1099.28" y2="442" stroke="#eef3f1" stroke-width="1" />
      <text x="1099.28" y="470" text-anchor="middle" fill="#5b6b68" font-size="11">25-12-26</text>
<line x1="1292.00" y1="132" x2="1292.00" y2="442" stroke="#eef3f1" stroke-width="1" />
      <text x="1292.00" y="470" text-anchor="middle" fill="#5b6b68" font-size="11">26-03-12</text>
    <line x1="1116.04" y1="132" x2="1116.04" y2="442" stroke="#f59e0b" stroke-width="1.4" stroke-dasharray="4 4" />
       <text x="1122.04" y="124" fill="#a16207" font-size="11">验证起点</text>
    <path d="M 98.00 319.81 L 102.19 311.06 L 106.38 300.67 L 110.57 312.72 L 114.76 313.91 L 118.95 313.95 L 123.14 323.26 L 127.33 327.19 L 131.52 328.49 L 135.71 315.39 L 139.89 320.47 L 144.08 310.72 L 148.27 310.80 L 152.46 309.13 L 156.65 299.97 L 160.84 299.23 L 165.03 301.60 L 169.22 329.82 L 173.41 312.46 L 177.60 308.64 L 181.79 316.06 L 185.98 307.79 L 190.17 307.79 L 194.36 307.16 L 198.55 299.11 L 202.74 296.67 L 206.93 296.74 L 211.12 296.07 L 215.31 296.74 L 219.49 298.97 L 223.68 313.43 L 227.87 323.18 L 232.06 332.94 L 236.25 327.56 L 240.44 347.14 L 244.63 339.17 L 248.82 354.59 L 253.01 353.37 L 257.20 345.28 L 261.39 361.01 L 265.58 353.63 L 269.77 376.55 L 273.96 375.66 L 278.15 367.57 L 282.34 377.55 L 286.53 363.20 L 290.72 362.38 L 294.91 371.73 L 299.09 364.83 L 303.28 365.94 L 307.47 363.79 L 311.66 353.29 L 315.85 351.03 L 320.04 364.98 L 324.23 371.73 L 328.42 386.08 L 332.61 386.86 L 336.80 381.89 L 340.99 379.22 L 345.18 410.66 L 349.37 432.25 L 353.56 439.85 L 357.75 381.70 L 361.94 404.84 L 366.13 394.72 L 370.32 393.31 L 374.51 393.09 L 378.69 409.07 L 382.88 412.41 L 387.07 412.48 L 391.26 424.01 L 395.45 413.26 L 399.64 399.58 L 403.83 383.07 L 408.02 375.06 L 412.21 376.36 L 416.40 374.99 L 420.59 374.54 L 424.78 363.12 L 428.97 363.20 L 433.16 356.78 L 437.35 357.30 L 441.54 333.68 L 445.73 322.03 L 449.92 316.51 L 454.11 318.99 L 458.29 318.44 L 462.48 318.21 L 466.67 320.62 L 470.86 326.37 L 475.05 325.41 L 479.24 331.34 L 483.43 332.01 L 487.62 318.81 L 491.81 320.22 L 496.00 317.95 L 500.19 319.44 L 504.38 308.42 L 508.57 304.57 L 512.76 307.01 L 516.95 302.34 L 521.14 300.19 L 525.33 296.00 L 529.52 296.67 L 533.71 294.92 L 537.89 304.01 L 542.08 294.26 L 546.27 298.52 L 550.46 298.34 L 554.65 298.60 L 558.84 303.68 L 563.03 298.60 L 567.22 288.99 L 571.41 283.13 L 575.60 277.98 L 579.79 276.60 L 583.98 272.30 L 588.17 280.91 L 592.36 274.27 L 596.55 267.78 L 600.74 267.70 L 604.93 272.41 L 609.12 270.71 L 613.31 264.48 L 617.49 265.70 L 621.68 266.78 L 625.87 265.81 L 630.06 260.95 L 634.25 260.25 L 638.44 256.39 L 642.63 256.28 L 646.82 252.02 L 651.01 258.69 L 655.20 256.10 L 659.39 252.35 L 663.58 250.46 L 667.77 245.82 L 671.96 246.42 L 676.15 244.97 L 680.34 244.82 L 684.53 257.17 L 688.72 243.75 L 692.91 248.72 L 697.09 239.93 L 701.28 237.92 L 705.47 230.03 L 709.66 232.99 L 713.85 222.05 L 718.04 224.20 L 722.23 224.87 L 726.42 228.88 L 730.61 230.51 L 734.80 242.49 L 738.99 247.08 L 743.18 249.98 L 747.37 239.07 L 751.56 240.71 L 755.75 237.70 L 759.94 237.22 L 764.13 232.03 L 768.32 241.23 L 772.51 240.93 L 776.69 245.82 L 780.88 235.63 L 785.07 231.29 L 789.26 228.25 L 793.45 224.20 L 797.64 221.83 L 801.83 216.86 L 806.02 214.97 L 810.21 211.30 L 814.40 202.69 L 818.59 203.96 L 822.78 208.33 L 826.97 197.47 L 831.16 191.72 L 835.35 187.23 L 839.54 192.76 L 843.73 195.91 L 847.92 196.91 L 852.11 195.24 L 856.29 194.09 L 860.48 191.87 L 864.67 177.40 L 868.86 205.29 L 873.05 187.27 L 877.24 194.54 L 881.43 186.53 L 885.62 187.27 L 889.81 184.30 L 894.00 174.40 L 898.19 178.14 L 902.38 183.67 L 906.57 176.96 L 910.76 165.02 L 914.95 149.81 L 919.14 143.80 L 923.33 135.91 L 927.52 148.14 L 931.71 149.92 L 935.89 148.25 L 940.08 165.76 L 944.27 159.90 L 948.46 173.18 L 952.65 177.51 L 956.84 158.27 L 961.03 163.39 L 965.22 164.76 L 969.41 181.41 L 973.60 179.81 L 977.79 185.12 L 981.98 193.79 L 986.17 186.82 L 990.36 203.44 L 994.55 198.91 L 998.74 175.25 L 1002.93 171.14 L 1007.12 165.20 L 1011.31 165.39 L 1015.49 159.68 L 1019.68 163.20 L 1023.87 156.12 L 1028.06 155.00 L 1032.25 154.30 L 1036.44 148.48 L 1040.63 147.33 L 1044.82 145.14 L 1049.01 142.73 L 1053.20 148.25 L 1057.39 168.24 L 1061.58 174.73 L 1065.77 173.47 L 1069.96 190.79 L 1074.15 178.55 L 1078.34 167.09 L 1082.53 163.61 L 1086.72 158.56 L 1090.91 157.56 L 1095.09 158.34 L 1099.28 158.64 L 1103.47 162.09 L 1107.66 163.01 L 1111.85 169.65 L 1116.04 165.83 L 1120.23 160.42 L 1124.42 158.86 L 1128.61 167.17 L 1132.80 159.45 L 1136.99 158.27 L 1141.18 158.79 L 1145.37 168.73 L 1149.56 166.65 L 1153.75 166.20 L 1157.94 166.50 L 1162.13 184.45 L 1166.32 175.66 L 1170.51 168.98 L 1174.69 167.87 L 1178.88 163.50 L 1183.07 154.97 L 1187.26 150.55 L 1191.45 152.59 L 1195.64 167.32 L 1199.83 162.87 L 1204.02 179.15 L 1208.21 197.65 L 1212.40 206.77 L 1216.59 189.01 L 1220.78 180.18 L 1224.97 186.34 L 1229.16 186.04 L 1233.35 201.88 L 1237.54 205.36 L 1241.73 197.73 L 1245.92 186.16 L 1250.11 197.28 L 1254.29 206.96 L 1258.48 204.10 L 1262.67 213.12 L 1266.86 203.07 L 1271.05 203.47 L 1275.24 215.01 L 1279.43 200.47 L 1283.62 201.69 L 1287.81 200.32 L 1292.00 212.74" fill="none" stroke="#0f766e" stroke-width="2"  />
<path d="M 98.00 319.81 L 102.19 311.27 L 106.38 304.52 L 110.57 315.55 L 114.76 312.10 L 118.95 314.28 L 123.14 314.53 L 127.33 324.09 L 131.52 329.18 L 135.71 313.65 L 139.89 318.70 L 144.08 311.57 L 148.27 311.72 L 152.46 312.03 L 156.65 301.56 L 160.84 298.32 L 165.03 299.66 L 169.22 330.81 L 173.41 311.85 L 177.60 309.37 L 181.79 316.82 L 185.98 310.88 L 190.17 307.02 L 194.36 307.58 L 198.55 304.06 L 202.74 298.24 L 206.93 296.79 L 211.12 296.87 L 215.31 295.07 L 219.49 297.75 L 223.68 310.86 L 227.87 317.26 L 232.06 328.34 L 236.25 329.80 L 240.44 346.40 L 244.63 339.19 L 248.82 357.65 L 253.01 354.46 L 257.20 347.08 L 261.39 360.41 L 265.58 357.26 L 269.77 374.20 L 273.96 375.56 L 278.15 368.03 L 282.34 377.29 L 286.53 365.95 L 290.72 364.18 L 294.91 372.36 L 299.09 364.84 L 303.28 365.18 L 307.47 363.29 L 311.66 355.64 L 315.85 351.33 L 320.04 363.24 L 324.23 366.88 L 328.42 386.18 L 332.61 386.20 L 336.80 383.44 L 340.99 380.00 L 345.18 414.84 L 349.37 425.52 L 353.56 436.27 L 357.75 392.40 L 361.94 406.88 L 366.13 395.00 L 370.32 393.95 L 374.51 393.67 L 378.69 409.06 L 382.88 409.82 L 387.07 412.68 L 391.26 412.52 L 395.45 412.29 L 399.64 400.67 L 403.83 384.99 L 408.02 375.57 L 412.21 375.87 L 416.40 375.56 L 420.59 374.98 L 424.78 365.27 L 428.97 362.05 L 433.16 360.04 L 437.35 356.40 L 441.54 331.19 L 445.73 324.55 L 449.92 318.55 L 454.11 317.45 L 458.29 318.22 L 462.48 318.00 L 466.67 318.84 L 470.86 322.14 L 475.05 324.49 L 479.24 330.86 L 483.43 332.53 L 487.62 332.19 L 491.81 318.30 L 496.00 317.66 L 500.19 317.83 L 504.38 315.57 L 508.57 304.98 L 512.76 305.06 L 516.95 303.58 L 521.14 301.21 L 525.33 297.63 L 529.52 296.38 L 533.71 294.83 L 537.89 299.85 L 542.08 299.25 L 546.27 295.54 L 550.46 297.84 L 554.65 298.78 L 558.84 299.18 L 563.03 300.46 L 567.22 291.68 L 571.41 285.65 L 575.60 278.61 L 579.79 274.29 L 583.98 274.23 L 588.17 275.23 L 592.36 277.40 L 596.55 270.53 L 600.74 268.16 L 604.93 267.16 L 609.12 272.74 L 613.31 264.29 L 617.49 264.07 L 621.68 264.80 L 625.87 265.58 L 630.06 262.84 L 634.25 260.53 L 638.44 257.54 L 642.63 255.40 L 646.82 252.55 L 651.01 254.21 L 655.20 256.38 L 659.39 252.86 L 663.58 251.07 L 667.77 247.72 L 671.96 246.08 L 676.15 244.79 L 680.34 238.61 L 684.53 259.39 L 688.72 251.37 L 692.91 244.93 L 697.09 239.47 L 701.28 238.41 L 705.47 233.62 L 709.66 229.87 L 713.85 226.22 L 718.04 222.67 L 722.23 221.91 L 726.42 225.11 L 730.61 228.87 L 734.80 239.72 L 738.99 245.18 L 743.18 247.96 L 747.37 240.50 L 751.56 238.46 L 755.75 238.99 L 759.94 236.47 L 764.13 234.53 L 768.32 238.05 L 772.51 241.86 L 776.69 241.34 L 780.88 235.68 L 785.07 231.44 L 789.26 229.27 L 793.45 225.48 L 797.64 222.82 L 801.83 219.17 L 806.02 216.37 L 810.21 212.66 L 814.40 205.76 L 818.59 202.53 L 822.78 206.66 L 826.97 205.80 L 831.16 193.52 L 835.35 189.80 L 839.54 190.90 L 843.73 193.01 L 847.92 196.45 L 852.11 195.56 L 856.29 194.09 L 860.48 192.74 L 864.67 184.76 L 868.86 206.19 L 873.05 184.12 L 877.24 191.38 L 881.43 191.41 L 885.62 186.14 L 889.81 185.09 L 894.00 178.16 L 898.19 174.75 L 902.38 179.61 L 906.57 180.27 L 910.76 166.20 L 914.95 155.83 L 919.14 143.33 L 923.33 137.71 L 927.52 153.30 L 931.71 145.57 L 935.89 145.47 L 940.08 159.75 L 944.27 163.25 L 948.46 171.73 L 952.65 174.18 L 956.84 160.04 L 961.03 158.85 L 965.22 165.72 L 969.41 181.32 L 973.60 179.99 L 977.79 179.06 L 981.98 194.82 L 986.17 189.26 L 990.36 197.61 L 994.55 200.86 L 998.74 171.32 L 1002.93 171.45 L 1007.12 167.98 L 1011.31 165.78 L 1015.49 166.24 L 1019.68 160.84 L 1023.87 160.65 L 1028.06 158.28 L 1032.25 152.43 L 1036.44 150.94 L 1040.63 146.74 L 1044.82 146.03 L 1049.01 143.76 L 1053.20 145.14 L 1057.39 170.18 L 1061.58 171.42 L 1065.77 172.59 L 1069.96 187.09 L 1074.15 180.50 L 1078.34 172.56 L 1082.53 165.22 L 1086.72 157.79 L 1090.91 157.40 L 1095.09 158.04 L 1099.28 158.83 L 1103.47 159.36 L 1107.66 161.32 L 1111.85 164.97 L 1116.04 169.67 L 1120.23 163.67 L 1124.42 158.17 L 1128.61 160.88 L 1132.80 162.45 L 1136.99 158.29 L 1141.18 158.50 L 1145.37 171.22 L 1149.56 166.78 L 1153.75 165.21 L 1157.94 166.87 L 1162.13 167.19 L 1166.32 181.54 L 1170.51 170.04 L 1174.69 165.38 L 1178.88 163.45 L 1183.07 155.85 L 1187.26 154.23 L 1191.45 149.72 L 1195.64 154.48 L 1199.83 165.68 L 1204.02 177.11 L 1208.21 189.67 L 1212.40 207.00 L 1216.59 201.52 L 1220.78 183.70 L 1224.97 183.24 L 1229.16 187.82 L 1233.35 202.93 L 1237.54 205.54 L 1241.73 197.75 L 1245.92 189.16 L 1250.11 197.27 L 1254.29 200.50 L 1258.48 203.86 L 1262.67 204.66 L 1266.86 208.06 L 1271.05 200.72 L 1275.24 211.56 L 1279.43 208.46 L 1283.62 200.59 L 1287.81 201.29 L 1292.00 210.97" fill="none" stroke="#1d4ed8" stroke-width="2"  />
<path d="M 98.00 320.27 L 102.19 318.97 L 106.38 310.10 L 110.57 300.46 L 114.76 312.14 L 118.95 313.90 L 123.14 313.94 L 127.33 322.77 L 131.52 326.71 L 135.71 327.46 L 139.89 315.00 L 144.08 319.58 L 148.27 310.71 L 152.46 310.79 L 156.65 308.22 L 160.84 299.30 L 165.03 298.61 L 169.22 301.80 L 173.41 328.70 L 177.60 311.72 L 181.79 308.33 L 185.98 315.20 L 190.17 307.16 L 194.36 307.20 L 198.55 306.35 L 202.74 298.44 L 206.93 296.66 L 211.12 296.73 L 215.31 295.44 L 219.49 296.19 L 223.68 298.75 L 227.87 313.11 L 232.06 322.83 L 236.25 332.18 L 240.44 327.56 L 244.63 346.30 L 248.82 339.15 L 253.01 354.03 L 257.20 352.54 L 261.39 345.20 L 265.58 360.23 L 269.77 353.73 L 273.96 375.95 L 278.15 374.85 L 282.34 367.36 L 286.53 376.62 L 290.72 362.71 L 294.91 362.16 L 299.09 370.94 L 303.28 364.34 L 307.47 365.27 L 311.66 362.92 L 315.85 352.64 L 320.04 350.91 L 324.23 364.59 L 328.42 371.65 L 332.61 385.59 L 336.80 386.15 L 340.99 381.26 L 345.18 379.75 L 349.37 410.72 L 353.56 431.99 L 357.75 437.57 L 361.94 381.90 L 366.13 403.97 L 370.32 394.23 L 374.51 392.86 L 378.69 393.08 L 382.88 408.69 L 387.07 412.40 L 391.26 412.48 L 395.45 423.16 L 399.64 412.32 L 403.83 398.59 L 408.02 382.27 L 412.21 374.58 L 416.40 375.79 L 420.59 374.49 L 424.78 373.58 L 428.97 362.55 L 433.16 362.48 L 437.35 356.24 L 441.54 355.88 L 445.73 332.73 L 449.92 321.25 L 454.11 316.03 L 458.29 318.38 L 462.48 317.80 L 466.67 317.71 L 470.86 320.16 L 475.05 325.70 L 479.24 325.04 L 483.43 331.33 L 487.62 332.00 L 491.81 318.22 L 496.00 319.51 L 500.19 317.40 L 504.38 318.54 L 508.57 307.65 L 512.76 304.01 L 516.95 306.24 L 521.14 301.69 L 525.33 299.46 L 529.52 295.44 L 533.71 295.97 L 537.89 294.54 L 542.08 303.12 L 546.27 293.76 L 550.46 297.90 L 554.65 298.33 L 558.84 298.59 L 563.03 302.94 L 567.22 297.68 L 571.41 288.19 L 575.60 282.25 L 579.79 277.14 L 583.98 275.89 L 588.17 271.87 L 592.36 280.09 L 596.55 273.41 L 600.74 267.77 L 604.93 267.70 L 609.12 271.82 L 613.31 269.80 L 617.49 263.83 L 621.68 265.02 L 625.87 266.11 L 630.06 265.02 L 634.25 260.31 L 638.44 259.46 L 642.63 255.70 L 646.82 255.44 L 651.01 251.52 L 655.20 257.90 L 659.39 255.25 L 663.58 251.65 L 667.77 249.68 L 671.96 245.21 L 676.15 245.68 L 680.34 244.06 L 684.53 244.69 L 688.72 256.12 L 692.91 243.20 L 697.09 247.68 L 701.28 239.16 L 705.47 236.99 L 709.66 229.40 L 713.85 232.02 L 718.04 221.41 L 722.23 223.39 L 726.42 224.24 L 730.61 228.24 L 734.80 230.16 L 738.99 242.00 L 743.18 246.50 L 747.37 248.95 L 751.56 238.37 L 755.75 239.95 L 759.94 236.97 L 764.13 236.34 L 768.32 231.60 L 772.51 241.22 L 776.69 240.92 L 780.88 244.77 L 785.07 234.68 L 789.26 230.48 L 793.45 227.41 L 797.64 223.43 L 801.83 220.99 L 806.02 216.16 L 810.21 214.15 L 814.40 210.30 L 818.59 201.98 L 822.78 203.44 L 826.97 207.49 L 831.16 196.56 L 835.35 190.93 L 839.54 186.74 L 843.73 192.10 L 847.92 195.24 L 852.11 196.15 L 856.29 194.48 L 860.48 193.32 L 864.67 190.79 L 868.86 177.46 L 873.05 203.99 L 877.24 186.80 L 881.43 193.63 L 885.62 185.80 L 889.81 186.44 L 894.00 183.28 L 898.19 173.69 L 902.38 177.51 L 906.57 182.78 L 910.76 175.87 L 914.95 163.79 L 919.14 148.72 L 923.33 142.73 L 927.52 135.67 L 931.71 147.27 L 935.89 149.05 L 940.08 147.87 L 944.27 164.89 L 948.46 159.50 L 952.65 172.51 L 956.84 176.23 L 961.03 157.56 L 965.22 162.76 L 969.41 164.44 L 973.60 180.61 L 977.79 179.16 L 981.98 184.70 L 986.17 192.84 L 990.36 186.44 L 994.55 202.59 L 998.74 197.42 L 1002.93 174.29 L 1007.12 170.22 L 1011.31 165.19 L 1015.49 165.38 L 1019.68 159.03 L 1023.87 162.33 L 1028.06 155.48 L 1032.25 154.14 L 1036.44 153.38 L 1040.63 147.66 L 1044.82 146.51 L 1049.01 144.32 L 1053.20 142.08 L 1057.39 148.06 L 1061.58 167.72 L 1065.77 173.90 L 1069.96 173.14 L 1074.15 189.72 L 1078.34 177.53 L 1082.53 166.25 L 1086.72 162.56 L 1090.91 157.75 L 1095.09 157.55 L 1099.28 158.33 L 1103.47 157.95 L 1107.66 161.29 L 1111.85 162.39 L 1116.04 168.92 L 1120.23 164.99 L 1124.42 159.59 L 1128.61 158.22 L 1132.80 166.20 L 1136.99 158.65 L 1141.18 157.55 L 1145.37 158.40 L 1149.56 167.89 L 1153.75 165.85 L 1157.94 166.19 L 1162.13 166.49 L 1166.32 183.58 L 1170.51 174.64 L 1174.69 168.05 L 1178.88 166.88 L 1183.07 162.44 L 1187.26 154.17 L 1191.45 149.76 L 1195.64 151.98 L 1199.83 166.50 L 1204.02 162.52 L 1208.21 178.74 L 1212.40 197.22 L 1216.59 205.79 L 1220.78 188.00 L 1224.97 179.60 L 1229.16 185.69 L 1233.35 185.77 L 1237.54 201.38 L 1241.73 204.23 L 1245.92 196.67 L 1250.11 185.73 L 1254.29 196.79 L 1258.48 206.16 L 1262.67 203.47 L 1266.86 212.16 L 1271.05 202.22 L 1275.24 203.06 L 1279.43 213.97 L 1283.62 199.70 L 1287.81 200.96 L 1292.00 199.93" fill="none" stroke="#b45309" stroke-width="2" stroke-dasharray="6 4" />
  </g>
  <g>
    <text x="54" y="538" fill="#1f2937" font-size="16" font-weight="700">B. 绝对误差（越低越好）</text>
    <line x1="98" y1="540" x2="124" y2="540" stroke="#1d4ed8" stroke-width="2"  />
      <text x="130" y="544" fill="#24312e" font-size="12">持仓分段误差</text>
<line x1="313" y1="540" x2="339" y2="540" stroke="#b45309" stroke-width="2" stroke-dasharray="6 4" />
      <text x="345" y="544" fill="#24312e" font-size="12">持仓双目标误差</text>
    <line x1="98" y1="560.00" x2="1292" y2="560.00" stroke="#d7e3df" stroke-width="1" />
      <text x="90" y="564.00" text-anchor="end" fill="#5b6b68" font-size="11">12.82%</text>
<line x1="98" y1="630.00" x2="1292" y2="630.00" stroke="#d7e3df" stroke-width="1" />
      <text x="90" y="634.00" text-anchor="end" fill="#5b6b68" font-size="11">9.61%</text>
<line x1="98" y1="700.00" x2="1292" y2="700.00" stroke="#d7e3df" stroke-width="1" />
      <text x="90" y="704.00" text-anchor="end" fill="#5b6b68" font-size="11">6.41%</text>
<line x1="98" y1="770.00" x2="1292" y2="770.00" stroke="#d7e3df" stroke-width="1" />
      <text x="90" y="774.00" text-anchor="end" fill="#5b6b68" font-size="11">3.20%</text>
<line x1="98" y1="840.00" x2="1292" y2="840.00" stroke="#d7e3df" stroke-width="1" />
      <text x="90" y="844.00" text-anchor="end" fill="#5b6b68" font-size="11">0.00%</text>
    <line x1="98.00" y1="560" x2="98.00" y2="840" stroke="#eef3f1" stroke-width="1" />
      <text x="98.00" y="868" text-anchor="middle" fill="#5b6b68" font-size="11">25-01-02</text>
<line x1="290.72" y1="560" x2="290.72" y2="840" stroke="#eef3f1" stroke-width="1" />
      <text x="290.72" y="868" text-anchor="middle" fill="#5b6b68" font-size="11">25-03-17</text>
<line x1="479.24" y1="560" x2="479.24" y2="840" stroke="#eef3f1" stroke-width="1" />
      <text x="479.24" y="868" text-anchor="middle" fill="#5b6b68" font-size="11">25-05-23</text>
<line x1="697.09" y1="560" x2="697.09" y2="840" stroke="#eef3f1" stroke-width="1" />
      <text x="697.09" y="868" text-anchor="middle" fill="#5b6b68" font-size="11">25-08-06</text>
<line x1="910.76" y1="560" x2="910.76" y2="840" stroke="#eef3f1" stroke-width="1" />
      <text x="910.76" y="868" text-anchor="middle" fill="#5b6b68" font-size="11">25-10-24</text>
<line x1="1099.28" y1="560" x2="1099.28" y2="840" stroke="#eef3f1" stroke-width="1" />
      <text x="1099.28" y="868" text-anchor="middle" fill="#5b6b68" font-size="11">25-12-26</text>
<line x1="1292.00" y1="560" x2="1292.00" y2="840" stroke="#eef3f1" stroke-width="1" />
      <text x="1292.00" y="868" text-anchor="middle" fill="#5b6b68" font-size="11">26-03-12</text>
    <line x1="1116.04" y1="560" x2="1116.04" y2="840" stroke="#f59e0b" stroke-width="1.4" stroke-dasharray="4 4" />
       <text x="1122.04" y="552" fill="#a16207" font-size="11">验证起点</text>
    <path d="M 98.00 839.98 L 102.19 839.15 L 106.38 825.23 L 110.57 828.92 L 114.76 832.90 L 118.95 838.71 L 123.14 805.11 L 127.33 827.52 L 131.52 837.18 L 135.71 833.13 L 139.89 832.96 L 144.08 836.67 L 148.27 836.39 L 152.46 828.70 L 156.65 833.90 L 160.84 836.53 L 165.03 832.55 L 169.22 836.00 L 173.41 837.59 L 177.60 837.19 L 181.79 837.02 L 185.98 828.01 L 190.17 837.00 L 194.36 838.38 L 198.55 821.08 L 202.74 834.01 L 206.93 839.81 L 211.12 836.98 L 215.31 833.62 L 219.49 835.36 L 223.68 829.92 L 227.87 816.33 L 232.06 821.30 L 236.25 830.98 L 240.44 836.91 L 244.63 839.91 L 248.82 827.06 L 253.01 835.40 L 257.20 832.53 L 261.39 837.42 L 265.58 824.63 L 269.77 829.63 L 273.96 839.59 L 278.15 838.01 L 282.34 838.85 L 286.53 828.13 L 290.72 832.26 L 294.91 837.24 L 299.09 839.95 L 303.28 836.71 L 307.47 837.86 L 311.66 830.10 L 315.85 838.76 L 320.04 832.51 L 324.23 818.73 L 328.42 839.52 L 332.61 837.04 L 336.80 833.05 L 340.99 836.50 L 345.18 820.13 L 349.37 806.40 L 353.56 821.79 L 357.75 792.12 L 361.94 830.44 L 366.13 838.71 L 370.32 837.07 L 374.51 837.33 L 378.69 839.94 L 382.88 827.65 L 387.07 839.04 L 391.26 783.70 L 395.45 835.35 L 399.64 834.92 L 403.83 831.39 L 408.02 837.75 L 412.21 837.81 L 416.40 837.46 L 420.59 838.08 L 424.78 830.73 L 428.97 835.06 L 433.16 826.10 L 437.35 836.17 L 441.54 829.86 L 445.73 829.96 L 449.92 831.95 L 454.11 833.89 L 458.29 839.15 L 462.48 839.16 L 466.67 832.89 L 470.86 822.97 L 475.05 836.33 L 479.24 838.04 L 483.43 837.90 L 487.62 786.92 L 491.81 832.38 L 496.00 838.82 L 500.19 833.60 L 504.38 812.19 L 508.57 838.40 L 512.76 832.42 L 516.95 835.24 L 521.14 836.07 L 525.33 833.78 L 529.52 838.93 L 533.71 839.65 L 537.89 823.95 L 542.08 821.06 L 546.27 828.62 L 550.46 838.09 L 554.65 839.31 L 558.84 822.66 L 563.03 832.88 L 567.22 829.89 L 571.41 830.63 L 575.60 837.65 L 579.79 831.47 L 583.98 832.94 L 588.17 818.96 L 592.36 828.49 L 596.55 830.02 L 600.74 838.36 L 604.93 820.79 L 609.12 832.61 L 613.31 839.33 L 617.49 834.09 L 621.68 832.84 L 625.87 839.14 L 630.06 833.22 L 634.25 838.99 L 638.44 835.92 L 642.63 836.85 L 646.82 838.11 L 651.01 823.99 L 655.20 838.97 L 659.39 838.20 L 663.58 837.86 L 667.77 833.36 L 671.96 838.82 L 676.15 839.35 L 680.34 818.29 L 684.53 832.10 L 688.72 813.42 L 692.91 826.68 L 697.09 838.40 L 701.28 838.34 L 705.47 827.71 L 709.66 829.29 L 713.85 825.95 L 718.04 834.80 L 722.23 829.95 L 726.42 827.16 L 730.61 834.41 L 734.80 830.37 L 738.99 833.30 L 743.18 832.90 L 747.37 835.08 L 751.56 832.19 L 755.75 835.54 L 759.94 837.40 L 764.13 831.45 L 768.32 828.96 L 772.51 836.78 L 776.69 824.32 L 780.88 839.82 L 785.07 839.48 L 789.26 836.51 L 793.45 835.69 L 797.64 836.66 L 801.83 832.27 L 806.02 835.32 L 810.21 835.48 L 814.40 829.96 L 818.59 835.34 L 822.78 834.49 L 826.97 812.91 L 831.16 834.19 L 835.35 831.78 L 839.54 834.01 L 843.73 830.61 L 847.92 838.50 L 852.11 838.98 L 856.29 840.00 L 860.48 837.19 L 864.67 816.79 L 868.86 837.03 L 873.05 829.92 L 877.24 829.80 L 881.43 824.37 L 885.62 836.40 L 889.81 837.47 L 894.00 828.19 L 898.19 829.29 L 902.38 827.07 L 906.57 829.55 L 910.76 836.33 L 914.95 821.76 L 919.14 838.57 L 923.33 834.62 L 927.52 824.39 L 931.71 826.79 L 935.89 831.58 L 940.08 821.35 L 944.27 829.70 L 948.46 835.47 L 952.65 829.49 L 956.84 834.57 L 961.03 825.98 L 965.22 837.02 L 969.41 839.71 L 973.60 839.45 L 977.79 820.67 L 981.98 836.68 L 986.17 832.22 L 990.36 820.90 L 994.55 833.67 L 998.74 827.62 L 1002.93 839.02 L 1007.12 831.39 L 1011.31 838.79 L 1015.49 819.82 L 1019.68 832.69 L 1023.87 826.12 L 1028.06 829.98 L 1032.25 834.30 L 1036.44 832.53 L 1040.63 838.23 L 1044.82 837.32 L 1049.01 836.91 L 1053.20 830.58 L 1057.39 833.96 L 1061.58 829.58 L 1065.77 837.23 L 1069.96 828.10 L 1074.15 833.86 L 1078.34 823.02 L 1082.53 835.03 L 1086.72 837.62 L 1090.91 839.49 L 1095.09 839.09 L 1099.28 839.41 L 1103.47 831.57 L 1107.66 834.75 L 1111.85 825.38 L 1116.04 828.09 L 1120.23 829.99 L 1124.42 837.86 L 1128.61 820.46 L 1132.80 830.79 L 1136.99 839.95 L 1141.18 839.12 L 1145.37 832.22 L 1149.56 839.59 L 1153.75 836.91 L 1157.94 838.85 L 1162.13 784.99 L 1166.32 821.51 L 1170.51 836.71 L 1174.69 832.23 L 1178.88 839.87 L 1183.07 837.29 L 1187.26 828.83 L 1191.45 831.23 L 1195.64 800.08 L 1199.83 831.30 L 1204.02 833.57 L 1208.21 814.05 L 1212.40 839.24 L 1216.59 799.86 L 1220.78 828.86 L 1224.97 830.10 L 1229.16 834.33 L 1233.35 836.56 L 1237.54 839.42 L 1241.73 839.94 L 1245.92 830.41 L 1250.11 839.96 L 1254.29 818.73 L 1258.48 839.20 L 1262.67 811.88 L 1266.86 823.65 L 1271.05 830.98 L 1275.24 828.51 L 1279.43 813.92 L 1283.62 836.39 L 1287.81 836.83 L 1292.00 834.11" fill="none" stroke="#1d4ed8" stroke-width="2"  />
<path d="M 98.00 838.15 L 102.19 809.04 L 106.38 803.82 L 110.57 791.90 L 114.76 833.03 L 118.95 839.82 L 123.14 802.77 L 127.33 822.22 L 131.52 832.84 L 135.71 792.47 L 139.89 818.23 L 144.08 805.40 L 148.27 839.68 L 152.46 833.53 L 156.65 808.36 L 160.84 839.72 L 165.03 828.50 L 169.22 726.67 L 173.41 776.36 L 177.60 828.03 L 181.79 809.50 L 185.98 811.19 L 190.17 837.56 L 194.36 839.83 L 198.55 812.30 L 202.74 833.26 L 206.93 839.69 L 211.12 837.49 L 215.31 835.03 L 219.49 829.36 L 223.68 782.37 L 227.87 799.76 L 232.06 798.90 L 236.25 821.39 L 240.44 758.17 L 244.63 810.64 L 248.82 774.53 L 253.01 837.21 L 257.20 809.80 L 261.39 772.13 L 265.58 812.08 L 269.77 738.96 L 273.96 838.68 L 278.15 808.33 L 282.34 794.80 L 286.53 782.12 L 290.72 838.56 L 294.91 798.07 L 299.09 813.56 L 303.28 833.08 L 307.47 833.62 L 311.66 799.28 L 315.85 833.21 L 320.04 779.14 L 324.23 808.70 L 328.42 774.87 L 332.61 834.28 L 336.80 820.90 L 340.99 830.89 L 345.18 692.92 L 349.37 732.55 L 353.56 800.05 L 357.75 590.00 L 361.94 732.21 L 366.13 797.48 L 370.32 835.76 L 374.51 838.96 L 378.69 764.19 L 382.88 822.26 L 387.07 839.62 L 391.26 783.46 L 395.45 792.61 L 399.64 780.83 L 403.83 770.35 L 408.02 808.19 L 412.21 832.10 L 416.40 836.48 L 420.59 839.74 L 424.78 794.92 L 428.97 837.21 L 433.16 815.72 L 437.35 835.50 L 441.54 749.55 L 445.73 797.33 L 449.92 821.27 L 454.11 828.26 L 458.29 839.80 L 462.48 838.38 L 466.67 828.43 L 470.86 815.04 L 475.05 838.84 L 479.24 814.43 L 483.43 837.26 L 487.62 787.69 L 491.81 832.07 L 496.00 833.83 L 500.19 831.91 L 504.38 800.62 L 508.57 828.07 L 512.76 828.35 L 516.95 824.98 L 521.14 834.25 L 525.33 826.81 L 529.52 835.34 L 533.71 836.04 L 537.89 803.43 L 542.08 806.34 L 546.27 821.78 L 550.46 838.34 L 554.65 838.98 L 558.84 820.37 L 563.03 823.39 L 567.22 807.30 L 571.41 821.16 L 575.60 824.22 L 579.79 838.01 L 583.98 826.89 L 588.17 806.50 L 592.36 818.65 L 596.55 819.57 L 600.74 839.76 L 604.93 822.75 L 609.12 835.93 L 613.31 820.78 L 617.49 833.22 L 621.68 833.63 L 625.87 838.94 L 630.06 825.42 L 634.25 839.77 L 638.44 829.07 L 642.63 837.94 L 646.82 827.91 L 651.01 814.38 L 655.20 833.59 L 659.39 829.73 L 663.58 835.79 L 667.77 826.50 L 671.96 835.76 L 676.15 837.52 L 680.34 837.35 L 684.53 795.49 L 688.72 796.83 L 692.91 820.61 L 697.09 813.12 L 701.28 835.74 L 705.47 816.21 L 709.66 827.69 L 713.85 806.40 L 718.04 830.54 L 722.23 834.97 L 726.42 824.20 L 730.61 832.25 L 734.80 797.09 L 738.99 822.16 L 743.18 827.73 L 747.37 805.81 L 751.56 831.90 L 755.75 832.24 L 759.94 839.14 L 764.13 825.22 L 768.32 806.55 L 772.51 839.00 L 776.69 822.84 L 780.88 808.49 L 785.07 828.38 L 789.26 832.39 L 793.45 829.14 L 797.64 834.61 L 801.83 826.19 L 806.02 836.03 L 810.21 830.55 L 814.40 815.10 L 818.59 833.53 L 822.78 823.84 L 826.97 807.43 L 831.16 824.40 L 835.35 828.17 L 839.54 820.59 L 843.73 827.64 L 847.92 834.60 L 852.11 837.05 L 856.29 838.73 L 860.48 835.32 L 864.67 797.77 L 868.86 748.50 L 873.05 786.47 L 877.24 814.98 L 881.43 817.28 L 885.62 835.30 L 889.81 833.18 L 894.00 812.10 L 898.19 825.94 L 902.38 820.39 L 906.57 821.65 L 910.76 806.37 L 914.95 797.59 L 919.14 825.21 L 923.33 819.68 L 927.52 802.25 L 931.71 831.93 L 935.89 837.60 L 940.08 784.50 L 944.27 824.64 L 948.46 797.12 L 952.65 824.21 L 956.84 784.86 L 961.03 821.97 L 965.22 833.81 L 969.41 786.17 L 973.60 837.47 L 977.79 821.01 L 981.98 810.62 L 986.17 820.75 L 990.36 784.30 L 994.55 828.01 L 998.74 770.27 L 1002.93 830.14 L 1007.12 824.44 L 1011.31 839.40 L 1015.49 822.46 L 1019.68 827.12 L 1023.87 820.98 L 1028.06 838.56 L 1032.25 839.53 L 1036.44 825.16 L 1040.63 839.00 L 1044.82 835.87 L 1049.01 835.21 L 1053.20 821.32 L 1057.39 777.15 L 1061.58 817.96 L 1065.77 838.66 L 1069.96 783.22 L 1074.15 804.73 L 1078.34 807.56 L 1082.53 831.81 L 1086.72 827.72 L 1090.91 839.43 L 1095.09 837.58 L 1099.28 839.06 L 1103.47 827.24 L 1107.66 834.68 L 1111.85 817.35 L 1116.04 830.41 L 1120.23 825.92 L 1124.42 837.77 L 1128.61 812.17 L 1132.80 819.25 L 1136.99 838.82 L 1141.18 836.19 L 1145.37 807.83 L 1149.56 836.15 L 1153.75 838.91 L 1157.94 839.05 L 1162.13 782.76 L 1166.32 815.09 L 1170.51 822.38 L 1174.69 839.44 L 1178.88 829.54 L 1183.07 817.18 L 1187.26 829.02 L 1191.45 831.36 L 1195.64 792.30 L 1199.83 828.78 L 1204.02 787.40 L 1208.21 778.54 L 1212.40 808.53 L 1216.59 786.17 L 1220.78 815.25 L 1224.97 818.44 L 1229.16 838.88 L 1233.35 787.33 L 1237.54 826.91 L 1241.73 818.87 L 1245.92 806.40 L 1250.11 802.50 L 1254.29 806.49 L 1258.48 833.24 L 1262.67 807.92 L 1266.86 810.21 L 1271.05 835.90 L 1275.24 800.16 L 1279.43 795.94 L 1283.62 833.50 L 1287.81 837.91 L 1292.00 797.39" fill="none" stroke="#b45309" stroke-width="2" stroke-dasharray="6 4" />
  </g>
</svg>