<?xml version="1.0" encoding="UTF-8"?>
<svg xmlns="http://www.w3.org/2000/svg" width="1360" height="980" viewBox="0 0 1360 980">
  <defs>
    <linearGradient id="bg" x1="0" y1="0" x2="1" y2="1">
      <stop offset="0%" stop-color="#f4efe6" />
      <stop offset="100%" stop-color="#eef5f2" />
    </linearGradient>
  </defs>
  <rect x="0" y="0" width="1360" height="980" fill="url(#bg)" />
  <text x="46" y="36" fill="#1f2937" font-size="31" font-weight="700">159502 离线研究图（持仓逐日估值版）</text>
  <text x="46" y="66" fill="#5b6b68" font-size="13">历史前十大持仓 + 持仓逐日涨跌幅 + USDCNY；双目标 lambda=0.10；披露期数 8；覆盖率均值 92.1%</text>
  <g>
    <text x="54" y="110" fill="#1f2937" font-size="16" font-weight="700">A. 净值拟合（同日对齐，无平移）</text>
    <line x1="98" y1="112" x2="124" y2="112" stroke="#0f766e" stroke-width="2"  />
      <text x="130" y="116" fill="#24312e" font-size="12">真实净值</text>
<line x1="313" y1="112" x2="339" y2="112" stroke="#1d4ed8" stroke-width="2"  />
      <text x="345" y="116" fill="#24312e" font-size="12">持仓分段估值</text>
    <line x1="98" y1="132.00" x2="1292" y2="132.00" stroke="#d7e3df" stroke-width="1" />
      <text x="90" y="136.00" text-anchor="end" fill="#5b6b68" font-size="11">1.370</text>
<line x1="98" y1="209.50" x2="1292" y2="209.50" stroke="#d7e3df" stroke-width="1" />
      <text x="90" y="213.50" text-anchor="end" fill="#5b6b68" font-size="11">1.214</text>
<line x1="98" y1="287.00" x2="1292" y2="287.00" stroke="#d7e3df" stroke-width="1" />
      <text x="90" y="291.00" text-anchor="end" fill="#5b6b68" font-size="11">1.058</text>
<line x1="98" y1="364.50" x2="1292" y2="364.50" stroke="#d7e3df" stroke-width="1" />
      <text x="90" y="368.50" text-anchor="end" fill="#5b6b68" font-size="11">0.902</text>
<line x1="98" y1="442.00" x2="1292" y2="442.00" stroke="#d7e3df" stroke-width="1" />
      <text x="90" y="446.00" text-anchor="end" fill="#5b6b68" font-size="11">0.746</text>
    <line x1="98.00" y1="132" x2="98.00" y2="442" stroke="#eef3f1" stroke-width="1" />
      <text x="98.00" y="470" text-anchor="middle" fill="#5b6b68" font-size="11">25-01-02</text>
<line x1="290.72" y1="132" x2="290.72" y2="442" stroke="#eef3f1" stroke-width="1" />
      <text x="290.72" y="470" text-anchor="middle" fill="#5b6b68" font-size="11">25-03-17</text>
<line x1="479.24" y1="132" x2="479.24" y2="442" stroke="#eef3f1" stroke-width="1" />
      <text x="479.24" y="470" text-anchor="middle" fill="#5b6b68" font-size="11">25-05-23</text>
<line x1="697.09" y1="132" x2="697.09" y2="442" stroke="#eef3f1" stroke-width="1" />
      <text x="697.09" y="470" text-anchor="middle" fill="#5b6b68" font-size="11">25-08-06</text>
<line x1="910.76" y1="132" x2="910.76" y2="442" stroke="#eef3f1" stroke-width="1" />
      <text x="910.76" y="470" text-anchor="middle" fill="#5b6b68" font-size="11">25-10-24</text>
<line x1="1099.28" y1="132" x2="1099.28" y2="442" stroke="#eef3f1" stroke-width="1" />
      <text x="1099.28" y="470" text-anchor="middle" fill="#5b6b68" font-size="11">25-12-26</text>
<line x1="1292.00" y1="132" x2="1292.00" y2="442" stroke="#eef3f1" stroke-width="1" />
      <text x="1292.00" y="470" text-anchor="middle" fill="#5b6b68" font-size="11">26-03-12</text>
    <line x1="1116.04" y1="132" x2="1116.04" y2="442" stroke="#f59e0b" stroke-width="1.4" stroke-dasharray="4 4" />
       <text x="1122.04" y="124" fill="#a16207" font-size="11">验证起点</text>
    <path d="M 98.00 324.28 L 102.19 319.61 L 106.38 320.85 L 110.57 317.07 L 114.76 320.40 L 118.95 320.45 L 123.14 335.51 L 127.33 337.25 L 131.52 350.11 L 135.71 340.03 L 139.89 343.95 L 144.08 343.31 L 148.27 343.36 L 152.46 331.13 L 156.65 327.46 L 160.84 317.87 L 165.03 320.85 L 169.22 320.11 L 173.41 308.98 L 177.60 316.48 L 181.79 327.31 L 185.98 332.03 L 190.17 339.03 L 194.36 334.02 L 198.55 329.50 L 202.74 326.51 L 206.93 326.56 L 211.12 326.81 L 215.31 320.40 L 219.49 319.56 L 223.68 325.37 L 227.87 333.52 L 232.06 341.02 L 236.25 342.91 L 240.44 349.32 L 244.63 340.52 L 248.82 357.37 L 253.01 354.73 L 257.20 345.94 L 261.39 350.01 L 265.58 348.67 L 269.77 354.19 L 273.96 354.14 L 278.15 349.07 L 282.34 355.38 L 286.53 349.07 L 290.72 343.36 L 294.91 354.68 L 299.09 347.63 L 303.28 351.36 L 307.47 349.57 L 311.66 340.52 L 315.85 350.01 L 320.04 360.75 L 324.23 358.16 L 328.42 364.07 L 332.61 381.56 L 336.80 397.16 L 340.99 383.90 L 345.18 396.86 L 349.37 423.35 L 353.56 440.14 L 357.75 413.11 L 361.94 430.55 L 366.13 415.55 L 370.32 403.87 L 374.51 403.97 L 378.69 411.62 L 382.88 407.15 L 387.07 407.25 L 391.26 409.78 L 395.45 398.06 L 399.64 390.31 L 403.83 380.87 L 408.02 384.74 L 412.21 378.83 L 416.40 376.54 L 420.59 370.38 L 424.78 401.34 L 428.97 399.94 L 433.16 396.57 L 437.35 405.36 L 441.54 388.97 L 445.73 399.45 L 449.92 405.96 L 454.11 399.40 L 458.29 392.19 L 462.48 388.52 L 466.67 379.43 L 470.86 390.31 L 475.05 391.15 L 479.24 392.14 L 483.43 392.69 L 487.62 390.90 L 491.81 393.73 L 496.00 384.69 L 500.19 391.85 L 504.38 375.20 L 508.57 374.26 L 512.76 374.06 L 516.95 365.02 L 521.14 364.97 L 525.33 359.60 L 529.52 364.57 L 533.71 364.92 L 537.89 369.24 L 542.08 370.48 L 546.27 377.24 L 550.46 374.11 L 554.65 374.31 L 558.84 375.90 L 563.03 376.69 L 567.22 368.69 L 571.41 371.78 L 575.60 369.94 L 579.79 373.17 L 583.98 374.11 L 588.17 373.41 L 592.36 364.37 L 596.55 361.99 L 600.74 361.94 L 604.93 371.03 L 609.12 365.12 L 613.31 348.57 L 617.49 346.09 L 621.68 353.29 L 625.87 346.74 L 630.06 359.11 L 634.25 348.97 L 638.44 348.13 L 642.63 357.42 L 646.82 359.40 L 651.01 355.23 L 655.20 347.38 L 659.39 351.55 L 663.58 351.01 L 667.77 357.07 L 671.96 359.55 L 676.15 357.76 L 680.34 360.80 L 684.53 359.60 L 688.72 355.23 L 692.91 355.38 L 697.09 359.01 L 701.28 363.43 L 705.47 362.53 L 709.66 363.78 L 713.85 354.49 L 718.04 341.82 L 722.23 341.52 L 726.42 335.51 L 730.61 338.29 L 734.80 345.39 L 738.99 343.01 L 743.18 339.73 L 747.37 334.51 L 751.56 346.78 L 755.75 340.67 L 759.94 339.13 L 764.13 339.48 L 768.32 342.06 L 772.51 341.82 L 776.69 325.67 L 780.88 321.99 L 785.07 323.19 L 789.26 312.65 L 793.45 318.47 L 797.64 315.63 L 801.83 321.05 L 806.02 311.66 L 810.21 320.20 L 814.40 323.83 L 818.59 321.94 L 822.78 322.04 L 826.97 306.44 L 831.16 311.71 L 835.35 303.11 L 839.54 306.19 L 843.73 302.52 L 847.92 310.72 L 852.11 299.14 L 856.29 292.33 L 860.48 288.56 L 864.67 255.47 L 868.86 263.91 L 873.05 262.92 L 877.24 263.62 L 881.43 246.82 L 885.62 249.36 L 889.81 250.10 L 894.00 237.33 L 898.19 241.21 L 902.38 252.79 L 906.57 251.39 L 910.76 247.37 L 914.95 231.07 L 919.14 228.84 L 923.33 234.40 L 927.52 229.38 L 931.71 224.91 L 935.89 240.07 L 940.08 249.41 L 944.27 242.95 L 948.46 243.00 L 952.65 245.03 L 956.84 238.97 L 961.03 218.90 L 965.22 218.90 L 969.41 229.53 L 973.60 219.65 L 977.79 215.77 L 981.98 213.29 L 986.17 217.01 L 990.36 220.04 L 994.55 205.79 L 998.74 190.93 L 1002.93 181.64 L 1007.12 174.39 L 1011.31 174.59 L 1015.49 172.75 L 1019.68 190.24 L 1023.87 197.09 L 1028.06 180.00 L 1032.25 172.90 L 1036.44 171.90 L 1040.63 170.56 L 1044.82 183.03 L 1049.01 178.86 L 1053.20 174.68 L 1057.39 174.59 L 1061.58 175.78 L 1065.77 180.80 L 1069.96 186.56 L 1074.15 190.98 L 1078.34 173.84 L 1082.53 158.44 L 1086.72 164.75 L 1090.91 157.69 L 1095.09 158.44 L 1099.28 165.64 L 1103.47 173.59 L 1107.66 182.48 L 1111.85 181.79 L 1116.04 191.63 L 1120.23 182.24 L 1124.42 160.13 L 1128.61 173.94 L 1132.80 170.21 L 1136.99 173.39 L 1141.18 173.84 L 1145.37 158.74 L 1149.56 171.85 L 1153.75 172.25 L 1157.94 172.55 L 1162.13 167.48 L 1166.32 152.72 L 1170.51 135.39 L 1174.69 154.26 L 1178.88 155.76 L 1183.07 152.13 L 1187.26 166.49 L 1191.45 162.21 L 1195.64 173.39 L 1199.83 159.78 L 1204.02 159.08 L 1208.21 171.95 L 1212.40 194.86 L 1216.59 170.26 L 1220.78 168.28 L 1224.97 172.95 L 1229.16 175.98 L 1233.35 183.53 L 1237.54 185.86 L 1241.73 153.82 L 1245.92 159.33 L 1250.11 163.11 L 1254.29 164.45 L 1258.48 168.82 L 1262.67 185.17 L 1266.86 170.56 L 1271.05 184.17 L 1275.24 183.43 L 1279.43 166.74 L 1283.62 166.49 L 1287.81 172.30 L 1292.00 191.13" fill="none" stroke="#0f766e" stroke-width="2"  />
<path d="M 98.00 330.14 L 102.19 320.84 L 106.38 318.31 L 110.57 318.58 L 114.76 316.06 L 118.95 320.71 L 123.14 320.91 L 127.33 332.28 L 131.52 345.92 L 135.71 347.75 L 139.89 340.18 L 144.08 345.18 L 148.27 344.18 L 152.46 344.56 L 156.65 330.50 L 160.84 318.24 L 165.03 319.17 L 169.22 318.29 L 173.41 311.76 L 177.60 311.08 L 181.79 324.42 L 185.98 328.56 L 190.17 334.39 L 194.36 337.22 L 198.55 331.41 L 202.74 330.32 L 206.93 327.08 L 211.12 326.38 L 215.31 323.13 L 219.49 319.40 L 223.68 320.42 L 227.87 325.70 L 232.06 334.34 L 236.25 342.83 L 240.44 345.36 L 244.63 344.24 L 248.82 349.70 L 253.01 357.64 L 257.20 348.77 L 261.39 347.01 L 265.58 349.33 L 269.77 352.39 L 273.96 357.27 L 278.15 353.32 L 282.34 350.90 L 286.53 352.09 L 290.72 347.23 L 294.91 350.34 L 299.09 352.15 L 303.28 349.73 L 307.47 349.66 L 311.66 347.20 L 315.85 347.54 L 320.04 353.34 L 324.23 359.78 L 328.42 360.86 L 332.61 365.02 L 336.80 397.59 L 340.99 389.93 L 345.18 393.57 L 349.37 434.73 L 353.56 440.04 L 357.75 405.60 L 361.94 438.73 L 366.13 417.63 L 370.32 404.78 L 374.51 404.26 L 378.69 411.23 L 382.88 410.87 L 387.07 407.15 L 391.26 407.78 L 395.45 394.47 L 399.64 394.99 L 403.83 381.00 L 408.02 381.59 L 412.21 382.65 L 416.40 378.07 L 420.59 372.38 L 424.78 404.97 L 428.97 399.58 L 433.16 399.18 L 437.35 406.03 L 441.54 385.51 L 445.73 403.51 L 449.92 407.09 L 454.11 396.66 L 458.29 389.62 L 462.48 389.53 L 466.67 381.65 L 470.86 391.93 L 475.05 390.82 L 479.24 391.61 L 483.43 392.25 L 487.62 392.57 L 491.81 391.95 L 496.00 387.01 L 500.19 387.24 L 504.38 383.63 L 508.57 374.26 L 512.76 374.74 L 516.95 367.21 L 521.14 362.94 L 525.33 362.43 L 529.52 360.73 L 533.71 363.06 L 537.89 366.70 L 542.08 368.72 L 546.27 377.63 L 550.46 376.41 L 554.65 374.39 L 558.84 374.71 L 563.03 375.54 L 567.22 369.42 L 571.41 369.40 L 575.60 370.79 L 579.79 370.88 L 583.98 372.16 L 588.17 372.04 L 592.36 370.79 L 596.55 363.22 L 600.74 361.99 L 604.93 361.90 L 609.12 367.54 L 613.31 353.14 L 617.49 345.43 L 621.68 351.67 L 625.87 353.34 L 630.06 357.68 L 634.25 349.94 L 638.44 348.56 L 642.63 355.94 L 646.82 358.73 L 651.01 351.04 L 655.20 346.88 L 659.39 348.27 L 663.58 350.70 L 667.77 352.89 L 671.96 358.05 L 676.15 359.51 L 680.34 360.79 L 684.53 359.62 L 688.72 358.13 L 692.91 356.46 L 697.09 358.16 L 701.28 359.84 L 705.47 362.19 L 709.66 363.17 L 713.85 356.79 L 718.04 342.92 L 722.23 341.20 L 726.42 335.97 L 730.61 336.94 L 734.80 338.74 L 738.99 344.32 L 743.18 342.53 L 747.37 336.67 L 751.56 345.85 L 755.75 344.06 L 759.94 339.70 L 764.13 339.91 L 768.32 338.61 L 772.51 343.07 L 776.69 341.86 L 780.88 324.31 L 785.07 320.89 L 789.26 313.82 L 793.45 314.57 L 797.64 316.12 L 801.83 320.91 L 806.02 308.32 L 810.21 319.89 L 814.40 321.63 L 818.59 322.55 L 822.78 321.54 L 826.97 312.08 L 831.16 307.15 L 835.35 310.65 L 839.54 303.93 L 843.73 306.59 L 847.92 311.18 L 852.11 303.32 L 856.29 296.51 L 860.48 283.56 L 864.67 252.05 L 868.86 264.25 L 873.05 261.90 L 877.24 261.73 L 881.43 257.21 L 885.62 245.93 L 889.81 247.67 L 894.00 245.45 L 898.19 237.24 L 902.38 243.85 L 906.57 251.58 L 910.76 250.11 L 914.95 242.57 L 919.14 231.28 L 923.33 231.17 L 927.52 232.76 L 931.71 225.04 L 935.89 225.25 L 940.08 242.33 L 944.27 240.74 L 948.46 243.32 L 952.65 243.61 L 956.84 240.88 L 961.03 219.21 L 965.22 216.62 L 969.41 223.19 L 973.60 228.18 L 977.79 217.00 L 981.98 213.62 L 986.17 214.22 L 990.36 218.01 L 994.55 204.96 L 998.74 199.48 L 1002.93 181.06 L 1007.12 179.29 L 1011.31 174.72 L 1015.49 175.19 L 1019.68 186.52 L 1023.87 191.87 L 1028.06 187.08 L 1032.25 178.69 L 1036.44 172.66 L 1040.63 173.39 L 1044.82 179.45 L 1049.01 177.47 L 1053.20 176.05 L 1057.39 174.76 L 1061.58 171.50 L 1065.77 178.91 L 1069.96 181.75 L 1074.15 188.12 L 1078.34 173.50 L 1082.53 168.52 L 1086.72 160.22 L 1090.91 162.58 L 1095.09 158.26 L 1099.28 158.99 L 1103.47 165.64 L 1107.66 178.40 L 1111.85 184.50 L 1116.04 181.73 L 1120.23 175.57 L 1124.42 163.69 L 1128.61 176.17 L 1132.80 173.10 L 1136.99 172.02 L 1141.18 172.99 L 1145.37 169.29 L 1149.56 162.90 L 1153.75 173.49 L 1157.94 173.35 L 1162.13 173.05 L 1166.32 145.82 L 1170.51 144.22 L 1174.69 144.52 L 1178.88 153.58 L 1183.07 156.02 L 1187.26 161.58 L 1191.45 165.79 L 1195.64 165.51 L 1199.83 169.64 L 1204.02 161.61 L 1208.21 162.14 L 1212.40 191.51 L 1216.59 173.48 L 1220.78 171.31 L 1224.97 172.42 L 1229.16 172.82 L 1233.35 181.57 L 1237.54 180.13 L 1241.73 172.47 L 1245.92 155.91 L 1250.11 162.96 L 1254.29 160.35 L 1258.48 164.52 L 1262.67 181.88 L 1266.86 177.52 L 1271.05 188.39 L 1275.24 185.40 L 1279.43 167.42 L 1283.62 168.32 L 1287.81 167.88 L 1292.00 191.24" fill="none" stroke="#1d4ed8" stroke-width="2"  />
  </g>
  <g>
    <text x="54" y="538" fill="#1f2937" font-size="16" font-weight="700">B. 绝对误差（越低越好）</text>
    <line x1="98" y1="540" x2="124" y2="540" stroke="#1d4ed8" stroke-width="2"  />
      <text x="130" y="544" fill="#24312e" font-size="12">持仓分段误差</text>
    <line x1="98" y1="560.00" x2="1292" y2="560.00" stroke="#d7e3df" stroke-width="1" />
      <text x="90" y="564.00" text-anchor="end" fill="#5b6b68" font-size="11">4.30%</text>
<line x1="98" y1="630.00" x2="1292" y2="630.00" stroke="#d7e3df" stroke-width="1" />
      <text x="90" y="634.00" text-anchor="end" fill="#5b6b68" font-size="11">3.23%</text>
<line x1="98" y1="700.00" x2="1292" y2="700.00" stroke="#d7e3df" stroke-width="1" />
      <text x="90" y="704.00" text-anchor="end" fill="#5b6b68" font-size="11">2.15%</text>
<line x1="98" y1="770.00" x2="1292" y2="770.00" stroke="#d7e3df" stroke-width="1" />
      <text x="90" y="774.00" text-anchor="end" fill="#5b6b68" font-size="11">1.08%</text>
<line x1="98" y1="840.00" x2="1292" y2="840.00" stroke="#d7e3df" stroke-width="1" />
      <text x="90" y="844.00" text-anchor="end" fill="#5b6b68" font-size="11">0.00%</text>
    <line x1="98.00" y1="560" x2="98.00" y2="840" stroke="#eef3f1" stroke-width="1" />
      <text x="98.00" y="868" text-anchor="middle" fill="#5b6b68" font-size="11">25-01-02</text>
<line x1="290.72" y1="560" x2="290.72" y2="840" stroke="#eef3f1" stroke-width="1" />
      <text x="290.72" y="868" text-anchor="middle" fill="#5b6b68" font-size="11">25-03-17</text>
<line x1="479.24" y1="560" x2="479.24" y2="840" stroke="#eef3f1" stroke-width="1" />
      <text x="479.24" y="868" text-anchor="middle" fill="#5b6b68" font-size="11">25-05-23</text>
<line x1="697.09" y1="560" x2="697.09" y2="840" stroke="#eef3f1" stroke-width="1" />
      <text x="697.09" y="868" text-anchor="middle" fill="#5b6b68" font-size="11">25-08-06</text>
<line x1="910.76" y1="560" x2="910.76" y2="840" stroke="#eef3f1" stroke-width="1" />
      <text x="910.76" y="868" text-anchor="middle" fill="#5b6b68" font-size="11">25-10-24</text>
<line x1="1099.28" y1="560" x2="1099.28" y2="840" stroke="#eef3f1" stroke-width="1" />
      <text x="1099.28" y="868" text-anchor="middle" fill="#5b6b68" font-size="11">25-12-26</text>
<line x1="1292.00" y1="560" x2="1292.00" y2="840" stroke="#eef3f1" stroke-width="1" />
      <text x="1292.00" y="868" text-anchor="middle" fill="#5b6b68" font-size="11">26-03-12</text>
    <line x1="1116.04" y1="560" x2="1116.04" y2="840" stroke="#f59e0b" stroke-width="1.4" stroke-dasharray="4 4" />
       <text x="1122.04" y="552" fill="#a16207" font-size="11">验证起点</text>
    <path d="M 98.00 761.86 L 102.19 823.73 L 106.38 806.29 L 110.57 820.21 L 114.76 782.55 L 118.95 836.61 L 123.14 640.79 L 127.33 771.96 L 131.52 780.98 L 135.71 733.51 L 139.89 787.56 L 144.08 814.01 L 148.27 828.60 L 152.46 658.45 L 156.65 799.11 L 160.84 835.08 L 165.03 817.78 L 169.22 815.99 L 173.41 803.95 L 177.60 769.11 L 181.79 801.25 L 185.98 793.02 L 190.17 776.14 L 194.36 796.39 L 198.55 814.21 L 202.74 789.02 L 206.93 833.14 L 211.12 834.17 L 215.31 803.98 L 219.49 837.96 L 223.68 773.80 L 227.87 733.67 L 232.06 747.75 L 236.25 838.84 L 240.44 784.37 L 244.63 788.74 L 248.82 730.37 L 253.01 798.68 L 257.20 800.52 L 261.39 797.77 L 265.58 830.74 L 269.77 814.41 L 273.96 795.47 L 278.15 780.32 L 282.34 776.18 L 286.53 797.50 L 290.72 786.29 L 294.91 778.19 L 299.09 776.63 L 303.28 817.10 L 307.47 838.70 L 311.66 747.94 L 315.85 805.11 L 320.04 733.21 L 324.23 816.75 L 328.42 793.34 L 332.61 590.00 L 336.80 833.36 L 340.99 748.38 L 345.18 788.45 L 349.37 649.50 L 353.56 838.27 L 357.75 717.53 L 361.94 700.54 L 366.13 805.80 L 370.32 825.43 L 374.51 835.34 L 378.69 833.66 L 382.88 780.30 L 387.07 838.40 L 391.26 807.65 L 395.45 783.71 L 399.64 767.71 L 403.83 838.05 L 408.02 792.02 L 412.21 782.70 L 416.40 817.22 L 420.59 810.59 L 424.78 782.46 L 428.97 834.31 L 433.16 799.03 L 437.35 829.30 L 441.54 786.92 L 445.73 776.05 L 449.92 821.80 L 454.11 796.84 L 458.29 800.19 L 462.48 824.44 L 466.67 806.60 L 470.86 814.93 L 475.05 834.95 L 479.24 831.71 L 483.43 833.09 L 487.62 814.20 L 491.81 812.30 L 496.00 804.68 L 500.19 768.71 L 504.38 714.47 L 508.57 839.93 L 512.76 829.98 L 516.95 808.04 L 521.14 810.51 L 525.33 799.39 L 529.52 784.15 L 533.71 812.91 L 537.89 802.64 L 542.08 814.09 L 546.27 834.22 L 550.46 805.86 L 554.65 838.85 L 558.84 822.34 L 563.03 822.69 L 567.22 829.37 L 571.41 804.91 L 575.60 827.40 L 579.79 806.13 L 583.98 811.05 L 588.17 819.63 L 592.36 746.78 L 596.55 822.16 L 600.74 839.32 L 604.93 705.32 L 609.12 804.72 L 613.31 775.86 L 617.49 830.79 L 621.68 816.92 L 625.87 747.68 L 630.06 819.53 L 634.25 826.43 L 638.44 833.87 L 642.63 818.92 L 646.82 830.37 L 651.01 780.36 L 655.20 833.06 L 659.39 793.63 L 663.58 835.70 L 667.77 780.18 L 671.96 818.43 L 676.15 814.96 L 680.34 839.94 L 684.53 839.70 L 688.72 798.70 L 692.91 824.67 L 697.09 827.80 L 701.28 787.94 L 705.47 835.09 L 709.66 831.19 L 713.85 807.20 L 718.04 824.77 L 722.23 835.53 L 726.42 833.62 L 730.61 821.47 L 734.80 747.25 L 738.99 821.82 L 743.18 801.48 L 747.37 810.59 L 751.56 826.86 L 755.75 793.23 L 759.94 832.23 L 764.13 834.12 L 768.32 792.25 L 772.51 822.63 L 776.69 623.41 L 780.88 809.27 L 785.07 809.47 L 789.26 824.74 L 793.45 788.67 L 797.64 833.58 L 801.83 838.17 L 806.02 796.56 L 810.21 835.82 L 814.40 810.64 L 818.59 831.91 L 822.78 833.38 L 826.97 767.44 L 831.16 780.69 L 835.35 743.68 L 839.54 810.86 L 843.73 787.95 L 847.92 833.98 L 852.11 786.98 L 856.29 787.66 L 860.48 777.94 L 864.67 800.07 L 868.86 836.02 L 873.05 827.96 L 877.24 817.65 L 881.43 720.40 L 885.62 800.33 L 889.81 811.87 L 894.00 748.15 L 898.19 794.71 L 902.38 736.07 L 906.57 837.82 L 910.76 808.38 L 914.95 711.30 L 919.14 812.80 L 923.33 803.59 L 927.52 802.31 L 931.71 838.64 L 935.89 671.51 L 940.08 758.19 L 944.27 814.77 L 948.46 836.35 L 952.65 823.69 L 956.84 818.36 L 961.03 836.59 L 965.22 814.93 L 969.41 769.16 L 973.60 746.32 L 977.79 826.58 L 981.98 836.36 L 986.17 809.47 L 990.36 817.68 L 994.55 831.08 L 998.74 750.42 L 1002.93 834.00 L 1007.12 789.95 L 1011.31 838.60 L 1015.49 815.11 L 1019.68 801.17 L 1023.87 784.80 L 1028.06 767.16 L 1032.25 780.96 L 1036.44 832.30 L 1040.63 811.28 L 1044.82 802.92 L 1049.01 825.69 L 1053.20 826.08 L 1057.39 838.20 L 1061.58 796.26 L 1065.77 820.56 L 1069.96 790.01 L 1074.15 809.98 L 1078.34 836.52 L 1082.53 739.61 L 1086.72 794.49 L 1090.91 791.36 L 1095.09 838.22 L 1099.28 773.04 L 1103.47 758.93 L 1107.66 797.77 L 1111.85 812.03 L 1116.04 736.26 L 1120.23 771.13 L 1124.42 804.40 L 1128.61 817.30 L 1132.80 810.69 L 1136.99 826.02 L 1141.18 831.38 L 1145.37 734.87 L 1149.56 748.97 L 1153.75 827.43 L 1157.94 831.87 L 1162.13 783.77 L 1166.32 771.87 L 1170.51 755.05 L 1174.69 743.63 L 1178.88 818.46 L 1183.07 801.67 L 1187.26 790.51 L 1191.45 804.23 L 1195.64 759.68 L 1199.83 741.66 L 1204.02 814.85 L 1208.21 740.23 L 1212.40 804.68 L 1216.59 807.34 L 1220.78 809.31 L 1224.97 834.60 L 1229.16 807.68 L 1233.35 819.71 L 1237.54 780.40 L 1241.73 655.65 L 1245.92 805.84 L 1250.11 838.54 L 1254.29 798.76 L 1258.48 796.44 L 1262.67 805.93 L 1266.86 769.39 L 1271.05 796.31 L 1275.24 819.58 L 1279.43 833.14 L 1283.62 821.51 L 1287.81 795.02 L 1292.00 838.84" fill="none" stroke="#1d4ed8" stroke-width="2"  />
  </g>
</svg>