<?xml version="1.0" encoding="UTF-8"?>
<svg xmlns="http://www.w3.org/2000/svg" width="1360" height="980" viewBox="0 0 1360 980">
  <defs>
    <linearGradient id="bg" x1="0" y1="0" x2="1" y2="1">
      <stop offset="0%" stop-color="#f4efe6" />
      <stop offset="100%" stop-color="#eef5f2" />
    </linearGradient>
  </defs>
  <rect x="0" y="0" width="1360" height="980" fill="url(#bg)" />
  <text x="46" y="36" fill="#1f2937" font-size="31" font-weight="700">159561 离线研究图（持仓逐日估值版）</text>
  <text x="46" y="66" fill="#5b6b68" font-size="13">历史前十大持仓 + 持仓逐日涨跌幅 + USDCNY；双目标 lambda=0.10；披露期数 7；覆盖率均值 90.7%</text>
  <g>
    <text x="54" y="110" fill="#1f2937" font-size="16" font-weight="700">A. 净值拟合（同日对齐，无平移）</text>
    <line x1="98" y1="112" x2="124" y2="112" stroke="#0f766e" stroke-width="2"  />
      <text x="130" y="116" fill="#24312e" font-size="12">真实净值</text>
<line x1="313" y1="112" x2="339" y2="112" stroke="#1d4ed8" stroke-width="2"  />
      <text x="345" y="116" fill="#24312e" font-size="12">持仓分段估值</text>
    <line x1="98" y1="132.00" x2="1292" y2="132.00" stroke="#d7e3df" stroke-width="1" />
      <text x="90" y="136.00" text-anchor="end" fill="#5b6b68" font-size="11">1.407</text>
<line x1="98" y1="209.50" x2="1292" y2="209.50" stroke="#d7e3df" stroke-width="1" />
      <text x="90" y="213.50" text-anchor="end" fill="#5b6b68" font-size="11">1.310</text>
<line x1="98" y1="287.00" x2="1292" y2="287.00" stroke="#d7e3df" stroke-width="1" />
      <text x="90" y="291.00" text-anchor="end" fill="#5b6b68" font-size="11">1.213</text>
<line x1="98" y1="364.50" x2="1292" y2="364.50" stroke="#d7e3df" stroke-width="1" />
      <text x="90" y="368.50" text-anchor="end" fill="#5b6b68" font-size="11">1.117</text>
<line x1="98" y1="442.00" x2="1292" y2="442.00" stroke="#d7e3df" stroke-width="1" />
      <text x="90" y="446.00" text-anchor="end" fill="#5b6b68" font-size="11">1.020</text>
    <line x1="98.00" y1="132" x2="98.00" y2="442" stroke="#eef3f1" stroke-width="1" />
      <text x="98.00" y="470" text-anchor="middle" fill="#5b6b68" font-size="11">25-01-02</text>
<line x1="290.72" y1="132" x2="290.72" y2="442" stroke="#eef3f1" stroke-width="1" />
      <text x="290.72" y="470" text-anchor="middle" fill="#5b6b68" font-size="11">25-03-17</text>
<line x1="479.24" y1="132" x2="479.24" y2="442" stroke="#eef3f1" stroke-width="1" />
      <text x="479.24" y="470" text-anchor="middle" fill="#5b6b68" font-size="11">25-05-23</text>
<line x1="697.09" y1="132" x2="697.09" y2="442" stroke="#eef3f1" stroke-width="1" />
      <text x="697.09" y="470" text-anchor="middle" fill="#5b6b68" font-size="11">25-08-06</text>
<line x1="910.76" y1="132" x2="910.76" y2="442" stroke="#eef3f1" stroke-width="1" />
      <text x="910.76" y="470" text-anchor="middle" fill="#5b6b68" font-size="11">25-10-24</text>
<line x1="1099.28" y1="132" x2="1099.28" y2="442" stroke="#eef3f1" stroke-width="1" />
      <text x="1099.28" y="470" text-anchor="middle" fill="#5b6b68" font-size="11">25-12-26</text>
<line x1="1292.00" y1="132" x2="1292.00" y2="442" stroke="#eef3f1" stroke-width="1" />
      <text x="1292.00" y="470" text-anchor="middle" fill="#5b6b68" font-size="11">26-03-12</text>
    <line x1="1116.04" y1="132" x2="1116.04" y2="442" stroke="#f59e0b" stroke-width="1.4" stroke-dasharray="4 4" />
       <text x="1122.04" y="124" fill="#a16207" font-size="11">验证起点</text>
    <path d="M 98.00 425.89 L 102.19 437.90 L 106.38 423.09 L 110.57 411.40 L 114.76 413.40 L 118.95 416.36 L 123.14 422.45 L 127.33 429.33 L 131.52 423.89 L 135.71 407.80 L 139.89 405.63 L 144.08 394.11 L 148.27 394.51 L 152.46 383.46 L 156.65 375.13 L 160.84 368.81 L 165.03 369.05 L 169.22 371.69 L 173.41 366.24 L 177.60 353.68 L 181.79 359.20 L 185.98 360.16 L 190.17 354.72 L 194.36 345.83 L 198.55 322.93 L 202.74 324.53 L 206.93 312.04 L 211.12 311.00 L 215.31 330.06 L 219.49 336.94 L 223.68 333.82 L 227.87 327.18 L 232.06 329.90 L 236.25 309.40 L 240.44 321.57 L 244.63 328.06 L 248.82 302.84 L 253.01 331.74 L 257.20 289.39 L 261.39 261.37 L 265.58 278.58 L 269.77 289.07 L 273.96 301.48 L 278.15 282.66 L 282.34 288.67 L 286.53 273.62 L 290.72 265.53 L 294.91 252.80 L 299.09 254.48 L 303.28 269.21 L 307.47 276.98 L 311.66 281.38 L 315.85 272.34 L 320.04 286.11 L 324.23 295.55 L 328.42 301.48 L 332.61 311.72 L 336.80 296.35 L 340.99 303.72 L 345.18 325.25 L 349.37 397.63 L 353.56 378.73 L 357.75 399.95 L 361.94 363.20 L 366.13 350.15 L 370.32 314.45 L 374.51 302.60 L 378.69 303.64 L 382.88 300.44 L 387.07 302.28 L 391.26 296.59 L 395.45 287.71 L 399.64 266.41 L 403.83 266.33 L 408.02 257.04 L 412.21 257.36 L 416.40 247.52 L 420.59 245.76 L 424.78 222.62 L 428.97 227.10 L 433.16 217.98 L 437.35 218.70 L 441.54 216.45 L 445.73 227.02 L 449.92 227.90 L 454.11 218.38 L 458.29 215.65 L 462.48 208.93 L 466.67 201.16 L 470.86 191.56 L 475.05 194.44 L 479.24 213.49 L 483.43 190.92 L 487.62 179.79 L 491.81 192.20 L 496.00 203.97 L 500.19 193.48 L 504.38 182.19 L 508.57 178.19 L 512.76 173.54 L 516.95 172.66 L 521.14 181.23 L 525.33 188.11 L 529.52 189.87 L 533.71 191.24 L 537.89 196.20 L 542.08 190.76 L 546.27 201.88 L 550.46 211.81 L 554.65 225.58 L 558.84 209.89 L 563.03 214.69 L 567.22 190.44 L 571.41 195.16 L 575.60 183.39 L 579.79 163.78 L 583.98 166.10 L 588.17 173.14 L 592.36 166.02 L 596.55 159.29 L 600.74 169.06 L 604.93 155.29 L 609.12 151.61 L 613.31 137.92 L 617.49 141.60 L 621.68 154.89 L 625.87 160.33 L 630.06 165.94 L 634.25 173.14 L 638.44 156.25 L 642.63 160.65 L 646.82 158.89 L 651.01 166.02 L 655.20 152.89 L 659.39 148.32 L 663.58 152.89 L 667.77 162.89 L 671.96 165.38 L 676.15 168.26 L 680.34 187.31 L 684.53 216.13 L 688.72 191.08 L 692.91 186.43 L 697.09 182.75 L 701.28 163.94 L 705.47 164.26 L 709.66 168.50 L 713.85 173.86 L 718.04 162.25 L 722.23 151.13 L 726.42 156.81 L 730.61 153.61 L 734.80 152.41 L 738.99 161.45 L 743.18 160.17 L 747.37 161.21 L 751.56 159.05 L 755.75 170.58 L 759.94 176.10 L 764.13 176.50 L 768.32 181.55 L 772.51 173.94 L 776.69 196.84 L 780.88 197.48 L 785.07 188.27 L 789.26 196.28 L 793.45 182.91 L 797.64 182.51 L 801.83 191.48 L 806.02 189.15 L 810.21 187.23 L 814.40 184.99 L 818.59 200.76 L 822.78 190.92 L 826.97 179.47 L 831.16 183.55 L 835.35 192.84 L 839.54 184.51 L 843.73 181.23 L 847.92 191.40 L 852.11 188.51 L 856.29 185.87 L 860.48 179.39 L 864.67 153.93 L 868.86 177.39 L 873.05 168.42 L 877.24 178.91 L 881.43 178.19 L 885.62 170.66 L 889.81 186.19 L 894.00 169.62 L 898.19 168.66 L 902.38 180.51 L 906.57 178.35 L 910.76 176.50 L 914.95 172.74 L 919.14 173.14 L 923.33 180.67 L 927.52 184.19 L 931.71 193.88 L 935.89 190.03 L 940.08 199.24 L 944.27 197.08 L 948.46 210.53 L 952.65 214.29 L 956.84 196.52 L 961.03 190.28 L 965.22 175.14 L 969.41 189.31 L 973.60 194.36 L 977.79 208.45 L 981.98 227.58 L 986.17 229.10 L 990.36 227.10 L 994.55 236.55 L 998.74 232.39 L 1002.93 221.90 L 1007.12 207.73 L 1011.31 203.89 L 1015.49 200.60 L 1019.68 211.89 L 1023.87 205.73 L 1028.06 205.33 L 1032.25 194.84 L 1036.44 188.35 L 1040.63 187.63 L 1044.82 182.51 L 1049.01 185.47 L 1053.20 173.78 L 1057.39 175.38 L 1061.58 173.38 L 1065.77 179.63 L 1069.96 186.11 L 1074.15 176.02 L 1078.34 173.94 L 1082.53 175.38 L 1086.72 168.98 L 1090.91 167.14 L 1095.09 169.06 L 1099.28 170.10 L 1103.47 171.22 L 1107.66 164.34 L 1111.85 168.66 L 1116.04 156.41 L 1120.23 156.81 L 1124.42 148.00 L 1128.61 148.48 L 1132.80 145.52 L 1136.99 141.36 L 1141.18 139.92 L 1145.37 146.32 L 1149.56 144.96 L 1153.75 150.73 L 1157.94 165.14 L 1162.13 175.14 L 1166.32 174.02 L 1170.51 163.78 L 1174.69 157.05 L 1178.88 147.76 L 1183.07 145.92 L 1187.26 140.08 L 1191.45 164.34 L 1195.64 155.45 L 1199.83 151.77 L 1204.02 158.89 L 1208.21 167.62 L 1212.40 173.62 L 1216.59 164.98 L 1220.78 150.49 L 1224.97 145.36 L 1229.16 152.89 L 1233.35 154.89 L 1237.54 153.61 L 1241.73 156.97 L 1245.92 153.77 L 1250.11 147.36 L 1254.29 151.13 L 1258.48 180.35 L 1262.67 222.54 L 1266.86 211.25 L 1271.05 226.22 L 1275.24 238.87 L 1279.43 252.48 L 1283.62 221.82 L 1287.81 238.71 L 1292.00 246.24" fill="none" stroke="#0f766e" stroke-width="2"  />
<path d="M 98.00 427.07 L 102.19 423.61 L 106.38 430.86 L 110.57 422.40 L 114.76 412.05 L 118.95 411.94 L 123.14 415.25 L 127.33 423.97 L 131.52 426.26 L 135.71 418.87 L 139.89 403.89 L 144.08 402.86 L 148.27 381.84 L 152.46 394.05 L 156.65 383.03 L 160.84 370.38 L 165.03 368.47 L 169.22 366.52 L 173.41 370.10 L 177.60 361.97 L 181.79 359.16 L 185.98 357.91 L 190.17 355.35 L 194.36 350.07 L 198.55 340.83 L 202.74 321.27 L 206.93 321.23 L 211.12 309.43 L 215.31 320.36 L 219.49 327.67 L 223.68 339.19 L 227.87 327.83 L 232.06 321.20 L 236.25 328.61 L 240.44 319.56 L 244.63 319.24 L 248.82 312.17 L 253.01 302.39 L 257.20 323.04 L 261.39 291.88 L 265.58 256.66 L 269.77 304.70 L 273.96 289.07 L 278.15 299.53 L 282.34 287.44 L 286.53 275.01 L 290.72 252.24 L 294.91 263.01 L 299.09 252.17 L 303.28 262.77 L 307.47 272.48 L 311.66 275.97 L 315.85 277.32 L 320.04 283.71 L 324.23 284.98 L 328.42 297.31 L 332.61 306.55 L 336.80 309.19 L 340.99 294.25 L 345.18 313.11 L 349.37 408.89 L 353.56 400.22 L 357.75 332.79 L 361.94 409.34 L 366.13 354.80 L 370.32 339.44 L 374.51 310.73 L 378.69 303.41 L 382.88 300.70 L 387.07 298.82 L 391.26 299.77 L 395.45 282.27 L 399.64 285.17 L 403.83 259.64 L 408.02 263.62 L 412.21 246.65 L 416.40 256.97 L 420.59 248.47 L 424.78 230.53 L 428.97 223.49 L 433.16 226.27 L 437.35 214.18 L 441.54 217.05 L 445.73 213.88 L 449.92 227.75 L 454.11 224.15 L 458.29 217.18 L 462.48 201.27 L 466.67 205.86 L 470.86 202.84 L 475.05 191.00 L 479.24 198.10 L 483.43 221.71 L 487.62 188.67 L 491.81 185.54 L 496.00 189.93 L 500.19 203.28 L 504.38 179.20 L 508.57 179.02 L 512.76 177.39 L 516.95 172.03 L 521.14 166.77 L 525.33 180.57 L 529.52 188.00 L 533.71 187.32 L 537.89 201.72 L 542.08 196.92 L 546.27 200.18 L 550.46 201.86 L 554.65 210.20 L 558.84 224.42 L 563.03 192.20 L 567.22 208.39 L 571.41 192.88 L 575.60 191.59 L 579.79 177.45 L 583.98 145.81 L 588.17 167.05 L 592.36 169.69 L 596.55 165.91 L 600.74 156.95 L 604.93 171.70 L 609.12 150.19 L 613.31 144.06 L 617.49 140.37 L 621.68 147.48 L 625.87 160.70 L 630.06 166.62 L 634.25 163.24 L 638.44 171.55 L 642.63 157.56 L 646.82 158.59 L 651.01 157.32 L 655.20 154.48 L 659.39 159.75 L 663.58 146.07 L 667.77 171.90 L 671.96 161.24 L 676.15 168.20 L 680.34 173.74 L 684.53 190.36 L 688.72 229.03 L 692.91 189.83 L 697.09 183.33 L 701.28 178.41 L 705.47 162.18 L 709.66 158.25 L 713.85 164.63 L 718.04 171.08 L 722.23 160.62 L 726.42 148.64 L 730.61 154.67 L 734.80 152.62 L 738.99 151.08 L 743.18 164.56 L 747.37 152.57 L 751.56 171.01 L 755.75 159.83 L 759.94 172.10 L 764.13 175.55 L 768.32 178.74 L 772.51 174.88 L 776.69 172.30 L 780.88 196.20 L 785.07 195.80 L 789.26 187.68 L 793.45 191.79 L 797.64 184.27 L 801.83 185.06 L 806.02 187.85 L 810.21 190.07 L 814.40 175.20 L 818.59 187.03 L 822.78 203.39 L 826.97 187.88 L 831.16 180.96 L 835.35 178.38 L 839.54 192.43 L 843.73 186.08 L 847.92 185.47 L 852.11 185.75 L 856.29 179.70 L 860.48 183.15 L 864.67 167.99 L 868.86 163.06 L 873.05 184.13 L 877.24 166.99 L 881.43 179.12 L 885.62 175.81 L 889.81 171.00 L 894.00 186.55 L 898.19 173.00 L 902.38 170.27 L 906.57 178.58 L 910.76 178.33 L 914.95 164.11 L 919.14 173.95 L 923.33 175.78 L 927.52 183.36 L 931.71 186.56 L 935.89 191.20 L 940.08 196.86 L 944.27 196.11 L 948.46 200.51 L 952.65 209.45 L 956.84 201.72 L 961.03 193.66 L 965.22 187.22 L 969.41 179.90 L 973.60 193.59 L 977.79 201.58 L 981.98 214.90 L 986.17 228.86 L 990.36 238.08 L 994.55 222.47 L 998.74 235.50 L 1002.93 225.63 L 1007.12 218.63 L 1011.31 206.49 L 1015.49 202.90 L 1019.68 191.31 L 1023.87 209.39 L 1028.06 203.88 L 1032.25 204.81 L 1036.44 193.95 L 1040.63 177.52 L 1044.82 187.96 L 1049.01 177.91 L 1053.20 181.78 L 1057.39 176.64 L 1061.58 170.60 L 1065.77 175.40 L 1069.96 183.40 L 1074.15 183.15 L 1078.34 174.62 L 1082.53 167.03 L 1086.72 174.21 L 1090.91 168.05 L 1095.09 165.33 L 1099.28 167.30 L 1103.47 167.45 L 1107.66 169.16 L 1111.85 166.49 L 1116.04 151.92 L 1120.23 155.33 L 1124.42 156.83 L 1128.61 147.86 L 1132.80 145.04 L 1136.99 137.60 L 1141.18 142.70 L 1145.37 139.36 L 1149.56 147.69 L 1153.75 143.39 L 1157.94 148.99 L 1162.13 163.54 L 1166.32 171.33 L 1170.51 171.66 L 1174.69 161.01 L 1178.88 147.70 L 1183.07 140.77 L 1187.26 151.96 L 1191.45 155.41 L 1195.64 167.62 L 1199.83 145.84 L 1204.02 152.75 L 1208.21 159.69 L 1212.40 173.66 L 1216.59 163.68 L 1220.78 150.20 L 1224.97 152.09 L 1229.16 144.80 L 1233.35 156.41 L 1237.54 155.02 L 1241.73 149.06 L 1245.92 153.56 L 1250.11 154.46 L 1254.29 148.81 L 1258.48 177.72 L 1262.67 201.66 L 1266.86 218.11 L 1271.05 225.67 L 1275.24 228.89 L 1279.43 243.98 L 1283.62 253.29 L 1287.81 222.24 L 1292.00 247.54" fill="none" stroke="#1d4ed8" stroke-width="2"  />
  </g>
  <g>
    <text x="54" y="538" fill="#1f2937" font-size="16" font-weight="700">B. 绝对误差（越低越好）</text>
    <line x1="98" y1="540" x2="124" y2="540" stroke="#1d4ed8" stroke-width="2"  />
      <text x="130" y="544" fill="#24312e" font-size="12">持仓分段误差</text>
    <line x1="98" y1="560.00" x2="1292" y2="560.00" stroke="#d7e3df" stroke-width="1" />
      <text x="90" y="564.00" text-anchor="end" fill="#5b6b68" font-size="11">8.76%</text>
<line x1="98" y1="630.00" x2="1292" y2="630.00" stroke="#d7e3df" stroke-width="1" />
      <text x="90" y="634.00" text-anchor="end" fill="#5b6b68" font-size="11">6.57%</text>
<line x1="98" y1="700.00" x2="1292" y2="700.00" stroke="#d7e3df" stroke-width="1" />
      <text x="90" y="704.00" text-anchor="end" fill="#5b6b68" font-size="11">4.38%</text>
<line x1="98" y1="770.00" x2="1292" y2="770.00" stroke="#d7e3df" stroke-width="1" />
      <text x="90" y="774.00" text-anchor="end" fill="#5b6b68" font-size="11">2.19%</text>
<line x1="98" y1="840.00" x2="1292" y2="840.00" stroke="#d7e3df" stroke-width="1" />
      <text x="90" y="844.00" text-anchor="end" fill="#5b6b68" font-size="11">0.00%</text>
    <line x1="98.00" y1="560" x2="98.00" y2="840" stroke="#eef3f1" stroke-width="1" />
      <text x="98.00" y="868" text-anchor="middle" fill="#5b6b68" font-size="11">25-01-02</text>
<line x1="290.72" y1="560" x2="290.72" y2="840" stroke="#eef3f1" stroke-width="1" />
      <text x="290.72" y="868" text-anchor="middle" fill="#5b6b68" font-size="11">25-03-17</text>
<line x1="479.24" y1="560" x2="479.24" y2="840" stroke="#eef3f1" stroke-width="1" />
      <text x="479.24" y="868" text-anchor="middle" fill="#5b6b68" font-size="11">25-05-23</text>
<line x1="697.09" y1="560" x2="697.09" y2="840" stroke="#eef3f1" stroke-width="1" />
      <text x="697.09" y="868" text-anchor="middle" fill="#5b6b68" font-size="11">25-08-06</text>
<line x1="910.76" y1="560" x2="910.76" y2="840" stroke="#eef3f1" stroke-width="1" />
      <text x="910.76" y="868" text-anchor="middle" fill="#5b6b68" font-size="11">25-10-24</text>
<line x1="1099.28" y1="560" x2="1099.28" y2="840" stroke="#eef3f1" stroke-width="1" />
      <text x="1099.28" y="868" text-anchor="middle" fill="#5b6b68" font-size="11">25-12-26</text>
<line x1="1292.00" y1="560" x2="1292.00" y2="840" stroke="#eef3f1" stroke-width="1" />
      <text x="1292.00" y="868" text-anchor="middle" fill="#5b6b68" font-size="11">26-03-12</text>
    <line x1="1116.04" y1="560" x2="1116.04" y2="840" stroke="#f59e0b" stroke-width="1.4" stroke-dasharray="4 4" />
       <text x="1122.04" y="552" fill="#a16207" font-size="11">验证起点</text>
    <path d="M 98.00 835.45 L 102.19 784.37 L 106.38 810.25 L 110.57 798.48 L 114.76 834.88 L 118.95 823.23 L 123.14 812.47 L 127.33 819.34 L 131.52 830.92 L 135.71 798.40 L 139.89 833.47 L 144.08 807.65 L 148.27 793.16 L 152.46 801.30 L 156.65 811.42 L 160.84 834.35 L 165.03 837.93 L 169.22 821.39 L 173.41 826.19 L 177.60 810.69 L 181.79 839.87 L 185.98 831.98 L 190.17 837.76 L 194.36 825.15 L 198.55 778.84 L 202.74 828.82 L 206.93 808.99 L 211.12 834.67 L 215.31 806.62 L 219.49 807.84 L 223.68 821.46 L 227.87 837.77 L 232.06 810.06 L 236.25 775.31 L 240.44 833.13 L 244.63 809.70 L 248.82 808.79 L 253.01 738.78 L 257.20 729.01 L 261.39 742.19 L 265.58 768.49 L 269.77 788.45 L 273.96 798.55 L 278.15 784.75 L 282.34 835.95 L 286.53 835.47 L 290.72 797.24 L 294.91 807.56 L 299.09 832.65 L 303.28 819.17 L 307.47 825.36 L 311.66 822.30 L 315.85 823.83 L 320.04 832.12 L 324.23 804.89 L 328.42 826.07 L 332.61 822.55 L 336.80 797.37 L 340.99 808.29 L 345.18 798.39 L 349.37 798.20 L 353.56 761.94 L 357.75 590.00 L 361.94 675.29 L 366.13 823.65 L 370.32 755.40 L 374.51 812.79 L 378.69 839.23 L 382.88 839.12 L 387.07 828.44 L 391.26 829.45 L 395.45 822.12 L 399.64 779.56 L 403.83 818.45 L 408.02 819.01 L 412.21 805.79 L 416.40 810.12 L 420.59 831.43 L 424.78 815.61 L 428.97 828.81 L 433.16 814.53 L 437.35 826.11 L 441.54 838.17 L 445.73 799.27 L 449.92 839.52 L 454.11 822.25 L 458.29 835.32 L 462.48 816.69 L 466.67 825.81 L 470.86 806.19 L 475.05 829.66 L 479.24 792.93 L 483.43 747.82 L 487.62 813.68 L 491.81 820.05 L 496.00 797.46 L 500.19 810.58 L 504.38 831.13 L 508.57 837.53 L 512.76 828.68 L 516.95 838.13 L 521.14 797.12 L 525.33 817.48 L 529.52 834.40 L 533.71 828.29 L 537.89 823.38 L 542.08 821.55 L 546.27 834.86 L 550.46 809.61 L 554.65 792.42 L 558.84 795.72 L 563.03 771.11 L 567.22 786.27 L 571.41 833.14 L 575.60 815.62 L 579.79 800.08 L 583.98 780.63 L 588.17 822.06 L 592.36 829.25 L 596.55 820.76 L 600.74 804.47 L 604.93 792.46 L 609.12 835.91 L 613.31 822.49 L 617.49 836.47 L 621.68 818.55 L 625.87 838.92 L 630.06 838.01 L 634.25 810.84 L 638.44 795.64 L 642.63 831.00 L 646.82 839.13 L 651.01 814.57 L 655.20 835.39 L 659.39 807.09 L 663.58 820.30 L 667.77 813.72 L 671.96 827.90 L 676.15 839.81 L 680.34 799.50 L 684.53 760.97 L 688.72 726.35 L 692.91 829.88 L 697.09 838.27 L 701.28 797.74 L 705.47 833.95 L 709.66 809.95 L 713.85 812.80 L 718.04 814.27 L 722.23 812.60 L 726.42 816.28 L 730.61 836.92 L 734.80 839.40 L 738.99 809.78 L 743.18 827.25 L 747.37 814.83 L 751.56 805.24 L 755.75 808.41 L 759.94 828.19 L 764.13 837.19 L 768.32 831.66 L 772.51 837.25 L 776.69 766.12 L 780.88 836.13 L 785.07 817.52 L 789.26 814.12 L 793.45 813.61 L 797.64 834.76 L 801.83 820.79 L 806.02 836.11 L 810.21 831.55 L 814.40 810.84 L 818.59 798.51 L 822.78 802.66 L 826.97 815.09 L 831.16 832.30 L 835.35 796.65 L 839.54 816.43 L 843.73 825.62 L 847.92 822.24 L 852.11 831.76 L 856.29 821.60 L 860.48 828.85 L 864.67 799.31 L 868.86 797.66 L 873.05 793.93 L 877.24 804.72 L 881.43 837.24 L 885.62 824.87 L 889.81 794.71 L 894.00 790.32 L 898.19 827.28 L 902.38 809.65 L 906.57 839.31 L 910.76 834.61 L 914.95 814.58 L 919.14 837.61 L 923.33 825.51 L 927.52 837.54 L 931.71 818.02 L 935.89 836.51 L 940.08 832.80 L 944.27 837.06 L 948.46 809.45 L 952.65 825.18 L 956.84 824.36 L 961.03 829.87 L 965.22 804.37 L 969.41 811.86 L 973.60 837.68 L 977.79 819.09 L 981.98 800.69 L 986.17 839.25 L 990.36 805.97 L 994.55 795.98 L 998.74 830.29 L 1002.93 828.48 L 1007.12 806.85 L 1011.31 832.12 L 1015.49 833.05 L 1019.68 777.16 L 1023.87 828.89 L 1028.06 835.61 L 1032.25 810.04 L 1036.44 823.28 L 1040.63 809.81 L 1044.82 823.82 L 1049.01 817.49 L 1053.20 816.45 L 1057.39 836.29 L 1061.58 831.81 L 1065.77 827.47 L 1069.96 831.92 L 1074.15 818.95 L 1078.34 838.01 L 1082.53 815.34 L 1086.72 824.65 L 1090.91 837.34 L 1095.09 829.07 L 1099.28 831.79 L 1103.47 828.92 L 1107.66 825.92 L 1111.85 833.63 L 1116.04 826.99 L 1120.23 835.71 L 1124.42 814.59 L 1128.61 838.20 L 1132.80 838.61 L 1136.99 829.26 L 1141.18 832.06 L 1145.37 820.00 L 1149.56 832.16 L 1153.75 818.83 L 1157.94 792.80 L 1162.13 805.78 L 1166.32 832.06 L 1170.51 816.99 L 1174.69 828.52 L 1178.88 839.81 L 1183.07 825.19 L 1187.26 806.04 L 1191.45 813.94 L 1195.64 804.73 L 1199.83 822.88 L 1204.02 822.15 L 1208.21 816.78 L 1212.40 839.90 L 1216.59 836.20 L 1220.78 839.17 L 1224.97 820.69 L 1229.16 816.62 L 1233.35 835.58 L 1237.54 835.91 L 1241.73 817.05 L 1245.92 839.40 L 1250.11 819.59 L 1254.29 833.33 L 1258.48 832.20 L 1262.67 775.58 L 1266.86 819.07 L 1271.05 838.29 L 1275.24 808.71 L 1279.43 813.01 L 1283.62 742.97 L 1287.81 788.37 L 1292.00 835.87" fill="none" stroke="#1d4ed8" stroke-width="2"  />
  </g>
</svg>