<?xml version="1.0" encoding="UTF-8"?>
<svg xmlns="http://www.w3.org/2000/svg" width="1360" height="980" viewBox="0 0 1360 980">
  <defs>
    <linearGradient id="bg" x1="0" y1="0" x2="1" y2="1">
      <stop offset="0%" stop-color="#f4efe6" />
      <stop offset="100%" stop-color="#eef5f2" />
    </linearGradient>
  </defs>
  <rect x="0" y="0" width="1360" height="980" fill="url(#bg)" />
  <text x="46" y="36" fill="#1f2937" font-size="31" font-weight="700">159577 离线研究图（持仓逐日估值版）</text>
  <text x="46" y="66" fill="#5b6b68" font-size="13">历史前十大持仓 + 持仓逐日涨跌幅 + USDCNY；双目标 lambda=0.10；披露期数 7；覆盖率均值 90.5%</text>
  <g>
    <text x="54" y="110" fill="#1f2937" font-size="16" font-weight="700">A. 净值拟合（同日对齐，无平移）</text>
    <line x1="98" y1="130" x2="124" y2="130" stroke="#0f766e" stroke-width="2"  />
      <text x="130" y="134" fill="#24312e" font-size="12">真实净值</text>
<line x1="313" y1="130" x2="339" y2="130" stroke="#1d4ed8" stroke-width="2"  />
      <text x="345" y="134" fill="#24312e" font-size="12">持仓分段估值</text>
    <line x1="98" y1="132.00" x2="1292" y2="132.00" stroke="#d7e3df" stroke-width="1" />
      <text x="90" y="136.00" text-anchor="end" fill="#5b6b68" font-size="11">1.494</text>
<line x1="98" y1="209.50" x2="1292" y2="209.50" stroke="#d7e3df" stroke-width="1" />
      <text x="90" y="213.50" text-anchor="end" fill="#5b6b68" font-size="11">1.372</text>
<line x1="98" y1="287.00" x2="1292" y2="287.00" stroke="#d7e3df" stroke-width="1" />
      <text x="90" y="291.00" text-anchor="end" fill="#5b6b68" font-size="11">1.250</text>
<line x1="98" y1="364.50" x2="1292" y2="364.50" stroke="#d7e3df" stroke-width="1" />
      <text x="90" y="368.50" text-anchor="end" fill="#5b6b68" font-size="11">1.127</text>
<line x1="98" y1="442.00" x2="1292" y2="442.00" stroke="#d7e3df" stroke-width="1" />
      <text x="90" y="446.00" text-anchor="end" fill="#5b6b68" font-size="11">1.005</text>
    <line x1="98.00" y1="132" x2="98.00" y2="442" stroke="#eef3f1" stroke-width="1" />
      <text x="98.00" y="470" text-anchor="middle" fill="#5b6b68" font-size="11">25-01-02</text>
<line x1="290.72" y1="132" x2="290.72" y2="442" stroke="#eef3f1" stroke-width="1" />
      <text x="290.72" y="470" text-anchor="middle" fill="#5b6b68" font-size="11">25-03-17</text>
<line x1="479.24" y1="132" x2="479.24" y2="442" stroke="#eef3f1" stroke-width="1" />
      <text x="479.24" y="470" text-anchor="middle" fill="#5b6b68" font-size="11">25-05-23</text>
<line x1="697.09" y1="132" x2="697.09" y2="442" stroke="#eef3f1" stroke-width="1" />
      <text x="697.09" y="470" text-anchor="middle" fill="#5b6b68" font-size="11">25-08-06</text>
<line x1="910.76" y1="132" x2="910.76" y2="442" stroke="#eef3f1" stroke-width="1" />
      <text x="910.76" y="470" text-anchor="middle" fill="#5b6b68" font-size="11">25-10-24</text>
<line x1="1099.28" y1="132" x2="1099.28" y2="442" stroke="#eef3f1" stroke-width="1" />
      <text x="1099.28" y="470" text-anchor="middle" fill="#5b6b68" font-size="11">25-12-26</text>
<line x1="1292.00" y1="132" x2="1292.00" y2="442" stroke="#eef3f1" stroke-width="1" />
      <text x="1292.00" y="470" text-anchor="middle" fill="#5b6b68" font-size="11">26-03-12</text>
    <line x1="1116.04" y1="132" x2="1116.04" y2="442" stroke="#f59e0b" stroke-width="1.4" stroke-dasharray="4 4" />
       <text x="1122.04" y="124" fill="#a16207" font-size="11">验证起点</text>
    <path d="M 98.00 297.44 L 102.19 286.27 L 106.38 278.46 L 110.57 291.09 L 114.76 290.58 L 118.95 290.65 L 123.14 302.45 L 127.33 303.85 L 131.52 306.77 L 135.71 288.74 L 139.89 296.80 L 144.08 286.58 L 148.27 286.65 L 152.46 283.66 L 156.65 274.27 L 160.84 270.14 L 165.03 273.38 L 169.22 291.15 L 173.41 280.49 L 177.60 275.98 L 181.79 285.82 L 185.98 279.16 L 190.17 278.59 L 194.36 279.85 L 198.55 270.08 L 202.74 268.94 L 206.93 269.06 L 211.12 270.27 L 215.31 267.67 L 219.49 271.35 L 223.68 286.65 L 227.87 292.61 L 232.06 299.15 L 236.25 298.39 L 240.44 315.21 L 244.63 301.50 L 248.82 319.27 L 253.01 326.38 L 257.20 317.11 L 261.39 333.68 L 265.58 330.00 L 269.77 355.90 L 273.96 359.14 L 278.15 352.53 L 282.34 365.23 L 286.53 349.55 L 290.72 348.66 L 294.91 358.31 L 299.09 349.17 L 303.28 350.00 L 307.47 346.06 L 311.66 331.27 L 315.85 328.29 L 320.04 341.43 L 324.23 344.03 L 328.42 361.42 L 332.61 358.44 L 336.80 354.88 L 340.99 350.12 L 345.18 386.75 L 349.37 426.80 L 353.56 437.27 L 357.75 367.32 L 361.94 393.79 L 366.13 379.89 L 370.32 376.08 L 374.51 377.10 L 378.69 396.78 L 382.88 398.36 L 387.07 398.55 L 391.26 415.69 L 395.45 398.11 L 399.64 383.51 L 403.83 367.70 L 408.02 358.18 L 412.21 359.33 L 416.40 355.90 L 420.59 355.90 L 424.78 350.69 L 428.97 348.15 L 433.16 343.08 L 437.35 343.39 L 441.54 315.72 L 445.73 308.10 L 449.92 303.72 L 454.11 303.66 L 458.29 299.53 L 462.48 299.41 L 466.67 302.96 L 470.86 313.18 L 475.05 312.29 L 479.24 319.46 L 483.43 320.42 L 487.62 302.45 L 491.81 305.37 L 496.00 301.37 L 500.19 302.71 L 504.38 293.76 L 508.57 292.04 L 512.76 298.83 L 516.95 289.88 L 521.14 287.92 L 525.33 282.71 L 529.52 285.82 L 533.71 282.71 L 537.89 291.60 L 542.08 283.09 L 546.27 290.01 L 550.46 290.33 L 554.65 290.71 L 558.84 294.96 L 563.03 286.65 L 567.22 278.01 L 571.41 274.52 L 575.60 268.49 L 579.79 264.18 L 583.98 260.49 L 588.17 266.65 L 592.36 260.88 L 596.55 253.32 L 600.74 253.19 L 604.93 260.68 L 609.12 262.02 L 613.31 255.35 L 617.49 254.21 L 621.68 255.80 L 625.87 254.78 L 630.06 253.32 L 634.25 250.21 L 638.44 247.48 L 642.63 246.97 L 646.82 243.29 L 651.01 247.93 L 655.20 241.71 L 659.39 239.80 L 663.58 236.44 L 667.77 233.14 L 671.96 235.74 L 676.15 235.80 L 680.34 235.23 L 684.53 251.67 L 688.72 239.61 L 692.91 243.99 L 697.09 233.20 L 701.28 234.60 L 705.47 224.50 L 709.66 226.41 L 713.85 217.14 L 718.04 218.28 L 722.23 215.49 L 726.42 216.70 L 730.61 217.65 L 734.80 227.49 L 738.99 231.04 L 743.18 235.55 L 747.37 222.60 L 751.56 225.90 L 755.75 221.20 L 759.94 220.25 L 764.13 216.82 L 768.32 225.08 L 772.51 224.63 L 776.69 230.15 L 780.88 220.82 L 785.07 213.59 L 789.26 217.20 L 793.45 215.05 L 797.64 210.48 L 801.83 204.26 L 806.02 200.45 L 810.21 196.96 L 814.40 188.45 L 818.59 188.89 L 822.78 191.75 L 826.97 188.32 L 831.16 180.13 L 835.35 174.61 L 839.54 183.94 L 843.73 186.10 L 847.92 189.21 L 852.11 185.78 L 856.29 184.83 L 860.48 180.77 L 864.67 169.34 L 868.86 196.83 L 873.05 181.09 L 877.24 186.86 L 881.43 182.10 L 885.62 186.04 L 889.81 181.40 L 894.00 170.99 L 898.19 173.34 L 902.38 178.55 L 906.57 173.85 L 910.76 164.20 L 914.95 150.05 L 919.14 142.18 L 923.33 136.72 L 927.52 148.78 L 931.71 145.35 L 935.89 141.92 L 940.08 155.25 L 944.27 153.16 L 948.46 166.49 L 952.65 169.47 L 956.84 149.98 L 961.03 149.09 L 965.22 150.43 L 969.41 167.76 L 973.60 167.25 L 977.79 173.66 L 981.98 184.01 L 986.17 178.42 L 990.36 192.64 L 994.55 187.82 L 998.74 168.77 L 1002.93 163.19 L 1007.12 157.28 L 1011.31 157.54 L 1015.49 153.03 L 1019.68 157.16 L 1023.87 154.05 L 1028.06 154.49 L 1032.25 153.79 L 1036.44 151.19 L 1040.63 152.97 L 1044.82 153.09 L 1049.01 150.11 L 1053.20 152.33 L 1057.39 164.52 L 1061.58 167.38 L 1065.77 167.95 L 1069.96 182.61 L 1074.15 172.39 L 1078.34 162.11 L 1082.53 156.71 L 1086.72 150.24 L 1090.91 148.14 L 1095.09 149.16 L 1099.28 149.98 L 1103.47 154.36 L 1107.66 155.13 L 1111.85 161.98 L 1116.04 160.58 L 1120.23 158.81 L 1124.42 157.79 L 1128.61 160.27 L 1132.80 155.70 L 1136.99 154.05 L 1141.18 156.71 L 1145.37 165.73 L 1149.56 166.04 L 1153.75 165.92 L 1157.94 166.30 L 1162.13 188.77 L 1166.32 180.20 L 1170.51 173.09 L 1174.69 170.36 L 1178.88 166.30 L 1183.07 160.96 L 1187.26 161.92 L 1191.45 164.65 L 1195.64 169.15 L 1199.83 163.95 L 1204.02 175.25 L 1208.21 185.47 L 1212.40 197.91 L 1216.59 181.15 L 1220.78 176.39 L 1224.97 182.17 L 1229.16 184.39 L 1233.35 200.00 L 1237.54 206.41 L 1241.73 195.56 L 1245.92 186.42 L 1250.11 198.03 L 1254.29 203.94 L 1258.48 202.35 L 1262.67 211.55 L 1266.86 202.67 L 1271.05 207.62 L 1275.24 219.30 L 1279.43 207.43 L 1283.62 208.44 L 1287.81 207.94 L 1292.00 220.63" fill="none" stroke="#0f766e" stroke-width="2"  />
<path d="M 98.00 296.50 L 102.19 285.44 L 106.38 281.76 L 110.57 286.15 L 114.76 291.42 L 118.95 291.30 L 123.14 291.76 L 127.33 303.34 L 131.52 303.98 L 135.71 294.38 L 139.89 286.71 L 144.08 289.69 L 148.27 286.84 L 152.46 289.07 L 156.65 280.43 L 160.84 269.46 L 165.03 272.19 L 169.22 282.16 L 173.41 286.16 L 177.60 276.19 L 181.79 281.15 L 185.98 283.82 L 190.17 277.71 L 194.36 278.90 L 198.55 273.87 L 202.74 268.96 L 206.93 269.70 L 211.12 269.49 L 215.31 269.10 L 219.49 268.87 L 223.68 281.88 L 227.87 290.41 L 232.06 294.84 L 236.25 299.77 L 240.44 309.34 L 244.63 305.60 L 248.82 309.96 L 253.01 329.17 L 257.20 321.75 L 261.39 328.90 L 265.58 334.28 L 269.77 347.79 L 273.96 362.46 L 278.15 356.47 L 282.34 359.44 L 286.53 352.78 L 290.72 346.02 L 294.91 356.08 L 299.09 351.84 L 303.28 347.90 L 307.47 348.90 L 311.66 335.51 L 315.85 326.90 L 320.04 335.54 L 324.23 344.83 L 328.42 358.68 L 332.61 363.61 L 336.80 355.28 L 340.99 351.66 L 345.18 383.08 L 349.37 434.70 L 353.56 438.79 L 357.75 369.64 L 361.94 385.49 L 366.13 388.85 L 370.32 374.49 L 374.51 375.49 L 378.69 394.12 L 382.88 399.31 L 387.07 399.43 L 391.26 399.61 L 395.45 397.49 L 399.64 385.68 L 403.83 364.66 L 408.02 361.61 L 412.21 357.80 L 416.40 357.46 L 420.59 354.95 L 424.78 356.24 L 428.97 347.44 L 433.16 343.86 L 437.35 342.21 L 441.54 321.05 L 445.73 308.34 L 449.92 305.49 L 454.11 300.38 L 458.29 301.05 L 462.48 298.56 L 466.67 299.90 L 470.86 315.37 L 475.05 314.18 L 479.24 318.10 L 483.43 322.23 L 487.62 320.91 L 491.81 301.23 L 496.00 303.81 L 500.19 300.44 L 504.38 297.24 L 508.57 291.36 L 512.76 293.79 L 516.95 291.06 L 521.14 287.99 L 525.33 284.11 L 529.52 282.44 L 533.71 284.43 L 537.89 289.43 L 542.08 289.01 L 546.27 284.80 L 550.46 290.57 L 554.65 291.32 L 558.84 292.00 L 563.03 287.80 L 567.22 277.73 L 571.41 275.66 L 575.60 269.62 L 579.79 264.90 L 583.98 261.17 L 588.17 260.82 L 592.36 263.93 L 596.55 255.59 L 600.74 252.89 L 604.93 253.43 L 609.12 261.47 L 613.31 258.19 L 617.49 253.18 L 621.68 255.31 L 625.87 255.14 L 630.06 255.04 L 634.25 251.20 L 638.44 246.65 L 642.63 246.86 L 646.82 245.91 L 651.01 242.68 L 655.20 245.68 L 659.39 240.08 L 663.58 236.92 L 667.77 235.04 L 671.96 232.86 L 676.15 235.69 L 680.34 236.32 L 684.53 244.77 L 688.72 244.59 L 692.91 239.08 L 697.09 238.50 L 701.28 231.60 L 705.47 227.57 L 709.66 222.83 L 713.85 216.98 L 718.04 214.87 L 722.23 218.14 L 726.42 215.40 L 730.61 216.53 L 734.80 220.58 L 738.99 230.40 L 743.18 233.14 L 747.37 222.86 L 751.56 222.57 L 755.75 223.95 L 759.94 219.08 L 764.13 219.33 L 768.32 219.26 L 772.51 227.80 L 776.69 225.19 L 780.88 228.05 L 785.07 214.99 L 789.26 213.24 L 793.45 216.41 L 797.64 213.52 L 801.83 207.80 L 806.02 197.84 L 810.21 198.95 L 814.40 193.39 L 818.59 188.23 L 822.78 189.72 L 826.97 188.60 L 831.16 184.29 L 835.35 175.63 L 839.54 176.27 L 843.73 185.94 L 847.92 188.31 L 852.11 185.88 L 856.29 184.16 L 860.48 182.42 L 864.67 174.75 L 868.86 192.29 L 873.05 184.02 L 877.24 179.29 L 881.43 185.65 L 885.62 184.23 L 889.81 183.28 L 894.00 171.04 L 898.19 169.42 L 902.38 176.00 L 906.57 176.06 L 910.76 166.64 L 914.95 152.44 L 919.14 145.86 L 923.33 139.58 L 927.52 145.69 L 931.71 147.77 L 935.89 141.65 L 940.08 153.12 L 944.27 154.37 L 948.46 163.08 L 952.65 168.00 L 956.84 154.11 L 961.03 146.05 L 965.22 148.56 L 969.41 166.26 L 973.60 170.04 L 977.79 168.69 L 981.98 178.20 L 986.17 183.14 L 990.36 191.00 L 994.55 190.10 L 998.74 171.95 L 1002.93 162.40 L 1007.12 159.07 L 1011.31 157.41 L 1015.49 159.02 L 1019.68 152.91 L 1023.87 155.82 L 1028.06 151.86 L 1032.25 153.56 L 1036.44 152.18 L 1040.63 151.05 L 1044.82 153.01 L 1049.01 150.39 L 1053.20 149.01 L 1057.39 159.16 L 1061.58 166.91 L 1065.77 168.43 L 1069.96 174.22 L 1074.15 181.29 L 1078.34 164.62 L 1082.53 158.26 L 1086.72 153.80 L 1090.91 147.73 L 1095.09 148.86 L 1099.28 150.35 L 1103.47 151.20 L 1107.66 155.90 L 1111.85 157.60 L 1116.04 159.67 L 1120.23 157.05 L 1124.42 158.51 L 1128.61 157.90 L 1132.80 157.28 L 1136.99 154.81 L 1141.18 153.87 L 1145.37 159.52 L 1149.56 165.73 L 1153.75 165.93 L 1157.94 167.74 L 1162.13 167.79 L 1166.32 183.95 L 1170.51 176.27 L 1174.69 171.50 L 1178.88 168.16 L 1183.07 162.74 L 1187.26 160.06 L 1191.45 163.36 L 1195.64 166.52 L 1199.83 167.64 L 1204.02 172.08 L 1208.21 180.35 L 1212.40 198.21 L 1216.59 181.85 L 1220.78 176.30 L 1224.97 177.73 L 1229.16 182.91 L 1233.35 200.38 L 1237.54 201.58 L 1241.73 204.36 L 1245.92 188.26 L 1250.11 192.55 L 1254.29 200.83 L 1258.48 202.00 L 1262.67 205.45 L 1266.86 205.74 L 1271.05 204.39 L 1275.24 217.76 L 1279.43 212.24 L 1283.62 208.46 L 1287.81 209.12 L 1292.00 218.87" fill="none" stroke="#1d4ed8" stroke-width="2"  />
  </g>
  <g>
    <text x="54" y="538" fill="#1f2937" font-size="16" font-weight="700">B. 绝对误差（越低越好）</text>
    <line x1="98" y1="558" x2="124" y2="558" stroke="#1d4ed8" stroke-width="2"  />
      <text x="130" y="562" fill="#24312e" font-size="12">持仓分段误差</text>
    <line x1="98" y1="560.00" x2="1292" y2="560.00" stroke="#d7e3df" stroke-width="1" />
      <text x="90" y="564.00" text-anchor="end" fill="#5b6b68" font-size="11">2.71%</text>
<line x1="98" y1="630.00" x2="1292" y2="630.00" stroke="#d7e3df" stroke-width="1" />
      <text x="90" y="634.00" text-anchor="end" fill="#5b6b68" font-size="11">2.03%</text>
<line x1="98" y1="700.00" x2="1292" y2="700.00" stroke="#d7e3df" stroke-width="1" />
      <text x="90" y="704.00" text-anchor="end" fill="#5b6b68" font-size="11">1.36%</text>
<line x1="98" y1="770.00" x2="1292" y2="770.00" stroke="#d7e3df" stroke-width="1" />
      <text x="90" y="774.00" text-anchor="end" fill="#5b6b68" font-size="11">0.68%</text>
<line x1="98" y1="840.00" x2="1292" y2="840.00" stroke="#d7e3df" stroke-width="1" />
      <text x="90" y="844.00" text-anchor="end" fill="#5b6b68" font-size="11">0.00%</text>
    <line x1="98.00" y1="560" x2="98.00" y2="840" stroke="#eef3f1" stroke-width="1" />
      <text x="98.00" y="868" text-anchor="middle" fill="#5b6b68" font-size="11">25-01-02</text>
<line x1="290.72" y1="560" x2="290.72" y2="840" stroke="#eef3f1" stroke-width="1" />
      <text x="290.72" y="868" text-anchor="middle" fill="#5b6b68" font-size="11">25-03-17</text>
<line x1="479.24" y1="560" x2="479.24" y2="840" stroke="#eef3f1" stroke-width="1" />
      <text x="479.24" y="868" text-anchor="middle" fill="#5b6b68" font-size="11">25-05-23</text>
<line x1="697.09" y1="560" x2="697.09" y2="840" stroke="#eef3f1" stroke-width="1" />
      <text x="697.09" y="868" text-anchor="middle" fill="#5b6b68" font-size="11">25-08-06</text>
<line x1="910.76" y1="560" x2="910.76" y2="840" stroke="#eef3f1" stroke-width="1" />
      <text x="910.76" y="868" text-anchor="middle" fill="#5b6b68" font-size="11">25-10-24</text>
<line x1="1099.28" y1="560" x2="1099.28" y2="840" stroke="#eef3f1" stroke-width="1" />
      <text x="1099.28" y="868" text-anchor="middle" fill="#5b6b68" font-size="11">25-12-26</text>
<line x1="1292.00" y1="560" x2="1292.00" y2="840" stroke="#eef3f1" stroke-width="1" />
      <text x="1292.00" y="868" text-anchor="middle" fill="#5b6b68" font-size="11">26-03-12</text>
    <line x1="1116.04" y1="560" x2="1116.04" y2="840" stroke="#f59e0b" stroke-width="1.4" stroke-dasharray="4 4" />
       <text x="1122.04" y="552" fill="#a16207" font-size="11">验证起点</text>
    <path d="M 98.00 827.66 L 102.19 829.26 L 106.38 797.45 L 110.57 775.29 L 114.76 829.07 L 118.95 831.44 L 123.14 698.03 L 127.33 833.18 L 131.52 802.75 L 135.71 766.38 L 139.89 706.88 L 144.08 799.55 L 148.27 837.51 L 152.46 769.91 L 156.65 761.06 L 160.84 831.29 L 165.03 824.80 L 169.22 722.25 L 173.41 766.72 L 177.60 837.33 L 181.79 779.28 L 185.98 779.91 L 190.17 828.70 L 194.36 827.70 L 198.55 791.66 L 202.74 839.69 L 206.93 831.94 L 211.12 830.08 L 215.31 821.82 L 219.49 808.40 L 223.68 777.97 L 227.87 811.05 L 232.06 783.04 L 236.25 821.72 L 240.44 760.76 L 244.63 785.56 L 248.82 713.51 L 253.01 801.74 L 257.20 777.29 L 261.39 773.82 L 265.58 781.14 L 269.77 724.42 L 273.96 792.33 L 278.15 784.10 L 282.34 756.41 L 286.53 794.33 L 290.72 802.67 L 294.91 808.09 L 299.09 802.29 L 303.28 810.31 L 307.47 800.02 L 311.66 781.53 L 315.85 820.97 L 320.04 757.63 L 324.23 828.73 L 328.42 800.61 L 332.61 765.91 L 336.80 834.29 L 340.99 818.19 L 345.18 785.35 L 349.37 715.16 L 353.56 815.59 L 357.75 806.38 L 361.94 715.09 L 366.13 707.92 L 370.32 816.59 L 374.51 816.36 L 378.69 799.87 L 382.88 825.64 L 387.07 826.75 L 391.26 590.00 L 395.45 830.55 L 399.64 807.81 L 403.83 795.78 L 408.02 791.04 L 412.21 818.13 L 416.40 817.69 L 420.59 826.45 L 424.78 761.47 L 428.97 829.89 L 433.16 828.99 L 437.35 823.38 L 441.54 767.97 L 445.73 836.84 L 449.92 816.52 L 454.11 796.40 L 458.29 819.90 L 462.48 828.85 L 466.67 799.29 L 470.86 810.47 L 475.05 814.64 L 479.24 821.45 L 483.43 815.27 L 487.62 594.81 L 491.81 784.77 L 496.00 807.65 L 500.19 809.95 L 504.38 794.19 L 508.57 831.08 L 512.76 773.36 L 516.95 824.57 L 521.14 838.98 L 525.33 821.89 L 529.52 796.00 L 533.71 817.73 L 537.89 811.58 L 542.08 763.37 L 546.27 771.85 L 550.46 836.81 L 554.65 831.99 L 558.84 801.01 L 563.03 824.96 L 567.22 836.36 L 571.41 825.47 L 575.60 825.63 L 579.79 830.80 L 583.98 831.52 L 588.17 765.93 L 592.36 801.45 L 596.55 811.71 L 600.74 836.18 L 604.93 748.51 L 609.12 833.13 L 613.31 804.49 L 617.49 827.15 L 621.68 833.92 L 625.87 835.48 L 630.06 818.50 L 634.25 827.75 L 638.44 829.63 L 642.63 838.61 L 646.82 807.70 L 651.01 774.83 L 655.20 791.02 L 659.39 836.56 L 663.58 834.06 L 667.77 816.80 L 671.96 804.72 L 676.15 838.65 L 680.34 826.75 L 684.53 753.89 L 688.72 778.78 L 692.91 779.28 L 697.09 775.39 L 701.28 803.34 L 705.47 802.97 L 709.66 796.68 L 713.85 838.10 L 718.04 799.14 L 722.23 808.38 L 726.42 824.54 L 730.61 826.58 L 734.80 756.35 L 738.99 832.15 L 743.18 810.50 L 747.37 836.92 L 751.56 799.71 L 755.75 807.00 L 759.94 825.97 L 764.13 810.04 L 768.32 769.74 L 772.51 801.76 L 776.69 779.66 L 780.88 753.10 L 785.07 823.29 L 789.26 792.54 L 793.45 823.75 L 797.64 803.90 L 801.83 798.17 L 806.02 809.41 L 810.21 816.68 L 814.40 782.72 L 818.59 832.33 L 822.78 816.43 L 826.97 836.80 L 831.16 792.36 L 835.35 828.35 L 839.54 751.57 L 843.73 838.19 L 847.92 829.53 L 852.11 838.85 L 856.29 832.25 L 860.48 821.03 L 864.67 778.70 L 868.86 786.91 L 873.05 806.27 L 877.24 752.42 L 881.43 799.20 L 885.62 819.10 L 889.81 818.41 L 894.00 839.46 L 898.19 795.28 L 902.38 810.76 L 906.57 814.83 L 910.76 812.53 L 914.95 813.46 L 919.14 799.41 L 923.33 808.70 L 927.52 805.75 L 931.71 813.27 L 935.89 836.98 L 940.08 816.18 L 944.27 826.45 L 948.46 801.52 L 952.65 823.35 L 956.84 794.23 L 961.03 806.17 L 965.22 819.21 L 969.41 823.03 L 973.60 808.45 L 977.79 783.39 L 981.98 773.10 L 986.17 785.98 L 990.36 820.93 L 994.55 813.52 L 998.74 803.95 L 1002.93 831.19 L 1007.12 819.98 L 1011.31 838.62 L 1015.49 773.29 L 1019.68 792.43 L 1023.87 820.25 L 1028.06 810.67 L 1032.25 837.47 L 1036.44 828.98 L 1040.63 818.62 L 1044.82 839.04 L 1049.01 836.93 L 1053.20 802.99 L 1057.39 779.54 L 1061.58 834.70 L 1065.77 834.56 L 1069.96 743.42 L 1074.15 738.76 L 1078.34 811.75 L 1082.53 822.71 L 1086.72 800.40 L 1090.91 835.37 L 1095.09 836.68 L 1099.28 835.96 L 1103.47 804.73 L 1107.66 831.29 L 1111.85 790.70 L 1116.04 829.68 L 1120.23 820.31 L 1124.42 831.97 L 1128.61 813.45 L 1132.80 822.30 L 1136.99 831.47 L 1141.18 808.26 L 1145.37 769.93 L 1149.56 836.42 L 1153.75 839.83 L 1157.94 823.73 L 1162.13 596.93 L 1166.32 796.90 L 1170.51 803.79 L 1174.69 827.02 L 1178.88 818.90 L 1183.07 820.06 L 1187.26 819.15 L 1191.45 825.49 L 1195.64 810.19 L 1199.83 798.36 L 1204.02 803.81 L 1208.21 780.90 L 1212.40 836.46 L 1216.59 831.90 L 1220.78 838.94 L 1224.97 788.93 L 1229.16 822.97 L 1233.35 835.59 L 1237.54 782.83 L 1241.73 737.25 L 1245.92 818.72 L 1250.11 775.72 L 1254.29 803.38 L 1258.48 835.89 L 1262.67 767.39 L 1266.86 803.89 L 1271.05 801.72 L 1275.24 821.59 L 1279.43 783.03 L 1283.62 839.88 L 1287.81 825.99 L 1292.00 818.81" fill="none" stroke="#1d4ed8" stroke-width="2"  />
  </g>
</svg>