<?xml version="1.0" encoding="UTF-8"?>
<svg xmlns="http://www.w3.org/2000/svg" width="1360" height="980" viewBox="0 0 1360 980">
  <defs>
    <linearGradient id="bg" x1="0" y1="0" x2="1" y2="1">
      <stop offset="0%" stop-color="#f4efe6" />
      <stop offset="100%" stop-color="#eef5f2" />
    </linearGradient>
  </defs>
  <rect x="0" y="0" width="1360" height="980" fill="url(#bg)" />
  <text x="46" y="36" fill="#1f2937" font-size="31" font-weight="700">159518 离线研究图（持仓逐日估值版）</text>
  <text x="46" y="66" fill="#5b6b68" font-size="13">历史前十大持仓 + 持仓逐日涨跌幅 + USDCNY；双目标 lambda=0.10；披露期数 9；覆盖率均值 92.1%</text>
  <g>
    <text x="54" y="110" fill="#1f2937" font-size="16" font-weight="700">A. 净值拟合（同日对齐，无平移）</text>
    <line x1="98" y1="130" x2="124" y2="130" stroke="#0f766e" stroke-width="2"  />
      <text x="130" y="134" fill="#24312e" font-size="12">真实净值</text>
<line x1="313" y1="130" x2="339" y2="130" stroke="#1d4ed8" stroke-width="2"  />
      <text x="345" y="134" fill="#24312e" font-size="12">持仓分段估值</text>
    <line x1="98" y1="132.00" x2="1292" y2="132.00" stroke="#d7e3df" stroke-width="1" />
      <text x="90" y="136.00" text-anchor="end" fill="#5b6b68" font-size="11">1.146</text>
<line x1="98" y1="209.50" x2="1292" y2="209.50" stroke="#d7e3df" stroke-width="1" />
      <text x="90" y="213.50" text-anchor="end" fill="#5b6b68" font-size="11">1.040</text>
<line x1="98" y1="287.00" x2="1292" y2="287.00" stroke="#d7e3df" stroke-width="1" />
      <text x="90" y="291.00" text-anchor="end" fill="#5b6b68" font-size="11">0.933</text>
<line x1="98" y1="364.50" x2="1292" y2="364.50" stroke="#d7e3df" stroke-width="1" />
      <text x="90" y="368.50" text-anchor="end" fill="#5b6b68" font-size="11">0.826</text>
<line x1="98" y1="442.00" x2="1292" y2="442.00" stroke="#d7e3df" stroke-width="1" />
      <text x="90" y="446.00" text-anchor="end" fill="#5b6b68" font-size="11">0.719</text>
    <line x1="98.00" y1="132" x2="98.00" y2="442" stroke="#eef3f1" stroke-width="1" />
      <text x="98.00" y="470" text-anchor="middle" fill="#5b6b68" font-size="11">25-01-02</text>
<line x1="290.72" y1="132" x2="290.72" y2="442" stroke="#eef3f1" stroke-width="1" />
      <text x="290.72" y="470" text-anchor="middle" fill="#5b6b68" font-size="11">25-03-17</text>
<line x1="479.24" y1="132" x2="479.24" y2="442" stroke="#eef3f1" stroke-width="1" />
      <text x="479.24" y="470" text-anchor="middle" fill="#5b6b68" font-size="11">25-05-23</text>
<line x1="697.09" y1="132" x2="697.09" y2="442" stroke="#eef3f1" stroke-width="1" />
      <text x="697.09" y="470" text-anchor="middle" fill="#5b6b68" font-size="11">25-08-06</text>
<line x1="910.76" y1="132" x2="910.76" y2="442" stroke="#eef3f1" stroke-width="1" />
      <text x="910.76" y="470" text-anchor="middle" fill="#5b6b68" font-size="11">25-10-24</text>
<line x1="1099.28" y1="132" x2="1099.28" y2="442" stroke="#eef3f1" stroke-width="1" />
      <text x="1099.28" y="470" text-anchor="middle" fill="#5b6b68" font-size="11">25-12-26</text>
<line x1="1292.00" y1="132" x2="1292.00" y2="442" stroke="#eef3f1" stroke-width="1" />
      <text x="1292.00" y="470" text-anchor="middle" fill="#5b6b68" font-size="11">26-03-12</text>
    <line x1="1116.04" y1="132" x2="1116.04" y2="442" stroke="#f59e0b" stroke-width="1.4" stroke-dasharray="4 4" />
       <text x="1122.04" y="124" fill="#a16207" font-size="11">验证起点</text>
    <path d="M 98.00 273.84 L 102.19 269.92 L 106.38 271.81 L 110.57 263.76 L 114.76 259.11 L 118.95 259.11 L 123.14 250.77 L 127.33 237.99 L 131.52 232.48 L 135.71 218.83 L 139.89 217.45 L 144.08 219.41 L 148.27 219.49 L 152.46 230.37 L 156.65 237.12 L 160.84 235.60 L 165.03 246.19 L 169.22 259.98 L 173.41 265.28 L 177.60 280.74 L 181.79 284.00 L 185.98 258.97 L 190.17 253.23 L 194.36 276.96 L 198.55 272.25 L 202.74 266.73 L 206.93 266.80 L 211.12 259.11 L 215.31 250.62 L 219.49 251.78 L 223.68 274.57 L 227.87 276.75 L 232.06 292.86 L 236.25 298.23 L 240.44 303.16 L 244.63 296.19 L 248.82 329.14 L 253.01 332.70 L 257.20 342.86 L 261.39 350.19 L 265.58 339.74 L 269.77 339.88 L 273.96 336.69 L 278.15 330.52 L 282.34 339.74 L 286.53 317.75 L 290.72 305.41 L 294.91 301.35 L 299.09 286.11 L 303.28 286.18 L 307.47 295.40 L 311.66 285.82 L 315.85 286.03 L 320.04 283.13 L 324.23 289.59 L 328.42 295.69 L 332.61 290.32 L 336.80 286.62 L 340.99 279.50 L 345.18 351.49 L 349.37 417.39 L 353.56 439.38 L 357.75 379.14 L 361.94 427.33 L 366.13 409.77 L 370.32 410.71 L 374.51 413.83 L 378.69 403.24 L 382.88 388.29 L 387.07 388.43 L 391.26 405.99 L 395.45 391.70 L 399.64 390.03 L 403.83 383.93 L 408.02 381.10 L 412.21 374.43 L 416.40 378.49 L 420.59 394.96 L 424.78 383.50 L 428.97 381.97 L 433.16 362.96 L 437.35 353.16 L 441.54 330.88 L 445.73 310.71 L 449.92 314.34 L 454.11 319.56 L 458.29 321.01 L 462.48 327.98 L 466.67 331.03 L 470.86 345.11 L 475.05 345.83 L 479.24 344.89 L 483.43 345.69 L 487.62 335.89 L 491.81 346.20 L 496.00 343.44 L 500.19 352.00 L 504.38 331.39 L 508.57 346.27 L 512.76 348.08 L 516.95 333.21 L 521.14 328.05 L 525.33 318.76 L 529.52 307.30 L 533.71 303.02 L 537.89 285.60 L 542.08 284.08 L 546.27 275.80 L 550.46 280.74 L 554.65 281.03 L 558.84 277.83 L 563.03 302.15 L 567.22 307.30 L 571.41 317.09 L 575.60 309.18 L 579.79 312.01 L 583.98 319.71 L 588.17 314.55 L 592.36 302.36 L 596.55 302.44 L 600.74 302.29 L 604.93 310.64 L 609.12 289.52 L 613.31 295.18 L 617.49 287.34 L 621.68 283.71 L 625.87 290.90 L 630.06 305.63 L 634.25 315.57 L 638.44 303.74 L 642.63 301.64 L 646.82 318.84 L 651.01 312.16 L 655.20 308.10 L 659.39 306.72 L 663.58 310.13 L 667.77 295.11 L 671.96 290.82 L 676.15 301.71 L 680.34 308.75 L 684.53 331.39 L 688.72 330.38 L 692.91 325.80 L 697.09 332.55 L 701.28 339.01 L 705.47 336.18 L 709.66 342.71 L 713.85 334.87 L 718.04 327.18 L 722.23 326.31 L 726.42 329.58 L 730.61 335.09 L 734.80 337.41 L 738.99 331.32 L 743.18 330.96 L 747.37 308.97 L 751.56 303.96 L 755.75 306.28 L 759.94 297.21 L 764.13 290.46 L 768.32 289.81 L 772.51 289.45 L 776.69 281.32 L 780.88 300.40 L 785.07 293.07 L 789.26 306.35 L 793.45 311.87 L 797.64 310.20 L 801.83 295.69 L 806.02 298.44 L 810.21 304.61 L 814.40 308.24 L 818.59 287.85 L 822.78 288.94 L 826.97 290.03 L 831.16 304.03 L 835.35 299.39 L 839.54 284.37 L 843.73 273.99 L 847.92 269.63 L 852.11 263.32 L 856.29 282.99 L 860.48 290.17 L 864.67 295.47 L 868.86 331.97 L 873.05 315.21 L 877.24 321.09 L 881.43 322.47 L 885.62 335.89 L 889.81 334.95 L 894.00 326.17 L 898.19 331.54 L 902.38 328.71 L 906.57 304.83 L 910.76 311.14 L 914.95 312.16 L 919.14 325.59 L 923.33 322.10 L 927.52 324.93 L 931.71 319.93 L 935.89 315.93 L 940.08 324.79 L 944.27 330.30 L 948.46 319.93 L 952.65 306.93 L 956.84 296.92 L 961.03 282.77 L 965.22 294.16 L 969.41 294.45 L 973.60 284.37 L 977.79 297.50 L 981.98 286.32 L 986.17 294.53 L 990.36 311.22 L 994.55 305.41 L 998.74 300.40 L 1002.93 303.52 L 1007.12 296.48 L 1011.31 296.63 L 1015.49 284.58 L 1019.68 279.58 L 1023.87 289.74 L 1028.06 272.68 L 1032.25 273.04 L 1036.44 271.67 L 1040.63 284.29 L 1044.82 282.77 L 1049.01 279.72 L 1053.20 291.48 L 1057.39 298.08 L 1061.58 307.52 L 1065.77 332.99 L 1069.96 318.40 L 1074.15 332.77 L 1078.34 330.67 L 1082.53 327.25 L 1086.72 321.45 L 1090.91 324.71 L 1095.09 325.44 L 1099.28 330.59 L 1103.47 323.26 L 1107.66 318.91 L 1111.85 325.08 L 1116.04 319.56 L 1120.23 329.72 L 1124.42 337.78 L 1128.61 315.06 L 1132.80 320.94 L 1136.99 320.14 L 1141.18 309.55 L 1145.37 298.52 L 1149.56 307.30 L 1153.75 307.01 L 1157.94 307.30 L 1162.13 310.49 L 1166.32 285.96 L 1170.51 286.40 L 1174.69 284.00 L 1178.88 287.12 L 1183.07 283.57 L 1187.26 276.24 L 1191.45 266.59 L 1195.64 261.14 L 1199.83 282.99 L 1204.02 263.97 L 1208.21 244.52 L 1212.40 256.06 L 1216.59 231.46 L 1220.78 231.32 L 1224.97 236.76 L 1229.16 219.20 L 1233.35 241.48 L 1237.54 225.87 L 1241.73 217.24 L 1245.92 224.64 L 1250.11 218.04 L 1254.29 198.88 L 1258.48 169.27 L 1262.67 174.49 L 1266.86 165.28 L 1271.05 151.34 L 1275.24 149.89 L 1279.43 159.47 L 1283.62 175.65 L 1287.81 148.51 L 1292.00 138.06" fill="none" stroke="#0f766e" stroke-width="2"  />
<path d="M 98.00 282.35 L 102.19 267.82 L 106.38 270.20 L 110.57 266.44 L 114.76 262.65 L 118.95 258.52 L 123.14 258.81 L 127.33 234.21 L 131.52 235.30 L 135.71 225.59 L 139.89 217.43 L 144.08 216.35 L 148.27 219.01 L 152.46 219.82 L 156.65 235.54 L 160.84 234.21 L 165.03 246.81 L 169.22 244.46 L 173.41 275.71 L 177.60 270.70 L 181.79 282.47 L 185.98 264.18 L 190.17 252.75 L 194.36 273.73 L 198.55 276.14 L 202.74 271.09 L 206.93 265.60 L 211.12 265.94 L 215.31 241.44 L 219.49 245.23 L 223.68 270.62 L 227.87 275.16 L 232.06 287.97 L 236.25 295.86 L 240.44 294.65 L 244.63 299.38 L 248.82 333.53 L 253.01 332.68 L 257.20 342.50 L 261.39 341.65 L 265.58 340.66 L 269.77 336.50 L 273.96 342.05 L 278.15 334.80 L 282.34 334.85 L 286.53 324.52 L 290.72 312.76 L 294.91 303.99 L 299.09 292.75 L 303.28 284.90 L 307.47 287.54 L 311.66 291.32 L 315.85 284.37 L 320.04 281.90 L 324.23 287.12 L 328.42 292.68 L 332.61 289.93 L 336.80 288.30 L 340.99 285.87 L 345.18 348.31 L 349.37 432.71 L 353.56 436.49 L 357.75 382.21 L 361.94 428.84 L 366.13 415.69 L 370.32 407.45 L 374.51 412.16 L 378.69 409.98 L 382.88 387.29 L 387.07 387.94 L 391.26 386.73 L 395.45 388.35 L 399.64 392.29 L 403.83 385.33 L 408.02 384.10 L 412.21 378.73 L 416.40 376.60 L 420.59 392.16 L 424.78 395.96 L 428.97 384.35 L 433.16 365.04 L 437.35 358.91 L 441.54 330.70 L 445.73 320.21 L 449.92 313.36 L 454.11 315.07 L 458.29 320.25 L 462.48 325.90 L 466.67 330.98 L 470.86 344.39 L 475.05 345.85 L 479.24 346.10 L 483.43 343.41 L 487.62 344.93 L 491.81 339.76 L 496.00 343.12 L 500.19 347.14 L 504.38 329.09 L 508.57 341.63 L 512.76 347.60 L 516.95 336.14 L 521.14 329.91 L 525.33 315.75 L 529.52 308.52 L 533.71 306.01 L 537.89 288.99 L 542.08 287.27 L 546.27 279.70 L 550.46 279.40 L 554.65 280.23 L 558.84 280.72 L 563.03 299.50 L 567.22 312.82 L 571.41 308.56 L 575.60 312.18 L 579.79 311.22 L 583.98 314.02 L 588.17 309.96 L 592.36 303.59 L 596.55 302.38 L 600.74 301.89 L 604.93 301.76 L 609.12 288.83 L 613.31 291.45 L 617.49 292.82 L 621.68 286.00 L 625.87 291.00 L 630.06 302.91 L 634.25 309.43 L 638.44 310.37 L 642.63 305.64 L 646.82 304.96 L 651.01 315.14 L 655.20 307.14 L 659.39 306.76 L 663.58 307.52 L 667.77 297.89 L 671.96 291.97 L 676.15 299.55 L 680.34 304.73 L 684.53 320.55 L 688.72 333.64 L 692.91 328.70 L 697.09 328.33 L 701.28 333.92 L 705.47 335.31 L 709.66 340.04 L 713.85 339.16 L 718.04 330.60 L 722.23 326.82 L 726.42 326.67 L 730.61 332.51 L 734.80 336.45 L 738.99 334.72 L 743.18 329.36 L 747.37 313.96 L 751.56 308.16 L 755.75 305.82 L 759.94 300.85 L 764.13 294.86 L 768.32 288.42 L 772.51 290.09 L 776.69 288.70 L 780.88 305.22 L 785.07 297.36 L 789.26 307.12 L 793.45 308.33 L 797.64 310.93 L 801.83 296.87 L 806.02 295.95 L 810.21 302.32 L 814.40 306.73 L 818.59 290.98 L 822.78 287.30 L 826.97 291.07 L 831.16 299.84 L 835.35 305.33 L 839.54 289.30 L 843.73 273.59 L 847.92 269.68 L 852.11 264.48 L 856.29 280.40 L 860.48 286.82 L 864.67 297.61 L 868.86 320.79 L 873.05 325.34 L 877.24 316.00 L 881.43 323.00 L 885.62 327.37 L 889.81 335.46 L 894.00 332.21 L 898.19 327.59 L 902.38 326.84 L 906.57 313.68 L 910.76 309.04 L 914.95 309.73 L 919.14 323.43 L 923.33 322.03 L 927.52 323.83 L 931.71 321.87 L 935.89 318.99 L 940.08 319.40 L 944.27 326.48 L 948.46 327.91 L 952.65 309.32 L 956.84 302.38 L 961.03 285.45 L 965.22 287.61 L 969.41 293.60 L 973.60 283.68 L 977.79 295.32 L 981.98 292.74 L 986.17 297.17 L 990.36 298.61 L 994.55 309.11 L 998.74 303.44 L 1002.93 303.21 L 1007.12 300.58 L 1011.31 296.09 L 1015.49 296.54 L 1019.68 277.18 L 1023.87 284.14 L 1028.06 278.55 L 1032.25 270.76 L 1036.44 274.23 L 1040.63 273.05 L 1044.82 282.86 L 1049.01 272.13 L 1053.20 283.77 L 1057.39 294.38 L 1061.58 303.27 L 1065.77 331.54 L 1069.96 315.17 L 1074.15 332.81 L 1078.34 332.65 L 1082.53 327.45 L 1086.72 326.69 L 1090.91 323.29 L 1095.09 324.46 L 1099.28 325.19 L 1103.47 326.90 L 1107.66 319.15 L 1111.85 320.87 L 1116.04 303.78 L 1120.23 332.08 L 1124.42 340.30 L 1128.61 313.15 L 1132.80 315.98 L 1136.99 323.49 L 1141.18 311.40 L 1145.37 294.42 L 1149.56 309.50 L 1153.75 309.01 L 1157.94 307.33 L 1162.13 307.22 L 1166.32 295.79 L 1170.51 286.67 L 1174.69 282.49 L 1178.88 285.11 L 1183.07 282.36 L 1187.26 279.98 L 1191.45 271.82 L 1195.64 263.12 L 1199.83 278.04 L 1204.02 265.71 L 1208.21 244.55 L 1212.40 253.18 L 1216.59 244.95 L 1220.78 231.31 L 1224.97 232.96 L 1229.16 217.97 L 1233.35 233.23 L 1237.54 236.38 L 1241.73 222.49 L 1245.92 221.85 L 1250.11 224.59 L 1254.29 201.15 L 1258.48 174.69 L 1262.67 171.41 L 1266.86 175.49 L 1271.05 159.88 L 1275.24 148.53 L 1279.43 149.41 L 1283.62 176.06 L 1287.81 155.39 L 1292.00 136.14" fill="none" stroke="#1d4ed8" stroke-width="2"  />
  </g>
  <g>
    <text x="54" y="538" fill="#1f2937" font-size="16" font-weight="700">B. 绝对误差（越低越好）</text>
    <line x1="98" y1="558" x2="124" y2="558" stroke="#1d4ed8" stroke-width="2"  />
      <text x="130" y="562" fill="#24312e" font-size="12">持仓分段误差</text>
    <line x1="98" y1="560.00" x2="1292" y2="560.00" stroke="#d7e3df" stroke-width="1" />
      <text x="90" y="564.00" text-anchor="end" fill="#5b6b68" font-size="11">3.87%</text>
<line x1="98" y1="630.00" x2="1292" y2="630.00" stroke="#d7e3df" stroke-width="1" />
      <text x="90" y="634.00" text-anchor="end" fill="#5b6b68" font-size="11">2.90%</text>
<line x1="98" y1="700.00" x2="1292" y2="700.00" stroke="#d7e3df" stroke-width="1" />
      <text x="90" y="704.00" text-anchor="end" fill="#5b6b68" font-size="11">1.93%</text>
<line x1="98" y1="770.00" x2="1292" y2="770.00" stroke="#d7e3df" stroke-width="1" />
      <text x="90" y="774.00" text-anchor="end" fill="#5b6b68" font-size="11">0.97%</text>
<line x1="98" y1="840.00" x2="1292" y2="840.00" stroke="#d7e3df" stroke-width="1" />
      <text x="90" y="844.00" text-anchor="end" fill="#5b6b68" font-size="11">0.00%</text>
    <line x1="98.00" y1="560" x2="98.00" y2="840" stroke="#eef3f1" stroke-width="1" />
      <text x="98.00" y="868" text-anchor="middle" fill="#5b6b68" font-size="11">25-01-02</text>
<line x1="290.72" y1="560" x2="290.72" y2="840" stroke="#eef3f1" stroke-width="1" />
      <text x="290.72" y="868" text-anchor="middle" fill="#5b6b68" font-size="11">25-03-17</text>
<line x1="479.24" y1="560" x2="479.24" y2="840" stroke="#eef3f1" stroke-width="1" />
      <text x="479.24" y="868" text-anchor="middle" fill="#5b6b68" font-size="11">25-05-23</text>
<line x1="697.09" y1="560" x2="697.09" y2="840" stroke="#eef3f1" stroke-width="1" />
      <text x="697.09" y="868" text-anchor="middle" fill="#5b6b68" font-size="11">25-08-06</text>
<line x1="910.76" y1="560" x2="910.76" y2="840" stroke="#eef3f1" stroke-width="1" />
      <text x="910.76" y="868" text-anchor="middle" fill="#5b6b68" font-size="11">25-10-24</text>
<line x1="1099.28" y1="560" x2="1099.28" y2="840" stroke="#eef3f1" stroke-width="1" />
      <text x="1099.28" y="868" text-anchor="middle" fill="#5b6b68" font-size="11">25-12-26</text>
<line x1="1292.00" y1="560" x2="1292.00" y2="840" stroke="#eef3f1" stroke-width="1" />
      <text x="1292.00" y="868" text-anchor="middle" fill="#5b6b68" font-size="11">26-03-12</text>
    <line x1="1116.04" y1="560" x2="1116.04" y2="840" stroke="#f59e0b" stroke-width="1.4" stroke-dasharray="4 4" />
       <text x="1122.04" y="552" fill="#a16207" font-size="11">验证起点</text>
    <path d="M 98.00 750.74 L 102.19 818.09 L 106.38 823.18 L 110.57 812.21 L 114.76 803.67 L 118.95 833.91 L 123.14 758.25 L 127.33 802.28 L 131.52 812.00 L 135.71 774.33 L 139.89 839.74 L 144.08 810.18 L 148.27 835.37 L 152.46 735.77 L 156.65 824.24 L 160.84 826.17 L 165.03 833.80 L 169.22 680.35 L 173.41 731.84 L 177.60 733.63 L 181.79 823.72 L 185.98 786.46 L 190.17 835.12 L 194.36 805.96 L 198.55 799.24 L 202.74 794.72 L 206.93 827.45 L 211.12 769.84 L 215.31 746.79 L 219.49 773.35 L 223.68 798.47 L 227.87 823.28 L 232.06 787.30 L 236.25 814.22 L 240.44 746.70 L 244.63 805.44 L 248.82 789.88 L 253.01 839.76 L 257.20 835.79 L 261.39 739.24 L 265.58 829.26 L 269.77 800.75 L 273.96 778.15 L 278.15 791.07 L 282.34 783.25 L 286.53 764.09 L 290.72 759.14 L 294.91 811.16 L 299.09 768.98 L 303.28 826.36 L 307.47 754.94 L 311.66 781.26 L 315.85 822.21 L 320.04 826.91 L 324.23 813.47 L 328.42 807.40 L 332.61 835.89 L 336.80 822.00 L 340.99 772.63 L 345.18 802.31 L 349.37 636.96 L 353.56 800.15 L 357.75 802.08 L 361.94 819.66 L 366.13 762.55 L 370.32 797.33 L 374.51 818.00 L 378.69 752.92 L 382.88 827.49 L 387.07 833.76 L 391.26 590.00 L 395.45 797.69 L 399.64 811.41 L 403.83 822.59 L 408.02 802.73 L 412.21 787.06 L 416.40 816.64 L 420.59 804.29 L 424.78 684.56 L 428.97 810.36 L 433.16 814.96 L 437.35 771.80 L 441.54 837.95 L 445.73 734.65 L 449.92 829.14 L 454.11 789.46 L 458.29 831.44 L 462.48 816.26 L 466.67 839.46 L 470.86 831.64 L 475.05 839.83 L 479.24 825.81 L 483.43 813.27 L 487.62 735.75 L 491.81 764.53 L 496.00 836.29 L 500.19 782.46 L 504.38 813.70 L 508.57 785.59 L 512.76 834.28 L 516.95 806.26 L 521.14 818.88 L 525.33 806.20 L 529.52 826.48 L 533.71 807.23 L 537.89 803.77 L 542.08 806.00 L 546.27 799.00 L 550.46 825.78 L 554.65 831.51 L 558.84 809.51 L 563.03 811.06 L 567.22 779.07 L 571.41 744.42 L 575.60 806.92 L 579.79 831.15 L 583.98 776.05 L 588.17 788.70 L 592.36 826.54 L 596.55 839.42 L 600.74 835.59 L 604.93 741.57 L 609.12 832.59 L 613.31 799.58 L 617.49 781.34 L 621.68 815.68 L 625.87 838.90 L 630.06 810.05 L 634.25 771.45 L 638.44 767.30 L 642.63 796.27 L 646.82 684.21 L 651.01 806.92 L 655.20 829.41 L 659.39 839.50 L 663.58 811.07 L 667.77 809.82 L 671.96 827.69 L 676.15 816.38 L 680.34 795.55 L 684.53 715.90 L 688.72 802.67 L 692.91 807.12 L 697.09 791.59 L 701.28 781.00 L 705.47 829.98 L 709.66 808.79 L 713.85 790.72 L 718.04 801.10 L 722.23 834.26 L 726.42 806.81 L 730.61 810.29 L 734.80 828.82 L 738.99 801.07 L 743.18 821.73 L 747.37 784.81 L 751.56 793.94 L 755.75 834.95 L 759.94 800.42 L 764.13 792.72 L 768.32 825.10 L 772.51 833.07 L 776.69 761.62 L 780.88 787.45 L 785.07 793.71 L 789.26 831.58 L 793.45 800.68 L 797.64 831.96 L 801.83 827.16 L 806.02 812.87 L 810.21 814.80 L 814.40 823.28 L 818.59 806.47 L 822.78 822.48 L 826.97 828.75 L 831.16 794.02 L 835.35 775.21 L 839.54 787.36 L 843.73 835.82 L 847.92 839.54 L 852.11 828.04 L 856.29 812.46 L 860.48 803.93 L 864.67 816.85 L 868.86 711.84 L 873.05 726.90 L 877.24 782.74 L 881.43 833.98 L 885.62 741.70 L 889.81 834.09 L 894.00 771.41 L 898.19 794.80 L 902.38 818.75 L 906.57 742.81 L 910.76 816.62 L 914.95 812.98 L 919.14 815.59 L 923.33 839.19 L 927.52 827.49 L 931.71 818.17 L 935.89 805.87 L 940.08 778.90 L 944.27 796.25 L 948.46 750.15 L 952.65 813.67 L 956.84 780.68 L 961.03 811.54 L 965.22 769.11 L 969.41 830.82 L 973.60 832.70 L 977.79 816.35 L 981.98 771.39 L 986.17 811.43 L 990.36 700.10 L 994.55 799.33 L 998.74 806.91 L 1002.93 836.53 L 1007.12 795.54 L 1011.31 834.19 L 1015.49 712.53 L 1019.68 814.66 L 1023.87 779.92 L 1028.06 778.50 L 1032.25 816.08 L 1036.44 813.14 L 1040.63 720.21 L 1044.82 839.03 L 1049.01 759.64 L 1053.20 757.02 L 1057.39 799.74 L 1061.58 793.18 L 1065.77 823.34 L 1069.96 803.80 L 1074.15 839.56 L 1078.34 817.29 L 1082.53 837.75 L 1086.72 780.89 L 1090.91 823.87 L 1095.09 828.87 L 1099.28 778.26 L 1103.47 798.89 L 1107.66 837.33 L 1111.85 792.35 L 1116.04 662.63 L 1120.23 813.03 L 1124.42 810.88 L 1128.61 818.70 L 1132.80 784.17 L 1136.99 802.34 L 1141.18 819.44 L 1145.37 795.41 L 1149.56 815.76 L 1153.75 817.98 L 1157.94 839.67 L 1162.13 803.74 L 1166.32 735.03 L 1170.51 837.09 L 1174.69 823.84 L 1178.88 818.51 L 1183.07 827.15 L 1187.26 800.57 L 1191.45 785.60 L 1195.64 819.60 L 1199.83 787.34 L 1204.02 822.02 L 1208.21 839.72 L 1212.40 810.49 L 1216.59 706.62 L 1220.78 839.91 L 1224.97 802.16 L 1229.16 828.12 L 1233.35 757.34 L 1237.54 736.88 L 1241.73 789.09 L 1245.92 812.72 L 1250.11 776.33 L 1254.29 818.49 L 1258.48 790.57 L 1262.67 811.71 L 1266.86 747.39 L 1271.05 763.90 L 1275.24 827.87 L 1279.43 749.43 L 1283.62 836.27 L 1287.81 778.91 L 1292.00 823.14" fill="none" stroke="#1d4ed8" stroke-width="2"  />
  </g>
</svg>