<?xml version="1.0" encoding="UTF-8"?>
<svg xmlns="http://www.w3.org/2000/svg" width="1360" height="980" viewBox="0 0 1360 980">
  <defs>
    <linearGradient id="bg" x1="0" y1="0" x2="1" y2="1">
      <stop offset="0%" stop-color="#f4efe6" />
      <stop offset="100%" stop-color="#eef5f2" />
    </linearGradient>
  </defs>
  <rect x="0" y="0" width="1360" height="980" fill="url(#bg)" />
  <text x="46" y="36" fill="#1f2937" font-size="31" font-weight="700">160221 离线研究图（持仓逐日估值版）</text>
  <text x="46" y="66" fill="#5b6b68" font-size="13">历史前十大持仓 + 持仓逐日涨跌幅 + USDCNY；双目标 lambda=0.10；披露期数 36；覆盖率均值 99.5%</text>
  <g>
    <text x="54" y="110" fill="#1f2937" font-size="16" font-weight="700">A. 净值拟合（同日对齐，无平移）</text>
    <line x1="98" y1="112" x2="124" y2="112" stroke="#0f766e" stroke-width="2"  />
      <text x="130" y="116" fill="#24312e" font-size="12">真实净值</text>
<line x1="313" y1="112" x2="339" y2="112" stroke="#1d4ed8" stroke-width="2"  />
      <text x="345" y="116" fill="#24312e" font-size="12">持仓分段估值</text>
<line x1="528" y1="112" x2="554" y2="112" stroke="#b45309" stroke-width="2" stroke-dasharray="6 4" />
      <text x="560" y="116" fill="#24312e" font-size="12">持仓双目标估值</text>
    <line x1="98" y1="132.00" x2="1292" y2="132.00" stroke="#d7e3df" stroke-width="1" />
      <text x="90" y="136.00" text-anchor="end" fill="#5b6b68" font-size="11">3.030</text>
<line x1="98" y1="209.50" x2="1292" y2="209.50" stroke="#d7e3df" stroke-width="1" />
      <text x="90" y="213.50" text-anchor="end" fill="#5b6b68" font-size="11">2.566</text>
<line x1="98" y1="287.00" x2="1292" y2="287.00" stroke="#d7e3df" stroke-width="1" />
      <text x="90" y="291.00" text-anchor="end" fill="#5b6b68" font-size="11">2.101</text>
<line x1="98" y1="364.50" x2="1292" y2="364.50" stroke="#d7e3df" stroke-width="1" />
      <text x="90" y="368.50" text-anchor="end" fill="#5b6b68" font-size="11">1.636</text>
<line x1="98" y1="442.00" x2="1292" y2="442.00" stroke="#d7e3df" stroke-width="1" />
      <text x="90" y="446.00" text-anchor="end" fill="#5b6b68" font-size="11">1.172</text>
    <line x1="98.00" y1="132" x2="98.00" y2="442" stroke="#eef3f1" stroke-width="1" />
      <text x="98.00" y="470" text-anchor="middle" fill="#5b6b68" font-size="11">25-01-02</text>
<line x1="290.04" y1="132" x2="290.04" y2="442" stroke="#eef3f1" stroke-width="1" />
      <text x="290.04" y="470" text-anchor="middle" fill="#5b6b68" font-size="11">25-03-17</text>
<line x1="482.08" y1="132" x2="482.08" y2="442" stroke="#eef3f1" stroke-width="1" />
      <text x="482.08" y="470" text-anchor="middle" fill="#5b6b68" font-size="11">25-05-26</text>
<line x1="695.00" y1="132" x2="695.00" y2="442" stroke="#eef3f1" stroke-width="1" />
      <text x="695.00" y="470" text-anchor="middle" fill="#5b6b68" font-size="11">25-08-06</text>
<line x1="907.92" y1="132" x2="907.92" y2="442" stroke="#eef3f1" stroke-width="1" />
      <text x="907.92" y="470" text-anchor="middle" fill="#5b6b68" font-size="11">25-10-24</text>
<line x1="1099.96" y1="132" x2="1099.96" y2="442" stroke="#eef3f1" stroke-width="1" />
      <text x="1099.96" y="470" text-anchor="middle" fill="#5b6b68" font-size="11">25-12-29</text>
<line x1="1292.00" y1="132" x2="1292.00" y2="442" stroke="#eef3f1" stroke-width="1" />
      <text x="1292.00" y="470" text-anchor="middle" fill="#5b6b68" font-size="11">26-03-13</text>
    <line x1="1112.48" y1="132" x2="1112.48" y2="442" stroke="#f59e0b" stroke-width="1.4" stroke-dasharray="4 4" />
       <text x="1118.48" y="124" fill="#a16207" font-size="11">验证起点</text>
    <path d="M 98.00 437.03 L 102.17 435.75 L 106.35 434.38 L 110.52 430.09 L 114.70 432.75 L 118.87 431.96 L 123.05 432.28 L 127.22 428.06 L 131.40 425.47 L 135.57 428.44 L 139.75 424.52 L 143.92 423.76 L 148.10 425.39 L 152.27 426.33 L 156.45 426.06 L 160.62 427.84 L 164.80 425.74 L 168.97 426.31 L 173.15 424.56 L 177.32 422.96 L 181.50 420.40 L 185.67 419.62 L 189.85 419.42 L 194.02 420.84 L 198.20 422.29 L 202.37 420.84 L 206.55 425.69 L 210.72 427.14 L 214.90 425.84 L 219.07 425.09 L 223.24 425.69 L 227.42 426.03 L 231.59 428.28 L 235.77 427.31 L 239.94 428.28 L 244.12 431.45 L 248.29 426.71 L 252.47 425.71 L 256.64 424.24 L 260.82 421.39 L 264.99 418.57 L 269.17 416.18 L 273.34 415.35 L 277.52 415.78 L 281.69 414.70 L 285.87 411.70 L 290.04 413.90 L 294.22 411.00 L 298.39 410.58 L 302.57 411.25 L 306.74 416.30 L 310.92 412.73 L 315.09 411.71 L 319.27 412.83 L 323.44 415.13 L 327.62 414.83 L 331.79 416.43 L 335.97 416.43 L 340.14 418.57 L 344.31 421.69 L 348.49 439.15 L 352.66 439.00 L 356.84 437.00 L 361.01 430.40 L 365.19 428.64 L 369.36 424.07 L 373.54 425.32 L 377.71 425.27 L 381.89 426.39 L 386.06 426.93 L 390.24 419.49 L 394.41 420.37 L 398.59 423.74 L 402.76 424.67 L 406.94 424.44 L 411.11 425.29 L 415.29 425.78 L 419.46 426.29 L 423.64 421.74 L 427.81 420.92 L 431.99 422.34 L 436.16 423.17 L 440.34 421.52 L 444.51 421.00 L 448.69 419.20 L 452.86 421.87 L 457.03 422.17 L 461.21 422.97 L 465.38 422.31 L 469.56 417.25 L 473.73 419.14 L 477.91 419.17 L 482.08 419.07 L 486.26 423.21 L 490.43 423.21 L 494.61 422.51 L 498.78 423.87 L 502.96 421.22 L 507.13 418.52 L 511.31 419.64 L 515.48 417.39 L 519.66 417.00 L 523.83 416.69 L 528.01 412.72 L 532.18 410.08 L 536.36 409.85 L 540.53 410.96 L 544.71 410.71 L 548.88 411.43 L 553.06 414.97 L 557.23 416.12 L 561.41 414.33 L 565.58 413.10 L 569.76 411.28 L 573.93 410.73 L 578.10 406.11 L 582.28 406.18 L 586.45 402.66 L 590.63 400.77 L 594.80 400.04 L 598.98 402.99 L 603.15 404.76 L 607.33 402.62 L 611.50 407.61 L 615.68 404.84 L 619.85 400.82 L 624.03 399.62 L 628.20 401.77 L 632.38 402.56 L 636.55 401.62 L 640.73 396.37 L 644.90 390.05 L 649.08 384.78 L 653.25 385.05 L 657.43 378.22 L 661.60 378.39 L 665.78 379.19 L 669.95 379.31 L 674.13 381.03 L 678.30 389.15 L 682.48 390.15 L 686.65 386.33 L 690.83 385.36 L 695.00 382.53 L 699.17 379.34 L 703.35 375.97 L 707.52 375.05 L 711.70 375.97 L 715.87 370.77 L 720.05 373.22 L 724.22 367.38 L 728.40 366.46 L 732.57 367.60 L 736.75 364.96 L 740.92 366.31 L 745.10 363.10 L 749.27 349.69 L 753.45 350.84 L 757.62 352.72 L 761.80 348.67 L 765.97 341.13 L 770.15 331.26 L 774.32 334.22 L 778.50 335.51 L 782.67 346.62 L 786.85 334.24 L 791.02 334.72 L 795.20 332.07 L 799.37 335.28 L 803.55 329.99 L 807.72 323.75 L 811.90 325.65 L 816.07 328.90 L 820.24 328.17 L 824.42 338.53 L 828.59 335.01 L 832.77 331.99 L 836.94 334.11 L 841.12 330.40 L 845.29 325.10 L 849.47 324.70 L 853.64 313.03 L 857.82 302.63 L 861.99 277.60 L 866.17 286.44 L 870.34 275.78 L 874.52 287.99 L 878.69 284.57 L 882.87 290.94 L 887.04 296.83 L 891.22 301.20 L 895.39 296.61 L 899.57 301.18 L 903.74 297.68 L 907.92 292.24 L 912.09 284.15 L 916.27 294.48 L 920.44 279.98 L 924.62 275.90 L 928.79 284.20 L 932.97 288.39 L 937.14 298.81 L 941.31 297.18 L 945.49 286.87 L 949.66 284.87 L 953.84 283.30 L 958.01 288.47 L 962.19 288.21 L 966.36 274.85 L 970.54 282.09 L 974.71 283.99 L 978.89 292.79 L 983.06 284.27 L 987.24 286.29 L 991.41 303.45 L 995.59 305.52 L 999.76 298.55 L 1003.94 298.78 L 1008.11 298.26 L 1012.29 293.51 L 1016.46 283.24 L 1020.64 288.09 L 1024.81 285.87 L 1028.99 284.90 L 1033.16 275.91 L 1037.34 273.61 L 1041.51 284.55 L 1045.69 281.32 L 1049.86 284.24 L 1054.03 279.52 L 1058.21 282.05 L 1062.38 291.54 L 1066.56 281.35 L 1070.73 281.89 L 1074.91 275.61 L 1079.08 267.26 L 1083.26 265.36 L 1087.43 263.96 L 1091.61 267.31 L 1095.78 255.95 L 1099.96 263.44 L 1104.13 257.37 L 1108.31 254.07 L 1112.48 244.61 L 1116.66 228.08 L 1120.83 225.28 L 1125.01 232.25 L 1129.18 221.17 L 1133.36 217.05 L 1137.53 212.40 L 1141.71 209.60 L 1145.88 203.53 L 1150.06 207.91 L 1154.23 207.10 L 1158.41 205.68 L 1162.58 194.65 L 1166.76 197.72 L 1170.93 187.78 L 1175.10 166.47 L 1179.28 169.19 L 1183.45 143.40 L 1187.63 135.63 L 1191.80 171.74 L 1195.98 206.05 L 1200.15 190.28 L 1204.33 188.58 L 1208.50 208.41 L 1212.68 207.26 L 1216.85 198.76 L 1221.03 198.77 L 1225.20 187.82 L 1229.38 183.95 L 1233.55 199.14 L 1237.73 186.53 L 1241.90 170.94 L 1246.08 174.49 L 1250.25 160.01 L 1254.43 144.17 L 1258.60 168.99 L 1262.78 170.89 L 1266.95 174.37 L 1271.13 183.35 L 1275.30 186.70 L 1279.48 183.36 L 1283.65 185.53 L 1287.83 187.07 L 1292.00 199.22" fill="none" stroke="#0f766e" stroke-width="2"  />
<path d="M 98.00 436.18 L 102.17 435.54 L 106.35 434.85 L 110.52 430.03 L 114.70 431.16 L 118.87 432.15 L 123.05 432.23 L 127.22 429.39 L 131.40 426.24 L 135.57 426.46 L 139.75 424.36 L 143.92 423.81 L 148.10 424.39 L 152.27 426.26 L 156.45 426.28 L 160.62 426.66 L 164.80 427.23 L 168.97 425.78 L 173.15 423.95 L 177.32 422.60 L 181.50 421.40 L 185.67 418.95 L 189.85 420.59 L 194.02 419.16 L 198.20 421.45 L 202.37 421.48 L 206.55 423.07 L 210.72 426.09 L 214.90 426.41 L 219.07 425.60 L 223.24 425.21 L 227.42 425.97 L 231.59 426.75 L 235.77 427.89 L 239.94 427.28 L 244.12 429.82 L 248.29 425.33 L 252.47 426.36 L 256.64 425.09 L 260.82 420.24 L 264.99 420.46 L 269.17 418.56 L 273.34 416.69 L 277.52 415.28 L 281.69 414.63 L 285.87 412.97 L 290.04 412.37 L 294.22 411.70 L 298.39 410.88 L 302.57 411.13 L 306.74 416.24 L 310.92 414.91 L 315.09 412.03 L 319.27 412.01 L 323.44 413.49 L 327.62 415.40 L 331.79 415.24 L 335.97 416.03 L 340.14 417.36 L 344.31 420.08 L 348.49 441.02 L 352.66 439.61 L 356.84 437.42 L 361.01 430.13 L 365.19 430.06 L 369.36 426.23 L 373.54 424.86 L 377.71 425.42 L 381.89 425.44 L 386.06 425.77 L 390.24 418.57 L 394.41 420.64 L 398.59 421.82 L 402.76 423.55 L 406.94 424.40 L 411.11 424.85 L 415.29 425.39 L 419.46 426.19 L 423.64 424.39 L 427.81 421.51 L 431.99 421.51 L 436.16 422.75 L 440.34 421.61 L 444.51 421.04 L 448.69 419.66 L 452.86 420.62 L 457.03 422.12 L 461.21 422.37 L 465.38 422.54 L 469.56 417.52 L 473.73 418.20 L 477.91 419.37 L 482.08 419.16 L 486.26 420.49 L 490.43 423.58 L 494.61 422.65 L 498.78 422.97 L 502.96 422.52 L 507.13 419.68 L 511.31 418.91 L 515.48 418.70 L 519.66 416.58 L 523.83 416.96 L 528.01 411.97 L 532.18 411.23 L 536.36 409.77 L 540.53 409.78 L 544.71 410.62 L 548.88 410.65 L 553.06 412.42 L 557.23 415.45 L 561.41 413.91 L 565.58 413.60 L 569.76 411.98 L 573.93 410.19 L 578.10 408.52 L 582.28 405.57 L 586.45 404.38 L 590.63 401.10 L 594.80 400.34 L 598.98 401.18 L 603.15 403.54 L 607.33 402.94 L 611.50 403.99 L 615.68 406.01 L 619.85 403.17 L 624.03 399.47 L 628.20 400.61 L 632.38 402.39 L 636.55 401.24 L 640.73 395.75 L 644.90 392.82 L 649.08 386.51 L 653.25 385.19 L 657.43 376.97 L 661.60 378.16 L 665.78 378.42 L 669.95 379.18 L 674.13 379.31 L 678.30 387.14 L 682.48 389.35 L 686.65 388.40 L 690.83 385.81 L 695.00 384.06 L 699.17 380.31 L 703.35 375.56 L 707.52 373.96 L 711.70 375.24 L 715.87 375.24 L 720.05 371.74 L 724.22 367.79 L 728.40 366.51 L 732.57 367.03 L 736.75 366.38 L 740.92 365.22 L 745.10 361.46 L 749.27 351.71 L 753.45 349.55 L 757.62 351.51 L 761.80 351.10 L 765.97 339.62 L 770.15 330.68 L 774.32 332.75 L 778.50 333.83 L 782.67 340.55 L 786.85 330.45 L 791.02 332.99 L 795.20 334.55 L 799.37 334.26 L 803.55 333.50 L 807.72 324.81 L 811.90 323.29 L 816.07 328.21 L 820.24 328.93 L 824.42 337.10 L 828.59 332.85 L 832.77 333.22 L 836.94 333.29 L 841.12 331.29 L 845.29 330.49 L 849.47 324.63 L 853.64 313.37 L 857.82 302.14 L 861.99 271.17 L 866.17 288.19 L 870.34 270.30 L 874.52 284.74 L 878.69 288.68 L 882.87 288.91 L 887.04 294.79 L 891.22 299.50 L 895.39 297.79 L 899.57 299.06 L 903.74 295.30 L 907.92 297.75 L 912.09 289.66 L 916.27 293.90 L 920.44 276.77 L 924.62 272.06 L 928.79 282.57 L 932.97 284.01 L 937.14 297.40 L 941.31 298.17 L 945.49 284.18 L 949.66 285.04 L 953.84 284.69 L 958.01 286.03 L 962.19 288.16 L 966.36 272.60 L 970.54 280.67 L 974.71 280.26 L 978.89 293.61 L 983.06 281.77 L 987.24 285.59 L 991.41 301.77 L 995.59 307.61 L 999.76 299.79 L 1003.94 298.43 L 1008.11 298.43 L 1012.29 297.02 L 1016.46 290.05 L 1020.64 285.34 L 1024.81 286.74 L 1028.99 285.14 L 1033.16 279.95 L 1037.34 273.95 L 1041.51 281.93 L 1045.69 283.09 L 1049.86 282.51 L 1054.03 282.16 L 1058.21 280.18 L 1062.38 289.06 L 1066.56 279.73 L 1070.73 281.10 L 1074.91 275.85 L 1079.08 271.50 L 1083.26 265.18 L 1087.43 264.50 L 1091.61 265.73 L 1095.78 256.92 L 1099.96 262.25 L 1104.13 257.02 L 1108.31 255.72 L 1112.48 245.42 L 1116.66 228.08 L 1120.83 226.57 L 1125.01 228.12 L 1129.18 224.57 L 1133.36 217.60 L 1137.53 213.65 L 1141.71 213.99 L 1145.88 201.51 L 1150.06 209.06 L 1154.23 205.14 L 1158.41 206.90 L 1162.58 195.76 L 1166.76 196.47 L 1170.93 192.62 L 1175.10 169.88 L 1179.28 166.54 L 1183.45 137.66 L 1187.63 134.51 L 1191.80 172.47 L 1195.98 207.99 L 1200.15 196.93 L 1204.33 189.42 L 1208.50 209.44 L 1212.68 206.68 L 1216.85 202.15 L 1221.03 198.85 L 1225.20 187.20 L 1229.38 187.50 L 1233.55 193.27 L 1237.73 186.29 L 1241.90 173.09 L 1246.08 172.01 L 1250.25 165.46 L 1254.43 143.35 L 1258.60 166.60 L 1262.78 169.67 L 1266.95 170.71 L 1271.13 183.12 L 1275.30 181.31 L 1279.48 185.41 L 1283.65 181.97 L 1287.83 184.89 L 1292.00 190.41" fill="none" stroke="#1d4ed8" stroke-width="2"  />
<path d="M 98.00 435.07 L 102.17 436.27 L 106.35 435.01 L 110.52 433.41 L 114.70 429.62 L 118.87 432.04 L 123.05 431.35 L 127.22 431.32 L 131.40 427.16 L 135.57 424.97 L 139.75 427.46 L 143.92 423.76 L 148.10 423.20 L 152.27 424.83 L 156.45 425.64 L 160.62 425.51 L 164.80 427.06 L 168.97 425.11 L 173.15 425.37 L 177.32 423.69 L 181.50 422.09 L 185.67 419.55 L 189.85 419.04 L 194.02 418.70 L 198.20 420.25 L 202.37 421.47 L 206.55 420.54 L 210.72 425.11 L 214.90 426.40 L 219.07 425.12 L 223.24 424.43 L 227.42 425.02 L 231.59 425.47 L 235.77 427.57 L 239.94 426.65 L 244.12 427.80 L 248.29 430.33 L 252.47 425.98 L 256.64 424.96 L 260.82 423.31 L 264.99 420.60 L 269.17 417.62 L 273.34 415.51 L 277.52 414.65 L 281.69 414.97 L 285.87 413.78 L 290.04 411.10 L 294.22 412.95 L 298.39 410.28 L 302.57 409.95 L 306.74 410.97 L 310.92 415.35 L 315.09 411.95 L 319.27 411.06 L 323.44 412.22 L 327.62 414.44 L 331.79 414.21 L 335.97 415.71 L 340.14 415.89 L 344.31 418.11 L 348.49 422.20 L 352.66 438.59 L 356.84 438.18 L 361.01 435.80 L 365.19 429.64 L 369.36 427.71 L 373.54 423.52 L 377.71 424.68 L 381.89 424.63 L 386.06 425.67 L 390.24 425.72 L 394.41 418.87 L 398.59 419.87 L 402.76 423.04 L 406.94 423.96 L 411.11 423.85 L 415.29 424.61 L 419.46 425.16 L 423.64 425.33 L 427.81 421.03 L 431.99 420.33 L 436.16 421.71 L 440.34 422.32 L 444.51 420.76 L 448.69 420.16 L 452.86 418.73 L 457.03 421.22 L 461.21 421.58 L 465.38 422.24 L 469.56 421.22 L 473.73 416.70 L 477.91 418.45 L 482.08 418.48 L 486.26 418.63 L 490.43 422.58 L 494.61 422.44 L 498.78 421.91 L 502.96 423.03 L 507.13 420.33 L 511.31 417.87 L 515.48 418.81 L 519.66 416.64 L 523.83 416.30 L 528.01 415.61 L 532.18 411.82 L 536.36 409.32 L 540.53 409.20 L 544.71 410.20 L 548.88 409.99 L 553.06 410.89 L 557.23 414.32 L 561.41 415.18 L 565.58 413.51 L 569.76 412.25 L 573.93 410.44 L 578.10 409.74 L 582.28 405.38 L 586.45 405.20 L 590.63 401.72 L 594.80 399.96 L 598.98 399.48 L 603.15 402.46 L 607.33 403.80 L 611.50 402.20 L 615.68 406.67 L 619.85 403.88 L 624.03 399.85 L 628.20 399.02 L 632.38 401.12 L 636.55 401.65 L 640.73 400.40 L 644.90 395.15 L 649.08 388.92 L 653.25 384.03 L 657.43 383.60 L 661.60 377.41 L 665.78 377.66 L 669.95 378.38 L 674.13 378.50 L 678.30 380.84 L 682.48 388.41 L 686.65 389.07 L 690.83 385.48 L 695.00 384.41 L 699.17 381.45 L 703.35 378.21 L 707.52 374.90 L 711.70 374.26 L 715.87 374.87 L 720.05 370.07 L 724.22 372.03 L 728.40 366.47 L 732.57 365.71 L 736.75 366.60 L 740.92 364.14 L 745.10 365.13 L 749.27 361.33 L 753.45 348.76 L 757.62 350.05 L 761.80 351.60 L 765.97 347.21 L 770.15 339.40 L 774.32 330.50 L 778.50 333.21 L 782.67 335.16 L 786.85 344.67 L 791.02 333.15 L 795.20 333.59 L 799.37 331.40 L 803.55 333.98 L 807.72 328.57 L 811.90 322.69 L 816.07 324.93 L 820.24 327.90 L 824.42 327.93 L 828.59 337.12 L 832.77 333.69 L 836.94 331.11 L 841.12 332.82 L 845.29 329.07 L 849.47 324.07 L 853.64 322.76 L 857.82 311.18 L 861.99 299.63 L 866.17 277.39 L 870.34 284.15 L 874.52 275.45 L 878.69 286.78 L 882.87 283.91 L 887.04 290.22 L 891.22 296.14 L 895.39 299.75 L 899.57 295.74 L 903.74 299.68 L 907.92 296.31 L 912.09 290.64 L 916.27 283.78 L 920.44 292.32 L 924.62 278.28 L 928.79 275.37 L 932.97 283.25 L 937.14 288.05 L 941.31 297.66 L 945.49 295.20 L 949.66 285.53 L 953.84 283.63 L 958.01 282.58 L 962.19 287.31 L 966.36 285.93 L 970.54 274.22 L 974.71 280.87 L 978.89 283.72 L 983.06 290.80 L 987.24 283.36 L 991.41 286.50 L 995.59 302.78 L 999.76 303.85 L 1003.94 297.42 L 1008.11 297.64 L 1012.29 296.85 L 1016.46 291.83 L 1020.64 282.47 L 1024.81 286.77 L 1028.99 284.65 L 1033.16 283.27 L 1037.34 274.57 L 1041.51 273.25 L 1045.69 283.23 L 1049.86 280.35 L 1054.03 282.85 L 1058.21 278.56 L 1062.38 281.53 L 1066.56 289.66 L 1070.73 280.17 L 1074.91 280.21 L 1079.08 273.89 L 1083.26 265.77 L 1087.43 264.02 L 1091.61 263.08 L 1095.78 265.28 L 1099.96 255.48 L 1104.13 261.63 L 1108.31 255.92 L 1112.48 252.10 L 1116.66 242.13 L 1120.83 226.62 L 1125.01 224.41 L 1129.18 230.32 L 1133.36 219.44 L 1137.53 215.35 L 1141.71 211.29 L 1145.88 207.57 L 1150.06 202.75 L 1154.23 206.49 L 1158.41 205.70 L 1162.58 203.50 L 1166.76 193.59 L 1170.93 195.77 L 1175.10 185.14 L 1179.28 165.12 L 1183.45 165.67 L 1187.63 141.07 L 1191.80 136.99 L 1195.98 172.48 L 1200.15 203.86 L 1204.33 188.83 L 1208.50 188.66 L 1212.68 206.87 L 1216.85 205.37 L 1221.03 197.38 L 1225.20 196.50 L 1229.38 186.34 L 1233.55 183.50 L 1237.73 196.81 L 1241.90 184.11 L 1246.08 169.57 L 1250.25 172.36 L 1254.43 157.50 L 1258.60 144.31 L 1262.78 167.61 L 1266.95 169.37 L 1271.13 173.69 L 1275.30 181.95 L 1279.48 185.03 L 1283.65 181.79 L 1287.83 184.15 L 1292.00 186.12" fill="none" stroke="#b45309" stroke-width="2" stroke-dasharray="6 4" />
  </g>
  <g>
    <text x="54" y="538" fill="#1f2937" font-size="16" font-weight="700">B. 绝对误差（越低越好）</text>
    <line x1="98" y1="540" x2="124" y2="540" stroke="#1d4ed8" stroke-width="2"  />
      <text x="130" y="544" fill="#24312e" font-size="12">持仓分段误差</text>
<line x1="313" y1="540" x2="339" y2="540" stroke="#b45309" stroke-width="2" stroke-dasharray="6 4" />
      <text x="345" y="544" fill="#24312e" font-size="12">持仓双目标误差</text>
    <line x1="98" y1="560.00" x2="1292" y2="560.00" stroke="#d7e3df" stroke-width="1" />
      <text x="90" y="564.00" text-anchor="end" fill="#5b6b68" font-size="11">9.57%</text>
<line x1="98" y1="630.00" x2="1292" y2="630.00" stroke="#d7e3df" stroke-width="1" />
      <text x="90" y="634.00" text-anchor="end" fill="#5b6b68" font-size="11">7.18%</text>
<line x1="98" y1="700.00" x2="1292" y2="700.00" stroke="#d7e3df" stroke-width="1" />
      <text x="90" y="704.00" text-anchor="end" fill="#5b6b68" font-size="11">4.79%</text>
<line x1="98" y1="770.00" x2="1292" y2="770.00" stroke="#d7e3df" stroke-width="1" />
      <text x="90" y="774.00" text-anchor="end" fill="#5b6b68" font-size="11">2.39%</text>
<line x1="98" y1="840.00" x2="1292" y2="840.00" stroke="#d7e3df" stroke-width="1" />
      <text x="90" y="844.00" text-anchor="end" fill="#5b6b68" font-size="11">0.00%</text>
    <line x1="98.00" y1="560" x2="98.00" y2="840" stroke="#eef3f1" stroke-width="1" />
      <text x="98.00" y="868" text-anchor="middle" fill="#5b6b68" font-size="11">25-01-02</text>
<line x1="290.04" y1="560" x2="290.04" y2="840" stroke="#eef3f1" stroke-width="1" />
      <text x="290.04" y="868" text-anchor="middle" fill="#5b6b68" font-size="11">25-03-17</text>
<line x1="482.08" y1="560" x2="482.08" y2="840" stroke="#eef3f1" stroke-width="1" />
      <text x="482.08" y="868" text-anchor="middle" fill="#5b6b68" font-size="11">25-05-26</text>
<line x1="695.00" y1="560" x2="695.00" y2="840" stroke="#eef3f1" stroke-width="1" />
      <text x="695.00" y="868" text-anchor="middle" fill="#5b6b68" font-size="11">25-08-06</text>
<line x1="907.92" y1="560" x2="907.92" y2="840" stroke="#eef3f1" stroke-width="1" />
      <text x="907.92" y="868" text-anchor="middle" fill="#5b6b68" font-size="11">25-10-24</text>
<line x1="1099.96" y1="560" x2="1099.96" y2="840" stroke="#eef3f1" stroke-width="1" />
      <text x="1099.96" y="868" text-anchor="middle" fill="#5b6b68" font-size="11">25-12-29</text>
<line x1="1292.00" y1="560" x2="1292.00" y2="840" stroke="#eef3f1" stroke-width="1" />
      <text x="1292.00" y="868" text-anchor="middle" fill="#5b6b68" font-size="11">26-03-13</text>
    <line x1="1112.48" y1="560" x2="1112.48" y2="840" stroke="#f59e0b" stroke-width="1.4" stroke-dasharray="4 4" />
       <text x="1118.48" y="552" fill="#a16207" font-size="11">验证起点</text>
    <path d="M 98.00 827.48 L 102.17 836.99 L 106.35 833.26 L 110.52 839.12 L 114.70 817.35 L 118.87 837.32 L 123.05 839.35 L 127.22 821.45 L 131.40 829.46 L 135.57 812.19 L 139.75 837.72 L 143.92 839.24 L 148.10 826.16 L 152.27 839.06 L 156.45 836.87 L 160.62 823.49 L 164.80 819.50 L 168.97 832.72 L 173.15 831.68 L 177.32 835.17 L 181.50 826.57 L 185.67 831.02 L 189.85 824.26 L 194.02 817.30 L 198.20 828.61 L 202.37 831.28 L 206.55 803.81 L 210.72 825.33 L 214.90 832.11 L 219.07 832.95 L 223.24 833.39 L 227.42 839.22 L 231.59 818.69 L 235.77 831.92 L 239.94 826.13 L 244.12 816.96 L 248.29 820.88 L 252.47 830.95 L 256.64 828.39 L 260.82 824.41 L 264.99 814.69 L 269.17 808.56 L 273.34 822.35 L 277.52 833.30 L 281.69 839.03 L 285.87 823.47 L 290.04 819.94 L 294.22 830.86 L 298.39 836.20 L 302.57 838.51 L 306.74 839.22 L 310.92 811.70 L 315.09 835.90 L 319.27 829.33 L 323.44 818.38 L 327.62 832.54 L 331.79 824.24 L 335.97 834.64 L 340.14 823.85 L 344.31 818.15 L 348.49 812.47 L 352.66 831.09 L 356.84 833.83 L 361.01 836.22 L 365.19 820.16 L 369.36 810.44 L 373.54 833.57 L 377.71 838.06 L 381.89 826.85 L 386.06 823.90 L 390.24 827.63 L 394.41 836.38 L 398.59 813.76 L 402.76 824.55 L 406.94 839.42 L 411.11 833.95 L 415.29 834.64 L 419.46 838.53 L 423.64 804.00 L 427.81 832.12 L 431.99 828.78 L 436.16 834.24 L 440.34 838.81 L 444.51 839.56 L 448.69 833.87 L 452.86 823.07 L 457.03 839.32 L 461.21 831.73 L 465.38 836.84 L 469.56 836.43 L 473.73 827.48 L 477.91 837.36 L 482.08 838.80 L 486.26 802.91 L 490.43 834.88 L 494.61 838.05 L 498.78 827.64 L 502.96 822.38 L 507.13 824.49 L 511.31 830.17 L 515.48 822.49 L 519.66 834.34 L 523.83 836.32 L 528.01 830.34 L 532.18 825.16 L 536.36 839.06 L 540.53 824.66 L 544.71 838.85 L 548.88 829.93 L 553.06 806.53 L 557.23 831.16 L 561.41 834.42 L 565.58 833.46 L 569.76 830.94 L 573.93 832.98 L 578.10 809.49 L 582.28 832.28 L 586.45 818.58 L 590.63 835.99 L 594.80 836.33 L 598.98 817.43 L 603.15 824.68 L 607.33 836.06 L 611.50 793.96 L 615.68 825.28 L 619.85 811.01 L 624.03 838.13 L 628.20 825.52 L 632.38 837.89 L 636.55 835.28 L 640.73 832.46 L 644.90 807.22 L 649.08 819.99 L 653.25 838.30 L 657.43 825.82 L 661.60 837.38 L 665.78 831.24 L 669.95 838.61 L 674.13 820.45 L 678.30 816.32 L 682.48 830.54 L 686.65 815.89 L 690.83 834.75 L 695.00 822.44 L 699.17 829.07 L 703.35 835.44 L 707.52 827.78 L 711.70 831.87 L 715.87 790.97 L 720.05 823.64 L 724.22 835.58 L 728.40 839.54 L 732.57 833.81 L 736.75 824.75 L 740.92 828.24 L 745.10 822.56 L 749.27 819.46 L 753.45 826.90 L 757.62 827.57 L 761.80 815.35 L 765.97 825.10 L 770.15 834.53 L 774.32 825.79 L 778.50 823.70 L 782.67 779.03 L 786.85 803.41 L 791.02 823.28 L 795.20 816.24 L 799.37 830.19 L 803.55 806.58 L 807.72 830.15 L 811.90 817.82 L 816.07 833.41 L 820.24 832.79 L 824.42 826.02 L 828.59 819.15 L 832.77 828.20 L 836.94 832.10 L 841.12 831.61 L 845.29 789.55 L 849.47 839.32 L 853.64 836.90 L 857.82 835.70 L 861.99 787.78 L 866.17 825.38 L 870.34 795.67 L 874.52 812.77 L 878.69 805.94 L 882.87 822.86 L 887.04 822.47 L 891.22 825.25 L 895.39 829.94 L 899.57 821.54 L 903.74 819.52 L 907.92 793.36 L 912.09 794.43 L 916.27 835.09 L 920.44 813.68 L 924.62 808.94 L 928.79 826.48 L 932.97 803.30 L 937.14 827.75 L 941.31 831.50 L 945.49 817.49 L 949.66 838.64 L 953.84 828.53 L 958.01 819.50 L 962.19 839.62 L 966.36 821.85 L 970.54 828.30 L 974.71 809.15 L 978.89 833.04 L 983.06 819.28 L 987.24 834.18 L 991.41 825.30 L 995.59 821.60 L 999.76 829.28 L 1003.94 836.97 L 1008.11 838.59 L 1012.29 810.19 L 1016.46 783.72 L 1020.64 816.93 L 1024.81 832.76 L 1028.99 838.05 L 1033.16 807.33 L 1037.34 837.25 L 1041.51 818.21 L 1045.69 825.45 L 1049.86 825.67 L 1054.03 818.43 L 1058.21 824.58 L 1062.38 818.97 L 1066.56 826.66 L 1070.73 833.50 L 1074.91 838.07 L 1079.08 806.48 L 1083.26 838.60 L 1087.43 835.73 L 1091.61 827.55 L 1095.78 832.59 L 1099.96 830.71 L 1104.13 837.35 L 1108.31 827.36 L 1112.48 833.97 L 1116.66 839.98 L 1120.83 830.81 L 1125.01 810.16 L 1129.18 816.13 L 1133.36 836.22 L 1137.53 831.38 L 1141.71 809.99 L 1145.88 826.37 L 1150.06 832.17 L 1154.23 826.68 L 1158.41 831.73 L 1162.58 832.71 L 1166.76 831.69 L 1170.93 808.54 L 1175.10 818.79 L 1179.28 823.47 L 1183.45 805.99 L 1187.63 833.51 L 1191.80 835.39 L 1195.98 826.82 L 1200.15 796.52 L 1204.33 834.55 L 1208.50 833.01 L 1212.68 836.06 L 1216.85 817.35 L 1221.03 839.50 L 1225.20 836.02 L 1229.38 817.06 L 1233.55 800.83 L 1237.73 838.41 L 1241.90 826.52 L 1246.08 824.36 L 1250.25 806.65 L 1254.43 835.15 L 1258.60 825.11 L 1262.78 832.36 L 1266.95 816.84 L 1271.13 838.55 L 1275.30 805.02 L 1279.48 826.80 L 1283.65 816.98 L 1287.83 825.87 L 1292.00 781.14" fill="none" stroke="#1d4ed8" stroke-width="2"  />
<path d="M 98.00 811.33 L 102.17 832.51 L 106.35 830.98 L 110.52 793.22 L 114.70 795.27 L 118.87 838.95 L 123.05 826.77 L 127.22 794.45 L 131.40 816.71 L 135.57 791.35 L 139.75 799.62 L 143.92 839.90 L 148.10 809.75 L 152.27 819.34 L 156.45 834.27 L 160.62 807.50 L 164.80 821.84 L 168.97 823.37 L 173.15 828.83 L 177.32 830.04 L 181.50 817.34 L 185.67 839.03 L 189.85 834.89 L 194.02 811.08 L 198.20 812.34 L 202.37 831.53 L 206.55 768.85 L 210.72 811.73 L 214.90 832.34 L 219.07 839.63 L 223.24 822.61 L 227.42 826.12 L 231.59 800.68 L 235.77 836.38 L 239.94 817.26 L 244.12 788.18 L 248.29 789.76 L 252.47 836.18 L 256.64 830.07 L 260.82 814.03 L 264.99 812.85 L 269.17 821.00 L 273.34 837.93 L 277.52 825.08 L 281.69 836.48 L 285.87 813.08 L 290.04 803.34 L 294.22 814.75 L 298.39 836.15 L 302.57 823.23 L 306.74 769.52 L 310.92 805.95 L 315.09 836.98 L 319.27 816.91 L 323.44 801.62 L 327.62 834.86 L 331.79 810.54 L 335.97 830.36 L 340.14 804.14 L 344.31 791.51 L 348.49 590.00 L 352.66 833.91 L 356.84 822.84 L 361.01 763.59 L 365.19 826.10 L 369.36 790.13 L 373.54 815.11 L 377.71 831.73 L 381.89 815.56 L 386.06 822.58 L 390.24 756.30 L 394.41 819.81 L 398.59 787.06 L 402.76 817.51 L 406.94 833.37 L 411.11 820.19 L 415.29 823.87 L 419.46 824.29 L 423.64 791.34 L 427.81 838.60 L 431.99 812.64 L 436.16 820.02 L 440.34 829.24 L 444.51 836.72 L 448.69 827.17 L 452.86 797.32 L 457.03 827.01 L 461.21 821.03 L 465.38 839.12 L 469.56 787.28 L 473.73 807.35 L 477.91 830.32 L 482.08 832.07 L 486.26 777.53 L 490.43 831.39 L 494.61 839.14 L 498.78 813.10 L 502.96 815.58 L 507.13 815.79 L 511.31 816.31 L 515.48 821.11 L 519.66 835.26 L 523.83 834.86 L 528.01 802.29 L 532.18 817.66 L 536.36 833.28 L 540.53 817.27 L 544.71 833.39 L 548.88 821.34 L 553.06 786.38 L 557.23 816.29 L 561.41 828.96 L 565.58 834.66 L 569.76 827.48 L 573.93 836.20 L 578.10 794.16 L 582.28 829.93 L 586.45 808.36 L 590.63 828.27 L 594.80 838.97 L 598.98 796.18 L 603.15 811.07 L 607.33 825.42 L 611.50 771.18 L 615.68 817.02 L 619.85 802.15 L 624.03 837.15 L 628.20 805.83 L 632.38 822.12 L 636.55 839.68 L 640.73 791.10 L 644.90 779.64 L 649.08 792.03 L 653.25 828.22 L 657.43 779.32 L 661.60 828.91 L 665.78 822.61 L 669.95 829.45 L 674.13 811.19 L 678.30 742.19 L 682.48 819.42 L 686.65 808.02 L 690.83 838.64 L 695.00 818.42 L 699.17 816.12 L 703.35 814.91 L 707.52 838.33 L 711.70 820.81 L 715.87 795.05 L 720.05 805.17 L 724.22 789.66 L 728.40 839.94 L 732.57 819.51 L 736.75 822.39 L 740.92 816.56 L 745.10 818.35 L 749.27 721.64 L 753.45 818.79 L 757.62 812.54 L 761.80 810.32 L 765.97 779.95 L 770.15 762.24 L 774.32 804.11 L 778.50 817.71 L 782.67 724.78 L 786.85 739.38 L 791.02 824.81 L 795.20 825.50 L 799.37 802.46 L 803.55 801.98 L 807.72 795.09 L 811.90 812.21 L 816.07 802.33 L 820.24 837.48 L 824.42 736.27 L 828.59 819.60 L 832.77 823.69 L 836.94 811.12 L 841.12 816.99 L 845.29 802.84 L 849.47 834.07 L 853.64 752.22 L 857.82 765.34 L 861.99 660.89 L 866.17 764.60 L 870.34 772.30 L 874.52 735.05 L 878.69 821.72 L 882.87 780.66 L 887.04 783.24 L 891.22 796.00 L 895.39 813.09 L 899.57 792.62 L 903.74 822.78 L 907.92 805.57 L 912.09 786.32 L 916.27 748.77 L 920.44 739.04 L 924.62 820.71 L 928.79 766.84 L 932.97 796.92 L 937.14 746.98 L 941.31 835.91 L 945.49 770.54 L 949.66 834.55 L 953.84 837.28 L 958.01 790.63 L 962.19 832.47 L 966.36 750.62 L 970.54 775.22 L 974.71 814.23 L 978.89 762.96 L 983.06 785.94 L 987.24 815.57 L 991.41 691.54 L 995.59 815.90 L 999.76 794.24 L 1003.94 828.25 L 1008.11 834.59 L 1012.29 811.57 L 1016.46 769.00 L 1020.64 792.97 L 1024.81 832.57 L 1028.99 837.90 L 1033.16 780.46 L 1037.34 832.30 L 1041.51 746.27 L 1045.69 824.29 L 1049.86 807.83 L 1054.03 812.78 L 1058.21 811.28 L 1062.38 755.29 L 1066.56 771.74 L 1070.73 825.87 L 1074.91 802.84 L 1079.08 787.64 L 1083.26 836.74 L 1087.43 839.51 L 1091.61 806.55 L 1095.78 768.43 L 1099.96 777.78 L 1104.13 807.23 L 1108.31 825.83 L 1112.48 784.22 L 1116.66 739.59 L 1120.83 830.49 L 1125.01 783.43 L 1129.18 775.71 L 1133.36 823.38 L 1137.53 819.67 L 1141.71 828.44 L 1145.88 812.72 L 1150.06 804.85 L 1154.23 835.85 L 1158.41 839.86 L 1162.58 781.56 L 1166.76 812.53 L 1170.93 788.06 L 1175.10 724.01 L 1179.28 814.58 L 1183.45 708.17 L 1187.63 808.30 L 1191.80 621.75 L 1195.98 612.42 L 1200.15 751.18 L 1204.33 838.43 L 1208.50 705.33 L 1212.68 837.33 L 1216.85 795.94 L 1221.03 830.67 L 1225.20 783.53 L 1229.38 824.58 L 1233.55 735.65 L 1237.73 773.31 L 1241.90 757.41 L 1246.08 808.94 L 1250.25 764.33 L 1254.43 760.95 L 1258.60 685.96 L 1262.78 819.46 L 1266.95 808.38 L 1271.13 777.81 L 1275.30 809.15 L 1279.48 829.25 L 1283.65 815.80 L 1287.83 821.04 L 1292.00 752.54" fill="none" stroke="#b45309" stroke-width="2" stroke-dasharray="6 4" />
  </g>
</svg>