<?xml version="1.0" encoding="UTF-8"?>
<svg xmlns="http://www.w3.org/2000/svg" width="1360" height="980" viewBox="0 0 1360 980">
  <defs>
    <linearGradient id="bg" x1="0" y1="0" x2="1" y2="1">
      <stop offset="0%" stop-color="#f4efe6" />
      <stop offset="100%" stop-color="#eef5f2" />
    </linearGradient>
  </defs>
  <rect x="0" y="0" width="1360" height="980" fill="url(#bg)" />
  <text x="46" y="36" fill="#1f2937" font-size="31" font-weight="700">160216 离线研究图（持仓逐日估值版）</text>
  <text x="46" y="66" fill="#5b6b68" font-size="13">历史前十大持仓 + 持仓逐日涨跌幅 + USDCNY；双目标 lambda=0.10；披露期数 43；覆盖率均值 92.1%</text>
  <g>
    <text x="54" y="110" fill="#1f2937" font-size="16" font-weight="700">A. 净值拟合（同日对齐，无平移）</text>
    <line x1="98" y1="112" x2="124" y2="112" stroke="#0f766e" stroke-width="2"  />
      <text x="130" y="116" fill="#24312e" font-size="12">真实净值</text>
<line x1="313" y1="112" x2="339" y2="112" stroke="#1d4ed8" stroke-width="2"  />
      <text x="345" y="116" fill="#24312e" font-size="12">持仓分段估值</text>
<line x1="528" y1="112" x2="554" y2="112" stroke="#b45309" stroke-width="2" stroke-dasharray="6 4" />
      <text x="560" y="116" fill="#24312e" font-size="12">持仓双目标估值</text>
    <line x1="98" y1="132.00" x2="1292" y2="132.00" stroke="#d7e3df" stroke-width="1" />
      <text x="90" y="136.00" text-anchor="end" fill="#5b6b68" font-size="11">0.821</text>
<line x1="98" y1="209.50" x2="1292" y2="209.50" stroke="#d7e3df" stroke-width="1" />
      <text x="90" y="213.50" text-anchor="end" fill="#5b6b68" font-size="11">0.742</text>
<line x1="98" y1="287.00" x2="1292" y2="287.00" stroke="#d7e3df" stroke-width="1" />
      <text x="90" y="291.00" text-anchor="end" fill="#5b6b68" font-size="11">0.662</text>
<line x1="98" y1="364.50" x2="1292" y2="364.50" stroke="#d7e3df" stroke-width="1" />
      <text x="90" y="368.50" text-anchor="end" fill="#5b6b68" font-size="11">0.583</text>
<line x1="98" y1="442.00" x2="1292" y2="442.00" stroke="#d7e3df" stroke-width="1" />
      <text x="90" y="446.00" text-anchor="end" fill="#5b6b68" font-size="11">0.503</text>
    <line x1="98.00" y1="132" x2="98.00" y2="442" stroke="#eef3f1" stroke-width="1" />
      <text x="98.00" y="470" text-anchor="middle" fill="#5b6b68" font-size="11">25-01-02</text>
<line x1="290.72" y1="132" x2="290.72" y2="442" stroke="#eef3f1" stroke-width="1" />
      <text x="290.72" y="470" text-anchor="middle" fill="#5b6b68" font-size="11">25-03-17</text>
<line x1="479.24" y1="132" x2="479.24" y2="442" stroke="#eef3f1" stroke-width="1" />
      <text x="479.24" y="470" text-anchor="middle" fill="#5b6b68" font-size="11">25-05-23</text>
<line x1="697.09" y1="132" x2="697.09" y2="442" stroke="#eef3f1" stroke-width="1" />
      <text x="697.09" y="470" text-anchor="middle" fill="#5b6b68" font-size="11">25-08-06</text>
<line x1="910.76" y1="132" x2="910.76" y2="442" stroke="#eef3f1" stroke-width="1" />
      <text x="910.76" y="470" text-anchor="middle" fill="#5b6b68" font-size="11">25-10-24</text>
<line x1="1099.28" y1="132" x2="1099.28" y2="442" stroke="#eef3f1" stroke-width="1" />
      <text x="1099.28" y="470" text-anchor="middle" fill="#5b6b68" font-size="11">25-12-26</text>
<line x1="1292.00" y1="132" x2="1292.00" y2="442" stroke="#eef3f1" stroke-width="1" />
      <text x="1292.00" y="470" text-anchor="middle" fill="#5b6b68" font-size="11">26-03-12</text>
    <line x1="1116.04" y1="132" x2="1116.04" y2="442" stroke="#f59e0b" stroke-width="1.4" stroke-dasharray="4 4" />
       <text x="1122.04" y="124" fill="#a16207" font-size="11">验证起点</text>
    <path d="M 98.00 433.69 L 102.19 433.69 L 106.38 435.65 L 110.57 431.74 L 114.76 431.74 L 118.95 431.74 L 123.14 421.98 L 127.33 423.93 L 131.52 422.96 L 135.71 414.17 L 139.89 417.10 L 144.08 419.05 L 148.27 419.05 L 152.46 421.01 L 156.65 422.96 L 160.84 426.86 L 165.03 425.89 L 169.22 432.72 L 173.41 425.89 L 177.60 427.84 L 181.79 424.91 L 185.98 416.12 L 190.17 416.12 L 194.36 420.03 L 198.55 417.10 L 202.74 422.96 L 206.93 422.96 L 211.12 418.08 L 215.31 417.10 L 219.49 415.15 L 223.68 423.93 L 227.87 421.98 L 232.06 427.84 L 236.25 427.84 L 240.44 428.81 L 244.63 429.79 L 248.82 426.86 L 253.01 424.91 L 257.20 425.89 L 261.39 427.84 L 265.58 427.84 L 269.77 432.72 L 273.96 427.84 L 278.15 425.89 L 282.34 419.05 L 286.53 420.03 L 290.72 416.12 L 294.91 413.20 L 299.09 411.24 L 303.28 410.27 L 307.47 413.20 L 311.66 415.15 L 315.85 413.20 L 320.04 414.17 L 324.23 411.24 L 328.42 411.24 L 332.61 405.39 L 336.80 406.36 L 340.99 405.39 L 345.18 415.15 L 349.37 422.96 L 353.56 425.89 L 357.75 411.24 L 361.94 415.15 L 366.13 405.39 L 370.32 406.36 L 374.51 404.41 L 378.69 392.70 L 382.88 395.63 L 387.07 395.63 L 391.26 383.91 L 395.45 385.87 L 399.64 393.67 L 403.83 388.79 L 408.02 390.75 L 412.21 385.87 L 416.40 385.87 L 420.59 390.75 L 424.78 380.99 L 428.97 385.87 L 433.16 394.65 L 437.35 396.60 L 441.54 402.46 L 445.73 404.41 L 449.92 413.20 L 454.11 408.32 L 458.29 413.20 L 462.48 408.32 L 466.67 401.48 L 470.86 398.56 L 475.05 402.46 L 479.24 391.72 L 483.43 392.70 L 487.62 400.51 L 491.81 402.46 L 496.00 399.53 L 500.19 401.48 L 504.38 403.44 L 508.57 401.48 L 512.76 401.48 L 516.95 405.39 L 521.14 402.46 L 525.33 403.44 L 529.52 398.56 L 533.71 394.65 L 537.89 383.91 L 542.08 388.79 L 546.27 383.91 L 550.46 383.91 L 554.65 384.89 L 558.84 385.87 L 563.03 391.72 L 567.22 401.48 L 571.41 399.53 L 575.60 397.58 L 579.79 405.39 L 583.98 401.48 L 588.17 399.53 L 592.36 394.65 L 596.55 396.60 L 600.74 396.60 L 604.93 398.56 L 609.12 400.51 L 613.31 401.48 L 617.49 399.53 L 621.68 395.63 L 625.87 398.56 L 630.06 401.48 L 634.25 399.53 L 638.44 399.53 L 642.63 397.58 L 646.82 392.70 L 651.01 388.79 L 655.20 392.70 L 659.39 395.63 L 663.58 400.51 L 667.77 402.46 L 671.96 399.53 L 676.15 409.29 L 680.34 409.29 L 684.53 402.46 L 688.72 397.58 L 692.91 395.63 L 697.09 393.67 L 701.28 389.77 L 705.47 389.77 L 709.66 394.65 L 713.85 395.63 L 718.04 394.65 L 722.23 398.56 L 726.42 398.56 L 730.61 398.56 L 734.80 402.46 L 738.99 398.56 L 743.18 399.53 L 747.37 392.70 L 751.56 394.65 L 755.75 391.72 L 759.94 391.72 L 764.13 388.79 L 768.32 380.99 L 772.51 380.99 L 776.69 370.25 L 780.88 367.32 L 785.07 372.20 L 789.26 366.34 L 793.45 360.49 L 797.64 364.39 L 801.83 361.46 L 806.02 357.56 L 810.21 356.58 L 814.40 350.73 L 818.59 352.68 L 822.78 357.56 L 826.97 358.54 L 831.16 349.75 L 835.35 340.97 L 839.54 339.99 L 843.73 341.94 L 847.92 336.09 L 852.11 332.18 L 856.29 325.35 L 860.48 325.35 L 864.67 307.78 L 868.86 311.68 L 873.05 296.07 L 877.24 295.09 L 881.43 284.35 L 885.62 274.59 L 889.81 296.07 L 894.00 281.42 L 898.19 321.44 L 902.38 319.49 L 906.57 317.54 L 910.76 319.49 L 914.95 332.18 L 919.14 335.11 L 923.33 334.13 L 927.52 326.32 L 931.71 329.25 L 935.89 331.21 L 940.08 341.94 L 944.27 336.09 L 948.46 335.11 L 952.65 331.21 L 956.84 316.56 L 961.03 313.64 L 965.22 304.85 L 969.41 312.66 L 973.60 321.44 L 977.79 328.28 L 981.98 323.40 L 986.17 322.42 L 990.36 329.25 L 994.55 331.21 L 998.74 320.47 L 1002.93 321.44 L 1007.12 311.68 L 1011.31 311.68 L 1015.49 298.99 L 1019.68 296.07 L 1023.87 298.99 L 1028.06 298.99 L 1032.25 298.99 L 1036.44 297.04 L 1040.63 301.92 L 1044.82 302.90 L 1049.01 299.97 L 1053.20 295.09 L 1057.39 298.02 L 1061.58 296.07 L 1065.77 298.02 L 1069.96 290.21 L 1074.15 292.16 L 1078.34 287.28 L 1082.53 274.59 L 1086.72 268.74 L 1090.91 269.71 L 1095.09 270.69 L 1099.28 263.85 L 1103.47 281.42 L 1107.66 277.52 L 1111.85 282.40 L 1116.04 261.90 L 1120.23 253.12 L 1124.42 263.85 L 1128.61 263.85 L 1132.80 258.97 L 1136.99 246.29 L 1141.18 246.29 L 1145.37 234.57 L 1149.56 241.40 L 1153.75 249.21 L 1157.94 249.21 L 1162.13 227.74 L 1166.32 219.93 L 1170.51 206.27 L 1174.69 189.67 L 1178.88 176.98 L 1183.07 161.37 L 1187.26 140.87 L 1191.45 135.99 L 1195.64 190.65 L 1199.83 216.03 L 1204.02 189.67 L 1208.21 192.60 L 1212.40 216.03 L 1216.59 196.50 L 1220.78 175.03 L 1224.97 183.82 L 1229.16 175.03 L 1233.35 196.50 L 1237.54 185.77 L 1241.73 170.15 L 1245.92 171.13 L 1250.11 167.22 L 1254.29 155.51 L 1258.48 149.65 L 1262.67 176.01 L 1266.86 175.03 L 1271.05 176.98 L 1275.24 149.65 L 1279.43 163.32 L 1283.62 162.34 L 1287.81 160.39 L 1292.00 151.60" fill="none" stroke="#0f766e" stroke-width="2"  />
<path d="M 98.00 434.61 L 102.19 435.12 L 106.38 433.52 L 110.57 433.09 L 114.76 426.61 L 118.95 431.07 L 123.14 431.33 L 127.33 421.91 L 131.52 419.53 L 135.71 419.56 L 139.89 412.55 L 144.08 417.01 L 148.27 419.25 L 152.46 419.01 L 156.65 422.94 L 160.84 422.60 L 165.03 425.84 L 169.22 428.90 L 173.41 412.10 L 177.60 426.95 L 181.79 427.03 L 185.98 420.52 L 190.17 420.71 L 194.36 413.39 L 198.55 419.10 L 202.74 422.55 L 206.93 424.26 L 211.12 422.12 L 215.31 419.58 L 219.49 415.41 L 223.68 419.35 L 227.87 426.38 L 232.06 424.15 L 236.25 426.59 L 240.44 431.20 L 244.63 429.37 L 248.82 428.36 L 253.01 425.29 L 257.20 419.65 L 261.39 427.33 L 265.58 428.36 L 269.77 431.65 L 273.96 428.46 L 278.15 426.58 L 282.34 421.17 L 286.53 419.63 L 290.72 416.98 L 294.91 414.66 L 299.09 411.39 L 303.28 411.53 L 307.47 411.81 L 311.66 414.22 L 315.85 412.42 L 320.04 415.40 L 324.23 412.60 L 328.42 412.74 L 332.61 409.90 L 336.80 405.40 L 340.99 406.24 L 345.18 406.98 L 349.37 437.80 L 353.56 424.06 L 357.75 404.11 L 361.94 404.77 L 366.13 408.50 L 370.32 400.56 L 374.51 406.31 L 378.69 400.26 L 382.88 394.28 L 387.07 395.27 L 391.26 394.61 L 395.45 388.00 L 399.64 392.90 L 403.83 389.96 L 408.02 391.77 L 412.21 386.81 L 416.40 388.38 L 420.59 388.65 L 424.78 382.40 L 428.97 384.25 L 433.16 389.16 L 437.35 391.31 L 441.54 409.47 L 445.73 401.89 L 449.92 408.27 L 454.11 410.90 L 458.29 411.38 L 462.48 408.85 L 466.67 402.91 L 470.86 400.40 L 475.05 399.93 L 479.24 396.42 L 483.43 386.33 L 487.62 391.83 L 491.81 401.11 L 496.00 402.17 L 500.19 399.70 L 504.38 393.95 L 508.57 401.79 L 512.76 403.13 L 516.95 405.89 L 521.14 404.74 L 525.33 403.36 L 529.52 402.93 L 533.71 394.50 L 537.89 393.24 L 542.08 382.30 L 546.27 388.69 L 550.46 384.07 L 554.65 382.57 L 558.84 383.90 L 563.03 383.47 L 567.22 398.28 L 571.41 400.41 L 575.60 397.06 L 579.79 402.09 L 583.98 405.41 L 588.17 400.13 L 592.36 397.10 L 596.55 395.64 L 600.74 395.79 L 604.93 395.88 L 609.12 403.30 L 613.31 399.32 L 617.49 399.76 L 621.68 398.13 L 625.87 395.64 L 630.06 400.32 L 634.25 400.49 L 638.44 400.44 L 642.63 398.42 L 646.82 392.58 L 651.01 388.26 L 655.20 391.92 L 659.39 394.48 L 663.58 396.38 L 667.77 405.12 L 671.96 401.39 L 676.15 410.48 L 680.34 409.13 L 684.53 406.16 L 688.72 397.14 L 692.91 394.72 L 697.09 392.90 L 701.28 391.11 L 705.47 389.45 L 709.66 391.67 L 713.85 393.82 L 718.04 395.57 L 722.23 395.64 L 726.42 397.46 L 730.61 399.60 L 734.80 401.49 L 738.99 399.05 L 743.18 397.25 L 747.37 397.83 L 751.56 391.14 L 755.75 391.66 L 759.94 392.05 L 764.13 391.15 L 768.32 384.26 L 772.51 378.41 L 776.69 379.67 L 780.88 367.19 L 785.07 368.97 L 789.26 366.81 L 793.45 362.83 L 797.64 360.84 L 801.83 360.23 L 806.02 358.47 L 810.21 356.71 L 814.40 353.30 L 818.59 352.83 L 822.78 355.36 L 826.97 358.15 L 831.16 350.89 L 835.35 342.63 L 839.54 340.59 L 843.73 342.88 L 847.92 339.68 L 852.11 332.05 L 856.29 325.38 L 860.48 322.65 L 864.67 319.54 L 868.86 307.40 L 873.05 301.01 L 877.24 298.02 L 881.43 288.83 L 885.62 275.24 L 889.81 285.67 L 894.00 292.47 L 898.19 308.35 L 902.38 321.07 L 906.57 317.39 L 910.76 318.95 L 914.95 325.96 L 919.14 333.39 L 923.33 337.02 L 927.52 331.11 L 931.71 327.74 L 935.89 330.21 L 940.08 339.95 L 944.27 337.06 L 948.46 335.99 L 952.65 331.29 L 956.84 322.24 L 961.03 315.93 L 965.22 306.67 L 969.41 310.07 L 973.60 316.26 L 977.79 325.30 L 981.98 328.57 L 986.17 320.01 L 990.36 327.90 L 994.55 328.99 L 998.74 323.56 L 1002.93 320.69 L 1007.12 314.43 L 1011.31 310.97 L 1015.49 311.23 L 1019.68 294.11 L 1023.87 297.96 L 1028.06 298.67 L 1032.25 298.43 L 1036.44 297.99 L 1040.63 297.67 L 1044.82 298.78 L 1049.01 300.99 L 1053.20 294.78 L 1057.39 297.67 L 1061.58 298.94 L 1065.77 296.44 L 1069.96 294.74 L 1074.15 290.26 L 1078.34 287.09 L 1082.53 279.63 L 1086.72 271.04 L 1090.91 270.11 L 1095.09 268.67 L 1099.28 269.76 L 1103.47 273.66 L 1107.66 278.53 L 1111.85 279.54 L 1116.04 273.49 L 1120.23 253.77 L 1124.42 258.25 L 1128.61 263.37 L 1132.80 260.91 L 1136.99 249.67 L 1141.18 245.92 L 1145.37 243.19 L 1149.56 235.84 L 1153.75 243.43 L 1157.94 248.15 L 1162.13 248.69 L 1166.32 224.83 L 1170.51 208.12 L 1174.69 197.75 L 1178.88 180.33 L 1183.07 168.39 L 1187.26 147.56 L 1191.45 140.97 L 1195.64 188.22 L 1199.83 207.69 L 1204.02 189.69 L 1208.21 190.56 L 1212.40 208.06 L 1216.59 198.75 L 1220.78 179.33 L 1224.97 177.17 L 1229.16 177.23 L 1233.35 196.73 L 1237.54 183.21 L 1241.73 168.60 L 1245.92 170.25 L 1250.11 168.24 L 1254.29 162.32 L 1258.48 151.40 L 1262.67 171.75 L 1266.86 172.73 L 1271.05 184.70 L 1275.24 175.81 L 1279.43 136.63 L 1283.62 159.54 L 1287.81 163.79 L 1292.00 164.80" fill="none" stroke="#1d4ed8" stroke-width="2"  />
<path d="M 98.00 439.53 L 102.19 433.27 L 106.38 433.19 L 110.57 434.93 L 114.76 430.90 L 118.95 429.26 L 123.14 429.26 L 127.33 421.70 L 131.52 423.07 L 135.71 422.16 L 139.89 413.54 L 144.08 416.56 L 148.27 416.51 L 152.46 416.51 L 156.65 420.53 L 160.84 422.42 L 165.03 426.12 L 169.22 425.74 L 173.41 430.76 L 177.60 425.25 L 181.79 427.19 L 185.98 423.89 L 190.17 415.86 L 194.36 415.33 L 198.55 419.19 L 202.74 417.10 L 206.93 420.44 L 211.12 420.44 L 215.31 417.61 L 219.49 416.26 L 223.68 415.07 L 227.87 423.36 L 232.06 421.71 L 236.25 427.15 L 240.44 427.79 L 244.63 428.36 L 248.82 429.12 L 253.01 426.11 L 257.20 423.66 L 261.39 425.47 L 265.58 427.29 L 269.77 427.77 L 273.96 431.63 L 278.15 427.15 L 282.34 424.80 L 286.53 418.39 L 290.72 419.12 L 294.91 415.37 L 299.09 412.45 L 303.28 410.76 L 307.47 409.99 L 311.66 412.67 L 315.85 414.26 L 320.04 412.80 L 324.23 413.42 L 328.42 410.76 L 332.61 410.59 L 336.80 404.88 L 340.99 405.80 L 345.18 405.32 L 349.37 416.52 L 353.56 422.62 L 357.75 423.66 L 361.94 410.19 L 366.13 413.66 L 370.32 404.66 L 374.51 405.71 L 378.69 403.23 L 382.88 392.28 L 387.07 392.97 L 391.26 392.97 L 395.45 383.57 L 399.64 385.69 L 403.83 392.60 L 408.02 388.58 L 412.21 389.92 L 416.40 385.56 L 420.59 385.60 L 424.78 389.13 L 428.97 380.94 L 433.16 385.62 L 437.35 393.64 L 441.54 396.86 L 445.73 401.73 L 449.92 404.30 L 454.11 412.31 L 458.29 408.08 L 462.48 412.26 L 466.67 407.24 L 470.86 400.72 L 475.05 398.13 L 479.24 401.21 L 483.43 389.05 L 487.62 390.03 L 491.81 399.95 L 496.00 401.83 L 500.19 398.97 L 504.38 400.12 L 508.57 402.72 L 512.76 400.88 L 516.95 401.35 L 521.14 404.63 L 525.33 401.99 L 529.52 402.82 L 533.71 397.57 L 537.89 393.90 L 542.08 383.53 L 546.27 388.26 L 550.46 383.42 L 554.65 381.20 L 558.84 382.18 L 563.03 385.03 L 567.22 391.48 L 571.41 400.85 L 575.60 398.57 L 579.79 397.54 L 583.98 404.48 L 588.17 400.79 L 592.36 398.66 L 596.55 394.16 L 600.74 393.95 L 604.93 393.95 L 609.12 398.21 L 613.31 399.75 L 617.49 400.73 L 621.68 398.81 L 625.87 395.14 L 630.06 398.21 L 634.25 400.84 L 638.44 399.08 L 642.63 398.87 L 646.82 396.43 L 651.01 391.65 L 655.20 388.38 L 659.39 392.34 L 663.58 395.18 L 667.77 400.33 L 671.96 401.80 L 676.15 400.00 L 680.34 408.76 L 684.53 408.42 L 688.72 401.39 L 692.91 396.80 L 697.09 394.82 L 701.28 392.83 L 705.47 389.09 L 709.66 389.48 L 713.85 393.87 L 718.04 395.01 L 722.23 394.21 L 726.42 397.89 L 730.61 398.07 L 734.80 398.34 L 738.99 401.51 L 743.18 397.83 L 747.37 398.59 L 751.56 392.14 L 755.75 393.75 L 759.94 391.21 L 764.13 391.02 L 768.32 387.74 L 772.51 378.26 L 776.69 378.26 L 780.88 369.47 L 785.07 366.95 L 789.26 371.18 L 793.45 365.44 L 797.64 359.94 L 801.83 363.49 L 806.02 360.53 L 810.21 356.89 L 814.40 355.62 L 818.59 350.32 L 822.78 352.35 L 826.97 357.03 L 831.16 357.26 L 835.35 348.64 L 839.54 340.30 L 843.73 339.43 L 847.92 341.14 L 852.11 335.18 L 856.29 330.92 L 860.48 324.51 L 864.67 323.94 L 868.86 307.37 L 873.05 309.86 L 877.24 295.62 L 881.43 293.73 L 885.62 283.00 L 889.81 274.97 L 894.00 294.52 L 898.19 282.80 L 902.38 320.68 L 906.57 318.56 L 910.76 316.98 L 914.95 319.49 L 919.14 331.43 L 923.33 334.43 L 927.52 333.15 L 931.71 325.84 L 935.89 328.80 L 940.08 331.42 L 944.27 340.78 L 948.46 335.40 L 952.65 334.13 L 956.84 329.57 L 961.03 315.84 L 965.22 312.34 L 969.41 304.67 L 973.60 312.37 L 977.79 321.23 L 981.98 327.56 L 986.17 322.50 L 990.36 322.36 L 994.55 328.49 L 998.74 329.72 L 1002.93 319.76 L 1007.12 320.04 L 1011.31 308.61 L 1015.49 308.61 L 1019.68 298.28 L 1023.87 295.64 L 1028.06 298.09 L 1032.25 298.32 L 1036.44 298.24 L 1040.63 296.65 L 1044.82 300.97 L 1049.01 301.86 L 1053.20 298.68 L 1057.39 294.55 L 1061.58 297.37 L 1065.77 295.42 L 1069.96 297.02 L 1074.15 289.54 L 1078.34 291.08 L 1082.53 285.88 L 1086.72 273.56 L 1090.91 268.15 L 1095.09 266.43 L 1099.28 267.41 L 1103.47 264.70 L 1107.66 280.46 L 1111.85 277.09 L 1116.04 280.46 L 1120.23 260.44 L 1124.42 252.97 L 1128.61 263.07 L 1132.80 262.74 L 1136.99 257.40 L 1141.18 245.53 L 1145.37 245.13 L 1149.56 234.01 L 1153.75 240.91 L 1157.94 245.83 L 1162.13 245.83 L 1166.32 226.84 L 1170.51 218.48 L 1174.69 204.75 L 1178.88 188.54 L 1183.07 175.47 L 1187.26 159.50 L 1191.45 140.05 L 1195.64 139.24 L 1199.83 190.63 L 1204.02 213.32 L 1208.21 189.22 L 1212.40 193.36 L 1216.59 213.85 L 1220.78 194.37 L 1224.97 174.49 L 1229.16 182.33 L 1233.35 175.98 L 1237.54 194.68 L 1241.73 183.40 L 1245.92 169.16 L 1250.11 169.90 L 1254.29 165.93 L 1258.48 154.70 L 1262.67 150.98 L 1266.86 174.86 L 1271.05 175.19 L 1275.24 176.06 L 1279.43 148.57 L 1283.62 162.14 L 1287.81 161.83 L 1292.00 160.31" fill="none" stroke="#b45309" stroke-width="2" stroke-dasharray="6 4" />
  </g>
  <g>
    <text x="54" y="538" fill="#1f2937" font-size="16" font-weight="700">B. 绝对误差（越低越好）</text>
    <line x1="98" y1="540" x2="124" y2="540" stroke="#1d4ed8" stroke-width="2"  />
      <text x="130" y="544" fill="#24312e" font-size="12">持仓分段误差</text>
<line x1="313" y1="540" x2="339" y2="540" stroke="#b45309" stroke-width="2" stroke-dasharray="6 4" />
      <text x="345" y="544" fill="#24312e" font-size="12">持仓双目标误差</text>
    <line x1="98" y1="560.00" x2="1292" y2="560.00" stroke="#d7e3df" stroke-width="1" />
      <text x="90" y="564.00" text-anchor="end" fill="#5b6b68" font-size="11">7.75%</text>
<line x1="98" y1="630.00" x2="1292" y2="630.00" stroke="#d7e3df" stroke-width="1" />
      <text x="90" y="634.00" text-anchor="end" fill="#5b6b68" font-size="11">5.81%</text>
<line x1="98" y1="700.00" x2="1292" y2="700.00" stroke="#d7e3df" stroke-width="1" />
      <text x="90" y="704.00" text-anchor="end" fill="#5b6b68" font-size="11">3.88%</text>
<line x1="98" y1="770.00" x2="1292" y2="770.00" stroke="#d7e3df" stroke-width="1" />
      <text x="90" y="774.00" text-anchor="end" fill="#5b6b68" font-size="11">1.94%</text>
<line x1="98" y1="840.00" x2="1292" y2="840.00" stroke="#d7e3df" stroke-width="1" />
      <text x="90" y="844.00" text-anchor="end" fill="#5b6b68" font-size="11">0.00%</text>
    <line x1="98.00" y1="560" x2="98.00" y2="840" stroke="#eef3f1" stroke-width="1" />
      <text x="98.00" y="868" text-anchor="middle" fill="#5b6b68" font-size="11">25-01-02</text>
<line x1="290.72" y1="560" x2="290.72" y2="840" stroke="#eef3f1" stroke-width="1" />
      <text x="290.72" y="868" text-anchor="middle" fill="#5b6b68" font-size="11">25-03-17</text>
<line x1="479.24" y1="560" x2="479.24" y2="840" stroke="#eef3f1" stroke-width="1" />
      <text x="479.24" y="868" text-anchor="middle" fill="#5b6b68" font-size="11">25-05-23</text>
<line x1="697.09" y1="560" x2="697.09" y2="840" stroke="#eef3f1" stroke-width="1" />
      <text x="697.09" y="868" text-anchor="middle" fill="#5b6b68" font-size="11">25-08-06</text>
<line x1="910.76" y1="560" x2="910.76" y2="840" stroke="#eef3f1" stroke-width="1" />
      <text x="910.76" y="868" text-anchor="middle" fill="#5b6b68" font-size="11">25-10-24</text>
<line x1="1099.28" y1="560" x2="1099.28" y2="840" stroke="#eef3f1" stroke-width="1" />
      <text x="1099.28" y="868" text-anchor="middle" fill="#5b6b68" font-size="11">25-12-26</text>
<line x1="1292.00" y1="560" x2="1292.00" y2="840" stroke="#eef3f1" stroke-width="1" />
      <text x="1292.00" y="868" text-anchor="middle" fill="#5b6b68" font-size="11">26-03-12</text>
    <line x1="1116.04" y1="560" x2="1116.04" y2="840" stroke="#f59e0b" stroke-width="1.4" stroke-dasharray="4 4" />
       <text x="1122.04" y="552" fill="#a16207" font-size="11">验证起点</text>
    <path d="M 98.00 833.40 L 102.19 829.69 L 106.38 824.61 L 110.57 830.28 L 114.76 803.03 L 118.95 835.15 L 123.14 773.99 L 127.33 825.62 L 131.52 815.77 L 135.71 802.51 L 139.89 808.19 L 144.08 825.64 L 148.27 838.64 L 152.46 825.92 L 156.65 839.87 L 160.84 809.63 L 165.03 839.71 L 169.22 812.44 L 173.41 741.91 L 177.60 833.68 L 181.79 824.96 L 185.98 809.31 L 190.17 807.98 L 194.36 793.31 L 198.55 826.04 L 202.74 837.13 L 206.93 830.78 L 211.12 811.68 L 215.31 822.64 L 219.49 838.21 L 223.68 807.54 L 227.87 808.94 L 232.06 813.66 L 236.25 831.07 L 240.44 822.92 L 244.63 836.99 L 248.82 829.30 L 253.01 837.33 L 257.20 795.62 L 261.39 836.39 L 265.58 836.25 L 269.77 832.30 L 273.96 835.56 L 278.15 835.08 L 282.34 825.11 L 286.53 837.18 L 290.72 834.02 L 294.91 829.83 L 299.09 839.00 L 303.28 831.30 L 307.47 830.34 L 311.66 833.55 L 315.85 834.60 L 320.04 831.49 L 324.23 830.61 L 328.42 829.62 L 332.61 809.16 L 336.80 833.39 L 340.99 834.14 L 345.18 783.09 L 349.37 734.99 L 353.56 827.01 L 357.75 790.62 L 361.94 767.66 L 366.13 818.70 L 370.32 800.22 L 374.51 827.03 L 378.69 789.53 L 382.88 830.97 L 387.07 837.58 L 391.26 769.72 L 395.45 825.90 L 399.64 834.85 L 403.83 832.26 L 408.02 833.19 L 412.21 833.78 L 416.40 823.42 L 420.59 826.05 L 424.78 830.78 L 428.97 829.31 L 433.16 803.19 L 437.35 804.41 L 441.54 792.31 L 445.73 822.80 L 449.92 805.78 L 454.11 822.24 L 458.29 827.39 L 462.48 836.33 L 466.67 830.31 L 470.86 827.57 L 475.05 822.82 L 479.24 808.70 L 483.43 797.47 L 487.62 781.20 L 491.81 830.81 L 496.00 822.16 L 500.19 827.89 L 504.38 775.39 L 508.57 837.90 L 512.76 828.83 L 516.95 836.57 L 521.14 824.48 L 525.33 839.50 L 529.52 810.45 L 533.71 838.96 L 537.89 778.72 L 542.08 796.90 L 546.27 808.63 L 550.46 838.97 L 554.65 824.69 L 558.84 827.03 L 563.03 784.96 L 567.22 818.23 L 571.41 834.05 L 575.60 836.48 L 579.79 817.43 L 583.98 813.36 L 588.17 835.92 L 592.36 823.56 L 596.55 833.53 L 600.74 834.52 L 604.93 821.93 L 609.12 821.07 L 613.31 825.30 L 617.49 838.42 L 621.68 823.17 L 625.87 820.32 L 630.06 832.12 L 634.25 833.53 L 638.44 833.88 L 642.63 834.33 L 646.82 839.23 L 651.01 836.44 L 655.20 834.77 L 659.39 832.30 L 663.58 812.06 L 667.77 821.90 L 671.96 827.41 L 676.15 831.80 L 680.34 838.87 L 684.53 814.83 L 688.72 837.06 L 692.91 833.90 L 697.09 834.84 L 701.28 831.13 L 705.47 837.90 L 709.66 820.02 L 713.85 827.83 L 718.04 833.87 L 722.23 820.35 L 726.42 832.63 L 730.61 832.94 L 734.80 833.42 L 738.99 836.62 L 743.18 824.55 L 747.37 805.76 L 751.56 816.43 L 755.75 839.55 L 759.94 837.81 L 764.13 824.39 L 768.32 818.59 L 772.51 823.13 L 776.69 779.57 L 780.88 839.14 L 785.07 819.21 L 789.26 837.05 L 793.45 825.22 L 797.64 817.43 L 801.83 832.20 L 806.02 834.27 L 810.21 839.19 L 814.40 824.06 L 818.59 839.07 L 822.78 826.21 L 826.97 837.61 L 831.16 832.96 L 835.35 829.85 L 839.54 836.33 L 843.73 834.25 L 847.92 818.28 L 852.11 839.24 L 856.29 839.80 L 860.48 823.97 L 864.67 772.09 L 868.86 815.14 L 873.05 811.98 L 877.24 823.44 L 881.43 815.08 L 885.62 836.43 L 889.81 781.09 L 894.00 778.81 L 898.19 762.74 L 902.38 830.70 L 906.57 839.11 L 910.76 836.80 L 914.95 802.64 L 919.14 829.64 L 923.33 822.61 L 927.52 811.51 L 931.71 830.97 L 935.89 834.03 L 940.08 827.86 L 944.27 834.13 L 948.46 834.67 L 952.65 839.47 L 956.84 806.76 L 961.03 826.64 L 965.22 829.57 L 969.41 824.92 L 973.60 809.39 L 977.79 822.22 L 981.98 809.38 L 986.17 825.73 L 990.36 831.90 L 994.55 826.69 L 998.74 821.77 L 1002.93 835.54 L 1007.12 824.05 L 1011.31 835.88 L 1015.49 770.34 L 1019.68 828.92 L 1023.87 834.10 L 1028.06 838.15 L 1032.25 836.81 L 1036.44 834.61 L 1040.63 815.67 L 1044.82 816.43 L 1049.01 834.18 L 1053.20 838.25 L 1057.39 838.03 L 1061.58 823.72 L 1065.77 831.01 L 1069.96 814.58 L 1074.15 829.28 L 1078.34 838.91 L 1082.53 812.37 L 1086.72 827.45 L 1090.91 837.82 L 1095.09 829.03 L 1099.28 808.14 L 1103.47 796.96 L 1107.66 834.41 L 1111.85 824.10 L 1116.04 777.70 L 1120.23 836.56 L 1124.42 809.74 L 1128.61 837.40 L 1132.80 829.65 L 1136.99 822.19 L 1141.18 838.06 L 1145.37 795.44 L 1149.56 810.95 L 1153.75 809.46 L 1157.94 834.41 L 1162.13 732.77 L 1166.32 815.22 L 1170.51 830.79 L 1174.69 800.78 L 1178.88 824.01 L 1183.07 807.16 L 1187.26 809.51 L 1191.45 817.43 L 1195.64 828.18 L 1199.83 798.05 L 1204.02 839.91 L 1208.21 830.04 L 1212.40 799.87 L 1216.59 829.00 L 1220.78 819.50 L 1224.97 808.00 L 1229.16 829.52 L 1233.35 838.89 L 1237.54 827.63 L 1241.73 832.68 L 1245.92 835.84 L 1250.11 835.21 L 1254.29 808.37 L 1258.48 831.94 L 1262.67 819.72 L 1266.86 829.04 L 1271.05 803.14 L 1275.24 719.46 L 1279.43 714.84 L 1283.62 826.87 L 1287.81 824.13 L 1292.00 779.03" fill="none" stroke="#1d4ed8" stroke-width="2"  />
<path d="M 98.00 797.82 L 102.19 836.95 L 106.38 822.17 L 110.57 817.03 L 114.76 833.95 L 118.95 822.16 L 123.14 788.56 L 127.33 824.15 L 131.52 839.18 L 135.71 784.47 L 139.89 815.09 L 144.08 822.52 L 148.27 822.17 L 152.46 808.34 L 156.65 822.83 L 160.84 808.30 L 165.03 838.35 L 169.22 789.66 L 173.41 805.32 L 177.60 821.54 L 181.79 823.81 L 185.98 785.81 L 190.17 838.17 L 194.36 806.95 L 198.55 825.41 L 202.74 798.59 L 206.93 822.16 L 211.12 823.46 L 215.31 836.46 L 219.49 832.22 L 223.68 777.17 L 227.87 830.30 L 232.06 796.22 L 236.25 835.07 L 240.44 832.67 L 244.63 829.76 L 248.82 823.87 L 253.01 831.46 L 257.20 824.18 L 261.39 823.08 L 265.58 836.09 L 269.77 804.34 L 273.96 812.88 L 278.15 830.98 L 282.34 799.66 L 286.53 828.50 L 290.72 819.07 L 294.91 824.94 L 299.09 831.66 L 303.28 836.61 L 307.47 817.76 L 311.66 822.75 L 315.85 832.60 L 320.04 830.48 L 324.23 824.98 L 328.42 836.65 L 332.61 804.42 L 336.80 829.85 L 340.99 837.19 L 345.18 771.53 L 349.37 794.48 L 353.56 816.74 L 357.75 754.12 L 361.94 805.47 L 366.13 783.40 L 370.32 828.34 L 374.51 831.12 L 378.69 769.65 L 382.88 817.50 L 387.07 822.16 L 391.26 780.47 L 395.45 824.83 L 399.64 786.58 L 403.83 814.74 L 408.02 825.55 L 412.21 813.26 L 416.40 837.98 L 420.59 805.76 L 424.78 786.74 L 428.97 807.49 L 433.16 779.48 L 437.35 820.08 L 441.54 801.88 L 445.73 821.71 L 449.92 778.22 L 454.11 812.55 L 458.29 804.46 L 462.48 812.88 L 466.67 800.93 L 470.86 825.40 L 475.05 810.57 L 479.24 776.72 L 483.43 815.61 L 487.62 768.98 L 491.81 822.95 L 496.00 824.44 L 500.19 822.95 L 504.38 817.43 L 508.57 831.60 L 512.76 835.88 L 516.95 812.38 L 521.14 825.26 L 525.33 830.13 L 529.52 811.20 L 533.71 820.45 L 537.89 774.34 L 542.08 805.06 L 546.27 811.41 L 550.46 836.77 L 554.65 815.71 L 558.84 815.69 L 563.03 795.38 L 567.22 772.06 L 571.41 831.07 L 575.60 833.33 L 579.79 786.32 L 583.98 819.68 L 588.17 831.47 L 592.36 813.09 L 596.55 823.59 L 600.74 822.16 L 604.93 808.92 L 609.12 824.44 L 613.31 828.25 L 617.49 831.86 L 621.68 818.63 L 625.87 816.93 L 630.06 817.77 L 634.25 831.12 L 638.44 836.96 L 642.63 831.33 L 646.82 815.08 L 651.01 821.08 L 655.20 811.19 L 659.39 817.90 L 663.58 803.87 L 667.77 825.55 L 671.96 824.64 L 676.15 776.00 L 680.34 836.36 L 684.53 799.47 L 688.72 814.33 L 692.91 832.12 L 697.09 832.34 L 701.28 819.67 L 705.47 835.48 L 709.66 805.32 L 713.85 828.23 L 718.04 837.58 L 722.23 810.64 L 726.42 835.49 L 730.61 836.75 L 734.80 811.99 L 738.99 820.08 L 743.18 828.52 L 747.37 800.63 L 751.56 823.16 L 755.75 826.49 L 759.94 836.57 L 764.13 825.26 L 768.32 795.83 L 772.51 822.16 L 776.69 788.64 L 780.88 826.31 L 785.07 806.20 L 789.26 809.20 L 793.45 808.78 L 797.64 811.76 L 801.83 827.23 L 806.02 821.35 L 810.21 838.09 L 814.40 809.65 L 818.59 825.34 L 822.78 807.34 L 826.97 830.53 L 831.16 793.55 L 835.35 793.24 L 839.54 838.09 L 843.73 824.69 L 847.92 809.44 L 852.11 821.96 L 856.29 806.90 L 860.48 834.99 L 864.67 746.71 L 868.86 814.94 L 873.05 761.80 L 877.24 837.01 L 881.43 787.81 L 885.62 793.90 L 889.81 720.48 L 894.00 767.44 L 898.19 611.94 L 902.38 832.98 L 906.57 834.00 L 910.76 825.22 L 914.95 763.75 L 919.14 817.80 L 923.33 838.20 L 927.52 799.42 L 931.71 819.58 L 935.89 825.55 L 940.08 775.76 L 944.27 811.63 L 948.46 838.24 L 952.65 822.46 L 956.84 763.83 L 961.03 827.17 L 965.22 796.95 L 969.41 793.54 L 973.60 786.47 L 977.79 797.93 L 981.98 815.37 L 986.17 839.54 L 990.36 798.79 L 994.55 823.69 L 998.74 785.50 L 1002.93 830.04 L 1007.12 791.45 L 1011.31 822.16 L 1015.49 785.24 L 1019.68 827.45 L 1023.87 820.92 L 1028.06 834.85 L 1032.25 836.14 L 1036.44 833.19 L 1040.63 809.86 L 1044.82 828.97 L 1049.01 829.22 L 1053.20 819.66 L 1057.39 820.31 L 1061.58 832.62 L 1065.77 825.25 L 1069.96 801.73 L 1074.15 825.22 L 1078.34 818.77 L 1082.53 778.13 L 1086.72 813.78 L 1090.91 831.50 L 1095.09 816.82 L 1099.28 820.80 L 1103.47 747.36 L 1107.66 823.82 L 1111.85 810.56 L 1116.04 740.19 L 1120.23 801.15 L 1124.42 781.29 L 1128.61 835.77 L 1132.80 819.86 L 1136.99 781.58 L 1141.18 836.03 L 1145.37 785.43 L 1149.56 801.41 L 1153.75 796.17 L 1157.94 822.16 L 1162.13 747.39 L 1166.32 805.02 L 1170.51 779.32 L 1174.69 766.76 L 1178.88 784.80 L 1183.07 774.01 L 1187.26 755.08 L 1191.45 821.58 L 1195.64 590.00 L 1199.83 712.14 L 1204.02 725.17 L 1208.21 823.52 L 1212.40 725.89 L 1216.59 755.00 L 1220.78 747.91 L 1224.97 795.07 L 1229.16 805.22 L 1233.35 739.41 L 1237.54 796.96 L 1241.73 777.30 L 1245.92 830.66 L 1250.11 827.37 L 1254.29 791.63 L 1258.48 816.75 L 1262.67 720.66 L 1266.86 839.18 L 1271.05 831.45 L 1275.24 718.33 L 1279.43 770.83 L 1283.62 839.08 L 1287.81 833.29 L 1292.00 799.76" fill="none" stroke="#b45309" stroke-width="2" stroke-dasharray="6 4" />
  </g>
</svg>