<?xml version="1.0" encoding="UTF-8"?>
<svg xmlns="http://www.w3.org/2000/svg" width="1360" height="980" viewBox="0 0 1360 980">
  <defs>
    <linearGradient id="bg" x1="0" y1="0" x2="1" y2="1">
      <stop offset="0%" stop-color="#f4efe6" />
      <stop offset="100%" stop-color="#eef5f2" />
    </linearGradient>
  </defs>
  <rect x="0" y="0" width="1360" height="980" fill="url(#bg)" />
  <text x="46" y="36" fill="#1f2937" font-size="31" font-weight="700">160416 离线研究图（持仓逐日估值版）</text>
  <text x="46" y="66" fill="#5b6b68" font-size="13">历史前十大持仓 + 持仓逐日涨跌幅 + USDCNY；双目标 lambda=0.10；披露期数 43；覆盖率均值 92.1%</text>
  <g>
    <text x="54" y="110" fill="#1f2937" font-size="16" font-weight="700">A. 净值拟合（同日对齐，无平移）</text>
    <line x1="98" y1="112" x2="124" y2="112" stroke="#0f766e" stroke-width="2"  />
      <text x="130" y="116" fill="#24312e" font-size="12">真实净值</text>
<line x1="313" y1="112" x2="339" y2="112" stroke="#1d4ed8" stroke-width="2"  />
      <text x="345" y="116" fill="#24312e" font-size="12">持仓分段估值</text>
<line x1="528" y1="112" x2="554" y2="112" stroke="#b45309" stroke-width="2" stroke-dasharray="6 4" />
      <text x="560" y="116" fill="#24312e" font-size="12">持仓双目标估值</text>
    <line x1="98" y1="132.00" x2="1292" y2="132.00" stroke="#d7e3df" stroke-width="1" />
      <text x="90" y="136.00" text-anchor="end" fill="#5b6b68" font-size="11">2.101</text>
<line x1="98" y1="209.50" x2="1292" y2="209.50" stroke="#d7e3df" stroke-width="1" />
      <text x="90" y="213.50" text-anchor="end" fill="#5b6b68" font-size="11">1.941</text>
<line x1="98" y1="287.00" x2="1292" y2="287.00" stroke="#d7e3df" stroke-width="1" />
      <text x="90" y="291.00" text-anchor="end" fill="#5b6b68" font-size="11">1.780</text>
<line x1="98" y1="364.50" x2="1292" y2="364.50" stroke="#d7e3df" stroke-width="1" />
      <text x="90" y="368.50" text-anchor="end" fill="#5b6b68" font-size="11">1.620</text>
<line x1="98" y1="442.00" x2="1292" y2="442.00" stroke="#d7e3df" stroke-width="1" />
      <text x="90" y="446.00" text-anchor="end" fill="#5b6b68" font-size="11">1.460</text>
    <line x1="98.00" y1="132" x2="98.00" y2="442" stroke="#eef3f1" stroke-width="1" />
      <text x="98.00" y="470" text-anchor="middle" fill="#5b6b68" font-size="11">25-01-02</text>
<line x1="290.72" y1="132" x2="290.72" y2="442" stroke="#eef3f1" stroke-width="1" />
      <text x="290.72" y="470" text-anchor="middle" fill="#5b6b68" font-size="11">25-03-17</text>
<line x1="479.24" y1="132" x2="479.24" y2="442" stroke="#eef3f1" stroke-width="1" />
      <text x="479.24" y="470" text-anchor="middle" fill="#5b6b68" font-size="11">25-05-23</text>
<line x1="697.09" y1="132" x2="697.09" y2="442" stroke="#eef3f1" stroke-width="1" />
      <text x="697.09" y="470" text-anchor="middle" fill="#5b6b68" font-size="11">25-08-06</text>
<line x1="910.76" y1="132" x2="910.76" y2="442" stroke="#eef3f1" stroke-width="1" />
      <text x="910.76" y="470" text-anchor="middle" fill="#5b6b68" font-size="11">25-10-24</text>
<line x1="1099.28" y1="132" x2="1099.28" y2="442" stroke="#eef3f1" stroke-width="1" />
      <text x="1099.28" y="470" text-anchor="middle" fill="#5b6b68" font-size="11">25-12-26</text>
<line x1="1292.00" y1="132" x2="1292.00" y2="442" stroke="#eef3f1" stroke-width="1" />
      <text x="1292.00" y="470" text-anchor="middle" fill="#5b6b68" font-size="11">26-03-12</text>
    <line x1="1116.04" y1="132" x2="1116.04" y2="442" stroke="#f59e0b" stroke-width="1.4" stroke-dasharray="4 4" />
       <text x="1122.04" y="124" fill="#a16207" font-size="11">验证起点</text>
    <path d="M 98.00 362.81 L 102.19 359.47 L 106.38 359.13 L 110.57 349.40 L 114.76 348.58 L 118.95 349.11 L 123.14 347.37 L 127.33 339.10 L 131.52 335.66 L 135.71 327.53 L 139.89 323.32 L 144.08 318.10 L 148.27 319.12 L 152.46 323.71 L 156.65 332.66 L 160.84 331.89 L 165.03 339.48 L 169.22 347.71 L 173.41 343.94 L 177.60 349.84 L 181.79 349.89 L 185.98 337.50 L 190.17 331.02 L 194.36 340.60 L 198.55 337.79 L 202.74 334.99 L 206.93 334.31 L 211.12 329.23 L 215.31 325.16 L 219.49 321.15 L 223.68 332.08 L 227.87 333.49 L 232.06 342.29 L 236.25 344.23 L 240.44 343.84 L 244.63 339.19 L 248.82 357.48 L 253.01 368.32 L 257.20 373.06 L 261.39 371.18 L 265.58 359.03 L 269.77 356.08 L 273.96 359.08 L 278.15 354.10 L 282.34 355.21 L 286.53 342.00 L 290.72 331.60 L 294.91 326.66 L 299.09 315.00 L 303.28 311.91 L 307.47 315.58 L 311.66 310.75 L 315.85 306.29 L 320.04 301.79 L 324.23 307.12 L 328.42 313.36 L 332.61 308.04 L 336.80 306.25 L 340.99 304.07 L 345.18 350.85 L 349.37 422.07 L 353.56 435.38 L 357.75 408.33 L 361.94 431.51 L 366.13 416.08 L 370.32 408.04 L 374.51 405.14 L 378.69 399.33 L 382.88 385.79 L 387.07 385.30 L 391.26 394.30 L 395.45 382.98 L 399.64 384.29 L 403.83 379.69 L 408.02 378.43 L 412.21 374.08 L 416.40 375.14 L 420.59 387.63 L 424.78 387.24 L 428.97 386.37 L 433.16 380.37 L 437.35 374.47 L 441.54 358.21 L 445.73 352.31 L 449.92 354.77 L 454.11 354.68 L 458.29 353.76 L 462.48 361.45 L 466.67 364.60 L 470.86 371.66 L 475.05 377.03 L 479.24 375.68 L 483.43 374.18 L 487.62 368.27 L 491.81 373.21 L 496.00 371.90 L 500.19 374.03 L 504.38 357.00 L 508.57 366.92 L 512.76 366.97 L 516.95 357.10 L 521.14 358.50 L 525.33 346.98 L 529.52 339.00 L 533.71 333.97 L 537.89 320.47 L 542.08 322.79 L 546.27 313.89 L 550.46 319.89 L 554.65 318.87 L 558.84 315.83 L 563.03 330.58 L 567.22 342.39 L 571.41 345.63 L 575.60 336.68 L 579.79 336.24 L 583.98 340.11 L 588.17 336.00 L 592.36 326.03 L 596.55 325.89 L 600.74 326.03 L 604.93 334.74 L 609.12 320.52 L 613.31 323.28 L 617.49 318.34 L 621.68 315.54 L 625.87 321.29 L 630.06 329.37 L 634.25 335.66 L 638.44 334.07 L 642.63 334.31 L 646.82 342.82 L 651.01 339.24 L 655.20 329.57 L 659.39 328.50 L 663.58 331.99 L 667.77 324.97 L 671.96 320.03 L 676.15 328.89 L 680.34 333.00 L 684.53 343.26 L 688.72 341.37 L 692.91 338.08 L 697.09 337.89 L 701.28 340.65 L 705.47 337.94 L 709.66 341.32 L 713.85 336.44 L 718.04 333.10 L 722.23 331.60 L 726.42 330.87 L 730.61 335.28 L 734.80 333.97 L 738.99 330.58 L 743.18 327.39 L 747.37 316.94 L 751.56 316.07 L 755.75 320.23 L 759.94 313.60 L 764.13 310.26 L 768.32 309.58 L 772.51 308.23 L 776.69 305.81 L 780.88 318.68 L 785.07 316.60 L 789.26 327.34 L 793.45 327.92 L 797.64 322.84 L 801.83 314.86 L 806.02 316.45 L 810.21 319.70 L 814.40 320.28 L 818.59 309.87 L 822.78 308.62 L 826.97 311.42 L 831.16 320.47 L 835.35 321.24 L 839.54 312.10 L 843.73 302.08 L 847.92 299.04 L 852.11 294.92 L 856.29 306.83 L 860.48 315.44 L 864.67 319.31 L 868.86 341.52 L 873.05 336.34 L 877.24 338.76 L 881.43 336.97 L 885.62 339.29 L 889.81 336.78 L 894.00 329.91 L 898.19 332.57 L 902.38 325.02 L 906.57 315.20 L 910.76 319.45 L 914.95 318.00 L 919.14 323.66 L 923.33 318.44 L 927.52 320.81 L 931.71 320.42 L 935.89 319.26 L 940.08 325.21 L 944.27 323.37 L 948.46 319.45 L 952.65 311.52 L 956.84 303.15 L 961.03 291.30 L 965.22 297.68 L 969.41 297.49 L 973.60 288.05 L 977.79 296.04 L 981.98 294.30 L 986.17 297.49 L 990.36 301.55 L 994.55 303.54 L 998.74 306.00 L 1002.93 308.23 L 1007.12 303.29 L 1011.31 303.83 L 1015.49 294.05 L 1019.68 289.46 L 1023.87 298.60 L 1028.06 288.59 L 1032.25 284.62 L 1036.44 288.49 L 1040.63 293.76 L 1044.82 293.42 L 1049.01 292.84 L 1053.20 295.12 L 1057.39 300.58 L 1061.58 303.87 L 1065.77 325.21 L 1069.96 314.76 L 1074.15 322.70 L 1078.34 319.70 L 1082.53 315.05 L 1086.72 311.08 L 1090.91 312.78 L 1095.09 314.04 L 1099.28 315.00 L 1103.47 310.50 L 1107.66 305.13 L 1111.85 308.23 L 1116.04 293.33 L 1120.23 307.07 L 1124.42 317.18 L 1128.61 308.33 L 1132.80 302.52 L 1136.99 304.36 L 1141.18 292.46 L 1145.37 278.18 L 1149.56 283.60 L 1153.75 281.23 L 1157.94 285.30 L 1162.13 287.52 L 1166.32 270.15 L 1170.51 271.12 L 1174.69 264.49 L 1178.88 262.02 L 1183.07 254.77 L 1187.26 248.04 L 1191.45 239.33 L 1195.64 236.53 L 1199.83 248.62 L 1204.02 232.27 L 1208.21 218.24 L 1212.40 227.38 L 1216.59 215.72 L 1220.78 210.06 L 1224.97 210.50 L 1229.16 190.90 L 1233.35 202.03 L 1237.54 198.88 L 1241.73 181.90 L 1245.92 186.21 L 1250.11 183.98 L 1254.29 174.60 L 1258.48 153.60 L 1262.67 162.60 L 1266.86 169.42 L 1271.05 161.97 L 1275.24 158.29 L 1279.43 153.50 L 1283.62 163.61 L 1287.81 147.02 L 1292.00 137.10" fill="none" stroke="#0f766e" stroke-width="2"  />
<path d="M 98.00 369.89 L 102.19 356.84 L 106.38 357.99 L 110.57 355.00 L 114.76 348.29 L 118.95 348.05 L 123.14 349.09 L 127.33 333.12 L 131.52 336.07 L 135.71 330.65 L 139.89 326.01 L 144.08 321.47 L 148.27 316.33 L 152.46 320.53 L 156.65 329.70 L 160.84 326.73 L 165.03 343.62 L 169.22 340.08 L 173.41 353.28 L 177.60 347.50 L 181.79 350.89 L 185.98 337.13 L 190.17 331.87 L 194.36 343.57 L 198.55 338.78 L 202.74 337.35 L 206.93 333.57 L 211.12 333.16 L 215.31 324.55 L 219.49 321.62 L 223.68 332.83 L 227.87 336.85 L 232.06 336.42 L 236.25 344.56 L 240.44 341.30 L 244.63 340.35 L 248.82 355.76 L 253.01 359.98 L 257.20 376.77 L 261.39 370.80 L 265.58 366.07 L 269.77 350.98 L 273.96 359.00 L 278.15 356.52 L 282.34 355.98 L 286.53 344.35 L 290.72 332.73 L 294.91 330.27 L 299.09 320.88 L 303.28 312.69 L 307.47 312.97 L 311.66 315.80 L 315.85 308.36 L 320.04 301.83 L 324.23 303.80 L 328.42 309.44 L 332.61 313.15 L 336.80 305.38 L 340.99 305.24 L 345.18 345.97 L 349.37 414.44 L 353.56 433.80 L 357.75 403.65 L 361.94 438.45 L 366.13 424.09 L 370.32 409.24 L 374.51 408.84 L 378.69 402.07 L 382.88 389.49 L 387.07 385.30 L 391.26 386.08 L 395.45 381.90 L 399.64 382.79 L 403.83 379.29 L 408.02 379.07 L 412.21 377.34 L 416.40 375.53 L 420.59 382.86 L 424.78 394.10 L 428.97 386.66 L 433.16 376.76 L 437.35 376.93 L 441.54 358.58 L 445.73 350.76 L 449.92 353.52 L 454.11 353.59 L 458.29 355.11 L 462.48 356.52 L 466.67 362.57 L 470.86 372.33 L 475.05 371.39 L 479.24 377.26 L 483.43 375.80 L 487.62 373.48 L 491.81 371.59 L 496.00 370.52 L 500.19 373.07 L 504.38 364.17 L 508.57 364.08 L 512.76 367.06 L 516.95 359.53 L 521.14 350.78 L 525.33 350.24 L 529.52 340.37 L 533.71 337.46 L 537.89 324.73 L 542.08 315.81 L 546.27 318.15 L 550.46 315.48 L 554.65 319.47 L 558.84 318.77 L 563.03 327.63 L 567.22 338.46 L 571.41 342.86 L 575.60 341.09 L 579.79 337.59 L 583.98 338.69 L 588.17 336.00 L 592.36 326.53 L 596.55 325.27 L 600.74 325.27 L 604.93 326.98 L 609.12 321.16 L 613.31 320.81 L 617.49 319.85 L 621.68 317.62 L 625.87 318.97 L 630.06 325.11 L 634.25 331.63 L 638.44 332.68 L 642.63 335.37 L 646.82 337.04 L 651.01 340.07 L 655.20 335.17 L 659.39 329.68 L 663.58 328.17 L 667.77 328.22 L 671.96 322.15 L 676.15 326.63 L 680.34 329.52 L 684.53 339.93 L 688.72 350.05 L 692.91 338.88 L 697.09 340.64 L 701.28 338.48 L 705.47 338.11 L 709.66 338.57 L 713.85 338.27 L 718.04 332.88 L 722.23 332.68 L 726.42 331.26 L 730.61 332.42 L 734.80 335.34 L 738.99 331.11 L 743.18 328.81 L 747.37 317.48 L 751.56 312.26 L 755.75 316.01 L 759.94 315.60 L 764.13 312.36 L 768.32 308.15 L 772.51 310.58 L 776.69 307.36 L 780.88 318.44 L 785.07 316.66 L 789.26 324.48 L 793.45 333.67 L 797.64 326.28 L 801.83 317.03 L 806.02 314.38 L 810.21 319.18 L 814.40 321.48 L 818.59 309.67 L 822.78 310.44 L 826.97 309.44 L 831.16 314.82 L 835.35 324.55 L 839.54 316.24 L 843.73 306.42 L 847.92 298.15 L 852.11 295.43 L 856.29 301.71 L 860.48 309.88 L 864.67 322.56 L 868.86 338.92 L 873.05 345.53 L 877.24 336.24 L 881.43 340.09 L 885.62 340.24 L 889.81 337.09 L 894.00 333.78 L 898.19 331.43 L 902.38 327.26 L 906.57 318.61 L 910.76 317.01 L 914.95 320.69 L 919.14 322.15 L 923.33 320.40 L 927.52 319.02 L 931.71 318.58 L 935.89 319.38 L 940.08 322.69 L 944.27 324.64 L 948.46 321.28 L 952.65 315.06 L 956.84 304.88 L 961.03 298.48 L 965.22 294.56 L 969.41 297.17 L 973.60 292.60 L 977.79 290.35 L 981.98 292.59 L 986.17 301.58 L 990.36 300.39 L 994.55 299.55 L 998.74 304.09 L 1002.93 307.53 L 1007.12 306.36 L 1011.31 302.81 L 1015.49 303.73 L 1019.68 286.79 L 1023.87 291.91 L 1028.06 294.13 L 1032.25 286.98 L 1036.44 285.09 L 1040.63 292.07 L 1044.82 292.11 L 1049.01 288.45 L 1053.20 294.95 L 1057.39 297.01 L 1061.58 304.84 L 1065.77 318.48 L 1069.96 316.48 L 1074.15 322.37 L 1078.34 322.08 L 1082.53 316.87 L 1086.72 313.77 L 1090.91 312.24 L 1095.09 312.46 L 1099.28 313.74 L 1103.47 313.40 L 1107.66 307.75 L 1111.85 306.19 L 1116.04 291.19 L 1120.23 302.87 L 1124.42 310.02 L 1128.61 303.02 L 1132.80 308.34 L 1136.99 300.56 L 1141.18 300.08 L 1145.37 281.16 L 1149.56 282.43 L 1153.75 284.33 L 1157.94 280.54 L 1162.13 285.14 L 1166.32 278.15 L 1170.51 270.89 L 1174.69 267.90 L 1178.88 262.84 L 1183.07 258.24 L 1187.26 251.41 L 1191.45 242.63 L 1195.64 235.77 L 1199.83 246.20 L 1204.02 233.48 L 1208.21 217.88 L 1212.40 225.60 L 1216.59 217.29 L 1220.78 209.09 L 1224.97 210.88 L 1229.16 197.89 L 1233.35 202.20 L 1237.54 196.87 L 1241.73 195.37 L 1245.92 182.80 L 1250.11 185.62 L 1254.29 174.10 L 1258.48 150.81 L 1262.67 153.56 L 1266.86 160.82 L 1271.05 166.84 L 1275.24 157.87 L 1279.43 156.80 L 1283.62 164.28 L 1287.81 147.11 L 1292.00 137.06" fill="none" stroke="#1d4ed8" stroke-width="2"  />
<path d="M 98.00 372.00 L 102.19 362.50 L 106.38 359.38 L 110.57 358.82 L 114.76 349.27 L 118.95 347.78 L 123.14 348.31 L 127.33 346.92 L 131.52 338.83 L 135.71 335.32 L 139.89 327.35 L 144.08 323.12 L 148.27 317.27 L 152.46 318.28 L 156.65 323.77 L 160.84 332.34 L 165.03 331.95 L 169.22 339.30 L 173.41 347.69 L 177.60 343.99 L 181.79 349.75 L 185.98 349.40 L 190.17 337.13 L 194.36 331.27 L 198.55 340.36 L 202.74 337.58 L 206.93 334.17 L 211.12 333.49 L 215.31 328.92 L 219.49 324.83 L 223.68 321.36 L 227.87 331.94 L 232.06 333.54 L 236.25 342.26 L 240.44 343.99 L 244.63 343.57 L 248.82 339.63 L 253.01 357.45 L 257.20 368.43 L 261.39 372.81 L 265.58 370.76 L 269.77 358.79 L 273.96 356.06 L 278.15 358.85 L 282.34 354.07 L 286.53 354.66 L 290.72 341.62 L 294.91 331.39 L 299.09 326.29 L 303.28 314.79 L 307.47 311.86 L 311.66 315.35 L 315.85 310.52 L 320.04 305.98 L 324.23 301.77 L 328.42 307.10 L 332.61 313.02 L 336.80 307.82 L 340.99 306.07 L 345.18 305.30 L 349.37 352.12 L 353.56 422.41 L 357.75 434.06 L 361.94 409.21 L 366.13 431.04 L 370.32 415.91 L 374.51 407.99 L 378.69 404.85 L 382.88 398.85 L 387.07 385.02 L 391.26 384.54 L 395.45 393.80 L 399.64 382.81 L 403.83 383.92 L 408.02 379.55 L 412.21 378.18 L 416.40 374.00 L 420.59 375.31 L 424.78 387.41 L 428.97 387.11 L 433.16 385.90 L 437.35 380.06 L 441.54 373.85 L 445.73 357.75 L 449.92 352.27 L 454.11 354.61 L 458.29 354.58 L 462.48 353.84 L 466.67 361.42 L 470.86 364.78 L 475.05 371.53 L 479.24 376.87 L 483.43 374.90 L 487.62 373.40 L 491.81 368.32 L 496.00 372.95 L 500.19 371.86 L 504.38 373.51 L 508.57 357.15 L 512.76 366.78 L 516.95 366.54 L 521.14 356.85 L 525.33 358.04 L 529.52 346.58 L 533.71 338.78 L 537.89 333.52 L 542.08 320.40 L 546.27 322.45 L 550.46 313.86 L 554.65 319.06 L 558.84 318.04 L 563.03 316.09 L 567.22 330.69 L 571.41 342.30 L 575.60 345.28 L 579.79 336.60 L 583.98 336.21 L 588.17 339.71 L 592.36 335.55 L 596.55 325.86 L 600.74 325.07 L 604.93 325.21 L 609.12 334.11 L 613.31 320.43 L 617.49 322.96 L 621.68 318.17 L 625.87 315.63 L 630.06 321.38 L 634.25 329.38 L 638.44 335.39 L 642.63 334.01 L 646.82 334.25 L 651.01 342.55 L 655.20 338.86 L 659.39 329.44 L 663.58 328.39 L 667.77 331.59 L 671.96 324.70 L 676.15 320.17 L 680.34 328.84 L 684.53 333.15 L 688.72 343.11 L 692.91 341.14 L 697.09 338.10 L 701.28 337.77 L 705.47 340.40 L 709.66 337.89 L 713.85 341.04 L 718.04 336.09 L 722.23 332.95 L 726.42 331.48 L 730.61 330.81 L 734.80 335.16 L 738.99 333.68 L 743.18 330.36 L 747.37 326.85 L 751.56 316.69 L 755.75 315.95 L 759.94 319.87 L 764.13 313.34 L 768.32 310.04 L 772.51 308.74 L 776.69 307.39 L 780.88 306.07 L 785.07 318.45 L 789.26 316.70 L 793.45 327.24 L 797.64 327.70 L 801.83 322.46 L 806.02 314.72 L 810.21 316.45 L 814.40 319.56 L 818.59 319.78 L 822.78 309.75 L 826.97 308.54 L 831.16 311.49 L 835.35 320.33 L 839.54 320.87 L 843.73 311.73 L 847.92 301.77 L 852.11 298.76 L 856.29 295.05 L 860.48 306.86 L 864.67 315.55 L 868.86 319.69 L 873.05 341.14 L 877.24 336.22 L 881.43 338.65 L 885.62 336.99 L 889.81 339.05 L 894.00 336.52 L 898.19 329.84 L 902.38 332.18 L 906.57 324.51 L 910.76 315.16 L 914.95 319.29 L 919.14 318.08 L 923.33 323.36 L 927.52 318.37 L 931.71 320.57 L 935.89 320.30 L 940.08 319.32 L 944.27 325.06 L 948.46 323.11 L 952.65 319.09 L 956.84 311.20 L 961.03 302.76 L 965.22 291.34 L 969.41 297.48 L 973.60 297.10 L 977.79 288.20 L 981.98 295.74 L 986.17 294.43 L 990.36 297.54 L 994.55 301.31 L 998.74 303.40 L 1002.93 305.93 L 1007.12 307.97 L 1011.31 302.45 L 1015.49 302.98 L 1019.68 293.71 L 1023.87 289.48 L 1028.06 298.21 L 1032.25 288.39 L 1036.44 284.52 L 1040.63 288.49 L 1044.82 293.55 L 1049.01 293.04 L 1053.20 292.81 L 1057.39 295.10 L 1061.58 300.56 L 1065.77 304.28 L 1069.96 324.74 L 1074.15 314.90 L 1078.34 322.54 L 1082.53 319.44 L 1086.72 314.83 L 1090.91 310.98 L 1095.09 311.94 L 1099.28 313.20 L 1103.47 314.71 L 1107.66 310.20 L 1111.85 305.06 L 1116.04 307.41 L 1120.23 293.51 L 1124.42 307.10 L 1128.61 316.53 L 1132.80 308.19 L 1136.99 302.43 L 1141.18 304.01 L 1145.37 291.90 L 1149.56 278.25 L 1153.75 283.52 L 1157.94 280.36 L 1162.13 284.43 L 1166.32 287.03 L 1170.51 270.07 L 1174.69 270.81 L 1178.88 264.39 L 1183.07 261.70 L 1187.26 254.44 L 1191.45 247.63 L 1195.64 239.05 L 1199.83 236.70 L 1204.02 247.90 L 1208.21 231.60 L 1212.40 218.37 L 1216.59 226.85 L 1220.78 215.39 L 1224.97 209.95 L 1229.16 209.84 L 1233.35 191.17 L 1237.54 201.63 L 1241.73 198.47 L 1245.92 181.81 L 1250.11 185.97 L 1254.29 183.46 L 1258.48 173.90 L 1262.67 153.52 L 1266.86 162.36 L 1271.05 169.10 L 1275.24 161.66 L 1279.43 158.18 L 1283.62 153.61 L 1287.81 162.81 L 1292.00 146.47" fill="none" stroke="#b45309" stroke-width="2" stroke-dasharray="6 4" />
  </g>
  <g>
    <text x="54" y="538" fill="#1f2937" font-size="16" font-weight="700">B. 绝对误差（越低越好）</text>
    <line x1="98" y1="540" x2="124" y2="540" stroke="#1d4ed8" stroke-width="2"  />
      <text x="130" y="544" fill="#24312e" font-size="12">持仓分段误差</text>
<line x1="313" y1="540" x2="339" y2="540" stroke="#b45309" stroke-width="2" stroke-dasharray="6 4" />
      <text x="345" y="544" fill="#24312e" font-size="12">持仓双目标误差</text>
    <line x1="98" y1="560.00" x2="1292" y2="560.00" stroke="#d7e3df" stroke-width="1" />
      <text x="90" y="564.00" text-anchor="end" fill="#5b6b68" font-size="11">10.79%</text>
<line x1="98" y1="630.00" x2="1292" y2="630.00" stroke="#d7e3df" stroke-width="1" />
      <text x="90" y="634.00" text-anchor="end" fill="#5b6b68" font-size="11">8.09%</text>
<line x1="98" y1="700.00" x2="1292" y2="700.00" stroke="#d7e3df" stroke-width="1" />
      <text x="90" y="704.00" text-anchor="end" fill="#5b6b68" font-size="11">5.39%</text>
<line x1="98" y1="770.00" x2="1292" y2="770.00" stroke="#d7e3df" stroke-width="1" />
      <text x="90" y="774.00" text-anchor="end" fill="#5b6b68" font-size="11">2.70%</text>
<line x1="98" y1="840.00" x2="1292" y2="840.00" stroke="#d7e3df" stroke-width="1" />
      <text x="90" y="844.00" text-anchor="end" fill="#5b6b68" font-size="11">0.00%</text>
    <line x1="98.00" y1="560" x2="98.00" y2="840" stroke="#eef3f1" stroke-width="1" />
      <text x="98.00" y="868" text-anchor="middle" fill="#5b6b68" font-size="11">25-01-02</text>
<line x1="290.72" y1="560" x2="290.72" y2="840" stroke="#eef3f1" stroke-width="1" />
      <text x="290.72" y="868" text-anchor="middle" fill="#5b6b68" font-size="11">25-03-17</text>
<line x1="479.24" y1="560" x2="479.24" y2="840" stroke="#eef3f1" stroke-width="1" />
      <text x="479.24" y="868" text-anchor="middle" fill="#5b6b68" font-size="11">25-05-23</text>
<line x1="697.09" y1="560" x2="697.09" y2="840" stroke="#eef3f1" stroke-width="1" />
      <text x="697.09" y="868" text-anchor="middle" fill="#5b6b68" font-size="11">25-08-06</text>
<line x1="910.76" y1="560" x2="910.76" y2="840" stroke="#eef3f1" stroke-width="1" />
      <text x="910.76" y="868" text-anchor="middle" fill="#5b6b68" font-size="11">25-10-24</text>
<line x1="1099.28" y1="560" x2="1099.28" y2="840" stroke="#eef3f1" stroke-width="1" />
      <text x="1099.28" y="868" text-anchor="middle" fill="#5b6b68" font-size="11">25-12-26</text>
<line x1="1292.00" y1="560" x2="1292.00" y2="840" stroke="#eef3f1" stroke-width="1" />
      <text x="1292.00" y="868" text-anchor="middle" fill="#5b6b68" font-size="11">26-03-12</text>
    <line x1="1116.04" y1="560" x2="1116.04" y2="840" stroke="#f59e0b" stroke-width="1.4" stroke-dasharray="4 4" />
       <text x="1122.04" y="552" fill="#a16207" font-size="11">验证起点</text>
    <path d="M 98.00 816.60 L 102.19 831.37 L 106.38 836.27 L 110.57 821.81 L 114.76 839.06 L 118.95 836.54 L 123.14 834.43 L 127.33 820.84 L 131.52 838.69 L 135.71 830.15 L 139.89 831.54 L 144.08 829.47 L 148.27 831.29 L 152.46 829.98 L 156.65 830.57 L 160.84 823.60 L 165.03 826.74 L 169.22 815.28 L 173.41 809.85 L 177.60 832.39 L 181.79 836.75 L 185.98 838.80 L 190.17 837.30 L 194.36 830.45 L 198.55 836.85 L 202.74 832.46 L 206.93 837.66 L 211.12 827.54 L 215.31 838.07 L 219.49 838.52 L 223.68 837.61 L 227.87 829.28 L 232.06 821.09 L 236.25 838.93 L 240.44 831.79 L 244.63 836.28 L 248.82 834.34 L 253.01 812.26 L 257.20 827.59 L 261.39 838.75 L 265.58 816.84 L 269.77 823.29 L 273.96 839.74 L 278.15 832.09 L 282.34 837.47 L 286.53 832.42 L 290.72 836.40 L 294.91 828.60 L 299.09 821.70 L 303.28 837.56 L 307.47 831.85 L 311.66 824.34 L 315.85 833.62 L 320.04 839.89 L 324.23 829.78 L 328.42 827.84 L 332.61 824.19 L 336.80 837.33 L 340.99 836.41 L 345.18 824.09 L 349.37 812.71 L 353.56 834.24 L 357.75 823.56 L 361.94 814.87 L 366.13 811.59 L 370.32 835.81 L 374.51 827.09 L 378.69 830.53 L 382.88 827.40 L 387.07 839.98 L 391.26 811.71 L 395.45 836.33 L 399.64 834.90 L 403.83 838.64 L 408.02 837.84 L 412.21 829.08 L 416.40 838.69 L 420.59 823.73 L 424.78 816.62 L 428.97 838.99 L 433.16 827.82 L 437.35 831.74 L 441.54 838.77 L 445.73 834.95 L 449.92 835.90 L 454.11 836.45 L 458.29 835.57 L 462.48 823.75 L 466.67 833.30 L 470.86 837.77 L 475.05 821.02 L 479.24 834.67 L 483.43 834.54 L 487.62 822.66 L 491.81 834.57 L 496.00 835.39 L 500.19 836.79 L 504.38 816.47 L 508.57 830.59 L 512.76 839.69 L 516.95 832.01 L 521.14 814.62 L 525.33 829.47 L 529.52 835.61 L 533.71 828.86 L 537.89 826.64 L 542.08 818.06 L 546.27 826.74 L 550.46 826.20 L 554.65 838.15 L 558.84 830.81 L 563.03 830.62 L 567.22 827.35 L 571.41 831.06 L 575.60 825.89 L 579.79 835.68 L 583.98 835.43 L 588.17 839.99 L 592.36 838.43 L 596.55 838.06 L 600.74 837.59 L 604.93 815.24 L 609.12 837.98 L 613.31 832.26 L 617.49 835.29 L 621.68 833.51 L 625.87 832.73 L 630.06 826.49 L 634.25 827.13 L 638.44 835.58 L 642.63 836.61 L 646.82 821.38 L 651.01 837.35 L 655.20 822.24 L 659.39 836.27 L 663.58 827.88 L 667.77 829.77 L 671.96 833.37 L 676.15 832.83 L 680.34 828.92 L 684.53 829.27 L 688.72 812.10 L 692.91 837.44 L 697.09 831.17 L 701.28 833.02 L 705.47 839.44 L 709.66 831.13 L 713.85 834.13 L 718.04 839.31 L 722.23 836.57 L 726.42 838.77 L 730.61 830.87 L 734.80 835.63 L 738.99 838.33 L 743.18 835.52 L 747.37 838.32 L 751.56 828.11 L 755.75 826.79 L 759.94 833.79 L 764.13 833.50 L 768.32 835.56 L 772.51 832.73 L 776.69 835.24 L 780.88 839.24 L 785.07 839.81 L 789.26 830.96 L 793.45 821.80 L 797.64 829.18 L 801.83 833.23 L 806.02 833.51 L 810.21 838.38 L 814.40 836.23 L 818.59 839.36 L 822.78 834.37 L 826.97 833.86 L 831.16 822.27 L 835.35 829.62 L 839.54 827.14 L 843.73 826.70 L 847.92 837.28 L 852.11 838.47 L 856.29 824.23 L 860.48 822.69 L 864.67 829.81 L 868.86 831.66 L 873.05 810.62 L 877.24 831.93 L 881.43 830.00 L 885.62 836.95 L 889.81 839.01 L 894.00 827.70 L 898.19 836.38 L 902.38 832.92 L 906.57 829.38 L 910.76 832.34 L 914.95 831.60 L 919.14 835.24 L 923.33 833.85 L 927.52 834.39 L 931.71 834.22 L 935.89 839.63 L 940.08 832.05 L 944.27 836.02 L 948.46 834.29 L 952.65 829.02 L 956.84 834.68 L 961.03 818.24 L 965.22 830.49 L 969.41 839.02 L 973.60 826.29 L 977.79 822.67 L 981.98 834.83 L 986.17 827.53 L 990.36 836.44 L 994.55 827.76 L 998.74 834.09 L 1002.93 837.82 L 1007.12 830.58 L 1011.31 836.86 L 1015.49 810.62 L 1019.68 831.94 L 1023.87 819.55 L 1028.06 823.26 L 1032.25 832.91 L 1036.44 829.74 L 1040.63 834.85 L 1044.82 836.02 L 1049.01 826.68 L 1053.20 839.49 L 1057.39 829.07 L 1061.58 837.03 L 1065.77 818.76 L 1069.96 834.65 L 1074.15 838.96 L 1078.34 832.54 L 1082.53 834.35 L 1086.72 831.69 L 1090.91 838.34 L 1095.09 835.11 L 1099.28 836.06 L 1103.47 831.03 L 1107.66 831.94 L 1111.85 833.69 L 1116.04 833.52 L 1120.23 827.05 L 1124.42 817.65 L 1128.61 823.60 L 1132.80 822.13 L 1136.99 828.32 L 1141.18 816.87 L 1145.37 831.11 L 1149.56 836.48 L 1153.75 830.72 L 1157.94 825.68 L 1162.13 832.81 L 1166.32 816.37 L 1170.51 839.33 L 1174.69 829.99 L 1178.88 837.62 L 1183.07 829.92 L 1187.26 830.30 L 1191.45 830.58 L 1195.64 837.84 L 1199.83 833.02 L 1204.02 836.56 L 1208.21 839.01 L 1212.40 834.97 L 1216.59 835.64 L 1220.78 837.30 L 1224.97 838.94 L 1229.16 821.06 L 1233.35 839.54 L 1237.54 834.49 L 1241.73 803.83 L 1245.92 830.82 L 1250.11 835.60 L 1254.29 838.67 L 1258.48 832.72 L 1262.67 816.21 L 1266.86 817.19 L 1271.05 827.18 L 1275.24 838.89 L 1279.43 831.38 L 1283.62 838.23 L 1287.81 839.75 L 1292.00 839.89" fill="none" stroke="#1d4ed8" stroke-width="2"  />
<path d="M 98.00 809.62 L 102.19 830.03 L 106.38 839.18 L 110.57 809.42 L 114.76 837.77 L 118.95 835.67 L 123.14 836.95 L 127.33 814.90 L 131.52 829.89 L 135.71 815.37 L 139.89 827.33 L 144.08 824.29 L 148.27 834.22 L 152.46 822.92 L 156.65 811.70 L 160.84 838.55 L 165.03 815.81 L 169.22 812.74 L 173.41 827.90 L 177.60 821.00 L 181.79 839.54 L 185.98 801.92 L 190.17 820.60 L 194.36 810.03 L 198.55 831.78 L 202.74 831.71 L 206.93 839.56 L 211.12 826.49 L 215.31 828.15 L 219.49 828.46 L 223.68 805.90 L 227.87 835.08 L 232.06 811.81 L 236.25 833.65 L 240.44 839.52 L 244.63 825.96 L 248.82 781.42 L 253.01 803.83 L 257.20 824.48 L 261.39 834.53 L 265.58 801.44 L 269.77 831.11 L 273.96 830.07 L 278.15 824.45 L 282.34 836.27 L 286.53 799.24 L 290.72 808.15 L 294.91 825.07 L 299.09 804.85 L 303.28 831.05 L 307.47 828.41 L 311.66 825.75 L 315.85 826.96 L 320.04 827.16 L 324.23 823.50 L 328.42 820.55 L 332.61 824.61 L 336.80 835.15 L 340.99 833.85 L 345.18 691.75 L 349.37 590.00 L 353.56 792.79 L 357.75 749.77 L 361.94 759.25 L 366.13 786.98 L 370.32 812.44 L 374.51 830.05 L 378.69 820.90 L 382.88 795.54 L 387.07 839.05 L 391.26 806.39 L 395.45 803.30 L 399.64 834.98 L 403.83 825.71 L 408.02 836.25 L 412.21 826.25 L 416.40 836.15 L 420.59 797.99 L 424.78 839.40 L 428.97 837.47 L 433.16 821.30 L 437.35 821.22 L 441.54 788.63 L 445.73 822.26 L 449.92 831.80 L 454.11 839.77 L 458.29 837.32 L 462.48 814.89 L 466.67 829.50 L 470.86 817.02 L 475.05 821.50 L 479.24 835.98 L 483.43 837.57 L 487.62 822.94 L 491.81 823.63 L 496.00 836.49 L 500.19 832.74 L 504.38 785.85 L 508.57 807.54 L 512.76 839.40 L 516.95 809.02 L 521.14 834.57 L 525.33 804.21 L 529.52 815.68 L 533.71 824.66 L 537.89 799.10 L 542.08 832.49 L 546.27 813.39 L 550.46 821.11 L 554.65 839.42 L 558.84 833.09 L 563.03 793.99 L 567.22 802.33 L 571.41 829.22 L 575.60 812.51 L 579.79 838.84 L 583.98 827.46 L 588.17 828.15 L 592.36 809.98 L 596.55 839.90 L 600.74 836.94 L 604.93 809.59 L 609.12 797.39 L 613.31 831.05 L 617.49 825.55 L 621.68 831.80 L 625.87 822.23 L 630.06 814.68 L 634.25 819.94 L 638.44 835.78 L 642.63 839.04 L 646.82 812.37 L 651.01 829.40 L 655.20 810.54 L 659.39 837.01 L 663.58 828.58 L 667.77 819.14 L 671.96 825.38 L 676.15 812.38 L 680.34 826.76 L 684.53 807.42 L 688.72 834.41 L 692.91 830.20 L 697.09 839.34 L 701.28 830.77 L 705.47 832.10 L 709.66 828.97 L 713.85 825.27 L 718.04 830.48 L 722.23 835.71 L 726.42 838.08 L 730.61 825.76 L 734.80 836.19 L 738.99 830.18 L 743.18 830.60 L 747.37 809.05 L 751.56 838.05 L 755.75 826.59 L 759.94 820.51 L 764.13 830.47 L 768.32 838.59 L 772.51 838.41 L 776.69 835.14 L 780.88 800.54 L 785.07 834.22 L 789.26 806.38 L 793.45 837.85 L 797.64 824.73 L 801.83 816.32 L 806.02 834.58 L 810.21 829.83 L 814.40 837.75 L 818.59 809.34 L 822.78 836.50 L 826.97 831.05 L 831.16 811.83 L 835.35 837.12 L 839.54 812.79 L 843.73 810.42 L 847.92 831.64 L 852.11 828.34 L 856.29 803.68 L 860.48 813.27 L 864.67 828.22 L 868.86 769.79 L 873.05 824.67 L 877.24 831.86 L 881.43 834.61 L 885.62 832.63 L 889.81 832.72 L 894.00 819.03 L 898.19 831.34 L 902.38 817.43 L 906.57 810.98 L 910.76 826.56 L 914.95 835.99 L 919.14 822.41 L 923.33 824.60 L 927.52 832.34 L 931.71 839.54 L 935.89 836.74 L 940.08 821.43 L 944.27 834.70 L 948.46 828.55 L 952.65 816.52 L 956.84 815.28 L 961.03 805.27 L 965.22 820.64 L 969.41 839.99 L 973.60 812.70 L 977.79 816.14 L 981.98 835.61 L 986.17 830.68 L 990.36 827.70 L 994.55 833.16 L 998.74 831.98 L 1002.93 832.89 L 1007.12 825.63 L 1011.31 835.76 L 1015.49 812.88 L 1019.68 827.14 L 1023.87 812.14 L 1028.06 810.96 L 1032.25 828.66 L 1036.44 828.02 L 1040.63 823.98 L 1044.82 839.63 L 1049.01 839.40 L 1053.20 832.99 L 1057.39 823.19 L 1061.58 829.82 L 1065.77 774.01 L 1069.96 808.94 L 1074.15 815.48 L 1078.34 831.10 L 1082.53 826.34 L 1086.72 828.40 L 1090.91 834.42 L 1095.09 833.48 L 1099.28 834.38 L 1103.47 826.96 L 1107.66 824.42 L 1111.85 830.21 L 1116.04 797.26 L 1120.23 798.18 L 1124.42 808.54 L 1128.61 814.64 L 1132.80 822.60 L 1136.99 834.07 L 1141.18 804.97 L 1145.37 799.08 L 1149.56 823.93 L 1153.75 833.16 L 1157.94 825.17 L 1162.13 830.68 L 1166.32 790.10 L 1170.51 836.90 L 1174.69 821.45 L 1178.88 833.07 L 1183.07 819.87 L 1187.26 821.54 L 1191.45 816.30 L 1195.64 832.81 L 1199.83 805.59 L 1204.02 795.70 L 1208.21 802.71 L 1212.40 814.62 L 1216.59 809.04 L 1220.78 825.24 L 1224.97 838.48 L 1229.16 788.66 L 1233.35 810.22 L 1237.54 832.48 L 1241.73 795.51 L 1245.92 828.13 L 1250.11 834.64 L 1254.29 816.36 L 1258.48 787.04 L 1262.67 816.10 L 1266.86 821.29 L 1271.05 821.24 L 1275.24 831.16 L 1279.43 827.79 L 1283.62 813.63 L 1287.81 799.08 L 1292.00 815.95" fill="none" stroke="#b45309" stroke-width="2" stroke-dasharray="6 4" />
  </g>
</svg>