<?xml version="1.0" encoding="UTF-8"?>
<svg xmlns="http://www.w3.org/2000/svg" width="1360" height="980" viewBox="0 0 1360 980">
  <defs>
    <linearGradient id="bg" x1="0" y1="0" x2="1" y2="1">
      <stop offset="0%" stop-color="#f4efe6" />
      <stop offset="100%" stop-color="#eef5f2" />
    </linearGradient>
  </defs>
  <rect x="0" y="0" width="1360" height="980" fill="url(#bg)" />
  <text x="46" y="36" fill="#1f2937" font-size="31" font-weight="700">160723 离线研究图（持仓逐日估值版）</text>
  <text x="46" y="66" fill="#5b6b68" font-size="13">历史前十大持仓 + 持仓逐日涨跌幅 + USDCNY；双目标 lambda=0.10；披露期数 34；覆盖率均值 39.5%</text>
  <g>
    <text x="54" y="110" fill="#1f2937" font-size="16" font-weight="700">A. 净值拟合（同日对齐，无平移）</text>
    <line x1="98" y1="130" x2="124" y2="130" stroke="#0f766e" stroke-width="2"  />
      <text x="130" y="134" fill="#24312e" font-size="12">真实净值</text>
<line x1="313" y1="130" x2="339" y2="130" stroke="#1d4ed8" stroke-width="2"  />
      <text x="345" y="134" fill="#24312e" font-size="12">持仓分段估值</text>
    <line x1="98" y1="132.00" x2="1292" y2="132.00" stroke="#d7e3df" stroke-width="1" />
      <text x="90" y="136.00" text-anchor="end" fill="#5b6b68" font-size="11">1.967</text>
<line x1="98" y1="209.50" x2="1292" y2="209.50" stroke="#d7e3df" stroke-width="1" />
      <text x="90" y="213.50" text-anchor="end" fill="#5b6b68" font-size="11">1.782</text>
<line x1="98" y1="287.00" x2="1292" y2="287.00" stroke="#d7e3df" stroke-width="1" />
      <text x="90" y="291.00" text-anchor="end" fill="#5b6b68" font-size="11">1.597</text>
<line x1="98" y1="364.50" x2="1292" y2="364.50" stroke="#d7e3df" stroke-width="1" />
      <text x="90" y="368.50" text-anchor="end" fill="#5b6b68" font-size="11">1.412</text>
<line x1="98" y1="442.00" x2="1292" y2="442.00" stroke="#d7e3df" stroke-width="1" />
      <text x="90" y="446.00" text-anchor="end" fill="#5b6b68" font-size="11">1.227</text>
    <line x1="98.00" y1="132" x2="98.00" y2="442" stroke="#eef3f1" stroke-width="1" />
      <text x="98.00" y="470" text-anchor="middle" fill="#5b6b68" font-size="11">25-01-02</text>
<line x1="290.72" y1="132" x2="290.72" y2="442" stroke="#eef3f1" stroke-width="1" />
      <text x="290.72" y="470" text-anchor="middle" fill="#5b6b68" font-size="11">25-03-17</text>
<line x1="479.24" y1="132" x2="479.24" y2="442" stroke="#eef3f1" stroke-width="1" />
      <text x="479.24" y="470" text-anchor="middle" fill="#5b6b68" font-size="11">25-05-23</text>
<line x1="697.09" y1="132" x2="697.09" y2="442" stroke="#eef3f1" stroke-width="1" />
      <text x="697.09" y="470" text-anchor="middle" fill="#5b6b68" font-size="11">25-08-06</text>
<line x1="910.76" y1="132" x2="910.76" y2="442" stroke="#eef3f1" stroke-width="1" />
      <text x="910.76" y="470" text-anchor="middle" fill="#5b6b68" font-size="11">25-10-24</text>
<line x1="1099.28" y1="132" x2="1099.28" y2="442" stroke="#eef3f1" stroke-width="1" />
      <text x="1099.28" y="470" text-anchor="middle" fill="#5b6b68" font-size="11">25-12-26</text>
<line x1="1292.00" y1="132" x2="1292.00" y2="442" stroke="#eef3f1" stroke-width="1" />
      <text x="1292.00" y="470" text-anchor="middle" fill="#5b6b68" font-size="11">26-03-12</text>
    <line x1="1116.04" y1="132" x2="1116.04" y2="442" stroke="#f59e0b" stroke-width="1.4" stroke-dasharray="4 4" />
       <text x="1122.04" y="124" fill="#a16207" font-size="11">验证起点</text>
    <path d="M 98.00 337.09 L 102.19 335.08 L 106.38 328.88 L 110.57 326.15 L 114.76 327.03 L 118.95 328.71 L 123.14 312.58 L 127.33 302.99 L 131.52 300.68 L 135.71 290.63 L 139.89 291.68 L 144.08 292.72 L 148.27 298.25 L 152.46 304.62 L 156.65 309.31 L 160.84 314.55 L 165.03 316.64 L 169.22 325.44 L 173.41 336.75 L 177.60 340.10 L 181.79 339.05 L 185.98 330.59 L 190.17 325.57 L 194.36 327.28 L 198.55 336.08 L 202.74 337.76 L 206.93 337.63 L 211.12 330.97 L 215.31 326.70 L 219.49 326.15 L 223.68 333.53 L 227.87 332.35 L 232.06 347.43 L 236.25 352.50 L 240.44 347.73 L 244.63 347.35 L 248.82 352.84 L 253.01 363.77 L 257.20 375.25 L 261.39 377.26 L 265.58 371.10 L 269.77 375.33 L 273.96 374.20 L 278.15 368.04 L 282.34 370.64 L 286.53 367.83 L 290.72 364.98 L 294.91 364.77 L 299.09 367.20 L 303.28 361.17 L 307.47 357.40 L 311.66 354.09 L 315.85 354.18 L 320.04 348.65 L 324.23 348.98 L 328.42 352.04 L 332.61 342.24 L 336.80 335.49 L 340.99 334.61 L 345.18 366.87 L 349.37 419.90 L 353.56 424.72 L 357.75 433.35 L 361.94 420.95 L 366.13 420.99 L 370.32 416.13 L 374.51 415.42 L 378.69 412.78 L 382.88 396.95 L 387.07 395.48 L 391.26 399.75 L 395.45 398.54 L 399.64 401.64 L 403.83 404.11 L 408.02 400.46 L 412.21 406.25 L 416.40 412.61 L 420.59 429.41 L 424.78 425.68 L 428.97 432.09 L 433.16 427.36 L 437.35 419.65 L 441.54 409.60 L 445.73 404.44 L 449.92 404.57 L 454.11 415.71 L 458.29 413.66 L 462.48 410.73 L 466.67 410.52 L 470.86 410.69 L 475.05 417.81 L 479.24 415.34 L 483.43 413.49 L 487.62 417.81 L 491.81 414.08 L 496.00 414.50 L 500.19 425.18 L 504.38 403.52 L 508.57 406.08 L 512.76 403.31 L 516.95 397.07 L 521.14 390.83 L 525.33 386.43 L 529.52 378.56 L 533.71 368.42 L 537.89 327.91 L 542.08 336.63 L 546.27 320.46 L 550.46 315.01 L 554.65 303.78 L 558.84 308.22 L 563.03 316.85 L 567.22 362.30 L 571.41 360.75 L 575.60 360.75 L 579.79 363.06 L 583.98 364.98 L 588.17 361.84 L 592.36 354.51 L 596.55 350.41 L 600.74 352.50 L 604.93 347.06 L 609.12 340.23 L 613.31 337.88 L 617.49 345.13 L 621.68 338.64 L 625.87 342.53 L 630.06 348.23 L 634.25 350.53 L 638.44 345.88 L 642.63 341.07 L 646.82 342.70 L 651.01 347.89 L 655.20 349.61 L 659.39 343.20 L 663.58 346.26 L 667.77 338.97 L 671.96 326.36 L 676.15 312.33 L 680.34 317.15 L 684.53 328.88 L 688.72 339.52 L 692.91 349.11 L 697.09 353.17 L 701.28 360.29 L 705.47 363.35 L 709.66 362.85 L 713.85 362.22 L 718.04 369.38 L 722.23 364.36 L 726.42 366.20 L 730.61 366.45 L 734.80 368.50 L 738.99 364.10 L 743.18 358.66 L 747.37 354.39 L 751.56 353.00 L 755.75 356.31 L 759.94 358.95 L 764.13 356.98 L 768.32 355.01 L 772.51 354.30 L 776.69 342.95 L 780.88 350.78 L 785.07 359.75 L 789.26 370.39 L 793.45 367.67 L 797.64 365.99 L 801.83 358.32 L 806.02 364.23 L 810.21 365.78 L 814.40 364.06 L 818.59 354.22 L 822.78 353.93 L 826.97 356.94 L 831.16 364.40 L 835.35 365.53 L 839.54 357.82 L 843.73 350.99 L 847.92 344.88 L 852.11 339.26 L 856.29 354.01 L 860.48 365.32 L 864.67 371.60 L 868.86 391.42 L 873.05 386.77 L 877.24 400.88 L 881.43 401.51 L 885.62 404.28 L 889.81 409.68 L 894.00 410.23 L 898.19 406.87 L 902.38 396.78 L 906.57 380.19 L 910.76 376.80 L 914.95 378.77 L 919.14 389.78 L 923.33 387.10 L 927.52 387.94 L 931.71 385.64 L 935.89 382.95 L 940.08 385.18 L 944.27 387.65 L 948.46 392.92 L 952.65 390.50 L 956.84 389.20 L 961.03 382.62 L 965.22 392.80 L 969.41 398.66 L 973.60 389.82 L 977.79 390.66 L 981.98 388.40 L 986.17 391.37 L 990.36 396.32 L 994.55 405.03 L 998.74 400.05 L 1002.93 405.70 L 1007.12 403.44 L 1011.31 400.88 L 1015.49 397.03 L 1019.68 394.52 L 1023.87 397.11 L 1028.06 398.37 L 1032.25 393.72 L 1036.44 391.46 L 1040.63 394.94 L 1044.82 402.31 L 1049.01 402.77 L 1053.20 408.51 L 1057.39 410.06 L 1061.58 415.88 L 1065.77 426.39 L 1069.96 420.66 L 1074.15 420.87 L 1078.34 420.19 L 1082.53 410.18 L 1086.72 407.04 L 1090.91 404.74 L 1095.09 404.78 L 1099.28 408.72 L 1103.47 411.23 L 1107.66 409.05 L 1111.85 410.90 L 1116.04 411.15 L 1120.23 413.03 L 1124.42 422.79 L 1128.61 413.58 L 1132.80 400.63 L 1136.99 400.59 L 1141.18 385.64 L 1145.37 384.55 L 1149.56 395.61 L 1153.75 395.86 L 1157.94 395.98 L 1162.13 393.34 L 1166.32 388.23 L 1170.51 390.79 L 1174.69 385.22 L 1178.88 383.83 L 1183.07 377.89 L 1187.26 370.39 L 1191.45 358.07 L 1195.64 354.93 L 1199.83 377.09 L 1204.02 370.77 L 1208.21 364.90 L 1212.40 366.12 L 1216.59 361.72 L 1220.78 364.65 L 1224.97 360.21 L 1229.16 354.18 L 1233.35 362.09 L 1237.54 370.30 L 1241.73 338.30 L 1245.92 345.80 L 1250.11 344.46 L 1254.29 339.77 L 1258.48 297.58 L 1262.67 280.58 L 1266.86 273.66 L 1271.05 258.84 L 1275.24 220.80 L 1279.43 158.89 L 1283.62 201.11 L 1287.81 196.63 L 1292.00 136.10" fill="none" stroke="#0f766e" stroke-width="2"  />
<path d="M 98.00 340.18 L 102.19 334.01 L 106.38 334.82 L 110.57 325.80 L 114.76 328.36 L 118.95 326.55 L 123.14 328.41 L 127.33 304.77 L 131.52 304.75 L 135.71 290.39 L 139.89 293.39 L 144.08 293.00 L 148.27 291.76 L 152.46 298.13 L 156.65 306.08 L 160.84 311.55 L 165.03 314.28 L 169.22 319.83 L 173.41 330.75 L 177.60 337.55 L 181.79 339.05 L 185.98 334.53 L 190.17 327.59 L 194.36 330.30 L 198.55 327.17 L 202.74 337.66 L 206.93 337.95 L 211.12 337.01 L 215.31 329.60 L 219.49 326.13 L 223.68 333.30 L 227.87 334.79 L 232.06 336.50 L 236.25 348.51 L 240.44 348.73 L 244.63 348.21 L 248.82 352.31 L 253.01 353.93 L 257.20 368.43 L 261.39 375.73 L 265.58 374.50 L 269.77 371.11 L 273.96 374.07 L 278.15 370.29 L 282.34 371.23 L 286.53 368.72 L 290.72 366.69 L 294.91 366.22 L 299.09 363.97 L 303.28 363.82 L 307.47 361.01 L 311.66 354.39 L 315.85 354.11 L 320.04 352.24 L 324.23 348.42 L 328.42 350.70 L 332.61 341.05 L 336.80 342.57 L 340.99 333.78 L 345.18 357.73 L 349.37 413.44 L 353.56 428.41 L 357.75 402.61 L 361.94 439.42 L 366.13 418.78 L 370.32 421.13 L 374.51 416.53 L 378.69 412.64 L 382.88 408.60 L 387.07 396.61 L 391.26 394.90 L 395.45 397.80 L 399.64 401.27 L 403.83 400.74 L 408.02 403.26 L 412.21 403.05 L 416.40 409.96 L 420.59 420.09 L 424.78 432.13 L 428.97 427.96 L 433.16 424.12 L 437.35 425.39 L 441.54 415.91 L 445.73 404.12 L 449.92 406.13 L 454.11 406.75 L 458.29 414.47 L 462.48 412.32 L 466.67 410.49 L 470.86 412.60 L 475.05 411.91 L 479.24 416.47 L 483.43 413.81 L 487.62 413.18 L 491.81 417.06 L 496.00 415.74 L 500.19 415.61 L 504.38 408.52 L 508.57 405.32 L 512.76 405.34 L 516.95 400.34 L 521.14 393.84 L 525.33 391.62 L 529.52 372.39 L 533.71 378.63 L 537.89 341.01 L 542.08 319.56 L 546.27 318.63 L 550.46 320.45 L 554.65 314.55 L 558.84 303.30 L 563.03 350.08 L 567.22 331.68 L 571.41 362.52 L 575.60 360.16 L 579.79 361.93 L 583.98 361.11 L 588.17 363.20 L 592.36 356.26 L 596.55 355.31 L 600.74 350.03 L 604.93 350.68 L 609.12 345.75 L 613.31 340.28 L 617.49 340.69 L 621.68 339.19 L 625.87 339.13 L 630.06 343.20 L 634.25 348.42 L 638.44 348.27 L 642.63 346.61 L 646.82 338.55 L 651.01 343.30 L 655.20 348.08 L 659.39 348.05 L 663.58 345.63 L 667.77 332.25 L 671.96 328.42 L 676.15 323.54 L 680.34 315.12 L 684.53 322.77 L 688.72 335.03 L 692.91 341.74 L 697.09 351.77 L 701.28 354.33 L 705.47 359.88 L 709.66 363.51 L 713.85 364.41 L 718.04 363.47 L 722.23 365.71 L 726.42 366.60 L 730.61 365.83 L 734.80 368.26 L 738.99 365.47 L 743.18 362.39 L 747.37 357.69 L 751.56 352.09 L 755.75 356.75 L 759.94 355.02 L 764.13 357.98 L 768.32 357.59 L 772.51 354.06 L 776.69 353.80 L 780.88 346.57 L 785.07 352.57 L 789.26 362.99 L 793.45 372.45 L 797.64 366.84 L 801.83 362.23 L 806.02 361.95 L 810.21 362.51 L 814.40 364.84 L 818.59 361.17 L 822.78 356.02 L 826.97 354.72 L 831.16 359.31 L 835.35 365.83 L 839.54 361.92 L 843.73 354.52 L 847.92 349.38 L 852.11 344.68 L 856.29 346.97 L 860.48 355.56 L 864.67 370.47 L 868.86 381.91 L 873.05 394.14 L 877.24 390.59 L 881.43 401.24 L 885.62 404.65 L 889.81 403.77 L 894.00 411.00 L 898.19 409.21 L 902.38 397.49 L 906.57 386.96 L 910.76 379.86 L 914.95 375.88 L 919.14 382.77 L 923.33 388.02 L 927.52 387.56 L 931.71 385.71 L 935.89 384.50 L 940.08 384.74 L 944.27 387.27 L 948.46 387.89 L 952.65 392.36 L 956.84 388.96 L 961.03 386.44 L 965.22 391.93 L 969.41 392.42 L 973.60 394.36 L 977.79 387.46 L 981.98 388.21 L 986.17 391.96 L 990.36 392.62 L 994.55 398.21 L 998.74 404.67 L 1002.93 403.04 L 1007.12 404.06 L 1011.31 403.25 L 1015.49 400.79 L 1019.68 395.64 L 1023.87 396.61 L 1028.06 396.25 L 1032.25 397.11 L 1036.44 392.44 L 1040.63 394.19 L 1044.82 396.12 L 1049.01 400.56 L 1053.20 405.86 L 1057.39 409.49 L 1061.58 411.87 L 1065.77 420.14 L 1069.96 420.17 L 1074.15 422.68 L 1078.34 418.91 L 1082.53 413.85 L 1086.72 409.47 L 1090.91 407.74 L 1095.09 404.54 L 1099.28 404.58 L 1103.47 407.67 L 1107.66 411.29 L 1111.85 410.16 L 1116.04 409.17 L 1120.23 414.35 L 1124.42 413.53 L 1128.61 408.66 L 1132.80 413.51 L 1136.99 395.85 L 1141.18 395.17 L 1145.37 387.74 L 1149.56 387.21 L 1153.75 393.92 L 1157.94 396.10 L 1162.13 395.79 L 1166.32 388.93 L 1170.51 391.09 L 1174.69 383.59 L 1178.88 384.71 L 1183.07 376.47 L 1187.26 375.95 L 1191.45 361.28 L 1195.64 356.99 L 1199.83 376.09 L 1204.02 370.35 L 1208.21 369.62 L 1212.40 367.21 L 1216.59 364.95 L 1220.78 359.00 L 1224.97 364.27 L 1229.16 358.15 L 1233.35 361.61 L 1237.54 361.70 L 1241.73 342.91 L 1245.92 339.64 L 1250.11 345.21 L 1254.29 334.32 L 1258.48 297.19 L 1262.67 284.13 L 1266.86 278.83 L 1271.05 260.90 L 1275.24 208.62 L 1279.43 218.70 L 1283.62 155.75 L 1287.81 197.81 L 1292.00 142.51" fill="none" stroke="#1d4ed8" stroke-width="2"  />
  </g>
  <g>
    <text x="54" y="538" fill="#1f2937" font-size="16" font-weight="700">B. 绝对误差（越低越好）</text>
    <line x1="98" y1="558" x2="124" y2="558" stroke="#1d4ed8" stroke-width="2"  />
      <text x="130" y="562" fill="#24312e" font-size="12">持仓分段误差</text>
    <line x1="98" y1="560.00" x2="1292" y2="560.00" stroke="#d7e3df" stroke-width="1" />
      <text x="90" y="564.00" text-anchor="end" fill="#5b6b68" font-size="11">8.40%</text>
<line x1="98" y1="630.00" x2="1292" y2="630.00" stroke="#d7e3df" stroke-width="1" />
      <text x="90" y="634.00" text-anchor="end" fill="#5b6b68" font-size="11">6.30%</text>
<line x1="98" y1="700.00" x2="1292" y2="700.00" stroke="#d7e3df" stroke-width="1" />
      <text x="90" y="704.00" text-anchor="end" fill="#5b6b68" font-size="11">4.20%</text>
<line x1="98" y1="770.00" x2="1292" y2="770.00" stroke="#d7e3df" stroke-width="1" />
      <text x="90" y="774.00" text-anchor="end" fill="#5b6b68" font-size="11">2.10%</text>
<line x1="98" y1="840.00" x2="1292" y2="840.00" stroke="#d7e3df" stroke-width="1" />
      <text x="90" y="844.00" text-anchor="end" fill="#5b6b68" font-size="11">0.00%</text>
    <line x1="98.00" y1="560" x2="98.00" y2="840" stroke="#eef3f1" stroke-width="1" />
      <text x="98.00" y="868" text-anchor="middle" fill="#5b6b68" font-size="11">25-01-02</text>
<line x1="290.72" y1="560" x2="290.72" y2="840" stroke="#eef3f1" stroke-width="1" />
      <text x="290.72" y="868" text-anchor="middle" fill="#5b6b68" font-size="11">25-03-17</text>
<line x1="479.24" y1="560" x2="479.24" y2="840" stroke="#eef3f1" stroke-width="1" />
      <text x="479.24" y="868" text-anchor="middle" fill="#5b6b68" font-size="11">25-05-23</text>
<line x1="697.09" y1="560" x2="697.09" y2="840" stroke="#eef3f1" stroke-width="1" />
      <text x="697.09" y="868" text-anchor="middle" fill="#5b6b68" font-size="11">25-08-06</text>
<line x1="910.76" y1="560" x2="910.76" y2="840" stroke="#eef3f1" stroke-width="1" />
      <text x="910.76" y="868" text-anchor="middle" fill="#5b6b68" font-size="11">25-10-24</text>
<line x1="1099.28" y1="560" x2="1099.28" y2="840" stroke="#eef3f1" stroke-width="1" />
      <text x="1099.28" y="868" text-anchor="middle" fill="#5b6b68" font-size="11">25-12-26</text>
<line x1="1292.00" y1="560" x2="1292.00" y2="840" stroke="#eef3f1" stroke-width="1" />
      <text x="1292.00" y="868" text-anchor="middle" fill="#5b6b68" font-size="11">26-03-12</text>
    <line x1="1116.04" y1="560" x2="1116.04" y2="840" stroke="#f59e0b" stroke-width="1.4" stroke-dasharray="4 4" />
       <text x="1122.04" y="552" fill="#a16207" font-size="11">验证起点</text>
    <path d="M 98.00 823.34 L 102.19 834.29 L 106.38 808.41 L 110.57 838.12 L 114.76 832.97 L 118.95 828.53 L 123.14 758.05 L 127.33 830.91 L 131.52 819.34 L 135.71 838.82 L 139.89 831.43 L 144.08 838.63 L 148.27 807.09 L 152.46 806.79 L 156.65 823.36 L 160.84 824.41 L 165.03 827.68 L 169.22 810.38 L 173.41 807.71 L 177.60 826.20 L 181.79 839.96 L 185.98 819.03 L 190.17 829.31 L 194.36 823.99 L 198.55 792.09 L 202.74 839.49 L 206.93 838.27 L 211.12 807.81 L 215.31 824.63 L 219.49 839.90 L 223.68 838.81 L 227.87 826.96 L 232.06 780.15 L 236.25 817.95 L 240.44 834.52 L 244.63 835.31 L 248.82 837.09 L 253.01 784.62 L 257.20 800.91 L 261.39 831.19 L 265.58 820.64 L 269.77 815.77 L 273.96 839.27 L 278.15 827.24 L 282.34 836.65 L 286.53 834.95 L 290.72 830.36 L 294.91 831.83 L 299.09 821.67 L 303.28 825.17 L 307.47 819.94 L 311.66 838.34 L 315.85 839.62 L 320.04 820.27 L 324.23 836.92 L 328.42 832.62 L 332.61 833.57 L 336.80 802.01 L 340.99 835.52 L 345.18 788.34 L 349.37 799.86 L 353.56 816.88 L 357.75 644.09 L 361.94 725.01 L 366.13 826.24 L 370.32 809.15 L 374.51 833.17 L 378.69 839.12 L 382.88 770.57 L 387.07 833.28 L 391.26 810.92 L 395.45 835.60 L 399.64 837.78 L 403.83 819.65 L 408.02 823.24 L 412.21 820.62 L 416.40 823.73 L 420.59 781.05 L 424.78 799.49 L 428.97 813.76 L 433.16 819.60 L 437.35 804.35 L 441.54 801.50 L 445.73 838.01 L 449.92 830.55 L 454.11 784.71 L 458.29 835.03 L 462.48 830.25 L 466.67 839.83 L 470.86 828.33 L 475.05 803.48 L 479.24 833.01 L 483.43 838.04 L 487.62 811.35 L 491.81 821.65 L 496.00 832.36 L 500.19 779.93 L 504.38 809.87 L 508.57 835.40 L 512.76 827.78 L 516.95 820.54 L 521.14 822.27 L 525.33 809.64 L 529.52 804.40 L 533.71 782.09 L 537.89 770.54 L 542.08 748.21 L 546.27 830.42 L 550.46 811.72 L 554.65 785.03 L 558.84 814.69 L 563.03 666.80 L 567.22 668.13 L 571.41 830.11 L 575.60 836.68 L 579.79 833.67 L 583.98 818.16 L 588.17 832.40 L 592.36 830.32 L 596.55 813.03 L 600.74 826.35 L 604.93 820.19 L 609.12 810.10 L 613.31 827.08 L 617.49 815.81 L 621.68 836.99 L 625.87 821.51 L 630.06 812.42 L 634.25 828.38 L 638.44 826.99 L 642.63 809.96 L 646.82 817.46 L 651.01 814.84 L 655.20 831.58 L 659.39 813.62 L 663.58 836.53 L 667.77 803.73 L 671.96 829.12 L 676.15 781.98 L 680.34 829.44 L 684.53 807.58 L 688.72 815.74 L 692.91 799.57 L 697.09 832.23 L 701.28 806.64 L 705.47 820.47 L 709.66 836.27 L 713.85 827.72 L 718.04 806.40 L 722.23 832.35 L 726.42 837.74 L 730.61 836.49 L 734.80 838.61 L 738.99 832.30 L 743.18 819.19 L 747.37 821.70 L 751.56 834.94 L 755.75 837.56 L 759.94 818.08 L 764.13 834.44 L 768.32 825.70 L 772.51 838.68 L 776.69 781.02 L 780.88 816.79 L 785.07 799.88 L 789.26 797.92 L 793.45 812.91 L 797.64 835.22 L 801.83 818.21 L 806.02 827.17 L 810.21 821.54 L 814.40 835.61 L 818.59 801.53 L 822.78 828.41 L 826.97 827.64 L 831.16 811.38 L 835.35 838.30 L 839.54 817.20 L 843.73 820.57 L 847.92 815.48 L 852.11 810.75 L 856.29 801.03 L 860.48 784.97 L 864.67 833.55 L 868.86 783.93 L 873.05 796.84 L 877.24 778.22 L 881.43 838.36 L 885.62 837.75 L 889.81 803.97 L 894.00 835.25 L 898.19 825.81 L 902.38 835.74 L 906.57 800.82 L 910.76 822.36 L 914.95 823.34 L 919.14 798.74 L 923.33 834.63 L 927.52 837.75 L 931.71 839.58 L 935.89 831.04 L 940.08 837.49 L 944.27 837.78 L 948.46 810.21 L 952.65 829.03 L 956.84 838.63 L 961.03 817.80 L 965.22 834.83 L 969.41 802.66 L 973.60 813.33 L 977.79 821.14 L 981.98 838.88 L 986.17 836.53 L 990.36 818.02 L 994.55 798.77 L 998.74 812.29 L 1002.93 823.91 L 1007.12 836.24 L 1011.31 825.82 L 1015.49 817.61 L 1019.68 833.34 L 1023.87 837.01 L 1028.06 827.33 L 1032.25 819.91 L 1036.44 834.21 L 1040.63 835.58 L 1044.82 802.74 L 1049.01 826.71 L 1053.20 823.86 L 1057.39 836.52 L 1061.58 815.24 L 1065.77 800.64 L 1069.96 836.98 L 1074.15 828.72 L 1078.34 832.01 L 1082.53 817.60 L 1086.72 825.25 L 1090.91 821.87 L 1095.09 838.57 L 1099.28 814.83 L 1103.47 818.24 L 1107.66 826.38 L 1111.85 835.53 L 1116.04 827.94 L 1120.23 831.91 L 1124.42 782.15 L 1128.61 809.78 L 1132.80 762.77 L 1136.99 811.54 L 1141.18 784.31 L 1145.37 821.37 L 1149.56 790.10 L 1153.75 828.51 L 1157.94 839.28 L 1162.13 825.54 L 1166.32 835.91 L 1170.51 838.25 L 1174.69 830.49 L 1178.88 834.91 L 1183.07 831.82 L 1187.26 808.34 L 1191.45 822.14 L 1195.64 828.61 L 1199.83 834.25 L 1204.02 837.63 L 1208.21 813.37 L 1212.40 833.82 L 1216.59 821.86 L 1220.78 808.17 L 1224.97 817.28 L 1229.16 818.00 L 1233.35 837.30 L 1237.54 791.05 L 1241.73 815.17 L 1245.92 806.37 L 1250.11 835.93 L 1254.29 810.57 L 1258.48 838.01 L 1262.67 822.46 L 1266.86 814.79 L 1271.05 830.12 L 1275.24 784.81 L 1279.43 590.00 L 1283.62 639.80 L 1287.81 834.82 L 1292.00 813.97" fill="none" stroke="#1d4ed8" stroke-width="2"  />
  </g>
</svg>