<?xml version="1.0" encoding="UTF-8"?>
<svg xmlns="http://www.w3.org/2000/svg" width="1360" height="980" viewBox="0 0 1360 980">
  <defs>
    <linearGradient id="bg" x1="0" y1="0" x2="1" y2="1">
      <stop offset="0%" stop-color="#f4efe6" />
      <stop offset="100%" stop-color="#eef5f2" />
    </linearGradient>
  </defs>
  <rect x="0" y="0" width="1360" height="980" fill="url(#bg)" />
  <text x="46" y="36" fill="#1f2937" font-size="31" font-weight="700">160719 离线研究图（持仓逐日估值版）</text>
  <text x="46" y="66" fill="#5b6b68" font-size="13">历史前十大持仓 + 持仓逐日涨跌幅 + USDCNY；双目标 lambda=0.10；披露期数 49；覆盖率均值 92.1%</text>
  <g>
    <text x="54" y="110" fill="#1f2937" font-size="16" font-weight="700">A. 净值拟合（同日对齐，无平移）</text>
    <line x1="98" y1="112" x2="124" y2="112" stroke="#0f766e" stroke-width="2"  />
      <text x="130" y="116" fill="#24312e" font-size="12">真实净值</text>
<line x1="313" y1="112" x2="339" y2="112" stroke="#1d4ed8" stroke-width="2"  />
      <text x="345" y="116" fill="#24312e" font-size="12">持仓分段估值</text>
<line x1="528" y1="112" x2="554" y2="112" stroke="#b45309" stroke-width="2" stroke-dasharray="6 4" />
      <text x="560" y="116" fill="#24312e" font-size="12">持仓双目标估值</text>
    <line x1="98" y1="132.00" x2="1292" y2="132.00" stroke="#d7e3df" stroke-width="1" />
      <text x="90" y="136.00" text-anchor="end" fill="#5b6b68" font-size="11">2.453</text>
<line x1="98" y1="209.50" x2="1292" y2="209.50" stroke="#d7e3df" stroke-width="1" />
      <text x="90" y="213.50" text-anchor="end" fill="#5b6b68" font-size="11">2.166</text>
<line x1="98" y1="287.00" x2="1292" y2="287.00" stroke="#d7e3df" stroke-width="1" />
      <text x="90" y="291.00" text-anchor="end" fill="#5b6b68" font-size="11">1.878</text>
<line x1="98" y1="364.50" x2="1292" y2="364.50" stroke="#d7e3df" stroke-width="1" />
      <text x="90" y="368.50" text-anchor="end" fill="#5b6b68" font-size="11">1.591</text>
<line x1="98" y1="442.00" x2="1292" y2="442.00" stroke="#d7e3df" stroke-width="1" />
      <text x="90" y="446.00" text-anchor="end" fill="#5b6b68" font-size="11">1.304</text>
    <line x1="98.00" y1="132" x2="98.00" y2="442" stroke="#eef3f1" stroke-width="1" />
      <text x="98.00" y="470" text-anchor="middle" fill="#5b6b68" font-size="11">25-01-02</text>
<line x1="290.72" y1="132" x2="290.72" y2="442" stroke="#eef3f1" stroke-width="1" />
      <text x="290.72" y="470" text-anchor="middle" fill="#5b6b68" font-size="11">25-03-17</text>
<line x1="479.24" y1="132" x2="479.24" y2="442" stroke="#eef3f1" stroke-width="1" />
      <text x="479.24" y="470" text-anchor="middle" fill="#5b6b68" font-size="11">25-05-23</text>
<line x1="697.09" y1="132" x2="697.09" y2="442" stroke="#eef3f1" stroke-width="1" />
      <text x="697.09" y="470" text-anchor="middle" fill="#5b6b68" font-size="11">25-08-06</text>
<line x1="910.76" y1="132" x2="910.76" y2="442" stroke="#eef3f1" stroke-width="1" />
      <text x="910.76" y="470" text-anchor="middle" fill="#5b6b68" font-size="11">25-10-24</text>
<line x1="1099.28" y1="132" x2="1099.28" y2="442" stroke="#eef3f1" stroke-width="1" />
      <text x="1099.28" y="470" text-anchor="middle" fill="#5b6b68" font-size="11">25-12-26</text>
<line x1="1292.00" y1="132" x2="1292.00" y2="442" stroke="#eef3f1" stroke-width="1" />
      <text x="1292.00" y="470" text-anchor="middle" fill="#5b6b68" font-size="11">26-03-12</text>
    <line x1="1116.04" y1="132" x2="1116.04" y2="442" stroke="#f59e0b" stroke-width="1.4" stroke-dasharray="4 4" />
       <text x="1122.04" y="124" fill="#a16207" font-size="11">验证起点</text>
    <path d="M 98.00 438.44 L 102.19 437.63 L 106.38 438.17 L 110.57 436.28 L 114.76 434.40 L 118.95 434.40 L 123.14 431.16 L 127.33 434.67 L 131.52 433.32 L 135.71 431.16 L 139.89 427.92 L 144.08 429.00 L 148.27 429.81 L 152.46 425.76 L 156.65 423.87 L 160.84 424.41 L 165.03 421.71 L 169.22 425.76 L 173.41 410.11 L 177.60 411.46 L 181.79 410.38 L 185.98 405.26 L 190.17 405.80 L 194.36 406.34 L 198.55 403.10 L 202.74 407.42 L 206.93 407.15 L 211.12 402.29 L 215.31 402.29 L 219.49 401.21 L 223.68 402.02 L 227.87 400.40 L 232.06 405.80 L 236.25 404.45 L 240.44 409.84 L 244.63 412.27 L 248.82 407.69 L 253.01 404.72 L 257.20 403.64 L 261.39 404.99 L 265.58 404.99 L 269.77 407.42 L 273.96 404.18 L 278.15 402.56 L 282.34 396.35 L 286.53 395.81 L 290.72 394.20 L 294.91 389.61 L 299.09 388.80 L 303.28 388.80 L 307.47 391.77 L 311.66 392.85 L 315.85 390.96 L 320.04 391.77 L 324.23 386.91 L 328.42 383.40 L 332.61 378.55 L 336.80 378.55 L 340.99 378.01 L 345.18 379.36 L 349.37 392.04 L 353.56 390.96 L 357.75 380.44 L 361.94 370.99 L 366.13 362.63 L 370.32 365.60 L 374.51 363.44 L 378.69 350.76 L 382.88 353.46 L 387.07 353.46 L 391.26 347.25 L 395.45 344.28 L 399.64 356.42 L 403.83 351.03 L 408.02 356.69 L 412.21 350.76 L 416.40 353.99 L 420.59 355.88 L 424.78 342.12 L 428.97 346.17 L 433.16 352.92 L 437.35 351.30 L 441.54 363.98 L 445.73 362.90 L 449.92 371.53 L 454.11 366.14 L 458.29 370.99 L 462.48 365.33 L 466.67 358.58 L 470.86 354.80 L 475.05 358.04 L 479.24 349.41 L 483.43 351.03 L 487.62 356.96 L 491.81 357.50 L 496.00 356.15 L 500.19 358.31 L 504.38 351.03 L 508.57 348.06 L 512.76 350.49 L 516.95 354.80 L 521.14 353.73 L 525.33 354.26 L 529.52 352.38 L 533.71 347.25 L 537.89 342.12 L 542.08 346.71 L 546.27 347.79 L 550.46 348.60 L 554.65 349.95 L 558.84 350.49 L 563.03 348.60 L 567.22 356.96 L 571.41 355.34 L 575.60 356.15 L 579.79 363.17 L 583.98 359.66 L 588.17 355.07 L 592.36 353.73 L 596.55 356.15 L 600.74 355.88 L 604.93 356.42 L 609.12 360.20 L 613.31 358.31 L 617.49 357.77 L 621.68 353.19 L 625.87 354.80 L 630.06 356.96 L 634.25 353.19 L 638.44 356.15 L 642.63 354.53 L 646.82 348.06 L 651.01 344.82 L 655.20 348.87 L 659.39 352.92 L 663.58 356.96 L 667.77 359.39 L 671.96 357.77 L 676.15 364.25 L 680.34 362.09 L 684.53 357.23 L 688.72 352.38 L 692.91 351.84 L 697.09 352.65 L 701.28 350.22 L 705.47 349.95 L 709.66 355.34 L 713.85 355.61 L 718.04 354.80 L 722.23 357.50 L 726.42 357.23 L 730.61 358.31 L 734.80 359.93 L 738.99 356.42 L 743.18 357.77 L 747.37 353.46 L 751.56 355.07 L 755.75 352.92 L 759.94 352.65 L 764.13 349.95 L 768.32 345.90 L 772.51 344.01 L 776.69 336.19 L 780.88 331.33 L 785.07 333.76 L 789.26 328.36 L 793.45 323.24 L 797.64 323.78 L 801.83 322.16 L 806.02 323.51 L 810.21 322.43 L 814.40 318.65 L 818.59 317.57 L 822.78 319.19 L 826.97 322.16 L 831.16 317.84 L 835.35 310.29 L 839.54 307.05 L 843.73 310.83 L 847.92 310.29 L 852.11 305.70 L 856.29 299.76 L 860.48 297.34 L 864.67 280.34 L 868.86 277.91 L 873.05 267.12 L 877.24 262.53 L 881.43 255.52 L 885.62 244.73 L 889.81 251.47 L 894.00 235.55 L 898.19 266.58 L 902.38 271.44 L 906.57 265.50 L 910.76 267.12 L 914.95 282.50 L 919.14 286.27 L 923.33 285.47 L 927.52 279.80 L 931.71 281.96 L 935.89 280.88 L 940.08 287.08 L 944.27 283.58 L 948.46 284.12 L 952.65 280.88 L 956.84 269.01 L 961.03 266.85 L 965.22 258.49 L 969.41 259.56 L 973.60 270.90 L 977.79 275.75 L 981.98 273.86 L 986.17 272.78 L 990.36 272.78 L 994.55 273.59 L 998.74 267.93 L 1002.93 266.04 L 1007.12 262.53 L 1011.31 263.34 L 1015.49 256.60 L 1019.68 254.17 L 1023.87 258.49 L 1028.06 257.14 L 1032.25 257.68 L 1036.44 258.22 L 1040.63 260.10 L 1044.82 257.14 L 1049.01 257.14 L 1053.20 251.20 L 1057.39 249.04 L 1061.58 247.96 L 1065.77 247.96 L 1069.96 244.19 L 1074.15 242.84 L 1078.34 243.92 L 1082.53 232.31 L 1086.72 227.46 L 1090.91 229.08 L 1095.09 229.62 L 1099.28 226.38 L 1103.47 246.61 L 1107.66 244.73 L 1111.85 246.88 L 1116.04 235.28 L 1120.23 230.43 L 1124.42 234.47 L 1128.61 232.85 L 1132.80 228.81 L 1136.99 217.21 L 1141.18 218.56 L 1145.37 214.78 L 1149.56 217.48 L 1153.75 220.17 L 1157.94 216.40 L 1162.13 201.02 L 1166.32 191.31 L 1170.51 183.75 L 1174.69 175.12 L 1178.88 167.29 L 1183.07 158.12 L 1187.26 136.81 L 1191.45 137.35 L 1195.64 185.91 L 1199.83 213.70 L 1204.02 180.51 L 1208.21 184.02 L 1212.40 195.89 L 1216.59 181.86 L 1220.78 167.29 L 1224.97 173.77 L 1229.16 167.83 L 1233.35 186.99 L 1237.54 174.04 L 1241.73 160.01 L 1245.92 158.12 L 1250.11 157.31 L 1254.29 150.57 L 1258.48 142.47 L 1262.67 168.37 L 1266.86 163.79 L 1271.05 172.69 L 1275.24 164.33 L 1279.43 165.94 L 1283.62 157.04 L 1287.81 161.90 L 1292.00 169.99" fill="none" stroke="#0f766e" stroke-width="2"  />
<path d="M 98.00 438.49 L 102.19 439.25 L 106.38 437.36 L 110.57 436.80 L 114.76 434.64 L 118.95 433.66 L 123.14 433.79 L 127.33 431.49 L 131.52 433.34 L 135.71 431.49 L 139.89 429.37 L 144.08 428.41 L 148.27 429.34 L 152.46 429.46 L 156.65 424.51 L 160.84 423.43 L 165.03 423.39 L 169.22 422.35 L 173.41 411.31 L 177.60 409.84 L 181.79 410.72 L 185.98 406.78 L 190.17 405.50 L 194.36 405.01 L 198.55 404.07 L 202.74 408.28 L 206.93 408.05 L 211.12 406.12 L 215.31 401.46 L 219.49 402.04 L 223.68 400.92 L 227.87 401.16 L 232.06 403.55 L 236.25 405.12 L 240.44 408.76 L 244.63 410.38 L 248.82 410.15 L 253.01 405.69 L 257.20 404.08 L 261.39 404.34 L 265.58 404.70 L 269.77 405.35 L 273.96 403.73 L 278.15 402.63 L 282.34 395.77 L 286.53 395.92 L 290.72 394.38 L 294.91 390.16 L 299.09 388.10 L 303.28 388.52 L 307.47 389.78 L 311.66 392.83 L 315.85 391.41 L 320.04 390.62 L 324.23 386.85 L 328.42 384.98 L 332.61 379.69 L 336.80 378.30 L 340.99 377.73 L 345.18 378.29 L 349.37 393.21 L 353.56 390.20 L 357.75 376.25 L 361.94 372.05 L 366.13 365.04 L 370.32 360.71 L 374.51 363.93 L 378.69 350.78 L 382.88 351.29 L 387.07 352.71 L 391.26 352.90 L 395.45 351.00 L 399.64 353.25 L 403.83 350.83 L 408.02 354.14 L 412.21 354.37 L 416.40 354.12 L 420.59 355.09 L 424.78 342.80 L 428.97 346.56 L 433.16 352.15 L 437.35 351.03 L 441.54 359.81 L 445.73 362.97 L 449.92 369.32 L 454.11 365.79 L 458.29 369.49 L 462.48 369.04 L 466.67 358.56 L 470.86 356.95 L 475.05 356.04 L 479.24 350.81 L 483.43 345.81 L 487.62 350.11 L 491.81 357.12 L 496.00 356.06 L 500.19 356.88 L 504.38 355.21 L 508.57 349.50 L 512.76 348.78 L 516.95 354.12 L 521.14 354.15 L 525.33 353.34 L 529.52 352.92 L 533.71 348.72 L 537.89 342.80 L 542.08 342.55 L 546.27 346.24 L 550.46 348.37 L 554.65 347.93 L 558.84 349.39 L 563.03 349.40 L 567.22 353.63 L 571.41 356.13 L 575.60 355.33 L 579.79 361.86 L 583.98 362.28 L 588.17 357.72 L 592.36 353.51 L 596.55 354.79 L 600.74 355.46 L 604.93 354.41 L 609.12 357.99 L 613.31 358.99 L 617.49 357.70 L 621.68 355.74 L 625.87 352.08 L 630.06 355.17 L 634.25 355.57 L 638.44 353.27 L 642.63 355.35 L 646.82 351.01 L 651.01 345.62 L 655.20 349.34 L 659.39 349.80 L 663.58 354.34 L 667.77 358.32 L 671.96 358.48 L 676.15 363.59 L 680.34 362.25 L 684.53 353.63 L 688.72 355.29 L 692.91 351.80 L 697.09 351.97 L 701.28 350.79 L 705.47 349.88 L 709.66 351.65 L 713.85 355.21 L 718.04 354.93 L 722.23 355.77 L 726.42 356.98 L 730.61 357.10 L 734.80 359.06 L 738.99 356.90 L 743.18 356.79 L 747.37 354.41 L 751.56 352.92 L 755.75 353.29 L 759.94 352.22 L 764.13 351.36 L 768.32 346.91 L 772.51 344.33 L 776.69 343.15 L 780.88 334.04 L 785.07 331.81 L 789.26 328.77 L 793.45 324.64 L 797.64 323.37 L 801.83 322.50 L 806.02 321.96 L 810.21 322.60 L 814.40 319.68 L 818.59 317.89 L 822.78 319.00 L 826.97 319.58 L 831.16 317.44 L 835.35 312.65 L 839.54 308.88 L 843.73 308.47 L 847.92 309.34 L 852.11 308.23 L 856.29 300.75 L 860.48 297.12 L 864.67 284.91 L 868.86 276.16 L 873.05 266.00 L 877.24 264.65 L 881.43 255.06 L 885.62 244.13 L 889.81 252.43 L 894.00 235.86 L 898.19 265.26 L 902.38 266.13 L 906.57 270.09 L 910.76 265.83 L 914.95 277.56 L 919.14 283.88 L 923.33 286.69 L 927.52 276.16 L 931.71 280.55 L 935.89 281.26 L 940.08 287.47 L 944.27 282.41 L 948.46 283.56 L 952.65 282.27 L 956.84 268.94 L 961.03 267.66 L 965.22 259.97 L 969.41 260.16 L 973.60 266.24 L 977.79 275.13 L 981.98 273.57 L 986.17 273.10 L 990.36 272.37 L 994.55 272.83 L 998.74 269.80 L 1002.93 267.91 L 1007.12 263.92 L 1011.31 261.60 L 1015.49 262.59 L 1019.68 253.15 L 1023.87 255.07 L 1028.06 258.34 L 1032.25 256.36 L 1036.44 257.59 L 1040.63 258.24 L 1044.82 258.57 L 1049.01 255.66 L 1053.20 253.46 L 1057.39 249.43 L 1061.58 248.02 L 1065.77 247.53 L 1069.96 245.42 L 1074.15 244.14 L 1078.34 242.00 L 1082.53 234.65 L 1086.72 227.65 L 1090.91 227.95 L 1095.09 228.09 L 1099.28 228.65 L 1103.47 243.95 L 1107.66 246.14 L 1111.85 245.44 L 1116.04 233.67 L 1120.23 231.37 L 1124.42 231.63 L 1128.61 232.87 L 1132.80 230.76 L 1136.99 223.33 L 1141.18 216.90 L 1145.37 214.60 L 1149.56 215.68 L 1153.75 217.95 L 1157.94 219.64 L 1162.13 215.51 L 1166.32 194.06 L 1170.51 182.09 L 1174.69 177.50 L 1178.88 168.08 L 1183.07 154.52 L 1187.26 137.90 L 1191.45 135.29 L 1195.64 186.50 L 1199.83 214.53 L 1204.02 183.43 L 1208.21 179.91 L 1212.40 194.62 L 1216.59 181.29 L 1220.78 166.09 L 1224.97 170.64 L 1229.16 168.87 L 1233.35 183.33 L 1237.54 174.65 L 1241.73 159.06 L 1245.92 160.14 L 1250.11 155.80 L 1254.29 150.78 L 1258.48 143.41 L 1262.67 161.48 L 1266.86 165.89 L 1271.05 168.29 L 1275.24 164.69 L 1279.43 161.40 L 1283.62 163.35 L 1287.81 157.30 L 1292.00 170.85" fill="none" stroke="#1d4ed8" stroke-width="2"  />
<path d="M 98.00 440.23 L 102.19 437.99 L 106.38 437.12 L 110.57 437.60 L 114.76 435.71 L 118.95 433.21 L 123.14 433.21 L 127.33 430.72 L 131.52 434.09 L 135.71 432.72 L 139.89 430.56 L 144.08 427.43 L 148.27 427.80 L 152.46 428.61 L 156.65 425.17 L 160.84 423.34 L 165.03 423.81 L 169.22 421.26 L 173.41 424.82 L 177.60 409.57 L 181.79 410.88 L 185.98 409.66 L 190.17 404.72 L 194.36 405.21 L 198.55 405.67 L 202.74 402.67 L 206.93 406.14 L 211.12 405.87 L 215.31 401.71 L 219.49 401.71 L 223.68 400.64 L 227.87 401.39 L 232.06 399.95 L 236.25 405.21 L 240.44 404.02 L 244.63 409.34 L 248.82 411.59 L 253.01 407.03 L 257.20 404.12 L 261.39 403.11 L 265.58 404.41 L 269.77 404.50 L 273.96 406.73 L 278.15 403.56 L 282.34 401.81 L 286.53 395.76 L 290.72 395.17 L 294.91 393.49 L 299.09 388.97 L 303.28 388.22 L 307.47 388.28 L 311.66 391.22 L 315.85 392.21 L 320.04 390.37 L 324.23 391.04 L 328.42 386.24 L 332.61 382.65 L 336.80 377.96 L 340.99 377.92 L 345.18 377.46 L 349.37 379.19 L 353.56 391.40 L 357.75 390.00 L 361.94 379.58 L 366.13 370.17 L 370.32 362.05 L 374.51 364.91 L 378.69 362.46 L 382.88 350.15 L 387.07 352.01 L 391.26 352.01 L 395.45 346.75 L 399.64 343.89 L 403.83 355.62 L 408.02 350.50 L 412.21 355.89 L 416.40 350.21 L 420.59 353.43 L 424.78 354.82 L 428.97 341.62 L 433.16 345.73 L 437.35 352.19 L 441.54 350.95 L 445.73 363.30 L 449.92 362.49 L 454.11 370.74 L 458.29 365.63 L 462.48 370.24 L 466.67 364.50 L 470.86 357.86 L 475.05 354.25 L 479.24 357.16 L 483.43 347.95 L 487.62 349.57 L 491.81 356.34 L 496.00 356.80 L 500.19 355.58 L 504.38 357.48 L 508.57 350.31 L 512.76 347.46 L 516.95 349.98 L 521.14 354.11 L 525.33 353.07 L 529.52 353.56 L 533.71 351.59 L 537.89 346.45 L 542.08 341.62 L 546.27 346.05 L 550.46 347.19 L 554.65 347.13 L 558.84 348.49 L 563.03 349.80 L 567.22 348.12 L 571.41 356.29 L 575.60 354.71 L 579.79 355.71 L 583.98 362.41 L 588.17 358.93 L 592.36 354.37 L 596.55 353.15 L 600.74 354.71 L 604.93 354.44 L 609.12 355.89 L 613.31 359.52 L 617.49 357.65 L 621.68 357.03 L 625.87 352.58 L 630.06 354.20 L 634.25 356.26 L 638.44 352.56 L 642.63 355.48 L 646.82 353.72 L 651.01 347.30 L 655.20 344.30 L 659.39 348.28 L 663.58 352.37 L 667.77 356.39 L 671.96 358.72 L 676.15 357.31 L 680.34 363.55 L 684.53 361.24 L 688.72 356.53 L 692.91 351.72 L 697.09 351.21 L 701.28 351.91 L 705.47 349.57 L 709.66 349.45 L 713.85 354.71 L 718.04 354.93 L 722.23 354.23 L 726.42 356.85 L 730.61 356.61 L 734.80 357.73 L 738.99 359.18 L 743.18 355.82 L 747.37 357.02 L 751.56 352.83 L 755.75 354.35 L 759.94 352.25 L 764.13 351.92 L 768.32 349.19 L 772.51 344.43 L 776.69 342.53 L 780.88 335.43 L 785.07 330.70 L 789.26 332.93 L 793.45 327.55 L 797.64 322.57 L 801.83 323.04 L 806.02 321.48 L 810.21 322.79 L 814.40 321.61 L 818.59 317.93 L 822.78 316.96 L 826.97 318.54 L 831.16 321.34 L 835.35 316.94 L 839.54 309.53 L 843.73 306.44 L 847.92 310.07 L 852.11 309.51 L 856.29 304.78 L 860.48 298.93 L 864.67 296.26 L 868.86 279.46 L 873.05 276.84 L 877.24 266.25 L 881.43 261.53 L 885.62 254.42 L 889.81 244.17 L 894.00 250.19 L 898.19 235.61 L 902.38 265.81 L 906.57 270.62 L 910.76 264.77 L 914.95 266.71 L 919.14 281.84 L 923.33 285.57 L 927.52 284.47 L 931.71 279.11 L 935.89 281.18 L 940.08 280.35 L 944.27 286.19 L 948.46 282.84 L 952.65 283.29 L 956.84 279.78 L 961.03 268.18 L 965.22 265.86 L 969.41 257.80 L 973.60 259.02 L 977.79 270.27 L 981.98 274.90 L 986.17 273.08 L 990.36 272.02 L 994.55 272.04 L 998.74 272.62 L 1002.93 267.16 L 1007.12 265.16 L 1011.31 260.78 L 1015.49 261.60 L 1019.68 255.74 L 1023.87 253.46 L 1028.06 257.71 L 1032.25 256.34 L 1036.44 256.91 L 1040.63 257.46 L 1044.82 259.25 L 1049.01 256.29 L 1053.20 256.20 L 1057.39 250.33 L 1061.58 248.23 L 1065.77 247.16 L 1069.96 247.04 L 1074.15 243.40 L 1078.34 242.01 L 1082.53 242.79 L 1086.72 231.31 L 1090.91 226.68 L 1095.09 227.22 L 1099.28 227.76 L 1103.47 226.16 L 1107.66 245.80 L 1111.85 244.01 L 1116.04 245.65 L 1120.23 234.31 L 1124.42 229.73 L 1128.61 233.57 L 1132.80 231.93 L 1136.99 227.71 L 1141.18 216.38 L 1145.37 217.56 L 1149.56 214.01 L 1153.75 216.70 L 1157.94 218.29 L 1162.13 214.50 L 1166.32 199.93 L 1170.51 190.14 L 1174.69 182.65 L 1178.88 173.98 L 1183.07 165.99 L 1187.26 156.58 L 1191.45 135.79 L 1195.64 138.04 L 1199.83 185.62 L 1204.02 211.94 L 1208.21 179.62 L 1212.40 183.52 L 1216.59 194.56 L 1220.78 180.58 L 1224.97 166.52 L 1229.16 172.68 L 1233.35 167.45 L 1237.54 185.72 L 1241.73 172.73 L 1245.92 159.11 L 1250.11 157.05 L 1254.29 156.17 L 1258.48 149.41 L 1262.67 142.23 L 1266.86 167.33 L 1271.05 163.04 L 1275.24 171.53 L 1279.43 163.43 L 1283.62 164.85 L 1287.81 156.15 L 1292.00 161.27" fill="none" stroke="#b45309" stroke-width="2" stroke-dasharray="6 4" />
  </g>
  <g>
    <text x="54" y="538" fill="#1f2937" font-size="16" font-weight="700">B. 绝对误差（越低越好）</text>
    <line x1="98" y1="540" x2="124" y2="540" stroke="#1d4ed8" stroke-width="2"  />
      <text x="130" y="544" fill="#24312e" font-size="12">持仓分段误差</text>
<line x1="313" y1="540" x2="339" y2="540" stroke="#b45309" stroke-width="2" stroke-dasharray="6 4" />
      <text x="345" y="544" fill="#24312e" font-size="12">持仓双目标误差</text>
    <line x1="98" y1="560.00" x2="1292" y2="560.00" stroke="#d7e3df" stroke-width="1" />
      <text x="90" y="564.00" text-anchor="end" fill="#5b6b68" font-size="11">8.82%</text>
<line x1="98" y1="630.00" x2="1292" y2="630.00" stroke="#d7e3df" stroke-width="1" />
      <text x="90" y="634.00" text-anchor="end" fill="#5b6b68" font-size="11">6.62%</text>
<line x1="98" y1="700.00" x2="1292" y2="700.00" stroke="#d7e3df" stroke-width="1" />
      <text x="90" y="704.00" text-anchor="end" fill="#5b6b68" font-size="11">4.41%</text>
<line x1="98" y1="770.00" x2="1292" y2="770.00" stroke="#d7e3df" stroke-width="1" />
      <text x="90" y="774.00" text-anchor="end" fill="#5b6b68" font-size="11">2.21%</text>
<line x1="98" y1="840.00" x2="1292" y2="840.00" stroke="#d7e3df" stroke-width="1" />
      <text x="90" y="844.00" text-anchor="end" fill="#5b6b68" font-size="11">0.00%</text>
    <line x1="98.00" y1="560" x2="98.00" y2="840" stroke="#eef3f1" stroke-width="1" />
      <text x="98.00" y="868" text-anchor="middle" fill="#5b6b68" font-size="11">25-01-02</text>
<line x1="290.72" y1="560" x2="290.72" y2="840" stroke="#eef3f1" stroke-width="1" />
      <text x="290.72" y="868" text-anchor="middle" fill="#5b6b68" font-size="11">25-03-17</text>
<line x1="479.24" y1="560" x2="479.24" y2="840" stroke="#eef3f1" stroke-width="1" />
      <text x="479.24" y="868" text-anchor="middle" fill="#5b6b68" font-size="11">25-05-23</text>
<line x1="697.09" y1="560" x2="697.09" y2="840" stroke="#eef3f1" stroke-width="1" />
      <text x="697.09" y="868" text-anchor="middle" fill="#5b6b68" font-size="11">25-08-06</text>
<line x1="910.76" y1="560" x2="910.76" y2="840" stroke="#eef3f1" stroke-width="1" />
      <text x="910.76" y="868" text-anchor="middle" fill="#5b6b68" font-size="11">25-10-24</text>
<line x1="1099.28" y1="560" x2="1099.28" y2="840" stroke="#eef3f1" stroke-width="1" />
      <text x="1099.28" y="868" text-anchor="middle" fill="#5b6b68" font-size="11">25-12-26</text>
<line x1="1292.00" y1="560" x2="1292.00" y2="840" stroke="#eef3f1" stroke-width="1" />
      <text x="1292.00" y="868" text-anchor="middle" fill="#5b6b68" font-size="11">26-03-12</text>
    <line x1="1116.04" y1="560" x2="1116.04" y2="840" stroke="#f59e0b" stroke-width="1.4" stroke-dasharray="4 4" />
       <text x="1122.04" y="552" fill="#a16207" font-size="11">验证起点</text>
    <path d="M 98.00 839.60 L 102.19 825.63 L 106.38 832.74 L 110.57 835.38 L 114.76 837.85 L 118.95 833.50 L 123.14 816.94 L 127.33 811.90 L 131.52 839.75 L 135.71 837.10 L 139.89 827.43 L 144.08 834.90 L 148.27 835.87 L 152.46 808.10 L 156.65 834.51 L 160.84 831.53 L 165.03 825.75 L 169.22 810.57 L 173.41 830.09 L 177.60 826.55 L 181.79 837.17 L 185.98 827.53 L 190.17 837.60 L 194.36 829.17 L 198.55 832.11 L 202.74 832.89 L 206.93 832.59 L 211.12 808.96 L 215.31 833.26 L 219.49 833.30 L 223.68 831.10 L 227.87 833.85 L 232.06 821.61 L 236.25 834.55 L 240.44 831.00 L 244.63 824.23 L 248.82 819.75 L 253.01 832.05 L 257.20 836.43 L 261.39 834.70 L 265.58 837.69 L 269.77 823.07 L 273.96 836.33 L 278.15 839.45 L 282.34 835.32 L 286.53 839.11 L 290.72 838.55 L 294.91 835.64 L 299.09 834.49 L 303.28 837.81 L 307.47 824.29 L 311.66 839.87 L 315.85 836.44 L 320.04 830.93 L 324.23 839.56 L 328.42 827.80 L 332.61 831.28 L 336.80 838.14 L 340.99 837.91 L 345.18 831.85 L 349.37 830.71 L 353.56 834.06 L 357.75 807.83 L 361.94 832.08 L 366.13 822.24 L 370.32 803.80 L 374.51 836.35 L 378.69 839.85 L 382.88 824.39 L 387.07 834.61 L 391.26 799.80 L 395.45 792.56 L 399.64 816.94 L 403.83 838.62 L 408.02 821.47 L 412.21 814.09 L 416.40 839.08 L 420.59 834.27 L 424.78 835.27 L 428.97 837.24 L 433.16 834.52 L 437.35 838.11 L 441.54 809.24 L 445.73 839.45 L 449.92 823.38 L 454.11 837.44 L 458.29 828.73 L 462.48 812.50 L 466.67 839.86 L 470.86 824.50 L 475.05 825.44 L 479.24 829.98 L 483.43 802.61 L 487.62 790.17 L 491.81 837.21 L 496.00 839.35 L 500.19 829.60 L 504.38 809.99 L 508.57 829.74 L 512.76 827.78 L 516.95 835.08 L 521.14 836.90 L 525.33 833.29 L 529.52 836.08 L 533.71 829.56 L 537.89 835.24 L 542.08 810.44 L 546.27 829.00 L 550.46 838.40 L 554.65 825.58 L 558.84 832.16 L 563.03 834.32 L 567.22 815.77 L 571.41 834.28 L 575.60 834.01 L 579.79 830.37 L 583.98 820.83 L 588.17 820.84 L 592.36 838.43 L 596.55 830.08 L 600.74 836.96 L 604.93 825.42 L 609.12 823.78 L 613.31 835.03 L 617.49 839.51 L 621.68 821.60 L 625.87 820.28 L 630.06 826.95 L 634.25 822.85 L 638.44 819.10 L 642.63 834.12 L 646.82 819.00 L 651.01 834.35 L 655.20 836.63 L 659.39 817.53 L 663.58 820.91 L 667.77 832.18 L 671.96 834.85 L 676.15 835.11 L 680.34 838.81 L 684.53 813.81 L 688.72 819.04 L 692.91 839.74 L 697.09 835.10 L 701.28 835.88 L 705.47 839.51 L 709.66 813.24 L 713.85 837.06 L 718.04 839.06 L 722.23 827.42 L 726.42 838.20 L 730.61 831.19 L 734.80 833.63 L 738.99 836.57 L 743.18 832.85 L 747.37 833.13 L 751.56 824.43 L 755.75 837.28 L 759.94 836.91 L 764.13 829.86 L 768.32 832.85 L 772.51 837.76 L 776.69 791.69 L 780.88 821.42 L 785.07 826.52 L 789.26 837.26 L 793.45 830.55 L 797.64 837.28 L 801.83 837.67 L 806.02 829.53 L 810.21 838.85 L 814.40 833.15 L 818.59 837.85 L 822.78 838.72 L 826.97 822.65 L 831.16 837.29 L 835.35 824.50 L 839.54 828.04 L 843.73 824.54 L 847.92 833.76 L 852.11 823.53 L 856.29 833.66 L 860.48 838.59 L 864.67 811.74 L 868.86 829.23 L 873.05 833.27 L 877.24 827.35 L 881.43 837.31 L 885.62 836.56 L 889.81 834.36 L 894.00 838.25 L 898.19 832.07 L 902.38 807.73 L 906.57 812.43 L 910.76 832.23 L 914.95 809.37 L 919.14 825.01 L 923.33 832.35 L 927.52 817.51 L 931.71 831.28 L 935.89 837.62 L 940.08 837.60 L 944.27 832.73 L 948.46 836.54 L 952.65 831.38 L 956.84 839.58 L 961.03 835.13 L 965.22 831.20 L 969.41 836.44 L 973.60 811.73 L 977.79 836.21 L 981.98 838.22 L 986.17 838.07 L 990.36 837.48 L 994.55 835.33 L 998.74 828.72 L 1002.93 828.74 L 1007.12 831.73 L 1011.31 829.60 L 1015.49 804.59 L 1019.68 833.99 L 1023.87 819.73 L 1028.06 832.88 L 1032.25 832.20 L 1036.44 836.27 L 1040.63 828.88 L 1044.82 831.54 L 1049.01 831.29 L 1053.20 826.76 L 1057.39 837.73 L 1061.58 839.67 L 1065.77 837.46 L 1069.96 832.85 L 1074.15 832.52 L 1078.34 828.94 L 1082.53 826.81 L 1086.72 838.94 L 1090.91 833.67 L 1095.09 831.43 L 1099.28 827.29 L 1103.47 824.54 L 1107.66 831.85 L 1111.85 831.63 L 1116.04 830.86 L 1120.23 834.71 L 1124.42 823.88 L 1128.61 839.89 L 1132.80 829.05 L 1136.99 806.30 L 1141.18 830.85 L 1145.37 839.02 L 1149.56 830.11 L 1153.75 827.70 L 1157.94 822.18 L 1162.13 762.39 L 1166.32 825.49 L 1170.51 831.36 L 1174.69 827.77 L 1178.88 836.00 L 1183.07 822.00 L 1187.26 834.73 L 1191.45 830.07 L 1195.64 836.93 L 1199.83 835.45 L 1204.02 824.88 L 1208.21 818.62 L 1212.40 833.26 L 1216.59 837.06 L 1220.78 833.90 L 1224.97 823.97 L 1229.16 834.74 L 1233.35 820.88 L 1237.54 836.86 L 1241.73 835.26 L 1245.92 829.91 L 1250.11 832.47 L 1254.29 838.93 L 1258.48 835.41 L 1262.67 805.01 L 1266.86 829.41 L 1271.05 817.52 L 1275.24 838.14 L 1279.43 817.03 L 1283.62 808.54 L 1287.81 816.92 L 1292.00 835.62" fill="none" stroke="#1d4ed8" stroke-width="2"  />
<path d="M 98.00 824.01 L 102.19 836.82 L 106.38 830.60 L 110.57 828.32 L 114.76 828.38 L 118.95 829.56 L 123.14 822.01 L 127.33 805.08 L 131.52 833.19 L 135.71 826.33 L 139.89 817.08 L 144.08 826.34 L 148.27 822.47 L 152.46 815.42 L 156.65 828.85 L 160.84 830.78 L 165.03 822.11 L 169.22 801.20 L 173.41 718.31 L 177.60 824.30 L 181.79 835.85 L 185.98 804.03 L 190.17 831.19 L 194.36 830.81 L 198.55 819.09 L 202.74 800.99 L 206.93 831.78 L 211.12 810.93 L 215.31 835.27 L 219.49 835.96 L 223.68 828.82 L 227.87 832.01 L 232.06 792.15 L 236.25 833.77 L 240.44 791.86 L 244.63 815.58 L 248.82 807.92 L 253.01 821.10 L 257.20 836.04 L 261.39 824.70 L 265.58 835.29 L 269.77 816.04 L 273.96 819.17 L 278.15 831.86 L 282.34 796.40 L 286.53 839.61 L 290.72 832.22 L 294.91 809.50 L 299.09 838.64 L 303.28 835.43 L 307.47 812.50 L 311.66 827.12 L 315.85 830.12 L 320.04 828.99 L 324.23 807.76 L 328.42 818.08 L 332.61 808.61 L 336.80 835.48 L 340.99 839.30 L 345.18 825.45 L 349.37 738.52 L 353.56 836.53 L 357.75 766.55 L 361.94 775.55 L 366.13 784.46 L 370.32 813.74 L 374.51 829.15 L 378.69 756.15 L 382.88 816.20 L 387.07 829.56 L 391.26 806.18 L 395.45 822.57 L 399.64 749.01 L 403.83 807.06 L 408.02 794.99 L 412.21 803.19 L 416.40 812.69 L 420.59 822.20 L 424.78 750.74 L 428.97 807.76 L 433.16 788.26 L 437.35 833.60 L 441.54 743.80 L 445.73 837.05 L 449.92 772.02 L 454.11 805.80 L 458.29 799.77 L 462.48 803.62 L 466.67 796.84 L 470.86 817.90 L 475.05 812.41 L 479.24 784.59 L 483.43 817.91 L 487.62 786.28 L 491.81 831.57 L 496.00 835.33 L 500.19 820.08 L 504.38 793.71 L 508.57 824.00 L 512.76 818.31 L 516.95 805.12 L 521.14 837.24 L 525.33 831.40 L 529.52 831.50 L 533.71 809.13 L 537.89 809.61 L 542.08 803.85 L 546.27 827.60 L 550.46 829.97 L 554.65 819.88 L 558.84 825.68 L 563.03 831.43 L 567.22 775.71 L 571.41 833.17 L 575.60 829.53 L 579.79 784.99 L 583.98 819.90 L 588.17 812.13 L 592.36 835.37 L 596.55 818.23 L 600.74 831.52 L 604.93 825.63 L 609.12 808.46 L 613.31 831.23 L 617.49 839.08 L 621.68 812.33 L 625.87 823.90 L 630.06 819.95 L 634.25 817.81 L 638.44 813.95 L 642.63 833.16 L 646.82 799.68 L 651.01 822.49 L 655.20 807.39 L 659.39 806.62 L 663.58 806.61 L 667.77 818.06 L 671.96 833.07 L 676.15 788.76 L 680.34 829.29 L 684.53 810.89 L 688.72 810.14 L 692.91 839.15 L 697.09 829.66 L 701.28 827.92 L 705.47 837.28 L 709.66 797.33 L 713.85 833.45 L 718.04 839.05 L 722.23 816.16 L 726.42 837.24 L 730.61 827.58 L 734.80 823.90 L 738.99 819.97 L 743.18 825.77 L 747.37 814.33 L 751.56 823.78 L 755.75 829.67 L 759.94 837.12 L 764.13 825.93 L 768.32 816.70 L 772.51 837.07 L 776.69 795.98 L 780.88 811.89 L 785.07 818.89 L 789.26 808.83 L 793.45 810.93 L 797.64 831.85 L 801.83 834.04 L 806.02 826.33 L 810.21 837.55 L 814.40 820.20 L 818.59 837.63 L 822.78 825.09 L 826.97 815.64 L 831.16 816.66 L 835.35 796.33 L 839.54 823.85 L 843.73 811.18 L 847.92 838.55 L 852.11 815.25 L 856.29 807.75 L 860.48 829.78 L 864.67 741.56 L 868.86 830.49 L 873.05 781.40 L 877.24 817.79 L 881.43 804.56 L 885.62 783.97 L 889.81 797.28 L 894.00 756.78 L 898.19 653.50 L 902.38 805.80 L 906.57 809.25 L 910.76 825.82 L 914.95 741.95 L 919.14 812.24 L 923.33 839.32 L 927.52 811.15 L 931.71 822.35 L 935.89 838.13 L 940.08 797.79 L 944.27 823.71 L 948.46 832.05 L 952.65 825.08 L 956.84 774.84 L 961.03 831.96 L 965.22 796.24 L 969.41 829.54 L 973.60 767.88 L 977.79 806.43 L 981.98 833.69 L 986.17 838.21 L 990.36 835.34 L 994.55 830.52 L 998.74 811.66 L 1002.93 833.27 L 1007.12 824.30 L 1011.31 824.70 L 1015.49 810.45 L 1019.68 830.74 L 1023.87 810.20 L 1028.06 836.61 L 1032.25 832.07 L 1036.44 832.27 L 1040.63 824.28 L 1044.82 827.49 L 1049.01 834.99 L 1053.20 810.73 L 1057.39 832.51 L 1061.58 838.46 L 1065.77 835.32 L 1069.96 823.49 L 1074.15 836.74 L 1078.34 828.99 L 1082.53 780.75 L 1086.72 818.43 L 1090.91 826.54 L 1095.09 826.51 L 1099.28 832.27 L 1103.47 721.30 L 1107.66 833.81 L 1111.85 823.30 L 1116.04 781.04 L 1120.23 818.11 L 1124.42 813.07 L 1128.61 835.93 L 1132.80 822.46 L 1136.99 782.15 L 1141.18 827.99 L 1145.37 824.73 L 1149.56 820.93 L 1153.75 820.75 L 1157.94 829.61 L 1162.13 767.81 L 1166.32 794.54 L 1170.51 806.74 L 1174.69 801.35 L 1178.88 806.11 L 1183.07 800.69 L 1187.26 744.47 L 1191.45 832.49 L 1195.64 590.00 L 1199.83 686.33 L 1204.02 677.33 L 1208.21 817.10 L 1212.40 774.32 L 1216.59 774.12 L 1220.78 772.69 L 1224.97 802.90 L 1229.16 815.40 L 1233.35 737.76 L 1237.54 780.14 L 1241.73 776.29 L 1245.92 835.03 L 1250.11 838.70 L 1254.29 812.35 L 1258.48 806.18 L 1262.67 707.30 L 1266.86 822.13 L 1271.05 790.70 L 1275.24 803.65 L 1279.43 827.30 L 1283.62 801.09 L 1287.81 811.15 L 1292.00 795.63" fill="none" stroke="#b45309" stroke-width="2" stroke-dasharray="6 4" />
  </g>
</svg>