<?xml version="1.0" encoding="UTF-8"?>
<svg xmlns="http://www.w3.org/2000/svg" width="1360" height="980" viewBox="0 0 1360 980">
  <defs>
    <linearGradient id="bg" x1="0" y1="0" x2="1" y2="1">
      <stop offset="0%" stop-color="#f4efe6" />
      <stop offset="100%" stop-color="#eef5f2" />
    </linearGradient>
  </defs>
  <rect x="0" y="0" width="1360" height="980" fill="url(#bg)" />
  <text x="46" y="36" fill="#1f2937" font-size="31" font-weight="700">160723 离线研究图（持仓逐日估值版）</text>
  <text x="46" y="66" fill="#5b6b68" font-size="13">历史前十大持仓 + 持仓逐日涨跌幅 + USDCNY；双目标 lambda=0.10；披露期数 34；覆盖率均值 92.1%</text>
  <g>
    <text x="54" y="110" fill="#1f2937" font-size="16" font-weight="700">A. 净值拟合（同日对齐，无平移）</text>
    <line x1="98" y1="112" x2="124" y2="112" stroke="#0f766e" stroke-width="2"  />
      <text x="130" y="116" fill="#24312e" font-size="12">真实净值</text>
<line x1="313" y1="112" x2="339" y2="112" stroke="#1d4ed8" stroke-width="2"  />
      <text x="345" y="116" fill="#24312e" font-size="12">持仓分段估值</text>
<line x1="528" y1="112" x2="554" y2="112" stroke="#b45309" stroke-width="2" stroke-dasharray="6 4" />
      <text x="560" y="116" fill="#24312e" font-size="12">持仓双目标估值</text>
    <line x1="98" y1="132.00" x2="1292" y2="132.00" stroke="#d7e3df" stroke-width="1" />
      <text x="90" y="136.00" text-anchor="end" fill="#5b6b68" font-size="11">1.967</text>
<line x1="98" y1="209.50" x2="1292" y2="209.50" stroke="#d7e3df" stroke-width="1" />
      <text x="90" y="213.50" text-anchor="end" fill="#5b6b68" font-size="11">1.781</text>
<line x1="98" y1="287.00" x2="1292" y2="287.00" stroke="#d7e3df" stroke-width="1" />
      <text x="90" y="291.00" text-anchor="end" fill="#5b6b68" font-size="11">1.596</text>
<line x1="98" y1="364.50" x2="1292" y2="364.50" stroke="#d7e3df" stroke-width="1" />
      <text x="90" y="368.50" text-anchor="end" fill="#5b6b68" font-size="11">1.410</text>
<line x1="98" y1="442.00" x2="1292" y2="442.00" stroke="#d7e3df" stroke-width="1" />
      <text x="90" y="446.00" text-anchor="end" fill="#5b6b68" font-size="11">1.224</text>
    <line x1="98.00" y1="132" x2="98.00" y2="442" stroke="#eef3f1" stroke-width="1" />
      <text x="98.00" y="470" text-anchor="middle" fill="#5b6b68" font-size="11">25-01-02</text>
<line x1="290.72" y1="132" x2="290.72" y2="442" stroke="#eef3f1" stroke-width="1" />
      <text x="290.72" y="470" text-anchor="middle" fill="#5b6b68" font-size="11">25-03-17</text>
<line x1="479.24" y1="132" x2="479.24" y2="442" stroke="#eef3f1" stroke-width="1" />
      <text x="479.24" y="470" text-anchor="middle" fill="#5b6b68" font-size="11">25-05-23</text>
<line x1="697.09" y1="132" x2="697.09" y2="442" stroke="#eef3f1" stroke-width="1" />
      <text x="697.09" y="470" text-anchor="middle" fill="#5b6b68" font-size="11">25-08-06</text>
<line x1="910.76" y1="132" x2="910.76" y2="442" stroke="#eef3f1" stroke-width="1" />
      <text x="910.76" y="470" text-anchor="middle" fill="#5b6b68" font-size="11">25-10-24</text>
<line x1="1099.28" y1="132" x2="1099.28" y2="442" stroke="#eef3f1" stroke-width="1" />
      <text x="1099.28" y="470" text-anchor="middle" fill="#5b6b68" font-size="11">25-12-26</text>
<line x1="1292.00" y1="132" x2="1292.00" y2="442" stroke="#eef3f1" stroke-width="1" />
      <text x="1292.00" y="470" text-anchor="middle" fill="#5b6b68" font-size="11">26-03-12</text>
    <line x1="1116.04" y1="132" x2="1116.04" y2="442" stroke="#f59e0b" stroke-width="1.4" stroke-dasharray="4 4" />
       <text x="1122.04" y="124" fill="#a16207" font-size="11">验证起点</text>
    <path d="M 98.00 336.34 L 102.19 334.34 L 106.38 328.16 L 110.57 325.45 L 114.76 326.33 L 118.95 328.00 L 123.14 311.93 L 127.33 302.37 L 131.52 300.07 L 135.71 290.06 L 139.89 291.10 L 144.08 292.14 L 148.27 297.65 L 152.46 304.00 L 156.65 308.67 L 160.84 313.89 L 165.03 315.98 L 169.22 324.74 L 173.41 336.01 L 177.60 339.35 L 181.79 338.31 L 185.98 329.87 L 190.17 324.87 L 194.36 326.58 L 198.55 335.34 L 202.74 337.01 L 206.93 336.89 L 211.12 330.25 L 215.31 325.99 L 219.49 325.45 L 223.68 332.80 L 227.87 331.63 L 232.06 346.65 L 236.25 351.70 L 240.44 346.95 L 244.63 346.57 L 248.82 352.04 L 253.01 362.93 L 257.20 374.37 L 261.39 376.37 L 265.58 370.24 L 269.77 374.45 L 273.96 373.32 L 278.15 367.19 L 282.34 369.78 L 286.53 366.98 L 290.72 364.14 L 294.91 363.93 L 299.09 366.35 L 303.28 360.34 L 307.47 356.59 L 311.66 353.29 L 315.85 353.37 L 320.04 347.86 L 324.23 348.20 L 328.42 351.24 L 332.61 341.48 L 336.80 334.76 L 340.99 333.88 L 345.18 366.02 L 349.37 418.86 L 353.56 423.66 L 357.75 432.26 L 361.94 419.90 L 366.13 419.95 L 370.32 415.10 L 374.51 414.39 L 378.69 411.77 L 382.88 395.99 L 387.07 394.53 L 391.26 398.78 L 395.45 397.57 L 399.64 400.66 L 403.83 403.13 L 408.02 399.49 L 412.21 405.25 L 416.40 411.60 L 420.59 428.34 L 424.78 424.62 L 428.97 431.01 L 433.16 426.29 L 437.35 418.61 L 441.54 408.59 L 445.73 403.46 L 449.92 403.58 L 454.11 414.69 L 458.29 412.64 L 462.48 409.72 L 466.67 409.51 L 470.86 409.68 L 475.05 416.77 L 479.24 414.31 L 483.43 412.47 L 487.62 416.77 L 491.81 413.06 L 496.00 413.48 L 500.19 424.12 L 504.38 402.54 L 508.57 405.09 L 512.76 402.33 L 516.95 396.11 L 521.14 389.89 L 525.33 385.51 L 529.52 377.67 L 533.71 367.56 L 537.89 327.20 L 542.08 335.89 L 546.27 319.77 L 550.46 314.35 L 554.65 303.16 L 558.84 307.59 L 563.03 316.18 L 567.22 361.47 L 571.41 359.93 L 575.60 359.93 L 579.79 362.22 L 583.98 364.14 L 588.17 361.01 L 592.36 353.71 L 596.55 349.62 L 600.74 351.70 L 604.93 346.28 L 609.12 339.47 L 613.31 337.14 L 617.49 344.36 L 621.68 337.89 L 625.87 341.77 L 630.06 347.45 L 634.25 349.74 L 638.44 345.11 L 642.63 340.31 L 646.82 341.94 L 651.01 347.11 L 655.20 348.82 L 659.39 342.44 L 663.58 345.49 L 667.77 338.22 L 671.96 325.66 L 676.15 311.68 L 680.34 316.48 L 684.53 328.16 L 688.72 338.77 L 692.91 348.32 L 697.09 352.37 L 701.28 359.47 L 705.47 362.51 L 709.66 362.01 L 713.85 361.39 L 718.04 368.52 L 722.23 363.52 L 726.42 365.35 L 730.61 365.60 L 734.80 367.65 L 738.99 363.27 L 743.18 357.84 L 747.37 353.58 L 751.56 352.20 L 755.75 355.50 L 759.94 358.13 L 764.13 356.17 L 768.32 354.21 L 772.51 353.50 L 776.69 342.19 L 780.88 349.99 L 785.07 358.92 L 789.26 369.53 L 793.45 366.81 L 797.64 365.14 L 801.83 357.51 L 806.02 363.39 L 810.21 364.94 L 814.40 363.22 L 818.59 353.42 L 822.78 353.12 L 826.97 356.13 L 831.16 363.56 L 835.35 364.68 L 839.54 357.00 L 843.73 350.20 L 847.92 344.11 L 852.11 338.51 L 856.29 353.21 L 860.48 364.48 L 864.67 370.74 L 868.86 390.48 L 873.05 385.85 L 877.24 399.91 L 881.43 400.54 L 885.62 403.29 L 889.81 408.68 L 894.00 409.22 L 898.19 405.88 L 902.38 395.82 L 906.57 379.29 L 910.76 375.91 L 914.95 377.87 L 919.14 388.85 L 923.33 386.18 L 927.52 387.01 L 931.71 384.72 L 935.89 382.05 L 940.08 384.26 L 944.27 386.72 L 948.46 391.98 L 952.65 389.56 L 956.84 388.27 L 961.03 381.71 L 965.22 391.86 L 969.41 397.70 L 973.60 388.89 L 977.79 389.73 L 981.98 387.47 L 986.17 390.44 L 990.36 395.36 L 994.55 404.04 L 998.74 399.08 L 1002.93 404.71 L 1007.12 402.46 L 1011.31 399.91 L 1015.49 396.07 L 1019.68 393.57 L 1023.87 396.16 L 1028.06 397.41 L 1032.25 392.77 L 1036.44 390.52 L 1040.63 393.98 L 1044.82 401.33 L 1049.01 401.79 L 1053.20 407.51 L 1057.39 409.05 L 1061.58 414.85 L 1065.77 425.33 L 1069.96 419.61 L 1074.15 419.82 L 1078.34 419.15 L 1082.53 409.18 L 1086.72 406.05 L 1090.91 403.75 L 1095.09 403.79 L 1099.28 407.72 L 1103.47 410.22 L 1107.66 408.05 L 1111.85 409.89 L 1116.04 410.14 L 1120.23 412.02 L 1124.42 421.74 L 1128.61 412.56 L 1132.80 399.66 L 1136.99 399.62 L 1141.18 384.72 L 1145.37 383.63 L 1149.56 394.65 L 1153.75 394.90 L 1157.94 395.03 L 1162.13 392.40 L 1166.32 387.31 L 1170.51 389.85 L 1174.69 384.30 L 1178.88 382.92 L 1183.07 377.00 L 1187.26 369.53 L 1191.45 357.26 L 1195.64 354.12 L 1199.83 376.20 L 1204.02 369.90 L 1208.21 364.06 L 1212.40 365.27 L 1216.59 360.89 L 1220.78 363.81 L 1224.97 359.38 L 1229.16 353.37 L 1233.35 361.26 L 1237.54 369.44 L 1241.73 337.55 L 1245.92 345.03 L 1250.11 343.69 L 1254.29 339.02 L 1258.48 296.99 L 1262.67 280.04 L 1266.86 273.15 L 1271.05 258.38 L 1275.24 220.48 L 1279.43 158.79 L 1283.62 200.86 L 1287.81 196.40 L 1292.00 136.08" fill="none" stroke="#0f766e" stroke-width="2"  />
<path d="M 98.00 340.34 L 102.19 331.14 L 106.38 334.42 L 110.57 324.70 L 114.76 328.05 L 118.95 325.81 L 123.14 327.95 L 127.33 299.56 L 131.52 304.37 L 135.71 290.13 L 139.89 293.67 L 144.08 292.12 L 148.27 292.00 L 152.46 297.89 L 156.65 306.31 L 160.84 311.61 L 165.03 314.29 L 169.22 320.18 L 173.41 332.61 L 177.60 337.19 L 181.79 338.03 L 185.98 333.80 L 190.17 326.32 L 194.36 331.15 L 198.55 326.69 L 202.74 338.37 L 206.93 337.46 L 211.12 335.90 L 215.31 327.85 L 219.49 325.72 L 223.68 332.38 L 227.87 334.74 L 232.06 337.02 L 236.25 348.14 L 240.44 345.93 L 244.63 347.15 L 248.82 350.40 L 253.01 353.49 L 257.20 368.45 L 261.39 376.01 L 265.58 373.62 L 269.77 369.52 L 273.96 373.60 L 278.15 367.86 L 282.34 371.66 L 286.53 367.57 L 290.72 364.93 L 294.91 366.20 L 299.09 362.76 L 303.28 361.69 L 307.47 359.92 L 311.66 352.48 L 315.85 353.27 L 320.04 350.81 L 324.23 347.53 L 328.42 350.42 L 332.61 344.39 L 336.80 341.68 L 340.99 332.26 L 345.18 353.09 L 349.37 423.49 L 353.56 425.77 L 357.75 402.96 L 361.94 439.43 L 366.13 417.71 L 370.32 418.83 L 374.51 415.79 L 378.69 411.12 L 382.88 408.02 L 387.07 395.56 L 391.26 392.74 L 395.45 395.58 L 399.64 401.53 L 403.83 399.32 L 408.02 401.77 L 412.21 400.44 L 416.40 409.79 L 420.59 417.91 L 424.78 434.03 L 428.97 427.68 L 433.16 423.74 L 437.35 423.87 L 441.54 412.46 L 445.73 404.00 L 449.92 405.73 L 454.11 406.30 L 458.29 413.54 L 462.48 409.77 L 466.67 409.41 L 470.86 412.64 L 475.05 411.09 L 479.24 415.41 L 483.43 411.92 L 487.62 412.09 L 491.81 415.70 L 496.00 415.19 L 500.19 414.14 L 504.38 413.43 L 508.57 404.75 L 512.76 404.26 L 516.95 398.12 L 521.14 390.03 L 525.33 391.14 L 529.52 373.27 L 533.71 377.63 L 537.89 343.86 L 542.08 309.37 L 546.27 320.01 L 550.46 319.07 L 554.65 313.22 L 558.84 301.98 L 563.03 354.97 L 567.22 328.89 L 571.41 361.16 L 575.60 359.29 L 579.79 361.36 L 583.98 360.69 L 588.17 361.68 L 592.36 356.00 L 596.55 355.15 L 600.74 349.04 L 604.93 349.73 L 609.12 344.51 L 613.31 339.18 L 617.49 341.44 L 621.68 339.23 L 625.87 336.32 L 630.06 342.48 L 634.25 347.53 L 638.44 346.39 L 642.63 346.01 L 646.82 337.12 L 651.01 342.59 L 655.20 347.78 L 659.39 346.34 L 663.58 345.69 L 667.77 335.58 L 671.96 328.31 L 676.15 321.18 L 680.34 314.94 L 684.53 322.30 L 688.72 336.16 L 692.91 341.57 L 697.09 352.10 L 701.28 354.07 L 705.47 359.41 L 709.66 362.32 L 713.85 364.56 L 718.04 363.49 L 722.23 364.03 L 726.42 366.42 L 730.61 364.73 L 734.80 368.24 L 738.99 363.71 L 743.18 361.17 L 747.37 356.24 L 751.56 349.30 L 755.75 357.02 L 759.94 353.38 L 764.13 357.47 L 768.32 357.11 L 772.51 352.82 L 776.69 352.65 L 780.88 347.44 L 785.07 351.93 L 789.26 363.61 L 793.45 373.40 L 797.64 365.97 L 801.83 360.18 L 806.02 362.48 L 810.21 361.76 L 814.40 363.11 L 818.59 359.08 L 822.78 355.81 L 826.97 353.82 L 831.16 359.13 L 835.35 366.39 L 839.54 359.31 L 843.73 351.97 L 847.92 347.99 L 852.11 343.38 L 856.29 343.21 L 860.48 355.35 L 864.67 372.10 L 868.86 381.02 L 873.05 396.88 L 877.24 390.66 L 881.43 401.02 L 885.62 405.04 L 889.81 402.95 L 894.00 410.63 L 898.19 408.24 L 902.38 397.10 L 906.57 386.39 L 910.76 379.38 L 914.95 373.92 L 919.14 383.21 L 923.33 387.08 L 927.52 386.33 L 931.71 384.00 L 935.89 382.50 L 940.08 384.42 L 944.27 386.86 L 948.46 387.32 L 952.65 390.96 L 956.84 386.97 L 961.03 384.73 L 965.22 390.48 L 969.41 392.09 L 973.60 392.25 L 977.79 384.55 L 981.98 385.69 L 986.17 392.52 L 990.36 392.39 L 994.55 398.16 L 998.74 405.65 L 1002.93 403.65 L 1007.12 402.64 L 1011.31 402.37 L 1015.49 400.03 L 1019.68 393.83 L 1023.87 396.23 L 1028.06 394.98 L 1032.25 395.20 L 1036.44 391.05 L 1040.63 391.75 L 1044.82 395.70 L 1049.01 399.16 L 1053.20 405.89 L 1057.39 408.97 L 1061.58 411.32 L 1065.77 420.10 L 1069.96 419.96 L 1074.15 422.31 L 1078.34 417.37 L 1082.53 415.49 L 1086.72 408.29 L 1090.91 406.96 L 1095.09 403.52 L 1099.28 403.56 L 1103.47 406.81 L 1107.66 410.49 L 1111.85 409.50 L 1116.04 408.44 L 1120.23 414.37 L 1124.42 413.11 L 1128.61 411.25 L 1132.80 412.27 L 1136.99 392.08 L 1141.18 394.44 L 1145.37 386.85 L 1149.56 387.05 L 1153.75 392.40 L 1157.94 395.46 L 1162.13 394.71 L 1166.32 387.16 L 1170.51 390.87 L 1174.69 383.55 L 1178.88 383.25 L 1183.07 376.38 L 1187.26 374.42 L 1191.45 361.63 L 1195.64 355.32 L 1199.83 374.65 L 1204.02 370.42 L 1208.21 368.15 L 1212.40 366.55 L 1216.59 363.71 L 1220.78 357.74 L 1224.97 363.35 L 1229.16 356.25 L 1233.35 359.54 L 1237.54 360.59 L 1241.73 348.61 L 1245.92 339.78 L 1250.11 345.32 L 1254.29 335.61 L 1258.48 296.55 L 1262.67 285.44 L 1266.86 276.66 L 1271.05 258.73 L 1275.24 206.56 L 1279.43 212.68 L 1283.62 156.38 L 1287.81 197.36 L 1292.00 154.40" fill="none" stroke="#1d4ed8" stroke-width="2"  />
<path d="M 98.00 344.43 L 102.19 336.68 L 106.38 334.98 L 110.57 328.51 L 114.76 326.17 L 118.95 325.38 L 123.14 327.05 L 127.33 312.18 L 131.52 303.05 L 135.71 300.10 L 139.89 290.89 L 144.08 291.77 L 148.27 291.14 L 152.46 296.66 L 156.65 304.68 L 160.84 309.46 L 165.03 314.36 L 169.22 316.85 L 173.41 325.62 L 177.60 336.65 L 181.79 339.79 L 185.98 338.51 L 190.17 330.21 L 194.36 325.81 L 198.55 327.09 L 202.74 335.98 L 206.93 336.08 L 211.12 335.95 L 215.31 330.69 L 219.49 326.46 L 223.68 326.48 L 227.87 333.20 L 232.06 332.54 L 236.25 347.24 L 240.44 351.93 L 244.63 347.49 L 248.82 347.48 L 253.01 352.58 L 257.20 363.82 L 261.39 374.90 L 265.58 376.65 L 269.77 370.98 L 273.96 374.82 L 278.15 373.54 L 282.34 367.93 L 286.53 370.13 L 290.72 367.38 L 294.91 364.74 L 299.09 364.39 L 303.28 366.58 L 307.47 360.84 L 311.66 356.87 L 315.85 353.81 L 320.04 353.75 L 324.23 348.37 L 328.42 348.86 L 332.61 351.24 L 336.80 342.05 L 340.99 335.15 L 345.18 335.54 L 349.37 367.81 L 353.56 419.87 L 357.75 423.23 L 361.94 433.13 L 366.13 420.12 L 370.32 420.34 L 374.51 415.60 L 378.69 414.58 L 382.88 411.88 L 387.07 395.14 L 391.26 393.68 L 395.45 399.10 L 399.64 398.32 L 403.83 401.05 L 408.02 403.49 L 412.21 400.23 L 416.40 406.10 L 420.59 412.55 L 424.78 428.54 L 428.97 425.30 L 433.16 431.02 L 437.35 426.53 L 441.54 418.85 L 445.73 408.66 L 449.92 404.10 L 454.11 404.29 L 458.29 415.03 L 462.48 413.03 L 466.67 410.15 L 470.86 410.18 L 475.05 410.25 L 479.24 417.06 L 483.43 413.49 L 487.62 411.65 L 491.81 417.12 L 496.00 413.67 L 500.19 413.99 L 504.38 423.99 L 508.57 403.14 L 512.76 405.44 L 516.95 402.51 L 521.14 396.46 L 525.33 390.46 L 529.52 385.34 L 533.71 378.12 L 537.89 367.01 L 542.08 328.05 L 546.27 335.65 L 550.46 320.32 L 554.65 313.38 L 558.84 302.18 L 563.03 309.46 L 567.22 317.49 L 571.41 361.94 L 575.60 360.37 L 579.79 360.51 L 583.98 362.73 L 588.17 364.47 L 592.36 361.16 L 596.55 354.29 L 600.74 348.70 L 604.93 350.79 L 609.12 346.69 L 613.31 340.01 L 617.49 337.96 L 621.68 344.48 L 625.87 338.75 L 630.06 342.37 L 634.25 347.98 L 638.44 350.06 L 642.63 345.68 L 646.82 340.89 L 651.01 342.51 L 655.20 347.64 L 659.39 349.18 L 663.58 343.21 L 667.77 345.50 L 671.96 338.21 L 676.15 325.95 L 680.34 312.52 L 684.53 317.48 L 688.72 328.96 L 692.91 339.51 L 697.09 349.09 L 701.28 352.97 L 705.47 359.98 L 709.66 362.92 L 713.85 362.67 L 718.04 361.99 L 722.23 368.75 L 726.42 364.21 L 730.61 365.76 L 734.80 366.27 L 738.99 367.89 L 743.18 363.63 L 747.37 358.25 L 751.56 353.87 L 755.75 353.06 L 759.94 355.89 L 764.13 358.52 L 768.32 356.75 L 772.51 353.30 L 776.69 352.59 L 780.88 343.10 L 785.07 350.65 L 789.26 359.74 L 793.45 369.93 L 797.64 367.24 L 801.83 365.36 L 806.02 358.35 L 810.21 363.80 L 814.40 365.26 L 818.59 363.45 L 822.78 354.07 L 826.97 353.70 L 831.16 356.87 L 835.35 364.07 L 839.54 364.86 L 843.73 357.25 L 847.92 350.59 L 852.11 344.62 L 856.29 339.53 L 860.48 353.88 L 864.67 365.22 L 868.86 371.86 L 873.05 390.76 L 877.24 386.62 L 881.43 400.38 L 885.62 401.25 L 889.81 403.72 L 894.00 409.18 L 898.19 409.59 L 902.38 405.87 L 906.57 395.78 L 910.76 379.78 L 914.95 376.43 L 919.14 378.70 L 923.33 389.23 L 927.52 386.69 L 931.71 387.33 L 935.89 385.16 L 940.08 382.69 L 944.27 384.93 L 948.46 387.22 L 952.65 392.39 L 956.84 389.95 L 961.03 388.53 L 965.22 382.78 L 969.41 392.30 L 973.60 397.85 L 977.79 389.40 L 981.98 389.98 L 986.17 388.28 L 990.36 391.05 L 994.55 396.01 L 998.74 404.28 L 1002.93 399.79 L 1007.12 405.02 L 1011.31 401.62 L 1015.49 399.07 L 1019.68 396.54 L 1023.87 394.22 L 1028.06 396.54 L 1032.25 397.75 L 1036.44 393.14 L 1040.63 391.29 L 1044.82 394.58 L 1049.01 401.66 L 1053.20 402.52 L 1057.39 408.06 L 1061.58 409.70 L 1065.77 415.67 L 1069.96 425.41 L 1074.15 420.23 L 1078.34 420.10 L 1082.53 419.26 L 1086.72 409.54 L 1090.91 406.54 L 1095.09 402.92 L 1099.28 402.96 L 1103.47 407.96 L 1107.66 410.66 L 1111.85 408.63 L 1116.04 410.13 L 1120.23 410.93 L 1124.42 412.58 L 1128.61 421.60 L 1132.80 412.98 L 1136.99 399.94 L 1141.18 399.73 L 1145.37 385.38 L 1149.56 384.40 L 1153.75 395.01 L 1157.94 394.06 L 1162.13 394.18 L 1166.32 392.57 L 1170.51 388.08 L 1174.69 389.91 L 1178.88 384.87 L 1183.07 382.98 L 1187.26 377.30 L 1191.45 369.53 L 1195.64 357.69 L 1199.83 355.45 L 1204.02 376.28 L 1208.21 370.31 L 1212.40 364.79 L 1216.59 365.70 L 1220.78 361.17 L 1224.97 364.29 L 1229.16 359.73 L 1233.35 354.38 L 1237.54 361.78 L 1241.73 369.00 L 1245.92 338.25 L 1250.11 345.51 L 1254.29 343.76 L 1258.48 338.45 L 1262.67 296.95 L 1266.86 280.40 L 1271.05 272.94 L 1275.24 256.90 L 1279.43 221.78 L 1283.62 159.16 L 1287.81 201.14 L 1292.00 195.14" fill="none" stroke="#b45309" stroke-width="2" stroke-dasharray="6 4" />
  </g>
  <g>
    <text x="54" y="538" fill="#1f2937" font-size="16" font-weight="700">B. 绝对误差（越低越好）</text>
    <line x1="98" y1="540" x2="124" y2="540" stroke="#1d4ed8" stroke-width="2"  />
      <text x="130" y="544" fill="#24312e" font-size="12">持仓分段误差</text>
<line x1="313" y1="540" x2="339" y2="540" stroke="#b45309" stroke-width="2" stroke-dasharray="6 4" />
      <text x="345" y="544" fill="#24312e" font-size="12">持仓双目标误差</text>
    <line x1="98" y1="560.00" x2="1292" y2="560.00" stroke="#d7e3df" stroke-width="1" />
      <text x="90" y="564.00" text-anchor="end" fill="#5b6b68" font-size="11">10.70%</text>
<line x1="98" y1="630.00" x2="1292" y2="630.00" stroke="#d7e3df" stroke-width="1" />
      <text x="90" y="634.00" text-anchor="end" fill="#5b6b68" font-size="11">8.03%</text>
<line x1="98" y1="700.00" x2="1292" y2="700.00" stroke="#d7e3df" stroke-width="1" />
      <text x="90" y="704.00" text-anchor="end" fill="#5b6b68" font-size="11">5.35%</text>
<line x1="98" y1="770.00" x2="1292" y2="770.00" stroke="#d7e3df" stroke-width="1" />
      <text x="90" y="774.00" text-anchor="end" fill="#5b6b68" font-size="11">2.68%</text>
<line x1="98" y1="840.00" x2="1292" y2="840.00" stroke="#d7e3df" stroke-width="1" />
      <text x="90" y="844.00" text-anchor="end" fill="#5b6b68" font-size="11">0.00%</text>
    <line x1="98.00" y1="560" x2="98.00" y2="840" stroke="#eef3f1" stroke-width="1" />
      <text x="98.00" y="868" text-anchor="middle" fill="#5b6b68" font-size="11">25-01-02</text>
<line x1="290.72" y1="560" x2="290.72" y2="840" stroke="#eef3f1" stroke-width="1" />
      <text x="290.72" y="868" text-anchor="middle" fill="#5b6b68" font-size="11">25-03-17</text>
<line x1="479.24" y1="560" x2="479.24" y2="840" stroke="#eef3f1" stroke-width="1" />
      <text x="479.24" y="868" text-anchor="middle" fill="#5b6b68" font-size="11">25-05-23</text>
<line x1="697.09" y1="560" x2="697.09" y2="840" stroke="#eef3f1" stroke-width="1" />
      <text x="697.09" y="868" text-anchor="middle" fill="#5b6b68" font-size="11">25-08-06</text>
<line x1="910.76" y1="560" x2="910.76" y2="840" stroke="#eef3f1" stroke-width="1" />
      <text x="910.76" y="868" text-anchor="middle" fill="#5b6b68" font-size="11">25-10-24</text>
<line x1="1099.28" y1="560" x2="1099.28" y2="840" stroke="#eef3f1" stroke-width="1" />
      <text x="1099.28" y="868" text-anchor="middle" fill="#5b6b68" font-size="11">25-12-26</text>
<line x1="1292.00" y1="560" x2="1292.00" y2="840" stroke="#eef3f1" stroke-width="1" />
      <text x="1292.00" y="868" text-anchor="middle" fill="#5b6b68" font-size="11">26-03-12</text>
    <line x1="1116.04" y1="560" x2="1116.04" y2="840" stroke="#f59e0b" stroke-width="1.4" stroke-dasharray="4 4" />
       <text x="1122.04" y="552" fill="#a16207" font-size="11">验证起点</text>
    <path d="M 98.00 823.05 L 102.19 826.47 L 106.38 813.83 L 110.57 836.85 L 114.76 832.80 L 118.95 830.83 L 123.14 774.62 L 127.33 828.72 L 131.52 822.78 L 135.71 839.71 L 139.89 829.83 L 144.08 839.92 L 148.27 817.44 L 152.46 815.38 L 156.65 830.42 L 160.84 830.69 L 165.03 833.06 L 169.22 821.00 L 173.41 825.60 L 177.60 830.78 L 181.79 838.84 L 185.98 823.52 L 190.17 833.96 L 194.36 820.90 L 198.55 803.37 L 202.74 834.21 L 206.93 837.55 L 211.12 816.26 L 215.31 832.24 L 219.49 838.88 L 223.68 838.25 L 227.87 826.91 L 232.06 798.46 L 236.25 824.52 L 240.44 835.62 L 244.63 837.51 L 248.82 832.87 L 253.01 798.13 L 257.20 813.24 L 261.39 838.37 L 265.58 824.82 L 269.77 817.69 L 273.96 838.77 L 278.15 836.98 L 282.34 831.57 L 286.53 837.37 L 290.72 836.49 L 294.91 829.92 L 299.09 823.99 L 303.28 834.08 L 307.47 825.40 L 311.66 836.48 L 315.85 839.53 L 320.04 827.28 L 324.23 837.10 L 328.42 836.43 L 332.61 827.57 L 336.80 810.73 L 340.99 833.13 L 345.18 782.39 L 349.37 817.31 L 353.56 829.60 L 357.75 692.84 L 361.94 744.19 L 366.13 829.03 L 370.32 821.87 L 374.51 833.24 L 378.69 836.88 L 382.88 783.49 L 387.07 835.14 L 391.26 811.47 L 395.45 830.59 L 399.64 835.91 L 403.83 821.91 L 408.02 829.22 L 412.21 817.00 L 416.40 831.24 L 420.59 788.01 L 424.78 793.42 L 428.97 823.34 L 433.16 827.32 L 437.35 814.27 L 441.54 821.40 L 445.73 837.45 L 449.92 829.79 L 454.11 799.27 L 458.29 835.64 L 462.48 839.78 L 466.67 839.54 L 470.86 825.76 L 475.05 812.27 L 479.24 834.65 L 483.43 837.29 L 487.62 817.14 L 491.81 827.20 L 496.00 831.68 L 500.19 790.63 L 504.38 788.25 L 508.57 838.38 L 512.76 830.87 L 516.95 830.59 L 521.14 839.36 L 525.33 814.08 L 529.52 820.02 L 533.71 795.02 L 537.89 770.37 L 542.08 727.62 L 546.27 839.01 L 550.46 820.66 L 554.65 799.50 L 558.84 817.27 L 563.03 680.69 L 567.22 695.95 L 571.41 834.56 L 575.60 837.20 L 579.79 836.19 L 583.98 824.65 L 588.17 837.03 L 592.36 830.00 L 596.55 816.03 L 600.74 828.41 L 604.93 825.11 L 609.12 818.55 L 613.31 831.34 L 617.49 827.47 L 621.68 834.31 L 625.87 816.67 L 630.06 818.54 L 634.25 830.40 L 638.44 834.47 L 642.63 815.65 L 646.82 819.39 L 651.01 820.49 L 655.20 835.46 L 659.39 823.29 L 663.58 839.10 L 667.77 828.74 L 671.96 828.94 L 676.15 801.26 L 680.34 833.70 L 684.53 815.46 L 688.72 828.89 L 692.91 810.77 L 697.09 838.83 L 701.28 816.21 L 705.47 826.24 L 709.66 838.65 L 713.85 825.97 L 718.04 817.49 L 722.23 837.73 L 726.42 835.25 L 730.61 836.12 L 734.80 837.35 L 738.99 838.04 L 743.18 825.37 L 747.37 828.38 L 751.56 827.34 L 755.75 833.34 L 759.94 819.10 L 764.13 834.29 L 768.32 827.34 L 772.51 837.02 L 776.69 795.20 L 780.88 828.92 L 785.07 809.21 L 789.26 813.47 L 793.45 810.60 L 797.64 836.33 L 801.83 828.24 L 806.02 835.97 L 810.21 825.86 L 814.40 839.50 L 818.59 815.30 L 822.78 828.30 L 826.97 829.87 L 831.16 820.35 L 835.35 832.42 L 839.54 829.86 L 843.73 832.32 L 847.92 823.34 L 852.11 819.28 L 856.29 796.39 L 860.48 799.44 L 864.67 833.86 L 868.86 796.00 L 873.05 789.11 L 877.24 796.24 L 881.43 837.73 L 885.62 831.70 L 889.81 812.50 L 894.00 833.23 L 898.19 828.70 L 902.38 834.00 L 906.57 807.63 L 910.76 824.30 L 914.95 822.00 L 919.14 813.84 L 923.33 835.82 L 927.52 836.86 L 931.71 836.67 L 935.89 837.95 L 940.08 839.25 L 944.27 839.36 L 948.46 818.27 L 952.65 833.51 L 956.84 833.99 L 961.03 826.17 L 965.22 833.59 L 969.41 813.58 L 973.60 824.41 L 977.79 815.95 L 981.98 831.76 L 986.17 830.33 L 990.36 826.06 L 994.55 811.95 L 998.74 808.96 L 1002.93 834.95 L 1007.12 839.12 L 1011.31 828.40 L 1015.49 821.42 L 1019.68 838.79 L 1023.87 839.67 L 1028.06 828.58 L 1032.25 828.68 L 1036.44 837.51 L 1040.63 829.55 L 1044.82 813.31 L 1049.01 827.50 L 1053.20 832.26 L 1057.39 839.60 L 1061.58 822.83 L 1065.77 814.09 L 1069.96 838.27 L 1074.15 827.78 L 1078.34 831.28 L 1082.53 809.62 L 1086.72 829.29 L 1090.91 824.70 L 1095.09 838.68 L 1099.28 820.06 L 1103.47 823.56 L 1107.66 828.30 L 1111.85 838.14 L 1116.04 831.81 L 1120.23 828.60 L 1124.42 797.51 L 1128.61 833.67 L 1132.80 780.38 L 1136.99 804.35 L 1141.18 795.26 L 1145.37 825.20 L 1149.56 804.38 L 1153.75 828.25 L 1157.94 837.99 L 1162.13 829.22 L 1166.32 839.34 L 1170.51 835.28 L 1174.69 836.54 L 1178.88 838.49 L 1183.07 837.17 L 1187.26 818.05 L 1191.45 820.81 L 1195.64 834.76 L 1199.83 832.96 L 1204.02 837.67 L 1208.21 821.84 L 1212.40 834.30 L 1216.59 827.52 L 1220.78 813.04 L 1224.97 822.54 L 1229.16 827.43 L 1233.35 832.40 L 1237.54 800.30 L 1241.73 793.02 L 1245.92 817.45 L 1250.11 833.02 L 1254.29 825.49 L 1258.48 838.27 L 1262.67 818.99 L 1266.86 826.52 L 1271.05 838.68 L 1275.24 790.30 L 1279.43 662.51 L 1283.62 685.31 L 1287.81 836.66 L 1292.00 781.35" fill="none" stroke="#1d4ed8" stroke-width="2"  />
<path d="M 98.00 805.72 L 102.19 830.09 L 106.38 811.48 L 110.57 827.27 L 114.76 839.34 L 118.95 829.03 L 123.14 778.31 L 127.33 800.56 L 131.52 828.08 L 135.71 800.38 L 139.89 839.17 L 144.08 838.52 L 148.27 814.01 L 152.46 810.42 L 156.65 823.79 L 160.84 821.85 L 165.03 833.35 L 169.22 807.13 L 173.41 795.96 L 177.60 828.50 L 181.79 833.68 L 185.98 803.76 L 190.17 817.74 L 194.36 836.80 L 198.55 805.07 L 202.74 835.61 L 206.93 836.56 L 211.12 816.06 L 215.31 820.42 L 219.49 835.78 L 223.68 813.37 L 227.87 833.38 L 232.06 779.13 L 236.25 820.58 L 240.44 818.47 L 244.63 836.03 L 248.82 820.15 L 253.01 794.11 L 257.20 792.30 L 261.39 833.34 L 265.58 811.19 L 269.77 824.29 L 273.96 833.23 L 278.15 811.64 L 282.34 831.74 L 286.53 825.95 L 290.72 825.63 L 294.91 836.42 L 299.09 831.23 L 303.28 812.46 L 307.47 821.36 L 311.66 824.37 L 315.85 838.10 L 320.04 814.54 L 324.23 839.28 L 328.42 829.64 L 332.61 798.25 L 336.80 809.16 L 340.99 834.65 L 345.18 704.17 L 349.37 590.00 L 353.56 821.26 L 357.75 794.64 L 361.94 775.10 L 366.13 839.15 L 370.32 814.52 L 374.51 834.15 L 378.69 826.39 L 382.88 765.38 L 387.07 837.12 L 391.26 815.90 L 395.45 832.79 L 399.64 828.88 L 403.83 830.12 L 408.02 821.12 L 412.21 816.01 L 416.40 813.42 L 420.59 761.32 L 424.78 820.60 L 428.97 811.42 L 433.16 816.53 L 437.35 801.21 L 441.54 790.73 L 445.73 815.27 L 449.92 837.54 L 454.11 789.48 L 458.29 828.44 L 462.48 824.07 L 466.67 836.91 L 470.86 837.57 L 475.05 808.16 L 479.24 826.65 L 483.43 835.07 L 487.62 815.02 L 491.81 820.33 L 496.00 839.07 L 500.19 789.89 L 504.38 738.10 L 508.57 830.71 L 512.76 825.22 L 516.95 809.95 L 521.14 809.50 L 525.33 817.21 L 529.52 805.09 L 533.71 792.83 L 537.89 673.62 L 542.08 806.80 L 546.27 774.43 L 550.46 815.54 L 554.65 798.88 L 558.84 818.07 L 563.03 812.38 L 567.22 645.53 L 571.41 831.11 L 575.60 838.04 L 579.79 832.44 L 583.98 833.72 L 588.17 824.71 L 592.36 807.47 L 596.55 819.73 L 600.74 826.93 L 604.93 820.55 L 609.12 809.26 L 613.31 827.81 L 617.49 812.52 L 621.68 811.99 L 625.87 827.07 L 630.06 818.05 L 634.25 832.36 L 638.44 818.71 L 642.63 817.07 L 646.82 835.52 L 651.01 820.14 L 655.20 834.85 L 659.39 811.10 L 663.58 830.19 L 667.77 809.02 L 671.96 787.66 L 676.15 781.77 L 680.34 823.72 L 684.53 795.26 L 688.72 798.24 L 692.91 801.89 L 697.09 825.69 L 701.28 811.35 L 705.47 828.76 L 709.66 835.98 L 713.85 834.31 L 718.04 810.74 L 722.23 816.78 L 726.42 834.93 L 730.61 839.30 L 734.80 833.85 L 738.99 819.48 L 743.18 814.53 L 747.37 819.63 L 751.56 832.74 L 755.75 829.31 L 759.94 830.15 L 764.13 829.70 L 768.32 828.90 L 772.51 839.13 L 776.69 795.46 L 780.88 810.09 L 785.07 803.59 L 789.26 796.11 L 793.45 826.09 L 797.64 830.69 L 801.83 805.48 L 806.02 817.66 L 810.21 834.94 L 814.40 830.96 L 818.59 796.23 L 822.78 835.86 L 826.97 829.36 L 831.16 810.34 L 835.35 837.27 L 839.54 805.51 L 843.73 809.42 L 847.92 812.15 L 852.11 813.99 L 856.29 780.35 L 860.48 792.92 L 864.67 815.23 L 868.86 753.41 L 873.05 817.31 L 877.24 777.15 L 881.43 839.27 L 885.62 830.30 L 889.81 816.18 L 894.00 839.83 L 898.19 822.27 L 902.38 792.83 L 906.57 764.84 L 910.76 822.46 L 914.95 833.44 L 919.14 792.95 L 923.33 825.94 L 927.52 838.51 L 931.71 828.00 L 935.89 825.74 L 940.08 832.79 L 944.27 831.71 L 948.46 817.82 L 952.65 826.86 L 956.84 832.22 L 961.03 808.79 L 965.22 797.69 L 969.41 814.58 L 973.60 798.44 L 977.79 838.47 L 981.98 828.41 L 986.17 829.99 L 990.36 819.79 L 994.55 801.71 L 998.74 815.44 L 1002.93 816.50 L 1007.12 827.83 L 1011.31 831.91 L 1015.49 825.91 L 1019.68 826.09 L 1023.87 830.92 L 1028.06 835.91 L 1032.25 816.78 L 1036.44 827.81 L 1040.63 827.41 L 1044.82 807.99 L 1049.01 839.37 L 1053.20 816.10 L 1057.39 835.21 L 1061.58 814.95 L 1065.77 792.11 L 1069.96 811.58 L 1074.15 837.99 L 1078.34 835.37 L 1082.53 791.49 L 1086.72 823.32 L 1090.91 826.72 L 1095.09 835.83 L 1099.28 817.18 L 1103.47 829.12 L 1107.66 827.49 L 1111.85 833.92 L 1116.04 839.97 L 1120.23 834.75 L 1124.42 794.91 L 1128.61 796.22 L 1132.80 777.04 L 1136.99 838.48 L 1141.18 770.90 L 1145.37 831.96 L 1149.56 791.95 L 1153.75 839.50 L 1157.94 835.44 L 1162.13 831.68 L 1166.32 815.67 L 1170.51 831.76 L 1174.69 814.23 L 1178.88 831.09 L 1183.07 812.85 L 1187.26 805.15 L 1191.45 786.11 L 1195.64 824.44 L 1199.83 745.89 L 1204.02 811.41 L 1208.21 812.22 L 1212.40 837.88 L 1216.59 818.76 L 1220.78 828.28 L 1224.97 818.36 L 1229.16 812.28 L 1233.35 809.58 L 1237.54 805.66 L 1241.73 706.35 L 1245.92 810.85 L 1250.11 832.20 L 1254.29 819.81 L 1258.48 674.69 L 1262.67 774.26 L 1266.86 812.10 L 1271.05 785.17 L 1275.24 709.96 L 1279.43 632.54 L 1283.62 694.96 L 1287.81 823.61 L 1292.00 650.91" fill="none" stroke="#b45309" stroke-width="2" stroke-dasharray="6 4" />
  </g>
</svg>