<?xml version="1.0" encoding="UTF-8"?>
<svg xmlns="http://www.w3.org/2000/svg" width="1360" height="980" viewBox="0 0 1360 980">
  <defs>
    <linearGradient id="bg" x1="0" y1="0" x2="1" y2="1">
      <stop offset="0%" stop-color="#f4efe6" />
      <stop offset="100%" stop-color="#eef5f2" />
    </linearGradient>
  </defs>
  <rect x="0" y="0" width="1360" height="980" fill="url(#bg)" />
  <text x="46" y="36" fill="#1f2937" font-size="31" font-weight="700">长盛沪深300指数(LOF)A(160807)（160807）离线研究图（持仓逐日估值版）</text>
  <text x="46" y="66" fill="#5b6b68" font-size="13">历史前十大持仓 + 持仓逐日涨跌幅 + USDCNY；双目标 lambda=0.10；披露期数 43；覆盖率均值 19.9%</text>
  <g>
    <text x="54" y="110" fill="#1f2937" font-size="16" font-weight="700">A. 净值拟合（同日对齐，无平移）</text>
    <line x1="98" y1="130" x2="124" y2="130" stroke="#0f766e" stroke-width="2"  />
      <text x="130" y="134" fill="#24312e" font-size="12">真实净值</text>
<line x1="313" y1="130" x2="339" y2="130" stroke="#1d4ed8" stroke-width="2"  />
      <text x="345" y="134" fill="#24312e" font-size="12">持仓分段估值</text>
    <line x1="98" y1="132.00" x2="1292" y2="132.00" stroke="#d7e3df" stroke-width="1" />
      <text x="90" y="136.00" text-anchor="end" fill="#5b6b68" font-size="11">1.943</text>
<line x1="98" y1="209.50" x2="1292" y2="209.50" stroke="#d7e3df" stroke-width="1" />
      <text x="90" y="213.50" text-anchor="end" fill="#5b6b68" font-size="11">1.814</text>
<line x1="98" y1="287.00" x2="1292" y2="287.00" stroke="#d7e3df" stroke-width="1" />
      <text x="90" y="291.00" text-anchor="end" fill="#5b6b68" font-size="11">1.685</text>
<line x1="98" y1="364.50" x2="1292" y2="364.50" stroke="#d7e3df" stroke-width="1" />
      <text x="90" y="368.50" text-anchor="end" fill="#5b6b68" font-size="11">1.556</text>
<line x1="98" y1="442.00" x2="1292" y2="442.00" stroke="#d7e3df" stroke-width="1" />
      <text x="90" y="446.00" text-anchor="end" fill="#5b6b68" font-size="11">1.427</text>
    <line x1="98.00" y1="132" x2="98.00" y2="442" stroke="#eef3f1" stroke-width="1" />
      <text x="98.00" y="470" text-anchor="middle" fill="#5b6b68" font-size="11">25-01-02</text>
<line x1="290.18" y1="132" x2="290.18" y2="442" stroke="#eef3f1" stroke-width="1" />
      <text x="290.18" y="470" text-anchor="middle" fill="#5b6b68" font-size="11">25-03-18</text>
<line x1="478.28" y1="132" x2="478.28" y2="442" stroke="#eef3f1" stroke-width="1" />
      <text x="478.28" y="470" text-anchor="middle" fill="#5b6b68" font-size="11">25-05-27</text>
<line x1="695.00" y1="132" x2="695.00" y2="442" stroke="#eef3f1" stroke-width="1" />
      <text x="695.00" y="470" text-anchor="middle" fill="#5b6b68" font-size="11">25-08-11</text>
<line x1="911.72" y1="132" x2="911.72" y2="442" stroke="#eef3f1" stroke-width="1" />
      <text x="911.72" y="470" text-anchor="middle" fill="#5b6b68" font-size="11">25-10-31</text>
<line x1="1099.82" y1="132" x2="1099.82" y2="442" stroke="#eef3f1" stroke-width="1" />
      <text x="1099.82" y="470" text-anchor="middle" fill="#5b6b68" font-size="11">26-01-07</text>
<line x1="1292.00" y1="132" x2="1292.00" y2="442" stroke="#eef3f1" stroke-width="1" />
      <text x="1292.00" y="470" text-anchor="middle" fill="#5b6b68" font-size="11">26-03-23</text>
    <line x1="1091.64" y1="132" x2="1091.64" y2="442" stroke="#f59e0b" stroke-width="1.4" stroke-dasharray="4 4" />
       <text x="1097.64" y="124" fill="#a16207" font-size="11">验证起点</text>
    <path d="M 98.00 389.38 L 102.09 399.89 L 106.18 401.63 L 110.27 395.33 L 114.36 396.77 L 118.45 398.93 L 122.53 408.65 L 126.62 410.93 L 130.71 388.84 L 134.80 393.83 L 138.89 393.47 L 142.98 390.71 L 147.07 387.40 L 151.16 387.04 L 155.25 394.37 L 159.34 392.15 L 163.42 385.24 L 167.51 388.06 L 171.60 391.79 L 175.69 380.92 L 179.78 369.70 L 183.87 368.08 L 187.96 372.34 L 192.05 364.06 L 196.14 367.42 L 200.23 359.86 L 204.32 357.94 L 208.40 366.22 L 212.49 359.50 L 216.58 362.08 L 220.67 350.62 L 224.76 352.36 L 228.85 362.38 L 232.94 354.82 L 237.03 353.20 L 241.12 370.72 L 245.21 370.24 L 249.29 370.78 L 253.38 367.72 L 257.47 355.54 L 261.56 358.84 L 265.65 362.32 L 269.74 359.26 L 273.83 362.50 L 277.92 366.34 L 282.01 345.45 L 286.10 347.43 L 290.18 344.85 L 294.27 344.55 L 298.36 352.12 L 302.45 365.44 L 306.54 361.36 L 310.63 361.60 L 314.72 363.16 L 318.81 360.16 L 322.90 364.12 L 326.99 370.78 L 331.08 370.42 L 335.16 370.90 L 339.25 375.94 L 343.34 437.70 L 347.43 423.89 L 351.52 415.37 L 355.61 404.63 L 359.70 401.09 L 363.79 399.23 L 367.88 399.05 L 371.97 396.65 L 376.05 396.47 L 380.14 396.47 L 384.23 393.41 L 388.32 392.99 L 392.41 392.45 L 396.50 393.11 L 400.59 392.09 L 404.68 393.65 L 408.77 394.85 L 412.86 395.21 L 416.95 386.92 L 421.03 382.12 L 425.12 377.80 L 429.21 379.60 L 433.30 369.46 L 437.39 368.56 L 441.48 358.00 L 445.57 366.28 L 449.66 369.94 L 453.75 371.98 L 457.84 367.12 L 461.92 362.80 L 466.01 363.94 L 470.10 371.20 L 474.19 375.82 L 478.28 380.20 L 482.37 381.04 L 486.46 375.64 L 490.55 379.90 L 494.64 377.14 L 498.73 373.48 L 502.82 371.38 L 506.90 371.86 L 510.99 369.22 L 515.08 373.84 L 519.17 366.16 L 523.26 365.62 L 527.35 371.68 L 531.44 370.12 L 535.53 370.96 L 539.62 370.90 L 543.71 378.10 L 547.79 375.34 L 551.88 372.88 L 555.97 363.58 L 560.06 352.84 L 564.15 354.64 L 568.24 359.02 L 572.33 357.52 L 576.42 354.28 L 580.51 351.28 L 584.60 346.77 L 588.68 342.15 L 592.77 344.19 L 596.86 339.51 L 600.95 339.93 L 605.04 333.87 L 609.13 332.43 L 613.22 331.05 L 617.31 334.53 L 621.40 337.77 L 625.49 335.01 L 629.58 329.55 L 633.66 321.51 L 637.75 312.63 L 641.84 312.81 L 645.93 307.22 L 650.02 314.37 L 654.11 314.37 L 658.20 314.91 L 662.29 313.35 L 666.38 333.21 L 670.47 335.97 L 674.55 332.85 L 678.64 325.71 L 682.73 322.29 L 686.82 322.41 L 690.91 323.31 L 695.00 320.55 L 699.09 316.29 L 703.18 308.30 L 707.27 310.17 L 711.36 303.08 L 715.45 295.10 L 719.53 299.90 L 723.62 289.40 L 727.71 286.10 L 731.80 269.18 L 735.89 249.91 L 739.98 252.61 L 744.07 267.79 L 748.16 251.11 L 752.25 242.53 L 756.34 234.43 L 760.42 242.59 L 764.51 247.15 L 768.60 267.61 L 772.69 245.83 L 776.78 244.51 L 780.87 250.87 L 784.96 249.91 L 789.05 229.15 L 793.14 234.49 L 797.23 234.91 L 801.32 238.69 L 805.40 232.33 L 809.49 246.91 L 813.58 245.71 L 817.67 242.95 L 821.76 244.39 L 825.85 234.13 L 829.94 226.56 L 834.03 233.65 L 838.12 217.68 L 842.21 211.32 L 846.29 194.46 L 850.38 212.82 L 854.47 217.86 L 858.56 229.33 L 862.65 214.02 L 866.74 213.00 L 870.83 237.25 L 874.92 230.17 L 879.01 214.80 L 883.10 217.50 L 887.18 214.20 L 891.27 202.44 L 895.36 189.78 L 899.45 193.20 L 903.54 179.15 L 907.63 185.75 L 911.72 199.44 L 915.81 195.78 L 919.90 204.42 L 923.99 202.08 L 928.08 186.47 L 932.16 188.76 L 936.25 183.65 L 940.34 191.94 L 944.43 191.40 L 948.52 179.33 L 952.61 194.58 L 956.70 202.86 L 960.79 210.12 L 964.88 204.54 L 968.97 208.98 L 973.05 232.75 L 977.14 233.83 L 981.23 225.12 L 985.32 220.56 L 989.41 220.50 L 993.50 218.34 L 997.59 206.40 L 1001.68 209.64 L 1005.77 212.34 L 1009.86 209.76 L 1013.95 197.70 L 1018.03 192.00 L 1022.12 199.50 L 1026.21 198.84 L 1030.30 204.66 L 1034.39 197.76 L 1038.48 201.48 L 1042.57 212.64 L 1046.66 195.84 L 1050.75 197.88 L 1054.84 193.98 L 1058.92 187.13 L 1063.01 184.19 L 1067.10 181.43 L 1071.19 179.69 L 1075.28 176.09 L 1079.37 181.55 L 1083.46 178.85 L 1087.55 182.33 L 1091.64 164.87 L 1095.73 146.98 L 1099.82 149.87 L 1103.90 159.29 L 1107.99 156.23 L 1112.08 152.33 L 1116.17 155.21 L 1120.26 159.59 L 1124.35 156.17 L 1128.44 160.37 L 1132.53 157.61 L 1136.62 159.41 L 1140.71 156.77 L 1144.79 155.39 L 1148.88 155.51 L 1152.97 155.81 L 1157.06 155.81 L 1161.15 150.05 L 1165.24 145.06 L 1169.33 157.19 L 1173.42 187.43 L 1177.51 169.85 L 1181.60 157.91 L 1185.68 165.89 L 1189.77 169.97 L 1193.86 154.55 L 1197.95 150.11 L 1202.04 150.05 L 1206.13 144.16 L 1210.22 163.49 L 1214.31 148.37 L 1218.40 142.12 L 1222.49 143.32 L 1226.58 144.88 L 1230.66 137.80 L 1234.75 153.17 L 1238.84 165.35 L 1242.93 154.37 L 1247.02 150.05 L 1251.11 164.27 L 1255.20 149.51 L 1259.29 143.56 L 1263.38 147.89 L 1267.47 154.49 L 1271.55 156.35 L 1275.64 166.91 L 1279.73 160.67 L 1283.82 180.95 L 1287.91 184.67 L 1292.00 218.88" fill="none" stroke="#0f766e" stroke-width="2"  />
<path d="M 98.00 394.71 L 102.09 396.52 L 106.18 400.33 L 110.27 397.31 L 114.36 395.72 L 118.45 396.49 L 122.53 409.24 L 126.62 408.98 L 130.71 389.51 L 134.80 391.17 L 138.89 392.97 L 142.98 391.52 L 147.07 389.29 L 151.16 387.30 L 155.25 392.86 L 159.34 392.92 L 163.42 389.84 L 167.51 385.94 L 171.60 389.38 L 175.69 381.89 L 179.78 371.81 L 183.87 368.13 L 187.96 369.28 L 192.05 365.99 L 196.14 364.98 L 200.23 364.78 L 204.32 358.75 L 208.40 360.17 L 212.49 362.61 L 216.58 361.29 L 220.67 352.23 L 224.76 351.53 L 228.85 358.24 L 232.94 358.73 L 237.03 352.82 L 241.12 366.78 L 245.21 370.27 L 249.29 370.52 L 253.38 369.42 L 257.47 357.72 L 261.56 356.92 L 265.65 358.90 L 269.74 361.55 L 273.83 359.22 L 277.92 364.32 L 282.01 344.61 L 286.10 346.61 L 290.18 346.03 L 294.27 343.45 L 298.36 349.76 L 302.45 363.66 L 306.54 363.56 L 310.63 360.48 L 314.72 362.31 L 318.81 361.85 L 322.90 361.21 L 326.99 368.76 L 331.08 370.06 L 335.16 370.40 L 339.25 371.40 L 343.34 432.99 L 347.43 430.48 L 351.52 418.23 L 355.61 404.90 L 359.70 403.08 L 363.79 400.15 L 367.88 398.49 L 371.97 397.31 L 376.05 396.68 L 380.14 395.10 L 384.23 396.23 L 388.32 391.91 L 392.41 392.82 L 396.50 392.29 L 400.59 392.54 L 404.68 391.55 L 408.77 394.55 L 412.86 394.61 L 416.95 392.93 L 421.03 385.06 L 425.12 379.52 L 429.21 377.72 L 433.30 371.93 L 437.39 368.91 L 441.48 360.87 L 445.57 360.03 L 449.66 368.00 L 453.75 369.33 L 457.84 369.47 L 461.92 365.73 L 466.01 362.86 L 470.10 369.24 L 474.19 372.68 L 478.28 377.12 L 482.37 380.36 L 486.46 378.48 L 490.55 376.10 L 494.64 379.56 L 498.73 374.69 L 502.82 372.22 L 506.90 370.39 L 510.99 370.11 L 515.08 371.20 L 519.17 368.80 L 523.26 365.72 L 527.35 367.56 L 531.44 369.91 L 535.53 369.80 L 539.62 369.87 L 543.71 376.01 L 547.79 377.51 L 551.88 372.65 L 555.97 367.71 L 560.06 351.62 L 564.15 353.79 L 568.24 356.38 L 572.33 356.34 L 576.42 356.76 L 580.51 353.42 L 584.60 347.38 L 588.68 344.73 L 592.77 342.56 L 596.86 339.56 L 600.95 338.72 L 605.04 337.10 L 609.13 331.97 L 613.22 332.23 L 617.31 329.99 L 621.40 335.19 L 625.49 334.18 L 629.58 331.77 L 633.66 327.04 L 637.75 316.55 L 641.84 312.12 L 645.93 309.80 L 650.02 308.32 L 654.11 312.10 L 658.20 311.97 L 662.29 314.40 L 666.38 326.95 L 670.47 334.35 L 674.55 334.85 L 678.64 326.87 L 682.73 324.27 L 686.82 322.26 L 690.91 322.73 L 695.00 320.50 L 699.09 318.24 L 703.18 313.19 L 707.27 308.46 L 711.36 303.56 L 715.45 297.41 L 719.53 296.46 L 723.62 292.85 L 727.71 287.03 L 731.80 267.61 L 735.89 254.41 L 739.98 251.65 L 744.07 262.52 L 748.16 255.24 L 752.25 245.74 L 756.34 239.65 L 760.42 235.90 L 764.51 249.72 L 768.60 265.39 L 772.69 249.37 L 776.78 243.39 L 780.87 247.26 L 784.96 249.51 L 789.05 229.47 L 793.14 231.19 L 797.23 231.96 L 801.32 235.63 L 805.40 235.59 L 809.49 243.37 L 813.58 244.79 L 817.67 242.70 L 821.76 242.77 L 825.85 237.09 L 829.94 230.90 L 834.03 231.83 L 838.12 219.29 L 842.21 215.88 L 846.29 195.29 L 850.38 215.90 L 854.47 212.81 L 858.56 226.28 L 862.65 217.61 L 866.74 212.47 L 870.83 231.60 L 874.92 234.70 L 879.01 218.01 L 883.10 215.37 L 887.18 215.97 L 891.27 202.90 L 895.36 190.33 L 899.45 191.67 L 903.54 183.37 L 907.63 181.97 L 911.72 196.97 L 915.81 196.36 L 919.90 198.76 L 923.99 203.80 L 928.08 189.29 L 932.16 187.29 L 936.25 185.53 L 940.34 190.63 L 944.43 191.74 L 948.52 184.66 L 952.61 193.18 L 956.70 195.72 L 960.79 204.46 L 964.88 208.30 L 968.97 206.08 L 973.05 234.96 L 977.14 232.30 L 981.23 230.78 L 985.32 220.33 L 989.41 220.96 L 993.50 218.68 L 997.59 208.01 L 1001.68 208.03 L 1005.77 210.82 L 1009.86 210.78 L 1013.95 203.56 L 1018.03 189.82 L 1022.12 193.94 L 1026.21 199.66 L 1030.30 201.58 L 1034.39 201.94 L 1038.48 199.69 L 1042.57 209.96 L 1046.66 197.00 L 1050.75 198.55 L 1054.84 195.28 L 1058.92 187.35 L 1063.01 186.37 L 1067.10 182.36 L 1071.19 180.11 L 1075.28 177.27 L 1079.37 177.51 L 1083.46 179.94 L 1087.55 180.58 L 1091.64 165.09 L 1095.73 152.90 L 1099.82 147.58 L 1103.90 152.25 L 1107.99 156.62 L 1112.08 154.20 L 1116.17 153.27 L 1120.26 156.95 L 1124.35 158.94 L 1128.44 156.50 L 1132.53 159.96 L 1136.62 158.53 L 1140.71 158.53 L 1144.79 155.87 L 1148.88 157.37 L 1152.97 153.83 L 1157.06 155.37 L 1161.15 153.78 L 1165.24 143.59 L 1169.33 153.55 L 1173.42 176.34 L 1177.51 178.48 L 1181.60 165.53 L 1185.68 159.55 L 1189.77 168.26 L 1193.86 158.54 L 1197.95 153.97 L 1202.04 150.55 L 1206.13 148.87 L 1210.22 155.92 L 1214.31 157.76 L 1218.40 144.23 L 1222.49 144.27 L 1226.58 143.07 L 1230.66 142.03 L 1234.75 147.95 L 1238.84 163.66 L 1242.93 162.09 L 1247.02 150.27 L 1251.11 158.30 L 1255.20 155.02 L 1259.29 145.27 L 1263.38 144.92 L 1267.47 147.76 L 1271.55 153.42 L 1275.64 160.55 L 1279.73 164.68 L 1283.82 177.67 L 1287.91 182.50 L 1292.00 219.83" fill="none" stroke="#1d4ed8" stroke-width="2"  />
  </g>
  <g>
    <text x="54" y="538" fill="#1f2937" font-size="16" font-weight="700">B. 绝对误差（越低越好）</text>
    <line x1="98" y1="558" x2="124" y2="558" stroke="#1d4ed8" stroke-width="2"  />
      <text x="130" y="562" fill="#24312e" font-size="12">持仓分段误差</text>
    <line x1="98" y1="560.00" x2="1292" y2="560.00" stroke="#d7e3df" stroke-width="1" />
      <text x="90" y="564.00" text-anchor="end" fill="#5b6b68" font-size="11">1.12%</text>
<line x1="98" y1="630.00" x2="1292" y2="630.00" stroke="#d7e3df" stroke-width="1" />
      <text x="90" y="634.00" text-anchor="end" fill="#5b6b68" font-size="11">0.84%</text>
<line x1="98" y1="700.00" x2="1292" y2="700.00" stroke="#d7e3df" stroke-width="1" />
      <text x="90" y="704.00" text-anchor="end" fill="#5b6b68" font-size="11">0.56%</text>
<line x1="98" y1="770.00" x2="1292" y2="770.00" stroke="#d7e3df" stroke-width="1" />
      <text x="90" y="774.00" text-anchor="end" fill="#5b6b68" font-size="11">0.28%</text>
<line x1="98" y1="840.00" x2="1292" y2="840.00" stroke="#d7e3df" stroke-width="1" />
      <text x="90" y="844.00" text-anchor="end" fill="#5b6b68" font-size="11">0.00%</text>
    <line x1="98.00" y1="560" x2="98.00" y2="840" stroke="#eef3f1" stroke-width="1" />
      <text x="98.00" y="868" text-anchor="middle" fill="#5b6b68" font-size="11">25-01-02</text>
<line x1="290.18" y1="560" x2="290.18" y2="840" stroke="#eef3f1" stroke-width="1" />
      <text x="290.18" y="868" text-anchor="middle" fill="#5b6b68" font-size="11">25-03-18</text>
<line x1="478.28" y1="560" x2="478.28" y2="840" stroke="#eef3f1" stroke-width="1" />
      <text x="478.28" y="868" text-anchor="middle" fill="#5b6b68" font-size="11">25-05-27</text>
<line x1="695.00" y1="560" x2="695.00" y2="840" stroke="#eef3f1" stroke-width="1" />
      <text x="695.00" y="868" text-anchor="middle" fill="#5b6b68" font-size="11">25-08-11</text>
<line x1="911.72" y1="560" x2="911.72" y2="840" stroke="#eef3f1" stroke-width="1" />
      <text x="911.72" y="868" text-anchor="middle" fill="#5b6b68" font-size="11">25-10-31</text>
<line x1="1099.82" y1="560" x2="1099.82" y2="840" stroke="#eef3f1" stroke-width="1" />
      <text x="1099.82" y="868" text-anchor="middle" fill="#5b6b68" font-size="11">26-01-07</text>
<line x1="1292.00" y1="560" x2="1292.00" y2="840" stroke="#eef3f1" stroke-width="1" />
      <text x="1292.00" y="868" text-anchor="middle" fill="#5b6b68" font-size="11">26-03-23</text>
    <line x1="1091.64" y1="560" x2="1091.64" y2="840" stroke="#f59e0b" stroke-width="1.4" stroke-dasharray="4 4" />
       <text x="1097.64" y="552" fill="#a16207" font-size="11">验证起点</text>
    <path d="M 98.00 693.38 L 102.09 746.16 L 106.18 803.73 L 110.27 784.88 L 114.36 810.86 L 118.45 772.26 L 122.53 823.45 L 126.62 784.91 L 130.71 821.61 L 134.80 766.36 L 138.89 826.20 L 142.98 817.63 L 147.07 788.30 L 151.16 832.88 L 155.25 798.18 L 159.34 818.62 L 163.42 714.06 L 167.51 781.47 L 171.60 773.54 L 175.69 813.59 L 179.78 783.02 L 183.87 838.64 L 187.96 757.30 L 192.05 788.12 L 196.14 774.48 L 200.23 708.54 L 204.32 818.27 L 208.40 677.51 L 212.49 756.92 L 216.58 818.93 L 220.67 797.35 L 224.76 818.02 L 228.85 729.20 L 232.94 736.06 L 237.03 830.03 L 241.12 733.71 L 245.21 839.19 L 249.29 832.94 L 253.38 794.30 L 257.47 781.97 L 261.56 788.82 L 265.65 748.55 L 269.74 778.83 L 273.83 752.32 L 277.92 785.79 L 282.01 817.94 L 286.10 818.24 L 290.18 809.22 L 294.27 810.97 L 298.36 777.69 L 302.45 792.31 L 306.54 781.09 L 310.63 810.19 L 314.72 817.39 L 318.81 794.72 L 322.90 762.04 L 326.99 785.44 L 331.08 830.41 L 335.16 826.62 L 339.25 716.77 L 343.34 703.09 L 347.43 651.32 L 351.52 758.82 L 355.61 832.41 L 359.70 784.28 L 363.79 814.35 L 367.88 824.54 L 371.97 821.52 L 376.05 834.09 L 380.14 801.94 L 384.23 761.81 L 388.32 810.20 L 392.41 829.69 L 396.50 817.30 L 400.59 827.42 L 404.68 781.95 L 408.77 831.81 L 412.86 823.51 L 416.95 674.89 L 421.03 759.65 L 425.12 793.40 L 429.21 788.60 L 433.30 773.52 L 437.39 830.44 L 441.48 763.60 L 445.57 672.19 L 449.66 787.64 L 453.75 768.30 L 457.84 776.76 L 461.92 761.63 L 466.01 811.12 L 470.10 786.97 L 474.19 754.63 L 478.28 755.97 L 482.37 821.43 L 486.46 762.95 L 490.55 736.40 L 494.64 774.27 L 498.73 807.18 L 502.82 817.36 L 506.90 800.13 L 510.99 816.11 L 515.08 768.37 L 519.17 769.12 L 523.26 837.20 L 527.35 728.56 L 531.44 834.20 L 535.53 808.72 L 539.62 812.21 L 543.71 783.07 L 547.79 781.21 L 551.88 833.73 L 555.97 729.27 L 560.06 807.78 L 564.15 817.45 L 568.24 769.69 L 572.33 808.61 L 576.42 774.24 L 580.51 783.28 L 584.60 824.11 L 588.68 772.52 L 592.77 797.17 L 596.86 838.76 L 600.95 808.24 L 605.04 756.29 L 609.13 828.17 L 613.22 809.55 L 617.31 722.12 L 621.40 772.77 L 625.49 818.37 L 629.58 782.73 L 633.66 698.21 L 637.75 740.41 L 641.84 822.57 L 645.93 774.86 L 650.02 686.07 L 654.11 782.24 L 658.20 765.34 L 662.29 813.18 L 666.38 677.46 L 670.47 797.86 L 674.55 788.19 L 678.64 810.16 L 682.73 789.18 L 686.82 836.10 L 690.91 825.03 L 695.00 838.85 L 699.09 790.20 L 703.18 716.45 L 707.27 796.90 L 711.36 828.14 L 715.45 782.42 L 719.53 753.64 L 723.62 754.47 L 727.71 816.99 L 731.80 801.87 L 735.89 732.57 L 739.98 816.94 L 744.07 711.91 L 748.16 741.38 L 752.25 763.75 L 756.34 717.08 L 760.42 681.45 L 764.51 778.83 L 768.60 785.87 L 772.69 755.65 L 776.78 813.43 L 780.87 753.58 L 784.96 830.49 L 789.05 832.47 L 793.14 762.49 L 797.23 770.68 L 801.32 767.71 L 805.40 763.42 L 809.49 755.76 L 813.58 818.10 L 817.67 834.16 L 821.76 801.55 L 825.85 770.37 L 829.94 738.74 L 834.03 797.33 L 838.12 802.67 L 842.21 735.07 L 846.29 821.08 L 850.38 769.01 L 854.47 723.01 L 858.56 768.61 L 862.65 757.10 L 866.74 827.76 L 870.83 706.65 L 874.92 733.61 L 879.01 765.95 L 883.10 790.69 L 887.18 799.04 L 891.27 829.52 L 895.36 827.58 L 899.45 805.40 L 903.54 745.72 L 907.63 754.78 L 911.72 783.87 L 915.81 826.67 L 919.90 710.53 L 923.99 800.75 L 928.08 776.50 L 932.16 806.99 L 936.25 797.81 L 940.34 810.53 L 944.43 832.26 L 948.52 720.74 L 952.61 808.35 L 956.70 676.78 L 960.79 709.82 L 964.88 753.86 L 968.97 773.35 L 973.05 787.99 L 977.14 804.10 L 981.23 708.08 L 985.32 834.48 L 989.41 829.40 L 993.50 832.23 L 997.59 803.15 L 1001.68 803.03 L 1005.77 804.89 L 1009.86 816.60 L 1013.95 706.70 L 1018.03 790.82 L 1022.12 713.44 L 1026.21 821.27 L 1030.30 769.45 L 1034.39 744.95 L 1038.48 799.23 L 1042.57 778.25 L 1046.66 813.67 L 1050.75 824.62 L 1054.84 810.54 L 1058.92 835.24 L 1063.01 791.12 L 1067.10 819.26 L 1071.19 830.67 L 1075.28 813.69 L 1079.37 749.32 L 1083.46 815.62 L 1087.55 800.65 L 1091.64 835.13 L 1095.73 711.39 L 1099.82 790.15 L 1103.90 685.31 L 1107.99 831.46 L 1112.08 799.03 L 1116.17 797.55 L 1120.26 782.06 L 1124.35 779.26 L 1128.44 754.79 L 1132.53 788.45 L 1136.62 820.76 L 1140.71 801.42 L 1144.79 829.38 L 1148.88 799.09 L 1152.97 796.62 L 1157.06 830.40 L 1161.15 758.50 L 1165.24 807.93 L 1169.33 760.13 L 1173.42 590.00 L 1177.51 648.44 L 1181.60 672.57 L 1185.68 699.89 L 1189.77 802.05 L 1193.86 752.63 L 1197.95 755.80 L 1202.04 829.02 L 1206.13 738.02 L 1210.22 672.95 L 1214.31 635.38 L 1218.40 794.38 L 1222.49 819.41 L 1226.58 800.51 L 1230.66 748.88 L 1234.75 725.84 L 1238.84 802.77 L 1242.93 671.02 L 1247.02 835.20 L 1251.11 708.26 L 1255.20 719.72 L 1259.29 803.06 L 1263.38 775.46 L 1267.47 692.83 L 1271.55 775.93 L 1275.64 699.30 L 1279.73 751.68 L 1283.82 766.39 L 1287.91 791.10 L 1292.00 817.97" fill="none" stroke="#1d4ed8" stroke-width="2"  />
  </g>
</svg>