<?xml version="1.0" encoding="UTF-8"?>
<svg xmlns="http://www.w3.org/2000/svg" width="1360" height="980" viewBox="0 0 1360 980">
  <defs>
    <linearGradient id="bg" x1="0" y1="0" x2="1" y2="1">
      <stop offset="0%" stop-color="#f4efe6" />
      <stop offset="100%" stop-color="#eef5f2" />
    </linearGradient>
  </defs>
  <rect x="0" y="0" width="1360" height="980" fill="url(#bg)" />
  <text x="46" y="36" fill="#1f2937" font-size="31" font-weight="700">富国中证1000指数增强(LOF)A(161039)（161039）离线研究图（持仓逐日估值版）</text>
  <text x="46" y="66" fill="#5b6b68" font-size="13">历史前十大持仓 + 持仓逐日涨跌幅 + USDCNY；双目标 lambda=0.10；披露期数 1；覆盖率均值 39.8%</text>
  <g>
    <text x="54" y="110" fill="#1f2937" font-size="16" font-weight="700">A. 净值拟合（同日对齐，无平移）</text>
    <line x1="98" y1="130" x2="124" y2="130" stroke="#0f766e" stroke-width="2"  />
      <text x="130" y="134" fill="#24312e" font-size="12">真实净值</text>
<line x1="313" y1="130" x2="339" y2="130" stroke="#1d4ed8" stroke-width="2"  />
      <text x="345" y="134" fill="#24312e" font-size="12">持仓分段估值</text>
    <line x1="98" y1="132.00" x2="1292" y2="132.00" stroke="#d7e3df" stroke-width="1" />
      <text x="90" y="136.00" text-anchor="end" fill="#5b6b68" font-size="11">2.982</text>
<line x1="98" y1="209.50" x2="1292" y2="209.50" stroke="#d7e3df" stroke-width="1" />
      <text x="90" y="213.50" text-anchor="end" fill="#5b6b68" font-size="11">2.680</text>
<line x1="98" y1="287.00" x2="1292" y2="287.00" stroke="#d7e3df" stroke-width="1" />
      <text x="90" y="291.00" text-anchor="end" fill="#5b6b68" font-size="11">2.378</text>
<line x1="98" y1="364.50" x2="1292" y2="364.50" stroke="#d7e3df" stroke-width="1" />
      <text x="90" y="368.50" text-anchor="end" fill="#5b6b68" font-size="11">2.076</text>
<line x1="98" y1="442.00" x2="1292" y2="442.00" stroke="#d7e3df" stroke-width="1" />
      <text x="90" y="446.00" text-anchor="end" fill="#5b6b68" font-size="11">1.774</text>
    <line x1="98.00" y1="132" x2="98.00" y2="442" stroke="#eef3f1" stroke-width="1" />
      <text x="98.00" y="470" text-anchor="middle" fill="#5b6b68" font-size="11">25-01-02</text>
<line x1="290.18" y1="132" x2="290.18" y2="442" stroke="#eef3f1" stroke-width="1" />
      <text x="290.18" y="470" text-anchor="middle" fill="#5b6b68" font-size="11">25-03-18</text>
<line x1="478.28" y1="132" x2="478.28" y2="442" stroke="#eef3f1" stroke-width="1" />
      <text x="478.28" y="470" text-anchor="middle" fill="#5b6b68" font-size="11">25-05-27</text>
<line x1="695.00" y1="132" x2="695.00" y2="442" stroke="#eef3f1" stroke-width="1" />
      <text x="695.00" y="470" text-anchor="middle" fill="#5b6b68" font-size="11">25-08-11</text>
<line x1="911.72" y1="132" x2="911.72" y2="442" stroke="#eef3f1" stroke-width="1" />
      <text x="911.72" y="470" text-anchor="middle" fill="#5b6b68" font-size="11">25-10-31</text>
<line x1="1099.82" y1="132" x2="1099.82" y2="442" stroke="#eef3f1" stroke-width="1" />
      <text x="1099.82" y="470" text-anchor="middle" fill="#5b6b68" font-size="11">26-01-07</text>
<line x1="1292.00" y1="132" x2="1292.00" y2="442" stroke="#eef3f1" stroke-width="1" />
      <text x="1292.00" y="470" text-anchor="middle" fill="#5b6b68" font-size="11">26-03-23</text>
    <line x1="1091.64" y1="132" x2="1091.64" y2="442" stroke="#f59e0b" stroke-width="1.4" stroke-dasharray="4 4" />
       <text x="1097.64" y="124" fill="#a16207" font-size="11">验证起点</text>
    <path d="M 98.00 413.89 L 102.09 424.21 L 106.18 424.75 L 110.27 420.15 L 114.36 422.05 L 118.45 422.54 L 122.53 431.50 L 126.62 430.85 L 130.71 412.06 L 134.80 414.07 L 138.89 412.30 L 142.98 408.47 L 147.07 406.49 L 151.16 406.75 L 155.25 410.96 L 159.34 412.45 L 163.42 404.70 L 167.51 410.83 L 171.60 407.98 L 175.69 396.38 L 179.78 388.73 L 183.87 383.39 L 187.96 385.83 L 192.05 380.31 L 196.14 385.21 L 200.23 382.49 L 204.32 381.08 L 208.40 389.24 L 212.49 381.44 L 216.58 379.54 L 220.67 371.43 L 224.76 371.25 L 228.85 372.58 L 232.94 365.65 L 237.03 367.37 L 241.12 383.39 L 245.21 382.36 L 249.29 377.51 L 253.38 374.59 L 257.47 365.47 L 261.56 367.04 L 265.65 366.91 L 269.74 365.17 L 273.83 364.52 L 277.92 371.84 L 282.01 363.75 L 286.10 362.70 L 290.18 359.93 L 294.27 363.14 L 298.36 364.83 L 302.45 374.18 L 306.54 376.67 L 310.63 378.98 L 314.72 377.33 L 318.81 377.44 L 322.90 381.03 L 326.99 384.06 L 331.08 381.47 L 335.16 380.16 L 339.25 385.73 L 343.34 438.02 L 347.43 436.66 L 351.52 429.11 L 355.61 419.48 L 359.70 414.79 L 363.79 409.86 L 367.88 410.45 L 371.97 415.02 L 376.05 413.89 L 380.14 413.73 L 384.23 405.52 L 388.32 405.08 L 392.41 401.90 L 396.50 405.36 L 400.59 403.13 L 404.68 407.06 L 408.77 405.75 L 412.86 402.77 L 416.95 392.12 L 421.03 391.35 L 425.12 386.37 L 429.21 390.99 L 433.30 385.73 L 437.39 385.96 L 441.48 384.80 L 445.57 391.48 L 449.66 390.81 L 453.75 389.17 L 457.84 385.93 L 461.92 386.50 L 466.01 388.96 L 470.10 394.25 L 474.19 392.09 L 478.28 393.69 L 482.37 393.76 L 486.46 386.70 L 490.55 390.19 L 494.64 387.04 L 498.73 382.52 L 502.82 379.59 L 506.90 379.64 L 510.99 376.05 L 515.08 379.49 L 519.17 376.18 L 523.26 374.59 L 527.35 381.08 L 531.44 378.69 L 535.53 379.10 L 539.62 378.87 L 543.71 383.65 L 547.79 386.37 L 551.88 382.65 L 555.97 373.30 L 560.06 367.81 L 564.15 369.27 L 568.24 367.76 L 572.33 364.22 L 576.42 362.52 L 580.51 365.37 L 584.60 362.29 L 588.68 363.19 L 592.77 362.21 L 596.86 355.98 L 600.95 355.95 L 605.04 354.15 L 609.13 350.02 L 613.22 348.04 L 617.31 348.97 L 621.40 347.15 L 625.49 342.32 L 629.58 340.34 L 633.66 334.67 L 637.75 332.46 L 641.84 334.82 L 645.93 329.02 L 650.02 328.30 L 654.11 327.82 L 658.20 325.97 L 662.29 327.79 L 666.38 333.54 L 670.47 330.97 L 674.55 325.12 L 678.64 320.58 L 682.73 314.80 L 686.82 315.47 L 690.91 316.39 L 695.00 309.39 L 699.09 307.41 L 703.18 300.35 L 707.27 308.28 L 711.36 297.58 L 715.45 290.16 L 719.53 289.34 L 723.62 282.36 L 727.71 285.03 L 731.80 277.43 L 735.89 269.62 L 739.98 267.47 L 744.07 277.86 L 748.16 271.19 L 752.25 271.52 L 756.34 267.57 L 760.42 281.12 L 764.51 289.80 L 768.60 301.02 L 772.69 284.20 L 776.78 277.84 L 780.87 284.23 L 784.96 284.20 L 789.05 270.96 L 793.14 269.03 L 797.23 271.50 L 801.32 266.29 L 805.40 260.84 L 809.49 266.21 L 813.58 268.85 L 817.67 264.80 L 821.76 270.70 L 825.85 259.20 L 829.94 259.07 L 834.03 267.16 L 838.12 259.56 L 842.21 253.55 L 846.29 247.73 L 850.38 253.76 L 854.47 256.35 L 858.56 267.52 L 862.65 257.41 L 866.74 264.08 L 870.83 281.66 L 874.92 276.02 L 879.01 266.26 L 883.10 269.14 L 887.18 269.16 L 891.27 260.07 L 895.36 253.35 L 899.45 254.14 L 903.54 246.42 L 907.63 253.02 L 911.72 251.35 L 915.81 249.06 L 919.90 258.79 L 923.99 255.92 L 928.08 248.78 L 932.16 250.04 L 936.25 249.17 L 940.34 250.17 L 944.43 254.66 L 948.52 245.85 L 952.61 252.27 L 956.70 251.06 L 960.79 256.56 L 964.88 259.92 L 968.97 262.80 L 973.05 284.41 L 977.14 277.04 L 981.23 268.93 L 985.32 268.78 L 989.41 267.31 L 993.50 262.08 L 997.59 257.53 L 1001.68 263.18 L 1005.77 267.01 L 1009.86 267.11 L 1013.95 256.25 L 1018.03 250.17 L 1022.12 252.78 L 1026.21 249.73 L 1030.30 256.25 L 1034.39 250.45 L 1038.48 255.53 L 1042.57 263.51 L 1046.66 254.40 L 1050.75 255.84 L 1054.84 249.52 L 1058.92 244.13 L 1063.01 243.75 L 1067.10 234.61 L 1071.19 228.50 L 1075.28 227.29 L 1079.37 228.76 L 1083.46 228.76 L 1087.55 228.99 L 1091.64 216.10 L 1095.73 207.07 L 1099.82 203.83 L 1103.90 199.29 L 1107.99 187.43 L 1112.08 172.28 L 1116.17 183.84 L 1120.26 180.91 L 1124.35 179.65 L 1128.44 180.22 L 1132.53 175.21 L 1136.62 179.93 L 1140.71 173.18 L 1144.79 166.82 L 1148.88 155.57 L 1152.97 163.40 L 1157.06 162.84 L 1161.15 160.91 L 1165.24 166.89 L 1169.33 172.72 L 1173.42 194.85 L 1177.51 175.93 L 1181.60 175.11 L 1185.68 183.12 L 1189.77 183.37 L 1193.86 169.46 L 1197.95 167.28 L 1202.04 166.69 L 1206.13 160.37 L 1210.22 167.74 L 1214.31 159.30 L 1218.40 148.49 L 1222.49 143.28 L 1226.58 135.81 L 1230.66 144.18 L 1234.75 171.87 L 1238.84 176.31 L 1242.93 169.28 L 1247.02 161.63 L 1251.11 165.74 L 1255.20 154.06 L 1259.29 153.75 L 1263.38 158.32 L 1267.47 167.00 L 1271.55 168.13 L 1275.64 183.12 L 1279.73 177.01 L 1283.82 194.85 L 1287.91 205.76 L 1292.00 238.79" fill="none" stroke="#0f766e" stroke-width="2"  />
<path d="M 98.00 416.11 L 102.09 425.88 L 106.18 425.26 L 110.27 419.47 L 114.36 420.37 L 118.45 421.05 L 122.53 431.67 L 126.62 430.39 L 130.71 411.10 L 134.80 413.25 L 138.89 412.78 L 142.98 410.36 L 147.07 407.13 L 151.16 405.36 L 155.25 407.81 L 159.34 411.10 L 163.42 407.85 L 167.51 410.45 L 171.60 408.92 L 175.69 396.39 L 179.78 391.09 L 183.87 383.65 L 187.96 383.80 L 192.05 379.76 L 196.14 384.83 L 200.23 384.17 L 204.32 380.67 L 208.40 390.44 L 212.49 378.73 L 216.58 380.02 L 220.67 371.58 L 224.76 370.69 L 228.85 371.57 L 232.94 367.47 L 237.03 366.18 L 241.12 383.56 L 245.21 382.47 L 249.29 379.62 L 253.38 375.91 L 257.47 365.54 L 261.56 366.16 L 265.65 365.70 L 269.74 365.52 L 273.83 364.17 L 277.92 369.82 L 282.01 365.84 L 286.10 363.01 L 290.18 361.76 L 294.27 360.60 L 298.36 363.67 L 302.45 373.93 L 306.54 375.37 L 310.63 377.32 L 314.72 377.85 L 318.81 376.63 L 322.90 379.49 L 326.99 381.92 L 331.08 382.47 L 335.16 380.26 L 339.25 381.77 L 343.34 430.24 L 347.43 439.71 L 351.52 428.51 L 355.61 422.03 L 359.70 416.94 L 363.79 411.85 L 367.88 410.08 L 371.97 414.63 L 376.05 414.40 L 380.14 413.82 L 384.23 408.29 L 388.32 404.72 L 392.41 403.95 L 396.50 403.28 L 400.59 404.44 L 404.68 404.41 L 408.77 406.25 L 412.86 403.14 L 416.95 395.87 L 421.03 390.96 L 425.12 388.81 L 429.21 388.77 L 433.30 388.51 L 437.39 386.15 L 441.48 385.07 L 445.57 391.34 L 449.66 390.84 L 453.75 389.17 L 457.84 386.39 L 461.92 386.36 L 466.01 387.88 L 470.10 393.16 L 474.19 392.83 L 478.28 391.81 L 482.37 394.01 L 486.46 387.75 L 490.55 388.10 L 494.64 388.69 L 498.73 384.64 L 502.82 380.63 L 506.90 379.22 L 510.99 376.84 L 515.08 377.39 L 519.17 378.20 L 523.26 375.35 L 527.35 377.48 L 531.44 379.24 L 535.53 378.24 L 539.62 378.85 L 543.71 383.95 L 547.79 385.36 L 551.88 381.20 L 555.97 376.71 L 560.06 367.81 L 564.15 368.27 L 568.24 367.85 L 572.33 364.65 L 576.42 363.49 L 580.51 363.56 L 584.60 364.00 L 588.68 362.53 L 592.77 362.15 L 596.86 357.61 L 600.95 355.58 L 605.04 355.25 L 609.13 351.36 L 613.22 349.60 L 617.31 348.06 L 621.40 347.75 L 625.49 343.82 L 629.58 341.22 L 633.66 337.61 L 637.75 333.12 L 641.84 333.01 L 645.93 329.02 L 650.02 328.48 L 654.11 326.20 L 658.20 325.38 L 662.29 327.09 L 666.38 329.30 L 670.47 332.34 L 674.55 328.26 L 678.64 322.74 L 682.73 317.03 L 686.82 314.60 L 690.91 315.19 L 695.00 310.34 L 699.09 307.90 L 703.18 301.29 L 707.27 302.84 L 711.36 299.03 L 715.45 289.75 L 719.53 289.38 L 723.62 286.20 L 727.71 284.34 L 731.80 277.26 L 735.89 273.49 L 739.98 268.78 L 744.07 276.68 L 748.16 273.98 L 752.25 271.41 L 756.34 267.54 L 760.42 278.62 L 764.51 287.35 L 768.60 300.65 L 772.69 287.67 L 776.78 280.95 L 780.87 282.49 L 784.96 283.42 L 789.05 271.32 L 793.14 270.11 L 797.23 267.98 L 801.32 268.14 L 805.40 263.77 L 809.49 263.16 L 813.58 266.71 L 817.67 265.75 L 821.76 267.12 L 825.85 262.67 L 829.94 259.91 L 834.03 261.05 L 838.12 262.75 L 842.21 256.49 L 846.29 249.75 L 850.38 253.24 L 854.47 252.04 L 858.56 266.25 L 862.65 262.03 L 866.74 262.36 L 870.83 278.78 L 874.92 279.11 L 879.01 270.35 L 883.10 266.60 L 887.18 268.30 L 891.27 261.89 L 895.36 256.23 L 899.45 253.18 L 903.54 249.94 L 907.63 248.74 L 911.72 251.89 L 915.81 247.82 L 919.90 257.01 L 923.99 256.89 L 928.08 251.77 L 932.16 248.41 L 936.25 247.73 L 940.34 249.51 L 944.43 251.87 L 948.52 248.14 L 952.61 252.62 L 956.70 250.31 L 960.79 252.62 L 964.88 258.84 L 968.97 261.02 L 973.05 286.60 L 977.14 280.59 L 981.23 273.80 L 985.32 268.28 L 989.41 267.84 L 993.50 262.67 L 997.59 259.13 L 1001.68 259.71 L 1005.77 265.83 L 1009.86 265.96 L 1013.95 261.65 L 1018.03 251.58 L 1022.12 251.21 L 1026.21 251.06 L 1030.30 252.54 L 1034.39 253.90 L 1038.48 251.90 L 1042.57 265.05 L 1046.66 257.10 L 1050.75 254.24 L 1054.84 252.91 L 1058.92 245.32 L 1063.01 244.34 L 1067.10 236.41 L 1071.19 231.19 L 1075.28 226.57 L 1079.37 226.90 L 1083.46 227.58 L 1087.55 228.30 L 1091.64 216.47 L 1095.73 210.77 L 1099.82 204.98 L 1103.90 200.90 L 1107.99 187.60 L 1112.08 168.87 L 1116.17 181.58 L 1120.26 182.93 L 1124.35 179.76 L 1128.44 179.01 L 1132.53 179.03 L 1136.62 177.20 L 1140.71 177.47 L 1144.79 168.27 L 1148.88 152.87 L 1152.97 165.39 L 1157.06 161.12 L 1161.15 161.94 L 1165.24 161.97 L 1169.33 169.49 L 1173.42 199.28 L 1177.51 176.07 L 1181.60 174.66 L 1185.68 183.39 L 1189.77 183.72 L 1193.86 169.56 L 1197.95 168.91 L 1202.04 166.33 L 1206.13 164.00 L 1210.22 165.99 L 1214.31 163.71 L 1218.40 152.50 L 1222.49 146.57 L 1226.58 138.62 L 1230.66 136.99 L 1234.75 171.17 L 1238.84 173.48 L 1242.93 172.88 L 1247.02 165.25 L 1251.11 161.51 L 1255.20 157.75 L 1259.29 152.73 L 1263.38 153.77 L 1267.47 165.91 L 1271.55 166.43 L 1275.64 184.76 L 1279.73 180.29 L 1283.82 190.84 L 1287.91 207.45 L 1292.00 238.59" fill="none" stroke="#1d4ed8" stroke-width="2"  />
  </g>
  <g>
    <text x="54" y="538" fill="#1f2937" font-size="16" font-weight="700">B. 绝对误差（越低越好）</text>
    <line x1="98" y1="558" x2="124" y2="558" stroke="#1d4ed8" stroke-width="2"  />
      <text x="130" y="562" fill="#24312e" font-size="12">持仓分段误差</text>
    <line x1="98" y1="560.00" x2="1292" y2="560.00" stroke="#d7e3df" stroke-width="1" />
      <text x="90" y="564.00" text-anchor="end" fill="#5b6b68" font-size="11">1.90%</text>
<line x1="98" y1="630.00" x2="1292" y2="630.00" stroke="#d7e3df" stroke-width="1" />
      <text x="90" y="634.00" text-anchor="end" fill="#5b6b68" font-size="11">1.42%</text>
<line x1="98" y1="700.00" x2="1292" y2="700.00" stroke="#d7e3df" stroke-width="1" />
      <text x="90" y="704.00" text-anchor="end" fill="#5b6b68" font-size="11">0.95%</text>
<line x1="98" y1="770.00" x2="1292" y2="770.00" stroke="#d7e3df" stroke-width="1" />
      <text x="90" y="774.00" text-anchor="end" fill="#5b6b68" font-size="11">0.47%</text>
<line x1="98" y1="840.00" x2="1292" y2="840.00" stroke="#d7e3df" stroke-width="1" />
      <text x="90" y="844.00" text-anchor="end" fill="#5b6b68" font-size="11">0.00%</text>
    <line x1="98.00" y1="560" x2="98.00" y2="840" stroke="#eef3f1" stroke-width="1" />
      <text x="98.00" y="868" text-anchor="middle" fill="#5b6b68" font-size="11">25-01-02</text>
<line x1="290.18" y1="560" x2="290.18" y2="840" stroke="#eef3f1" stroke-width="1" />
      <text x="290.18" y="868" text-anchor="middle" fill="#5b6b68" font-size="11">25-03-18</text>
<line x1="478.28" y1="560" x2="478.28" y2="840" stroke="#eef3f1" stroke-width="1" />
      <text x="478.28" y="868" text-anchor="middle" fill="#5b6b68" font-size="11">25-05-27</text>
<line x1="695.00" y1="560" x2="695.00" y2="840" stroke="#eef3f1" stroke-width="1" />
      <text x="695.00" y="868" text-anchor="middle" fill="#5b6b68" font-size="11">25-08-11</text>
<line x1="911.72" y1="560" x2="911.72" y2="840" stroke="#eef3f1" stroke-width="1" />
      <text x="911.72" y="868" text-anchor="middle" fill="#5b6b68" font-size="11">25-10-31</text>
<line x1="1099.82" y1="560" x2="1099.82" y2="840" stroke="#eef3f1" stroke-width="1" />
      <text x="1099.82" y="868" text-anchor="middle" fill="#5b6b68" font-size="11">26-01-07</text>
<line x1="1292.00" y1="560" x2="1292.00" y2="840" stroke="#eef3f1" stroke-width="1" />
      <text x="1292.00" y="868" text-anchor="middle" fill="#5b6b68" font-size="11">26-03-23</text>
    <line x1="1091.64" y1="560" x2="1091.64" y2="840" stroke="#f59e0b" stroke-width="1.4" stroke-dasharray="4 4" />
       <text x="1097.64" y="552" fill="#a16207" font-size="11">验证起点</text>
    <path d="M 98.00 772.11 L 102.09 787.69 L 106.18 823.94 L 110.27 818.89 L 114.36 787.93 L 118.45 793.66 L 122.53 834.44 L 126.62 825.35 L 130.71 810.77 L 134.80 815.05 L 138.89 825.32 L 142.98 782.97 L 147.07 820.83 L 151.16 798.04 L 155.25 744.25 L 159.34 798.97 L 163.42 745.36 L 167.51 828.24 L 171.60 811.61 L 175.69 839.78 L 179.78 771.61 L 183.87 832.45 L 187.96 781.29 L 192.05 824.38 L 196.14 828.97 L 200.23 791.86 L 204.32 828.23 L 208.40 805.22 L 212.49 762.32 L 216.58 826.39 L 220.67 835.85 L 224.76 824.38 L 228.85 811.36 L 232.94 789.44 L 237.03 806.64 L 241.12 835.27 L 245.21 837.09 L 249.29 780.05 L 253.38 802.63 L 257.47 838.06 L 261.56 815.36 L 265.65 806.29 L 269.74 830.07 L 273.83 830.05 L 277.92 783.12 L 282.01 782.32 L 286.10 831.47 L 290.18 789.60 L 294.27 769.70 L 298.36 807.84 L 302.45 833.14 L 306.54 803.26 L 310.63 792.81 L 314.72 825.34 L 318.81 817.15 L 322.90 795.82 L 326.99 778.59 L 331.08 811.39 L 335.16 837.07 L 339.25 725.71 L 343.34 590.00 L 347.43 742.05 L 351.52 821.17 L 355.61 761.16 L 359.70 774.03 L 363.79 779.74 L 367.88 828.97 L 371.97 828.09 L 376.05 824.47 L 380.14 837.32 L 384.23 756.86 L 388.32 829.10 L 392.41 778.84 L 396.50 777.39 L 400.59 800.76 L 404.68 760.21 L 408.77 824.84 L 412.86 828.99 L 416.95 730.37 L 421.03 828.62 L 425.12 769.59 L 429.21 775.11 L 433.30 759.75 L 437.39 834.57 L 441.48 832.21 L 445.57 836.02 L 449.66 839.19 L 453.75 839.96 L 457.84 826.73 L 461.92 836.11 L 466.01 808.61 L 470.10 808.13 L 474.19 818.61 L 478.28 784.95 L 482.37 832.68 L 486.46 809.83 L 490.55 779.13 L 494.64 792.05 L 498.73 779.15 L 502.82 810.31 L 506.90 827.85 L 510.99 817.68 L 515.08 780.18 L 519.17 782.58 L 523.26 818.45 L 527.35 736.88 L 531.44 824.34 L 535.53 815.28 L 539.62 839.19 L 543.71 831.23 L 547.79 810.85 L 551.88 798.54 L 555.97 743.92 L 560.06 839.94 L 564.15 811.99 L 568.24 837.42 L 572.33 827.98 L 576.42 813.28 L 580.51 789.70 L 584.60 792.78 L 588.68 821.85 L 592.77 838.11 L 596.86 795.38 L 600.95 829.85 L 605.04 810.13 L 609.13 803.79 L 613.22 798.15 L 617.31 815.62 L 621.40 823.87 L 625.49 799.99 L 629.58 816.86 L 633.66 762.86 L 637.75 822.83 L 641.84 792.28 L 645.93 839.98 L 650.02 835.56 L 654.11 798.03 L 658.20 824.66 L 662.29 821.91 L 666.38 729.03 L 670.47 804.49 L 674.55 758.88 L 678.64 784.65 L 682.73 783.41 L 686.82 817.80 L 690.91 809.28 L 695.00 815.92 L 699.09 827.66 L 703.18 816.79 L 707.27 703.67 L 711.36 804.33 L 715.45 829.92 L 719.53 839.09 L 723.62 747.75 L 727.71 823.40 L 731.80 836.08 L 735.89 748.95 L 739.98 809.33 L 744.07 811.71 L 748.16 774.23 L 752.25 837.23 L 756.34 839.25 L 760.42 780.08 L 764.51 780.55 L 768.60 830.98 L 772.69 756.57 L 776.78 765.85 L 780.87 798.01 L 784.96 821.11 L 789.05 831.45 L 793.14 814.58 L 797.23 756.90 L 801.32 796.53 L 805.40 772.12 L 809.49 768.55 L 813.58 789.56 L 817.67 817.88 L 821.76 755.54 L 825.85 759.77 L 829.94 820.76 L 834.03 696.91 L 838.12 766.28 L 842.21 772.67 L 846.29 794.07 L 850.38 828.02 L 854.47 740.55 L 858.56 810.35 L 862.65 733.35 L 866.74 799.88 L 870.83 770.95 L 874.92 766.51 L 879.01 744.29 L 883.10 780.34 L 887.18 819.77 L 891.27 797.95 L 895.36 774.03 L 899.45 817.81 L 903.54 760.16 L 907.63 742.04 L 911.72 827.61 L 915.81 811.67 L 919.90 798.78 L 923.99 817.51 L 928.08 771.91 L 932.16 802.75 L 936.25 807.35 L 940.34 825.13 L 944.43 775.87 L 948.52 788.14 L 952.61 831.98 L 956.70 822.73 L 960.79 749.18 L 964.88 814.91 L 968.97 798.64 L 973.05 787.15 L 977.14 755.63 L 981.23 725.52 L 985.32 828.36 L 989.41 827.60 L 993.50 826.29 L 997.59 803.26 L 1001.68 759.27 L 1005.77 812.50 L 1009.86 813.07 L 1013.95 715.56 L 1018.03 807.85 L 1022.12 803.97 L 1026.21 809.59 L 1030.30 754.65 L 1034.39 761.19 L 1038.48 756.52 L 1042.57 804.26 L 1046.66 778.05 L 1050.75 803.09 L 1054.84 762.79 L 1058.92 813.27 L 1063.01 826.58 L 1067.10 799.79 L 1071.19 780.60 L 1075.28 824.04 L 1079.37 799.02 L 1083.46 813.99 L 1087.55 824.70 L 1091.64 831.96 L 1095.73 760.80 L 1099.82 815.64 L 1103.90 806.00 L 1107.99 836.44 L 1112.08 770.36 L 1116.17 793.28 L 1120.26 798.33 L 1124.35 837.75 L 1128.44 815.11 L 1132.53 761.85 L 1136.62 783.77 L 1140.71 752.53 L 1144.79 810.56 L 1148.88 786.18 L 1152.97 800.03 L 1157.06 805.55 L 1161.15 819.37 L 1165.24 740.35 L 1169.33 774.17 L 1173.42 746.86 L 1177.51 837.11 L 1181.60 830.93 L 1185.68 834.26 L 1189.77 832.78 L 1193.86 838.00 L 1197.95 806.94 L 1202.04 832.78 L 1206.13 767.34 L 1210.22 804.52 L 1214.31 751.76 L 1218.40 760.91 L 1222.49 775.51 L 1226.58 785.54 L 1230.66 699.08 L 1234.75 825.68 L 1238.84 782.00 L 1242.93 766.93 L 1247.02 767.37 L 1251.11 754.67 L 1255.20 766.64 L 1259.29 819.70 L 1263.38 749.04 L 1267.47 818.12 L 1271.55 805.65 L 1275.64 806.08 L 1279.73 772.68 L 1283.82 755.65 L 1287.91 803.88 L 1292.00 835.35" fill="none" stroke="#1d4ed8" stroke-width="2"  />
  </g>
</svg>