<?xml version="1.0" encoding="UTF-8"?>
<svg xmlns="http://www.w3.org/2000/svg" width="1360" height="980" viewBox="0 0 1360 980">
  <defs>
    <linearGradient id="bg" x1="0" y1="0" x2="1" y2="1">
      <stop offset="0%" stop-color="#f4efe6" />
      <stop offset="100%" stop-color="#eef5f2" />
    </linearGradient>
  </defs>
  <rect x="0" y="0" width="1360" height="980" fill="url(#bg)" />
  <text x="46" y="36" fill="#1f2937" font-size="31" font-weight="700">161128 离线研究图（持仓逐日估值版）</text>
  <text x="46" y="66" fill="#5b6b68" font-size="13">历史前十大持仓 + 持仓逐日涨跌幅 + USDCNY；双目标 lambda=0.10；披露期数 29；覆盖率均值 92.1%</text>
  <g>
    <text x="54" y="110" fill="#1f2937" font-size="16" font-weight="700">A. 净值拟合（同日对齐，无平移）</text>
    <line x1="98" y1="112" x2="124" y2="112" stroke="#0f766e" stroke-width="2"  />
      <text x="130" y="116" fill="#24312e" font-size="12">真实净值</text>
<line x1="313" y1="112" x2="339" y2="112" stroke="#1d4ed8" stroke-width="2"  />
      <text x="345" y="116" fill="#24312e" font-size="12">持仓分段估值</text>
<line x1="528" y1="112" x2="554" y2="112" stroke="#b45309" stroke-width="2" stroke-dasharray="6 4" />
      <text x="560" y="116" fill="#24312e" font-size="12">持仓双目标估值</text>
    <line x1="98" y1="132.00" x2="1292" y2="132.00" stroke="#d7e3df" stroke-width="1" />
      <text x="90" y="136.00" text-anchor="end" fill="#5b6b68" font-size="11">6.225</text>
<line x1="98" y1="209.50" x2="1292" y2="209.50" stroke="#d7e3df" stroke-width="1" />
      <text x="90" y="213.50" text-anchor="end" fill="#5b6b68" font-size="11">5.604</text>
<line x1="98" y1="287.00" x2="1292" y2="287.00" stroke="#d7e3df" stroke-width="1" />
      <text x="90" y="291.00" text-anchor="end" fill="#5b6b68" font-size="11">4.983</text>
<line x1="98" y1="364.50" x2="1292" y2="364.50" stroke="#d7e3df" stroke-width="1" />
      <text x="90" y="368.50" text-anchor="end" fill="#5b6b68" font-size="11">4.362</text>
<line x1="98" y1="442.00" x2="1292" y2="442.00" stroke="#d7e3df" stroke-width="1" />
      <text x="90" y="446.00" text-anchor="end" fill="#5b6b68" font-size="11">3.741</text>
    <line x1="98.00" y1="132" x2="98.00" y2="442" stroke="#eef3f1" stroke-width="1" />
      <text x="98.00" y="470" text-anchor="middle" fill="#5b6b68" font-size="11">25-01-02</text>
<line x1="290.72" y1="132" x2="290.72" y2="442" stroke="#eef3f1" stroke-width="1" />
      <text x="290.72" y="470" text-anchor="middle" fill="#5b6b68" font-size="11">25-03-17</text>
<line x1="479.24" y1="132" x2="479.24" y2="442" stroke="#eef3f1" stroke-width="1" />
      <text x="479.24" y="470" text-anchor="middle" fill="#5b6b68" font-size="11">25-05-23</text>
<line x1="697.09" y1="132" x2="697.09" y2="442" stroke="#eef3f1" stroke-width="1" />
      <text x="697.09" y="470" text-anchor="middle" fill="#5b6b68" font-size="11">25-08-06</text>
<line x1="910.76" y1="132" x2="910.76" y2="442" stroke="#eef3f1" stroke-width="1" />
      <text x="910.76" y="470" text-anchor="middle" fill="#5b6b68" font-size="11">25-10-24</text>
<line x1="1099.28" y1="132" x2="1099.28" y2="442" stroke="#eef3f1" stroke-width="1" />
      <text x="1099.28" y="470" text-anchor="middle" fill="#5b6b68" font-size="11">25-12-26</text>
<line x1="1292.00" y1="132" x2="1292.00" y2="442" stroke="#eef3f1" stroke-width="1" />
      <text x="1292.00" y="470" text-anchor="middle" fill="#5b6b68" font-size="11">26-03-12</text>
    <line x1="1116.04" y1="132" x2="1116.04" y2="442" stroke="#f59e0b" stroke-width="1.4" stroke-dasharray="4 4" />
       <text x="1122.04" y="124" fill="#a16207" font-size="11">验证起点</text>
    <path d="M 98.00 301.59 L 102.19 292.20 L 106.38 283.89 L 110.57 298.02 L 114.76 297.43 L 118.95 297.46 L 123.14 310.28 L 127.33 315.23 L 131.52 315.88 L 135.71 303.33 L 139.89 310.74 L 144.08 301.30 L 148.27 301.39 L 152.46 300.68 L 156.65 286.49 L 160.84 285.71 L 165.03 292.14 L 169.22 324.72 L 173.41 312.05 L 177.60 308.38 L 181.79 314.18 L 185.98 305.81 L 190.17 304.75 L 194.36 305.06 L 198.55 296.29 L 202.74 292.93 L 206.93 293.02 L 211.12 289.86 L 215.31 288.96 L 219.49 289.10 L 223.68 303.65 L 227.87 311.72 L 232.06 319.48 L 236.25 314.51 L 240.44 335.78 L 244.63 326.50 L 248.82 345.91 L 253.01 345.91 L 257.20 338.70 L 261.39 353.17 L 265.58 345.55 L 269.77 368.51 L 273.96 370.43 L 278.15 362.81 L 282.34 371.82 L 286.53 356.29 L 290.72 355.73 L 294.91 364.09 L 299.09 357.02 L 303.28 359.13 L 307.47 356.51 L 311.66 347.40 L 315.85 345.79 L 320.04 359.15 L 324.23 362.98 L 328.42 375.66 L 332.61 375.34 L 336.80 370.61 L 340.99 367.63 L 345.18 402.04 L 349.37 430.14 L 353.56 439.65 L 357.75 376.30 L 361.94 399.30 L 366.13 387.05 L 370.32 383.80 L 374.51 382.23 L 378.69 401.66 L 382.88 405.16 L 387.07 405.28 L 391.26 418.36 L 395.45 406.85 L 399.64 392.75 L 403.83 375.63 L 408.02 367.69 L 412.21 369.40 L 416.40 367.15 L 420.59 365.12 L 424.78 355.53 L 428.97 350.84 L 433.16 345.85 L 437.35 345.69 L 441.54 320.80 L 445.73 308.90 L 449.92 303.75 L 454.11 303.66 L 458.29 303.16 L 462.48 303.71 L 466.67 306.22 L 470.86 316.36 L 475.05 315.94 L 479.24 323.39 L 483.43 324.14 L 487.62 309.64 L 491.81 311.46 L 496.00 308.04 L 500.19 310.98 L 504.38 297.33 L 508.57 295.85 L 512.76 298.37 L 516.95 294.01 L 521.14 292.53 L 525.33 289.98 L 529.52 291.86 L 533.71 286.11 L 537.89 295.25 L 542.08 286.25 L 546.27 290.92 L 550.46 288.69 L 554.65 288.98 L 558.84 290.78 L 563.03 284.77 L 567.22 275.69 L 571.41 268.54 L 575.60 264.85 L 579.79 264.14 L 583.98 258.57 L 588.17 265.99 L 592.36 257.99 L 596.55 250.22 L 600.74 250.13 L 604.93 255.50 L 609.12 252.88 L 613.31 247.02 L 617.49 248.06 L 621.68 249.77 L 625.87 251.17 L 630.06 243.30 L 634.25 241.40 L 638.44 236.48 L 642.63 236.73 L 646.82 235.68 L 651.01 243.12 L 655.20 238.92 L 659.39 234.99 L 663.58 233.18 L 667.77 227.90 L 671.96 228.88 L 676.15 226.80 L 680.34 228.32 L 684.53 241.68 L 688.72 229.06 L 692.91 235.18 L 697.09 226.23 L 701.28 224.20 L 705.47 215.98 L 709.66 219.38 L 713.85 210.16 L 718.04 212.18 L 722.23 212.56 L 726.42 217.31 L 730.61 217.06 L 734.80 229.03 L 738.99 233.91 L 743.18 237.14 L 747.37 228.45 L 751.56 230.55 L 755.75 227.03 L 759.94 224.72 L 764.13 220.94 L 768.32 231.88 L 772.51 231.56 L 776.69 237.60 L 780.88 232.21 L 785.07 229.18 L 789.26 230.40 L 793.45 226.48 L 797.64 226.59 L 801.83 214.97 L 806.02 214.05 L 810.21 211.25 L 814.40 205.54 L 818.59 209.54 L 822.78 214.17 L 826.97 204.69 L 831.16 196.56 L 835.35 185.32 L 839.54 193.43 L 843.73 196.71 L 847.92 196.29 L 852.11 194.57 L 856.29 191.90 L 860.48 186.65 L 864.67 170.35 L 868.86 198.32 L 873.05 182.41 L 877.24 192.81 L 881.43 188.26 L 885.62 187.88 L 889.81 185.46 L 894.00 177.54 L 898.19 178.99 L 902.38 184.44 L 906.57 178.23 L 910.76 167.60 L 914.95 154.14 L 919.14 143.07 L 923.33 135.88 L 927.52 145.95 L 931.71 147.79 L 935.89 145.18 L 940.08 161.14 L 944.27 161.21 L 948.46 175.33 L 952.65 177.82 L 956.84 159.61 L 961.03 164.36 L 965.22 163.07 L 969.41 179.08 L 973.60 174.57 L 977.79 184.33 L 981.98 195.23 L 986.17 189.09 L 990.36 206.56 L 994.55 206.05 L 998.74 189.79 L 1002.93 189.86 L 1007.12 181.69 L 1011.31 181.86 L 1015.49 178.13 L 1019.68 178.17 L 1023.87 172.04 L 1028.06 174.96 L 1032.25 172.50 L 1036.44 169.29 L 1040.63 163.31 L 1044.82 162.04 L 1049.01 161.78 L 1053.20 166.25 L 1057.39 186.25 L 1061.58 192.92 L 1065.77 191.38 L 1069.96 206.31 L 1074.15 196.89 L 1078.34 184.03 L 1082.53 181.01 L 1086.72 175.23 L 1090.91 174.27 L 1095.09 175.02 L 1099.28 174.06 L 1103.47 177.47 L 1107.66 179.12 L 1111.85 185.54 L 1116.04 186.52 L 1120.23 182.40 L 1124.42 181.70 L 1128.61 191.65 L 1132.80 185.63 L 1136.99 183.62 L 1141.18 184.59 L 1145.37 194.13 L 1149.56 191.40 L 1153.75 190.75 L 1157.94 191.05 L 1162.13 210.92 L 1166.32 204.20 L 1170.51 199.51 L 1174.69 196.85 L 1178.88 192.26 L 1183.07 182.83 L 1187.26 179.75 L 1191.45 191.76 L 1195.64 201.56 L 1199.83 198.24 L 1204.02 213.25 L 1208.21 226.31 L 1212.40 236.89 L 1216.59 211.83 L 1220.78 202.42 L 1224.97 206.84 L 1229.16 205.61 L 1233.35 222.72 L 1237.54 226.29 L 1241.73 216.37 L 1245.92 205.72 L 1250.11 218.22 L 1254.29 231.40 L 1258.48 226.01 L 1262.67 234.03 L 1266.86 225.53 L 1271.05 224.38 L 1275.24 235.92 L 1279.43 223.68 L 1283.62 224.81 L 1287.81 223.31 L 1292.00 234.06" fill="none" stroke="#0f766e" stroke-width="2"  />
<path d="M 98.00 299.43 L 102.19 294.10 L 106.38 287.70 L 110.57 291.29 L 114.76 299.76 L 118.95 297.80 L 123.14 298.02 L 127.33 312.61 L 131.52 314.28 L 135.71 308.93 L 139.89 304.14 L 144.08 302.45 L 148.27 302.14 L 152.46 302.70 L 156.65 293.70 L 160.84 285.32 L 165.03 287.79 L 169.22 317.37 L 173.41 294.09 L 177.60 308.77 L 181.79 310.78 L 185.98 309.75 L 190.17 306.33 L 194.36 304.25 L 198.55 301.55 L 202.74 293.54 L 206.93 294.67 L 211.12 293.17 L 215.31 291.80 L 219.49 291.44 L 223.68 297.04 L 227.87 310.15 L 232.06 315.18 L 236.25 315.25 L 240.44 327.20 L 244.63 332.45 L 248.82 334.50 L 253.01 345.07 L 257.20 342.09 L 261.39 352.11 L 265.58 346.83 L 269.77 360.52 L 273.96 368.89 L 278.15 363.91 L 282.34 369.44 L 286.53 364.87 L 290.72 354.64 L 294.91 362.34 L 299.09 358.98 L 303.28 357.17 L 307.47 359.05 L 311.66 351.61 L 315.85 347.39 L 320.04 351.49 L 324.23 362.08 L 328.42 369.16 L 332.61 377.45 L 336.80 372.74 L 340.99 368.36 L 345.18 391.07 L 349.37 420.75 L 353.56 437.72 L 357.75 393.73 L 361.94 392.33 L 366.13 394.43 L 370.32 384.97 L 374.51 381.17 L 378.69 392.84 L 382.88 402.80 L 387.07 405.65 L 391.26 407.01 L 395.45 413.15 L 399.64 398.88 L 403.83 384.23 L 408.02 368.17 L 412.21 367.02 L 416.40 368.58 L 420.59 364.84 L 424.78 361.58 L 428.97 351.29 L 433.16 344.26 L 437.35 345.44 L 441.54 333.19 L 445.73 309.85 L 449.92 306.22 L 454.11 302.43 L 458.29 302.10 L 462.48 301.93 L 466.67 303.88 L 470.86 310.02 L 475.05 315.96 L 479.24 317.80 L 483.43 323.64 L 487.62 324.39 L 491.81 309.54 L 496.00 309.97 L 500.19 305.97 L 504.38 301.21 L 508.57 296.28 L 512.76 298.00 L 516.95 293.28 L 521.14 290.00 L 525.33 289.73 L 529.52 288.37 L 533.71 287.02 L 537.89 286.43 L 542.08 289.17 L 546.27 287.68 L 550.46 288.08 L 554.65 289.35 L 558.84 289.79 L 563.03 286.98 L 567.22 275.33 L 571.41 273.55 L 575.60 266.19 L 579.79 268.30 L 583.98 259.65 L 588.17 264.28 L 592.36 261.24 L 596.55 253.62 L 600.74 250.45 L 604.93 250.10 L 609.12 252.91 L 613.31 249.52 L 617.49 245.80 L 621.68 248.19 L 625.87 249.71 L 630.06 245.93 L 634.25 241.14 L 638.44 238.47 L 642.63 236.73 L 646.82 236.62 L 651.01 239.17 L 655.20 239.34 L 659.39 238.32 L 663.58 232.33 L 667.77 230.40 L 671.96 226.88 L 676.15 226.40 L 680.34 227.96 L 684.53 233.74 L 688.72 235.45 L 692.91 227.92 L 697.09 233.05 L 701.28 223.01 L 705.47 219.91 L 709.66 216.06 L 713.85 215.14 L 718.04 210.88 L 722.23 212.83 L 726.42 215.02 L 730.61 216.68 L 734.80 225.14 L 738.99 230.79 L 743.18 235.00 L 747.37 233.03 L 751.56 230.50 L 755.75 227.24 L 759.94 225.90 L 764.13 221.15 L 768.32 228.41 L 772.51 233.21 L 776.69 231.90 L 780.88 236.31 L 785.07 228.72 L 789.26 227.47 L 793.45 227.13 L 797.64 223.40 L 801.83 205.77 L 806.02 215.88 L 810.21 212.44 L 814.40 208.78 L 818.59 205.95 L 822.78 211.78 L 826.97 209.29 L 831.16 201.49 L 835.35 192.46 L 839.54 186.83 L 843.73 196.61 L 847.92 197.18 L 852.11 197.15 L 856.29 192.71 L 860.48 188.45 L 864.67 150.12 L 868.86 188.14 L 873.05 192.26 L 877.24 185.29 L 881.43 186.16 L 885.62 186.76 L 889.81 188.60 L 894.00 183.81 L 898.19 179.35 L 902.38 181.23 L 906.57 180.75 L 910.76 167.80 L 914.95 162.69 L 919.14 150.80 L 923.33 139.16 L 927.52 140.56 L 931.71 145.16 L 935.89 143.97 L 940.08 156.39 L 944.27 157.46 L 948.46 169.34 L 952.65 176.94 L 956.84 166.60 L 961.03 162.81 L 965.22 162.15 L 969.41 170.94 L 973.60 175.89 L 977.79 178.75 L 981.98 192.31 L 986.17 194.24 L 990.36 206.53 L 994.55 207.58 L 998.74 192.98 L 1002.93 191.27 L 1007.12 184.80 L 1011.31 182.37 L 1015.49 182.70 L 1019.68 179.04 L 1023.87 177.59 L 1028.06 171.04 L 1032.25 173.40 L 1036.44 168.91 L 1040.63 165.08 L 1044.82 161.53 L 1049.01 159.32 L 1053.20 167.35 L 1057.39 177.36 L 1061.58 190.13 L 1065.77 192.27 L 1069.96 201.41 L 1074.15 200.78 L 1078.34 185.98 L 1082.53 181.50 L 1086.72 179.57 L 1090.91 173.06 L 1095.09 174.87 L 1099.28 175.61 L 1103.47 174.74 L 1107.66 178.45 L 1111.85 181.81 L 1116.04 184.77 L 1120.23 182.47 L 1124.42 182.94 L 1128.61 185.63 L 1132.80 187.29 L 1136.99 182.72 L 1141.18 182.67 L 1145.37 187.44 L 1149.56 194.20 L 1153.75 187.92 L 1157.94 192.48 L 1162.13 191.91 L 1166.32 207.97 L 1170.51 201.98 L 1174.69 197.56 L 1178.88 195.62 L 1183.07 189.78 L 1187.26 182.22 L 1191.45 183.48 L 1195.64 200.38 L 1199.83 197.69 L 1204.02 203.86 L 1208.21 236.03 L 1212.40 234.24 L 1216.59 218.57 L 1220.78 203.77 L 1224.97 205.20 L 1229.16 207.21 L 1233.35 217.18 L 1237.54 221.91 L 1241.73 227.95 L 1245.92 208.65 L 1250.11 209.27 L 1254.29 221.98 L 1258.48 225.90 L 1262.67 229.12 L 1266.86 224.03 L 1271.05 223.80 L 1275.24 228.44 L 1279.43 230.89 L 1283.62 225.16 L 1287.81 220.48 L 1292.00 227.69" fill="none" stroke="#1d4ed8" stroke-width="2"  />
<path d="M 98.00 299.87 L 102.19 300.76 L 106.38 291.47 L 110.57 283.94 L 114.76 297.79 L 118.95 297.44 L 123.14 297.47 L 127.33 310.12 L 131.52 314.77 L 135.71 314.95 L 139.89 303.02 L 144.08 309.91 L 148.27 301.31 L 152.46 301.40 L 156.65 299.78 L 160.84 286.05 L 165.03 285.44 L 169.22 293.41 L 173.41 322.60 L 177.60 311.47 L 181.79 308.21 L 185.98 313.32 L 190.17 305.48 L 194.36 304.34 L 198.55 304.35 L 202.74 295.64 L 206.93 292.94 L 211.12 293.03 L 215.31 289.65 L 219.49 288.76 L 223.68 289.32 L 227.87 303.79 L 232.06 311.70 L 236.25 318.77 L 240.44 314.99 L 244.63 335.17 L 248.82 326.74 L 253.01 345.47 L 257.20 345.13 L 261.39 339.16 L 265.58 352.19 L 269.77 346.14 L 273.96 368.20 L 278.15 369.48 L 282.34 362.83 L 286.53 370.83 L 290.72 355.72 L 294.91 355.79 L 299.09 363.37 L 303.28 356.73 L 307.47 358.81 L 311.66 355.65 L 315.85 347.08 L 320.04 345.94 L 324.23 359.09 L 328.42 363.12 L 332.61 375.36 L 336.80 374.81 L 340.99 370.09 L 345.18 368.74 L 349.37 402.88 L 353.56 430.24 L 357.75 436.77 L 361.94 376.94 L 366.13 398.56 L 370.32 386.50 L 374.51 383.31 L 378.69 382.62 L 382.88 401.44 L 387.07 405.17 L 391.26 405.29 L 395.45 417.58 L 399.64 405.90 L 403.83 391.82 L 408.02 374.88 L 412.21 367.31 L 416.40 369.00 L 420.59 366.67 L 424.78 364.38 L 428.97 354.90 L 433.16 350.14 L 437.35 345.50 L 441.54 344.43 L 445.73 319.69 L 449.92 308.33 L 454.11 303.32 L 458.29 303.17 L 462.48 302.82 L 466.67 303.42 L 470.86 306.23 L 475.05 315.97 L 479.24 315.73 L 483.43 323.40 L 487.62 324.15 L 491.81 309.28 L 496.00 311.02 L 500.19 307.59 L 504.38 309.85 L 508.57 296.91 L 512.76 295.60 L 516.95 297.70 L 521.14 293.35 L 525.33 291.98 L 529.52 289.50 L 533.71 291.10 L 537.89 285.78 L 542.08 294.35 L 546.27 285.97 L 550.46 290.36 L 554.65 288.70 L 558.84 288.99 L 563.03 290.14 L 567.22 283.75 L 571.41 275.14 L 575.60 267.99 L 579.79 264.69 L 583.98 263.40 L 588.17 258.57 L 592.36 265.27 L 596.55 257.27 L 600.74 250.23 L 604.93 250.14 L 609.12 254.93 L 613.31 252.25 L 617.49 246.53 L 621.68 247.68 L 625.87 249.39 L 630.06 250.38 L 634.25 242.75 L 638.44 240.76 L 642.63 236.11 L 646.82 236.32 L 651.01 235.63 L 655.20 242.37 L 659.39 238.47 L 663.58 234.38 L 667.77 232.54 L 671.96 227.42 L 676.15 228.24 L 680.34 226.58 L 684.53 228.45 L 688.72 240.63 L 692.91 228.55 L 697.09 234.53 L 701.28 225.51 L 705.47 223.38 L 709.66 215.61 L 713.85 218.58 L 718.04 209.79 L 722.23 211.83 L 726.42 212.43 L 730.61 216.84 L 734.80 217.35 L 738.99 228.80 L 743.18 233.61 L 747.37 236.37 L 751.56 228.16 L 755.75 229.86 L 759.94 226.52 L 764.13 223.96 L 768.32 221.03 L 772.51 231.90 L 776.69 231.57 L 780.88 237.07 L 785.07 231.53 L 789.26 228.62 L 793.45 229.67 L 797.64 225.78 L 801.83 224.78 L 806.02 214.63 L 810.21 213.44 L 814.40 210.54 L 818.59 205.12 L 822.78 209.26 L 826.97 213.36 L 831.16 204.02 L 835.35 195.73 L 839.54 184.98 L 843.73 193.21 L 847.92 196.30 L 852.11 195.93 L 856.29 193.96 L 860.48 191.18 L 864.67 184.13 L 868.86 171.02 L 873.05 197.19 L 877.24 182.21 L 881.43 191.85 L 885.62 187.68 L 889.81 187.47 L 894.00 184.77 L 898.19 177.24 L 902.38 178.77 L 906.57 183.63 L 910.76 176.90 L 914.95 166.67 L 919.14 153.33 L 923.33 142.27 L 927.52 135.87 L 931.71 145.42 L 935.89 147.06 L 940.08 145.61 L 944.27 160.35 L 948.46 161.33 L 952.65 175.02 L 956.84 176.46 L 961.03 159.44 L 965.22 163.67 L 969.41 163.29 L 973.60 178.29 L 977.79 174.48 L 981.98 184.41 L 986.17 194.66 L 990.36 189.71 L 994.55 206.19 L 998.74 204.66 L 1002.93 189.43 L 1007.12 188.93 L 1011.31 181.70 L 1015.49 181.87 L 1019.68 177.72 L 1023.87 177.67 L 1028.06 171.50 L 1032.25 174.38 L 1036.44 171.72 L 1040.63 168.43 L 1044.82 162.69 L 1049.01 161.32 L 1053.20 161.76 L 1057.39 166.73 L 1061.58 186.11 L 1065.77 192.39 L 1069.96 191.71 L 1074.15 205.28 L 1078.34 195.55 L 1082.53 183.32 L 1086.72 180.41 L 1090.91 174.60 L 1095.09 174.29 L 1099.28 175.03 L 1103.47 173.64 L 1107.66 177.09 L 1111.85 178.93 L 1116.04 184.99 L 1120.23 185.74 L 1124.42 182.03 L 1128.61 181.66 L 1132.80 190.81 L 1136.99 184.86 L 1141.18 183.10 L 1145.37 184.45 L 1149.56 193.67 L 1153.75 190.65 L 1157.94 190.76 L 1162.13 191.06 L 1166.32 210.17 L 1170.51 203.54 L 1174.69 198.86 L 1178.88 196.25 L 1183.07 191.57 L 1187.26 182.31 L 1191.45 179.56 L 1195.64 191.78 L 1199.83 200.77 L 1204.02 198.16 L 1208.21 214.09 L 1212.40 226.37 L 1216.59 235.38 L 1220.78 210.75 L 1224.97 202.17 L 1229.16 206.42 L 1233.35 206.06 L 1237.54 222.24 L 1241.73 226.04 L 1245.92 215.45 L 1250.11 205.56 L 1254.29 218.12 L 1258.48 230.67 L 1262.67 225.82 L 1266.86 233.00 L 1271.05 224.93 L 1275.24 224.30 L 1279.43 235.18 L 1283.62 223.25 L 1287.81 224.01 L 1292.00 223.22" fill="none" stroke="#b45309" stroke-width="2" stroke-dasharray="6 4" />
  </g>
  <g>
    <text x="54" y="538" fill="#1f2937" font-size="16" font-weight="700">B. 绝对误差（越低越好）</text>
    <line x1="98" y1="540" x2="124" y2="540" stroke="#1d4ed8" stroke-width="2"  />
      <text x="130" y="544" fill="#24312e" font-size="12">持仓分段误差</text>
<line x1="313" y1="540" x2="339" y2="540" stroke="#b45309" stroke-width="2" stroke-dasharray="6 4" />
      <text x="345" y="544" fill="#24312e" font-size="12">持仓双目标误差</text>
    <line x1="98" y1="560.00" x2="1292" y2="560.00" stroke="#d7e3df" stroke-width="1" />
      <text x="90" y="564.00" text-anchor="end" fill="#5b6b68" font-size="11">12.72%</text>
<line x1="98" y1="630.00" x2="1292" y2="630.00" stroke="#d7e3df" stroke-width="1" />
      <text x="90" y="634.00" text-anchor="end" fill="#5b6b68" font-size="11">9.54%</text>
<line x1="98" y1="700.00" x2="1292" y2="700.00" stroke="#d7e3df" stroke-width="1" />
      <text x="90" y="704.00" text-anchor="end" fill="#5b6b68" font-size="11">6.36%</text>
<line x1="98" y1="770.00" x2="1292" y2="770.00" stroke="#d7e3df" stroke-width="1" />
      <text x="90" y="774.00" text-anchor="end" fill="#5b6b68" font-size="11">3.18%</text>
<line x1="98" y1="840.00" x2="1292" y2="840.00" stroke="#d7e3df" stroke-width="1" />
      <text x="90" y="844.00" text-anchor="end" fill="#5b6b68" font-size="11">0.00%</text>
    <line x1="98.00" y1="560" x2="98.00" y2="840" stroke="#eef3f1" stroke-width="1" />
      <text x="98.00" y="868" text-anchor="middle" fill="#5b6b68" font-size="11">25-01-02</text>
<line x1="290.72" y1="560" x2="290.72" y2="840" stroke="#eef3f1" stroke-width="1" />
      <text x="290.72" y="868" text-anchor="middle" fill="#5b6b68" font-size="11">25-03-17</text>
<line x1="479.24" y1="560" x2="479.24" y2="840" stroke="#eef3f1" stroke-width="1" />
      <text x="479.24" y="868" text-anchor="middle" fill="#5b6b68" font-size="11">25-05-23</text>
<line x1="697.09" y1="560" x2="697.09" y2="840" stroke="#eef3f1" stroke-width="1" />
      <text x="697.09" y="868" text-anchor="middle" fill="#5b6b68" font-size="11">25-08-06</text>
<line x1="910.76" y1="560" x2="910.76" y2="840" stroke="#eef3f1" stroke-width="1" />
      <text x="910.76" y="868" text-anchor="middle" fill="#5b6b68" font-size="11">25-10-24</text>
<line x1="1099.28" y1="560" x2="1099.28" y2="840" stroke="#eef3f1" stroke-width="1" />
      <text x="1099.28" y="868" text-anchor="middle" fill="#5b6b68" font-size="11">25-12-26</text>
<line x1="1292.00" y1="560" x2="1292.00" y2="840" stroke="#eef3f1" stroke-width="1" />
      <text x="1292.00" y="868" text-anchor="middle" fill="#5b6b68" font-size="11">26-03-12</text>
    <line x1="1116.04" y1="560" x2="1116.04" y2="840" stroke="#f59e0b" stroke-width="1.4" stroke-dasharray="4 4" />
       <text x="1122.04" y="552" fill="#a16207" font-size="11">验证起点</text>
    <path d="M 98.00 832.15 L 102.19 833.23 L 106.38 826.58 L 110.57 815.75 L 114.76 831.61 L 118.95 838.76 L 123.14 794.90 L 127.33 830.28 L 131.52 834.07 L 135.71 819.64 L 139.89 815.72 L 144.08 835.86 L 148.27 837.30 L 152.46 832.69 L 156.65 814.51 L 160.84 838.61 L 165.03 824.45 L 169.22 812.32 L 173.41 773.74 L 177.60 838.58 L 181.79 827.39 L 185.98 825.61 L 190.17 834.22 L 194.36 837.05 L 198.55 821.10 L 202.74 837.80 L 206.93 834.09 L 211.12 828.23 L 215.31 829.91 L 219.49 831.68 L 223.68 815.95 L 227.87 834.21 L 232.06 823.95 L 236.25 837.26 L 240.44 807.04 L 244.63 817.52 L 248.82 795.36 L 253.01 836.71 L 257.20 826.88 L 261.39 835.78 L 265.58 834.98 L 269.77 807.45 L 273.96 833.69 L 278.15 835.56 L 282.34 830.26 L 286.53 805.84 L 290.72 835.66 L 294.91 832.92 L 299.09 832.16 L 303.28 832.15 L 307.47 829.85 L 311.66 823.47 L 315.85 833.74 L 320.04 809.31 L 324.23 836.35 L 328.42 813.16 L 332.61 831.29 L 336.80 831.28 L 340.99 837.03 L 345.18 792.34 L 349.37 796.79 L 353.56 830.91 L 357.75 767.95 L 361.94 809.86 L 366.13 808.85 L 370.32 835.12 L 374.51 835.57 L 378.69 801.72 L 382.88 829.68 L 387.07 838.37 L 391.26 789.04 L 395.45 812.39 L 399.64 813.85 L 403.83 804.48 L 408.02 838.06 L 412.21 830.30 L 416.40 834.19 L 420.59 838.88 L 424.78 815.94 L 428.97 838.22 L 433.16 833.78 L 437.35 839.02 L 441.54 793.61 L 445.73 836.54 L 449.92 831.00 L 454.11 835.53 L 458.29 836.12 L 462.48 833.50 L 466.67 831.46 L 470.86 816.47 L 475.05 839.94 L 479.24 818.96 L 483.43 838.11 L 487.62 785.81 L 491.81 832.93 L 496.00 832.93 L 500.19 821.58 L 504.38 826.05 L 508.57 838.46 L 512.76 838.68 L 516.95 837.37 L 521.14 830.95 L 525.33 839.09 L 529.52 827.56 L 533.71 836.81 L 537.89 808.35 L 542.08 829.68 L 546.27 828.44 L 550.46 837.86 L 554.65 838.70 L 558.84 836.46 L 563.03 832.19 L 567.22 838.75 L 571.41 822.77 L 575.60 835.40 L 579.79 825.77 L 583.98 836.33 L 588.17 834.13 L 592.36 829.03 L 596.55 828.62 L 600.74 838.92 L 604.93 821.82 L 609.12 839.90 L 613.31 831.71 L 617.49 832.48 L 621.68 834.72 L 625.87 835.12 L 630.06 831.30 L 634.25 839.14 L 638.44 833.49 L 642.63 839.99 L 646.82 836.91 L 651.01 826.95 L 655.20 838.63 L 659.39 829.11 L 663.58 837.21 L 667.77 831.94 L 671.96 833.55 L 676.15 838.68 L 680.34 838.85 L 684.53 813.80 L 688.72 819.31 L 692.91 816.27 L 697.09 818.01 L 701.28 836.17 L 705.47 827.51 L 709.66 829.41 L 713.85 824.31 L 718.04 835.89 L 722.23 839.14 L 726.42 832.73 L 730.61 838.80 L 734.80 827.43 L 738.99 829.83 L 743.18 833.00 L 747.37 825.19 L 751.56 839.83 L 755.75 839.32 L 759.94 836.21 L 764.13 839.34 L 768.32 828.70 L 772.51 834.63 L 776.69 821.30 L 780.88 826.65 L 785.07 838.51 L 789.26 830.50 L 793.45 837.91 L 797.64 829.69 L 801.83 810.79 L 806.02 834.19 L 810.21 836.26 L 814.40 829.86 L 818.59 828.68 L 822.78 832.42 L 826.97 825.61 L 831.16 824.77 L 835.35 818.27 L 839.54 819.70 L 843.73 839.68 L 847.92 837.24 L 852.11 832.05 L 856.29 837.49 L 860.48 834.53 L 864.67 779.67 L 868.86 808.43 L 873.05 810.14 L 877.24 816.89 L 881.43 833.58 L 885.62 836.58 L 889.81 830.43 L 894.00 821.12 L 898.19 838.92 L 902.38 830.23 L 906.57 832.40 L 910.76 839.40 L 914.95 815.07 L 919.14 817.77 L 923.33 830.67 L 927.52 824.43 L 931.71 832.39 L 935.89 836.50 L 940.08 826.00 L 944.27 828.96 L 948.46 822.02 L 952.65 837.36 L 956.84 819.45 L 961.03 835.40 L 965.22 837.31 L 969.41 815.45 L 973.60 836.04 L 977.79 823.03 L 981.98 830.99 L 986.17 824.23 L 990.36 839.91 L 994.55 835.21 L 998.74 830.23 L 1002.93 835.68 L 1007.12 830.57 L 1011.31 838.46 L 1015.49 826.21 L 1019.68 837.36 L 1023.87 823.40 L 1028.06 828.23 L 1032.25 837.32 L 1036.44 838.87 L 1040.63 834.80 L 1044.82 838.49 L 1049.01 832.76 L 1053.20 836.73 L 1057.39 812.90 L 1061.58 831.43 L 1065.77 837.30 L 1069.96 824.63 L 1074.15 827.96 L 1078.34 834.09 L 1082.53 838.53 L 1086.72 826.97 L 1090.91 836.38 L 1095.09 839.53 L 1099.28 835.35 L 1103.47 831.78 L 1107.66 837.99 L 1111.85 828.63 L 1116.04 834.67 L 1120.23 839.77 L 1124.42 836.25 L 1128.61 821.52 L 1132.80 834.94 L 1136.99 837.26 L 1141.18 834.15 L 1145.37 819.38 L 1149.56 831.40 L 1153.75 831.34 L 1157.94 835.61 L 1162.13 780.04 L 1166.32 828.24 L 1170.51 832.32 L 1174.69 837.82 L 1178.88 829.69 L 1183.07 818.95 L 1187.26 832.54 L 1191.45 814.59 L 1195.64 836.35 L 1199.83 838.32 L 1204.02 810.27 L 1208.21 808.64 L 1212.40 831.32 L 1216.59 818.69 L 1220.78 835.80 L 1224.97 834.86 L 1229.16 835.01 L 1233.35 822.22 L 1237.54 825.85 L 1241.73 803.17 L 1245.92 830.84 L 1250.11 811.48 L 1254.29 809.40 L 1258.48 839.64 L 1262.67 823.99 L 1266.86 835.16 L 1271.05 838.11 L 1275.24 815.55 L 1279.43 816.85 L 1283.62 838.87 L 1287.81 830.92 L 1292.00 819.22" fill="none" stroke="#1d4ed8" stroke-width="2"  />
<path d="M 98.00 833.76 L 102.19 809.44 L 106.38 813.32 L 110.57 789.24 L 114.76 838.73 L 118.95 839.95 L 123.14 792.89 L 127.33 821.05 L 131.52 835.89 L 135.71 797.74 L 139.89 811.60 L 144.08 808.80 L 148.27 839.72 L 152.46 837.39 L 156.65 792.98 L 160.84 838.82 L 165.03 816.09 L 169.22 721.99 L 173.41 801.09 L 177.60 828.69 L 181.79 817.87 L 185.98 812.58 L 190.17 837.35 L 194.36 837.38 L 198.55 811.02 L 202.74 830.30 L 206.93 839.72 L 211.12 828.73 L 215.31 837.55 L 219.49 838.82 L 223.68 787.89 L 227.87 810.74 L 232.06 810.96 L 236.25 824.21 L 240.44 760.15 L 244.63 807.23 L 248.82 765.03 L 253.01 838.29 L 257.20 815.17 L 261.39 784.47 L 265.58 814.05 L 269.77 748.86 L 273.96 830.85 L 278.15 813.08 L 282.34 803.16 L 286.53 782.06 L 290.72 839.94 L 294.91 806.44 L 299.09 814.66 L 303.28 830.38 L 307.47 830.80 L 311.66 807.63 L 315.85 834.94 L 320.04 787.09 L 324.23 824.31 L 328.42 788.19 L 332.61 839.90 L 336.80 822.81 L 340.99 829.98 L 345.18 695.35 L 349.37 714.60 L 353.56 795.83 L 357.75 590.00 L 361.94 743.35 L 366.13 791.42 L 370.32 828.70 L 374.51 835.48 L 378.69 757.35 L 382.88 823.75 L 387.07 839.49 L 391.26 781.33 L 395.45 792.94 L 399.64 783.92 L 403.83 773.15 L 408.02 810.76 L 412.21 831.49 L 416.40 832.49 L 420.59 833.72 L 424.78 804.81 L 428.97 823.98 L 433.16 823.23 L 437.35 839.29 L 441.54 751.52 L 445.73 800.40 L 449.92 823.34 L 454.11 838.74 L 458.29 839.96 L 462.48 836.76 L 466.67 829.76 L 470.86 802.36 L 475.05 839.89 L 479.24 811.18 L 483.43 837.22 L 487.62 786.68 L 491.81 831.96 L 496.00 829.08 L 500.19 827.52 L 504.38 794.95 L 508.57 836.21 L 512.76 829.99 L 516.95 826.79 L 521.14 837.08 L 525.33 832.89 L 529.52 831.60 L 533.71 822.38 L 537.89 806.02 L 542.08 811.35 L 546.27 822.37 L 550.46 834.06 L 554.65 838.97 L 558.84 833.63 L 563.03 821.06 L 567.22 811.98 L 571.41 817.30 L 575.60 829.26 L 579.79 838.10 L 583.98 823.63 L 588.17 814.58 L 592.36 815.39 L 596.55 816.44 L 600.74 839.67 L 604.93 821.95 L 609.12 833.13 L 613.31 822.62 L 617.49 834.91 L 621.68 833.01 L 625.87 834.03 L 630.06 816.60 L 634.25 835.52 L 638.44 825.96 L 642.63 837.98 L 646.82 837.91 L 651.01 815.24 L 655.20 828.69 L 659.39 828.64 L 663.58 836.09 L 667.77 825.00 L 671.96 835.29 L 676.15 835.38 L 680.34 834.40 L 684.53 796.34 L 688.72 802.53 L 692.91 818.35 L 697.09 813.23 L 701.28 835.78 L 705.47 816.49 L 709.66 827.96 L 713.85 813.45 L 718.04 832.46 L 722.23 837.68 L 726.42 824.49 L 730.61 839.29 L 734.80 802.19 L 738.99 823.34 L 743.18 828.42 L 747.37 814.39 L 751.56 832.24 L 755.75 830.85 L 759.94 834.20 L 764.13 830.32 L 768.32 804.71 L 772.51 838.91 L 776.69 820.22 L 780.88 824.19 L 785.07 832.37 L 789.26 834.22 L 793.45 829.69 L 797.64 837.38 L 801.83 808.88 L 806.02 838.16 L 810.21 833.11 L 814.40 824.35 L 818.59 826.09 L 822.78 824.44 L 826.97 812.89 L 831.16 816.95 L 835.35 808.31 L 839.54 814.00 L 843.73 829.17 L 847.92 839.97 L 852.11 835.79 L 856.29 833.65 L 860.48 826.20 L 864.67 798.93 L 868.86 755.38 L 873.05 795.22 L 877.24 807.40 L 881.43 829.05 L 885.62 839.38 L 889.81 833.87 L 894.00 818.25 L 898.19 834.73 L 902.38 822.76 L 906.57 823.72 L 910.76 812.36 L 914.95 803.46 L 919.14 810.51 L 923.33 821.81 L 927.52 810.88 L 931.71 833.16 L 935.89 834.57 L 940.08 794.25 L 944.27 837.48 L 948.46 797.96 L 952.65 831.58 L 956.84 790.48 L 961.03 825.44 L 965.22 838.22 L 969.41 792.35 L 973.60 828.86 L 977.79 810.07 L 981.98 806.61 L 986.17 822.95 L 990.36 787.18 L 994.55 839.57 L 998.74 794.45 L 1002.93 838.66 L 1007.12 818.06 L 1011.31 839.51 L 1015.49 828.72 L 1019.68 838.65 L 1023.87 823.18 L 1028.06 829.62 L 1032.25 834.37 L 1036.44 832.77 L 1040.63 824.88 L 1044.82 838.10 L 1049.01 838.63 L 1053.20 826.68 L 1057.39 780.50 L 1061.58 819.06 L 1065.77 836.90 L 1069.96 794.23 L 1074.15 814.04 L 1078.34 805.01 L 1082.53 833.02 L 1086.72 824.46 L 1090.91 839.03 L 1095.09 837.79 L 1099.28 837.08 L 1103.47 828.48 L 1107.66 833.88 L 1111.85 819.88 L 1116.04 835.34 L 1120.23 829.89 L 1124.42 839.01 L 1128.61 809.33 L 1132.80 824.23 L 1136.99 836.24 L 1141.18 835.45 L 1145.37 810.19 L 1149.56 833.01 L 1153.75 839.69 L 1157.94 839.12 L 1162.13 777.36 L 1166.32 821.35 L 1170.51 827.50 L 1174.69 833.77 L 1178.88 827.73 L 1183.07 813.52 L 1187.26 832.27 L 1191.45 802.55 L 1195.64 809.56 L 1199.83 832.15 L 1204.02 792.22 L 1208.21 800.60 L 1212.40 805.52 L 1216.59 765.62 L 1220.78 814.02 L 1224.97 825.37 L 1229.16 837.46 L 1233.35 786.53 L 1237.54 826.93 L 1241.73 809.25 L 1245.92 809.54 L 1250.11 799.66 L 1254.29 796.84 L 1258.48 824.97 L 1262.67 813.21 L 1266.86 815.94 L 1271.05 838.24 L 1275.24 801.99 L 1279.43 803.08 L 1283.62 834.98 L 1287.81 837.75 L 1292.00 804.66" fill="none" stroke="#b45309" stroke-width="2" stroke-dasharray="6 4" />
  </g>
</svg>