<?xml version="1.0" encoding="UTF-8"?>
<svg xmlns="http://www.w3.org/2000/svg" width="1360" height="980" viewBox="0 0 1360 980">
  <defs>
    <linearGradient id="bg" x1="0" y1="0" x2="1" y2="1">
      <stop offset="0%" stop-color="#f4efe6" />
      <stop offset="100%" stop-color="#eef5f2" />
    </linearGradient>
  </defs>
  <rect x="0" y="0" width="1360" height="980" fill="url(#bg)" />
  <text x="46" y="36" fill="#1f2937" font-size="31" font-weight="700">161116 离线研究图（持仓逐日估值版）</text>
  <text x="46" y="66" fill="#5b6b68" font-size="13">历史前十大持仓 + 持仓逐日涨跌幅 + USDCNY；双目标 lambda=0.10；披露期数 43；覆盖率均值 92.1%</text>
  <g>
    <text x="54" y="110" fill="#1f2937" font-size="16" font-weight="700">A. 净值拟合（同日对齐，无平移）</text>
    <line x1="98" y1="112" x2="124" y2="112" stroke="#0f766e" stroke-width="2"  />
      <text x="130" y="116" fill="#24312e" font-size="12">真实净值</text>
<line x1="313" y1="112" x2="339" y2="112" stroke="#1d4ed8" stroke-width="2"  />
      <text x="345" y="116" fill="#24312e" font-size="12">持仓分段估值</text>
<line x1="528" y1="112" x2="554" y2="112" stroke="#b45309" stroke-width="2" stroke-dasharray="6 4" />
      <text x="560" y="116" fill="#24312e" font-size="12">持仓双目标估值</text>
    <line x1="98" y1="132.00" x2="1292" y2="132.00" stroke="#d7e3df" stroke-width="1" />
      <text x="90" y="136.00" text-anchor="end" fill="#5b6b68" font-size="11">2.049</text>
<line x1="98" y1="209.50" x2="1292" y2="209.50" stroke="#d7e3df" stroke-width="1" />
      <text x="90" y="213.50" text-anchor="end" fill="#5b6b68" font-size="11">1.788</text>
<line x1="98" y1="287.00" x2="1292" y2="287.00" stroke="#d7e3df" stroke-width="1" />
      <text x="90" y="291.00" text-anchor="end" fill="#5b6b68" font-size="11">1.527</text>
<line x1="98" y1="364.50" x2="1292" y2="364.50" stroke="#d7e3df" stroke-width="1" />
      <text x="90" y="368.50" text-anchor="end" fill="#5b6b68" font-size="11">1.265</text>
<line x1="98" y1="442.00" x2="1292" y2="442.00" stroke="#d7e3df" stroke-width="1" />
      <text x="90" y="446.00" text-anchor="end" fill="#5b6b68" font-size="11">1.004</text>
    <line x1="98.00" y1="132" x2="98.00" y2="442" stroke="#eef3f1" stroke-width="1" />
      <text x="98.00" y="470" text-anchor="middle" fill="#5b6b68" font-size="11">25-01-02</text>
<line x1="290.72" y1="132" x2="290.72" y2="442" stroke="#eef3f1" stroke-width="1" />
      <text x="290.72" y="470" text-anchor="middle" fill="#5b6b68" font-size="11">25-03-17</text>
<line x1="479.24" y1="132" x2="479.24" y2="442" stroke="#eef3f1" stroke-width="1" />
      <text x="479.24" y="470" text-anchor="middle" fill="#5b6b68" font-size="11">25-05-23</text>
<line x1="697.09" y1="132" x2="697.09" y2="442" stroke="#eef3f1" stroke-width="1" />
      <text x="697.09" y="470" text-anchor="middle" fill="#5b6b68" font-size="11">25-08-06</text>
<line x1="910.76" y1="132" x2="910.76" y2="442" stroke="#eef3f1" stroke-width="1" />
      <text x="910.76" y="470" text-anchor="middle" fill="#5b6b68" font-size="11">25-10-24</text>
<line x1="1099.28" y1="132" x2="1099.28" y2="442" stroke="#eef3f1" stroke-width="1" />
      <text x="1099.28" y="470" text-anchor="middle" fill="#5b6b68" font-size="11">25-12-26</text>
<line x1="1292.00" y1="132" x2="1292.00" y2="442" stroke="#eef3f1" stroke-width="1" />
      <text x="1292.00" y="470" text-anchor="middle" fill="#5b6b68" font-size="11">26-03-12</text>
    <line x1="1116.04" y1="132" x2="1116.04" y2="442" stroke="#f59e0b" stroke-width="1.4" stroke-dasharray="4 4" />
       <text x="1122.04" y="124" fill="#a16207" font-size="11">验证起点</text>
    <path d="M 98.00 434.28 L 102.19 435.46 L 106.38 437.24 L 110.57 435.46 L 114.76 431.31 L 118.95 430.42 L 123.14 428.35 L 127.33 432.20 L 131.52 428.94 L 135.71 425.68 L 139.89 425.09 L 144.08 425.38 L 148.27 425.09 L 152.46 420.93 L 156.65 419.75 L 160.84 420.04 L 165.03 417.38 L 169.22 421.53 L 173.41 400.77 L 177.60 400.77 L 181.79 401.36 L 185.98 394.54 L 190.17 396.32 L 194.36 395.13 L 198.55 391.58 L 202.74 397.80 L 206.93 397.80 L 211.12 394.84 L 215.31 394.84 L 219.49 392.17 L 223.68 396.91 L 227.87 396.32 L 232.06 400.47 L 236.25 399.29 L 240.44 406.11 L 244.63 407.59 L 248.82 404.92 L 253.01 401.95 L 257.20 396.32 L 261.39 397.80 L 265.58 396.62 L 269.77 401.95 L 273.96 395.73 L 278.15 394.84 L 282.34 387.13 L 286.53 384.76 L 290.72 381.20 L 294.91 377.04 L 299.09 376.16 L 303.28 376.16 L 307.47 379.42 L 311.66 381.20 L 315.85 378.53 L 320.04 379.71 L 324.23 374.97 L 328.42 372.00 L 332.61 367.26 L 336.80 367.85 L 340.99 367.26 L 345.18 368.74 L 349.37 383.87 L 353.56 382.09 L 357.75 369.93 L 361.94 361.03 L 366.13 353.91 L 370.32 356.29 L 374.51 354.21 L 378.69 342.65 L 382.88 344.72 L 387.07 344.72 L 391.26 335.23 L 395.45 337.31 L 399.64 347.39 L 403.83 343.54 L 408.02 346.20 L 412.21 342.94 L 416.40 346.80 L 420.59 347.98 L 424.78 335.82 L 428.97 340.87 L 433.16 347.39 L 437.35 343.54 L 441.54 357.77 L 445.73 356.88 L 449.92 364.59 L 454.11 359.25 L 458.29 363.11 L 462.48 358.66 L 466.67 352.43 L 470.86 349.17 L 475.05 352.13 L 479.24 344.72 L 483.43 345.61 L 487.62 350.06 L 491.81 350.65 L 496.00 349.47 L 500.19 351.54 L 504.38 345.91 L 508.57 343.83 L 512.76 345.61 L 516.95 349.76 L 521.14 348.58 L 525.33 348.87 L 529.52 347.39 L 533.71 343.24 L 537.89 338.79 L 542.08 343.24 L 546.27 343.83 L 550.46 345.31 L 554.65 345.91 L 558.84 346.20 L 563.03 345.02 L 567.22 351.25 L 571.41 350.06 L 575.60 350.65 L 579.79 356.88 L 583.98 353.32 L 588.17 350.06 L 592.36 348.28 L 596.55 350.95 L 600.74 350.65 L 604.93 350.95 L 609.12 354.51 L 613.31 352.73 L 617.49 352.13 L 621.68 348.28 L 625.87 349.76 L 630.06 351.54 L 634.25 349.17 L 638.44 350.65 L 642.63 349.47 L 646.82 343.54 L 651.01 340.57 L 655.20 345.02 L 659.39 347.98 L 663.58 351.84 L 667.77 353.91 L 671.96 352.73 L 676.15 358.96 L 680.34 356.58 L 684.53 350.06 L 688.72 347.30 L 692.91 347.00 L 697.09 347.48 L 701.28 344.99 L 705.47 344.78 L 709.66 350.00 L 713.85 350.30 L 718.04 349.58 L 722.23 351.96 L 726.42 351.57 L 730.61 352.67 L 734.80 354.36 L 738.99 350.62 L 743.18 352.13 L 747.37 347.86 L 751.56 349.61 L 755.75 346.95 L 759.94 346.53 L 764.13 344.01 L 768.32 340.10 L 772.51 339.29 L 776.69 330.40 L 780.88 326.48 L 785.07 328.80 L 789.26 323.25 L 793.45 318.39 L 797.64 319.22 L 801.83 317.41 L 806.02 318.48 L 810.21 317.59 L 814.40 313.29 L 818.59 312.37 L 822.78 315.45 L 826.97 317.53 L 831.16 312.63 L 835.35 304.78 L 839.54 302.46 L 843.73 306.73 L 847.92 305.07 L 852.11 301.63 L 856.29 294.58 L 860.48 291.31 L 864.67 276.37 L 868.86 272.57 L 873.05 261.07 L 877.24 256.88 L 881.43 248.97 L 885.62 237.82 L 889.81 246.45 L 894.00 228.92 L 898.19 261.98 L 902.38 264.06 L 906.57 260.98 L 910.76 262.70 L 914.95 277.32 L 919.14 281.17 L 923.33 282.12 L 927.52 274.08 L 931.71 276.46 L 935.89 275.42 L 940.08 283.25 L 944.27 278.35 L 948.46 279.15 L 952.65 276.04 L 956.84 263.65 L 961.03 261.60 L 965.22 253.71 L 969.41 256.65 L 973.60 266.64 L 977.79 271.89 L 981.98 268.89 L 986.17 267.89 L 990.36 267.80 L 994.55 268.92 L 998.74 261.93 L 1002.93 261.51 L 1007.12 257.95 L 1011.31 258.25 L 1015.49 251.81 L 1019.68 249.50 L 1023.87 253.09 L 1028.06 253.15 L 1032.25 253.15 L 1036.44 253.89 L 1040.63 255.37 L 1044.82 253.09 L 1049.01 251.69 L 1053.20 246.77 L 1057.39 244.31 L 1061.58 243.72 L 1065.77 243.92 L 1069.96 240.16 L 1074.15 240.28 L 1078.34 240.25 L 1082.53 229.25 L 1086.72 223.67 L 1090.91 225.42 L 1095.09 225.92 L 1099.28 221.06 L 1103.47 241.94 L 1107.66 240.81 L 1111.85 243.87 L 1116.04 231.05 L 1120.23 226.40 L 1124.42 230.64 L 1128.61 228.42 L 1132.80 225.33 L 1136.99 215.99 L 1141.18 216.97 L 1145.37 212.43 L 1149.56 215.55 L 1153.75 217.74 L 1157.94 216.82 L 1162.13 200.12 L 1166.32 192.50 L 1170.51 183.73 L 1174.69 176.88 L 1178.88 169.46 L 1183.07 157.51 L 1187.26 136.57 L 1191.45 135.60 L 1195.64 191.11 L 1199.83 213.14 L 1204.02 183.49 L 1208.21 185.39 L 1212.40 197.60 L 1216.59 183.49 L 1220.78 170.62 L 1224.97 176.19 L 1229.16 170.53 L 1233.35 187.94 L 1237.54 176.37 L 1241.73 163.26 L 1245.92 163.95 L 1250.11 160.98 L 1254.29 154.46 L 1258.48 147.81 L 1262.67 173.29 L 1266.86 168.87 L 1271.05 176.70 L 1275.24 168.39 L 1279.43 169.11 L 1283.62 163.15 L 1287.81 166.20 L 1292.00 175.30" fill="none" stroke="#0f766e" stroke-width="2"  />
<path d="M 98.00 438.51 L 102.19 435.28 L 106.38 434.81 L 110.57 435.79 L 114.76 433.83 L 118.95 430.57 L 123.14 429.79 L 127.33 429.71 L 131.52 430.94 L 135.71 427.29 L 139.89 423.54 L 144.08 425.61 L 148.27 424.69 L 152.46 424.72 L 156.65 419.65 L 160.84 419.38 L 165.03 418.90 L 169.22 418.36 L 173.41 401.57 L 177.60 400.45 L 181.79 399.96 L 185.98 397.37 L 190.17 394.78 L 194.36 395.66 L 198.55 392.68 L 202.74 398.29 L 206.93 396.54 L 211.12 396.76 L 215.31 394.07 L 219.49 394.60 L 223.68 391.95 L 227.87 395.22 L 232.06 400.51 L 236.25 399.77 L 240.44 404.73 L 244.63 406.90 L 248.82 404.65 L 253.01 402.83 L 257.20 401.37 L 261.39 397.10 L 265.58 397.46 L 269.77 397.20 L 273.96 398.10 L 278.15 394.00 L 282.34 388.49 L 286.53 386.69 L 290.72 383.42 L 294.91 376.66 L 299.09 375.38 L 303.28 375.83 L 307.47 377.30 L 311.66 379.70 L 315.85 379.68 L 320.04 378.09 L 324.23 374.98 L 328.42 373.02 L 332.61 368.85 L 336.80 366.98 L 340.99 366.80 L 345.18 367.62 L 349.37 388.81 L 353.56 382.25 L 357.75 366.83 L 361.94 361.54 L 366.13 355.31 L 370.32 354.10 L 374.51 354.50 L 378.69 341.66 L 382.88 343.34 L 387.07 343.88 L 391.26 343.64 L 395.45 339.84 L 399.64 347.88 L 403.83 341.68 L 408.02 347.28 L 412.21 341.92 L 416.40 346.68 L 420.59 347.90 L 424.78 331.96 L 428.97 341.02 L 433.16 347.78 L 437.35 345.55 L 441.54 356.10 L 445.73 356.66 L 449.92 364.57 L 454.11 359.32 L 458.29 363.03 L 462.48 360.01 L 466.67 352.08 L 470.86 350.72 L 475.05 350.48 L 479.24 345.69 L 483.43 343.43 L 487.62 344.60 L 491.81 350.16 L 496.00 349.18 L 500.19 350.23 L 504.38 347.74 L 508.57 344.35 L 512.76 344.55 L 516.95 349.56 L 521.14 348.10 L 525.33 348.04 L 529.52 347.55 L 533.71 343.89 L 537.89 338.99 L 542.08 340.73 L 546.27 342.75 L 550.46 344.40 L 554.65 344.56 L 558.84 345.24 L 563.03 344.85 L 567.22 350.82 L 571.41 350.38 L 575.60 349.96 L 579.79 357.00 L 583.98 354.31 L 588.17 351.48 L 592.36 348.56 L 596.55 349.28 L 600.74 350.16 L 604.93 349.29 L 609.12 353.74 L 613.31 353.37 L 617.49 352.03 L 621.68 350.08 L 625.87 348.33 L 630.06 350.13 L 634.25 350.19 L 638.44 349.25 L 642.63 349.84 L 646.82 346.38 L 651.01 341.30 L 655.20 345.10 L 659.39 345.92 L 663.58 349.37 L 667.77 351.97 L 671.96 353.11 L 676.15 358.75 L 680.34 357.19 L 684.53 349.41 L 688.72 349.08 L 692.91 346.71 L 697.09 346.91 L 701.28 345.67 L 705.47 344.74 L 709.66 346.48 L 713.85 349.80 L 718.04 349.57 L 722.23 350.49 L 726.42 351.47 L 730.61 351.39 L 734.80 353.37 L 738.99 351.68 L 743.18 350.87 L 747.37 349.10 L 751.56 348.14 L 755.75 347.84 L 759.94 346.11 L 764.13 345.11 L 768.32 340.94 L 772.51 339.24 L 776.69 338.35 L 780.88 328.34 L 785.07 326.93 L 789.26 324.08 L 793.45 320.79 L 797.64 318.44 L 801.83 317.91 L 806.02 317.22 L 810.21 317.49 L 814.40 314.91 L 818.59 312.45 L 822.78 313.87 L 826.97 315.91 L 831.16 313.13 L 835.35 308.36 L 839.54 303.36 L 843.73 303.96 L 847.92 305.29 L 852.11 303.13 L 856.29 297.40 L 860.48 292.04 L 864.67 278.13 L 868.86 272.30 L 873.05 260.78 L 877.24 258.49 L 881.43 249.25 L 885.62 237.23 L 889.81 246.55 L 894.00 226.49 L 898.19 262.61 L 902.38 261.60 L 906.57 262.67 L 910.76 261.33 L 914.95 275.11 L 919.14 278.84 L 923.33 281.65 L 927.52 272.96 L 931.71 274.96 L 935.89 274.89 L 940.08 283.44 L 944.27 278.44 L 948.46 278.33 L 952.65 277.22 L 956.84 264.62 L 961.03 262.17 L 965.22 254.87 L 969.41 255.59 L 973.60 265.00 L 977.79 267.82 L 981.98 269.64 L 986.17 268.05 L 990.36 267.38 L 994.55 267.95 L 998.74 265.06 L 1002.93 261.84 L 1007.12 259.29 L 1011.31 256.92 L 1015.49 257.38 L 1019.68 249.82 L 1023.87 250.64 L 1028.06 252.90 L 1032.25 252.37 L 1036.44 253.09 L 1040.63 253.32 L 1044.82 253.79 L 1049.01 251.57 L 1053.20 247.90 L 1057.39 244.91 L 1061.58 243.28 L 1065.77 243.27 L 1069.96 241.27 L 1074.15 240.13 L 1078.34 239.44 L 1082.53 230.72 L 1086.72 224.51 L 1090.91 224.26 L 1095.09 224.33 L 1099.28 224.86 L 1103.47 245.95 L 1107.66 241.38 L 1111.85 241.75 L 1116.04 228.49 L 1120.23 226.85 L 1124.42 227.91 L 1128.61 228.97 L 1132.80 226.20 L 1136.99 220.42 L 1141.18 215.76 L 1145.37 213.19 L 1149.56 213.50 L 1153.75 216.13 L 1157.94 215.55 L 1162.13 215.82 L 1166.32 192.84 L 1170.51 183.18 L 1174.69 177.45 L 1178.88 171.95 L 1183.07 156.65 L 1187.26 137.39 L 1191.45 135.02 L 1195.64 191.63 L 1199.83 214.20 L 1204.02 182.83 L 1208.21 182.99 L 1212.40 198.59 L 1216.59 182.25 L 1220.78 171.88 L 1224.97 174.85 L 1229.16 170.91 L 1233.35 189.43 L 1237.54 174.85 L 1241.73 165.20 L 1245.92 163.44 L 1250.11 161.45 L 1254.29 153.76 L 1258.48 148.96 L 1262.67 170.29 L 1266.86 170.63 L 1271.05 174.42 L 1275.24 167.95 L 1279.43 167.22 L 1283.62 166.26 L 1287.81 163.45 L 1292.00 176.80" fill="none" stroke="#1d4ed8" stroke-width="2"  />
<path d="M 98.00 440.50 L 102.19 433.91 L 106.38 435.03 L 110.57 436.72 L 114.76 434.95 L 118.95 429.93 L 123.14 429.04 L 127.33 428.03 L 131.52 431.69 L 135.71 428.37 L 139.89 425.12 L 144.08 424.67 L 148.27 423.98 L 152.46 423.68 L 156.65 420.40 L 160.84 419.29 L 165.03 419.49 L 169.22 417.03 L 173.41 420.53 L 177.60 400.29 L 181.79 400.24 L 185.98 400.64 L 190.17 394.07 L 194.36 395.80 L 198.55 394.49 L 202.74 391.27 L 206.93 396.27 L 211.12 396.27 L 215.31 394.31 L 219.49 394.32 L 223.68 391.66 L 227.87 396.33 L 232.06 395.98 L 236.25 399.94 L 240.44 398.98 L 244.63 405.69 L 248.82 406.93 L 253.01 404.30 L 257.20 401.43 L 261.39 395.87 L 265.58 397.29 L 269.77 396.22 L 273.96 401.30 L 278.15 395.15 L 282.34 394.09 L 286.53 386.60 L 290.72 384.15 L 294.91 380.50 L 299.09 376.44 L 303.28 375.63 L 307.47 375.73 L 311.66 378.94 L 315.85 380.60 L 320.04 378.00 L 324.23 378.99 L 328.42 374.33 L 332.61 371.25 L 336.80 366.73 L 340.99 367.26 L 345.18 366.81 L 349.37 368.80 L 353.56 383.28 L 357.75 381.05 L 361.94 369.02 L 366.13 360.19 L 370.32 353.42 L 374.51 355.63 L 378.69 353.16 L 382.88 342.12 L 387.07 342.95 L 391.26 342.95 L 395.45 334.84 L 399.64 337.07 L 403.83 346.59 L 408.02 343.11 L 412.21 345.40 L 416.40 342.50 L 420.59 346.32 L 424.78 346.82 L 428.97 335.45 L 433.16 340.57 L 437.35 346.70 L 441.54 343.37 L 445.73 357.13 L 449.92 356.62 L 454.11 363.80 L 458.29 358.86 L 462.48 362.36 L 466.67 357.81 L 470.86 351.74 L 475.05 348.72 L 479.24 351.23 L 483.43 342.95 L 487.62 343.85 L 491.81 349.51 L 496.00 349.98 L 500.19 348.98 L 504.38 350.70 L 508.57 345.22 L 512.76 343.32 L 516.95 345.22 L 521.14 349.12 L 525.33 347.98 L 529.52 348.21 L 533.71 346.62 L 537.89 342.45 L 542.08 338.41 L 546.27 342.64 L 550.46 343.32 L 554.65 343.55 L 558.84 344.15 L 563.03 345.57 L 567.22 344.67 L 571.41 350.62 L 575.60 349.49 L 579.79 350.34 L 583.98 356.14 L 588.17 352.61 L 592.36 349.39 L 596.55 347.80 L 600.74 349.21 L 604.93 348.91 L 609.12 350.52 L 613.31 353.87 L 617.49 352.11 L 621.68 351.41 L 625.87 347.76 L 630.06 349.24 L 634.25 350.88 L 638.44 348.62 L 642.63 350.03 L 646.82 348.65 L 651.01 342.80 L 655.20 340.16 L 659.39 344.52 L 663.58 347.54 L 667.77 351.35 L 671.96 353.30 L 676.15 352.40 L 680.34 358.29 L 684.53 355.72 L 688.72 349.39 L 692.91 346.70 L 697.09 346.44 L 701.28 346.76 L 705.47 344.41 L 709.66 344.41 L 713.85 349.43 L 718.04 349.67 L 722.23 349.10 L 726.42 351.37 L 730.61 351.01 L 734.80 352.17 L 738.99 353.63 L 743.18 350.09 L 747.37 351.40 L 751.56 347.31 L 755.75 348.92 L 759.94 346.32 L 764.13 345.83 L 768.32 343.26 L 772.51 338.31 L 776.69 337.50 L 780.88 329.67 L 785.07 325.93 L 789.26 327.98 L 793.45 322.46 L 797.64 317.79 L 801.83 318.53 L 806.02 316.80 L 810.21 317.81 L 814.40 316.79 L 818.59 312.62 L 822.78 311.86 L 826.97 314.88 L 831.16 316.73 L 835.35 311.71 L 839.54 304.06 L 843.73 301.96 L 847.92 306.02 L 852.11 304.33 L 856.29 300.70 L 860.48 293.77 L 864.67 290.17 L 868.86 275.49 L 873.05 271.44 L 877.24 260.21 L 881.43 255.85 L 885.62 247.80 L 889.81 237.42 L 894.00 245.03 L 898.19 229.37 L 902.38 261.29 L 906.57 263.28 L 910.76 260.32 L 914.95 262.49 L 919.14 276.76 L 923.33 280.55 L 927.52 281.09 L 931.71 273.48 L 935.89 275.72 L 940.08 275.04 L 944.27 282.36 L 948.46 277.68 L 952.65 278.36 L 956.84 274.87 L 961.03 262.86 L 965.22 260.59 L 969.41 253.13 L 973.60 256.26 L 977.79 266.14 L 981.98 271.06 L 986.17 268.16 L 990.36 267.18 L 994.55 267.13 L 998.74 267.93 L 1002.93 261.21 L 1007.12 260.65 L 1011.31 255.80 L 1015.49 256.09 L 1019.68 250.99 L 1023.87 248.89 L 1028.06 252.38 L 1032.25 252.41 L 1036.44 252.45 L 1040.63 253.21 L 1044.82 254.56 L 1049.01 252.28 L 1053.20 250.76 L 1057.39 245.93 L 1061.58 243.55 L 1065.77 242.97 L 1069.96 243.02 L 1074.15 239.44 L 1078.34 239.51 L 1082.53 239.06 L 1086.72 228.24 L 1090.91 222.98 L 1095.09 223.12 L 1099.28 223.63 L 1103.47 221.16 L 1107.66 241.17 L 1111.85 240.19 L 1116.04 242.54 L 1120.23 230.08 L 1124.42 225.81 L 1128.61 229.77 L 1132.80 227.51 L 1136.99 224.19 L 1141.18 215.24 L 1145.37 215.99 L 1149.56 211.77 L 1153.75 214.86 L 1157.94 215.40 L 1162.13 214.48 L 1166.32 199.02 L 1170.51 191.29 L 1174.69 182.61 L 1178.88 175.72 L 1183.07 168.07 L 1187.26 155.79 L 1191.45 135.61 L 1195.64 137.05 L 1199.83 191.12 L 1204.02 211.10 L 1208.21 182.68 L 1212.40 185.11 L 1216.59 196.17 L 1220.78 182.11 L 1224.97 169.98 L 1229.16 175.11 L 1233.35 170.42 L 1237.54 186.60 L 1241.73 174.98 L 1245.92 162.46 L 1250.11 162.90 L 1254.29 159.83 L 1258.48 153.29 L 1262.67 147.93 L 1266.86 172.27 L 1271.05 168.27 L 1275.24 175.52 L 1279.43 167.59 L 1283.62 168.01 L 1287.81 162.35 L 1292.00 165.77" fill="none" stroke="#b45309" stroke-width="2" stroke-dasharray="6 4" />
  </g>
  <g>
    <text x="54" y="538" fill="#1f2937" font-size="16" font-weight="700">B. 绝对误差（越低越好）</text>
    <line x1="98" y1="540" x2="124" y2="540" stroke="#1d4ed8" stroke-width="2"  />
      <text x="130" y="544" fill="#24312e" font-size="12">持仓分段误差</text>
<line x1="313" y1="540" x2="339" y2="540" stroke="#b45309" stroke-width="2" stroke-dasharray="6 4" />
      <text x="345" y="544" fill="#24312e" font-size="12">持仓双目标误差</text>
    <line x1="98" y1="560.00" x2="1292" y2="560.00" stroke="#d7e3df" stroke-width="1" />
      <text x="90" y="564.00" text-anchor="end" fill="#5b6b68" font-size="11">11.04%</text>
<line x1="98" y1="630.00" x2="1292" y2="630.00" stroke="#d7e3df" stroke-width="1" />
      <text x="90" y="634.00" text-anchor="end" fill="#5b6b68" font-size="11">8.28%</text>
<line x1="98" y1="700.00" x2="1292" y2="700.00" stroke="#d7e3df" stroke-width="1" />
      <text x="90" y="704.00" text-anchor="end" fill="#5b6b68" font-size="11">5.52%</text>
<line x1="98" y1="770.00" x2="1292" y2="770.00" stroke="#d7e3df" stroke-width="1" />
      <text x="90" y="774.00" text-anchor="end" fill="#5b6b68" font-size="11">2.76%</text>
<line x1="98" y1="840.00" x2="1292" y2="840.00" stroke="#d7e3df" stroke-width="1" />
      <text x="90" y="844.00" text-anchor="end" fill="#5b6b68" font-size="11">0.00%</text>
    <line x1="98.00" y1="560" x2="98.00" y2="840" stroke="#eef3f1" stroke-width="1" />
      <text x="98.00" y="868" text-anchor="middle" fill="#5b6b68" font-size="11">25-01-02</text>
<line x1="290.72" y1="560" x2="290.72" y2="840" stroke="#eef3f1" stroke-width="1" />
      <text x="290.72" y="868" text-anchor="middle" fill="#5b6b68" font-size="11">25-03-17</text>
<line x1="479.24" y1="560" x2="479.24" y2="840" stroke="#eef3f1" stroke-width="1" />
      <text x="479.24" y="868" text-anchor="middle" fill="#5b6b68" font-size="11">25-05-23</text>
<line x1="697.09" y1="560" x2="697.09" y2="840" stroke="#eef3f1" stroke-width="1" />
      <text x="697.09" y="868" text-anchor="middle" fill="#5b6b68" font-size="11">25-08-06</text>
<line x1="910.76" y1="560" x2="910.76" y2="840" stroke="#eef3f1" stroke-width="1" />
      <text x="910.76" y="868" text-anchor="middle" fill="#5b6b68" font-size="11">25-10-24</text>
<line x1="1099.28" y1="560" x2="1099.28" y2="840" stroke="#eef3f1" stroke-width="1" />
      <text x="1099.28" y="868" text-anchor="middle" fill="#5b6b68" font-size="11">25-12-26</text>
<line x1="1292.00" y1="560" x2="1292.00" y2="840" stroke="#eef3f1" stroke-width="1" />
      <text x="1292.00" y="868" text-anchor="middle" fill="#5b6b68" font-size="11">26-03-12</text>
    <line x1="1116.04" y1="560" x2="1116.04" y2="840" stroke="#f59e0b" stroke-width="1.4" stroke-dasharray="4 4" />
       <text x="1122.04" y="552" fill="#a16207" font-size="11">验证起点</text>
    <path d="M 98.00 804.87 L 102.19 838.46 L 106.38 819.56 L 110.57 837.28 L 114.76 819.27 L 118.95 838.83 L 123.14 828.24 L 127.33 819.44 L 131.52 823.72 L 135.71 827.00 L 139.89 827.54 L 144.08 838.17 L 148.27 836.79 L 152.46 809.91 L 156.65 839.26 L 160.84 834.74 L 165.03 827.96 L 169.22 814.72 L 173.41 833.97 L 177.60 837.59 L 181.79 829.52 L 185.98 819.21 L 190.17 828.64 L 194.36 836.10 L 198.55 831.96 L 202.74 836.37 L 206.93 830.60 L 211.12 825.84 L 215.31 834.35 L 219.49 822.29 L 223.68 803.27 L 227.87 831.88 L 232.06 839.74 L 236.25 836.42 L 240.44 829.52 L 244.63 834.75 L 248.82 837.99 L 253.01 833.44 L 257.20 802.70 L 261.39 834.75 L 265.58 833.78 L 269.77 804.31 L 273.96 822.50 L 278.15 833.86 L 282.34 830.19 L 286.53 826.19 L 290.72 824.28 L 294.91 837.30 L 299.09 834.60 L 303.28 837.71 L 307.47 825.12 L 311.66 829.40 L 315.85 831.89 L 320.04 828.54 L 324.23 839.90 L 328.42 832.97 L 332.61 829.17 L 336.80 834.03 L 340.99 836.89 L 345.18 832.31 L 349.37 804.76 L 353.56 838.85 L 357.75 818.76 L 361.94 836.61 L 366.13 830.80 L 370.32 825.52 L 374.51 838.11 L 378.69 833.70 L 382.88 831.16 L 387.07 834.60 L 391.26 787.26 L 395.45 824.05 L 399.64 836.83 L 403.83 828.12 L 408.02 833.05 L 412.21 833.44 L 416.40 839.24 L 420.59 839.48 L 424.78 815.71 L 428.97 839.05 L 433.16 837.48 L 437.35 827.11 L 441.54 828.90 L 445.73 838.55 L 449.92 839.84 L 454.11 839.56 L 458.29 839.50 L 462.48 830.99 L 466.67 837.71 L 470.86 829.95 L 475.05 829.19 L 479.24 833.78 L 483.43 825.96 L 487.62 804.47 L 491.81 836.81 L 496.00 838.17 L 500.19 831.42 L 504.38 828.22 L 508.57 836.68 L 512.76 833.14 L 516.95 838.69 L 521.14 836.93 L 525.33 834.60 L 529.52 838.94 L 533.71 835.84 L 537.89 838.74 L 542.08 823.95 L 546.27 833.09 L 550.46 834.15 L 554.65 831.30 L 558.84 833.80 L 563.03 838.93 L 567.22 837.21 L 571.41 837.91 L 575.60 835.46 L 579.79 839.17 L 583.98 833.52 L 588.17 830.72 L 592.36 838.17 L 596.55 829.08 L 600.74 836.81 L 604.93 829.16 L 609.12 834.97 L 613.31 835.80 L 617.49 839.30 L 621.68 828.35 L 625.87 830.67 L 630.06 830.75 L 634.25 833.38 L 638.44 830.89 L 642.63 837.55 L 646.82 821.81 L 651.01 835.34 L 655.20 839.49 L 659.39 826.62 L 663.58 823.88 L 667.77 827.24 L 671.96 837.51 L 676.15 838.66 L 680.34 835.98 L 684.53 835.75 L 688.72 828.51 L 692.91 838.07 L 697.09 836.33 L 701.28 835.64 L 705.47 839.73 L 709.66 817.06 L 713.85 836.77 L 718.04 839.88 L 722.23 830.39 L 726.42 839.32 L 730.61 831.65 L 734.80 833.46 L 738.99 833.13 L 743.18 831.74 L 747.37 832.02 L 751.56 830.40 L 755.75 834.23 L 759.94 837.31 L 764.13 832.93 L 768.32 834.61 L 772.51 839.65 L 776.69 790.70 L 780.88 828.57 L 785.07 828.45 L 789.26 834.94 L 793.45 825.52 L 797.64 835.32 L 801.83 837.01 L 806.02 832.44 L 810.21 839.44 L 814.40 830.34 L 818.59 839.51 L 822.78 830.52 L 826.97 830.27 L 831.16 837.04 L 835.35 819.12 L 839.54 834.81 L 843.73 823.72 L 847.92 838.76 L 852.11 831.35 L 856.29 823.87 L 860.48 835.91 L 864.67 830.34 L 868.86 838.50 L 873.05 838.46 L 877.24 831.54 L 881.43 838.54 L 885.62 837.04 L 889.81 839.45 L 894.00 827.96 L 898.19 836.67 L 902.38 826.89 L 906.57 831.03 L 910.76 832.76 L 914.95 827.91 L 919.14 827.10 L 923.33 837.41 L 927.52 833.88 L 931.71 831.81 L 935.89 837.12 L 940.08 838.93 L 944.27 839.51 L 948.46 835.45 L 952.65 833.56 L 956.84 834.80 L 961.03 836.97 L 965.22 833.92 L 969.41 834.45 L 973.60 831.22 L 977.79 817.96 L 981.98 835.95 L 986.17 839.12 L 990.36 837.75 L 994.55 834.74 L 998.74 823.34 L 1002.93 838.27 L 1007.12 832.96 L 1011.31 833.03 L 1015.49 811.03 L 1019.68 838.33 L 1023.87 827.22 L 1028.06 838.71 L 1032.25 835.95 L 1036.44 835.80 L 1040.63 829.24 L 1044.82 836.36 L 1049.01 839.35 L 1053.20 834.17 L 1057.39 836.90 L 1061.58 837.76 L 1065.77 836.64 L 1069.96 834.37 L 1074.15 839.23 L 1078.34 835.88 L 1082.53 832.68 L 1086.72 835.89 L 1090.91 834.27 L 1095.09 832.15 L 1099.28 821.43 L 1103.47 819.53 L 1107.66 837.10 L 1111.85 829.16 L 1116.04 827.21 L 1120.23 837.75 L 1124.42 826.42 L 1128.61 837.26 L 1132.80 835.72 L 1136.99 818.54 L 1141.18 834.15 L 1145.37 836.36 L 1149.56 830.12 L 1153.75 832.19 L 1157.94 833.82 L 1162.13 766.19 L 1166.32 838.43 L 1170.51 837.50 L 1174.69 837.41 L 1178.88 828.92 L 1183.07 836.24 L 1187.26 836.59 L 1191.45 837.60 L 1195.64 837.60 L 1199.83 834.90 L 1204.02 836.98 L 1208.21 829.05 L 1212.40 835.37 L 1216.59 834.35 L 1220.78 834.39 L 1224.97 833.94 L 1229.16 838.29 L 1233.35 833.12 L 1237.54 833.17 L 1241.73 831.47 L 1245.92 837.79 L 1250.11 837.96 L 1254.29 836.98 L 1258.48 835.10 L 1262.67 826.56 L 1266.86 832.17 L 1271.05 829.72 L 1275.24 838.01 L 1279.43 831.64 L 1283.62 826.30 L 1287.81 827.85 L 1292.00 833.29" fill="none" stroke="#1d4ed8" stroke-width="2"  />
<path d="M 98.00 788.29 L 102.19 827.06 L 106.38 821.42 L 110.57 829.53 L 114.76 810.12 L 118.95 835.98 L 123.14 834.36 L 127.33 805.55 L 131.52 817.59 L 135.71 818.22 L 139.89 839.75 L 144.08 834.24 L 148.27 831.05 L 152.46 818.16 L 156.65 834.86 L 160.84 833.98 L 165.03 823.36 L 169.22 804.12 L 173.41 692.11 L 177.60 836.38 L 181.79 831.57 L 185.98 795.18 L 190.17 823.37 L 194.36 835.12 L 198.55 818.79 L 202.74 791.55 L 206.93 828.65 L 211.12 829.44 L 215.31 836.14 L 219.49 824.33 L 223.68 801.13 L 227.87 839.94 L 232.06 806.40 L 236.25 835.10 L 240.44 785.78 L 244.63 825.48 L 248.82 824.78 L 253.01 822.36 L 257.20 802.28 L 261.39 825.67 L 265.58 835.06 L 269.77 796.93 L 273.96 798.92 L 278.15 837.69 L 282.34 789.93 L 286.53 826.81 L 290.72 819.10 L 294.91 815.83 L 299.09 837.98 L 303.28 836.33 L 307.47 814.01 L 311.66 824.01 L 315.85 825.45 L 320.04 827.90 L 324.23 812.07 L 328.42 823.96 L 332.61 812.79 L 336.80 832.33 L 340.99 840.00 L 345.18 826.78 L 349.37 732.57 L 353.56 831.52 L 357.75 763.70 L 361.94 786.47 L 366.13 798.72 L 370.32 821.05 L 374.51 830.66 L 378.69 772.85 L 382.88 823.31 L 387.07 828.65 L 391.26 791.57 L 395.45 824.47 L 399.64 773.29 L 403.83 820.47 L 408.02 820.07 L 412.21 824.29 L 416.40 812.24 L 420.59 829.20 L 424.78 770.91 L 428.97 805.56 L 433.16 795.91 L 437.35 819.75 L 441.54 744.35 L 445.73 838.31 L 449.92 786.08 L 454.11 809.68 L 458.29 811.38 L 462.48 815.36 L 466.67 804.74 L 470.86 823.29 L 475.05 817.64 L 479.24 798.19 L 483.43 822.90 L 487.62 799.56 L 491.81 832.55 L 496.00 836.63 L 500.19 823.25 L 504.38 809.11 L 508.57 831.09 L 512.76 825.23 L 516.95 810.44 L 521.14 836.48 L 525.33 834.20 L 529.52 834.72 L 533.71 818.37 L 537.89 816.86 L 542.08 809.09 L 546.27 832.36 L 550.46 827.18 L 554.65 824.81 L 558.84 826.73 L 563.03 836.47 L 567.22 797.03 L 571.41 836.36 L 575.60 832.42 L 579.79 796.67 L 583.98 821.51 L 588.17 823.38 L 592.36 832.81 L 596.55 819.44 L 600.74 830.59 L 604.93 826.71 L 609.12 813.76 L 613.31 832.52 L 617.49 839.85 L 621.68 819.74 L 625.87 826.95 L 630.06 824.98 L 634.25 828.86 L 638.44 826.76 L 642.63 836.32 L 646.82 807.27 L 651.01 825.85 L 655.20 808.79 L 659.39 817.59 L 663.58 811.90 L 667.77 823.14 L 671.96 836.23 L 676.15 796.33 L 680.34 828.70 L 684.53 803.17 L 688.72 826.51 L 692.91 838.05 L 697.09 833.26 L 701.28 828.59 L 705.47 837.63 L 709.66 803.62 L 713.85 834.37 L 718.04 839.46 L 722.23 821.29 L 726.42 838.69 L 730.61 829.16 L 734.80 825.60 L 738.99 820.36 L 743.18 826.60 L 747.37 817.10 L 751.56 825.01 L 755.75 827.24 L 759.94 838.65 L 764.13 828.35 L 768.32 819.88 L 772.51 833.75 L 776.69 795.96 L 780.88 820.43 L 785.07 822.31 L 789.26 811.17 L 793.45 815.47 L 797.64 831.38 L 801.83 833.25 L 806.02 829.93 L 810.21 838.65 L 814.40 819.15 L 818.59 838.53 L 822.78 818.50 L 826.97 824.12 L 831.16 815.70 L 835.35 799.53 L 839.54 830.76 L 843.73 812.03 L 847.92 834.48 L 852.11 824.38 L 856.29 805.08 L 860.48 826.10 L 864.67 764.42 L 868.86 824.12 L 873.05 785.02 L 877.24 822.52 L 881.43 804.40 L 885.62 789.53 L 889.81 793.59 L 894.00 759.99 L 898.19 666.80 L 902.38 825.20 L 906.57 827.77 L 910.76 827.37 L 914.95 758.64 L 919.14 815.57 L 923.33 831.30 L 927.52 801.81 L 931.71 823.73 L 935.89 838.33 L 940.08 794.38 L 944.27 817.96 L 948.46 831.90 L 952.65 827.32 L 956.84 780.18 L 961.03 833.32 L 965.22 804.08 L 969.41 821.54 L 973.60 784.35 L 977.79 808.81 L 981.98 828.33 L 986.17 838.52 L 990.36 836.68 L 994.55 830.34 L 998.74 808.11 L 1002.93 838.43 L 1007.12 825.78 L 1011.31 827.08 L 1015.49 817.74 L 1019.68 832.27 L 1023.87 818.11 L 1028.06 835.97 L 1032.25 836.14 L 1036.44 832.51 L 1040.63 828.66 L 1044.82 832.35 L 1049.01 836.95 L 1053.20 819.45 L 1057.39 831.72 L 1061.58 839.14 L 1065.77 835.13 L 1069.96 825.47 L 1074.15 835.77 L 1078.34 836.24 L 1082.53 791.23 L 1086.72 817.55 L 1090.91 827.95 L 1095.09 826.15 L 1099.28 827.46 L 1103.47 734.09 L 1107.66 838.15 L 1111.85 821.21 L 1116.04 782.71 L 1120.23 821.81 L 1124.42 815.96 L 1128.61 833.26 L 1132.80 829.25 L 1136.99 800.28 L 1141.18 831.61 L 1145.37 822.90 L 1149.56 821.72 L 1153.75 825.99 L 1157.94 833.13 L 1162.13 772.50 L 1166.32 809.79 L 1170.51 805.47 L 1174.69 814.13 L 1178.88 812.14 L 1183.07 793.97 L 1187.26 759.18 L 1191.45 839.96 L 1195.64 590.00 L 1199.83 733.92 L 1204.02 714.08 L 1208.21 827.60 L 1212.40 781.53 L 1216.59 782.17 L 1220.78 788.76 L 1224.97 812.03 L 1229.16 819.60 L 1233.35 759.48 L 1237.54 793.96 L 1241.73 788.45 L 1245.92 833.43 L 1250.11 831.60 L 1254.29 816.72 L 1258.48 816.52 L 1262.67 726.42 L 1266.86 824.86 L 1271.05 802.03 L 1275.24 808.34 L 1279.43 833.24 L 1283.62 818.58 L 1287.81 822.98 L 1292.00 797.13" fill="none" stroke="#b45309" stroke-width="2" stroke-dasharray="6 4" />
  </g>
</svg>