<?xml version="1.0" encoding="UTF-8"?>
<svg xmlns="http://www.w3.org/2000/svg" width="1360" height="980" viewBox="0 0 1360 980">
  <defs>
    <linearGradient id="bg" x1="0" y1="0" x2="1" y2="1">
      <stop offset="0%" stop-color="#f4efe6" />
      <stop offset="100%" stop-color="#eef5f2" />
    </linearGradient>
  </defs>
  <rect x="0" y="0" width="1360" height="980" fill="url(#bg)" />
  <text x="46" y="36" fill="#1f2937" font-size="31" font-weight="700">161130 离线研究图（持仓逐日估值版）</text>
  <text x="46" y="66" fill="#5b6b68" font-size="13">历史前十大持仓 + 持仓逐日涨跌幅 + USDCNY；双目标 lambda=0.10；披露期数 28；覆盖率均值 92.1%</text>
  <g>
    <text x="54" y="110" fill="#1f2937" font-size="16" font-weight="700">A. 净值拟合（同日对齐，无平移）</text>
    <line x1="98" y1="112" x2="124" y2="112" stroke="#0f766e" stroke-width="2"  />
      <text x="130" y="116" fill="#24312e" font-size="12">真实净值</text>
<line x1="313" y1="112" x2="339" y2="112" stroke="#1d4ed8" stroke-width="2"  />
      <text x="345" y="116" fill="#24312e" font-size="12">持仓分段估值</text>
<line x1="528" y1="112" x2="554" y2="112" stroke="#b45309" stroke-width="2" stroke-dasharray="6 4" />
      <text x="560" y="116" fill="#24312e" font-size="12">持仓双目标估值</text>
    <line x1="98" y1="132.00" x2="1292" y2="132.00" stroke="#d7e3df" stroke-width="1" />
      <text x="90" y="136.00" text-anchor="end" fill="#5b6b68" font-size="11">4.162</text>
<line x1="98" y1="209.50" x2="1292" y2="209.50" stroke="#d7e3df" stroke-width="1" />
      <text x="90" y="213.50" text-anchor="end" fill="#5b6b68" font-size="11">3.824</text>
<line x1="98" y1="287.00" x2="1292" y2="287.00" stroke="#d7e3df" stroke-width="1" />
      <text x="90" y="291.00" text-anchor="end" fill="#5b6b68" font-size="11">3.486</text>
<line x1="98" y1="364.50" x2="1292" y2="364.50" stroke="#d7e3df" stroke-width="1" />
      <text x="90" y="368.50" text-anchor="end" fill="#5b6b68" font-size="11">3.148</text>
<line x1="98" y1="442.00" x2="1292" y2="442.00" stroke="#d7e3df" stroke-width="1" />
      <text x="90" y="446.00" text-anchor="end" fill="#5b6b68" font-size="11">2.810</text>
    <line x1="98.00" y1="132" x2="98.00" y2="442" stroke="#eef3f1" stroke-width="1" />
      <text x="98.00" y="470" text-anchor="middle" fill="#5b6b68" font-size="11">25-01-02</text>
<line x1="290.72" y1="132" x2="290.72" y2="442" stroke="#eef3f1" stroke-width="1" />
      <text x="290.72" y="470" text-anchor="middle" fill="#5b6b68" font-size="11">25-03-17</text>
<line x1="479.24" y1="132" x2="479.24" y2="442" stroke="#eef3f1" stroke-width="1" />
      <text x="479.24" y="470" text-anchor="middle" fill="#5b6b68" font-size="11">25-05-23</text>
<line x1="697.09" y1="132" x2="697.09" y2="442" stroke="#eef3f1" stroke-width="1" />
      <text x="697.09" y="470" text-anchor="middle" fill="#5b6b68" font-size="11">25-08-06</text>
<line x1="910.76" y1="132" x2="910.76" y2="442" stroke="#eef3f1" stroke-width="1" />
      <text x="910.76" y="470" text-anchor="middle" fill="#5b6b68" font-size="11">25-10-24</text>
<line x1="1099.28" y1="132" x2="1099.28" y2="442" stroke="#eef3f1" stroke-width="1" />
      <text x="1099.28" y="470" text-anchor="middle" fill="#5b6b68" font-size="11">25-12-26</text>
<line x1="1292.00" y1="132" x2="1292.00" y2="442" stroke="#eef3f1" stroke-width="1" />
      <text x="1292.00" y="470" text-anchor="middle" fill="#5b6b68" font-size="11">26-03-12</text>
    <line x1="1116.04" y1="132" x2="1116.04" y2="442" stroke="#f59e0b" stroke-width="1.4" stroke-dasharray="4 4" />
       <text x="1122.04" y="124" fill="#a16207" font-size="11">验证起点</text>
    <path d="M 98.00 301.18 L 102.19 288.68 L 106.38 280.49 L 110.57 294.19 L 114.76 293.84 L 118.95 293.84 L 123.14 305.65 L 127.33 307.95 L 131.52 309.00 L 135.71 291.94 L 139.89 297.14 L 144.08 284.67 L 148.27 284.76 L 152.46 282.15 L 156.65 272.05 L 160.84 270.29 L 165.03 274.81 L 169.22 297.69 L 173.41 279.14 L 177.60 275.13 L 181.79 285.26 L 185.98 275.77 L 190.17 277.93 L 194.36 277.08 L 198.55 266.05 L 202.74 263.13 L 206.93 263.25 L 211.12 261.62 L 215.31 261.16 L 219.49 264.81 L 223.68 281.11 L 227.87 290.24 L 232.06 299.62 L 236.25 297.97 L 240.44 318.47 L 244.63 306.62 L 248.82 322.83 L 253.01 325.49 L 257.20 316.04 L 261.39 336.68 L 265.58 331.22 L 269.77 358.22 L 273.96 360.10 L 278.15 352.71 L 282.34 365.53 L 286.53 348.40 L 290.72 345.10 L 294.91 356.29 L 299.09 347.74 L 303.28 349.23 L 307.47 346.36 L 311.66 331.25 L 315.85 327.39 L 320.04 340.81 L 324.23 344.98 L 328.42 363.45 L 332.61 363.31 L 336.80 357.76 L 340.99 352.48 L 345.18 389.16 L 349.37 427.09 L 353.56 438.76 L 357.75 364.75 L 361.94 393.21 L 366.13 380.92 L 370.32 376.91 L 374.51 375.85 L 378.69 396.04 L 382.88 396.47 L 387.07 396.63 L 391.26 412.82 L 395.45 395.97 L 399.64 380.81 L 403.83 362.39 L 408.02 354.94 L 412.21 355.37 L 416.40 351.34 L 420.59 350.56 L 424.78 342.78 L 428.97 340.12 L 433.16 332.51 L 437.35 332.35 L 441.54 303.84 L 445.73 292.92 L 449.92 289.00 L 454.11 288.20 L 458.29 285.08 L 462.48 284.67 L 466.67 287.47 L 470.86 297.53 L 475.05 296.75 L 479.24 303.61 L 483.43 304.53 L 487.62 286.41 L 491.81 289.67 L 496.00 287.90 L 500.19 289.30 L 504.38 277.74 L 508.57 275.45 L 512.76 281.82 L 516.95 274.35 L 521.14 272.97 L 525.33 268.04 L 529.52 271.18 L 533.71 269.49 L 537.89 279.74 L 542.08 268.75 L 546.27 276.94 L 550.46 276.80 L 554.65 277.17 L 558.84 280.79 L 563.03 272.51 L 567.22 261.30 L 571.41 259.51 L 575.60 252.65 L 579.79 249.46 L 583.98 244.88 L 588.17 252.58 L 592.36 246.67 L 596.55 238.94 L 600.74 238.87 L 604.93 245.59 L 609.12 244.69 L 613.31 238.91 L 617.49 240.50 L 621.68 242.63 L 625.87 239.88 L 630.06 238.78 L 634.25 237.68 L 638.44 232.45 L 642.63 232.49 L 646.82 228.25 L 651.01 233.07 L 655.20 230.13 L 659.39 228.50 L 663.58 226.30 L 667.77 222.91 L 671.96 224.08 L 676.15 223.62 L 680.34 227.40 L 684.53 243.27 L 688.72 229.70 L 692.91 236.03 L 697.09 225.25 L 701.28 223.43 L 705.47 215.32 L 709.66 217.93 L 713.85 206.97 L 718.04 207.45 L 722.23 208.21 L 726.42 211.97 L 730.61 212.54 L 734.80 223.60 L 738.99 228.09 L 743.18 232.79 L 747.37 220.11 L 751.56 224.58 L 755.75 220.87 L 759.94 220.45 L 764.13 216.26 L 768.32 226.55 L 772.51 226.16 L 776.69 232.38 L 780.88 225.89 L 785.07 218.99 L 789.26 218.11 L 793.45 214.74 L 797.64 212.36 L 801.83 211.46 L 806.02 206.88 L 810.21 203.64 L 814.40 196.23 L 818.59 197.27 L 822.78 199.24 L 826.97 190.50 L 831.16 184.10 L 835.35 179.63 L 839.54 186.51 L 843.73 189.13 L 847.92 192.43 L 852.11 188.41 L 856.29 185.41 L 860.48 183.48 L 864.67 168.53 L 868.86 199.58 L 873.05 181.81 L 877.24 187.59 L 881.43 182.18 L 885.62 185.52 L 889.81 180.25 L 894.00 168.85 L 898.19 169.84 L 902.38 178.16 L 906.57 171.08 L 910.76 162.16 L 914.95 147.27 L 919.14 141.26 L 923.33 137.94 L 927.52 151.01 L 931.71 146.72 L 935.89 143.28 L 940.08 161.31 L 944.27 155.11 L 948.46 172.41 L 952.65 175.39 L 956.84 156.22 L 961.03 158.94 L 965.22 159.98 L 969.41 177.84 L 973.60 178.03 L 977.79 185.57 L 981.98 195.52 L 986.17 190.82 L 990.36 210.71 L 994.55 204.93 L 998.74 183.51 L 1002.93 179.13 L 1007.12 172.22 L 1011.31 172.70 L 1015.49 166.10 L 1019.68 169.79 L 1023.87 162.22 L 1028.06 161.01 L 1032.25 162.18 L 1036.44 158.21 L 1040.63 160.27 L 1044.82 158.81 L 1049.01 155.55 L 1053.20 159.38 L 1057.39 176.79 L 1061.58 180.94 L 1065.77 179.47 L 1069.96 196.30 L 1074.15 183.58 L 1078.34 172.89 L 1082.53 168.76 L 1086.72 165.09 L 1090.91 163.39 L 1095.09 164.33 L 1099.28 165.16 L 1103.47 169.56 L 1107.66 171.49 L 1111.85 179.45 L 1116.04 175.04 L 1120.23 167.64 L 1124.42 166.99 L 1128.61 171.90 L 1132.80 163.97 L 1136.99 163.49 L 1141.18 165.16 L 1145.37 174.26 L 1149.56 172.22 L 1153.75 172.64 L 1157.94 173.00 L 1162.13 192.02 L 1166.32 180.36 L 1170.51 173.78 L 1174.69 171.88 L 1178.88 169.29 L 1183.07 161.42 L 1187.26 159.84 L 1191.45 164.43 L 1195.64 176.65 L 1199.83 170.25 L 1204.02 184.70 L 1208.21 200.64 L 1212.40 211.78 L 1216.59 193.92 L 1220.78 188.16 L 1224.97 193.67 L 1229.16 191.42 L 1233.35 208.53 L 1237.54 207.59 L 1241.73 199.24 L 1245.92 188.53 L 1250.11 199.51 L 1254.29 201.92 L 1258.48 200.78 L 1262.67 211.58 L 1266.86 198.69 L 1271.05 202.45 L 1275.24 214.81 L 1279.43 202.45 L 1283.62 204.77 L 1287.81 205.23 L 1292.00 219.21" fill="none" stroke="#0f766e" stroke-width="2"  />
<path d="M 98.00 299.33 L 102.19 282.57 L 106.38 282.16 L 110.57 299.82 L 114.76 293.24 L 118.95 294.19 L 123.14 294.67 L 127.33 307.09 L 131.52 309.20 L 135.71 293.84 L 139.89 295.92 L 144.08 285.49 L 148.27 286.31 L 152.46 287.24 L 156.65 270.92 L 160.84 270.70 L 165.03 280.78 L 169.22 308.01 L 173.41 285.62 L 177.60 275.29 L 181.79 281.37 L 185.98 278.37 L 190.17 274.78 L 194.36 278.18 L 198.55 273.43 L 202.74 265.04 L 206.93 261.68 L 211.12 262.77 L 215.31 259.00 L 219.49 261.61 L 223.68 277.84 L 227.87 283.32 L 232.06 293.35 L 236.25 296.84 L 240.44 319.36 L 244.63 309.31 L 248.82 324.82 L 253.01 322.77 L 257.20 320.07 L 261.39 336.92 L 265.58 332.96 L 269.77 348.94 L 273.96 359.78 L 278.15 350.05 L 282.34 359.58 L 286.53 350.65 L 290.72 347.60 L 294.91 354.51 L 299.09 350.12 L 303.28 347.97 L 307.47 347.72 L 311.66 333.43 L 315.85 329.50 L 320.04 343.18 L 324.23 342.97 L 328.42 361.75 L 332.61 363.54 L 336.80 359.29 L 340.99 355.17 L 345.18 397.17 L 349.37 421.90 L 353.56 436.32 L 357.75 364.85 L 361.94 398.45 L 366.13 383.39 L 370.32 379.55 L 374.51 375.26 L 378.69 398.70 L 382.88 397.33 L 387.07 396.43 L 391.26 397.12 L 395.45 398.64 L 399.64 382.26 L 403.83 360.80 L 408.02 355.21 L 412.21 357.02 L 416.40 355.12 L 420.59 350.27 L 424.78 348.39 L 428.97 338.59 L 433.16 336.51 L 437.35 330.77 L 441.54 298.27 L 445.73 294.80 L 449.92 289.58 L 454.11 289.11 L 458.29 287.15 L 462.48 285.68 L 466.67 284.75 L 470.86 295.26 L 475.05 296.59 L 479.24 304.69 L 483.43 305.23 L 487.62 304.46 L 491.81 287.05 L 496.00 286.00 L 500.19 289.23 L 504.38 279.26 L 508.57 275.03 L 512.76 276.05 L 516.95 277.02 L 521.14 272.28 L 525.33 269.19 L 529.52 269.49 L 533.71 268.92 L 537.89 275.64 L 542.08 275.44 L 546.27 270.49 L 550.46 275.90 L 554.65 277.78 L 558.84 278.41 L 563.03 278.12 L 567.22 262.10 L 571.41 256.78 L 575.60 256.56 L 579.79 249.94 L 583.98 247.25 L 588.17 247.40 L 592.36 245.04 L 596.55 243.09 L 600.74 239.43 L 604.93 237.98 L 609.12 243.74 L 613.31 240.75 L 617.49 237.89 L 621.68 240.18 L 625.87 242.98 L 630.06 235.88 L 634.25 238.73 L 638.44 235.45 L 642.63 231.98 L 646.82 230.59 L 651.01 231.04 L 655.20 232.11 L 659.39 227.37 L 663.58 227.25 L 667.77 221.95 L 671.96 223.25 L 676.15 221.97 L 680.34 223.01 L 684.53 241.95 L 688.72 239.34 L 692.91 231.14 L 697.09 230.77 L 701.28 222.09 L 705.47 218.74 L 709.66 214.68 L 713.85 209.69 L 718.04 206.02 L 722.23 205.55 L 726.42 210.52 L 730.61 210.11 L 734.80 220.70 L 738.99 226.54 L 743.18 229.35 L 747.37 223.39 L 751.56 220.28 L 755.75 222.14 L 759.94 219.21 L 764.13 219.93 L 768.32 224.30 L 772.51 227.22 L 776.69 226.35 L 780.88 230.39 L 785.07 221.63 L 789.26 220.43 L 793.45 215.46 L 797.64 213.67 L 801.83 211.21 L 806.02 208.73 L 810.21 204.28 L 814.40 199.85 L 818.59 196.60 L 822.78 199.04 L 826.97 191.00 L 831.16 186.81 L 835.35 177.89 L 839.54 182.93 L 843.73 186.51 L 847.92 188.69 L 852.11 190.07 L 856.29 186.23 L 860.48 182.30 L 864.67 160.30 L 868.86 200.53 L 873.05 184.09 L 877.24 189.54 L 881.43 184.54 L 885.62 181.51 L 889.81 183.80 L 894.00 175.50 L 898.19 167.89 L 902.38 174.40 L 906.57 172.98 L 910.76 162.18 L 914.95 154.93 L 919.14 141.68 L 923.33 136.75 L 927.52 145.37 L 931.71 145.77 L 935.89 141.11 L 940.08 157.06 L 944.27 159.57 L 948.46 171.24 L 952.65 173.23 L 956.84 160.09 L 961.03 159.08 L 965.22 158.13 L 969.41 177.23 L 973.60 176.69 L 977.79 179.65 L 981.98 196.99 L 986.17 192.58 L 990.36 206.14 L 994.55 209.16 L 998.74 190.94 L 1002.93 183.51 L 1007.12 174.33 L 1011.31 172.47 L 1015.49 173.49 L 1019.68 163.25 L 1023.87 165.29 L 1028.06 161.88 L 1032.25 160.05 L 1036.44 160.22 L 1040.63 155.32 L 1044.82 159.26 L 1049.01 156.59 L 1053.20 156.88 L 1057.39 175.64 L 1061.58 178.23 L 1065.77 180.19 L 1069.96 191.50 L 1074.15 186.88 L 1078.34 172.58 L 1082.53 171.34 L 1086.72 165.01 L 1090.91 164.40 L 1095.09 163.92 L 1099.28 164.89 L 1103.47 165.71 L 1107.66 170.37 L 1111.85 173.71 L 1116.04 175.90 L 1120.23 169.97 L 1124.42 166.83 L 1128.61 170.13 L 1132.80 167.87 L 1136.99 163.68 L 1141.18 163.30 L 1145.37 170.36 L 1149.56 171.22 L 1153.75 170.70 L 1157.94 173.90 L 1162.13 174.18 L 1166.32 188.08 L 1170.51 177.64 L 1174.69 171.23 L 1178.88 170.54 L 1183.07 160.39 L 1187.26 158.89 L 1191.45 166.50 L 1195.64 170.24 L 1199.83 174.21 L 1204.02 181.97 L 1208.21 194.09 L 1212.40 211.08 L 1216.59 198.72 L 1220.78 190.35 L 1224.97 190.31 L 1229.16 192.19 L 1233.35 207.01 L 1237.54 209.39 L 1241.73 198.87 L 1245.92 192.80 L 1250.11 202.49 L 1254.29 203.35 L 1258.48 198.35 L 1262.67 203.47 L 1266.86 203.89 L 1271.05 198.93 L 1275.24 215.64 L 1279.43 209.02 L 1283.62 203.25 L 1287.81 203.58 L 1292.00 216.91" fill="none" stroke="#1d4ed8" stroke-width="2"  />
<path d="M 98.00 299.33 L 102.19 300.40 L 106.38 287.90 L 110.57 280.54 L 114.76 293.81 L 118.95 293.91 L 123.14 293.91 L 127.33 305.40 L 131.52 307.58 L 135.71 308.15 L 139.89 291.74 L 144.08 296.36 L 148.27 284.74 L 152.46 284.83 L 156.65 281.30 L 160.84 271.63 L 165.03 270.12 L 169.22 275.42 L 173.41 296.91 L 177.60 278.58 L 181.79 275.01 L 185.98 284.58 L 190.17 275.33 L 194.36 277.57 L 198.55 276.38 L 202.74 265.53 L 206.93 263.21 L 211.12 263.32 L 215.31 261.11 L 219.49 260.76 L 223.68 264.89 L 227.87 281.02 L 232.06 290.11 L 236.25 299.04 L 240.44 298.36 L 244.63 317.73 L 248.82 306.91 L 253.01 322.41 L 257.20 324.80 L 261.39 316.23 L 265.58 336.08 L 269.77 331.61 L 273.96 357.89 L 278.15 359.41 L 282.34 352.61 L 286.53 364.65 L 290.72 347.99 L 294.91 345.02 L 299.09 355.70 L 303.28 347.41 L 307.47 348.82 L 311.66 345.58 L 315.85 330.81 L 320.04 327.48 L 324.23 340.57 L 328.42 345.11 L 332.61 363.12 L 336.80 362.79 L 340.99 357.27 L 345.18 353.44 L 349.37 389.73 L 353.56 427.16 L 357.75 436.10 L 361.94 365.31 L 366.13 392.44 L 370.32 380.50 L 374.51 376.53 L 378.69 376.19 L 382.88 395.80 L 387.07 396.53 L 391.26 396.69 L 395.45 412.06 L 399.64 395.08 L 403.83 379.81 L 408.02 361.75 L 412.21 354.64 L 416.40 354.97 L 420.59 350.94 L 424.78 349.86 L 428.97 342.20 L 433.16 339.57 L 437.35 332.07 L 441.54 330.94 L 445.73 303.01 L 449.92 292.35 L 454.11 288.69 L 458.29 287.77 L 462.48 284.69 L 466.67 284.36 L 470.86 287.39 L 475.05 297.11 L 479.24 296.62 L 483.43 303.68 L 487.62 304.60 L 491.81 286.11 L 496.00 289.13 L 500.19 287.66 L 504.38 288.44 L 508.57 277.22 L 512.76 275.11 L 516.95 281.18 L 521.14 273.78 L 525.33 272.39 L 529.52 267.76 L 533.71 270.65 L 537.89 269.38 L 542.08 278.98 L 546.27 268.48 L 550.46 276.49 L 554.65 276.87 L 558.84 277.24 L 563.03 280.26 L 567.22 271.71 L 571.41 260.67 L 575.60 258.92 L 579.79 252.10 L 583.98 248.98 L 588.17 244.59 L 592.36 251.90 L 596.55 246.02 L 600.74 239.01 L 604.93 238.95 L 609.12 245.09 L 613.31 244.07 L 617.49 238.43 L 621.68 240.05 L 625.87 242.28 L 630.06 239.21 L 634.25 238.37 L 638.44 237.11 L 642.63 232.00 L 646.82 232.00 L 651.01 228.02 L 655.20 232.54 L 659.39 229.56 L 663.58 228.05 L 667.77 225.69 L 671.96 222.53 L 676.15 223.56 L 680.34 223.25 L 684.53 227.54 L 688.72 242.53 L 692.91 229.39 L 697.09 235.31 L 701.28 224.62 L 705.47 222.76 L 709.66 214.95 L 713.85 217.18 L 718.04 206.45 L 722.23 206.91 L 726.42 207.96 L 730.61 211.49 L 734.80 212.45 L 738.99 223.35 L 743.18 227.75 L 747.37 231.98 L 751.56 219.69 L 755.75 224.02 L 759.94 220.35 L 764.13 219.90 L 768.32 216.18 L 772.51 226.63 L 776.69 226.24 L 780.88 231.81 L 785.07 225.20 L 789.26 218.65 L 793.45 217.53 L 797.64 214.24 L 801.83 211.85 L 806.02 210.91 L 810.21 206.33 L 814.40 203.00 L 818.59 195.81 L 822.78 196.93 L 826.97 198.45 L 831.16 189.88 L 835.35 183.33 L 839.54 179.43 L 843.73 186.14 L 847.92 188.68 L 852.11 191.90 L 856.29 187.83 L 860.48 184.82 L 864.67 182.33 L 868.86 169.05 L 873.05 198.59 L 877.24 181.68 L 881.43 186.93 L 885.62 181.71 L 889.81 184.99 L 894.00 179.48 L 898.19 168.36 L 902.38 169.65 L 906.57 177.44 L 910.76 170.29 L 914.95 161.21 L 919.14 146.48 L 923.33 140.55 L 927.52 137.83 L 931.71 150.30 L 935.89 146.02 L 940.08 143.33 L 944.27 160.74 L 948.46 155.14 L 952.65 172.01 L 956.84 174.36 L 961.03 155.90 L 965.22 158.44 L 969.41 160.04 L 973.60 177.32 L 977.79 177.86 L 981.98 185.59 L 986.17 194.89 L 990.36 190.99 L 994.55 210.16 L 998.74 203.94 L 1002.93 183.01 L 1007.12 178.38 L 1011.31 172.31 L 1015.49 172.79 L 1019.68 165.56 L 1023.87 169.09 L 1028.06 161.78 L 1032.25 160.58 L 1036.44 161.64 L 1040.63 157.61 L 1044.82 159.79 L 1049.01 158.26 L 1053.20 155.18 L 1057.39 159.48 L 1061.58 176.48 L 1065.77 180.45 L 1069.96 179.48 L 1074.15 195.47 L 1078.34 182.73 L 1082.53 172.31 L 1086.72 168.07 L 1090.91 164.57 L 1095.09 163.48 L 1099.28 164.42 L 1103.47 164.78 L 1107.66 169.13 L 1111.85 171.20 L 1116.04 178.72 L 1120.23 174.29 L 1124.42 167.17 L 1128.61 166.73 L 1132.80 171.20 L 1136.99 163.47 L 1141.18 163.06 L 1145.37 164.98 L 1149.56 173.63 L 1153.75 171.70 L 1157.94 172.72 L 1162.13 173.08 L 1166.32 191.28 L 1170.51 179.74 L 1174.69 173.17 L 1178.88 171.32 L 1183.07 168.43 L 1187.26 160.77 L 1191.45 159.68 L 1195.64 164.32 L 1199.83 176.03 L 1204.02 170.23 L 1208.21 184.66 L 1212.40 200.57 L 1216.59 210.75 L 1220.78 193.23 L 1224.97 187.81 L 1229.16 193.12 L 1233.35 191.47 L 1237.54 208.17 L 1241.73 206.60 L 1245.92 198.44 L 1250.11 188.51 L 1254.29 199.42 L 1258.48 201.35 L 1262.67 200.64 L 1266.86 210.79 L 1271.05 198.25 L 1275.24 202.51 L 1279.43 213.97 L 1283.62 201.93 L 1287.81 204.26 L 1292.00 205.21" fill="none" stroke="#b45309" stroke-width="2" stroke-dasharray="6 4" />
  </g>
  <g>
    <text x="54" y="538" fill="#1f2937" font-size="16" font-weight="700">B. 绝对误差（越低越好）</text>
    <line x1="98" y1="540" x2="124" y2="540" stroke="#1d4ed8" stroke-width="2"  />
      <text x="130" y="544" fill="#24312e" font-size="12">持仓分段误差</text>
<line x1="313" y1="540" x2="339" y2="540" stroke="#b45309" stroke-width="2" stroke-dasharray="6 4" />
      <text x="345" y="544" fill="#24312e" font-size="12">持仓双目标误差</text>
    <line x1="98" y1="560.00" x2="1292" y2="560.00" stroke="#d7e3df" stroke-width="1" />
      <text x="90" y="564.00" text-anchor="end" fill="#5b6b68" font-size="11">11.07%</text>
<line x1="98" y1="630.00" x2="1292" y2="630.00" stroke="#d7e3df" stroke-width="1" />
      <text x="90" y="634.00" text-anchor="end" fill="#5b6b68" font-size="11">8.30%</text>
<line x1="98" y1="700.00" x2="1292" y2="700.00" stroke="#d7e3df" stroke-width="1" />
      <text x="90" y="704.00" text-anchor="end" fill="#5b6b68" font-size="11">5.54%</text>
<line x1="98" y1="770.00" x2="1292" y2="770.00" stroke="#d7e3df" stroke-width="1" />
      <text x="90" y="774.00" text-anchor="end" fill="#5b6b68" font-size="11">2.77%</text>
<line x1="98" y1="840.00" x2="1292" y2="840.00" stroke="#d7e3df" stroke-width="1" />
      <text x="90" y="844.00" text-anchor="end" fill="#5b6b68" font-size="11">0.00%</text>
    <line x1="98.00" y1="560" x2="98.00" y2="840" stroke="#eef3f1" stroke-width="1" />
      <text x="98.00" y="868" text-anchor="middle" fill="#5b6b68" font-size="11">25-01-02</text>
<line x1="290.72" y1="560" x2="290.72" y2="840" stroke="#eef3f1" stroke-width="1" />
      <text x="290.72" y="868" text-anchor="middle" fill="#5b6b68" font-size="11">25-03-17</text>
<line x1="479.24" y1="560" x2="479.24" y2="840" stroke="#eef3f1" stroke-width="1" />
      <text x="479.24" y="868" text-anchor="middle" fill="#5b6b68" font-size="11">25-05-23</text>
<line x1="697.09" y1="560" x2="697.09" y2="840" stroke="#eef3f1" stroke-width="1" />
      <text x="697.09" y="868" text-anchor="middle" fill="#5b6b68" font-size="11">25-08-06</text>
<line x1="910.76" y1="560" x2="910.76" y2="840" stroke="#eef3f1" stroke-width="1" />
      <text x="910.76" y="868" text-anchor="middle" fill="#5b6b68" font-size="11">25-10-24</text>
<line x1="1099.28" y1="560" x2="1099.28" y2="840" stroke="#eef3f1" stroke-width="1" />
      <text x="1099.28" y="868" text-anchor="middle" fill="#5b6b68" font-size="11">25-12-26</text>
<line x1="1292.00" y1="560" x2="1292.00" y2="840" stroke="#eef3f1" stroke-width="1" />
      <text x="1292.00" y="868" text-anchor="middle" fill="#5b6b68" font-size="11">26-03-12</text>
    <line x1="1116.04" y1="560" x2="1116.04" y2="840" stroke="#f59e0b" stroke-width="1.4" stroke-dasharray="4 4" />
       <text x="1122.04" y="552" fill="#a16207" font-size="11">验证起点</text>
    <path d="M 98.00 834.05 L 102.19 820.64 L 106.38 834.78 L 110.57 822.01 L 114.76 838.07 L 118.95 838.88 L 123.14 804.44 L 127.33 837.23 L 131.52 839.36 L 135.71 833.95 L 139.89 836.07 L 144.08 837.41 L 148.27 835.12 L 152.46 823.99 L 156.65 836.49 L 160.84 838.72 L 165.03 821.38 L 169.22 806.92 L 173.41 819.71 L 177.60 839.51 L 181.79 827.69 L 185.98 831.88 L 190.17 830.17 L 194.36 836.56 L 198.55 817.23 L 202.74 834.13 L 206.93 835.17 L 211.12 836.48 L 215.31 833.39 L 219.49 830.15 L 223.68 829.72 L 227.87 818.02 L 232.06 819.83 L 236.25 836.39 L 240.44 837.09 L 244.63 831.25 L 248.82 833.42 L 253.01 830.97 L 257.20 826.76 L 261.39 839.20 L 265.58 834.20 L 269.77 807.78 L 273.96 838.90 L 278.15 830.83 L 282.34 819.12 L 286.53 832.30 L 290.72 831.49 L 294.91 833.85 L 299.09 831.85 L 303.28 835.70 L 307.47 835.36 L 311.66 832.70 L 315.85 833.00 L 320.04 831.97 L 324.23 833.14 L 328.42 834.08 L 332.61 839.21 L 336.80 834.68 L 340.99 830.74 L 345.18 810.92 L 349.37 820.09 L 353.56 830.48 L 357.75 839.66 L 361.94 820.91 L 366.13 831.14 L 370.32 830.59 L 374.51 837.90 L 378.69 830.24 L 382.88 836.85 L 387.07 839.26 L 391.26 781.05 L 395.45 830.23 L 399.64 834.79 L 403.83 834.43 L 408.02 839.07 L 412.21 834.30 L 416.40 827.00 L 420.59 839.03 L 424.78 820.92 L 428.97 834.80 L 433.16 826.59 L 437.35 834.70 L 441.54 822.00 L 445.73 834.02 L 449.92 838.16 L 454.11 837.10 L 458.29 833.46 L 462.48 836.82 L 466.67 831.40 L 470.86 832.71 L 475.05 839.47 L 479.24 836.50 L 483.43 837.73 L 487.62 782.94 L 491.81 831.68 L 496.00 833.98 L 500.19 839.79 L 504.38 835.24 L 508.57 838.68 L 512.76 821.84 L 516.95 831.68 L 521.14 837.85 L 525.33 836.44 L 529.52 834.74 L 533.71 838.26 L 537.89 827.15 L 542.08 819.32 L 546.27 819.84 L 550.46 837.17 L 554.65 838.08 L 558.84 832.52 L 563.03 822.57 L 567.22 837.54 L 571.41 831.65 L 575.60 828.15 L 579.79 838.57 L 583.98 832.88 L 588.17 824.27 L 592.36 835.11 L 596.55 827.62 L 600.74 838.33 L 604.93 817.13 L 609.12 837.12 L 613.31 834.53 L 617.49 832.21 L 621.68 832.65 L 625.87 830.74 L 630.06 831.36 L 634.25 836.87 L 638.44 831.10 L 642.63 838.48 L 646.82 833.11 L 651.01 834.00 L 655.20 834.15 L 659.39 836.67 L 663.58 837.22 L 667.77 837.20 L 671.96 837.57 L 676.15 835.18 L 680.34 827.07 L 684.53 836.04 L 688.72 811.55 L 692.91 825.47 L 697.09 823.78 L 701.28 836.05 L 705.47 830.06 L 709.66 830.55 L 713.85 832.16 L 718.04 835.88 L 722.23 832.34 L 726.42 835.81 L 730.61 832.97 L 734.80 831.52 L 738.99 835.45 L 743.18 829.82 L 747.37 830.43 L 751.56 827.39 L 755.75 836.29 L 759.94 836.38 L 764.13 829.34 L 768.32 833.39 L 772.51 836.89 L 776.69 822.16 L 780.88 826.76 L 785.07 832.29 L 789.26 833.26 L 793.45 837.91 L 797.64 836.21 L 801.83 839.28 L 806.02 834.66 L 810.21 838.17 L 814.40 829.74 L 818.59 838.12 L 822.78 839.44 L 826.97 838.59 L 831.16 832.41 L 835.35 835.14 L 839.54 829.94 L 843.73 832.63 L 847.92 829.43 L 852.11 835.33 L 856.29 837.70 L 860.48 836.68 L 864.67 817.33 L 868.86 837.29 L 873.05 833.63 L 877.24 834.50 L 881.43 833.38 L 885.62 828.72 L 889.81 830.10 L 894.00 821.69 L 898.19 834.62 L 902.38 829.52 L 906.57 834.73 L 910.76 839.95 L 914.95 819.38 L 919.14 838.89 L 923.33 836.83 L 927.52 824.76 L 931.71 837.44 L 935.89 834.18 L 940.08 828.38 L 944.27 827.91 L 948.46 836.78 L 952.65 834.00 L 956.84 829.47 L 961.03 839.62 L 965.22 834.97 L 969.41 838.30 L 973.60 836.28 L 977.79 823.38 L 981.98 835.84 L 986.17 835.03 L 990.36 826.82 L 994.55 827.87 L 998.74 819.19 L 1002.93 827.79 L 1007.12 834.16 L 1011.31 839.34 L 1015.49 819.71 L 1019.68 821.95 L 1023.87 831.62 L 1028.06 837.62 L 1032.25 834.17 L 1036.44 834.52 L 1040.63 826.48 L 1044.82 838.76 L 1049.01 837.17 L 1053.20 833.18 L 1057.39 836.80 L 1061.58 832.44 L 1065.77 837.98 L 1069.96 826.34 L 1074.15 830.74 L 1078.34 839.14 L 1082.53 832.88 L 1086.72 839.77 L 1090.91 837.25 L 1095.09 838.86 L 1099.28 839.26 L 1103.47 829.37 L 1107.66 836.92 L 1111.85 824.00 L 1116.04 837.63 L 1120.23 833.57 L 1124.42 839.54 L 1128.61 835.09 L 1132.80 829.31 L 1136.99 839.48 L 1141.18 834.90 L 1145.37 829.19 L 1149.56 837.23 L 1153.75 834.65 L 1157.94 837.52 L 1162.13 789.58 L 1166.32 818.48 L 1170.51 829.30 L 1174.69 838.21 L 1178.88 836.55 L 1183.07 837.18 L 1187.26 837.40 L 1191.45 834.32 L 1195.64 822.19 L 1199.83 829.06 L 1204.02 832.34 L 1208.21 821.29 L 1212.40 837.96 L 1216.59 826.39 L 1220.78 833.83 L 1224.97 830.48 L 1229.16 837.82 L 1233.35 835.63 L 1237.54 834.81 L 1241.73 838.95 L 1245.92 827.98 L 1250.11 831.50 L 1254.29 835.93 L 1258.48 833.06 L 1262.67 816.57 L 1266.86 825.19 L 1271.05 829.95 L 1275.24 837.61 L 1279.43 821.20 L 1283.62 835.64 L 1287.81 835.27 L 1292.00 833.28" fill="none" stroke="#1d4ed8" stroke-width="2"  />
<path d="M 98.00 834.03 L 102.19 802.86 L 106.38 816.76 L 110.57 796.45 L 114.76 839.89 L 118.95 839.77 L 123.14 801.98 L 127.33 831.73 L 131.52 835.37 L 135.71 788.40 L 139.89 822.69 L 144.08 803.12 L 148.27 839.94 L 152.46 831.56 L 156.65 811.30 L 160.84 835.84 L 165.03 825.40 L 169.22 768.58 L 173.41 784.35 L 177.60 829.26 L 181.79 807.65 L 185.98 812.51 L 190.17 831.87 L 194.36 838.46 L 198.55 808.16 L 202.74 832.63 L 206.93 839.87 L 211.12 834.78 L 215.31 839.86 L 219.49 827.53 L 223.68 789.05 L 227.87 810.71 L 232.06 809.42 L 236.25 836.57 L 240.44 773.76 L 244.63 803.96 L 248.82 787.27 L 253.01 829.76 L 257.20 811.27 L 261.39 771.01 L 265.58 823.73 L 269.77 747.59 L 273.96 832.32 L 278.15 816.92 L 282.34 794.65 L 286.53 784.34 L 290.72 830.13 L 294.91 800.96 L 299.09 812.75 L 303.28 833.77 L 307.47 831.61 L 311.66 792.02 L 315.85 828.63 L 320.04 794.81 L 324.23 824.95 L 328.42 775.87 L 332.61 839.35 L 336.80 822.55 L 340.99 823.52 L 345.18 710.50 L 349.37 696.72 L 353.56 794.73 L 357.75 590.00 L 361.94 738.20 L 366.13 798.71 L 370.32 827.19 L 374.51 837.59 L 378.69 767.30 L 382.88 837.54 L 387.07 839.64 L 391.26 779.45 L 395.45 781.05 L 399.64 788.85 L 403.83 779.17 L 408.02 816.45 L 412.21 837.48 L 416.40 827.49 L 420.59 838.67 L 424.78 815.93 L 428.97 832.98 L 433.16 816.31 L 437.35 839.08 L 441.54 752.45 L 445.73 807.85 L 449.92 829.38 L 454.11 838.44 L 458.29 831.52 L 462.48 839.94 L 466.67 830.17 L 470.86 807.49 L 475.05 838.86 L 479.24 817.43 L 483.43 837.26 L 487.62 782.51 L 491.81 828.70 L 496.00 836.10 L 500.19 834.79 L 504.38 806.55 L 508.57 834.47 L 512.76 818.89 L 516.95 818.71 L 521.14 837.49 L 525.33 826.57 L 529.52 829.38 L 533.71 836.41 L 537.89 807.54 L 542.08 808.38 L 546.27 813.58 L 550.46 839.01 L 554.65 839.08 L 558.84 828.85 L 563.03 815.94 L 567.22 808.10 L 571.41 836.46 L 575.60 821.00 L 579.79 832.03 L 583.98 827.69 L 588.17 815.77 L 592.36 824.23 L 596.55 818.88 L 600.74 839.57 L 604.93 820.02 L 609.12 838.82 L 613.31 824.61 L 617.49 833.82 L 621.68 832.26 L 625.87 832.84 L 630.06 838.70 L 634.25 837.93 L 638.44 826.21 L 642.63 838.55 L 646.82 828.95 L 651.01 825.05 L 655.20 832.88 L 659.39 836.88 L 663.58 834.85 L 667.77 831.85 L 671.96 835.45 L 676.15 839.82 L 680.34 827.79 L 684.53 792.82 L 688.72 802.13 L 692.91 820.27 L 697.09 810.44 L 701.28 836.53 L 705.47 818.39 L 709.66 831.34 L 713.85 810.63 L 718.04 837.13 L 722.23 836.28 L 726.42 828.40 L 730.61 836.97 L 734.80 807.34 L 738.99 826.03 L 743.18 825.07 L 747.37 805.36 L 751.56 825.65 L 755.75 830.79 L 759.94 839.71 L 764.13 829.40 L 768.32 809.49 L 772.51 838.63 L 776.69 821.83 L 780.88 822.59 L 785.07 821.89 L 789.26 838.43 L 793.45 831.91 L 797.64 834.54 L 801.83 838.88 L 806.02 828.40 L 810.21 832.31 L 814.40 820.78 L 818.59 835.87 L 822.78 833.42 L 826.97 817.57 L 831.16 823.81 L 835.35 829.69 L 839.54 820.10 L 843.73 831.58 L 847.92 829.39 L 852.11 830.17 L 856.29 833.21 L 860.48 836.27 L 864.67 801.98 L 868.86 752.94 L 873.05 793.08 L 877.24 823.38 L 881.43 826.71 L 885.62 829.30 L 889.81 826.78 L 894.00 810.72 L 898.19 835.91 L 902.38 816.29 L 906.57 822.42 L 910.76 817.76 L 914.95 802.47 L 919.14 826.04 L 923.33 833.03 L 927.52 804.38 L 931.71 830.38 L 935.89 832.67 L 940.08 790.85 L 944.27 824.72 L 948.46 792.23 L 952.65 830.63 L 956.84 790.67 L 961.03 831.70 L 965.22 835.80 L 969.41 790.47 L 973.60 838.04 L 977.79 818.34 L 981.98 811.79 L 986.17 828.53 L 990.36 783.08 L 994.55 824.99 L 998.74 782.78 L 1002.93 829.18 L 1007.12 822.97 L 1011.31 838.89 L 1015.49 821.63 L 1019.68 828.34 L 1023.87 821.22 L 1028.06 837.88 L 1032.25 835.62 L 1036.44 830.66 L 1040.63 832.72 L 1044.82 837.32 L 1049.01 832.63 L 1053.20 828.55 L 1057.39 791.89 L 1061.58 827.54 L 1065.77 837.26 L 1069.96 792.20 L 1074.15 806.68 L 1078.34 812.75 L 1082.53 830.21 L 1086.72 831.82 L 1090.91 836.77 L 1095.09 837.65 L 1099.28 837.96 L 1103.47 826.80 L 1107.66 833.48 L 1111.85 817.02 L 1116.04 829.79 L 1120.23 821.69 L 1124.42 839.50 L 1128.61 825.69 L 1132.80 820.19 L 1136.99 839.96 L 1141.18 834.22 L 1145.37 814.26 L 1149.56 836.11 L 1153.75 837.40 L 1157.94 839.21 L 1162.13 786.48 L 1166.32 809.53 L 1170.51 823.49 L 1174.69 836.44 L 1178.88 834.39 L 1183.07 820.83 L 1187.26 837.47 L 1191.45 826.99 L 1195.64 805.72 L 1199.83 824.06 L 1204.02 799.43 L 1208.21 794.40 L 1212.40 807.59 L 1216.59 792.31 L 1220.78 825.72 L 1224.97 823.42 L 1229.16 835.20 L 1233.35 790.88 L 1237.54 838.33 L 1241.73 819.03 L 1245.92 812.09 L 1250.11 808.62 L 1254.29 832.85 L 1258.48 838.36 L 1262.67 808.38 L 1266.86 805.53 L 1271.05 827.98 L 1275.24 804.31 L 1279.43 807.04 L 1283.62 831.87 L 1287.81 837.23 L 1292.00 799.16" fill="none" stroke="#b45309" stroke-width="2" stroke-dasharray="6 4" />
  </g>
</svg>