<?xml version="1.0" encoding="UTF-8"?>
<svg xmlns="http://www.w3.org/2000/svg" width="1360" height="980" viewBox="0 0 1360 980">
  <defs>
    <linearGradient id="bg" x1="0" y1="0" x2="1" y2="1">
      <stop offset="0%" stop-color="#f4efe6" />
      <stop offset="100%" stop-color="#eef5f2" />
    </linearGradient>
  </defs>
  <rect x="0" y="0" width="1360" height="980" fill="url(#bg)" />
  <text x="46" y="36" fill="#1f2937" font-size="31" font-weight="700">161129 离线研究图（持仓逐日估值版）</text>
  <text x="46" y="66" fill="#5b6b68" font-size="13">历史前十大持仓 + 持仓逐日涨跌幅 + USDCNY；双目标 lambda=0.10；披露期数 29；覆盖率均值 92.1%</text>
  <g>
    <text x="54" y="110" fill="#1f2937" font-size="16" font-weight="700">A. 净值拟合（同日对齐，无平移）</text>
    <line x1="98" y1="112" x2="124" y2="112" stroke="#0f766e" stroke-width="2"  />
      <text x="130" y="116" fill="#24312e" font-size="12">真实净值</text>
<line x1="313" y1="112" x2="339" y2="112" stroke="#1d4ed8" stroke-width="2"  />
      <text x="345" y="116" fill="#24312e" font-size="12">持仓分段估值</text>
<line x1="528" y1="112" x2="554" y2="112" stroke="#b45309" stroke-width="2" stroke-dasharray="6 4" />
      <text x="560" y="116" fill="#24312e" font-size="12">持仓双目标估值</text>
    <line x1="98" y1="132.00" x2="1292" y2="132.00" stroke="#d7e3df" stroke-width="1" />
      <text x="90" y="136.00" text-anchor="end" fill="#5b6b68" font-size="11">1.631</text>
<line x1="98" y1="209.50" x2="1292" y2="209.50" stroke="#d7e3df" stroke-width="1" />
      <text x="90" y="213.50" text-anchor="end" fill="#5b6b68" font-size="11">1.481</text>
<line x1="98" y1="287.00" x2="1292" y2="287.00" stroke="#d7e3df" stroke-width="1" />
      <text x="90" y="291.00" text-anchor="end" fill="#5b6b68" font-size="11">1.332</text>
<line x1="98" y1="364.50" x2="1292" y2="364.50" stroke="#d7e3df" stroke-width="1" />
      <text x="90" y="368.50" text-anchor="end" fill="#5b6b68" font-size="11">1.183</text>
<line x1="98" y1="442.00" x2="1292" y2="442.00" stroke="#d7e3df" stroke-width="1" />
      <text x="90" y="446.00" text-anchor="end" fill="#5b6b68" font-size="11">1.033</text>
    <line x1="98.00" y1="132" x2="98.00" y2="442" stroke="#eef3f1" stroke-width="1" />
      <text x="98.00" y="470" text-anchor="middle" fill="#5b6b68" font-size="11">25-01-02</text>
<line x1="290.72" y1="132" x2="290.72" y2="442" stroke="#eef3f1" stroke-width="1" />
      <text x="290.72" y="470" text-anchor="middle" fill="#5b6b68" font-size="11">25-03-17</text>
<line x1="479.24" y1="132" x2="479.24" y2="442" stroke="#eef3f1" stroke-width="1" />
      <text x="479.24" y="470" text-anchor="middle" fill="#5b6b68" font-size="11">25-05-23</text>
<line x1="697.09" y1="132" x2="697.09" y2="442" stroke="#eef3f1" stroke-width="1" />
      <text x="697.09" y="470" text-anchor="middle" fill="#5b6b68" font-size="11">25-08-06</text>
<line x1="910.76" y1="132" x2="910.76" y2="442" stroke="#eef3f1" stroke-width="1" />
      <text x="910.76" y="470" text-anchor="middle" fill="#5b6b68" font-size="11">25-10-24</text>
<line x1="1099.28" y1="132" x2="1099.28" y2="442" stroke="#eef3f1" stroke-width="1" />
      <text x="1099.28" y="470" text-anchor="middle" fill="#5b6b68" font-size="11">25-12-26</text>
<line x1="1292.00" y1="132" x2="1292.00" y2="442" stroke="#eef3f1" stroke-width="1" />
      <text x="1292.00" y="470" text-anchor="middle" fill="#5b6b68" font-size="11">26-03-12</text>
    <line x1="1116.04" y1="132" x2="1116.04" y2="442" stroke="#f59e0b" stroke-width="1.4" stroke-dasharray="4 4" />
       <text x="1122.04" y="124" fill="#a16207" font-size="11">验证起点</text>
    <path d="M 98.00 327.43 L 102.19 326.60 L 106.38 316.33 L 110.57 316.33 L 114.76 312.13 L 118.95 316.90 L 123.14 306.11 L 127.33 295.42 L 131.52 290.75 L 135.71 286.34 L 139.89 280.43 L 144.08 280.84 L 148.27 289.25 L 152.46 292.52 L 156.65 297.50 L 160.84 301.44 L 165.03 305.95 L 169.22 312.39 L 173.41 323.13 L 177.60 327.95 L 181.79 327.43 L 185.98 321.26 L 190.17 315.81 L 194.36 310.99 L 198.55 325.87 L 202.74 325.04 L 206.93 326.03 L 211.12 319.39 L 215.31 314.36 L 219.49 314.36 L 223.68 315.60 L 227.87 319.96 L 232.06 332.20 L 236.25 340.19 L 240.44 339.05 L 244.63 337.24 L 248.82 338.01 L 253.01 354.36 L 257.20 362.92 L 261.39 366.96 L 265.58 361.93 L 269.77 362.97 L 273.96 364.99 L 278.15 360.89 L 282.34 358.04 L 286.53 357.11 L 290.72 354.61 L 294.91 352.28 L 299.09 358.92 L 303.28 352.38 L 307.47 344.76 L 311.66 342.32 L 315.85 340.30 L 320.04 334.43 L 324.23 334.69 L 328.42 336.35 L 332.61 332.00 L 336.80 319.70 L 340.99 321.83 L 345.18 346.31 L 349.37 409.14 L 353.56 405.51 L 357.75 434.71 L 361.94 407.48 L 366.13 410.80 L 370.32 404.11 L 374.51 401.56 L 378.69 404.52 L 382.88 385.17 L 387.07 383.36 L 391.26 386.05 L 395.45 385.12 L 399.64 381.90 L 403.83 386.31 L 408.02 383.51 L 412.21 390.00 L 416.40 398.09 L 420.59 413.50 L 424.78 414.64 L 428.97 417.39 L 433.16 416.40 L 437.35 405.87 L 441.54 391.50 L 445.73 389.11 L 449.92 385.43 L 454.11 399.54 L 458.29 397.57 L 462.48 395.13 L 466.67 394.35 L 470.86 391.24 L 475.05 401.30 L 479.24 400.79 L 483.43 397.41 L 487.62 401.10 L 491.81 398.35 L 496.00 395.96 L 500.19 408.57 L 504.38 390.88 L 508.57 392.33 L 512.76 390.20 L 516.95 386.36 L 521.14 380.19 L 525.33 373.71 L 529.52 370.59 L 533.71 358.92 L 537.89 324.94 L 542.08 329.51 L 546.27 319.34 L 550.46 311.30 L 554.65 297.08 L 558.84 304.19 L 563.03 303.67 L 567.22 372.15 L 571.41 371.58 L 575.60 372.36 L 579.79 373.81 L 583.98 376.87 L 588.17 374.74 L 592.36 368.73 L 596.55 361.20 L 600.74 363.69 L 604.93 359.91 L 609.12 352.12 L 613.31 348.13 L 617.49 353.84 L 621.68 352.23 L 625.87 350.98 L 630.06 358.51 L 634.25 361.15 L 638.44 357.88 L 642.63 351.35 L 646.82 352.75 L 651.01 358.40 L 655.20 359.91 L 659.39 353.73 L 663.58 354.61 L 667.77 351.81 L 671.96 341.07 L 676.15 324.27 L 680.34 326.86 L 684.53 336.92 L 688.72 348.13 L 692.91 357.83 L 697.09 359.91 L 701.28 368.62 L 705.47 373.39 L 709.66 374.28 L 713.85 371.06 L 718.04 380.09 L 722.23 376.14 L 726.42 376.25 L 730.61 377.65 L 734.80 378.53 L 738.99 375.16 L 743.18 369.14 L 747.37 364.42 L 751.56 364.52 L 755.75 365.15 L 759.94 369.56 L 764.13 368.05 L 768.32 364.73 L 772.51 363.75 L 776.69 353.63 L 780.88 358.71 L 785.07 369.19 L 789.26 378.37 L 793.45 375.83 L 797.64 374.64 L 801.83 367.79 L 806.02 371.48 L 810.21 375.16 L 814.40 374.33 L 818.59 364.73 L 822.78 362.24 L 826.97 365.61 L 831.16 372.72 L 835.35 374.33 L 839.54 368.26 L 843.73 361.88 L 847.92 355.44 L 852.11 347.97 L 856.29 360.63 L 860.48 374.85 L 864.67 379.26 L 868.86 397.62 L 873.05 394.66 L 877.24 409.97 L 881.43 410.54 L 885.62 411.89 L 889.81 419.93 L 894.00 420.40 L 898.19 417.18 L 902.38 408.67 L 906.57 393.32 L 910.76 389.48 L 914.95 391.81 L 919.14 402.19 L 923.33 399.39 L 927.52 400.27 L 931.71 398.56 L 935.89 395.29 L 940.08 397.67 L 944.27 399.70 L 948.46 405.35 L 952.65 402.91 L 956.84 402.34 L 961.03 395.55 L 965.22 404.47 L 969.41 411.01 L 973.60 402.60 L 977.79 403.28 L 981.98 402.19 L 986.17 403.74 L 990.36 408.88 L 994.55 418.48 L 998.74 413.91 L 1002.93 419.00 L 1007.12 417.49 L 1011.31 414.12 L 1015.49 410.44 L 1019.68 407.63 L 1023.87 409.81 L 1028.06 411.58 L 1032.25 406.80 L 1036.44 404.78 L 1040.63 406.91 L 1044.82 414.90 L 1049.01 416.45 L 1053.20 421.43 L 1057.39 422.68 L 1061.58 428.59 L 1065.77 438.97 L 1069.96 434.61 L 1074.15 433.57 L 1078.34 433.99 L 1082.53 424.13 L 1086.72 420.55 L 1090.91 417.23 L 1095.09 417.23 L 1099.28 419.72 L 1103.47 423.92 L 1107.66 421.17 L 1111.85 422.52 L 1116.04 424.75 L 1120.23 424.08 L 1124.42 435.86 L 1128.61 429.32 L 1132.80 413.18 L 1136.99 414.17 L 1141.18 398.87 L 1145.37 396.17 L 1149.56 407.43 L 1153.75 408.72 L 1157.94 408.93 L 1162.13 405.92 L 1166.32 401.36 L 1170.51 402.91 L 1174.69 398.66 L 1178.88 395.86 L 1183.07 391.03 L 1187.26 380.71 L 1191.45 363.59 L 1195.64 360.48 L 1199.83 390.46 L 1204.02 383.51 L 1208.21 374.74 L 1212.40 375.99 L 1216.59 370.33 L 1220.78 372.82 L 1224.97 368.52 L 1229.16 361.72 L 1233.35 371.01 L 1237.54 379.93 L 1241.73 344.55 L 1245.92 352.54 L 1250.11 350.41 L 1254.29 346.11 L 1258.48 301.49 L 1262.67 281.73 L 1266.86 276.38 L 1271.05 259.37 L 1275.24 219.01 L 1279.43 164.28 L 1283.62 207.18 L 1287.81 189.49 L 1292.00 136.21" fill="none" stroke="#0f766e" stroke-width="2"  />
<path d="M 98.00 330.08 L 102.19 322.26 L 106.38 326.56 L 110.57 313.13 L 114.76 318.77 L 118.95 311.59 L 123.14 316.89 L 127.33 293.73 L 131.52 296.86 L 135.71 283.83 L 139.89 288.64 L 144.08 280.63 L 148.27 279.60 L 152.46 288.76 L 156.65 293.87 L 160.84 299.72 L 165.03 301.50 L 169.22 311.64 L 173.41 319.58 L 177.60 324.48 L 181.79 326.70 L 185.98 323.22 L 190.17 317.96 L 194.36 321.82 L 198.55 310.73 L 202.74 329.04 L 206.93 323.81 L 211.12 325.23 L 215.31 316.75 L 219.49 313.80 L 223.68 323.00 L 227.87 315.30 L 232.06 324.81 L 236.25 333.31 L 240.44 333.62 L 244.63 339.51 L 248.82 339.45 L 253.01 339.40 L 257.20 363.10 L 261.39 364.71 L 265.58 363.57 L 269.77 360.06 L 273.96 361.96 L 278.15 359.84 L 282.34 365.21 L 286.53 356.15 L 290.72 356.07 L 294.91 356.23 L 299.09 351.40 L 303.28 355.95 L 307.47 352.17 L 311.66 337.75 L 315.85 342.05 L 320.04 337.60 L 324.23 333.75 L 328.42 336.29 L 332.61 332.06 L 336.80 331.92 L 340.99 316.97 L 345.18 339.72 L 349.37 406.03 L 353.56 413.35 L 357.75 383.83 L 361.94 439.31 L 366.13 405.77 L 370.32 413.22 L 374.51 404.68 L 378.69 399.39 L 382.88 401.90 L 387.07 384.38 L 391.26 381.30 L 395.45 383.16 L 399.64 387.75 L 403.83 380.37 L 408.02 385.06 L 412.21 383.91 L 416.40 393.48 L 420.59 401.84 L 424.78 422.85 L 428.97 417.43 L 433.16 411.78 L 437.35 414.82 L 441.54 396.38 L 445.73 386.74 L 449.92 391.03 L 454.11 387.42 L 458.29 398.37 L 462.48 394.41 L 466.67 394.91 L 470.86 397.29 L 475.05 392.31 L 479.24 399.62 L 483.43 399.30 L 487.62 397.20 L 491.81 400.19 L 496.00 400.44 L 500.19 396.49 L 504.38 401.09 L 508.57 393.41 L 512.76 391.48 L 516.95 386.14 L 521.14 380.45 L 525.33 381.41 L 529.52 361.90 L 533.71 370.75 L 537.89 331.27 L 542.08 300.72 L 546.27 312.81 L 550.46 319.14 L 554.65 310.42 L 558.84 295.76 L 563.03 355.51 L 567.22 316.36 L 571.41 373.34 L 575.60 372.22 L 579.79 374.96 L 583.98 370.98 L 588.17 375.49 L 592.36 370.38 L 596.55 370.57 L 600.74 361.05 L 604.93 361.79 L 609.12 358.90 L 613.31 352.00 L 617.49 352.02 L 621.68 348.00 L 625.87 351.05 L 630.06 351.80 L 634.25 359.00 L 638.44 358.07 L 642.63 359.06 L 646.82 344.37 L 651.01 353.39 L 655.20 359.21 L 659.39 357.40 L 663.58 357.24 L 667.77 345.16 L 671.96 343.19 L 676.15 336.98 L 680.34 327.24 L 684.53 331.81 L 688.72 345.32 L 692.91 350.41 L 697.09 361.44 L 701.28 361.22 L 705.47 368.64 L 709.66 375.24 L 713.85 376.88 L 718.04 372.80 L 722.23 375.33 L 726.42 379.12 L 730.61 374.88 L 734.80 380.02 L 738.99 375.21 L 743.18 373.52 L 747.37 367.64 L 751.56 359.26 L 755.75 368.64 L 759.94 363.01 L 764.13 368.80 L 768.32 368.70 L 772.51 362.08 L 776.69 362.90 L 780.88 358.24 L 785.07 360.06 L 789.26 374.02 L 793.45 384.37 L 797.64 374.89 L 801.83 369.82 L 806.02 372.29 L 810.21 369.99 L 814.40 375.70 L 818.59 371.09 L 822.78 366.55 L 826.97 362.56 L 831.16 368.30 L 835.35 376.86 L 839.54 369.16 L 843.73 363.82 L 847.92 359.94 L 852.11 354.71 L 856.29 346.31 L 860.48 362.69 L 864.67 386.56 L 868.86 389.27 L 873.05 408.12 L 877.24 400.20 L 881.43 411.39 L 885.62 415.55 L 889.81 411.58 L 894.00 424.05 L 898.19 419.76 L 902.38 409.82 L 906.57 400.82 L 910.76 393.32 L 914.95 385.00 L 919.14 396.07 L 923.33 400.65 L 927.52 399.52 L 931.71 397.67 L 935.89 395.70 L 940.08 397.14 L 944.27 399.68 L 948.46 400.13 L 952.65 404.50 L 956.84 399.25 L 961.03 399.05 L 965.22 402.28 L 969.41 404.63 L 973.60 406.62 L 977.79 395.89 L 981.98 400.00 L 986.17 406.07 L 990.36 405.16 L 994.55 411.21 L 998.74 423.27 L 1002.93 418.30 L 1007.12 417.28 L 1011.31 417.61 L 1015.49 414.23 L 1019.68 406.82 L 1023.87 409.82 L 1028.06 408.80 L 1032.25 409.97 L 1036.44 405.37 L 1040.63 404.46 L 1044.82 408.13 L 1049.01 412.85 L 1053.20 420.20 L 1057.39 422.84 L 1061.58 424.22 L 1065.77 432.98 L 1069.96 434.36 L 1074.15 436.96 L 1078.34 431.81 L 1082.53 431.55 L 1086.72 423.60 L 1090.91 421.27 L 1095.09 416.90 L 1099.28 416.92 L 1103.47 418.87 L 1107.66 424.03 L 1111.85 422.16 L 1116.04 421.54 L 1120.23 427.76 L 1124.42 424.65 L 1128.61 425.59 L 1132.80 429.28 L 1136.99 400.33 L 1141.18 407.30 L 1145.37 400.86 L 1149.56 399.10 L 1153.75 404.90 L 1157.94 410.68 L 1162.13 408.59 L 1166.32 400.78 L 1170.51 404.44 L 1174.69 398.62 L 1178.88 397.23 L 1183.07 391.51 L 1187.26 388.93 L 1191.45 374.04 L 1195.64 361.05 L 1199.83 378.51 L 1204.02 383.70 L 1208.21 381.41 L 1212.40 377.00 L 1216.59 373.84 L 1220.78 366.83 L 1224.97 371.83 L 1229.16 364.31 L 1233.35 368.88 L 1237.54 370.07 L 1241.73 362.31 L 1245.92 347.01 L 1250.11 352.85 L 1254.29 343.37 L 1258.48 301.55 L 1262.67 290.74 L 1266.86 278.06 L 1271.05 261.84 L 1275.24 198.89 L 1279.43 198.32 L 1283.62 162.23 L 1287.81 205.42 L 1292.00 139.22" fill="none" stroke="#1d4ed8" stroke-width="2"  />
<path d="M 98.00 334.21 L 102.19 327.90 L 106.38 327.32 L 110.57 316.80 L 114.76 317.12 L 118.95 310.84 L 123.14 315.62 L 127.33 306.51 L 131.52 296.19 L 135.71 290.96 L 139.89 287.24 L 144.08 281.19 L 148.27 279.50 L 152.46 287.92 L 156.65 293.29 L 160.84 298.36 L 165.03 302.03 L 169.22 306.88 L 173.41 313.33 L 177.60 323.86 L 181.79 328.51 L 185.98 327.78 L 190.17 321.73 L 194.36 316.80 L 198.55 311.61 L 202.74 326.60 L 206.93 323.78 L 211.12 324.77 L 215.31 319.94 L 219.49 314.94 L 223.68 315.43 L 227.87 316.13 L 232.06 320.93 L 236.25 332.89 L 240.44 340.56 L 244.63 339.69 L 248.82 338.19 L 253.01 338.66 L 257.20 355.29 L 261.39 363.55 L 265.58 367.37 L 269.77 362.73 L 273.96 363.46 L 278.15 365.34 L 282.34 361.70 L 286.53 358.51 L 290.72 357.62 L 294.91 355.30 L 299.09 352.84 L 303.28 359.29 L 307.47 352.98 L 311.66 345.18 L 315.85 342.94 L 320.04 340.80 L 324.23 335.04 L 328.42 335.44 L 332.61 336.52 L 336.80 332.66 L 340.99 320.22 L 345.18 323.44 L 349.37 348.05 L 353.56 410.17 L 357.75 405.28 L 361.94 435.60 L 366.13 407.82 L 370.32 411.30 L 374.51 404.69 L 378.69 401.88 L 382.88 404.78 L 387.07 384.03 L 391.26 382.21 L 395.45 386.49 L 399.64 385.92 L 403.83 382.40 L 408.02 386.79 L 412.21 384.32 L 416.40 390.89 L 420.59 399.08 L 424.78 413.83 L 428.97 415.38 L 433.16 417.55 L 437.35 416.77 L 441.54 406.23 L 445.73 391.71 L 449.92 389.83 L 454.11 386.21 L 458.29 400.00 L 462.48 398.07 L 466.67 395.67 L 470.86 395.10 L 475.05 391.90 L 479.24 401.71 L 483.43 399.67 L 487.62 396.29 L 491.81 401.56 L 496.00 399.04 L 500.19 396.57 L 504.38 408.60 L 508.57 391.56 L 512.76 392.80 L 516.95 390.52 L 521.14 386.83 L 525.33 380.84 L 529.52 373.72 L 533.71 371.15 L 537.89 358.61 L 542.08 325.84 L 546.27 329.48 L 550.46 319.98 L 554.65 310.01 L 558.84 295.77 L 563.03 305.97 L 567.22 304.98 L 571.41 372.71 L 575.60 372.11 L 579.79 373.01 L 583.98 374.39 L 588.17 377.31 L 592.36 375.03 L 596.55 369.38 L 600.74 360.01 L 604.93 362.51 L 609.12 360.41 L 613.31 352.74 L 617.49 348.99 L 621.68 354.10 L 625.87 353.11 L 630.06 351.65 L 634.25 359.12 L 638.44 361.58 L 642.63 358.53 L 646.82 352.00 L 651.01 353.40 L 655.20 359.01 L 659.39 360.37 L 663.58 354.54 L 667.77 354.80 L 671.96 351.97 L 676.15 341.49 L 680.34 325.14 L 684.53 327.87 L 688.72 337.76 L 692.91 348.93 L 697.09 358.64 L 701.28 360.57 L 705.47 369.21 L 709.66 373.90 L 713.85 374.99 L 718.04 371.73 L 722.23 380.44 L 726.42 376.89 L 730.61 376.75 L 734.80 378.37 L 738.99 378.90 L 743.18 375.63 L 747.37 369.65 L 751.56 364.83 L 755.75 365.40 L 759.94 365.64 L 764.13 370.05 L 768.32 368.70 L 772.51 363.55 L 776.69 362.56 L 780.88 354.56 L 785.07 359.43 L 789.26 370.03 L 793.45 378.88 L 797.64 376.35 L 801.83 374.99 L 806.02 368.67 L 810.21 371.98 L 814.40 375.59 L 818.59 374.68 L 822.78 365.45 L 826.97 362.89 L 831.16 366.40 L 835.35 373.31 L 839.54 374.64 L 843.73 368.63 L 847.92 362.37 L 852.11 356.04 L 856.29 348.99 L 860.48 361.37 L 864.67 375.63 L 868.86 380.36 L 873.05 398.02 L 877.24 395.47 L 881.43 410.52 L 885.62 411.29 L 889.81 412.40 L 894.00 420.50 L 898.19 420.86 L 902.38 417.32 L 906.57 408.79 L 910.76 393.88 L 914.95 390.07 L 919.14 392.66 L 923.33 402.66 L 927.52 399.97 L 931.71 400.68 L 935.89 399.08 L 940.08 395.98 L 944.27 398.39 L 948.46 400.27 L 952.65 405.85 L 956.84 403.39 L 961.03 402.72 L 965.22 396.59 L 969.41 405.00 L 973.60 411.29 L 977.79 403.18 L 981.98 403.64 L 986.17 403.02 L 990.36 404.41 L 994.55 409.57 L 998.74 418.82 L 1002.93 414.65 L 1007.12 419.40 L 1011.31 416.41 L 1015.49 413.03 L 1019.68 410.98 L 1023.87 408.33 L 1028.06 410.28 L 1032.25 412.01 L 1036.44 407.26 L 1040.63 405.58 L 1044.82 407.56 L 1049.01 415.32 L 1053.20 417.21 L 1057.39 422.04 L 1061.58 423.37 L 1065.77 429.42 L 1069.96 439.18 L 1074.15 435.27 L 1078.34 433.95 L 1082.53 434.23 L 1086.72 424.58 L 1090.91 421.11 L 1095.09 416.15 L 1099.28 416.15 L 1103.47 420.08 L 1107.66 424.44 L 1111.85 421.80 L 1116.04 422.88 L 1120.23 425.56 L 1124.42 424.70 L 1128.61 435.89 L 1132.80 429.82 L 1136.99 413.57 L 1141.18 414.42 L 1145.37 399.58 L 1149.56 396.96 L 1153.75 407.88 L 1157.94 407.62 L 1162.13 407.83 L 1166.32 406.22 L 1170.51 402.15 L 1174.69 403.11 L 1178.88 399.28 L 1183.07 396.06 L 1187.26 391.44 L 1191.45 380.87 L 1195.64 364.12 L 1199.83 361.76 L 1204.02 390.68 L 1208.21 384.01 L 1212.40 375.52 L 1216.59 376.51 L 1220.78 370.73 L 1224.97 373.40 L 1229.16 368.97 L 1233.35 362.73 L 1237.54 371.61 L 1241.73 379.73 L 1245.92 345.31 L 1250.11 353.11 L 1254.29 350.64 L 1258.48 345.80 L 1262.67 301.65 L 1266.86 282.22 L 1271.05 276.39 L 1275.24 258.31 L 1279.43 220.31 L 1283.62 164.80 L 1287.81 207.62 L 1292.00 188.63" fill="none" stroke="#b45309" stroke-width="2" stroke-dasharray="6 4" />
  </g>
  <g>
    <text x="54" y="538" fill="#1f2937" font-size="16" font-weight="700">B. 绝对误差（越低越好）</text>
    <line x1="98" y1="540" x2="124" y2="540" stroke="#1d4ed8" stroke-width="2"  />
      <text x="130" y="544" fill="#24312e" font-size="12">持仓分段误差</text>
<line x1="313" y1="540" x2="339" y2="540" stroke="#b45309" stroke-width="2" stroke-dasharray="6 4" />
      <text x="345" y="544" fill="#24312e" font-size="12">持仓双目标误差</text>
    <line x1="98" y1="560.00" x2="1292" y2="560.00" stroke="#d7e3df" stroke-width="1" />
      <text x="90" y="564.00" text-anchor="end" fill="#5b6b68" font-size="11">12.42%</text>
<line x1="98" y1="630.00" x2="1292" y2="630.00" stroke="#d7e3df" stroke-width="1" />
      <text x="90" y="634.00" text-anchor="end" fill="#5b6b68" font-size="11">9.31%</text>
<line x1="98" y1="700.00" x2="1292" y2="700.00" stroke="#d7e3df" stroke-width="1" />
      <text x="90" y="704.00" text-anchor="end" fill="#5b6b68" font-size="11">6.21%</text>
<line x1="98" y1="770.00" x2="1292" y2="770.00" stroke="#d7e3df" stroke-width="1" />
      <text x="90" y="774.00" text-anchor="end" fill="#5b6b68" font-size="11">3.10%</text>
<line x1="98" y1="840.00" x2="1292" y2="840.00" stroke="#d7e3df" stroke-width="1" />
      <text x="90" y="844.00" text-anchor="end" fill="#5b6b68" font-size="11">0.00%</text>
    <line x1="98.00" y1="560" x2="98.00" y2="840" stroke="#eef3f1" stroke-width="1" />
      <text x="98.00" y="868" text-anchor="middle" fill="#5b6b68" font-size="11">25-01-02</text>
<line x1="290.72" y1="560" x2="290.72" y2="840" stroke="#eef3f1" stroke-width="1" />
      <text x="290.72" y="868" text-anchor="middle" fill="#5b6b68" font-size="11">25-03-17</text>
<line x1="479.24" y1="560" x2="479.24" y2="840" stroke="#eef3f1" stroke-width="1" />
      <text x="479.24" y="868" text-anchor="middle" fill="#5b6b68" font-size="11">25-05-23</text>
<line x1="697.09" y1="560" x2="697.09" y2="840" stroke="#eef3f1" stroke-width="1" />
      <text x="697.09" y="868" text-anchor="middle" fill="#5b6b68" font-size="11">25-08-06</text>
<line x1="910.76" y1="560" x2="910.76" y2="840" stroke="#eef3f1" stroke-width="1" />
      <text x="910.76" y="868" text-anchor="middle" fill="#5b6b68" font-size="11">25-10-24</text>
<line x1="1099.28" y1="560" x2="1099.28" y2="840" stroke="#eef3f1" stroke-width="1" />
      <text x="1099.28" y="868" text-anchor="middle" fill="#5b6b68" font-size="11">25-12-26</text>
<line x1="1292.00" y1="560" x2="1292.00" y2="840" stroke="#eef3f1" stroke-width="1" />
      <text x="1292.00" y="868" text-anchor="middle" fill="#5b6b68" font-size="11">26-03-12</text>
    <line x1="1116.04" y1="560" x2="1116.04" y2="840" stroke="#f59e0b" stroke-width="1.4" stroke-dasharray="4 4" />
       <text x="1122.04" y="552" fill="#a16207" font-size="11">验证起点</text>
    <path d="M 98.00 830.81 L 102.19 824.98 L 106.38 805.13 L 110.57 829.10 L 114.76 817.51 L 118.95 821.88 L 123.14 803.81 L 127.33 834.41 L 131.52 819.95 L 135.71 831.80 L 139.89 813.45 L 144.08 839.31 L 148.27 808.42 L 152.46 827.65 L 156.65 827.99 L 160.84 834.28 L 165.03 825.06 L 169.22 837.48 L 173.41 827.79 L 177.60 827.96 L 181.79 837.46 L 185.98 833.27 L 190.17 832.67 L 194.36 803.38 L 198.55 787.63 L 202.74 826.21 L 206.93 832.31 L 211.12 820.02 L 215.31 831.88 L 219.49 838.09 L 223.68 814.82 L 227.87 824.04 L 232.06 814.19 L 236.25 815.66 L 240.44 820.83 L 244.63 832.01 L 248.82 834.95 L 253.01 785.91 L 257.20 839.32 L 261.39 831.68 L 265.58 833.99 L 269.77 829.35 L 273.96 828.86 L 278.15 836.14 L 282.34 813.90 L 286.53 836.51 L 290.72 834.73 L 294.91 825.78 L 299.09 812.61 L 303.28 827.16 L 307.47 813.60 L 311.66 823.80 L 315.85 833.80 L 320.04 828.91 L 324.23 836.68 L 328.42 839.77 L 332.61 839.78 L 336.80 798.14 L 340.99 823.30 L 345.18 816.47 L 349.37 827.68 L 353.56 809.13 L 357.75 628.79 L 361.94 714.20 L 366.13 820.03 L 370.32 804.18 L 374.51 827.79 L 378.69 819.84 L 382.88 776.36 L 387.07 836.11 L 391.26 821.88 L 395.45 832.53 L 399.64 817.87 L 403.83 817.37 L 408.02 834.11 L 412.21 816.67 L 416.40 822.07 L 420.59 793.44 L 424.78 807.11 L 428.97 839.82 L 433.16 821.45 L 437.35 804.73 L 441.54 821.26 L 445.73 830.89 L 449.92 818.69 L 454.11 792.76 L 458.29 836.90 L 462.48 837.22 L 466.67 837.86 L 470.86 816.76 L 475.05 804.83 L 479.24 835.43 L 483.43 832.68 L 487.62 824.75 L 491.81 832.84 L 496.00 822.64 L 500.19 792.19 L 504.38 800.76 L 508.57 835.85 L 512.76 835.09 L 516.95 839.14 L 521.14 839.02 L 525.33 811.24 L 529.52 807.74 L 533.71 796.92 L 537.89 818.13 L 542.08 739.89 L 546.27 817.64 L 550.46 813.46 L 554.65 795.84 L 558.84 811.79 L 563.03 666.66 L 567.22 632.35 L 571.41 833.43 L 575.60 839.49 L 579.79 835.70 L 583.98 817.92 L 588.17 837.19 L 592.36 833.88 L 596.55 805.77 L 600.74 830.29 L 604.93 833.14 L 609.12 815.60 L 613.31 826.13 L 617.49 833.43 L 621.68 824.76 L 625.87 839.74 L 630.06 815.60 L 634.25 832.12 L 638.44 839.31 L 642.63 812.25 L 646.82 809.79 L 651.01 821.77 L 655.20 837.46 L 659.39 826.77 L 663.58 830.51 L 667.77 816.02 L 671.96 832.50 L 676.15 796.13 L 680.34 838.70 L 684.53 822.01 L 688.72 829.92 L 692.91 813.01 L 697.09 834.40 L 701.28 812.60 L 705.47 822.28 L 709.66 836.42 L 713.85 818.38 L 718.04 812.54 L 722.23 836.96 L 726.42 829.23 L 730.61 829.62 L 734.80 834.41 L 738.99 839.79 L 743.18 823.77 L 747.37 828.18 L 751.56 820.65 L 755.75 827.13 L 759.94 815.73 L 764.13 837.23 L 768.32 825.41 L 772.51 833.89 L 776.69 806.53 L 780.88 838.26 L 785.07 806.19 L 789.26 823.63 L 793.45 808.03 L 797.64 839.06 L 801.83 832.49 L 806.02 836.98 L 810.21 820.68 L 814.40 834.88 L 818.59 816.64 L 822.78 824.22 L 826.97 828.74 L 831.16 823.52 L 835.35 830.56 L 839.54 836.68 L 843.73 832.89 L 847.92 823.72 L 852.11 815.90 L 856.29 787.70 L 860.48 794.54 L 864.67 812.51 L 868.86 807.57 L 873.05 788.00 L 877.24 801.21 L 881.43 836.63 L 885.62 825.42 L 889.81 806.27 L 894.00 825.23 L 898.19 829.62 L 902.38 835.45 L 906.57 811.07 L 910.76 825.28 L 914.95 813.81 L 919.14 816.05 L 923.33 835.07 L 927.52 837.08 L 931.71 836.56 L 935.89 838.41 L 940.08 837.94 L 944.27 839.94 L 948.46 819.44 L 952.65 833.76 L 956.84 827.89 L 961.03 826.44 L 965.22 831.39 L 969.41 814.65 L 973.60 824.26 L 977.79 811.03 L 981.98 831.45 L 986.17 830.85 L 990.36 825.27 L 994.55 810.70 L 998.74 802.57 L 1002.93 837.21 L 1007.12 839.14 L 1011.31 826.04 L 1015.49 824.94 L 1019.68 836.78 L 1023.87 839.97 L 1028.06 828.95 L 1032.25 827.48 L 1036.44 837.69 L 1040.63 830.34 L 1044.82 812.89 L 1049.01 825.53 L 1053.20 835.02 L 1057.39 839.34 L 1061.58 822.06 L 1065.77 814.93 L 1069.96 838.97 L 1074.15 825.97 L 1078.34 830.98 L 1082.53 809.80 L 1086.72 827.67 L 1090.91 823.78 L 1095.09 838.66 L 1099.28 828.67 L 1103.47 819.43 L 1107.66 828.42 L 1111.85 838.51 L 1116.04 826.90 L 1120.23 825.02 L 1124.42 793.40 L 1128.61 824.67 L 1132.80 775.76 L 1136.99 784.66 L 1141.18 807.15 L 1145.37 821.82 L 1149.56 807.10 L 1153.75 824.86 L 1157.94 833.09 L 1162.13 829.49 L 1166.32 837.73 L 1170.51 834.03 L 1174.69 839.84 L 1178.88 834.67 L 1183.07 838.16 L 1187.26 808.98 L 1191.45 801.66 L 1195.64 837.91 L 1199.83 794.11 L 1204.02 839.28 L 1208.21 815.10 L 1212.40 836.20 L 1216.59 826.99 L 1220.78 817.66 L 1224.97 827.75 L 1229.16 830.55 L 1233.35 832.08 L 1237.54 802.80 L 1241.73 776.78 L 1245.92 820.05 L 1250.11 831.25 L 1254.29 830.24 L 1258.48 839.80 L 1262.67 810.80 L 1266.86 834.61 L 1271.05 832.24 L 1275.24 780.25 L 1279.43 745.65 L 1283.62 708.50 L 1287.81 794.43 L 1292.00 831.93" fill="none" stroke="#1d4ed8" stroke-width="2"  />
<path d="M 98.00 816.52 L 102.19 835.51 L 106.38 802.54 L 110.57 838.38 L 114.76 823.07 L 118.95 819.33 L 123.14 808.07 L 127.33 803.38 L 131.52 822.17 L 135.71 824.95 L 139.89 817.99 L 144.08 838.88 L 148.27 808.08 L 152.46 824.87 L 156.65 826.06 L 160.84 829.72 L 165.03 826.83 L 169.22 821.35 L 173.41 806.26 L 177.60 825.80 L 181.79 836.27 L 185.98 817.60 L 190.17 819.86 L 194.36 820.34 L 198.55 790.69 L 202.74 834.63 L 206.93 832.23 L 211.12 821.58 L 215.31 821.02 L 219.49 838.01 L 223.68 839.40 L 227.87 826.88 L 232.06 800.63 L 236.25 814.17 L 240.44 834.66 L 244.63 831.35 L 248.82 839.38 L 253.01 783.24 L 257.20 812.03 L 261.39 827.39 L 265.58 820.08 L 269.77 839.15 L 273.96 834.36 L 278.15 823.74 L 282.34 826.69 L 286.53 834.89 L 290.72 829.15 L 294.91 829.12 L 299.09 817.86 L 303.28 815.12 L 307.47 810.73 L 311.66 829.87 L 315.85 830.65 L 320.04 817.70 L 324.23 838.78 L 328.42 836.80 L 332.61 824.20 L 336.80 795.61 L 340.99 834.47 L 345.18 758.33 L 349.37 597.86 L 353.56 821.65 L 357.75 717.83 L 361.94 728.84 L 366.13 828.16 L 370.32 811.74 L 374.51 827.76 L 378.69 829.63 L 382.88 765.43 L 387.07 837.46 L 391.26 825.35 L 395.45 834.78 L 399.64 824.79 L 403.83 825.10 L 408.02 827.56 L 412.21 818.22 L 416.40 812.02 L 420.59 782.41 L 424.78 836.76 L 428.97 831.94 L 433.16 835.40 L 437.35 797.06 L 441.54 783.36 L 445.73 830.04 L 449.92 823.24 L 454.11 788.03 L 458.29 830.57 L 462.48 828.65 L 466.67 834.92 L 470.86 825.17 L 475.05 803.22 L 479.24 836.38 L 483.43 831.23 L 487.62 821.22 L 491.81 827.52 L 496.00 828.08 L 500.19 792.48 L 504.38 771.92 L 508.57 837.03 L 512.76 830.04 L 516.95 824.17 L 521.14 814.98 L 525.33 813.39 L 529.52 828.38 L 533.71 795.45 L 537.89 723.74 L 542.08 827.25 L 546.27 805.28 L 550.46 810.63 L 554.65 797.19 L 558.84 811.81 L 563.03 832.33 L 567.22 590.00 L 571.41 835.81 L 575.60 839.09 L 579.79 837.02 L 583.98 830.71 L 588.17 830.42 L 592.36 816.67 L 596.55 810.12 L 600.74 826.48 L 604.93 830.51 L 609.12 810.14 L 613.31 823.51 L 617.49 822.49 L 621.68 833.24 L 625.87 832.35 L 630.06 815.05 L 634.25 832.56 L 638.44 826.55 L 642.63 814.16 L 646.82 837.31 L 651.01 821.78 L 655.20 836.71 L 659.39 816.01 L 663.58 839.74 L 667.77 829.25 L 671.96 801.41 L 676.15 780.59 L 680.34 834.04 L 684.53 808.15 L 688.72 802.88 L 692.91 807.62 L 697.09 835.37 L 701.28 810.21 L 705.47 824.40 L 709.66 838.59 L 713.85 825.40 L 718.04 808.47 L 722.23 823.92 L 726.42 837.61 L 730.61 836.63 L 734.80 839.39 L 738.99 826.02 L 743.18 815.97 L 747.37 820.78 L 751.56 838.88 L 755.75 839.06 L 759.94 825.48 L 764.13 832.63 L 768.32 825.41 L 772.51 839.27 L 776.69 807.75 L 780.88 824.86 L 785.07 803.86 L 789.26 808.63 L 793.45 828.60 L 797.64 833.61 L 801.83 813.41 L 806.02 829.55 L 810.21 828.11 L 814.40 835.27 L 818.59 803.42 L 822.78 828.27 L 826.97 829.98 L 831.16 816.46 L 835.35 836.21 L 839.54 816.40 L 843.73 815.30 L 847.92 814.92 L 852.11 811.12 L 856.29 797.48 L 860.48 789.60 L 864.67 826.36 L 868.86 772.92 L 873.05 827.03 L 877.24 782.45 L 881.43 839.91 L 885.62 837.63 L 889.81 809.58 L 894.00 839.56 L 898.19 825.22 L 902.38 805.73 L 906.57 780.32 L 910.76 823.13 L 914.95 833.29 L 919.14 802.69 L 923.33 827.26 L 927.52 838.83 L 931.71 831.72 L 935.89 825.33 L 940.08 833.42 L 944.27 834.89 L 948.46 820.00 L 952.65 828.49 L 956.84 835.90 L 961.03 812.24 L 965.22 809.02 L 969.41 816.10 L 973.60 805.96 L 977.79 839.61 L 981.98 834.30 L 986.17 837.14 L 990.36 822.30 L 994.55 804.11 L 998.74 820.37 L 1002.93 822.48 L 1007.12 832.31 L 1011.31 830.85 L 1015.49 829.69 L 1019.68 826.77 L 1023.87 834.13 L 1028.06 834.86 L 1032.25 819.43 L 1036.44 830.23 L 1040.63 834.75 L 1044.82 810.61 L 1049.01 835.46 L 1053.20 822.91 L 1057.39 837.41 L 1061.58 818.56 L 1065.77 800.05 L 1069.96 821.04 L 1074.15 832.97 L 1078.34 839.85 L 1082.53 798.90 L 1086.72 823.71 L 1090.91 824.39 L 1095.09 835.64 L 1099.28 825.57 L 1103.47 824.35 L 1107.66 826.79 L 1111.85 837.08 L 1116.04 832.35 L 1120.23 833.97 L 1124.42 793.61 L 1128.61 813.00 L 1132.80 773.60 L 1136.99 837.60 L 1141.18 779.45 L 1145.37 826.80 L 1149.56 798.64 L 1153.75 836.65 L 1157.94 834.82 L 1162.13 832.47 L 1166.32 820.99 L 1170.51 837.03 L 1174.69 822.67 L 1178.88 826.73 L 1183.07 820.69 L 1187.26 799.48 L 1191.45 776.56 L 1195.64 826.70 L 1199.83 729.83 L 1204.02 812.81 L 1208.21 805.35 L 1212.40 838.25 L 1216.59 817.09 L 1220.78 832.21 L 1224.97 821.96 L 1229.16 813.48 L 1233.35 809.25 L 1237.54 808.62 L 1241.73 714.78 L 1245.92 813.92 L 1250.11 830.30 L 1254.29 823.83 L 1258.48 692.31 L 1262.67 775.49 L 1266.86 821.24 L 1271.05 786.57 L 1275.24 723.21 L 1279.43 684.71 L 1283.62 716.03 L 1287.81 788.15 L 1292.00 699.57" fill="none" stroke="#b45309" stroke-width="2" stroke-dasharray="6 4" />
  </g>
</svg>