<?xml version="1.0" encoding="UTF-8"?>
<svg xmlns="http://www.w3.org/2000/svg" width="1360" height="980" viewBox="0 0 1360 980">
  <defs>
    <linearGradient id="bg" x1="0" y1="0" x2="1" y2="1">
      <stop offset="0%" stop-color="#f4efe6" />
      <stop offset="100%" stop-color="#eef5f2" />
    </linearGradient>
  </defs>
  <rect x="0" y="0" width="1360" height="980" fill="url(#bg)" />
  <text x="46" y="36" fill="#1f2937" font-size="31" font-weight="700">161125 离线研究图（持仓逐日估值版）</text>
  <text x="46" y="66" fill="#5b6b68" font-size="13">历史前十大持仓 + 持仓逐日涨跌幅 + USDCNY；双目标 lambda=0.10；披露期数 29；覆盖率均值 92.1%</text>
  <g>
    <text x="54" y="110" fill="#1f2937" font-size="16" font-weight="700">A. 净值拟合（同日对齐，无平移）</text>
    <line x1="98" y1="112" x2="124" y2="112" stroke="#0f766e" stroke-width="2"  />
      <text x="130" y="116" fill="#24312e" font-size="12">真实净值</text>
<line x1="313" y1="112" x2="339" y2="112" stroke="#1d4ed8" stroke-width="2"  />
      <text x="345" y="116" fill="#24312e" font-size="12">持仓分段估值</text>
<line x1="528" y1="112" x2="554" y2="112" stroke="#b45309" stroke-width="2" stroke-dasharray="6 4" />
      <text x="560" y="116" fill="#24312e" font-size="12">持仓双目标估值</text>
    <line x1="98" y1="132.00" x2="1292" y2="132.00" stroke="#d7e3df" stroke-width="1" />
      <text x="90" y="136.00" text-anchor="end" fill="#5b6b68" font-size="11">2.989</text>
<line x1="98" y1="209.50" x2="1292" y2="209.50" stroke="#d7e3df" stroke-width="1" />
      <text x="90" y="213.50" text-anchor="end" fill="#5b6b68" font-size="11">2.792</text>
<line x1="98" y1="287.00" x2="1292" y2="287.00" stroke="#d7e3df" stroke-width="1" />
      <text x="90" y="291.00" text-anchor="end" fill="#5b6b68" font-size="11">2.594</text>
<line x1="98" y1="364.50" x2="1292" y2="364.50" stroke="#d7e3df" stroke-width="1" />
      <text x="90" y="368.50" text-anchor="end" fill="#5b6b68" font-size="11">2.397</text>
<line x1="98" y1="442.00" x2="1292" y2="442.00" stroke="#d7e3df" stroke-width="1" />
      <text x="90" y="446.00" text-anchor="end" fill="#5b6b68" font-size="11">2.199</text>
    <line x1="98.00" y1="132" x2="98.00" y2="442" stroke="#eef3f1" stroke-width="1" />
      <text x="98.00" y="470" text-anchor="middle" fill="#5b6b68" font-size="11">25-01-02</text>
<line x1="290.72" y1="132" x2="290.72" y2="442" stroke="#eef3f1" stroke-width="1" />
      <text x="290.72" y="470" text-anchor="middle" fill="#5b6b68" font-size="11">25-03-17</text>
<line x1="479.24" y1="132" x2="479.24" y2="442" stroke="#eef3f1" stroke-width="1" />
      <text x="479.24" y="470" text-anchor="middle" fill="#5b6b68" font-size="11">25-05-23</text>
<line x1="697.09" y1="132" x2="697.09" y2="442" stroke="#eef3f1" stroke-width="1" />
      <text x="697.09" y="470" text-anchor="middle" fill="#5b6b68" font-size="11">25-08-06</text>
<line x1="910.76" y1="132" x2="910.76" y2="442" stroke="#eef3f1" stroke-width="1" />
      <text x="910.76" y="470" text-anchor="middle" fill="#5b6b68" font-size="11">25-10-24</text>
<line x1="1099.28" y1="132" x2="1099.28" y2="442" stroke="#eef3f1" stroke-width="1" />
      <text x="1099.28" y="470" text-anchor="middle" fill="#5b6b68" font-size="11">25-12-26</text>
<line x1="1292.00" y1="132" x2="1292.00" y2="442" stroke="#eef3f1" stroke-width="1" />
      <text x="1292.00" y="470" text-anchor="middle" fill="#5b6b68" font-size="11">26-03-12</text>
    <line x1="1116.04" y1="132" x2="1116.04" y2="442" stroke="#f59e0b" stroke-width="1.4" stroke-dasharray="4 4" />
       <text x="1122.04" y="124" fill="#a16207" font-size="11">验证起点</text>
    <path d="M 98.00 293.95 L 102.19 281.86 L 106.38 276.53 L 110.57 287.39 L 114.76 285.82 L 118.95 285.86 L 123.14 300.62 L 127.33 299.28 L 131.52 298.34 L 135.71 280.65 L 139.89 282.80 L 144.08 272.99 L 148.27 273.15 L 152.46 267.07 L 156.65 261.07 L 160.84 255.69 L 165.03 258.52 L 169.22 273.23 L 173.41 265.34 L 177.60 261.77 L 181.79 271.11 L 185.98 264.40 L 190.17 263.93 L 194.36 266.64 L 198.55 256.40 L 202.74 256.48 L 206.93 256.63 L 211.12 254.24 L 215.31 251.77 L 219.49 255.93 L 223.68 273.19 L 227.87 277.86 L 232.06 282.33 L 236.25 282.18 L 240.44 297.52 L 244.63 282.37 L 248.82 299.56 L 253.01 311.25 L 257.20 301.13 L 261.39 318.31 L 265.58 312.94 L 269.77 337.73 L 273.96 344.48 L 278.15 340.87 L 282.34 353.23 L 286.53 333.57 L 290.72 328.32 L 294.91 337.73 L 299.09 328.28 L 303.28 329.53 L 307.47 328.67 L 311.66 312.19 L 315.85 310.58 L 320.04 321.72 L 324.23 324.71 L 328.42 343.26 L 332.61 337.85 L 336.80 334.44 L 340.99 328.08 L 345.18 371.63 L 349.37 425.15 L 353.56 437.66 L 357.75 359.04 L 361.94 389.80 L 366.13 374.14 L 370.32 366.88 L 374.51 368.53 L 378.69 387.99 L 382.88 387.44 L 387.07 387.68 L 391.26 408.24 L 395.45 386.85 L 399.64 371.83 L 403.83 354.13 L 408.02 347.85 L 412.21 347.66 L 416.40 342.60 L 420.59 341.42 L 424.78 335.34 L 428.97 331.42 L 433.16 325.22 L 437.35 325.49 L 441.54 295.48 L 445.73 289.51 L 449.92 288.92 L 454.11 284.65 L 458.29 278.13 L 462.48 277.51 L 466.67 281.12 L 470.86 296.77 L 475.05 297.67 L 479.24 303.83 L 483.43 305.09 L 487.62 284.96 L 491.81 290.14 L 496.00 286.14 L 500.19 286.96 L 504.38 277.04 L 508.57 276.72 L 512.76 282.14 L 516.95 272.33 L 521.14 271.31 L 525.33 266.13 L 529.52 269.19 L 533.71 265.62 L 537.89 277.11 L 542.08 267.62 L 546.27 276.45 L 550.46 276.57 L 554.65 277.04 L 558.84 279.63 L 563.03 270.09 L 567.22 259.93 L 571.41 259.81 L 575.60 252.59 L 579.79 247.22 L 583.98 242.63 L 588.17 244.51 L 592.36 239.57 L 596.55 231.37 L 600.74 231.21 L 604.93 239.72 L 609.12 240.04 L 613.31 233.84 L 617.49 231.41 L 621.68 235.33 L 625.87 233.72 L 630.06 237.57 L 634.25 233.96 L 638.44 229.52 L 642.63 229.01 L 646.82 227.29 L 651.01 227.56 L 655.20 220.26 L 659.39 219.99 L 663.58 215.40 L 667.77 214.61 L 671.96 217.05 L 676.15 219.36 L 680.34 222.34 L 684.53 238.74 L 688.72 225.36 L 692.91 230.78 L 697.09 222.77 L 701.28 224.58 L 705.47 215.99 L 709.66 218.26 L 713.85 206.49 L 718.04 204.18 L 722.23 204.06 L 726.42 206.45 L 730.61 207.32 L 734.80 212.97 L 738.99 215.16 L 743.18 220.62 L 747.37 204.61 L 751.56 211.47 L 755.75 206.77 L 759.94 205.55 L 764.13 202.92 L 768.32 210.10 L 772.51 209.59 L 776.69 216.34 L 780.88 210.81 L 785.07 202.92 L 789.26 206.02 L 793.45 204.41 L 797.64 201.90 L 801.83 198.02 L 806.02 189.62 L 810.21 190.33 L 814.40 184.72 L 818.59 186.60 L 822.78 187.85 L 826.97 181.81 L 831.16 176.05 L 835.35 171.65 L 839.54 178.28 L 843.73 181.15 L 847.92 185.81 L 852.11 179.18 L 856.29 177.34 L 860.48 173.42 L 864.67 165.37 L 868.86 195.27 L 873.05 179.62 L 877.24 181.11 L 881.43 177.10 L 885.62 184.25 L 889.81 178.99 L 894.00 167.34 L 898.19 167.96 L 902.38 173.57 L 906.57 167.88 L 910.76 159.21 L 914.95 146.78 L 919.14 144.58 L 923.33 144.85 L 927.52 155.41 L 931.71 152.31 L 935.89 150.70 L 940.08 163.18 L 944.27 159.10 L 948.46 171.57 L 952.65 170.63 L 956.84 154.07 L 961.03 151.76 L 965.22 151.52 L 969.41 168.94 L 973.60 169.69 L 977.79 179.65 L 981.98 187.85 L 986.17 183.70 L 990.36 199.74 L 994.55 189.97 L 998.74 174.04 L 1002.93 164.67 L 1007.12 157.64 L 1011.31 157.92 L 1015.49 152.07 L 1019.68 158.19 L 1023.87 155.05 L 1028.06 152.39 L 1032.25 151.52 L 1036.44 149.13 L 1040.63 152.66 L 1044.82 153.52 L 1049.01 146.54 L 1053.20 145.25 L 1057.39 157.68 L 1061.58 159.06 L 1065.77 162.47 L 1069.96 175.46 L 1074.15 166.86 L 1078.34 157.88 L 1082.53 150.66 L 1086.72 146.42 L 1090.91 143.68 L 1095.09 144.85 L 1099.28 145.64 L 1103.47 149.88 L 1107.66 151.17 L 1111.85 160.00 L 1116.04 151.95 L 1120.23 146.03 L 1124.42 149.60 L 1128.61 149.44 L 1132.80 143.44 L 1136.99 141.99 L 1141.18 144.23 L 1145.37 149.80 L 1149.56 147.87 L 1153.75 148.35 L 1157.94 148.82 L 1162.13 171.77 L 1166.32 159.37 L 1170.51 153.45 L 1174.69 154.31 L 1178.88 150.23 L 1183.07 145.64 L 1187.26 147.21 L 1191.45 148.46 L 1195.64 154.35 L 1199.83 148.38 L 1204.02 158.74 L 1208.21 165.33 L 1212.40 177.81 L 1216.59 156.94 L 1220.78 152.90 L 1224.97 157.37 L 1229.16 157.72 L 1233.35 174.04 L 1237.54 174.36 L 1241.73 165.84 L 1245.92 158.51 L 1250.11 165.53 L 1254.29 170.08 L 1258.48 169.34 L 1262.67 181.42 L 1266.86 172.79 L 1271.05 180.40 L 1275.24 194.05 L 1279.43 183.54 L 1283.62 188.01 L 1287.81 189.78 L 1292.00 205.16" fill="none" stroke="#0f766e" stroke-width="2"  />
<path d="M 98.00 290.58 L 102.19 280.15 L 106.38 272.48 L 110.57 297.09 L 114.76 286.72 L 118.95 286.10 L 123.14 286.47 L 127.33 301.30 L 131.52 302.62 L 135.71 281.15 L 139.89 285.25 L 144.08 272.73 L 148.27 273.86 L 152.46 274.54 L 156.65 258.83 L 160.84 259.13 L 165.03 256.25 L 169.22 297.03 L 173.41 244.77 L 177.60 261.26 L 181.79 270.42 L 185.98 264.11 L 190.17 263.43 L 194.36 263.96 L 198.55 262.23 L 202.74 255.62 L 206.93 256.94 L 211.12 256.63 L 215.31 252.85 L 219.49 254.34 L 223.68 273.78 L 227.87 278.63 L 232.06 283.40 L 236.25 277.52 L 240.44 302.46 L 244.63 287.57 L 248.82 303.29 L 253.01 299.80 L 257.20 299.75 L 261.39 320.65 L 265.58 312.33 L 269.77 334.52 L 273.96 336.89 L 278.15 334.70 L 282.34 351.09 L 286.53 342.26 L 290.72 333.99 L 294.91 338.82 L 299.09 330.21 L 303.28 329.09 L 307.47 326.67 L 311.66 320.21 L 315.85 310.30 L 320.04 320.22 L 324.23 324.07 L 328.42 335.01 L 332.61 342.12 L 336.80 334.53 L 340.99 332.81 L 345.18 357.57 L 349.37 391.24 L 353.56 430.93 L 357.75 376.34 L 361.94 383.22 L 366.13 379.56 L 370.32 375.18 L 374.51 368.21 L 378.69 384.80 L 382.88 390.51 L 387.07 388.09 L 391.26 388.96 L 395.45 397.22 L 399.64 375.35 L 403.83 359.18 L 408.02 345.71 L 412.21 349.22 L 416.40 346.85 L 420.59 342.67 L 424.78 329.10 L 428.97 334.12 L 433.16 326.29 L 437.35 325.00 L 441.54 292.65 L 445.73 285.24 L 449.92 285.33 L 454.11 292.12 L 458.29 283.82 L 462.48 278.39 L 466.67 278.29 L 470.86 283.21 L 475.05 294.51 L 479.24 305.09 L 483.43 305.72 L 487.62 305.39 L 491.81 284.70 L 496.00 285.88 L 500.19 286.55 L 504.38 282.36 L 508.57 272.23 L 512.76 277.81 L 516.95 277.34 L 521.14 271.85 L 525.33 267.84 L 529.52 267.27 L 533.71 266.82 L 537.89 270.94 L 542.08 272.34 L 546.27 270.20 L 550.46 276.08 L 554.65 277.29 L 558.84 278.00 L 563.03 277.39 L 567.22 259.60 L 571.41 255.46 L 575.60 254.29 L 579.79 248.17 L 583.98 245.10 L 588.17 245.86 L 592.36 240.67 L 596.55 235.64 L 600.74 231.87 L 604.93 230.92 L 609.12 240.48 L 613.31 233.24 L 617.49 233.52 L 621.68 230.70 L 625.87 234.51 L 630.06 230.70 L 634.25 237.46 L 638.44 231.69 L 642.63 228.80 L 646.82 226.41 L 651.01 229.64 L 655.20 225.31 L 659.39 216.74 L 663.58 218.73 L 667.77 213.87 L 671.96 215.35 L 676.15 215.27 L 680.34 210.71 L 684.53 237.15 L 688.72 234.55 L 692.91 227.33 L 697.09 221.61 L 701.28 221.68 L 705.47 220.40 L 709.66 216.77 L 713.85 211.77 L 718.04 207.55 L 722.23 201.98 L 726.42 204.56 L 730.61 207.20 L 734.80 215.82 L 738.99 215.69 L 743.18 216.10 L 747.37 211.59 L 751.56 204.46 L 755.75 209.60 L 759.94 205.33 L 764.13 202.42 L 768.32 207.01 L 772.51 211.83 L 776.69 209.99 L 780.88 207.54 L 785.07 206.77 L 789.26 201.12 L 793.45 204.58 L 797.64 203.33 L 801.83 199.27 L 806.02 197.70 L 810.21 187.55 L 814.40 185.54 L 818.59 184.75 L 822.78 190.05 L 826.97 185.57 L 831.16 178.11 L 835.35 175.38 L 839.54 175.56 L 843.73 178.75 L 847.92 182.00 L 852.11 184.49 L 856.29 178.91 L 860.48 175.70 L 864.67 166.25 L 868.86 200.44 L 873.05 169.30 L 877.24 186.90 L 881.43 177.03 L 885.62 176.99 L 889.81 181.48 L 894.00 174.44 L 898.19 168.39 L 902.38 169.89 L 906.57 169.51 L 910.76 155.13 L 914.95 150.26 L 919.14 139.92 L 923.33 137.84 L 927.52 159.94 L 931.71 153.44 L 935.89 150.16 L 940.08 160.05 L 944.27 161.13 L 948.46 168.69 L 952.65 172.73 L 956.84 151.81 L 961.03 154.58 L 965.22 153.59 L 969.41 161.14 L 973.60 167.96 L 977.79 170.10 L 981.98 186.21 L 986.17 184.46 L 990.36 190.40 L 994.55 197.77 L 998.74 153.42 L 1002.93 170.18 L 1007.12 161.45 L 1011.31 158.19 L 1015.49 158.79 L 1019.68 155.95 L 1023.87 155.80 L 1028.06 157.50 L 1032.25 149.79 L 1036.44 148.42 L 1040.63 150.80 L 1044.82 151.69 L 1049.01 152.37 L 1053.20 149.09 L 1057.39 165.31 L 1061.58 162.94 L 1065.77 157.06 L 1069.96 172.00 L 1074.15 166.84 L 1078.34 161.74 L 1082.53 157.71 L 1086.72 145.39 L 1090.91 145.38 L 1095.09 144.07 L 1099.28 145.27 L 1103.47 146.91 L 1107.66 149.17 L 1111.85 152.86 L 1116.04 160.66 L 1120.23 150.21 L 1124.42 144.06 L 1128.61 151.73 L 1132.80 145.32 L 1136.99 142.64 L 1141.18 142.35 L 1145.37 154.67 L 1149.56 148.10 L 1153.75 146.63 L 1157.94 149.01 L 1162.13 149.51 L 1166.32 169.53 L 1170.51 153.47 L 1174.69 150.05 L 1178.88 150.47 L 1183.07 144.96 L 1187.26 145.43 L 1191.45 146.65 L 1195.64 150.12 L 1199.83 152.86 L 1204.02 158.87 L 1208.21 166.44 L 1212.40 172.44 L 1216.59 173.25 L 1220.78 151.92 L 1224.97 156.06 L 1229.16 159.06 L 1233.35 169.96 L 1237.54 177.34 L 1241.73 165.99 L 1245.92 158.63 L 1250.11 165.69 L 1254.29 168.53 L 1258.48 167.38 L 1262.67 169.77 L 1266.86 176.25 L 1271.05 170.57 L 1275.24 188.87 L 1279.43 186.30 L 1283.62 184.24 L 1287.81 188.19 L 1292.00 203.75" fill="none" stroke="#1d4ed8" stroke-width="2"  />
<path d="M 98.00 291.07 L 102.19 293.17 L 106.38 280.98 L 110.57 276.33 L 114.76 286.85 L 118.95 286.03 L 123.14 286.06 L 127.33 300.16 L 131.52 298.84 L 135.71 297.37 L 139.89 280.27 L 144.08 281.96 L 148.27 273.20 L 152.46 273.35 L 156.65 266.23 L 160.84 260.44 L 165.03 255.11 L 169.22 258.70 L 173.41 272.17 L 177.60 264.64 L 181.79 261.48 L 185.98 270.31 L 190.17 263.81 L 194.36 263.39 L 198.55 265.89 L 202.74 255.78 L 206.93 256.68 L 211.12 256.84 L 215.31 253.65 L 219.49 251.26 L 223.68 255.73 L 227.87 272.89 L 232.06 277.52 L 236.25 281.60 L 240.44 282.17 L 244.63 296.69 L 248.82 282.37 L 253.01 299.02 L 257.20 310.43 L 261.39 301.04 L 265.58 317.54 L 269.77 313.03 L 273.96 337.16 L 278.15 343.70 L 282.34 340.67 L 286.53 352.32 L 290.72 333.11 L 294.91 328.11 L 299.09 336.96 L 303.28 327.81 L 307.47 328.88 L 311.66 327.82 L 315.85 311.56 L 320.04 310.47 L 324.23 321.34 L 328.42 324.64 L 332.61 342.77 L 336.80 337.14 L 340.99 333.81 L 345.18 328.64 L 349.37 371.71 L 353.56 424.89 L 357.75 435.30 L 361.94 359.26 L 366.13 388.92 L 370.32 373.66 L 374.51 366.45 L 378.69 368.53 L 382.88 387.61 L 387.07 387.62 L 391.26 387.86 L 395.45 407.36 L 399.64 385.89 L 403.83 370.84 L 408.02 353.34 L 412.21 347.38 L 416.40 347.10 L 420.59 342.10 L 424.78 340.47 L 428.97 334.78 L 433.16 330.72 L 437.35 324.70 L 441.54 324.10 L 445.73 294.58 L 449.92 288.79 L 454.11 288.48 L 458.29 284.08 L 462.48 277.54 L 466.67 277.04 L 470.86 280.69 L 475.05 296.14 L 479.24 297.33 L 483.43 304.03 L 487.62 305.29 L 491.81 284.42 L 496.00 289.48 L 500.19 285.62 L 504.38 286.13 L 508.57 276.33 L 512.76 276.21 L 516.95 281.42 L 521.14 271.73 L 525.33 270.64 L 529.52 265.62 L 533.71 268.54 L 537.89 265.27 L 542.08 276.30 L 546.27 267.17 L 550.46 275.88 L 554.65 276.77 L 558.84 277.24 L 563.03 278.95 L 567.22 269.26 L 571.41 259.20 L 575.60 259.02 L 579.79 251.84 L 583.98 246.57 L 588.17 242.23 L 592.36 243.77 L 596.55 238.79 L 600.74 231.58 L 604.93 231.42 L 609.12 239.20 L 613.31 239.22 L 617.49 233.25 L 621.68 230.80 L 625.87 234.73 L 630.06 233.02 L 634.25 236.99 L 638.44 233.26 L 642.63 228.91 L 646.82 228.26 L 651.01 226.85 L 655.20 226.84 L 659.39 219.51 L 663.58 219.36 L 667.77 214.71 L 671.96 214.07 L 676.15 216.40 L 680.34 218.55 L 684.53 222.23 L 688.72 237.81 L 692.91 224.89 L 697.09 229.87 L 701.28 222.11 L 705.47 223.77 L 709.66 215.45 L 713.85 217.42 L 718.04 205.94 L 722.23 203.47 L 726.42 203.51 L 730.61 205.90 L 734.80 207.01 L 738.99 212.54 L 743.18 214.64 L 747.37 219.70 L 751.56 203.99 L 755.75 210.81 L 759.94 206.12 L 764.13 204.78 L 768.32 202.54 L 772.51 210.32 L 776.69 209.81 L 780.88 215.41 L 785.07 209.98 L 789.26 202.23 L 793.45 205.30 L 797.64 203.74 L 801.83 201.17 L 806.02 197.41 L 810.21 188.92 L 814.40 189.47 L 818.59 184.11 L 822.78 186.16 L 826.97 187.14 L 831.16 181.05 L 835.35 175.38 L 839.54 171.24 L 843.73 177.73 L 847.92 180.59 L 852.11 185.18 L 856.29 178.55 L 860.48 176.68 L 864.67 172.52 L 868.86 165.42 L 873.05 194.17 L 877.24 179.22 L 881.43 180.35 L 885.62 176.51 L 889.81 183.56 L 894.00 178.14 L 898.19 166.75 L 902.38 167.43 L 906.57 172.83 L 910.76 166.98 L 914.95 158.21 L 919.14 145.89 L 923.33 143.71 L 927.52 144.67 L 931.71 154.70 L 935.89 151.60 L 940.08 150.38 L 944.27 162.47 L 948.46 158.76 L 952.65 171.02 L 956.84 169.57 L 961.03 153.48 L 965.22 151.24 L 969.41 151.27 L 973.60 168.28 L 977.79 169.15 L 981.98 179.31 L 986.17 187.06 L 990.36 183.37 L 994.55 199.03 L 998.74 188.73 L 1002.93 173.24 L 1007.12 163.91 L 1011.31 157.87 L 1015.49 158.14 L 1019.68 151.55 L 1023.87 157.49 L 1028.06 154.53 L 1032.25 151.68 L 1036.44 150.77 L 1040.63 148.47 L 1044.82 152.01 L 1049.01 152.86 L 1053.20 146.01 L 1057.39 145.09 L 1061.58 157.25 L 1065.77 158.37 L 1069.96 162.19 L 1074.15 174.56 L 1078.34 166.02 L 1082.53 157.18 L 1086.72 149.79 L 1090.91 145.75 L 1095.09 143.91 L 1099.28 145.08 L 1103.47 145.07 L 1107.66 149.22 L 1111.85 150.66 L 1116.04 159.39 L 1120.23 151.26 L 1124.42 145.35 L 1128.61 149.06 L 1132.80 148.64 L 1136.99 142.78 L 1141.18 141.40 L 1145.37 143.91 L 1149.56 149.10 L 1153.75 147.21 L 1157.94 148.57 L 1162.13 149.04 L 1166.32 171.04 L 1170.51 158.52 L 1174.69 152.67 L 1178.88 153.48 L 1183.07 149.36 L 1187.26 144.99 L 1191.45 146.55 L 1195.64 147.95 L 1199.83 153.67 L 1204.02 148.09 L 1208.21 158.38 L 1212.40 164.97 L 1216.59 176.96 L 1220.78 156.07 L 1224.97 152.40 L 1229.16 156.83 L 1233.35 157.50 L 1237.54 173.63 L 1241.73 173.37 L 1245.92 164.95 L 1250.11 158.15 L 1254.29 165.12 L 1258.48 169.39 L 1262.67 168.79 L 1266.86 180.60 L 1271.05 172.07 L 1275.24 180.06 L 1279.43 193.17 L 1283.62 182.89 L 1287.81 187.40 L 1292.00 189.45" fill="none" stroke="#b45309" stroke-width="2" stroke-dasharray="6 4" />
  </g>
  <g>
    <text x="54" y="538" fill="#1f2937" font-size="16" font-weight="700">B. 绝对误差（越低越好）</text>
    <line x1="98" y1="540" x2="124" y2="540" stroke="#1d4ed8" stroke-width="2"  />
      <text x="130" y="544" fill="#24312e" font-size="12">持仓分段误差</text>
<line x1="313" y1="540" x2="339" y2="540" stroke="#b45309" stroke-width="2" stroke-dasharray="6 4" />
      <text x="345" y="544" fill="#24312e" font-size="12">持仓双目标误差</text>
    <line x1="98" y1="560.00" x2="1292" y2="560.00" stroke="#d7e3df" stroke-width="1" />
      <text x="90" y="564.00" text-anchor="end" fill="#5b6b68" font-size="11">9.03%</text>
<line x1="98" y1="630.00" x2="1292" y2="630.00" stroke="#d7e3df" stroke-width="1" />
      <text x="90" y="634.00" text-anchor="end" fill="#5b6b68" font-size="11">6.77%</text>
<line x1="98" y1="700.00" x2="1292" y2="700.00" stroke="#d7e3df" stroke-width="1" />
      <text x="90" y="704.00" text-anchor="end" fill="#5b6b68" font-size="11">4.52%</text>
<line x1="98" y1="770.00" x2="1292" y2="770.00" stroke="#d7e3df" stroke-width="1" />
      <text x="90" y="774.00" text-anchor="end" fill="#5b6b68" font-size="11">2.26%</text>
<line x1="98" y1="840.00" x2="1292" y2="840.00" stroke="#d7e3df" stroke-width="1" />
      <text x="90" y="844.00" text-anchor="end" fill="#5b6b68" font-size="11">0.00%</text>
    <line x1="98.00" y1="560" x2="98.00" y2="840" stroke="#eef3f1" stroke-width="1" />
      <text x="98.00" y="868" text-anchor="middle" fill="#5b6b68" font-size="11">25-01-02</text>
<line x1="290.72" y1="560" x2="290.72" y2="840" stroke="#eef3f1" stroke-width="1" />
      <text x="290.72" y="868" text-anchor="middle" fill="#5b6b68" font-size="11">25-03-17</text>
<line x1="479.24" y1="560" x2="479.24" y2="840" stroke="#eef3f1" stroke-width="1" />
      <text x="479.24" y="868" text-anchor="middle" fill="#5b6b68" font-size="11">25-05-23</text>
<line x1="697.09" y1="560" x2="697.09" y2="840" stroke="#eef3f1" stroke-width="1" />
      <text x="697.09" y="868" text-anchor="middle" fill="#5b6b68" font-size="11">25-08-06</text>
<line x1="910.76" y1="560" x2="910.76" y2="840" stroke="#eef3f1" stroke-width="1" />
      <text x="910.76" y="868" text-anchor="middle" fill="#5b6b68" font-size="11">25-10-24</text>
<line x1="1099.28" y1="560" x2="1099.28" y2="840" stroke="#eef3f1" stroke-width="1" />
      <text x="1099.28" y="868" text-anchor="middle" fill="#5b6b68" font-size="11">25-12-26</text>
<line x1="1292.00" y1="560" x2="1292.00" y2="840" stroke="#eef3f1" stroke-width="1" />
      <text x="1292.00" y="868" text-anchor="middle" fill="#5b6b68" font-size="11">26-03-12</text>
    <line x1="1116.04" y1="560" x2="1116.04" y2="840" stroke="#f59e0b" stroke-width="1.4" stroke-dasharray="4 4" />
       <text x="1122.04" y="552" fill="#a16207" font-size="11">验证起点</text>
    <path d="M 98.00 829.68 L 102.19 834.80 L 106.38 827.81 L 110.57 810.46 L 114.76 837.29 L 118.95 839.30 L 123.14 796.33 L 127.33 833.77 L 131.52 826.81 L 135.71 838.48 L 139.89 832.59 L 144.08 839.20 L 148.27 837.87 L 152.46 817.68 L 156.65 833.35 L 160.84 829.85 L 165.03 833.28 L 169.22 768.48 L 173.41 778.64 L 177.60 838.46 L 181.79 837.91 L 185.98 839.12 L 190.17 838.50 L 194.36 831.99 L 198.55 822.76 L 202.74 837.47 L 206.93 839.08 L 211.12 832.94 L 215.31 836.81 L 219.49 835.29 L 223.68 838.22 L 227.87 837.68 L 232.06 836.78 L 236.25 825.87 L 240.44 824.78 L 244.63 824.25 L 248.82 828.48 L 253.01 804.27 L 257.20 835.76 L 261.39 832.64 L 265.58 838.10 L 269.77 829.70 L 273.96 815.49 L 278.15 820.17 L 282.34 833.03 L 286.53 812.26 L 290.72 822.00 L 294.91 836.52 L 299.09 833.88 L 303.28 838.60 L 307.47 833.64 L 311.66 814.96 L 315.85 839.12 L 320.04 835.25 L 324.23 837.98 L 328.42 813.39 L 332.61 826.31 L 336.80 839.69 L 340.99 825.00 L 345.18 793.28 L 349.37 720.50 L 353.56 815.91 L 357.75 783.27 L 361.94 817.71 L 366.13 821.95 L 370.32 812.56 L 374.51 838.95 L 378.69 829.22 L 382.88 829.63 L 387.07 838.61 L 391.26 773.35 L 395.45 804.97 L 399.64 828.30 L 403.83 823.53 L 408.02 833.03 L 412.21 834.94 L 416.40 826.28 L 420.59 835.99 L 424.78 820.06 L 428.97 831.37 L 433.16 836.61 L 437.35 838.44 L 441.54 831.31 L 445.73 826.94 L 449.92 829.03 L 454.11 817.28 L 458.29 822.82 L 462.48 837.33 L 466.67 831.45 L 470.86 798.29 L 475.05 830.25 L 479.24 836.12 L 483.43 838.04 L 487.62 777.90 L 491.81 823.36 L 496.00 839.23 L 500.19 838.75 L 504.38 823.95 L 508.57 826.45 L 512.76 826.89 L 516.95 824.96 L 521.14 838.36 L 525.33 834.88 L 529.52 834.26 L 533.71 836.43 L 537.89 821.37 L 542.08 825.90 L 546.27 821.15 L 550.46 838.54 L 554.65 839.23 L 558.84 835.08 L 563.03 818.13 L 567.22 839.02 L 571.41 827.10 L 575.60 835.00 L 579.79 837.21 L 583.98 832.79 L 588.17 836.06 L 592.36 836.79 L 596.55 827.66 L 600.74 838.09 L 604.93 814.37 L 609.12 838.72 L 613.31 838.26 L 617.49 833.88 L 621.68 826.59 L 625.87 837.70 L 630.06 820.07 L 634.25 829.86 L 638.44 833.75 L 642.63 839.40 L 646.82 837.49 L 651.01 834.00 L 655.20 825.57 L 659.39 830.71 L 663.58 830.52 L 667.77 837.89 L 671.96 835.15 L 676.15 828.32 L 680.34 806.69 L 684.53 835.36 L 688.72 813.62 L 692.91 830.05 L 697.09 836.66 L 701.28 831.67 L 705.47 827.43 L 709.66 835.73 L 713.85 825.10 L 718.04 830.51 L 722.23 834.16 L 726.42 834.66 L 730.61 839.68 L 734.80 831.88 L 738.99 838.50 L 743.18 827.09 L 747.37 820.33 L 751.56 820.10 L 755.75 832.00 L 759.94 839.37 L 764.13 838.59 L 768.32 831.25 L 772.51 833.65 L 776.69 821.91 L 780.88 830.74 L 785.07 829.17 L 789.26 826.17 L 793.45 839.52 L 797.64 835.99 L 801.83 836.50 L 806.02 817.54 L 810.21 832.28 L 814.40 837.73 L 818.59 834.86 L 822.78 833.91 L 826.97 829.62 L 831.16 834.34 L 835.35 829.79 L 839.54 832.51 L 843.73 833.40 L 847.92 829.42 L 852.11 825.38 L 856.29 835.69 L 860.48 833.73 L 864.67 837.61 L 868.86 825.57 L 873.05 811.58 L 877.24 824.03 L 881.43 839.79 L 885.62 819.92 L 889.81 833.13 L 894.00 820.63 L 898.19 838.83 L 902.38 829.91 L 906.57 835.58 L 910.76 828.96 L 914.95 830.66 L 919.14 827.54 L 923.33 821.24 L 927.52 827.77 L 931.71 836.96 L 935.89 838.55 L 940.08 831.52 L 944.27 834.49 L 948.46 832.12 L 952.65 834.25 L 956.84 833.89 L 961.03 832.40 L 965.22 834.45 L 969.41 818.71 L 973.60 835.29 L 977.79 813.68 L 981.98 835.45 L 986.17 837.88 L 990.36 813.78 L 994.55 818.30 L 998.74 783.45 L 1002.93 825.00 L 1007.12 829.71 L 1011.31 839.26 L 1015.49 821.93 L 1019.68 833.94 L 1023.87 837.99 L 1028.06 826.24 L 1032.25 835.34 L 1036.44 838.09 L 1040.63 834.98 L 1044.82 835.07 L 1049.01 824.41 L 1053.20 829.73 L 1057.39 819.39 L 1061.58 829.48 L 1065.77 825.32 L 1069.96 830.52 L 1074.15 839.95 L 1078.34 829.58 L 1082.53 821.06 L 1086.72 837.23 L 1090.91 835.44 L 1095.09 837.90 L 1099.28 839.03 L 1103.47 832.04 L 1107.66 834.64 L 1111.85 820.68 L 1116.04 816.59 L 1120.23 828.83 L 1124.42 825.14 L 1128.61 833.87 L 1132.80 834.98 L 1136.99 838.27 L 1141.18 835.00 L 1145.37 826.92 L 1149.56 839.39 L 1153.75 835.40 L 1157.94 839.48 L 1162.13 779.09 L 1166.32 812.49 L 1170.51 839.95 L 1174.69 828.51 L 1178.88 839.36 L 1183.07 838.20 L 1187.26 835.24 L 1191.45 835.14 L 1195.64 828.60 L 1199.83 828.00 L 1204.02 839.66 L 1208.21 837.00 L 1212.40 825.23 L 1216.59 795.93 L 1220.78 837.37 L 1224.97 836.45 L 1229.16 836.37 L 1233.35 828.80 L 1237.54 831.82 L 1241.73 839.61 L 1245.92 839.68 L 1250.11 839.57 L 1254.29 835.76 L 1258.48 834.66 L 1262.67 807.85 L 1266.86 830.53 L 1271.05 812.88 L 1275.24 825.53 L 1279.43 832.37 L 1283.62 829.52 L 1287.81 835.59 L 1292.00 836.04" fill="none" stroke="#1d4ed8" stroke-width="2"  />
<path d="M 98.00 831.17 L 102.19 805.72 L 106.38 826.58 L 110.57 806.28 L 114.76 836.88 L 118.95 839.51 L 123.14 795.07 L 127.33 837.30 L 131.52 838.47 L 135.71 789.36 L 139.89 832.33 L 144.08 813.05 L 148.27 839.86 L 152.46 821.23 L 156.65 824.67 L 160.84 825.96 L 165.03 829.91 L 169.22 796.34 L 173.41 819.64 L 177.60 831.48 L 181.79 811.12 L 185.98 822.41 L 190.17 839.63 L 194.36 830.30 L 198.55 811.94 L 202.74 837.93 L 206.93 839.85 L 211.12 832.33 L 215.31 834.47 L 219.49 826.19 L 223.68 787.53 L 227.87 824.99 L 232.06 825.42 L 236.25 838.26 L 240.44 792.77 L 244.63 796.58 L 248.82 786.98 L 253.01 801.84 L 257.20 811.25 L 261.39 785.72 L 265.58 825.61 L 269.77 760.82 L 273.96 816.35 L 278.15 830.91 L 282.34 799.08 L 286.53 780.16 L 290.72 824.79 L 294.91 809.13 L 299.09 812.43 L 303.28 834.51 L 307.47 839.34 L 311.66 791.17 L 315.85 836.94 L 320.04 804.50 L 324.23 829.36 L 328.42 779.95 L 332.61 824.24 L 336.80 831.35 L 340.99 821.82 L 345.18 697.18 L 349.37 651.66 L 353.56 794.32 L 357.75 590.00 L 361.94 736.51 L 366.13 790.79 L 370.32 817.60 L 374.51 833.10 L 378.69 774.18 L 382.88 839.42 L 387.07 839.82 L 391.26 769.53 L 395.45 770.74 L 399.64 793.26 L 403.83 785.52 L 408.02 822.24 L 412.21 839.10 L 416.40 825.51 L 420.59 837.80 L 424.78 823.60 L 428.97 829.27 L 433.16 822.57 L 437.35 837.50 L 441.54 752.06 L 445.73 824.51 L 449.92 839.58 L 454.11 828.36 L 458.29 822.06 L 462.48 839.90 L 466.67 827.66 L 470.86 790.55 L 475.05 835.28 L 479.24 819.86 L 483.43 836.72 L 487.62 778.21 L 491.81 822.51 L 496.00 829.84 L 500.19 835.92 L 504.38 812.58 L 508.57 838.80 L 512.76 822.03 L 516.95 812.68 L 521.14 838.73 L 525.33 826.53 L 529.52 829.32 L 533.71 831.27 L 537.89 804.27 L 542.08 814.04 L 546.27 812.02 L 550.46 837.95 L 554.65 839.19 L 558.84 832.78 L 563.03 813.47 L 567.22 812.32 L 571.41 838.20 L 575.60 821.07 L 579.79 826.46 L 583.98 828.48 L 588.17 833.34 L 592.36 827.77 L 596.55 818.56 L 600.74 838.93 L 604.93 815.83 L 609.12 837.56 L 613.31 824.42 L 617.49 834.68 L 621.68 826.86 L 625.87 837.07 L 630.06 826.78 L 634.25 831.20 L 638.44 829.23 L 642.63 839.71 L 646.82 837.18 L 651.01 837.94 L 655.20 821.20 L 659.39 838.63 L 663.58 828.71 L 667.77 839.72 L 671.96 831.53 L 676.15 831.54 L 680.34 829.15 L 684.53 791.99 L 688.72 804.24 L 692.91 823.00 L 697.09 819.66 L 701.28 832.92 L 705.47 817.83 L 709.66 831.98 L 713.85 809.16 L 718.04 835.04 L 722.23 838.34 L 726.42 831.70 L 730.61 836.01 L 734.80 823.09 L 738.99 832.52 L 743.18 822.92 L 747.37 797.48 L 751.56 818.79 L 755.75 828.59 L 759.94 838.38 L 764.13 834.76 L 768.32 818.60 L 772.51 837.94 L 776.69 821.39 L 780.88 826.96 L 785.07 820.13 L 789.26 829.29 L 793.45 837.49 L 797.64 834.82 L 801.83 831.17 L 806.02 818.34 L 810.21 836.08 L 814.40 826.84 L 818.59 833.11 L 822.78 835.31 L 826.97 825.28 L 831.16 826.24 L 835.35 829.80 L 839.54 820.63 L 843.73 830.57 L 847.92 825.52 L 852.11 823.50 L 856.29 836.67 L 860.48 831.04 L 864.67 820.55 L 868.86 756.60 L 873.05 799.89 L 877.24 834.81 L 881.43 831.08 L 885.62 818.59 L 889.81 827.41 L 894.00 810.55 L 898.19 836.70 L 902.38 823.16 L 906.57 826.51 L 910.76 818.99 L 914.95 809.40 L 919.14 836.49 L 923.33 836.95 L 927.52 811.04 L 931.71 833.56 L 935.89 837.57 L 940.08 805.25 L 944.27 830.87 L 948.46 804.96 L 952.65 838.93 L 956.84 798.25 L 961.03 835.36 L 965.22 839.25 L 969.41 791.75 L 973.60 836.16 L 977.79 811.06 L 981.98 816.29 L 986.17 830.70 L 990.36 794.08 L 994.55 814.81 L 998.74 799.74 L 1002.93 816.68 L 1007.12 823.06 L 1011.31 839.87 L 1015.49 823.67 L 1019.68 822.04 L 1023.87 833.43 L 1028.06 834.22 L 1032.25 839.58 L 1036.44 835.59 L 1040.63 828.72 L 1044.82 835.91 L 1049.01 823.07 L 1053.20 837.95 L 1057.39 805.95 L 1061.58 835.11 L 1065.77 828.87 L 1069.96 803.58 L 1074.15 819.03 L 1078.34 817.99 L 1082.53 822.49 L 1086.72 830.99 L 1090.91 834.46 L 1095.09 837.47 L 1099.28 838.51 L 1103.47 827.11 L 1107.66 834.76 L 1111.85 814.71 L 1116.04 820.00 L 1120.23 826.00 L 1124.42 828.60 L 1128.61 838.98 L 1132.80 826.11 L 1136.99 837.91 L 1141.18 832.45 L 1145.37 824.19 L 1149.56 836.72 L 1153.75 836.96 L 1157.94 839.35 L 1162.13 777.82 L 1166.32 808.41 L 1170.51 826.35 L 1174.69 835.59 L 1178.88 831.27 L 1183.07 830.06 L 1187.26 834.07 L 1191.45 834.87 L 1195.64 822.74 L 1199.83 825.82 L 1204.02 811.19 L 1208.21 821.09 L 1212.40 804.68 L 1216.59 785.92 L 1220.78 831.45 L 1224.97 826.57 L 1229.16 837.59 L 1233.35 794.63 L 1237.54 838.01 L 1241.73 819.51 L 1245.92 822.58 L 1250.11 819.91 L 1254.29 826.45 L 1258.48 839.85 L 1262.67 805.14 L 1266.86 818.59 L 1271.05 817.03 L 1275.24 800.93 L 1279.43 813.38 L 1283.62 825.79 L 1287.81 833.38 L 1292.00 795.72" fill="none" stroke="#b45309" stroke-width="2" stroke-dasharray="6 4" />
  </g>
</svg>