<?xml version="1.0" encoding="UTF-8"?>
<svg xmlns="http://www.w3.org/2000/svg" width="1360" height="980" viewBox="0 0 1360 980">
  <defs>
    <linearGradient id="bg" x1="0" y1="0" x2="1" y2="1">
      <stop offset="0%" stop-color="#f4efe6" />
      <stop offset="100%" stop-color="#eef5f2" />
    </linearGradient>
  </defs>
  <rect x="0" y="0" width="1360" height="980" fill="url(#bg)" />
  <text x="46" y="36" fill="#1f2937" font-size="31" font-weight="700">融通巨潮100指数A(LOF)(161607)（161607）离线研究图（持仓逐日估值版）</text>
  <text x="46" y="66" fill="#5b6b68" font-size="13">历史前十大持仓 + 持仓逐日涨跌幅 + USDCNY；双目标 lambda=0.10；披露期数 42；覆盖率均值 74.6%</text>
  <g>
    <text x="54" y="110" fill="#1f2937" font-size="16" font-weight="700">A. 净值拟合（同日对齐，无平移）</text>
    <line x1="98" y1="130" x2="124" y2="130" stroke="#0f766e" stroke-width="2"  />
      <text x="130" y="134" fill="#24312e" font-size="12">真实净值</text>
<line x1="313" y1="130" x2="339" y2="130" stroke="#1d4ed8" stroke-width="2"  />
      <text x="345" y="134" fill="#24312e" font-size="12">持仓分段估值</text>
    <line x1="98" y1="132.00" x2="1292" y2="132.00" stroke="#d7e3df" stroke-width="1" />
      <text x="90" y="136.00" text-anchor="end" fill="#5b6b68" font-size="11">1.226</text>
<line x1="98" y1="209.50" x2="1292" y2="209.50" stroke="#d7e3df" stroke-width="1" />
      <text x="90" y="213.50" text-anchor="end" fill="#5b6b68" font-size="11">1.144</text>
<line x1="98" y1="287.00" x2="1292" y2="287.00" stroke="#d7e3df" stroke-width="1" />
      <text x="90" y="291.00" text-anchor="end" fill="#5b6b68" font-size="11">1.061</text>
<line x1="98" y1="364.50" x2="1292" y2="364.50" stroke="#d7e3df" stroke-width="1" />
      <text x="90" y="368.50" text-anchor="end" fill="#5b6b68" font-size="11">0.978</text>
<line x1="98" y1="442.00" x2="1292" y2="442.00" stroke="#d7e3df" stroke-width="1" />
      <text x="90" y="446.00" text-anchor="end" fill="#5b6b68" font-size="11">0.896</text>
    <line x1="98.00" y1="132" x2="98.00" y2="442" stroke="#eef3f1" stroke-width="1" />
      <text x="98.00" y="470" text-anchor="middle" fill="#5b6b68" font-size="11">25-01-02</text>
<line x1="290.18" y1="132" x2="290.18" y2="442" stroke="#eef3f1" stroke-width="1" />
      <text x="290.18" y="470" text-anchor="middle" fill="#5b6b68" font-size="11">25-03-18</text>
<line x1="478.28" y1="132" x2="478.28" y2="442" stroke="#eef3f1" stroke-width="1" />
      <text x="478.28" y="470" text-anchor="middle" fill="#5b6b68" font-size="11">25-05-27</text>
<line x1="695.00" y1="132" x2="695.00" y2="442" stroke="#eef3f1" stroke-width="1" />
      <text x="695.00" y="470" text-anchor="middle" fill="#5b6b68" font-size="11">25-08-11</text>
<line x1="911.72" y1="132" x2="911.72" y2="442" stroke="#eef3f1" stroke-width="1" />
      <text x="911.72" y="470" text-anchor="middle" fill="#5b6b68" font-size="11">25-10-31</text>
<line x1="1099.82" y1="132" x2="1099.82" y2="442" stroke="#eef3f1" stroke-width="1" />
      <text x="1099.82" y="470" text-anchor="middle" fill="#5b6b68" font-size="11">26-01-07</text>
<line x1="1292.00" y1="132" x2="1292.00" y2="442" stroke="#eef3f1" stroke-width="1" />
      <text x="1292.00" y="470" text-anchor="middle" fill="#5b6b68" font-size="11">26-03-23</text>
    <line x1="1091.64" y1="132" x2="1091.64" y2="442" stroke="#f59e0b" stroke-width="1.4" stroke-dasharray="4 4" />
       <text x="1097.64" y="124" fill="#a16207" font-size="11">验证起点</text>
    <path d="M 98.00 372.33 L 102.09 380.78 L 106.18 382.65 L 110.27 378.90 L 114.36 379.84 L 118.45 383.59 L 122.53 392.04 L 126.62 395.79 L 130.71 377.02 L 134.80 380.78 L 138.89 379.84 L 142.98 379.84 L 147.07 374.21 L 151.16 374.21 L 155.25 384.53 L 159.34 379.84 L 163.42 373.27 L 167.51 374.21 L 171.60 382.65 L 175.69 373.27 L 179.78 362.01 L 183.87 361.07 L 187.96 363.88 L 192.05 355.44 L 196.14 355.44 L 200.23 346.99 L 204.32 346.05 L 208.40 350.75 L 212.49 346.05 L 216.58 350.75 L 220.67 341.36 L 224.76 345.12 L 228.85 355.44 L 232.94 348.87 L 237.03 345.12 L 241.12 358.25 L 245.21 359.19 L 249.29 362.95 L 253.38 358.25 L 257.47 346.99 L 261.56 348.87 L 265.65 353.56 L 269.74 350.75 L 273.83 353.56 L 277.92 354.50 L 282.01 330.10 L 286.10 331.98 L 290.18 330.10 L 294.27 326.35 L 298.36 335.73 L 302.45 348.87 L 306.54 343.24 L 310.63 342.30 L 314.72 346.05 L 318.81 342.30 L 322.90 346.05 L 326.99 351.68 L 331.08 353.56 L 335.16 354.50 L 339.25 358.25 L 343.34 416.43 L 347.43 399.54 L 351.52 396.73 L 355.61 387.34 L 359.70 383.59 L 363.79 382.65 L 367.88 379.84 L 371.97 376.08 L 376.05 376.08 L 380.14 376.08 L 384.23 375.14 L 388.32 373.27 L 392.41 372.33 L 396.50 371.39 L 400.59 370.45 L 404.68 370.45 L 408.77 373.27 L 412.86 376.08 L 416.95 369.51 L 421.03 362.95 L 425.12 356.38 L 429.21 355.44 L 433.30 345.12 L 437.39 343.24 L 441.48 330.10 L 445.57 336.67 L 449.66 342.30 L 453.75 345.12 L 457.84 339.49 L 461.92 333.85 L 466.01 333.85 L 470.10 342.30 L 474.19 348.87 L 478.28 353.56 L 482.37 353.56 L 486.46 350.75 L 490.55 354.50 L 494.64 352.62 L 498.73 350.75 L 502.82 348.87 L 506.90 348.87 L 510.99 348.87 L 515.08 351.68 L 519.17 342.30 L 523.26 343.24 L 527.35 348.87 L 531.44 346.05 L 535.53 346.99 L 539.62 346.99 L 543.71 353.56 L 547.79 349.81 L 551.88 346.99 L 555.97 335.73 L 560.06 320.72 L 564.15 323.53 L 568.24 331.04 L 572.33 328.22 L 576.42 327.29 L 580.51 326.35 L 584.60 320.72 L 588.68 316.03 L 592.77 318.84 L 596.86 313.21 L 600.95 313.21 L 605.04 307.58 L 609.13 305.70 L 613.22 305.70 L 617.31 306.64 L 621.40 309.46 L 625.49 305.70 L 629.58 298.20 L 633.66 293.50 L 637.75 286.00 L 641.84 283.18 L 645.93 279.43 L 650.02 284.12 L 654.11 281.30 L 658.20 279.43 L 662.29 279.43 L 666.38 296.32 L 670.47 301.01 L 674.55 297.26 L 678.64 288.81 L 682.73 287.87 L 686.82 287.87 L 690.91 288.81 L 695.00 286.93 L 699.09 280.37 L 703.18 273.80 L 707.27 270.04 L 711.36 265.35 L 715.45 258.78 L 719.53 264.41 L 723.62 254.09 L 727.71 250.34 L 731.80 229.69 L 735.89 209.99 L 739.98 213.74 L 744.07 232.51 L 748.16 218.43 L 752.25 209.99 L 756.34 208.11 L 760.42 209.05 L 764.51 215.62 L 768.60 233.45 L 772.69 214.68 L 776.78 214.68 L 780.87 220.31 L 784.96 216.55 L 789.05 194.97 L 793.14 202.48 L 797.23 198.72 L 801.32 203.42 L 805.40 196.85 L 809.49 209.99 L 813.58 209.05 L 817.67 205.29 L 821.76 205.29 L 825.85 196.85 L 829.94 190.28 L 834.03 200.60 L 838.12 187.46 L 842.21 185.59 L 846.29 174.33 L 850.38 193.09 L 854.47 201.54 L 858.56 209.99 L 862.65 193.09 L 866.74 186.53 L 870.83 207.17 L 874.92 200.60 L 879.01 185.59 L 883.10 187.46 L 887.18 181.83 L 891.27 169.63 L 895.36 160.25 L 899.45 164.94 L 903.54 154.62 L 907.63 162.13 L 911.72 176.20 L 915.81 173.39 L 919.90 180.89 L 923.99 179.02 L 928.08 166.82 L 932.16 171.51 L 936.25 167.76 L 940.34 175.26 L 944.43 172.45 L 948.52 161.19 L 952.61 175.26 L 956.70 183.71 L 960.79 188.40 L 964.88 182.77 L 968.97 187.46 L 973.05 208.11 L 977.14 209.99 L 981.23 201.54 L 985.32 194.97 L 989.41 195.91 L 993.50 194.97 L 997.59 184.65 L 1001.68 188.40 L 1005.77 194.97 L 1009.86 191.22 L 1013.95 179.96 L 1018.03 173.39 L 1022.12 177.14 L 1026.21 179.96 L 1030.30 186.53 L 1034.39 181.83 L 1038.48 186.53 L 1042.57 197.79 L 1046.66 179.02 L 1050.75 184.65 L 1054.84 180.89 L 1058.92 172.45 L 1063.01 168.70 L 1067.10 168.70 L 1071.19 165.88 L 1075.28 164.00 L 1079.37 166.82 L 1083.46 164.00 L 1087.55 171.51 L 1091.64 152.74 L 1095.73 138.67 L 1099.82 145.24 L 1103.90 156.50 L 1107.99 154.62 L 1112.08 152.74 L 1116.17 158.37 L 1120.26 164.00 L 1124.35 163.07 L 1128.44 169.63 L 1132.53 172.45 L 1136.62 177.14 L 1140.71 179.96 L 1144.79 181.83 L 1148.88 190.28 L 1152.97 189.34 L 1157.06 188.40 L 1161.15 188.40 L 1165.24 176.20 L 1169.33 183.71 L 1173.42 200.60 L 1177.51 195.91 L 1181.60 185.59 L 1185.68 187.46 L 1189.77 194.03 L 1193.86 179.96 L 1197.95 178.08 L 1202.04 181.83 L 1206.13 184.65 L 1210.22 196.85 L 1214.31 194.03 L 1218.40 188.40 L 1222.49 194.97 L 1226.58 199.66 L 1230.66 195.91 L 1234.75 204.35 L 1238.84 218.43 L 1242.93 208.11 L 1247.02 204.35 L 1251.11 214.68 L 1255.20 202.48 L 1259.29 193.09 L 1263.38 197.79 L 1267.47 198.72 L 1271.55 194.97 L 1275.64 196.85 L 1279.73 194.03 L 1283.82 207.17 L 1287.91 207.17 L 1292.00 239.08" fill="none" stroke="#0f766e" stroke-width="2"  />
<path d="M 98.00 377.85 L 102.09 377.94 L 106.18 380.50 L 110.27 379.47 L 114.36 381.37 L 118.45 378.18 L 122.53 388.27 L 126.62 391.54 L 130.71 374.01 L 134.80 380.99 L 138.89 378.86 L 142.98 377.82 L 147.07 374.52 L 151.16 373.58 L 155.25 375.68 L 159.34 384.55 L 163.42 376.94 L 167.51 381.38 L 171.60 374.15 L 175.69 369.57 L 179.78 362.90 L 183.87 360.70 L 187.96 363.84 L 192.05 357.52 L 196.14 357.26 L 200.23 352.18 L 204.32 345.24 L 208.40 349.28 L 212.49 344.09 L 216.58 346.46 L 220.67 340.59 L 224.76 343.10 L 228.85 347.63 L 232.94 351.70 L 237.03 349.05 L 241.12 358.33 L 245.21 355.61 L 249.29 360.48 L 253.38 363.05 L 257.47 350.48 L 261.56 349.85 L 265.65 349.11 L 269.74 353.76 L 273.83 350.80 L 277.92 356.10 L 282.01 340.61 L 286.10 332.09 L 290.18 329.62 L 294.27 329.38 L 298.36 328.38 L 302.45 344.14 L 306.54 348.89 L 310.63 343.12 L 314.72 342.82 L 318.81 344.28 L 322.90 344.08 L 326.99 350.03 L 331.08 351.39 L 335.16 352.86 L 339.25 358.88 L 343.34 437.78 L 347.43 409.18 L 351.52 395.70 L 355.61 386.85 L 359.70 384.05 L 363.79 381.24 L 367.88 382.13 L 371.97 382.04 L 376.05 375.59 L 380.14 374.61 L 384.23 371.52 L 388.32 374.27 L 392.41 370.69 L 396.50 373.11 L 400.59 369.19 L 404.68 370.54 L 408.77 371.04 L 412.86 371.34 L 416.95 371.67 L 421.03 367.91 L 425.12 354.60 L 429.21 357.57 L 433.30 343.03 L 437.39 345.35 L 441.48 339.82 L 445.57 333.85 L 449.66 336.67 L 453.75 341.50 L 457.84 340.80 L 461.92 336.26 L 466.01 335.38 L 470.10 337.10 L 474.19 344.37 L 478.28 349.51 L 482.37 354.46 L 486.46 348.54 L 490.55 352.53 L 494.64 354.34 L 498.73 348.81 L 502.82 347.87 L 506.90 349.04 L 510.99 346.48 L 515.08 350.80 L 519.17 348.12 L 523.26 341.91 L 527.35 344.76 L 531.44 347.34 L 535.53 346.24 L 539.62 345.35 L 543.71 349.68 L 547.79 354.52 L 551.88 348.50 L 555.97 340.53 L 560.06 324.96 L 564.15 322.05 L 568.24 322.40 L 572.33 326.52 L 576.42 328.52 L 580.51 328.31 L 584.60 320.64 L 588.68 320.48 L 592.77 317.68 L 596.86 312.53 L 600.95 312.22 L 605.04 312.03 L 609.13 305.34 L 613.22 305.75 L 617.31 301.49 L 621.40 306.89 L 625.49 301.16 L 629.58 304.02 L 633.66 295.80 L 637.75 290.32 L 641.84 286.41 L 645.93 278.35 L 650.02 279.67 L 654.11 281.72 L 658.20 274.55 L 662.29 282.93 L 666.38 287.51 L 670.47 296.07 L 674.55 300.57 L 678.64 294.91 L 682.73 286.41 L 686.82 289.68 L 690.91 288.06 L 695.00 279.03 L 699.09 282.73 L 703.18 266.35 L 707.27 275.67 L 711.36 261.63 L 715.45 253.53 L 719.53 258.77 L 723.62 260.82 L 727.71 254.89 L 731.80 230.45 L 735.89 219.11 L 739.98 210.88 L 744.07 216.54 L 748.16 207.56 L 752.25 204.59 L 756.34 204.48 L 760.42 221.10 L 764.51 210.00 L 768.60 233.19 L 772.69 206.12 L 776.78 217.86 L 780.87 222.61 L 784.96 217.96 L 789.05 198.79 L 793.14 197.63 L 797.23 199.40 L 801.32 197.33 L 805.40 197.39 L 809.49 200.01 L 813.58 209.21 L 817.67 208.56 L 821.76 204.52 L 825.85 197.25 L 829.94 192.81 L 834.03 197.55 L 838.12 188.01 L 842.21 187.14 L 846.29 183.60 L 850.38 192.75 L 854.47 196.27 L 858.56 216.53 L 862.65 199.65 L 866.74 191.45 L 870.83 202.71 L 874.92 200.10 L 879.01 182.65 L 883.10 187.32 L 887.18 187.06 L 891.27 166.36 L 895.36 163.30 L 899.45 160.86 L 903.54 148.31 L 907.63 159.68 L 911.72 172.04 L 915.81 175.43 L 919.90 178.94 L 923.99 178.26 L 928.08 170.61 L 932.16 168.22 L 936.25 172.15 L 940.34 172.18 L 944.43 175.15 L 948.52 163.36 L 952.61 172.14 L 956.70 175.76 L 960.79 185.90 L 964.88 187.48 L 968.97 185.74 L 973.05 207.07 L 977.14 208.33 L 981.23 203.96 L 985.32 188.63 L 989.41 196.40 L 993.50 193.83 L 997.59 189.23 L 1001.68 186.05 L 1005.77 190.94 L 1009.86 191.57 L 1013.95 187.23 L 1018.03 162.27 L 1022.12 172.97 L 1026.21 176.65 L 1030.30 183.77 L 1034.39 183.88 L 1038.48 189.68 L 1042.57 190.94 L 1046.66 183.11 L 1050.75 187.94 L 1054.84 182.84 L 1058.92 169.61 L 1063.01 171.28 L 1067.10 167.02 L 1071.19 168.11 L 1075.28 164.53 L 1079.37 166.03 L 1083.46 164.42 L 1087.55 167.95 L 1091.64 156.02 L 1095.73 149.03 L 1099.82 137.72 L 1103.90 149.05 L 1107.99 152.96 L 1112.08 151.58 L 1116.17 157.91 L 1120.26 156.46 L 1124.35 161.54 L 1128.44 163.14 L 1132.53 171.19 L 1136.62 176.35 L 1140.71 175.73 L 1144.79 177.66 L 1148.88 181.80 L 1152.97 192.42 L 1157.06 188.22 L 1161.15 189.81 L 1165.24 188.81 L 1169.33 174.73 L 1173.42 196.73 L 1177.51 196.28 L 1181.60 196.22 L 1185.68 187.64 L 1189.77 188.40 L 1193.86 180.22 L 1197.95 180.34 L 1202.04 180.75 L 1206.13 179.28 L 1210.22 187.27 L 1214.31 194.78 L 1218.40 190.92 L 1222.49 189.34 L 1226.58 198.20 L 1230.66 200.43 L 1234.75 205.45 L 1238.84 208.61 L 1242.93 212.64 L 1247.02 204.98 L 1251.11 206.35 L 1255.20 202.85 L 1259.29 197.87 L 1263.38 195.62 L 1267.47 196.76 L 1271.55 196.26 L 1275.64 200.48 L 1279.73 193.98 L 1283.82 196.09 L 1287.91 203.37 L 1292.00 226.43" fill="none" stroke="#1d4ed8" stroke-width="2"  />
  </g>
  <g>
    <text x="54" y="538" fill="#1f2937" font-size="16" font-weight="700">B. 绝对误差（越低越好）</text>
    <line x1="98" y1="558" x2="124" y2="558" stroke="#1d4ed8" stroke-width="2"  />
      <text x="130" y="562" fill="#24312e" font-size="12">持仓分段误差</text>
    <line x1="98" y1="560.00" x2="1292" y2="560.00" stroke="#d7e3df" stroke-width="1" />
      <text x="90" y="564.00" text-anchor="end" fill="#5b6b68" font-size="11">2.76%</text>
<line x1="98" y1="630.00" x2="1292" y2="630.00" stroke="#d7e3df" stroke-width="1" />
      <text x="90" y="634.00" text-anchor="end" fill="#5b6b68" font-size="11">2.07%</text>
<line x1="98" y1="700.00" x2="1292" y2="700.00" stroke="#d7e3df" stroke-width="1" />
      <text x="90" y="704.00" text-anchor="end" fill="#5b6b68" font-size="11">1.38%</text>
<line x1="98" y1="770.00" x2="1292" y2="770.00" stroke="#d7e3df" stroke-width="1" />
      <text x="90" y="774.00" text-anchor="end" fill="#5b6b68" font-size="11">0.69%</text>
<line x1="98" y1="840.00" x2="1292" y2="840.00" stroke="#d7e3df" stroke-width="1" />
      <text x="90" y="844.00" text-anchor="end" fill="#5b6b68" font-size="11">0.00%</text>
    <line x1="98.00" y1="560" x2="98.00" y2="840" stroke="#eef3f1" stroke-width="1" />
      <text x="98.00" y="868" text-anchor="middle" fill="#5b6b68" font-size="11">25-01-02</text>
<line x1="290.18" y1="560" x2="290.18" y2="840" stroke="#eef3f1" stroke-width="1" />
      <text x="290.18" y="868" text-anchor="middle" fill="#5b6b68" font-size="11">25-03-18</text>
<line x1="478.28" y1="560" x2="478.28" y2="840" stroke="#eef3f1" stroke-width="1" />
      <text x="478.28" y="868" text-anchor="middle" fill="#5b6b68" font-size="11">25-05-27</text>
<line x1="695.00" y1="560" x2="695.00" y2="840" stroke="#eef3f1" stroke-width="1" />
      <text x="695.00" y="868" text-anchor="middle" fill="#5b6b68" font-size="11">25-08-11</text>
<line x1="911.72" y1="560" x2="911.72" y2="840" stroke="#eef3f1" stroke-width="1" />
      <text x="911.72" y="868" text-anchor="middle" fill="#5b6b68" font-size="11">25-10-31</text>
<line x1="1099.82" y1="560" x2="1099.82" y2="840" stroke="#eef3f1" stroke-width="1" />
      <text x="1099.82" y="868" text-anchor="middle" fill="#5b6b68" font-size="11">26-01-07</text>
<line x1="1292.00" y1="560" x2="1292.00" y2="840" stroke="#eef3f1" stroke-width="1" />
      <text x="1292.00" y="868" text-anchor="middle" fill="#5b6b68" font-size="11">26-03-23</text>
    <line x1="1091.64" y1="560" x2="1091.64" y2="840" stroke="#f59e0b" stroke-width="1.4" stroke-dasharray="4 4" />
       <text x="1097.64" y="552" fill="#a16207" font-size="11">验证起点</text>
    <path d="M 98.00 778.42 L 102.09 808.06 L 106.18 815.76 L 110.27 833.57 L 114.36 822.76 L 118.45 778.93 L 122.53 797.07 L 126.62 791.34 L 130.71 806.25 L 134.80 837.54 L 138.89 829.00 L 142.98 817.29 L 147.07 836.47 L 151.16 832.98 L 155.25 739.99 L 159.34 787.04 L 163.42 799.02 L 167.51 759.90 L 171.60 744.14 L 175.69 798.75 L 179.78 830.13 L 183.87 835.90 L 187.96 839.49 L 192.05 817.23 L 196.14 820.01 L 200.23 783.75 L 204.32 831.23 L 208.40 824.02 L 212.49 818.68 L 216.58 793.33 L 220.67 831.72 L 224.76 818.22 L 228.85 754.58 L 232.94 809.26 L 237.03 797.43 L 241.12 839.21 L 245.21 800.64 L 249.29 812.75 L 253.38 787.32 L 257.47 802.21 L 261.56 829.38 L 265.65 791.36 L 269.74 807.19 L 273.83 809.84 L 277.92 822.47 L 282.01 728.11 L 286.10 838.79 L 290.18 834.85 L 294.27 807.85 L 298.36 761.18 L 302.45 788.59 L 306.54 778.95 L 310.63 831.18 L 314.72 805.00 L 318.81 818.65 L 322.90 818.59 L 326.99 821.96 L 331.08 816.29 L 335.16 822.06 L 339.25 833.16 L 343.34 590.00 L 347.43 729.29 L 351.52 828.21 L 355.61 834.45 L 359.70 834.78 L 363.79 824.03 L 367.88 814.19 L 371.97 773.30 L 376.05 834.48 L 380.14 823.49 L 384.23 799.43 L 388.32 828.87 L 392.41 821.77 L 396.50 820.84 L 400.59 825.93 L 404.68 838.99 L 408.77 815.19 L 412.86 786.95 L 416.95 815.99 L 421.03 785.26 L 425.12 820.49 L 429.21 816.70 L 433.30 817.39 L 437.39 817.18 L 441.48 736.44 L 445.57 809.71 L 449.66 779.23 L 453.75 800.86 L 457.84 825.80 L 461.92 814.31 L 466.01 823.64 L 470.10 783.83 L 474.19 791.12 L 478.28 795.70 L 482.37 830.19 L 486.46 815.97 L 490.55 818.48 L 494.64 821.26 L 498.73 818.92 L 502.82 829.11 L 506.90 838.13 L 510.99 814.06 L 515.08 830.37 L 519.17 777.20 L 523.26 825.60 L 527.35 795.39 L 531.44 826.03 L 535.53 831.80 L 539.62 822.19 L 543.71 797.60 L 547.79 788.73 L 551.88 823.62 L 555.97 788.57 L 560.06 795.21 L 564.15 824.28 L 568.24 747.85 L 572.33 821.91 L 576.42 826.87 L 580.51 819.14 L 584.60 839.21 L 588.68 793.28 L 592.77 827.77 L 596.86 832.84 L 600.95 829.59 L 605.04 793.70 L 609.13 836.23 L 613.22 839.49 L 617.31 786.45 L 621.40 813.19 L 625.49 792.81 L 629.58 780.00 L 633.66 816.43 L 637.75 796.01 L 641.84 807.26 L 645.93 829.13 L 650.02 794.82 L 654.11 835.81 L 658.20 790.64 L 662.29 804.59 L 666.38 749.40 L 670.47 788.88 L 674.55 805.90 L 678.64 777.69 L 682.73 825.04 L 686.82 821.58 L 690.91 832.30 L 695.00 759.40 L 699.09 816.06 L 703.18 765.14 L 707.27 783.64 L 711.36 802.87 L 715.45 787.98 L 719.53 783.81 L 723.62 773.63 L 727.71 795.20 L 731.80 832.65 L 735.89 753.69 L 739.98 812.82 L 744.07 685.73 L 748.16 736.36 L 752.25 788.98 L 756.34 805.71 L 760.42 726.08 L 764.51 786.64 L 768.60 837.57 L 772.69 758.65 L 776.78 809.78 L 780.87 818.05 L 784.96 826.59 L 789.05 804.35 L 793.14 794.45 L 797.23 833.65 L 801.32 782.80 L 805.40 834.95 L 809.49 745.62 L 813.58 838.50 L 817.67 809.19 L 821.76 832.70 L 825.85 836.24 L 829.94 816.49 L 834.03 811.38 L 838.12 834.95 L 842.21 825.60 L 846.29 755.08 L 850.38 836.77 L 854.47 790.50 L 858.56 778.04 L 862.65 778.92 L 866.74 794.45 L 870.83 797.95 L 874.92 835.30 L 879.01 812.82 L 883.10 838.68 L 887.18 791.82 L 891.27 810.14 L 895.36 812.46 L 899.45 802.98 L 903.54 783.21 L 907.63 817.84 L 911.72 801.81 L 915.81 821.30 L 919.90 822.02 L 923.99 833.06 L 928.08 805.53 L 932.16 809.99 L 936.25 799.99 L 940.34 811.72 L 944.43 815.36 L 948.52 820.35 L 952.61 811.37 L 956.70 766.60 L 960.79 816.76 L 964.88 796.55 L 968.97 823.99 L 973.05 830.20 L 977.14 824.33 L 981.23 817.25 L 985.32 780.81 L 989.41 835.39 L 993.50 829.38 L 997.59 797.64 L 1001.68 818.16 L 1005.77 802.39 L 1009.86 836.75 L 1013.95 773.09 L 1018.03 738.28 L 1022.12 801.70 L 1026.21 809.60 L 1030.30 814.47 L 1034.39 821.18 L 1038.48 810.83 L 1042.57 775.94 L 1046.66 802.35 L 1050.75 809.57 L 1054.84 822.13 L 1058.92 814.08 L 1063.01 816.45 L 1067.10 824.75 L 1071.19 819.73 L 1075.28 835.24 L 1079.37 832.82 L 1083.46 836.25 L 1087.55 807.48 L 1091.64 810.53 L 1095.73 748.07 L 1099.82 772.99 L 1103.90 772.89 L 1107.99 825.05 L 1112.08 829.53 L 1116.17 835.80 L 1120.26 771.53 L 1124.35 826.20 L 1128.44 780.79 L 1132.53 828.47 L 1136.62 832.75 L 1140.71 801.08 L 1144.79 801.50 L 1148.88 761.20 L 1152.97 811.43 L 1157.06 838.35 L 1161.15 826.96 L 1165.24 724.40 L 1169.33 757.11 L 1173.42 803.70 L 1177.51 836.56 L 1181.60 741.61 L 1185.68 838.38 L 1189.77 787.47 L 1193.86 837.56 L 1197.95 819.24 L 1202.04 829.99 L 1206.13 790.41 L 1210.22 750.52 L 1214.31 833.02 L 1218.40 816.68 L 1222.49 787.50 L 1226.58 826.28 L 1230.66 797.78 L 1234.75 829.71 L 1238.84 746.40 L 1242.93 797.23 L 1247.02 834.13 L 1251.11 760.83 L 1255.20 836.52 L 1259.29 795.50 L 1263.38 819.76 L 1267.47 821.64 L 1271.55 827.97 L 1275.64 806.09 L 1279.73 839.49 L 1283.82 735.48 L 1287.91 804.11 L 1292.00 717.08" fill="none" stroke="#1d4ed8" stroke-width="2"  />
  </g>
</svg>