<?xml version="1.0" encoding="UTF-8"?>
<svg xmlns="http://www.w3.org/2000/svg" width="1360" height="980" viewBox="0 0 1360 980">
  <defs>
    <linearGradient id="bg" x1="0" y1="0" x2="1" y2="1">
      <stop offset="0%" stop-color="#f4efe6" />
      <stop offset="100%" stop-color="#eef5f2" />
    </linearGradient>
  </defs>
  <rect x="0" y="0" width="1360" height="980" fill="url(#bg)" />
  <text x="46" y="36" fill="#1f2937" font-size="31" font-weight="700">161725 离线研究图（持仓逐日估值版）</text>
  <text x="46" y="66" fill="#5b6b68" font-size="13">历史前十大持仓 + A股日线收盘价；双目标 lambda=0.10；披露期数 42；覆盖率均值 99.5%</text>
  <g>
    <text x="54" y="110" fill="#1f2937" font-size="16" font-weight="700">A. 净值拟合（同日对齐，无平移）</text>
    <line x1="98" y1="112" x2="124" y2="112" stroke="#0f766e" stroke-width="2"  />
      <text x="130" y="116" fill="#24312e" font-size="12">真实净值</text>
<line x1="313" y1="112" x2="339" y2="112" stroke="#1d4ed8" stroke-width="2"  />
      <text x="345" y="116" fill="#24312e" font-size="12">持仓分段估值</text>
<line x1="528" y1="112" x2="554" y2="112" stroke="#b45309" stroke-width="2" stroke-dasharray="6 4" />
      <text x="560" y="116" fill="#24312e" font-size="12">持仓双目标估值</text>
    <line x1="98" y1="132.00" x2="1292" y2="132.00" stroke="#d7e3df" stroke-width="1" />
      <text x="90" y="136.00" text-anchor="end" fill="#5b6b68" font-size="11">0.881</text>
<line x1="98" y1="209.50" x2="1292" y2="209.50" stroke="#d7e3df" stroke-width="1" />
      <text x="90" y="213.50" text-anchor="end" fill="#5b6b68" font-size="11">0.823</text>
<line x1="98" y1="287.00" x2="1292" y2="287.00" stroke="#d7e3df" stroke-width="1" />
      <text x="90" y="291.00" text-anchor="end" fill="#5b6b68" font-size="11">0.765</text>
<line x1="98" y1="364.50" x2="1292" y2="364.50" stroke="#d7e3df" stroke-width="1" />
      <text x="90" y="368.50" text-anchor="end" fill="#5b6b68" font-size="11">0.707</text>
<line x1="98" y1="442.00" x2="1292" y2="442.00" stroke="#d7e3df" stroke-width="1" />
      <text x="90" y="446.00" text-anchor="end" fill="#5b6b68" font-size="11">0.649</text>
    <line x1="98.00" y1="132" x2="98.00" y2="442" stroke="#eef3f1" stroke-width="1" />
      <text x="98.00" y="470" text-anchor="middle" fill="#5b6b68" font-size="11">25-01-02</text>
<line x1="290.04" y1="132" x2="290.04" y2="442" stroke="#eef3f1" stroke-width="1" />
      <text x="290.04" y="470" text-anchor="middle" fill="#5b6b68" font-size="11">25-03-17</text>
<line x1="482.08" y1="132" x2="482.08" y2="442" stroke="#eef3f1" stroke-width="1" />
      <text x="482.08" y="470" text-anchor="middle" fill="#5b6b68" font-size="11">25-05-26</text>
<line x1="695.00" y1="132" x2="695.00" y2="442" stroke="#eef3f1" stroke-width="1" />
      <text x="695.00" y="470" text-anchor="middle" fill="#5b6b68" font-size="11">25-08-06</text>
<line x1="907.92" y1="132" x2="907.92" y2="442" stroke="#eef3f1" stroke-width="1" />
      <text x="907.92" y="470" text-anchor="middle" fill="#5b6b68" font-size="11">25-10-24</text>
<line x1="1099.96" y1="132" x2="1099.96" y2="442" stroke="#eef3f1" stroke-width="1" />
      <text x="1099.96" y="470" text-anchor="middle" fill="#5b6b68" font-size="11">25-12-29</text>
<line x1="1292.00" y1="132" x2="1292.00" y2="442" stroke="#eef3f1" stroke-width="1" />
      <text x="1292.00" y="470" text-anchor="middle" fill="#5b6b68" font-size="11">26-03-13</text>
    <line x1="1112.48" y1="132" x2="1112.48" y2="442" stroke="#f59e0b" stroke-width="1.4" stroke-dasharray="4 4" />
       <text x="1118.48" y="124" fill="#a16207" font-size="11">验证起点</text>
    <path d="M 98.00 252.89 L 102.17 263.73 L 106.35 292.21 L 110.52 288.47 L 114.70 293.28 L 118.87 288.74 L 123.05 305.59 L 127.22 295.02 L 131.40 266.27 L 135.57 269.48 L 139.75 277.37 L 143.92 270.81 L 148.10 259.04 L 152.27 267.74 L 156.45 286.60 L 160.62 284.59 L 164.80 289.27 L 168.97 292.75 L 173.15 310.14 L 177.32 304.65 L 181.50 292.08 L 185.67 290.61 L 189.85 301.44 L 194.02 287.13 L 198.20 252.62 L 202.37 255.70 L 206.55 251.02 L 210.72 263.99 L 214.90 258.91 L 219.07 261.99 L 223.24 253.69 L 227.42 238.58 L 231.59 257.71 L 235.77 246.34 L 239.94 220.79 L 244.12 223.87 L 248.29 238.04 L 252.47 251.15 L 256.64 249.95 L 260.82 230.82 L 264.99 208.75 L 269.17 207.68 L 273.34 176.92 L 277.52 189.22 L 281.69 191.50 L 285.87 138.13 L 290.04 137.86 L 294.22 146.69 L 298.39 158.33 L 302.57 179.06 L 306.74 192.97 L 310.92 193.91 L 315.09 195.78 L 319.27 195.78 L 323.44 185.08 L 327.62 193.77 L 331.79 210.49 L 335.97 209.96 L 340.14 213.30 L 344.31 196.85 L 348.49 242.59 L 352.66 215.57 L 356.84 197.92 L 361.01 195.11 L 365.19 207.01 L 369.36 218.78 L 373.54 216.91 L 377.71 213.70 L 381.89 204.87 L 386.06 212.90 L 390.24 226.01 L 394.41 224.94 L 398.59 230.02 L 402.76 237.11 L 406.94 239.65 L 411.11 241.12 L 415.29 260.52 L 419.46 259.71 L 423.64 253.83 L 427.81 250.08 L 431.99 241.79 L 436.16 243.80 L 440.34 237.64 L 444.51 241.12 L 448.69 220.79 L 452.86 232.69 L 457.03 247.41 L 461.21 265.20 L 465.38 266.27 L 469.56 268.41 L 473.73 274.56 L 477.91 281.51 L 482.08 293.42 L 486.26 293.69 L 490.43 295.83 L 494.61 294.09 L 498.78 306.66 L 502.96 316.69 L 507.13 317.23 L 511.31 310.67 L 515.48 311.48 L 519.66 318.43 L 523.83 327.12 L 528.01 324.18 L 532.18 339.30 L 536.36 364.44 L 540.53 362.97 L 544.71 361.37 L 548.88 355.21 L 553.06 360.16 L 557.23 339.83 L 561.41 352.54 L 565.58 344.65 L 569.76 342.77 L 573.93 341.44 L 578.10 350.53 L 582.28 344.38 L 586.45 350.67 L 590.63 345.05 L 594.80 342.77 L 598.98 341.30 L 603.15 345.05 L 607.33 335.95 L 611.50 331.40 L 615.68 322.98 L 619.85 317.09 L 624.03 314.95 L 628.20 327.53 L 632.38 319.10 L 636.55 317.36 L 640.73 299.57 L 644.90 302.92 L 649.08 271.62 L 653.25 276.70 L 657.43 270.68 L 661.60 291.01 L 665.78 295.02 L 669.95 296.49 L 674.13 288.34 L 678.30 312.95 L 682.48 312.41 L 686.65 312.41 L 690.83 300.24 L 695.00 298.90 L 699.17 297.56 L 703.35 303.58 L 707.52 279.24 L 711.70 283.12 L 715.87 283.79 L 720.05 284.46 L 724.22 282.58 L 728.40 277.50 L 732.57 256.64 L 736.75 232.56 L 740.92 242.32 L 745.10 235.37 L 749.27 191.36 L 753.45 188.42 L 757.62 225.07 L 761.80 229.89 L 765.97 203.40 L 770.15 207.28 L 774.32 208.75 L 778.50 221.46 L 782.67 226.27 L 786.85 217.05 L 791.02 198.32 L 795.20 195.78 L 799.37 196.18 L 803.55 189.63 L 807.72 202.20 L 811.90 204.47 L 816.07 205.14 L 820.24 215.44 L 824.42 235.37 L 828.59 232.96 L 832.77 247.67 L 836.94 255.83 L 841.12 255.70 L 845.29 266.27 L 849.47 273.22 L 853.64 253.29 L 857.82 261.32 L 861.99 272.69 L 866.17 277.50 L 870.34 288.20 L 874.52 261.05 L 878.69 254.23 L 882.87 239.52 L 887.04 255.83 L 891.22 261.18 L 895.39 261.59 L 899.57 265.20 L 903.74 257.44 L 907.92 278.57 L 912.09 279.64 L 916.27 276.30 L 920.44 283.12 L 924.62 280.18 L 928.79 263.32 L 932.97 259.85 L 937.14 272.55 L 941.31 278.97 L 945.49 279.37 L 949.66 282.45 L 953.84 233.63 L 958.01 235.10 L 962.19 237.24 L 966.36 228.95 L 970.54 245.53 L 974.71 244.46 L 978.89 247.14 L 983.06 256.37 L 987.24 257.97 L 991.41 268.41 L 995.59 273.22 L 999.76 272.95 L 1003.94 271.35 L 1008.11 269.88 L 1012.29 269.08 L 1016.46 270.28 L 1020.64 282.72 L 1024.81 296.76 L 1028.99 316.02 L 1033.16 310.14 L 1037.34 320.70 L 1041.51 335.15 L 1045.69 329.80 L 1049.86 335.55 L 1054.03 331.54 L 1058.21 327.12 L 1062.38 329.13 L 1066.56 330.07 L 1070.73 333.95 L 1074.91 328.06 L 1079.08 330.07 L 1083.26 336.35 L 1087.43 340.10 L 1091.61 327.53 L 1095.78 334.48 L 1099.96 346.79 L 1104.13 351.20 L 1108.31 360.96 L 1112.48 342.64 L 1116.66 335.68 L 1120.83 341.30 L 1125.01 345.45 L 1129.18 342.51 L 1133.36 330.07 L 1137.53 339.83 L 1141.71 345.85 L 1145.88 354.41 L 1150.06 361.90 L 1154.23 366.85 L 1158.41 358.56 L 1162.58 377.28 L 1166.76 380.89 L 1170.93 383.84 L 1175.10 395.07 L 1179.28 406.57 L 1183.45 405.91 L 1187.63 322.58 L 1191.80 358.02 L 1195.98 341.70 L 1200.15 337.56 L 1204.33 316.96 L 1208.50 314.15 L 1212.68 336.49 L 1216.85 336.89 L 1221.03 353.34 L 1225.20 354.41 L 1229.38 369.52 L 1233.55 369.26 L 1237.73 383.03 L 1241.90 378.22 L 1246.08 392.00 L 1250.25 393.73 L 1254.43 411.12 L 1258.60 413.66 L 1262.78 436.67 L 1266.95 435.06 L 1271.13 422.36 L 1275.30 430.52 L 1279.48 429.04 L 1283.65 429.85 L 1287.83 429.98 L 1292.00 420.62" fill="none" stroke="#0f766e" stroke-width="2"  />
<path d="M 98.00 251.92 L 102.17 257.52 L 106.35 290.54 L 110.52 290.93 L 114.70 289.99 L 118.87 291.93 L 123.05 304.18 L 127.22 302.23 L 131.40 270.68 L 135.57 268.41 L 139.75 272.15 L 143.92 275.54 L 148.10 267.00 L 152.27 263.69 L 156.45 282.96 L 160.62 287.08 L 164.80 287.63 L 168.97 291.68 L 173.15 307.49 L 177.32 309.59 L 181.50 301.34 L 185.67 292.66 L 189.85 295.71 L 194.02 297.74 L 198.20 255.34 L 202.37 253.75 L 206.55 254.83 L 210.72 256.93 L 214.90 263.07 L 219.07 260.47 L 223.24 260.24 L 227.42 241.81 L 231.59 251.95 L 235.77 255.05 L 239.94 222.88 L 244.12 221.91 L 248.29 228.76 L 252.47 249.43 L 256.64 251.14 L 260.82 236.32 L 264.99 211.02 L 269.17 207.93 L 273.34 181.69 L 277.52 181.92 L 281.69 191.25 L 285.87 141.80 L 290.04 140.33 L 294.22 141.59 L 298.39 151.54 L 302.57 173.02 L 306.74 183.39 L 310.92 195.27 L 315.09 195.08 L 319.27 197.16 L 323.44 193.75 L 327.62 189.13 L 331.79 206.80 L 335.97 211.24 L 340.14 212.04 L 344.31 199.66 L 348.49 241.91 L 352.66 217.18 L 356.84 202.46 L 361.01 197.70 L 365.19 201.38 L 369.36 212.19 L 373.54 219.34 L 377.71 217.45 L 381.89 213.15 L 386.06 208.62 L 390.24 217.56 L 394.41 226.67 L 398.59 227.62 L 402.76 233.74 L 406.94 238.00 L 411.11 241.20 L 415.29 262.35 L 419.46 261.79 L 423.64 258.12 L 427.81 252.85 L 431.99 248.63 L 436.16 243.62 L 440.34 242.91 L 444.51 239.61 L 448.69 230.66 L 452.86 226.58 L 457.03 238.13 L 461.21 260.95 L 465.38 266.66 L 469.56 267.38 L 473.73 271.57 L 477.91 278.01 L 482.08 285.92 L 486.26 294.04 L 490.43 295.47 L 494.61 296.21 L 498.78 299.95 L 502.96 310.84 L 507.13 317.76 L 511.31 316.39 L 515.48 311.71 L 519.66 314.99 L 523.83 323.32 L 528.01 326.68 L 532.18 335.73 L 536.36 363.96 L 540.53 364.78 L 544.71 364.15 L 548.88 360.69 L 553.06 358.16 L 557.23 339.28 L 561.41 351.43 L 565.58 350.83 L 569.76 344.08 L 573.93 343.64 L 578.10 344.87 L 582.28 348.62 L 586.45 347.52 L 590.63 349.60 L 594.80 344.63 L 598.98 343.59 L 603.15 343.24 L 607.33 342.95 L 611.50 335.24 L 615.68 329.47 L 619.85 322.02 L 624.03 317.40 L 628.20 319.99 L 632.38 325.19 L 636.55 319.36 L 640.73 305.81 L 644.90 300.85 L 649.08 274.72 L 653.25 274.12 L 657.43 274.45 L 661.60 284.39 L 665.78 292.04 L 669.95 296.22 L 674.13 295.40 L 678.30 307.96 L 682.48 313.24 L 686.65 313.52 L 690.83 309.20 L 695.00 300.69 L 699.17 298.96 L 703.35 300.09 L 707.52 280.60 L 711.70 280.88 L 715.87 284.19 L 720.05 284.52 L 724.22 284.30 L 728.40 281.49 L 732.57 255.82 L 736.75 230.93 L 740.92 238.49 L 745.10 240.17 L 749.27 187.21 L 753.45 192.38 L 757.62 219.22 L 761.80 227.62 L 765.97 206.64 L 770.15 205.60 L 774.32 209.64 L 778.50 213.17 L 782.67 223.97 L 786.85 224.88 L 791.02 206.23 L 795.20 198.10 L 799.37 196.66 L 803.55 195.17 L 807.72 195.02 L 811.90 204.07 L 816.07 204.84 L 820.24 209.15 L 824.42 232.84 L 828.59 235.55 L 832.77 244.35 L 836.94 252.27 L 841.12 256.56 L 845.29 260.65 L 849.47 269.26 L 853.64 259.61 L 857.82 257.02 L 861.99 266.27 L 866.17 275.50 L 870.34 282.57 L 874.52 264.86 L 878.69 260.20 L 882.87 250.39 L 887.04 251.23 L 891.22 257.67 L 895.39 262.38 L 899.57 263.92 L 903.74 264.25 L 907.92 273.59 L 912.09 279.89 L 916.27 280.14 L 920.44 280.00 L 924.62 282.18 L 928.79 260.79 L 932.97 263.39 L 937.14 264.64 L 941.31 275.78 L 945.49 280.91 L 949.66 282.14 L 953.84 234.15 L 958.01 234.73 L 962.19 236.89 L 966.36 235.56 L 970.54 240.48 L 974.71 247.02 L 978.89 246.34 L 983.06 251.19 L 987.24 256.81 L 991.41 262.61 L 995.59 270.77 L 999.76 274.17 L 1003.94 273.90 L 1008.11 271.94 L 1012.29 270.70 L 1016.46 269.95 L 1020.64 276.47 L 1024.81 289.05 L 1028.99 311.52 L 1033.16 315.08 L 1037.34 314.44 L 1041.51 332.53 L 1045.69 334.14 L 1049.86 333.18 L 1054.03 335.13 L 1058.21 330.69 L 1062.38 328.70 L 1066.56 330.81 L 1070.73 332.48 L 1074.91 331.93 L 1079.08 329.10 L 1083.26 333.56 L 1087.43 338.53 L 1091.61 337.25 L 1095.78 331.22 L 1099.96 339.26 L 1104.13 349.06 L 1108.31 355.63 L 1112.48 350.75 L 1116.66 341.17 L 1120.83 338.33 L 1125.01 343.36 L 1129.18 345.13 L 1133.36 339.28 L 1137.53 334.55 L 1141.71 342.21 L 1145.88 349.85 L 1150.06 358.03 L 1154.23 363.92 L 1158.41 364.97 L 1162.58 373.32 L 1166.76 379.46 L 1170.93 382.55 L 1175.10 389.69 L 1179.28 406.89 L 1183.45 406.24 L 1187.63 323.43 L 1191.80 365.69 L 1195.98 349.01 L 1200.15 342.29 L 1204.33 323.07 L 1208.50 316.18 L 1212.68 330.88 L 1216.85 337.85 L 1221.03 348.01 L 1225.20 353.97 L 1229.38 365.72 L 1233.55 370.61 L 1237.73 374.81 L 1241.90 382.76 L 1246.08 383.70 L 1250.25 393.32 L 1254.43 411.69 L 1258.60 413.28 L 1262.78 435.47 L 1266.95 437.00 L 1271.13 426.67 L 1275.30 426.42 L 1279.48 430.59 L 1283.65 429.74 L 1287.83 431.14 L 1292.00 428.21" fill="none" stroke="#1d4ed8" stroke-width="2"  />
<path d="M 98.00 225.73 L 102.17 254.37 L 106.35 265.64 L 110.52 293.23 L 114.70 289.69 L 118.87 294.29 L 123.05 290.39 L 127.22 306.44 L 131.40 295.50 L 135.57 267.57 L 139.75 270.81 L 143.92 278.37 L 148.10 271.68 L 152.27 260.54 L 156.45 269.43 L 160.62 287.75 L 164.80 285.94 L 168.97 290.57 L 173.15 294.41 L 177.32 311.19 L 181.50 305.51 L 185.67 293.25 L 189.85 292.11 L 194.02 302.28 L 198.20 287.46 L 202.37 253.88 L 206.55 256.81 L 210.72 252.63 L 214.90 265.08 L 219.07 260.19 L 223.24 263.02 L 227.42 254.50 L 231.59 240.28 L 235.77 258.68 L 239.94 246.90 L 244.12 222.09 L 248.29 225.43 L 252.47 239.69 L 256.64 252.32 L 260.82 250.71 L 264.99 231.47 L 269.17 209.91 L 273.34 208.21 L 277.52 178.55 L 281.69 190.61 L 285.87 191.50 L 290.04 139.59 L 294.22 139.45 L 298.39 148.34 L 302.57 160.17 L 306.74 180.62 L 310.92 194.35 L 315.09 195.20 L 319.27 197.09 L 323.44 196.83 L 327.62 186.61 L 331.79 195.52 L 335.97 211.74 L 340.14 211.31 L 344.31 214.07 L 348.49 199.32 L 352.66 243.07 L 356.84 216.35 L 361.01 199.12 L 365.19 196.81 L 369.36 208.62 L 373.54 220.01 L 377.71 218.14 L 381.89 214.85 L 386.06 206.37 L 390.24 214.45 L 394.41 227.23 L 398.59 226.32 L 402.76 231.47 L 406.94 238.34 L 411.11 240.92 L 415.29 242.98 L 419.46 261.75 L 423.64 260.73 L 427.81 254.90 L 431.99 251.13 L 436.16 243.10 L 440.34 244.90 L 444.51 238.98 L 448.69 241.95 L 452.86 222.43 L 457.03 234.29 L 461.21 249.10 L 465.38 266.45 L 469.56 267.49 L 473.73 269.78 L 477.91 275.94 L 482.08 282.96 L 486.26 294.56 L 490.43 294.91 L 494.61 296.95 L 498.78 295.62 L 502.96 308.05 L 507.13 317.83 L 511.31 318.23 L 515.48 311.83 L 519.66 312.81 L 523.83 319.86 L 528.01 328.15 L 532.18 325.72 L 536.36 341.10 L 540.53 365.48 L 544.71 364.08 L 548.88 362.34 L 553.06 356.47 L 557.23 360.63 L 561.41 341.35 L 565.58 353.44 L 569.76 345.65 L 573.93 343.89 L 578.10 342.76 L 582.28 351.42 L 586.45 345.68 L 590.63 351.62 L 594.80 346.07 L 598.98 343.89 L 603.15 342.52 L 607.33 345.94 L 611.50 336.97 L 615.68 332.33 L 619.85 324.00 L 624.03 318.22 L 628.20 316.45 L 632.38 328.44 L 636.55 320.22 L 640.73 318.10 L 644.90 300.80 L 649.08 303.30 L 653.25 272.97 L 657.43 277.68 L 661.60 272.37 L 665.78 292.22 L 669.95 296.24 L 674.13 297.53 L 678.30 290.11 L 682.48 314.07 L 686.65 313.60 L 690.83 313.28 L 695.00 301.40 L 699.17 300.03 L 703.35 298.88 L 707.52 304.09 L 711.70 280.51 L 715.87 284.34 L 720.05 284.98 L 724.22 285.58 L 728.40 283.64 L 732.57 278.07 L 736.75 257.13 L 740.92 234.19 L 745.10 243.34 L 749.27 235.37 L 753.45 192.67 L 757.62 190.58 L 761.80 226.45 L 765.97 230.44 L 770.15 204.78 L 774.32 208.67 L 778.50 210.30 L 782.67 222.83 L 786.85 227.34 L 791.02 217.89 L 795.20 199.53 L 799.37 197.07 L 803.55 197.33 L 807.72 191.26 L 811.90 203.56 L 816.07 205.72 L 820.24 206.65 L 824.42 217.25 L 828.59 236.56 L 832.77 234.62 L 836.94 249.17 L 841.12 257.03 L 845.29 257.21 L 849.47 267.62 L 853.64 273.94 L 857.82 254.71 L 861.99 262.81 L 866.17 274.01 L 870.34 278.98 L 874.52 288.69 L 878.69 262.12 L 882.87 255.09 L 887.04 241.17 L 891.22 257.11 L 895.39 262.41 L 899.57 262.89 L 903.74 266.26 L 907.92 259.16 L 912.09 279.79 L 916.27 280.80 L 920.44 277.69 L 924.62 284.17 L 928.79 280.77 L 932.97 264.47 L 937.14 261.35 L 941.31 273.92 L 945.49 280.23 L 949.66 280.69 L 953.84 282.39 L 958.01 234.88 L 962.19 236.40 L 966.36 238.28 L 970.54 230.62 L 974.71 246.80 L 978.89 245.76 L 983.06 248.60 L 987.24 257.54 L 991.41 259.46 L 995.59 269.70 L 999.76 274.41 L 1003.94 274.14 L 1008.11 272.52 L 1012.29 271.07 L 1016.46 270.27 L 1020.64 271.86 L 1024.81 284.29 L 1028.99 298.40 L 1033.16 317.02 L 1037.34 311.53 L 1041.51 322.24 L 1045.69 336.12 L 1049.86 331.10 L 1054.03 336.56 L 1058.21 332.53 L 1062.38 328.30 L 1066.56 330.32 L 1070.73 331.31 L 1074.91 334.85 L 1079.08 329.20 L 1083.26 331.39 L 1087.43 337.57 L 1091.61 340.93 L 1095.78 328.88 L 1099.96 335.91 L 1104.13 348.00 L 1108.31 352.57 L 1112.48 361.66 L 1116.66 343.58 L 1120.83 336.94 L 1125.01 342.51 L 1129.18 346.47 L 1133.36 343.32 L 1137.53 331.47 L 1141.71 341.07 L 1145.88 347.19 L 1150.06 355.71 L 1154.23 363.07 L 1158.41 367.74 L 1162.58 360.10 L 1166.76 378.45 L 1170.93 382.02 L 1175.10 385.25 L 1179.28 396.50 L 1183.45 407.52 L 1187.63 404.85 L 1191.80 324.81 L 1195.98 358.76 L 1200.15 342.81 L 1204.33 338.20 L 1208.50 318.00 L 1212.68 315.83 L 1216.85 337.66 L 1221.03 338.41 L 1225.20 354.43 L 1229.38 355.91 L 1233.55 370.63 L 1237.73 370.70 L 1241.90 384.02 L 1246.08 379.63 L 1250.25 393.08 L 1254.43 395.31 L 1258.60 412.25 L 1262.78 415.31 L 1266.95 437.64 L 1271.13 435.74 L 1275.30 423.62 L 1279.48 431.47 L 1283.65 430.05 L 1287.83 430.90 L 1292.00 430.80" fill="none" stroke="#b45309" stroke-width="2" stroke-dasharray="6 4" />
  </g>
  <g>
    <text x="54" y="538" fill="#1f2937" font-size="16" font-weight="700">B. 绝对误差（越低越好）</text>
    <line x1="98" y1="540" x2="124" y2="540" stroke="#1d4ed8" stroke-width="2"  />
      <text x="130" y="544" fill="#24312e" font-size="12">持仓分段误差</text>
<line x1="313" y1="540" x2="339" y2="540" stroke="#b45309" stroke-width="2" stroke-dasharray="6 4" />
      <text x="345" y="544" fill="#24312e" font-size="12">持仓双目标误差</text>
    <line x1="98" y1="560.00" x2="1292" y2="560.00" stroke="#d7e3df" stroke-width="1" />
      <text x="90" y="564.00" text-anchor="end" fill="#5b6b68" font-size="11">9.33%</text>
<line x1="98" y1="630.00" x2="1292" y2="630.00" stroke="#d7e3df" stroke-width="1" />
      <text x="90" y="634.00" text-anchor="end" fill="#5b6b68" font-size="11">7.00%</text>
<line x1="98" y1="700.00" x2="1292" y2="700.00" stroke="#d7e3df" stroke-width="1" />
      <text x="90" y="704.00" text-anchor="end" fill="#5b6b68" font-size="11">4.66%</text>
<line x1="98" y1="770.00" x2="1292" y2="770.00" stroke="#d7e3df" stroke-width="1" />
      <text x="90" y="774.00" text-anchor="end" fill="#5b6b68" font-size="11">2.33%</text>
<line x1="98" y1="840.00" x2="1292" y2="840.00" stroke="#d7e3df" stroke-width="1" />
      <text x="90" y="844.00" text-anchor="end" fill="#5b6b68" font-size="11">0.00%</text>
    <line x1="98.00" y1="560" x2="98.00" y2="840" stroke="#eef3f1" stroke-width="1" />
      <text x="98.00" y="868" text-anchor="middle" fill="#5b6b68" font-size="11">25-01-02</text>
<line x1="290.04" y1="560" x2="290.04" y2="840" stroke="#eef3f1" stroke-width="1" />
      <text x="290.04" y="868" text-anchor="middle" fill="#5b6b68" font-size="11">25-03-17</text>
<line x1="482.08" y1="560" x2="482.08" y2="840" stroke="#eef3f1" stroke-width="1" />
      <text x="482.08" y="868" text-anchor="middle" fill="#5b6b68" font-size="11">25-05-26</text>
<line x1="695.00" y1="560" x2="695.00" y2="840" stroke="#eef3f1" stroke-width="1" />
      <text x="695.00" y="868" text-anchor="middle" fill="#5b6b68" font-size="11">25-08-06</text>
<line x1="907.92" y1="560" x2="907.92" y2="840" stroke="#eef3f1" stroke-width="1" />
      <text x="907.92" y="868" text-anchor="middle" fill="#5b6b68" font-size="11">25-10-24</text>
<line x1="1099.96" y1="560" x2="1099.96" y2="840" stroke="#eef3f1" stroke-width="1" />
      <text x="1099.96" y="868" text-anchor="middle" fill="#5b6b68" font-size="11">25-12-29</text>
<line x1="1292.00" y1="560" x2="1292.00" y2="840" stroke="#eef3f1" stroke-width="1" />
      <text x="1292.00" y="868" text-anchor="middle" fill="#5b6b68" font-size="11">26-03-13</text>
    <line x1="1112.48" y1="560" x2="1112.48" y2="840" stroke="#f59e0b" stroke-width="1.4" stroke-dasharray="4 4" />
       <text x="1118.48" y="552" fill="#a16207" font-size="11">验证起点</text>
    <path d="M 98.00 837.23 L 102.17 822.22 L 106.35 835.07 L 110.52 832.78 L 114.70 830.28 L 118.87 830.62 L 123.05 835.79 L 127.22 818.69 L 131.40 827.31 L 135.57 836.93 L 139.75 824.82 L 143.92 826.37 L 148.10 817.28 L 152.27 828.36 L 156.45 829.35 L 160.62 832.70 L 164.80 835.17 L 168.97 836.84 L 173.15 832.04 L 177.32 825.27 L 181.50 812.70 L 185.67 833.96 L 189.85 822.95 L 194.02 808.88 L 198.20 832.31 L 202.37 834.45 L 206.55 829.20 L 210.72 819.74 L 214.90 828.13 L 219.07 835.66 L 223.24 821.40 L 227.42 830.96 L 231.59 823.58 L 235.77 815.43 L 239.94 834.26 L 244.12 834.58 L 248.29 814.01 L 252.47 835.11 L 256.64 836.62 L 260.82 824.72 L 264.99 833.81 L 269.17 839.33 L 273.34 827.37 L 277.52 820.43 L 281.69 839.34 L 285.87 830.60 L 290.04 833.69 L 294.22 826.83 L 298.39 822.33 L 302.57 823.99 L 306.74 814.27 L 310.92 836.33 L 315.09 838.12 L 319.27 836.27 L 323.44 816.86 L 327.62 827.53 L 331.79 829.93 L 335.97 836.49 L 340.14 836.56 L 344.31 832.42 L 348.49 838.08 L 352.66 835.60 L 356.84 827.75 L 361.01 833.03 L 365.19 824.68 L 369.36 821.88 L 373.54 833.33 L 377.71 829.75 L 381.89 817.52 L 386.06 828.30 L 390.24 816.61 L 394.41 835.20 L 398.59 833.33 L 402.76 830.58 L 406.94 835.38 L 411.11 839.77 L 415.29 834.77 L 419.46 834.08 L 423.64 827.80 L 427.81 832.16 L 431.99 820.79 L 436.16 839.49 L 440.34 825.26 L 444.51 835.76 L 448.69 812.80 L 452.86 822.96 L 457.03 813.79 L 461.21 827.82 L 465.38 838.87 L 469.56 837.03 L 473.73 831.34 L 477.91 829.78 L 482.08 817.87 L 486.26 838.96 L 490.43 838.94 L 494.61 833.72 L 498.78 819.94 L 502.96 822.34 L 507.13 838.39 L 511.31 822.84 L 515.48 839.29 L 519.66 829.60 L 523.83 828.39 L 528.01 832.39 L 532.18 828.99 L 536.36 838.49 L 540.53 834.26 L 544.71 831.19 L 548.88 822.78 L 553.06 833.68 L 557.23 838.31 L 561.41 836.53 L 565.58 820.78 L 569.76 835.95 L 573.93 833.16 L 578.10 822.31 L 582.28 826.83 L 586.45 830.17 L 590.63 825.84 L 594.80 834.25 L 598.98 832.92 L 603.15 834.37 L 607.33 818.46 L 611.50 828.24 L 615.68 820.27 L 619.85 825.12 L 624.03 832.62 L 628.20 816.99 L 632.38 821.55 L 636.55 833.95 L 640.73 821.48 L 644.90 833.85 L 649.08 831.04 L 653.25 832.51 L 657.43 829.12 L 661.60 820.51 L 665.78 831.19 L 669.95 839.20 L 674.13 819.25 L 678.30 824.98 L 682.48 837.51 L 686.65 836.67 L 690.83 813.38 L 695.00 834.71 L 699.17 835.87 L 703.35 829.58 L 707.52 836.03 L 711.70 833.47 L 715.87 838.83 L 720.05 839.83 L 724.22 834.99 L 728.40 828.42 L 732.57 837.68 L 736.75 835.45 L 740.92 829.22 L 745.10 826.61 L 749.27 828.86 L 753.45 829.41 L 757.62 823.82 L 761.80 833.69 L 765.97 831.23 L 770.15 835.41 L 774.32 837.59 L 778.50 817.15 L 782.67 833.63 L 786.85 818.49 L 791.02 818.64 L 795.20 833.73 L 799.37 838.71 L 803.55 825.15 L 807.72 820.55 L 811.90 838.90 L 816.07 839.18 L 820.24 822.75 L 824.42 832.95 L 828.59 832.78 L 832.77 830.60 L 836.94 829.85 L 841.12 837.55 L 845.29 823.86 L 849.47 828.53 L 853.64 822.06 L 857.82 827.70 L 861.99 821.45 L 866.17 834.17 L 870.34 823.45 L 874.52 829.10 L 878.69 823.04 L 882.87 809.52 L 887.04 826.89 L 891.22 829.93 L 895.39 837.72 L 899.57 836.34 L 903.74 820.59 L 907.92 825.52 L 912.09 839.28 L 916.27 828.86 L 920.44 830.90 L 924.62 834.17 L 928.79 832.74 L 932.97 829.88 L 937.14 817.12 L 941.31 830.70 L 945.49 835.54 L 949.66 839.11 L 953.84 838.55 L 958.01 838.96 L 962.19 839.01 L 966.36 821.65 L 970.54 825.76 L 974.71 832.81 L 978.89 837.74 L 983.06 825.25 L 987.24 836.67 L 991.41 823.30 L 995.59 832.90 L 999.76 836.50 L 1003.94 832.64 L 1008.11 834.04 L 1012.29 835.32 L 1016.46 839.06 L 1020.64 821.75 L 1024.81 817.17 L 1028.99 826.42 L 1033.16 825.16 L 1037.34 820.99 L 1041.51 831.94 L 1045.69 826.72 L 1049.86 832.71 L 1054.03 828.98 L 1058.21 829.11 L 1062.38 838.68 L 1066.56 837.71 L 1070.73 835.51 L 1074.91 828.18 L 1079.08 837.02 L 1083.26 831.38 L 1087.43 835.15 L 1091.61 810.30 L 1095.78 829.98 L 1099.96 816.55 L 1104.13 833.30 L 1108.31 823.15 L 1112.48 814.84 L 1116.66 823.09 L 1120.83 830.80 L 1125.01 833.51 L 1129.18 831.86 L 1133.36 811.78 L 1137.53 823.66 L 1141.71 828.69 L 1145.88 825.69 L 1150.06 827.75 L 1154.23 830.69 L 1158.41 819.77 L 1162.58 827.24 L 1166.76 835.36 L 1170.93 835.83 L 1175.10 822.36 L 1179.28 838.97 L 1183.45 838.88 L 1187.63 837.41 L 1191.80 815.84 L 1195.98 817.37 L 1200.15 825.39 L 1204.33 821.53 L 1208.50 833.88 L 1212.68 822.70 L 1216.85 837.03 L 1221.03 823.28 L 1225.20 838.62 L 1229.38 827.86 L 1233.55 835.68 L 1237.73 813.37 L 1241.90 825.37 L 1246.08 812.87 L 1250.25 838.64 L 1254.43 838.09 L 1258.60 838.72 L 1262.78 835.90 L 1266.95 833.37 L 1271.13 825.43 L 1275.30 826.02 L 1279.48 834.75 L 1283.65 839.62 L 1287.83 836.04 L 1292.00 814.39" fill="none" stroke="#1d4ed8" stroke-width="2"  />
<path d="M 98.00 762.90 L 102.17 813.16 L 106.35 761.65 L 110.52 826.01 L 114.70 829.39 L 118.87 823.67 L 123.05 794.61 L 127.22 806.25 L 131.40 755.95 L 135.57 834.50 L 139.75 820.95 L 143.92 818.19 L 148.10 803.92 L 152.27 819.28 L 156.45 789.68 L 160.62 830.75 L 164.80 830.20 L 168.97 833.56 L 173.15 792.79 L 177.32 820.50 L 181.50 800.41 L 185.67 832.23 L 189.85 812.24 L 194.02 795.57 L 198.20 741.14 L 202.37 834.83 L 206.55 823.60 L 210.72 807.40 L 214.90 822.39 L 219.07 834.85 L 223.24 813.52 L 227.42 795.43 L 231.59 790.32 L 235.77 805.19 L 239.94 768.07 L 244.12 835.08 L 248.29 804.69 L 252.47 807.53 L 256.64 833.29 L 260.82 784.71 L 264.99 778.10 L 269.17 833.93 L 273.34 757.15 L 277.52 811.42 L 281.69 837.62 L 285.87 703.35 L 290.04 835.58 L 294.22 821.31 L 298.39 813.99 L 302.57 789.89 L 306.74 806.83 L 310.92 838.81 L 315.09 838.44 L 319.27 836.48 L 323.44 808.67 L 327.62 820.76 L 331.79 799.15 L 335.97 835.14 L 340.14 834.55 L 344.31 793.58 L 348.49 718.35 L 352.66 764.62 L 356.84 790.26 L 361.01 829.22 L 365.19 812.25 L 369.36 812.04 L 373.54 831.50 L 377.71 827.86 L 381.89 812.91 L 386.06 822.14 L 390.24 808.01 L 394.41 833.65 L 398.59 829.71 L 402.76 824.22 L 406.94 836.32 L 411.11 839.44 L 415.29 789.86 L 419.46 834.19 L 423.64 820.38 L 427.81 826.35 L 431.99 813.77 L 436.16 838.05 L 440.34 819.70 L 444.51 833.98 L 448.69 781.72 L 452.86 811.42 L 457.03 802.97 L 461.21 793.78 L 465.38 839.49 L 469.56 837.35 L 473.73 826.15 L 477.91 823.75 L 482.08 809.13 L 486.26 837.42 L 490.43 837.30 L 494.61 831.55 L 498.78 806.99 L 502.96 813.90 L 507.13 838.17 L 511.31 817.32 L 515.48 838.94 L 519.66 823.00 L 523.83 817.82 L 528.01 827.94 L 532.18 798.04 L 536.36 765.95 L 540.53 832.05 L 544.71 831.42 L 548.88 817.61 L 553.06 828.34 L 557.23 775.68 L 561.41 804.96 L 565.58 812.66 L 569.76 831.06 L 573.93 832.38 L 578.10 815.70 L 582.28 818.11 L 586.45 824.40 L 590.63 819.55 L 594.80 829.78 L 598.98 831.97 L 603.15 832.13 L 607.33 809.25 L 611.50 822.94 L 615.68 811.56 L 619.85 819.13 L 624.03 830.13 L 628.20 806.17 L 632.38 811.73 L 636.55 831.35 L 640.73 784.99 L 644.90 833.70 L 649.08 748.46 L 653.25 829.16 L 657.43 819.79 L 661.60 785.11 L 665.78 831.71 L 669.95 839.23 L 674.13 813.00 L 678.30 771.29 L 682.48 835.01 L 686.65 836.44 L 690.83 801.26 L 695.00 832.59 L 699.17 832.68 L 703.35 825.98 L 707.52 767.66 L 711.70 832.37 L 715.87 838.40 L 720.05 838.47 L 724.22 831.25 L 728.40 822.15 L 732.57 778.95 L 736.75 771.57 L 740.92 817.13 L 745.10 817.75 L 749.27 721.96 L 753.45 828.63 L 757.62 744.62 L 761.80 830.46 L 765.97 766.69 L 770.15 833.20 L 774.32 839.76 L 778.50 809.24 L 782.67 830.48 L 786.85 811.72 L 791.02 787.19 L 795.20 829.90 L 799.37 837.59 L 803.55 819.36 L 807.72 810.38 L 811.90 837.51 L 816.07 838.44 L 820.24 815.90 L 824.42 789.40 L 828.59 829.99 L 832.77 803.11 L 836.94 821.03 L 841.12 836.21 L 845.29 813.97 L 849.47 823.78 L 853.64 781.37 L 857.82 821.10 L 861.99 811.44 L 866.17 829.85 L 870.34 812.92 L 874.52 760.94 L 878.69 817.59 L 882.87 796.34 L 887.04 798.25 L 891.22 828.36 L 895.39 837.64 L 899.57 833.39 L 903.74 814.85 L 907.92 783.52 L 912.09 839.57 L 916.27 826.93 L 920.44 824.14 L 924.62 828.36 L 928.79 789.98 L 932.97 826.80 L 937.14 807.59 L 941.31 825.28 L 945.49 837.51 L 949.66 834.87 L 953.84 704.09 L 958.01 839.38 L 962.19 837.65 L 966.36 814.11 L 970.54 797.95 L 974.71 833.42 L 978.89 836.12 L 983.06 817.87 L 987.24 838.77 L 991.41 814.22 L 995.59 829.82 L 999.76 835.80 L 1003.94 831.93 L 1008.11 832.39 L 1012.29 834.26 L 1016.46 839.97 L 1020.64 808.29 L 1024.81 803.08 L 1028.99 786.79 L 1033.16 819.36 L 1037.34 812.17 L 1041.51 800.26 L 1045.69 820.66 L 1049.86 826.30 L 1054.03 824.59 L 1058.21 823.51 L 1062.38 837.47 L 1066.56 839.24 L 1070.73 831.89 L 1074.91 819.26 L 1079.08 837.36 L 1083.26 824.72 L 1087.43 832.18 L 1091.61 799.08 L 1095.78 822.77 L 1099.96 806.11 L 1104.13 829.98 L 1108.31 813.45 L 1112.48 781.01 L 1116.66 815.69 L 1120.83 826.50 L 1125.01 830.85 L 1129.18 827.70 L 1133.36 799.42 L 1137.53 814.15 L 1141.71 825.12 L 1145.88 817.33 L 1150.06 820.41 L 1154.23 827.98 L 1158.41 811.06 L 1162.58 784.75 L 1166.76 832.10 L 1170.93 834.11 L 1175.10 807.80 L 1179.28 806.56 L 1183.45 834.63 L 1187.63 590.00 L 1191.80 735.32 L 1195.98 787.16 L 1200.15 823.80 L 1204.33 775.81 L 1208.50 828.40 L 1212.68 776.35 L 1216.85 837.62 L 1221.03 793.18 L 1225.20 839.93 L 1229.38 796.57 L 1233.55 835.62 L 1237.73 800.07 L 1241.90 821.33 L 1246.08 799.59 L 1250.25 837.87 L 1254.43 787.23 L 1258.60 835.27 L 1262.78 766.61 L 1266.95 831.18 L 1271.13 794.78 L 1275.30 816.49 L 1279.48 831.73 L 1283.65 839.30 L 1287.83 836.87 L 1292.00 805.64" fill="none" stroke="#b45309" stroke-width="2" stroke-dasharray="6 4" />
  </g>
</svg>