<?xml version="1.0" encoding="UTF-8"?>
<svg xmlns="http://www.w3.org/2000/svg" width="1360" height="980" viewBox="0 0 1360 980">
  <defs>
    <linearGradient id="bg" x1="0" y1="0" x2="1" y2="1">
      <stop offset="0%" stop-color="#f4efe6" />
      <stop offset="100%" stop-color="#eef5f2" />
    </linearGradient>
  </defs>
  <rect x="0" y="0" width="1360" height="980" fill="url(#bg)" />
  <text x="46" y="36" fill="#1f2937" font-size="31" font-weight="700">162411 离线研究图（持仓逐日估值版）</text>
  <text x="46" y="66" fill="#5b6b68" font-size="13">历史前十大持仓 + 持仓逐日涨跌幅 + USDCNY；双目标 lambda=0.10；披露期数 43；覆盖率均值 92.1%</text>
  <g>
    <text x="54" y="110" fill="#1f2937" font-size="16" font-weight="700">A. 净值拟合（同日对齐，无平移）</text>
    <line x1="98" y1="112" x2="124" y2="112" stroke="#0f766e" stroke-width="2"  />
      <text x="130" y="116" fill="#24312e" font-size="12">真实净值</text>
<line x1="313" y1="112" x2="339" y2="112" stroke="#1d4ed8" stroke-width="2"  />
      <text x="345" y="116" fill="#24312e" font-size="12">持仓分段估值</text>
<line x1="528" y1="112" x2="554" y2="112" stroke="#b45309" stroke-width="2" stroke-dasharray="6 4" />
      <text x="560" y="116" fill="#24312e" font-size="12">持仓双目标估值</text>
    <line x1="98" y1="132.00" x2="1292" y2="132.00" stroke="#d7e3df" stroke-width="1" />
      <text x="90" y="136.00" text-anchor="end" fill="#5b6b68" font-size="11">0.902</text>
<line x1="98" y1="209.50" x2="1292" y2="209.50" stroke="#d7e3df" stroke-width="1" />
      <text x="90" y="213.50" text-anchor="end" fill="#5b6b68" font-size="11">0.822</text>
<line x1="98" y1="287.00" x2="1292" y2="287.00" stroke="#d7e3df" stroke-width="1" />
      <text x="90" y="291.00" text-anchor="end" fill="#5b6b68" font-size="11">0.742</text>
<line x1="98" y1="364.50" x2="1292" y2="364.50" stroke="#d7e3df" stroke-width="1" />
      <text x="90" y="368.50" text-anchor="end" fill="#5b6b68" font-size="11">0.662</text>
<line x1="98" y1="442.00" x2="1292" y2="442.00" stroke="#d7e3df" stroke-width="1" />
      <text x="90" y="446.00" text-anchor="end" fill="#5b6b68" font-size="11">0.582</text>
    <line x1="98.00" y1="132" x2="98.00" y2="442" stroke="#eef3f1" stroke-width="1" />
      <text x="98.00" y="470" text-anchor="middle" fill="#5b6b68" font-size="11">25-01-02</text>
<line x1="290.72" y1="132" x2="290.72" y2="442" stroke="#eef3f1" stroke-width="1" />
      <text x="290.72" y="470" text-anchor="middle" fill="#5b6b68" font-size="11">25-03-17</text>
<line x1="479.24" y1="132" x2="479.24" y2="442" stroke="#eef3f1" stroke-width="1" />
      <text x="479.24" y="470" text-anchor="middle" fill="#5b6b68" font-size="11">25-05-23</text>
<line x1="697.09" y1="132" x2="697.09" y2="442" stroke="#eef3f1" stroke-width="1" />
      <text x="697.09" y="470" text-anchor="middle" fill="#5b6b68" font-size="11">25-08-06</text>
<line x1="910.76" y1="132" x2="910.76" y2="442" stroke="#eef3f1" stroke-width="1" />
      <text x="910.76" y="470" text-anchor="middle" fill="#5b6b68" font-size="11">25-10-24</text>
<line x1="1099.28" y1="132" x2="1099.28" y2="442" stroke="#eef3f1" stroke-width="1" />
      <text x="1099.28" y="470" text-anchor="middle" fill="#5b6b68" font-size="11">25-12-26</text>
<line x1="1292.00" y1="132" x2="1292.00" y2="442" stroke="#eef3f1" stroke-width="1" />
      <text x="1292.00" y="470" text-anchor="middle" fill="#5b6b68" font-size="11">26-03-12</text>
    <line x1="1116.04" y1="132" x2="1116.04" y2="442" stroke="#f59e0b" stroke-width="1.4" stroke-dasharray="4 4" />
       <text x="1122.04" y="124" fill="#a16207" font-size="11">验证起点</text>
    <path d="M 98.00 269.48 L 102.19 265.61 L 106.38 267.45 L 110.57 259.51 L 114.76 254.86 L 118.95 254.95 L 123.14 246.62 L 127.33 233.74 L 131.52 228.22 L 135.71 214.37 L 139.89 213.02 L 144.08 215.05 L 148.27 215.15 L 152.46 226.58 L 156.65 233.36 L 160.84 231.13 L 165.03 241.98 L 169.22 255.92 L 173.41 260.96 L 177.60 276.75 L 181.79 280.04 L 185.98 254.37 L 190.17 248.56 L 194.36 272.68 L 198.55 267.25 L 202.74 261.64 L 206.93 261.73 L 211.12 253.89 L 215.31 245.17 L 219.49 246.33 L 223.68 269.58 L 227.87 271.71 L 232.06 288.17 L 236.25 293.60 L 240.44 298.54 L 244.63 291.37 L 248.82 324.88 L 253.01 328.46 L 257.20 338.83 L 261.39 346.19 L 265.58 335.63 L 269.77 335.73 L 273.96 332.44 L 278.15 326.33 L 282.34 335.44 L 286.53 313.74 L 290.72 301.35 L 294.91 297.57 L 299.09 282.07 L 303.28 282.17 L 307.47 291.37 L 311.66 281.68 L 315.85 281.98 L 320.04 278.97 L 324.23 285.66 L 328.42 291.85 L 332.61 286.24 L 336.80 282.36 L 340.99 275.10 L 345.18 348.71 L 349.37 416.21 L 353.56 439.17 L 357.75 376.99 L 361.94 426.48 L 366.13 408.46 L 370.32 409.43 L 374.51 412.63 L 378.69 401.78 L 382.88 386.38 L 387.07 386.58 L 391.26 404.69 L 395.45 389.97 L 399.64 388.22 L 403.83 382.02 L 408.02 379.21 L 412.21 372.44 L 416.40 376.41 L 420.59 393.26 L 424.78 381.64 L 428.97 380.09 L 433.16 360.52 L 437.35 350.45 L 441.54 327.59 L 445.73 306.96 L 449.92 310.74 L 454.11 316.16 L 458.29 317.52 L 462.48 324.69 L 466.67 327.79 L 470.86 342.31 L 475.05 342.99 L 479.24 342.12 L 483.43 342.99 L 487.62 332.92 L 491.81 343.48 L 496.00 340.57 L 500.19 349.38 L 504.38 328.27 L 508.57 343.48 L 512.76 345.32 L 516.95 330.11 L 521.14 324.78 L 525.33 315.29 L 529.52 303.67 L 533.71 299.21 L 537.89 281.39 L 542.08 279.75 L 546.27 271.42 L 550.46 276.16 L 554.65 276.55 L 558.84 273.26 L 563.03 298.15 L 567.22 303.38 L 571.41 313.84 L 575.60 305.80 L 579.79 308.71 L 583.98 316.55 L 588.17 311.32 L 592.36 298.92 L 596.55 299.02 L 600.74 298.92 L 604.93 307.45 L 609.12 285.95 L 613.31 291.56 L 617.49 283.72 L 621.68 279.94 L 625.87 287.30 L 630.06 302.41 L 634.25 312.48 L 638.44 300.47 L 642.63 298.34 L 646.82 315.78 L 651.01 308.90 L 655.20 304.64 L 659.39 303.28 L 663.58 306.77 L 667.77 291.47 L 671.96 287.11 L 676.15 298.15 L 680.34 305.51 L 684.53 328.66 L 688.72 327.59 L 692.91 322.94 L 697.09 329.82 L 701.28 336.31 L 705.47 333.40 L 709.66 339.80 L 713.85 331.95 L 718.04 324.40 L 722.23 323.52 L 726.42 326.82 L 730.61 332.44 L 734.80 334.76 L 738.99 328.66 L 743.18 328.27 L 747.37 306.09 L 751.56 300.96 L 755.75 303.28 L 759.94 294.08 L 764.13 287.21 L 768.32 286.53 L 772.51 286.14 L 776.69 277.91 L 780.88 297.57 L 785.07 290.11 L 789.26 303.77 L 793.45 309.19 L 797.64 307.45 L 801.83 292.73 L 806.02 295.44 L 810.21 301.73 L 814.40 305.51 L 818.59 284.49 L 822.78 285.85 L 826.97 286.82 L 831.16 302.31 L 835.35 297.57 L 839.54 282.27 L 843.73 271.61 L 847.92 267.16 L 852.11 260.67 L 856.29 280.72 L 860.48 287.98 L 864.67 293.50 L 868.86 330.69 L 873.05 313.74 L 877.24 319.65 L 881.43 321.10 L 885.62 334.57 L 889.81 333.50 L 894.00 324.49 L 898.19 329.82 L 902.38 326.91 L 906.57 303.09 L 910.76 309.19 L 914.95 310.16 L 919.14 323.33 L 923.33 319.94 L 927.52 322.75 L 931.71 317.81 L 935.89 314.03 L 940.08 322.65 L 944.27 327.98 L 948.46 317.91 L 952.65 305.32 L 956.84 295.73 L 961.03 281.98 L 965.22 293.11 L 969.41 293.31 L 973.60 283.52 L 977.79 296.31 L 981.98 285.46 L 986.17 293.50 L 990.36 309.58 L 994.55 304.06 L 998.74 299.31 L 1002.93 302.31 L 1007.12 295.53 L 1011.31 295.73 L 1015.49 284.01 L 1019.68 279.17 L 1023.87 289.05 L 1028.06 272.19 L 1032.25 272.68 L 1036.44 271.22 L 1040.63 283.72 L 1044.82 282.27 L 1049.01 279.26 L 1053.20 291.18 L 1057.39 297.86 L 1061.58 307.35 L 1065.77 333.11 L 1069.96 318.78 L 1074.15 332.63 L 1078.34 330.30 L 1082.53 327.11 L 1086.72 321.30 L 1090.91 324.59 L 1095.09 325.37 L 1099.28 330.60 L 1103.47 323.33 L 1107.66 318.97 L 1111.85 325.17 L 1116.04 319.75 L 1120.23 330.01 L 1124.42 338.05 L 1128.61 315.20 L 1132.80 321.10 L 1136.99 320.52 L 1141.18 309.87 L 1145.37 298.63 L 1149.56 307.45 L 1153.75 307.25 L 1157.94 307.54 L 1162.13 310.74 L 1166.32 286.04 L 1170.51 286.43 L 1174.69 284.11 L 1178.88 287.30 L 1183.07 283.72 L 1187.26 276.55 L 1191.45 267.45 L 1195.64 261.93 L 1199.83 283.04 L 1204.02 264.06 L 1208.21 244.30 L 1212.40 256.02 L 1216.59 231.32 L 1220.78 231.13 L 1224.97 236.65 L 1229.16 218.92 L 1233.35 241.01 L 1237.54 225.61 L 1241.73 217.08 L 1245.92 224.06 L 1250.11 217.47 L 1254.29 198.97 L 1258.48 169.53 L 1262.67 174.47 L 1266.86 165.95 L 1271.05 153.65 L 1275.24 152.29 L 1279.43 161.88 L 1283.62 177.47 L 1287.81 150.55 L 1292.00 139.99" fill="none" stroke="#0f766e" stroke-width="2"  />
<path d="M 98.00 277.91 L 102.19 265.08 L 106.38 265.51 L 110.57 261.97 L 114.76 256.81 L 118.95 254.38 L 123.14 254.76 L 127.33 230.00 L 131.52 230.70 L 135.71 221.39 L 139.89 212.05 L 144.08 212.39 L 148.27 214.95 L 152.46 215.52 L 156.65 230.60 L 160.84 232.41 L 165.03 237.79 L 169.22 245.98 L 173.41 259.43 L 177.60 266.54 L 181.79 278.37 L 185.98 256.45 L 190.17 250.43 L 194.36 267.63 L 198.55 271.16 L 202.74 267.21 L 206.93 261.70 L 211.12 260.98 L 215.31 231.67 L 219.49 241.56 L 223.68 264.56 L 227.87 271.79 L 232.06 284.05 L 236.25 293.03 L 240.44 294.03 L 244.63 292.91 L 248.82 323.04 L 253.01 326.38 L 257.20 338.07 L 261.39 340.97 L 265.58 336.87 L 269.77 332.28 L 273.96 336.56 L 278.15 329.74 L 282.34 330.26 L 286.53 316.37 L 290.72 308.02 L 294.91 298.30 L 299.09 285.33 L 303.28 281.76 L 307.47 284.15 L 311.66 288.16 L 315.85 279.64 L 320.04 280.09 L 324.23 282.57 L 328.42 287.71 L 332.61 288.15 L 336.80 283.44 L 340.99 281.39 L 345.18 336.66 L 349.37 427.14 L 353.56 435.44 L 357.75 382.69 L 361.94 424.59 L 366.13 413.08 L 370.32 407.17 L 374.51 410.52 L 378.69 407.77 L 382.88 387.28 L 387.07 386.33 L 391.26 385.99 L 395.45 385.82 L 399.64 390.95 L 403.83 383.97 L 408.02 381.46 L 412.21 377.12 L 416.40 375.31 L 420.59 392.40 L 424.78 394.63 L 428.97 381.06 L 433.16 364.29 L 437.35 355.44 L 441.54 332.62 L 445.73 315.72 L 449.92 309.31 L 454.11 312.01 L 458.29 317.13 L 462.48 321.65 L 466.67 326.62 L 470.86 338.67 L 475.05 343.90 L 479.24 342.71 L 483.43 341.21 L 487.62 342.42 L 491.81 338.15 L 496.00 340.57 L 500.19 344.87 L 504.38 325.80 L 508.57 340.21 L 512.76 345.23 L 516.95 330.87 L 521.14 327.82 L 525.33 316.03 L 529.52 305.04 L 533.71 301.12 L 537.89 284.47 L 542.08 282.38 L 546.27 275.06 L 550.46 273.20 L 554.65 275.88 L 558.84 276.48 L 563.03 291.96 L 567.22 303.40 L 571.41 306.64 L 575.60 308.89 L 579.79 308.25 L 583.98 312.06 L 588.17 314.11 L 592.36 305.63 L 596.55 298.82 L 600.74 298.53 L 604.93 298.66 L 609.12 284.79 L 613.31 289.17 L 617.49 289.65 L 621.68 279.63 L 625.87 284.03 L 630.06 298.90 L 634.25 306.05 L 638.44 307.00 L 642.63 302.85 L 646.82 316.34 L 651.01 311.00 L 655.20 305.15 L 659.39 301.03 L 663.58 305.45 L 667.77 300.58 L 671.96 287.69 L 676.15 290.70 L 680.34 300.50 L 684.53 318.44 L 688.72 330.83 L 692.91 324.34 L 697.09 324.19 L 701.28 331.99 L 705.47 332.69 L 709.66 335.43 L 713.85 337.05 L 718.04 327.68 L 722.23 324.99 L 726.42 324.11 L 730.61 330.54 L 734.80 333.87 L 738.99 331.27 L 743.18 326.25 L 747.37 314.13 L 751.56 304.65 L 755.75 301.47 L 759.94 298.80 L 764.13 290.96 L 768.32 285.86 L 772.51 286.19 L 776.69 285.52 L 780.88 297.30 L 785.07 293.21 L 789.26 302.12 L 793.45 306.26 L 797.64 308.52 L 801.83 292.35 L 806.02 292.73 L 810.21 298.15 L 814.40 303.88 L 818.59 287.41 L 822.78 285.34 L 826.97 287.83 L 831.16 299.59 L 835.35 303.12 L 839.54 286.82 L 843.73 272.32 L 847.92 267.91 L 852.11 261.68 L 856.29 269.25 L 860.48 283.73 L 864.67 294.21 L 868.86 321.84 L 873.05 319.68 L 877.24 315.35 L 881.43 320.60 L 885.62 330.59 L 889.81 333.41 L 894.00 328.97 L 898.19 326.27 L 902.38 326.42 L 906.57 313.98 L 910.76 306.31 L 914.95 308.62 L 919.14 321.38 L 923.33 321.90 L 927.52 320.64 L 931.71 317.98 L 935.89 315.06 L 940.08 313.63 L 944.27 324.37 L 948.46 325.61 L 952.65 303.47 L 956.84 302.33 L 961.03 283.58 L 965.22 286.98 L 969.41 293.48 L 973.60 287.04 L 977.79 289.95 L 981.98 291.46 L 986.17 291.11 L 990.36 299.22 L 994.55 307.19 L 998.74 302.55 L 1002.93 302.04 L 1007.12 297.80 L 1011.31 295.36 L 1015.49 295.84 L 1019.68 280.79 L 1023.87 289.29 L 1028.06 275.44 L 1032.25 270.75 L 1036.44 273.58 L 1040.63 277.66 L 1044.82 281.64 L 1049.01 277.54 L 1053.20 283.30 L 1057.39 293.00 L 1061.58 303.58 L 1065.77 326.92 L 1069.96 314.36 L 1074.15 330.13 L 1078.34 332.25 L 1082.53 328.06 L 1086.72 324.53 L 1090.91 323.48 L 1095.09 324.57 L 1099.28 325.35 L 1103.47 326.48 L 1107.66 319.92 L 1111.85 322.04 L 1116.04 323.46 L 1120.23 331.91 L 1124.42 335.07 L 1128.61 320.37 L 1132.80 317.71 L 1136.99 321.32 L 1141.18 312.17 L 1145.37 297.68 L 1149.56 303.00 L 1153.75 307.86 L 1157.94 306.81 L 1162.13 307.67 L 1166.32 291.88 L 1170.51 285.63 L 1174.69 283.26 L 1178.88 283.80 L 1183.07 284.25 L 1187.26 279.75 L 1191.45 272.34 L 1195.64 261.79 L 1199.83 280.69 L 1204.02 263.42 L 1208.21 243.60 L 1212.40 248.98 L 1216.59 242.19 L 1220.78 231.39 L 1224.97 233.08 L 1229.16 221.42 L 1233.35 233.95 L 1237.54 235.54 L 1241.73 223.79 L 1245.92 220.08 L 1250.11 222.72 L 1254.29 198.27 L 1258.48 175.12 L 1262.67 172.10 L 1266.86 177.19 L 1271.05 160.52 L 1275.24 151.25 L 1279.43 154.09 L 1283.62 179.83 L 1287.81 152.85 L 1292.00 136.35" fill="none" stroke="#1d4ed8" stroke-width="2"  />
<path d="M 98.00 281.94 L 102.19 269.55 L 106.38 265.96 L 110.57 267.38 L 114.76 259.67 L 118.95 254.26 L 123.14 254.36 L 127.33 246.36 L 131.52 233.85 L 135.71 228.11 L 139.89 214.56 L 144.08 213.31 L 148.27 214.42 L 152.46 214.52 L 156.65 227.14 L 160.84 233.64 L 165.03 231.80 L 169.22 242.67 L 173.41 256.49 L 177.60 261.67 L 181.79 277.13 L 185.98 279.56 L 190.17 254.42 L 194.36 249.65 L 198.55 272.83 L 202.74 267.48 L 206.93 261.05 L 211.12 261.14 L 215.31 253.47 L 219.49 245.20 L 223.68 247.36 L 227.87 269.93 L 232.06 272.55 L 236.25 288.76 L 240.44 293.91 L 244.63 298.47 L 248.82 292.72 L 253.01 325.20 L 257.20 329.12 L 261.39 339.21 L 265.58 346.02 L 269.77 335.68 L 273.96 335.99 L 278.15 332.54 L 282.34 326.85 L 286.53 334.97 L 290.72 313.59 L 294.91 301.40 L 299.09 297.36 L 303.28 282.34 L 307.47 282.61 L 311.66 291.37 L 315.85 281.84 L 320.04 282.13 L 324.23 279.50 L 328.42 286.06 L 332.61 291.83 L 336.80 286.35 L 340.99 282.56 L 345.18 277.72 L 349.37 351.46 L 353.56 417.25 L 357.75 437.44 L 361.94 378.98 L 366.13 426.12 L 370.32 408.66 L 374.51 409.74 L 378.69 412.54 L 382.88 401.47 L 387.07 385.89 L 391.26 386.08 L 395.45 404.29 L 399.64 390.22 L 403.83 388.19 L 408.02 382.22 L 412.21 379.23 L 416.40 372.83 L 420.59 377.30 L 424.78 393.48 L 428.97 381.85 L 433.16 379.76 L 437.35 360.46 L 441.54 350.01 L 445.73 327.36 L 449.92 307.41 L 454.11 311.12 L 458.29 316.49 L 462.48 318.18 L 466.67 325.10 L 470.86 328.50 L 475.05 342.68 L 479.24 343.19 L 483.43 341.59 L 487.62 342.47 L 491.81 333.53 L 496.00 343.57 L 500.19 341.14 L 504.38 348.82 L 508.57 329.05 L 512.76 343.83 L 516.95 345.02 L 521.14 330.21 L 525.33 324.68 L 529.52 315.13 L 533.71 303.77 L 537.89 298.91 L 542.08 281.81 L 546.27 279.74 L 550.46 271.85 L 554.65 275.59 L 558.84 275.97 L 563.03 274.35 L 567.22 298.77 L 571.41 303.90 L 575.60 313.79 L 579.79 306.25 L 583.98 309.25 L 588.17 316.66 L 592.36 311.25 L 596.55 299.19 L 600.74 298.46 L 604.93 298.36 L 609.12 306.87 L 613.31 286.48 L 617.49 291.71 L 621.68 283.74 L 625.87 280.49 L 630.06 288.13 L 634.25 302.96 L 638.44 312.41 L 642.63 300.92 L 646.82 299.27 L 651.01 315.75 L 655.20 308.91 L 659.39 304.68 L 663.58 303.75 L 667.77 306.63 L 671.96 291.50 L 676.15 287.68 L 680.34 298.64 L 684.53 306.41 L 688.72 329.01 L 692.91 327.66 L 697.09 323.30 L 701.28 330.20 L 705.47 336.35 L 709.66 333.87 L 713.85 339.88 L 718.04 331.91 L 722.23 324.69 L 726.42 323.84 L 730.61 327.36 L 734.80 332.79 L 738.99 334.79 L 743.18 328.77 L 747.37 327.96 L 751.56 306.19 L 755.75 301.27 L 759.94 303.28 L 764.13 294.11 L 768.32 287.41 L 772.51 285.96 L 776.69 285.57 L 780.88 278.99 L 785.07 297.58 L 789.26 290.92 L 793.45 304.25 L 797.64 309.42 L 801.83 307.17 L 806.02 293.02 L 810.21 295.91 L 814.40 302.18 L 818.59 305.10 L 822.78 284.82 L 826.97 286.28 L 831.16 287.69 L 835.35 302.64 L 839.54 297.40 L 843.73 282.16 L 847.92 271.68 L 852.11 267.13 L 856.29 261.45 L 860.48 281.23 L 864.67 288.65 L 868.86 294.86 L 873.05 330.49 L 877.24 314.13 L 881.43 319.95 L 885.62 321.80 L 889.81 334.75 L 894.00 333.42 L 898.19 324.87 L 902.38 329.87 L 906.57 326.58 L 910.76 303.58 L 914.95 309.44 L 919.14 310.91 L 923.33 323.51 L 927.52 320.28 L 931.71 322.73 L 935.89 317.92 L 940.08 314.32 L 944.27 323.03 L 948.46 328.08 L 952.65 317.65 L 956.84 305.33 L 961.03 295.53 L 965.22 282.57 L 969.41 293.37 L 973.60 293.21 L 977.79 284.28 L 981.98 296.30 L 986.17 286.11 L 990.36 294.16 L 994.55 309.69 L 998.74 304.20 L 1002.93 299.72 L 1007.12 302.29 L 1011.31 294.97 L 1015.49 295.16 L 1019.68 284.05 L 1023.87 279.89 L 1028.06 288.79 L 1032.25 272.41 L 1036.44 273.03 L 1040.63 271.95 L 1044.82 283.86 L 1049.01 282.24 L 1053.20 279.84 L 1057.39 291.58 L 1061.58 298.48 L 1065.77 308.43 L 1069.96 332.65 L 1074.15 319.54 L 1078.34 332.86 L 1082.53 330.35 L 1086.72 327.18 L 1090.91 321.68 L 1095.09 324.05 L 1099.28 324.83 L 1103.47 330.54 L 1107.66 323.34 L 1111.85 319.44 L 1116.04 325.11 L 1120.23 320.54 L 1124.42 330.64 L 1128.61 337.60 L 1132.80 315.63 L 1136.99 321.40 L 1141.18 320.42 L 1145.37 309.62 L 1149.56 299.20 L 1153.75 307.74 L 1157.94 306.70 L 1162.13 306.99 L 1166.32 310.28 L 1170.51 286.29 L 1174.69 286.49 L 1178.88 284.37 L 1183.07 287.37 L 1187.26 283.70 L 1191.45 276.53 L 1195.64 267.36 L 1199.83 262.94 L 1204.02 282.48 L 1208.21 263.49 L 1212.40 244.96 L 1216.59 255.69 L 1220.78 231.58 L 1224.97 231.56 L 1229.16 236.30 L 1233.35 219.90 L 1237.54 240.95 L 1241.73 225.70 L 1245.92 217.60 L 1250.11 224.22 L 1254.29 217.08 L 1258.48 198.54 L 1262.67 170.09 L 1266.86 174.99 L 1271.05 165.90 L 1275.24 153.89 L 1279.43 152.88 L 1283.62 162.91 L 1287.81 176.82 L 1292.00 150.27" fill="none" stroke="#b45309" stroke-width="2" stroke-dasharray="6 4" />
  </g>
  <g>
    <text x="54" y="538" fill="#1f2937" font-size="16" font-weight="700">B. 绝对误差（越低越好）</text>
    <line x1="98" y1="540" x2="124" y2="540" stroke="#1d4ed8" stroke-width="2"  />
      <text x="130" y="544" fill="#24312e" font-size="12">持仓分段误差</text>
<line x1="313" y1="540" x2="339" y2="540" stroke="#b45309" stroke-width="2" stroke-dasharray="6 4" />
      <text x="345" y="544" fill="#24312e" font-size="12">持仓双目标误差</text>
    <line x1="98" y1="560.00" x2="1292" y2="560.00" stroke="#d7e3df" stroke-width="1" />
      <text x="90" y="564.00" text-anchor="end" fill="#5b6b68" font-size="11">12.30%</text>
<line x1="98" y1="630.00" x2="1292" y2="630.00" stroke="#d7e3df" stroke-width="1" />
      <text x="90" y="634.00" text-anchor="end" fill="#5b6b68" font-size="11">9.23%</text>
<line x1="98" y1="700.00" x2="1292" y2="700.00" stroke="#d7e3df" stroke-width="1" />
      <text x="90" y="704.00" text-anchor="end" fill="#5b6b68" font-size="11">6.15%</text>
<line x1="98" y1="770.00" x2="1292" y2="770.00" stroke="#d7e3df" stroke-width="1" />
      <text x="90" y="774.00" text-anchor="end" fill="#5b6b68" font-size="11">3.08%</text>
<line x1="98" y1="840.00" x2="1292" y2="840.00" stroke="#d7e3df" stroke-width="1" />
      <text x="90" y="844.00" text-anchor="end" fill="#5b6b68" font-size="11">0.00%</text>
    <line x1="98.00" y1="560" x2="98.00" y2="840" stroke="#eef3f1" stroke-width="1" />
      <text x="98.00" y="868" text-anchor="middle" fill="#5b6b68" font-size="11">25-01-02</text>
<line x1="290.72" y1="560" x2="290.72" y2="840" stroke="#eef3f1" stroke-width="1" />
      <text x="290.72" y="868" text-anchor="middle" fill="#5b6b68" font-size="11">25-03-17</text>
<line x1="479.24" y1="560" x2="479.24" y2="840" stroke="#eef3f1" stroke-width="1" />
      <text x="479.24" y="868" text-anchor="middle" fill="#5b6b68" font-size="11">25-05-23</text>
<line x1="697.09" y1="560" x2="697.09" y2="840" stroke="#eef3f1" stroke-width="1" />
      <text x="697.09" y="868" text-anchor="middle" fill="#5b6b68" font-size="11">25-08-06</text>
<line x1="910.76" y1="560" x2="910.76" y2="840" stroke="#eef3f1" stroke-width="1" />
      <text x="910.76" y="868" text-anchor="middle" fill="#5b6b68" font-size="11">25-10-24</text>
<line x1="1099.28" y1="560" x2="1099.28" y2="840" stroke="#eef3f1" stroke-width="1" />
      <text x="1099.28" y="868" text-anchor="middle" fill="#5b6b68" font-size="11">25-12-26</text>
<line x1="1292.00" y1="560" x2="1292.00" y2="840" stroke="#eef3f1" stroke-width="1" />
      <text x="1292.00" y="868" text-anchor="middle" fill="#5b6b68" font-size="11">26-03-12</text>
    <line x1="1116.04" y1="560" x2="1116.04" y2="840" stroke="#f59e0b" stroke-width="1.4" stroke-dasharray="4 4" />
       <text x="1122.04" y="552" fill="#a16207" font-size="11">验证起点</text>
    <path d="M 98.00 813.96 L 102.19 838.38 L 106.38 834.03 L 110.57 832.47 L 114.76 834.09 L 118.95 838.26 L 123.14 815.60 L 127.33 828.96 L 131.52 832.76 L 135.71 819.81 L 139.89 837.23 L 144.08 832.35 L 148.27 839.44 L 152.46 807.72 L 156.65 831.88 L 160.84 836.25 L 165.03 827.54 L 169.22 809.83 L 173.41 835.31 L 177.60 808.14 L 181.79 834.76 L 185.98 833.70 L 190.17 834.40 L 194.36 824.32 L 198.55 827.96 L 202.74 822.94 L 206.93 839.90 L 211.12 818.52 L 215.31 799.60 L 219.49 825.70 L 223.68 824.47 L 227.87 839.74 L 232.06 826.91 L 236.25 838.17 L 240.44 825.51 L 244.63 835.08 L 248.82 833.86 L 253.01 833.00 L 257.20 837.42 L 261.39 821.99 L 265.58 835.79 L 269.77 828.28 L 273.96 826.06 L 278.15 828.59 L 282.34 822.41 L 286.53 831.34 L 290.72 818.44 L 294.91 837.65 L 299.09 829.75 L 303.28 838.71 L 307.47 816.99 L 311.66 819.66 L 315.85 832.66 L 320.04 836.50 L 324.23 830.24 L 328.42 826.79 L 332.61 833.94 L 336.80 836.63 L 340.99 820.42 L 345.18 798.28 L 349.37 797.79 L 353.56 825.04 L 357.75 819.37 L 361.94 832.57 L 366.13 822.39 L 370.32 831.35 L 374.51 831.90 L 378.69 817.43 L 382.88 836.68 L 387.07 839.08 L 391.26 769.20 L 395.45 824.67 L 399.64 829.94 L 403.83 832.89 L 408.02 831.84 L 412.21 823.18 L 416.40 836.04 L 420.59 836.79 L 424.78 792.62 L 428.97 836.45 L 433.16 826.71 L 437.35 822.65 L 441.54 823.13 L 445.73 811.48 L 449.92 835.32 L 454.11 826.29 L 458.29 838.70 L 462.48 829.86 L 466.67 836.10 L 470.86 827.50 L 475.05 836.87 L 479.24 837.96 L 483.43 833.88 L 487.62 807.86 L 491.81 821.69 L 496.00 839.98 L 500.19 824.33 L 504.38 831.70 L 508.57 828.76 L 512.76 839.69 L 516.95 837.44 L 521.14 829.87 L 525.33 837.57 L 529.52 835.56 L 533.71 833.86 L 537.89 830.33 L 542.08 831.76 L 546.27 828.72 L 550.46 830.76 L 554.65 837.89 L 558.84 830.00 L 563.03 820.10 L 567.22 839.94 L 571.41 816.32 L 575.60 829.97 L 579.79 838.49 L 583.98 825.16 L 588.17 830.86 L 592.36 818.41 L 596.55 839.36 L 600.74 838.71 L 604.93 811.37 L 609.12 836.33 L 613.31 832.36 L 617.49 821.30 L 621.68 839.02 L 625.87 829.64 L 630.06 828.65 L 634.25 818.89 L 638.44 818.95 L 642.63 825.50 L 646.82 838.14 L 651.01 833.14 L 655.20 838.35 L 659.39 832.71 L 663.58 835.70 L 667.77 810.97 L 671.96 838.17 L 676.15 816.02 L 680.34 823.73 L 684.53 805.67 L 688.72 829.14 L 692.91 835.34 L 697.09 821.06 L 701.28 825.31 L 705.47 837.57 L 709.66 825.07 L 713.85 822.78 L 718.04 829.04 L 722.23 835.11 L 726.42 830.91 L 730.61 833.60 L 734.80 836.98 L 738.99 831.22 L 743.18 833.23 L 747.37 813.86 L 751.56 828.08 L 755.75 834.13 L 759.94 824.90 L 764.13 828.12 L 768.32 837.90 L 772.51 839.84 L 776.69 816.21 L 780.88 839.14 L 785.07 830.14 L 789.26 834.66 L 793.45 830.43 L 797.64 836.49 L 801.83 838.79 L 806.02 831.31 L 810.21 828.43 L 814.40 834.69 L 818.59 830.79 L 822.78 838.38 L 826.97 836.80 L 831.16 831.19 L 835.35 822.16 L 839.54 825.69 L 843.73 837.79 L 847.92 837.69 L 852.11 836.92 L 856.29 803.99 L 860.48 826.53 L 864.67 837.73 L 868.86 810.15 L 873.05 820.48 L 877.24 825.72 L 881.43 838.34 L 885.62 826.51 L 889.81 839.68 L 894.00 825.03 L 898.19 828.05 L 902.38 838.34 L 906.57 804.73 L 910.76 830.60 L 914.95 834.97 L 919.14 833.50 L 923.33 833.50 L 927.52 832.98 L 931.71 839.43 L 935.89 836.62 L 940.08 809.94 L 944.27 827.86 L 948.46 814.50 L 952.65 834.01 L 956.84 818.85 L 961.03 834.97 L 965.22 820.42 L 969.41 839.45 L 973.60 828.92 L 977.79 819.61 L 981.98 821.05 L 986.17 832.35 L 990.36 806.12 L 994.55 829.84 L 998.74 829.57 L 1002.93 839.10 L 1007.12 832.73 L 1011.31 838.81 L 1015.49 802.68 L 1019.68 834.90 L 1023.87 839.23 L 1028.06 829.92 L 1032.25 834.02 L 1036.44 832.70 L 1040.63 820.90 L 1044.82 838.04 L 1049.01 834.61 L 1053.20 814.91 L 1057.39 824.36 L 1061.58 827.72 L 1065.77 819.03 L 1069.96 825.36 L 1074.15 831.54 L 1078.34 833.45 L 1082.53 836.82 L 1086.72 829.24 L 1090.91 836.28 L 1095.09 837.33 L 1099.28 822.30 L 1103.47 829.50 L 1107.66 836.85 L 1111.85 829.52 L 1116.04 827.69 L 1120.23 833.60 L 1124.42 829.84 L 1128.61 822.94 L 1132.80 828.71 L 1136.99 837.34 L 1141.18 832.46 L 1145.37 836.92 L 1149.56 825.50 L 1153.75 838.03 L 1157.94 837.60 L 1162.13 829.95 L 1166.32 821.53 L 1170.51 837.47 L 1174.69 837.33 L 1178.88 828.90 L 1183.07 838.31 L 1187.26 830.01 L 1191.45 824.91 L 1195.64 839.58 L 1199.83 832.60 L 1204.02 838.03 L 1208.21 837.89 L 1212.40 818.63 L 1216.59 808.04 L 1220.78 839.23 L 1224.97 829.45 L 1229.16 832.79 L 1233.35 819.00 L 1237.54 811.01 L 1241.73 820.65 L 1245.92 828.42 L 1250.11 824.83 L 1254.29 838.01 L 1258.48 824.77 L 1262.67 833.50 L 1266.86 809.54 L 1271.05 821.64 L 1275.24 837.22 L 1279.43 819.00 L 1283.62 833.51 L 1287.81 833.86 L 1292.00 830.42" fill="none" stroke="#1d4ed8" stroke-width="2"  />
<path d="M 98.00 801.49 L 102.19 827.88 L 106.38 835.42 L 110.57 815.97 L 114.76 825.42 L 118.95 837.90 L 123.14 816.81 L 127.33 802.81 L 131.52 823.53 L 135.71 800.50 L 139.89 835.56 L 144.08 834.98 L 148.27 837.91 L 152.46 804.78 L 156.65 821.68 L 160.84 832.63 L 165.03 809.68 L 169.22 799.77 L 173.41 826.34 L 177.60 792.93 L 181.79 830.87 L 185.98 763.71 L 190.17 822.39 L 194.36 768.50 L 198.55 822.80 L 202.74 822.13 L 206.93 837.90 L 211.12 818.04 L 215.31 815.18 L 219.49 836.59 L 223.68 771.31 L 227.87 834.48 L 232.06 790.45 L 236.25 824.52 L 240.44 825.11 L 244.63 817.37 L 248.82 732.49 L 253.01 829.03 L 257.20 806.87 L 261.39 815.90 L 265.58 804.72 L 269.77 839.84 L 273.96 827.99 L 278.15 819.22 L 282.34 810.84 L 286.53 770.19 L 290.72 800.44 L 294.91 827.68 L 299.09 791.93 L 303.28 839.46 L 307.47 812.08 L 311.66 809.54 L 315.85 839.56 L 320.04 830.10 L 324.23 820.55 L 328.42 821.54 L 332.61 822.30 L 336.80 827.45 L 340.99 816.75 L 345.18 594.08 L 349.37 590.00 L 353.56 751.95 L 357.75 621.16 L 361.94 653.36 L 366.13 772.72 L 370.32 837.03 L 374.51 828.91 L 378.69 799.47 L 382.88 784.56 L 387.07 837.48 L 391.26 769.56 L 395.45 787.06 L 399.64 832.64 L 403.83 817.49 L 408.02 829.07 L 412.21 815.57 L 416.40 827.06 L 420.59 780.69 L 424.78 796.81 L 428.97 833.59 L 433.16 772.14 L 437.35 805.22 L 441.54 764.77 L 445.73 773.56 L 449.92 829.09 L 454.11 823.36 L 458.29 836.61 L 462.48 818.24 L 466.67 830.99 L 470.86 792.61 L 475.05 838.94 L 479.24 836.34 L 483.43 835.20 L 487.62 807.70 L 491.81 805.83 L 496.00 829.75 L 500.19 811.41 L 504.38 770.97 L 508.57 790.43 L 512.76 834.89 L 516.95 789.76 L 521.14 821.86 L 525.33 809.06 L 529.52 802.84 L 533.71 825.33 L 537.89 784.95 L 542.08 833.54 L 546.27 814.20 L 550.46 826.54 L 554.65 836.98 L 558.84 831.57 L 563.03 763.43 L 567.22 825.06 L 571.41 807.29 L 575.60 814.03 L 579.79 831.98 L 583.98 815.88 L 588.17 822.51 L 592.36 800.32 L 596.55 839.46 L 600.74 838.51 L 604.93 810.39 L 609.12 773.83 L 613.31 823.80 L 617.49 814.80 L 621.68 828.08 L 625.87 818.42 L 630.06 793.79 L 634.25 808.74 L 638.44 801.46 L 642.63 831.71 L 646.82 785.56 L 651.01 817.64 L 655.20 826.14 L 659.39 835.48 L 663.58 830.18 L 667.77 791.69 L 671.96 826.08 L 676.15 806.34 L 680.34 817.67 L 684.53 765.21 L 688.72 835.24 L 692.91 824.29 L 697.09 818.04 L 701.28 819.24 L 705.47 830.04 L 709.66 819.73 L 713.85 813.22 L 718.04 814.90 L 722.23 836.10 L 726.42 830.03 L 730.61 822.83 L 734.80 833.33 L 738.99 819.39 L 743.18 838.33 L 747.37 768.86 L 751.56 823.10 L 755.75 833.49 L 759.94 810.58 L 764.13 818.14 L 768.32 837.19 L 772.51 839.42 L 776.69 816.04 L 780.88 780.30 L 785.07 816.25 L 789.26 798.34 L 793.45 823.84 L 797.64 833.59 L 801.83 793.90 L 806.02 832.27 L 810.21 821.16 L 814.40 829.16 L 818.59 774.96 L 822.78 836.74 L 826.97 838.29 L 831.16 792.69 L 835.35 823.70 L 839.54 792.40 L 843.73 807.29 L 847.92 826.07 L 852.11 820.27 L 856.29 779.50 L 860.48 818.60 L 864.67 824.50 L 868.86 719.18 L 873.05 784.92 L 877.24 821.70 L 881.43 836.17 L 885.62 796.69 L 889.81 835.78 L 894.00 810.18 L 898.19 823.33 L 902.38 830.08 L 906.57 763.89 L 910.76 821.68 L 914.95 837.63 L 919.14 798.58 L 923.33 828.17 L 927.52 831.76 L 931.71 823.72 L 935.89 827.22 L 940.08 812.24 L 944.27 823.38 L 948.46 806.35 L 952.65 799.93 L 956.84 809.21 L 961.03 797.37 L 965.22 806.34 L 969.41 839.81 L 973.60 809.49 L 977.79 801.42 L 981.98 805.76 L 986.17 816.38 L 990.36 789.58 L 994.55 821.72 L 998.74 824.25 L 1002.93 831.59 L 1007.12 818.34 L 1011.31 837.57 L 1015.49 804.82 L 1019.68 824.69 L 1023.87 810.94 L 1028.06 788.52 L 1032.25 839.18 L 1036.44 834.40 L 1040.63 802.90 L 1044.82 834.97 L 1049.01 830.67 L 1053.20 803.88 L 1057.39 819.82 L 1061.58 811.10 L 1065.77 756.48 L 1069.96 794.03 L 1074.15 795.74 L 1078.34 831.40 L 1082.53 829.13 L 1086.72 820.44 L 1090.91 830.27 L 1095.09 835.60 L 1099.28 820.55 L 1103.47 815.97 L 1107.66 825.53 L 1111.85 820.85 L 1116.04 822.21 L 1120.23 808.08 L 1124.42 814.72 L 1128.61 766.16 L 1132.80 821.81 L 1136.99 837.09 L 1141.18 805.49 L 1145.37 804.62 L 1149.56 813.10 L 1153.75 838.41 L 1157.94 837.25 L 1162.13 827.72 L 1166.32 763.35 L 1170.51 839.57 L 1174.69 832.50 L 1178.88 830.72 L 1183.07 828.50 L 1187.26 817.69 L 1191.45 811.99 L 1195.64 823.36 L 1199.83 776.71 L 1204.02 783.46 L 1208.21 782.64 L 1212.40 806.43 L 1216.59 768.39 L 1220.78 838.66 L 1224.97 824.93 L 1229.16 789.75 L 1233.35 777.19 L 1237.54 795.23 L 1241.73 815.15 L 1245.92 821.19 L 1250.11 820.53 L 1254.29 788.91 L 1258.48 761.04 L 1262.67 828.01 L 1266.86 815.48 L 1271.05 807.26 L 1275.24 835.74 L 1279.43 815.72 L 1283.62 799.97 L 1287.81 770.08 L 1292.00 812.96" fill="none" stroke="#b45309" stroke-width="2" stroke-dasharray="6 4" />
  </g>
</svg>