<?xml version="1.0" encoding="UTF-8"?>
<svg xmlns="http://www.w3.org/2000/svg" width="1360" height="980" viewBox="0 0 1360 980">
  <defs>
    <linearGradient id="bg" x1="0" y1="0" x2="1" y2="1">
      <stop offset="0%" stop-color="#f4efe6" />
      <stop offset="100%" stop-color="#eef5f2" />
    </linearGradient>
  </defs>
  <rect x="0" y="0" width="1360" height="980" fill="url(#bg)" />
  <text x="46" y="36" fill="#1f2937" font-size="31" font-weight="700">162719 离线研究图（持仓逐日估值版）</text>
  <text x="46" y="66" fill="#5b6b68" font-size="13">历史前十大持仓 + 持仓逐日涨跌幅 + USDCNY；双目标 lambda=0.10；披露期数 35；覆盖率均值 92.1%</text>
  <g>
    <text x="54" y="110" fill="#1f2937" font-size="16" font-weight="700">A. 净值拟合（同日对齐，无平移）</text>
    <line x1="98" y1="112" x2="124" y2="112" stroke="#0f766e" stroke-width="2"  />
      <text x="130" y="116" fill="#24312e" font-size="12">真实净值</text>
<line x1="313" y1="112" x2="339" y2="112" stroke="#1d4ed8" stroke-width="2"  />
      <text x="345" y="116" fill="#24312e" font-size="12">持仓分段估值</text>
<line x1="528" y1="112" x2="554" y2="112" stroke="#b45309" stroke-width="2" stroke-dasharray="6 4" />
      <text x="560" y="116" fill="#24312e" font-size="12">持仓双目标估值</text>
    <line x1="98" y1="132.00" x2="1292" y2="132.00" stroke="#d7e3df" stroke-width="1" />
      <text x="90" y="136.00" text-anchor="end" fill="#5b6b68" font-size="11">2.739</text>
<line x1="98" y1="209.50" x2="1292" y2="209.50" stroke="#d7e3df" stroke-width="1" />
      <text x="90" y="213.50" text-anchor="end" fill="#5b6b68" font-size="11">2.527</text>
<line x1="98" y1="287.00" x2="1292" y2="287.00" stroke="#d7e3df" stroke-width="1" />
      <text x="90" y="291.00" text-anchor="end" fill="#5b6b68" font-size="11">2.314</text>
<line x1="98" y1="364.50" x2="1292" y2="364.50" stroke="#d7e3df" stroke-width="1" />
      <text x="90" y="368.50" text-anchor="end" fill="#5b6b68" font-size="11">2.102</text>
<line x1="98" y1="442.00" x2="1292" y2="442.00" stroke="#d7e3df" stroke-width="1" />
      <text x="90" y="446.00" text-anchor="end" fill="#5b6b68" font-size="11">1.890</text>
    <line x1="98.00" y1="132" x2="98.00" y2="442" stroke="#eef3f1" stroke-width="1" />
      <text x="98.00" y="470" text-anchor="middle" fill="#5b6b68" font-size="11">25-01-02</text>
<line x1="290.72" y1="132" x2="290.72" y2="442" stroke="#eef3f1" stroke-width="1" />
      <text x="290.72" y="470" text-anchor="middle" fill="#5b6b68" font-size="11">25-03-17</text>
<line x1="479.24" y1="132" x2="479.24" y2="442" stroke="#eef3f1" stroke-width="1" />
      <text x="479.24" y="470" text-anchor="middle" fill="#5b6b68" font-size="11">25-05-23</text>
<line x1="697.09" y1="132" x2="697.09" y2="442" stroke="#eef3f1" stroke-width="1" />
      <text x="697.09" y="470" text-anchor="middle" fill="#5b6b68" font-size="11">25-08-06</text>
<line x1="910.76" y1="132" x2="910.76" y2="442" stroke="#eef3f1" stroke-width="1" />
      <text x="910.76" y="470" text-anchor="middle" fill="#5b6b68" font-size="11">25-10-24</text>
<line x1="1099.28" y1="132" x2="1099.28" y2="442" stroke="#eef3f1" stroke-width="1" />
      <text x="1099.28" y="470" text-anchor="middle" fill="#5b6b68" font-size="11">25-12-26</text>
<line x1="1292.00" y1="132" x2="1292.00" y2="442" stroke="#eef3f1" stroke-width="1" />
      <text x="1292.00" y="470" text-anchor="middle" fill="#5b6b68" font-size="11">26-03-12</text>
    <line x1="1116.04" y1="132" x2="1116.04" y2="442" stroke="#f59e0b" stroke-width="1.4" stroke-dasharray="4 4" />
       <text x="1122.04" y="124" fill="#a16207" font-size="11">验证起点</text>
    <path d="M 98.00 298.78 L 102.19 292.13 L 106.38 295.38 L 110.57 286.15 L 114.76 281.15 L 118.95 281.15 L 123.14 274.32 L 127.33 258.58 L 131.52 251.10 L 135.71 238.18 L 139.89 233.79 L 144.08 233.58 L 148.27 233.65 L 152.46 244.16 L 156.65 253.66 L 160.84 246.79 L 165.03 258.95 L 169.22 270.74 L 173.41 272.31 L 177.60 287.61 L 181.79 292.72 L 185.98 269.28 L 190.17 258.51 L 194.36 285.16 L 198.55 281.91 L 202.74 275.71 L 206.93 275.82 L 211.12 265.59 L 215.31 254.39 L 219.49 248.22 L 223.68 275.16 L 227.87 276.11 L 232.06 291.04 L 236.25 297.10 L 240.44 297.03 L 244.63 287.24 L 248.82 323.61 L 253.01 329.01 L 257.20 341.46 L 261.39 346.93 L 265.58 333.17 L 269.77 329.26 L 273.96 325.58 L 278.15 317.51 L 282.34 328.21 L 286.53 304.47 L 290.72 293.23 L 294.91 288.48 L 299.09 274.43 L 303.28 271.98 L 307.47 281.36 L 311.66 270.52 L 315.85 269.65 L 320.04 266.10 L 324.23 275.60 L 328.42 281.77 L 332.61 270.52 L 336.80 264.53 L 340.99 258.33 L 345.18 342.19 L 349.37 416.04 L 353.56 438.53 L 357.75 369.93 L 361.94 425.10 L 366.13 405.89 L 370.32 405.53 L 374.51 408.92 L 378.69 400.16 L 382.88 383.59 L 387.07 383.77 L 391.26 402.50 L 395.45 383.70 L 399.64 379.06 L 403.83 370.30 L 408.02 369.02 L 412.21 361.46 L 416.40 365.66 L 420.59 383.48 L 424.78 376.47 L 428.97 375.92 L 433.16 361.28 L 437.35 352.59 L 441.54 329.34 L 445.73 310.10 L 449.92 314.59 L 454.11 315.24 L 458.29 316.92 L 462.48 326.23 L 466.67 330.69 L 470.86 348.25 L 475.05 351.42 L 479.24 352.05 L 483.43 352.96 L 487.62 344.89 L 491.81 355.40 L 496.00 350.99 L 500.19 359.60 L 504.38 338.24 L 508.57 354.60 L 512.76 356.68 L 516.95 341.57 L 521.14 338.46 L 525.33 326.45 L 529.52 314.73 L 533.71 309.04 L 537.89 292.28 L 542.08 294.80 L 546.27 286.70 L 550.46 293.27 L 554.65 293.63 L 558.84 287.75 L 563.03 311.92 L 567.22 319.74 L 571.41 328.24 L 575.60 319.08 L 579.79 323.24 L 583.98 329.74 L 588.17 321.96 L 592.36 308.02 L 596.55 308.67 L 600.74 308.56 L 604.93 318.02 L 609.12 295.82 L 613.31 301.99 L 617.49 294.73 L 621.68 293.52 L 625.87 300.64 L 630.06 314.81 L 634.25 325.36 L 638.44 315.83 L 642.63 314.99 L 646.82 331.16 L 651.01 324.15 L 655.20 317.80 L 659.39 317.76 L 663.58 321.20 L 667.77 304.88 L 671.96 297.39 L 676.15 309.26 L 680.34 315.79 L 684.53 339.74 L 688.72 337.70 L 692.91 333.94 L 697.09 341.28 L 701.28 349.38 L 705.47 344.89 L 709.66 350.48 L 713.85 343.61 L 718.04 334.67 L 722.23 333.02 L 726.42 334.74 L 730.61 342.37 L 734.80 342.77 L 738.99 335.32 L 743.18 335.07 L 747.37 313.60 L 751.56 309.40 L 755.75 310.75 L 759.94 302.14 L 764.13 294.76 L 768.32 293.12 L 772.51 292.68 L 776.69 286.37 L 780.88 309.99 L 785.07 302.80 L 789.26 317.25 L 793.45 322.95 L 797.64 320.03 L 801.83 306.19 L 806.02 308.09 L 810.21 316.52 L 814.40 320.54 L 818.59 302.07 L 822.78 303.12 L 826.97 306.04 L 831.16 318.46 L 835.35 316.23 L 839.54 301.48 L 843.73 286.95 L 847.92 278.26 L 852.11 269.32 L 856.29 289.03 L 860.48 297.47 L 864.67 310.21 L 868.86 343.39 L 873.05 329.52 L 877.24 333.32 L 881.43 332.81 L 885.62 346.17 L 889.81 343.58 L 894.00 333.97 L 898.19 340.00 L 902.38 334.23 L 906.57 311.59 L 910.76 319.95 L 914.95 318.71 L 919.14 333.75 L 923.33 327.11 L 927.52 329.12 L 931.71 324.08 L 935.89 317.84 L 940.08 327.07 L 944.27 328.57 L 948.46 319.77 L 952.65 310.68 L 956.84 301.12 L 961.03 284.07 L 965.22 295.17 L 969.41 295.53 L 973.60 281.11 L 977.79 297.57 L 981.98 286.99 L 986.17 299.07 L 990.36 315.39 L 994.55 309.18 L 998.74 306.48 L 1002.93 311.30 L 1007.12 303.05 L 1011.31 303.27 L 1015.49 289.80 L 1019.68 280.67 L 1023.87 291.62 L 1028.06 274.50 L 1032.25 273.19 L 1036.44 271.29 L 1040.63 281.88 L 1044.82 280.82 L 1049.01 270.05 L 1053.20 282.57 L 1057.39 292.43 L 1061.58 301.12 L 1065.77 333.50 L 1069.96 314.84 L 1074.15 333.43 L 1078.34 332.91 L 1082.53 329.23 L 1086.72 326.31 L 1090.91 331.78 L 1095.09 332.66 L 1099.28 336.89 L 1103.47 329.23 L 1107.66 323.02 L 1111.85 330.03 L 1116.04 310.83 L 1120.23 324.41 L 1124.42 332.29 L 1128.61 308.38 L 1132.80 316.81 L 1136.99 321.09 L 1141.18 311.89 L 1145.37 295.42 L 1149.56 306.70 L 1153.75 309.11 L 1157.94 309.48 L 1162.13 313.05 L 1166.32 290.67 L 1170.51 292.65 L 1174.69 287.83 L 1178.88 290.57 L 1183.07 286.11 L 1187.26 276.76 L 1191.45 268.26 L 1195.64 264.53 L 1199.83 278.96 L 1204.02 262.49 L 1208.21 244.93 L 1212.40 252.82 L 1216.59 236.72 L 1220.78 237.30 L 1224.97 241.06 L 1229.16 219.70 L 1233.35 235.91 L 1237.54 220.76 L 1241.73 215.43 L 1245.92 223.46 L 1250.11 218.50 L 1254.29 200.35 L 1258.48 169.39 L 1262.67 174.54 L 1266.86 170.78 L 1271.05 160.96 L 1275.24 159.21 L 1279.43 161.51 L 1283.62 181.15 L 1287.81 151.10 L 1292.00 136.97" fill="none" stroke="#0f766e" stroke-width="2"  />
<path d="M 98.00 305.90 L 102.19 291.82 L 106.38 292.34 L 110.57 289.24 L 114.76 284.24 L 118.95 280.71 L 123.14 281.03 L 127.33 254.97 L 131.52 253.90 L 135.71 239.11 L 139.89 236.39 L 144.08 231.90 L 148.27 234.20 L 152.46 234.21 L 156.65 249.99 L 160.84 247.94 L 165.03 253.87 L 169.22 260.53 L 173.41 279.65 L 177.60 279.20 L 181.79 289.80 L 185.98 275.48 L 190.17 257.78 L 194.36 278.63 L 198.55 282.65 L 202.74 280.24 L 206.93 273.73 L 211.12 275.20 L 215.31 252.15 L 219.49 248.42 L 223.68 264.91 L 227.87 282.08 L 232.06 283.34 L 236.25 295.19 L 240.44 292.11 L 244.63 291.62 L 248.82 312.53 L 253.01 328.30 L 257.20 340.61 L 261.39 339.26 L 265.58 337.42 L 269.77 327.18 L 273.96 331.13 L 278.15 322.09 L 282.34 321.60 L 286.53 310.23 L 290.72 288.63 L 294.91 291.85 L 299.09 276.23 L 303.28 272.23 L 307.47 274.01 L 311.66 280.76 L 315.85 269.71 L 320.04 264.79 L 324.23 270.90 L 328.42 279.33 L 332.61 277.83 L 336.80 267.42 L 340.99 263.30 L 345.18 335.69 L 349.37 427.45 L 353.56 432.95 L 357.75 368.00 L 361.94 422.06 L 366.13 412.37 L 370.32 400.11 L 374.51 408.08 L 378.69 404.17 L 382.88 382.86 L 387.07 383.69 L 391.26 384.35 L 395.45 382.61 L 399.64 383.66 L 403.83 369.93 L 408.02 370.75 L 412.21 367.40 L 416.40 363.79 L 420.59 378.14 L 424.78 388.54 L 428.97 377.42 L 433.16 360.38 L 437.35 356.86 L 441.54 328.32 L 445.73 316.56 L 449.92 312.56 L 454.11 314.97 L 458.29 316.21 L 462.48 323.64 L 466.67 329.35 L 470.86 343.29 L 475.05 348.83 L 479.24 352.23 L 483.43 352.78 L 487.62 352.65 L 491.81 349.88 L 496.00 351.84 L 500.19 354.60 L 504.38 343.04 L 508.57 349.61 L 512.76 356.02 L 516.95 343.17 L 521.14 334.97 L 525.33 324.56 L 529.52 315.11 L 533.71 313.26 L 537.89 295.52 L 542.08 290.57 L 546.27 289.40 L 550.46 290.81 L 554.65 293.27 L 558.84 293.83 L 563.03 304.01 L 567.22 318.17 L 571.41 321.28 L 575.60 322.59 L 579.79 321.06 L 583.98 328.87 L 588.17 319.25 L 592.36 309.08 L 596.55 307.84 L 600.74 308.55 L 604.93 309.81 L 609.12 295.26 L 613.31 298.21 L 617.49 298.70 L 621.68 294.40 L 625.87 301.03 L 630.06 306.51 L 634.25 319.79 L 638.44 319.63 L 642.63 318.17 L 646.82 319.32 L 651.01 327.44 L 655.20 318.65 L 659.39 318.14 L 663.58 318.91 L 667.77 310.96 L 671.96 301.04 L 676.15 303.73 L 680.34 312.48 L 684.53 328.21 L 688.72 347.98 L 692.91 335.79 L 697.09 337.80 L 701.28 344.06 L 705.47 346.00 L 709.66 348.24 L 713.85 346.54 L 718.04 338.47 L 722.23 334.32 L 726.42 333.47 L 730.61 338.34 L 734.80 343.30 L 738.99 339.62 L 743.18 333.66 L 747.37 317.02 L 751.56 307.38 L 755.75 310.79 L 759.94 301.60 L 764.13 299.88 L 768.32 292.60 L 772.51 294.36 L 776.69 292.26 L 780.88 303.53 L 785.07 307.06 L 789.26 314.17 L 793.45 323.89 L 797.64 321.51 L 801.83 308.57 L 806.02 306.37 L 810.21 312.12 L 814.40 321.89 L 818.59 305.76 L 822.78 300.82 L 826.97 305.41 L 831.16 311.10 L 835.35 323.10 L 839.54 305.59 L 843.73 290.53 L 847.92 281.72 L 852.11 272.57 L 856.29 282.73 L 860.48 292.99 L 864.67 305.77 L 868.86 334.57 L 873.05 342.07 L 877.24 330.45 L 881.43 334.86 L 885.62 337.59 L 889.81 344.85 L 894.00 340.46 L 898.19 336.11 L 902.38 334.10 L 906.57 321.85 L 910.76 315.46 L 914.95 321.84 L 919.14 325.26 L 923.33 328.58 L 927.52 329.21 L 931.71 326.33 L 935.89 322.41 L 940.08 323.06 L 944.27 328.12 L 948.46 324.95 L 952.65 310.00 L 956.84 303.53 L 961.03 288.37 L 965.22 289.40 L 969.41 295.34 L 973.60 283.45 L 977.79 287.81 L 981.98 292.24 L 986.17 293.43 L 990.36 304.52 L 994.55 312.73 L 998.74 307.42 L 1002.93 309.32 L 1007.12 307.71 L 1011.31 303.05 L 1015.49 303.56 L 1019.68 280.08 L 1023.87 285.55 L 1028.06 281.62 L 1032.25 272.55 L 1036.44 274.15 L 1040.63 273.53 L 1044.82 280.32 L 1049.01 269.55 L 1053.20 274.43 L 1057.39 285.66 L 1061.58 300.06 L 1065.77 322.91 L 1069.96 318.31 L 1074.15 328.89 L 1078.34 333.25 L 1082.53 331.06 L 1086.72 328.07 L 1090.91 328.42 L 1095.09 331.95 L 1099.28 332.82 L 1103.47 334.59 L 1107.66 325.45 L 1111.85 325.20 L 1116.04 306.44 L 1120.23 325.44 L 1124.42 330.49 L 1128.61 306.90 L 1132.80 309.46 L 1136.99 321.44 L 1141.18 311.42 L 1145.37 294.85 L 1149.56 302.58 L 1153.75 308.81 L 1157.94 310.34 L 1162.13 309.92 L 1166.32 297.63 L 1170.51 291.83 L 1174.69 289.06 L 1178.88 288.36 L 1183.07 285.44 L 1187.26 281.90 L 1191.45 270.81 L 1195.64 263.97 L 1199.83 275.48 L 1204.02 258.43 L 1208.21 240.91 L 1212.40 249.92 L 1216.59 240.20 L 1220.78 232.73 L 1224.97 239.16 L 1229.16 222.81 L 1233.35 233.22 L 1237.54 229.69 L 1241.73 222.36 L 1245.92 219.32 L 1250.11 223.03 L 1254.29 203.88 L 1258.48 173.19 L 1262.67 171.13 L 1266.86 174.01 L 1271.05 164.69 L 1275.24 158.03 L 1279.43 160.93 L 1283.62 175.03 L 1287.81 158.27 L 1292.00 139.11" fill="none" stroke="#1d4ed8" stroke-width="2"  />
<path d="M 98.00 311.21 L 102.19 298.70 L 106.38 292.58 L 110.57 295.29 L 114.76 286.36 L 118.95 280.28 L 123.14 280.28 L 127.33 273.95 L 131.52 258.59 L 135.71 250.92 L 139.89 238.39 L 144.08 234.00 L 148.27 232.66 L 152.46 232.73 L 156.65 244.83 L 160.84 253.65 L 165.03 247.48 L 169.22 259.25 L 173.41 271.43 L 177.60 273.11 L 181.79 288.02 L 185.98 292.25 L 190.17 269.09 L 194.36 259.76 L 198.55 285.25 L 202.74 282.02 L 206.93 274.83 L 211.12 274.94 L 215.31 265.39 L 219.49 254.28 L 223.68 249.27 L 227.87 275.46 L 232.06 276.91 L 236.25 291.57 L 240.44 297.10 L 244.63 296.99 L 248.82 288.84 L 253.01 324.15 L 257.20 329.79 L 261.39 341.56 L 265.58 346.72 L 269.77 333.29 L 273.96 329.60 L 278.15 325.63 L 282.34 318.07 L 286.53 327.66 L 290.72 304.29 L 294.91 293.39 L 299.09 288.26 L 303.28 274.59 L 307.47 272.44 L 311.66 281.37 L 315.85 270.76 L 320.04 269.64 L 324.23 266.74 L 328.42 276.14 L 332.61 281.64 L 336.80 270.63 L 340.99 264.73 L 345.18 261.65 L 349.37 345.19 L 353.56 417.15 L 357.75 436.30 L 361.94 372.26 L 366.13 424.70 L 370.32 406.08 L 374.51 405.95 L 378.69 408.83 L 382.88 399.65 L 387.07 382.82 L 391.26 383.01 L 395.45 401.92 L 399.64 383.88 L 403.83 378.90 L 408.02 370.57 L 412.21 369.04 L 416.40 361.84 L 420.59 366.56 L 424.78 383.59 L 428.97 376.79 L 433.16 375.44 L 437.35 361.23 L 441.54 351.87 L 445.73 328.95 L 449.92 310.57 L 454.11 314.90 L 458.29 315.58 L 462.48 317.67 L 466.67 326.76 L 470.86 331.63 L 475.05 348.55 L 479.24 351.68 L 483.43 351.25 L 487.62 352.16 L 491.81 345.52 L 496.00 355.43 L 500.19 351.53 L 504.38 359.02 L 508.57 339.08 L 512.76 354.93 L 516.95 356.33 L 521.14 341.62 L 525.33 338.09 L 529.52 326.18 L 533.71 314.88 L 537.89 308.71 L 542.08 292.72 L 546.27 294.73 L 550.46 287.29 L 554.65 292.41 L 558.84 292.77 L 563.03 288.93 L 567.22 312.64 L 571.41 320.12 L 575.60 328.13 L 579.79 319.49 L 583.98 323.75 L 588.17 329.47 L 592.36 321.66 L 596.55 308.25 L 600.74 307.83 L 604.93 307.72 L 609.12 317.27 L 613.31 296.29 L 617.49 302.03 L 621.68 294.96 L 625.87 294.26 L 630.06 301.37 L 634.25 315.45 L 638.44 325.25 L 642.63 316.26 L 646.82 315.46 L 651.01 331.17 L 655.20 324.02 L 659.39 318.08 L 663.58 318.14 L 667.77 320.84 L 671.96 304.90 L 676.15 298.16 L 680.34 309.80 L 684.53 316.73 L 688.72 339.95 L 692.91 337.84 L 697.09 334.47 L 701.28 341.70 L 705.47 349.42 L 709.66 345.43 L 713.85 350.48 L 718.04 343.50 L 722.23 334.89 L 726.42 333.32 L 730.61 335.16 L 734.80 342.69 L 738.99 342.82 L 743.18 335.48 L 747.37 334.52 L 751.56 313.66 L 755.75 309.78 L 759.94 310.59 L 764.13 302.19 L 768.32 294.90 L 772.51 292.26 L 776.69 291.82 L 780.88 287.53 L 785.07 310.06 L 789.26 303.63 L 793.45 317.64 L 797.64 323.10 L 801.83 319.80 L 806.02 306.49 L 810.21 308.66 L 814.40 316.95 L 818.59 320.14 L 822.78 302.24 L 826.97 303.57 L 831.16 306.72 L 835.35 318.77 L 839.54 316.00 L 843.73 301.28 L 847.92 286.90 L 852.11 278.20 L 856.29 270.36 L 860.48 289.62 L 864.67 298.18 L 868.86 311.49 L 873.05 343.15 L 877.24 329.85 L 881.43 333.65 L 885.62 333.41 L 889.81 346.33 L 894.00 343.59 L 898.19 334.37 L 902.38 339.89 L 906.57 333.77 L 910.76 312.13 L 914.95 320.19 L 919.14 319.43 L 923.33 333.69 L 927.52 327.53 L 931.71 329.20 L 935.89 324.37 L 940.08 318.48 L 944.27 327.40 L 948.46 328.57 L 952.65 319.60 L 956.84 310.67 L 961.03 300.80 L 965.22 284.73 L 969.41 295.40 L 973.60 295.25 L 977.79 282.00 L 981.98 297.51 L 986.17 287.74 L 990.36 299.75 L 994.55 315.47 L 998.74 309.44 L 1002.93 306.90 L 1007.12 311.31 L 1011.31 302.20 L 1015.49 302.42 L 1019.68 289.64 L 1023.87 281.30 L 1028.06 291.45 L 1032.25 274.68 L 1036.44 273.54 L 1040.63 271.79 L 1044.82 282.05 L 1049.01 280.58 L 1053.20 270.66 L 1057.39 283.08 L 1061.58 293.04 L 1065.77 302.46 L 1069.96 333.09 L 1074.15 315.80 L 1078.34 333.66 L 1082.53 333.00 L 1086.72 329.38 L 1090.91 326.68 L 1095.09 330.96 L 1099.28 331.84 L 1103.47 336.87 L 1107.66 329.21 L 1111.85 323.43 L 1116.04 329.22 L 1120.23 311.77 L 1124.42 325.11 L 1128.61 331.48 L 1132.80 308.71 L 1136.99 317.22 L 1141.18 320.93 L 1145.37 311.41 L 1149.56 296.17 L 1153.75 307.10 L 1157.94 308.27 L 1162.13 308.64 L 1166.32 312.64 L 1170.51 291.02 L 1174.69 292.67 L 1178.88 288.19 L 1183.07 290.51 L 1187.26 286.08 L 1191.45 276.65 L 1195.64 268.28 L 1199.83 265.37 L 1204.02 278.26 L 1208.21 261.73 L 1212.40 245.60 L 1216.59 252.46 L 1220.78 236.89 L 1224.97 237.70 L 1229.16 240.45 L 1233.35 220.71 L 1237.54 235.79 L 1241.73 221.14 L 1245.92 216.01 L 1250.11 223.66 L 1254.29 218.17 L 1258.48 199.61 L 1262.67 169.89 L 1266.86 174.82 L 1271.05 170.69 L 1275.24 161.15 L 1279.43 159.68 L 1283.62 162.40 L 1287.81 180.46 L 1292.00 150.89" fill="none" stroke="#b45309" stroke-width="2" stroke-dasharray="6 4" />
  </g>
  <g>
    <text x="54" y="538" fill="#1f2937" font-size="16" font-weight="700">B. 绝对误差（越低越好）</text>
    <line x1="98" y1="540" x2="124" y2="540" stroke="#1d4ed8" stroke-width="2"  />
      <text x="130" y="544" fill="#24312e" font-size="12">持仓分段误差</text>
<line x1="313" y1="540" x2="339" y2="540" stroke="#b45309" stroke-width="2" stroke-dasharray="6 4" />
      <text x="345" y="544" fill="#24312e" font-size="12">持仓双目标误差</text>
    <line x1="98" y1="560.00" x2="1292" y2="560.00" stroke="#d7e3df" stroke-width="1" />
      <text x="90" y="564.00" text-anchor="end" fill="#5b6b68" font-size="11">11.42%</text>
<line x1="98" y1="630.00" x2="1292" y2="630.00" stroke="#d7e3df" stroke-width="1" />
      <text x="90" y="634.00" text-anchor="end" fill="#5b6b68" font-size="11">8.57%</text>
<line x1="98" y1="700.00" x2="1292" y2="700.00" stroke="#d7e3df" stroke-width="1" />
      <text x="90" y="704.00" text-anchor="end" fill="#5b6b68" font-size="11">5.71%</text>
<line x1="98" y1="770.00" x2="1292" y2="770.00" stroke="#d7e3df" stroke-width="1" />
      <text x="90" y="774.00" text-anchor="end" fill="#5b6b68" font-size="11">2.86%</text>
<line x1="98" y1="840.00" x2="1292" y2="840.00" stroke="#d7e3df" stroke-width="1" />
      <text x="90" y="844.00" text-anchor="end" fill="#5b6b68" font-size="11">0.00%</text>
    <line x1="98.00" y1="560" x2="98.00" y2="840" stroke="#eef3f1" stroke-width="1" />
      <text x="98.00" y="868" text-anchor="middle" fill="#5b6b68" font-size="11">25-01-02</text>
<line x1="290.72" y1="560" x2="290.72" y2="840" stroke="#eef3f1" stroke-width="1" />
      <text x="290.72" y="868" text-anchor="middle" fill="#5b6b68" font-size="11">25-03-17</text>
<line x1="479.24" y1="560" x2="479.24" y2="840" stroke="#eef3f1" stroke-width="1" />
      <text x="479.24" y="868" text-anchor="middle" fill="#5b6b68" font-size="11">25-05-23</text>
<line x1="697.09" y1="560" x2="697.09" y2="840" stroke="#eef3f1" stroke-width="1" />
      <text x="697.09" y="868" text-anchor="middle" fill="#5b6b68" font-size="11">25-08-06</text>
<line x1="910.76" y1="560" x2="910.76" y2="840" stroke="#eef3f1" stroke-width="1" />
      <text x="910.76" y="868" text-anchor="middle" fill="#5b6b68" font-size="11">25-10-24</text>
<line x1="1099.28" y1="560" x2="1099.28" y2="840" stroke="#eef3f1" stroke-width="1" />
      <text x="1099.28" y="868" text-anchor="middle" fill="#5b6b68" font-size="11">25-12-26</text>
<line x1="1292.00" y1="560" x2="1292.00" y2="840" stroke="#eef3f1" stroke-width="1" />
      <text x="1292.00" y="868" text-anchor="middle" fill="#5b6b68" font-size="11">26-03-12</text>
    <line x1="1116.04" y1="560" x2="1116.04" y2="840" stroke="#f59e0b" stroke-width="1.4" stroke-dasharray="4 4" />
       <text x="1122.04" y="552" fill="#a16207" font-size="11">验证起点</text>
    <path d="M 98.00 819.04 L 102.19 839.09 L 106.38 831.07 L 110.57 831.03 L 114.76 831.08 L 118.95 838.76 L 123.14 820.81 L 127.33 829.86 L 131.52 832.20 L 135.71 837.42 L 139.89 832.92 L 144.08 835.44 L 148.27 838.48 L 152.46 812.51 L 156.65 829.76 L 160.84 836.83 L 165.03 825.74 L 169.22 810.92 L 173.41 819.06 L 177.60 815.58 L 181.79 831.48 L 185.98 822.38 L 190.17 837.94 L 194.36 821.10 L 198.55 837.87 L 202.74 827.01 L 206.93 834.04 L 211.12 812.81 L 215.31 833.76 L 219.49 839.43 L 223.68 810.67 L 227.87 822.89 L 232.06 817.57 L 236.25 834.39 L 240.44 825.57 L 244.63 827.30 L 248.82 806.42 L 253.01 837.84 L 257.20 837.38 L 261.39 816.05 L 265.58 826.95 L 269.77 833.63 L 273.96 823.11 L 278.15 826.22 L 282.34 819.86 L 286.53 822.95 L 290.72 826.55 L 294.91 830.22 L 299.09 834.84 L 303.28 839.29 L 307.47 818.79 L 311.66 810.85 L 315.85 839.82 L 320.04 836.27 L 324.23 826.54 L 328.42 832.98 L 332.61 819.20 L 336.80 831.85 L 340.99 826.06 L 345.18 819.83 L 349.37 800.94 L 353.56 820.26 L 357.75 833.76 L 361.94 829.46 L 366.13 818.15 L 370.32 821.70 L 374.51 837.14 L 378.69 826.57 L 382.88 837.60 L 387.07 839.74 L 391.26 778.99 L 395.45 836.43 L 399.64 825.03 L 403.83 838.83 L 408.02 834.46 L 412.21 821.10 L 416.40 834.01 L 420.59 822.50 L 424.78 800.82 L 428.97 835.14 L 433.16 837.12 L 437.35 826.57 L 441.54 836.89 L 445.73 820.73 L 449.92 833.93 L 454.11 839.18 L 458.29 837.85 L 462.48 832.10 L 466.67 835.90 L 470.86 824.49 L 475.05 831.85 L 479.24 839.41 L 483.43 839.44 L 487.62 815.82 L 491.81 822.57 L 496.00 837.33 L 500.19 824.11 L 504.38 825.19 L 508.57 824.25 L 512.76 837.90 L 516.95 835.02 L 521.14 829.22 L 525.33 834.23 L 529.52 838.88 L 533.71 827.42 L 537.89 830.55 L 542.08 827.61 L 546.27 832.16 L 550.46 832.80 L 554.65 838.94 L 558.84 822.34 L 563.03 816.33 L 567.22 835.27 L 571.41 818.78 L 575.60 829.40 L 579.79 833.40 L 583.98 837.33 L 588.17 831.80 L 592.36 836.83 L 596.55 837.53 L 600.74 839.95 L 604.93 815.28 L 609.12 838.35 L 613.31 828.83 L 617.49 828.37 L 621.68 837.44 L 625.87 838.85 L 630.06 815.11 L 634.25 823.07 L 638.44 828.58 L 642.63 830.47 L 646.82 803.75 L 651.01 830.03 L 655.20 837.46 L 659.39 838.87 L 663.58 833.10 L 667.77 821.96 L 671.96 829.30 L 676.15 823.54 L 680.34 830.05 L 684.53 804.33 L 688.72 808.25 L 692.91 834.30 L 697.09 829.22 L 701.28 823.33 L 705.47 836.55 L 709.66 832.98 L 713.85 830.89 L 718.04 828.31 L 722.23 836.03 L 726.42 836.09 L 730.61 827.49 L 734.80 838.37 L 738.99 826.77 L 743.18 835.67 L 747.37 829.75 L 751.56 833.96 L 755.75 839.88 L 759.94 838.41 L 764.13 825.03 L 768.32 838.49 L 772.51 835.09 L 776.69 822.91 L 780.88 820.73 L 785.07 827.40 L 789.26 830.71 L 793.45 837.14 L 797.64 835.53 L 801.83 832.95 L 806.02 834.87 L 810.21 826.76 L 814.40 835.91 L 818.59 829.07 L 822.78 833.18 L 826.97 838.12 L 831.16 817.81 L 835.35 819.35 L 839.54 827.86 L 843.73 829.61 L 847.92 830.08 L 852.11 830.75 L 856.29 821.66 L 860.48 826.85 L 864.67 826.78 L 868.86 812.56 L 873.05 801.65 L 877.24 831.21 L 881.43 833.68 L 885.62 813.25 L 889.81 836.03 L 894.00 820.06 L 898.19 827.96 L 902.38 839.60 L 906.57 809.36 L 910.76 826.44 L 914.95 830.58 L 919.14 813.91 L 923.33 835.52 L 927.52 839.71 L 931.71 833.16 L 935.89 826.23 L 940.08 827.77 L 944.27 838.63 L 948.46 824.38 L 952.65 837.97 L 956.84 832.88 L 961.03 827.57 L 965.22 823.10 L 969.41 839.44 L 973.60 833.26 L 977.79 811.31 L 981.98 824.75 L 986.17 823.39 L 990.36 807.35 L 994.55 829.43 L 998.74 837.23 L 1002.93 834.08 L 1007.12 826.23 L 1011.31 839.34 L 1015.49 799.95 L 1019.68 838.29 L 1023.87 822.28 L 1028.06 819.65 L 1032.25 838.18 L 1036.44 831.86 L 1040.63 815.94 L 1044.82 838.56 L 1049.01 838.59 L 1053.20 816.50 L 1057.39 820.23 L 1061.58 836.88 L 1065.77 807.49 L 1069.96 829.59 L 1074.15 826.09 L 1078.34 838.96 L 1082.53 834.39 L 1086.72 834.62 L 1090.91 829.69 L 1095.09 837.81 L 1099.28 827.44 L 1103.47 823.61 L 1107.66 832.64 L 1111.85 825.22 L 1116.04 826.92 L 1120.23 836.86 L 1124.42 834.46 L 1128.61 835.60 L 1132.80 817.88 L 1136.99 838.93 L 1141.18 838.62 L 1145.37 838.33 L 1149.56 827.76 L 1153.75 839.10 L 1157.94 837.43 L 1162.13 830.61 L 1166.32 819.73 L 1170.51 837.61 L 1174.69 836.41 L 1178.88 833.57 L 1183.07 838.07 L 1187.26 825.29 L 1191.45 832.76 L 1195.64 838.39 L 1199.83 830.02 L 1204.02 828.56 L 1208.21 828.90 L 1212.40 831.91 L 1216.59 830.47 L 1220.78 827.47 L 1224.97 834.76 L 1229.16 831.64 L 1233.35 832.63 L 1237.54 815.97 L 1241.73 821.46 L 1245.92 828.83 L 1250.11 827.84 L 1254.29 830.71 L 1258.48 830.33 L 1262.67 831.27 L 1266.86 831.77 L 1271.05 830.58 L 1275.24 837.02 L 1279.43 838.54 L 1283.62 824.23 L 1287.81 822.08 L 1292.00 834.73" fill="none" stroke="#1d4ed8" stroke-width="2"  />
<path d="M 98.00 803.43 L 102.19 820.82 L 106.38 831.79 L 110.57 813.51 L 114.76 824.99 L 118.95 837.49 L 123.14 822.97 L 127.33 796.86 L 131.52 819.14 L 135.71 805.05 L 139.89 827.46 L 144.08 838.84 L 148.27 837.29 L 152.46 808.43 L 156.65 815.37 L 160.84 820.99 L 165.03 807.80 L 169.22 807.29 L 173.41 837.48 L 177.60 797.92 L 181.79 826.29 L 185.98 774.71 L 190.17 810.30 L 194.36 766.45 L 198.55 830.37 L 202.74 821.92 L 206.93 837.18 L 211.12 813.55 L 215.31 809.26 L 219.49 823.17 L 223.68 765.91 L 227.87 838.15 L 232.06 798.79 L 236.25 823.76 L 240.44 839.80 L 244.63 811.70 L 248.82 734.57 L 253.01 825.16 L 257.20 803.81 L 261.39 823.20 L 265.58 798.43 L 269.77 827.71 L 273.96 827.75 L 278.15 815.55 L 282.34 809.09 L 286.53 771.31 L 290.72 807.67 L 294.91 825.74 L 299.09 800.46 L 303.28 832.57 L 307.47 814.27 L 311.66 809.12 L 315.85 836.83 L 320.04 829.99 L 324.23 814.64 L 328.42 823.77 L 332.61 808.35 L 336.80 822.77 L 340.99 822.04 L 345.18 590.00 L 349.37 597.35 L 353.56 764.40 L 357.75 626.48 L 361.94 656.72 L 366.13 776.49 L 370.32 838.14 L 374.51 829.91 L 378.69 810.95 L 382.88 787.39 L 387.07 836.89 L 391.26 774.48 L 395.45 780.28 L 399.64 824.31 L 403.83 812.32 L 408.02 835.02 L 412.21 815.89 L 416.40 827.78 L 420.59 784.59 L 424.78 816.89 L 428.97 837.19 L 433.16 794.96 L 437.35 812.84 L 441.54 771.17 L 445.73 783.77 L 449.92 827.94 L 454.11 838.97 L 458.29 835.95 L 462.48 813.93 L 466.67 827.99 L 470.86 788.02 L 475.05 830.96 L 479.24 838.85 L 483.43 834.62 L 487.62 817.35 L 491.81 808.78 L 496.00 826.06 L 500.19 814.36 L 504.38 775.84 L 508.57 791.06 L 512.76 834.45 L 516.95 794.21 L 521.14 830.24 L 525.33 804.57 L 529.52 805.66 L 533.71 822.60 L 537.89 792.04 L 542.08 833.90 L 546.27 816.69 L 550.46 822.53 L 554.65 836.42 L 558.84 825.42 L 563.03 771.27 L 567.22 818.57 L 571.41 815.24 L 575.60 812.69 L 579.79 828.63 L 583.98 821.69 L 588.17 817.27 L 592.36 799.41 L 596.55 838.74 L 600.74 837.82 L 604.93 808.98 L 609.12 777.12 L 613.31 823.16 L 617.49 818.62 L 621.68 835.80 L 625.87 821.18 L 630.06 799.67 L 634.25 809.88 L 638.44 811.69 L 642.63 836.20 L 646.82 791.93 L 651.01 818.70 L 655.20 821.27 L 659.39 839.05 L 663.58 830.76 L 667.77 792.69 L 671.96 817.94 L 676.15 806.92 L 680.34 822.00 L 684.53 768.79 L 688.72 833.06 L 692.91 828.00 L 697.09 818.91 L 701.28 815.93 L 705.47 825.87 L 709.66 824.18 L 713.85 818.65 L 718.04 812.83 L 722.23 834.28 L 726.42 835.65 L 730.61 817.60 L 734.80 839.74 L 738.99 816.94 L 743.18 838.74 L 747.37 777.34 L 751.56 827.30 L 755.75 837.08 L 759.94 815.02 L 764.13 818.26 L 768.32 834.79 L 772.51 838.77 L 776.69 824.18 L 780.88 773.03 L 785.07 818.51 L 789.26 799.01 L 793.45 823.91 L 797.64 830.71 L 801.83 799.59 L 806.02 835.23 L 810.21 816.35 L 814.40 829.15 L 818.59 786.59 L 822.78 837.38 L 826.97 832.67 L 831.16 804.64 L 835.35 832.38 L 839.54 797.13 L 843.73 798.41 L 847.92 815.21 L 852.11 814.74 L 856.29 785.68 L 860.48 816.96 L 864.67 804.13 L 868.86 740.81 L 873.05 798.34 L 877.24 829.37 L 881.43 837.41 L 885.62 800.21 L 889.81 831.44 L 894.00 810.45 L 898.19 822.58 L 902.38 822.59 L 906.57 773.73 L 910.76 816.39 L 914.95 835.54 L 919.14 795.99 L 923.33 819.97 L 927.52 835.16 L 931.71 824.47 L 935.89 820.31 L 940.08 813.83 L 944.27 836.44 L 948.46 813.43 L 952.65 813.39 L 956.84 811.81 L 961.03 791.61 L 965.22 809.44 L 969.41 839.61 L 973.60 799.25 L 977.79 794.22 L 981.98 809.48 L 986.17 806.66 L 990.36 793.04 L 994.55 821.27 L 998.74 831.22 L 1002.93 826.86 L 1007.12 815.56 L 1011.31 836.84 L 1015.49 803.25 L 1019.68 814.17 L 1023.87 809.89 L 1028.06 791.55 L 1032.25 835.73 L 1036.44 833.58 L 1040.63 810.92 L 1044.82 836.45 L 1049.01 810.05 L 1053.20 805.62 L 1057.39 812.70 L 1061.58 816.16 L 1065.77 744.69 L 1069.96 785.26 L 1074.15 785.88 L 1078.34 837.70 L 1082.53 828.49 L 1086.72 830.65 L 1090.91 824.37 L 1095.09 834.80 L 1099.28 824.42 L 1103.47 816.64 L 1107.66 821.25 L 1111.85 819.82 L 1116.04 785.10 L 1120.23 801.64 L 1124.42 817.96 L 1128.61 771.23 L 1132.80 815.62 L 1136.99 828.32 L 1141.18 812.95 L 1145.37 793.13 L 1149.56 808.72 L 1153.75 834.02 L 1157.94 836.40 L 1162.13 826.77 L 1166.32 775.98 L 1170.51 835.25 L 1174.69 825.92 L 1178.88 833.09 L 1183.07 827.26 L 1187.26 813.29 L 1191.45 816.19 L 1195.64 829.42 L 1199.83 800.96 L 1204.02 795.54 L 1208.21 793.57 L 1212.40 819.88 L 1216.59 796.88 L 1220.78 838.89 L 1224.97 830.75 L 1229.16 784.24 L 1233.35 798.40 L 1237.54 799.57 L 1241.73 824.73 L 1245.92 819.90 L 1250.11 826.16 L 1254.29 793.10 L 1258.48 763.05 L 1262.67 828.10 L 1266.86 829.70 L 1271.05 815.42 L 1275.24 835.10 L 1279.43 835.38 L 1283.62 791.65 L 1287.81 766.63 L 1292.00 805.72" fill="none" stroke="#b45309" stroke-width="2" stroke-dasharray="6 4" />
  </g>
</svg>