<?xml version="1.0" encoding="UTF-8"?>
<svg xmlns="http://www.w3.org/2000/svg" width="1360" height="980" viewBox="0 0 1360 980">
  <defs>
    <linearGradient id="bg" x1="0" y1="0" x2="1" y2="1">
      <stop offset="0%" stop-color="#f4efe6" />
      <stop offset="100%" stop-color="#eef5f2" />
    </linearGradient>
  </defs>
  <rect x="0" y="0" width="1360" height="980" fill="url(#bg)" />
  <text x="46" y="36" fill="#1f2937" font-size="31" font-weight="700">163208 离线研究图（持仓逐日估值版）</text>
  <text x="46" y="66" fill="#5b6b68" font-size="13">历史前十大持仓 + 持仓逐日涨跌幅 + USDCNY；双目标 lambda=0.10；披露期数 47；覆盖率均值 92.1%</text>
  <g>
    <text x="54" y="110" fill="#1f2937" font-size="16" font-weight="700">A. 净值拟合（同日对齐，无平移）</text>
    <line x1="98" y1="130" x2="124" y2="130" stroke="#0f766e" stroke-width="2"  />
      <text x="130" y="134" fill="#24312e" font-size="12">真实净值</text>
<line x1="313" y1="130" x2="339" y2="130" stroke="#1d4ed8" stroke-width="2"  />
      <text x="345" y="134" fill="#24312e" font-size="12">持仓分段估值</text>
    <line x1="98" y1="132.00" x2="1292" y2="132.00" stroke="#d7e3df" stroke-width="1" />
      <text x="90" y="136.00" text-anchor="end" fill="#5b6b68" font-size="11">1.328</text>
<line x1="98" y1="209.50" x2="1292" y2="209.50" stroke="#d7e3df" stroke-width="1" />
      <text x="90" y="213.50" text-anchor="end" fill="#5b6b68" font-size="11">1.211</text>
<line x1="98" y1="287.00" x2="1292" y2="287.00" stroke="#d7e3df" stroke-width="1" />
      <text x="90" y="291.00" text-anchor="end" fill="#5b6b68" font-size="11">1.095</text>
<line x1="98" y1="364.50" x2="1292" y2="364.50" stroke="#d7e3df" stroke-width="1" />
      <text x="90" y="368.50" text-anchor="end" fill="#5b6b68" font-size="11">0.978</text>
<line x1="98" y1="442.00" x2="1292" y2="442.00" stroke="#d7e3df" stroke-width="1" />
      <text x="90" y="446.00" text-anchor="end" fill="#5b6b68" font-size="11">0.862</text>
    <line x1="98.00" y1="132" x2="98.00" y2="442" stroke="#eef3f1" stroke-width="1" />
      <text x="98.00" y="470" text-anchor="middle" fill="#5b6b68" font-size="11">25-01-02</text>
<line x1="290.72" y1="132" x2="290.72" y2="442" stroke="#eef3f1" stroke-width="1" />
      <text x="290.72" y="470" text-anchor="middle" fill="#5b6b68" font-size="11">25-03-17</text>
<line x1="479.24" y1="132" x2="479.24" y2="442" stroke="#eef3f1" stroke-width="1" />
      <text x="479.24" y="470" text-anchor="middle" fill="#5b6b68" font-size="11">25-05-23</text>
<line x1="697.09" y1="132" x2="697.09" y2="442" stroke="#eef3f1" stroke-width="1" />
      <text x="697.09" y="470" text-anchor="middle" fill="#5b6b68" font-size="11">25-08-06</text>
<line x1="910.76" y1="132" x2="910.76" y2="442" stroke="#eef3f1" stroke-width="1" />
      <text x="910.76" y="470" text-anchor="middle" fill="#5b6b68" font-size="11">25-10-24</text>
<line x1="1099.28" y1="132" x2="1099.28" y2="442" stroke="#eef3f1" stroke-width="1" />
      <text x="1099.28" y="470" text-anchor="middle" fill="#5b6b68" font-size="11">25-12-26</text>
<line x1="1292.00" y1="132" x2="1292.00" y2="442" stroke="#eef3f1" stroke-width="1" />
      <text x="1292.00" y="470" text-anchor="middle" fill="#5b6b68" font-size="11">26-03-12</text>
    <line x1="1116.04" y1="132" x2="1116.04" y2="442" stroke="#f59e0b" stroke-width="1.4" stroke-dasharray="4 4" />
       <text x="1122.04" y="124" fill="#a16207" font-size="11">验证起点</text>
    <path d="M 98.00 353.91 L 102.19 350.58 L 106.38 350.58 L 110.57 347.92 L 114.76 349.25 L 118.95 350.58 L 123.14 351.24 L 127.33 342.60 L 131.52 335.28 L 135.71 326.63 L 139.89 323.97 L 144.08 321.31 L 148.27 320.65 L 152.46 326.63 L 156.65 335.95 L 160.84 333.28 L 165.03 336.61 L 169.22 341.93 L 173.41 345.26 L 177.60 351.24 L 181.79 350.58 L 185.98 339.27 L 190.17 337.28 L 194.36 348.58 L 198.55 345.92 L 202.74 342.60 L 206.93 341.27 L 211.12 335.28 L 215.31 332.62 L 219.49 329.96 L 223.68 341.93 L 227.87 340.60 L 232.06 348.58 L 236.25 348.58 L 240.44 348.58 L 244.63 344.59 L 248.82 359.89 L 253.01 365.21 L 257.20 369.87 L 261.39 371.20 L 265.58 363.88 L 269.77 361.22 L 273.96 363.88 L 278.15 361.22 L 282.34 364.55 L 286.53 351.91 L 290.72 341.27 L 294.91 339.27 L 299.09 331.95 L 303.28 329.96 L 307.47 334.62 L 311.66 329.96 L 315.85 329.29 L 320.04 327.30 L 324.23 330.62 L 328.42 335.95 L 332.61 333.28 L 336.80 327.30 L 340.99 325.30 L 345.18 364.55 L 349.37 427.07 L 353.56 437.05 L 357.75 403.13 L 361.94 428.40 L 366.13 417.10 L 370.32 411.11 L 374.51 411.78 L 378.69 411.11 L 382.88 401.13 L 387.07 401.13 L 391.26 411.78 L 395.45 401.80 L 399.64 401.13 L 403.83 395.81 L 408.02 395.15 L 412.21 389.82 L 416.40 393.15 L 420.59 404.46 L 424.78 401.13 L 428.97 400.47 L 433.16 393.15 L 437.35 386.50 L 441.54 371.87 L 445.73 365.21 L 449.92 366.54 L 454.11 367.21 L 458.29 369.20 L 462.48 375.19 L 466.67 377.85 L 470.86 385.17 L 475.05 388.49 L 479.24 387.16 L 483.43 388.49 L 487.62 383.84 L 491.81 389.82 L 496.00 386.50 L 500.19 391.82 L 504.38 379.85 L 508.57 387.16 L 512.76 387.83 L 516.95 378.52 L 521.14 375.19 L 525.33 366.54 L 529.52 357.90 L 533.71 355.90 L 537.89 345.92 L 542.08 347.92 L 546.27 343.26 L 550.46 347.25 L 554.65 349.25 L 558.84 346.59 L 563.03 361.22 L 567.22 366.54 L 571.41 368.54 L 575.60 361.89 L 579.79 363.88 L 583.98 363.88 L 588.17 360.56 L 592.36 345.92 L 596.55 345.92 L 600.74 343.93 L 604.93 351.24 L 609.12 333.95 L 613.31 337.28 L 617.49 332.62 L 621.68 330.62 L 625.87 335.95 L 630.06 345.92 L 634.25 351.24 L 638.44 347.92 L 642.63 351.24 L 646.82 355.90 L 651.01 349.91 L 655.20 343.93 L 659.39 337.28 L 663.58 340.60 L 667.77 333.95 L 671.96 326.63 L 676.15 337.28 L 680.34 343.93 L 684.53 353.91 L 688.72 355.24 L 692.91 353.91 L 697.09 357.90 L 701.28 360.56 L 705.47 357.90 L 709.66 360.56 L 713.85 357.23 L 718.04 352.58 L 722.23 353.91 L 726.42 351.91 L 730.61 355.90 L 734.80 357.90 L 738.99 353.24 L 743.18 351.91 L 747.37 339.94 L 751.56 338.61 L 755.75 339.94 L 759.94 335.95 L 764.13 331.95 L 768.32 327.30 L 772.51 326.63 L 776.69 325.30 L 780.88 337.28 L 785.07 331.95 L 789.26 339.27 L 793.45 339.27 L 797.64 337.28 L 801.83 327.30 L 806.02 327.96 L 810.21 331.29 L 814.40 332.62 L 818.59 321.98 L 822.78 321.98 L 826.97 323.31 L 831.16 331.95 L 835.35 331.29 L 839.54 321.98 L 843.73 314.66 L 847.92 310.00 L 852.11 304.68 L 856.29 317.32 L 860.48 323.31 L 864.67 329.96 L 868.86 349.25 L 873.05 341.27 L 877.24 342.60 L 881.43 342.60 L 885.62 349.91 L 889.81 347.92 L 894.00 341.27 L 898.19 343.26 L 902.38 336.61 L 906.57 325.97 L 910.76 331.29 L 914.95 329.96 L 919.14 335.95 L 923.33 333.28 L 927.52 334.62 L 931.71 332.62 L 935.89 330.62 L 940.08 335.95 L 944.27 335.28 L 948.46 328.63 L 952.65 319.32 L 956.84 312.00 L 961.03 304.68 L 965.22 311.33 L 969.41 311.33 L 973.60 304.68 L 977.79 313.99 L 981.98 311.33 L 986.17 317.99 L 990.36 324.64 L 994.55 323.97 L 998.74 323.31 L 1002.93 325.30 L 1007.12 321.31 L 1011.31 321.31 L 1015.49 314.66 L 1019.68 310.67 L 1023.87 315.99 L 1028.06 307.34 L 1032.25 305.35 L 1036.44 308.01 L 1040.63 314.66 L 1044.82 313.99 L 1049.01 309.34 L 1053.20 312.66 L 1057.39 317.32 L 1061.58 321.98 L 1065.77 339.94 L 1069.96 330.62 L 1074.15 337.28 L 1078.34 336.61 L 1082.53 331.95 L 1086.72 328.63 L 1090.91 329.96 L 1095.09 330.62 L 1099.28 332.62 L 1103.47 330.62 L 1107.66 327.30 L 1111.85 330.62 L 1116.04 310.67 L 1120.23 320.65 L 1124.42 326.63 L 1128.61 311.33 L 1132.80 312.00 L 1136.99 313.99 L 1141.18 304.68 L 1145.37 295.37 L 1149.56 300.03 L 1153.75 299.36 L 1157.94 298.70 L 1162.13 300.03 L 1166.32 286.72 L 1170.51 283.40 L 1174.69 277.41 L 1178.88 280.07 L 1183.07 274.08 L 1187.26 268.10 L 1191.45 263.44 L 1195.64 264.11 L 1199.83 273.42 L 1204.02 262.11 L 1208.21 254.13 L 1212.40 260.78 L 1216.59 252.13 L 1220.78 246.15 L 1224.97 248.81 L 1229.16 235.50 L 1233.35 247.48 L 1237.54 245.48 L 1241.73 226.86 L 1245.92 232.18 L 1250.11 230.18 L 1254.29 215.55 L 1258.48 192.93 L 1262.67 193.60 L 1266.86 192.93 L 1271.05 184.29 L 1275.24 165.00 L 1279.43 173.64 L 1283.62 178.30 L 1287.81 161.00 L 1292.00 136.39" fill="none" stroke="#0f766e" stroke-width="2"  />
<path d="M 98.00 354.42 L 102.19 349.01 L 106.38 350.46 L 110.57 345.77 L 114.76 348.59 L 118.95 349.42 L 123.14 350.98 L 127.33 340.41 L 131.52 340.64 L 135.71 330.48 L 139.89 325.48 L 144.08 321.54 L 148.27 322.63 L 152.46 321.17 L 156.65 331.20 L 160.84 333.51 L 165.03 340.48 L 169.22 332.38 L 173.41 347.05 L 177.60 347.94 L 181.79 351.97 L 185.98 339.43 L 190.17 335.25 L 194.36 345.71 L 198.55 347.80 L 202.74 346.19 L 206.93 343.47 L 211.12 340.94 L 215.31 330.21 L 219.49 328.59 L 223.68 338.60 L 227.87 341.70 L 232.06 343.64 L 236.25 349.94 L 240.44 347.30 L 244.63 345.37 L 248.82 365.93 L 253.01 361.69 L 257.20 368.55 L 261.39 369.20 L 265.58 365.42 L 269.77 358.29 L 273.96 362.91 L 278.15 362.49 L 282.34 362.41 L 286.53 354.73 L 290.72 345.83 L 294.91 339.42 L 299.09 334.37 L 303.28 330.48 L 307.47 330.74 L 311.66 333.92 L 315.85 327.50 L 320.04 326.43 L 324.23 328.30 L 328.42 332.10 L 332.61 331.73 L 336.80 332.34 L 340.99 327.09 L 345.18 358.10 L 349.37 425.25 L 353.56 439.12 L 357.75 397.42 L 361.94 435.26 L 366.13 418.10 L 370.32 416.04 L 374.51 411.40 L 378.69 408.56 L 382.88 402.39 L 387.07 401.30 L 391.26 400.64 L 395.45 402.47 L 399.64 402.67 L 403.83 396.71 L 408.02 395.06 L 412.21 393.60 L 416.40 390.99 L 420.59 399.77 L 424.78 406.58 L 428.97 401.17 L 433.16 392.65 L 437.35 390.36 L 441.54 372.98 L 445.73 368.17 L 449.92 366.58 L 454.11 365.99 L 458.29 367.76 L 462.48 372.48 L 466.67 376.38 L 470.86 381.98 L 475.05 386.08 L 479.24 388.44 L 483.43 387.03 L 487.62 388.57 L 491.81 386.81 L 496.00 387.27 L 500.19 388.11 L 504.38 375.75 L 508.57 385.63 L 512.76 387.91 L 516.95 379.95 L 521.14 376.18 L 525.33 366.34 L 529.52 359.91 L 533.71 356.33 L 537.89 347.14 L 542.08 349.65 L 546.27 344.08 L 550.46 344.81 L 554.65 347.38 L 558.84 349.59 L 563.03 360.24 L 567.22 367.24 L 571.41 367.23 L 575.60 363.16 L 579.79 362.76 L 583.98 366.35 L 588.17 359.54 L 592.36 353.56 L 596.55 345.51 L 600.74 345.66 L 604.93 343.59 L 609.12 337.64 L 613.31 333.93 L 617.49 334.47 L 621.68 330.65 L 625.87 338.54 L 630.06 340.60 L 634.25 347.04 L 638.44 348.62 L 642.63 350.05 L 646.82 352.07 L 651.01 352.97 L 655.20 343.48 L 659.39 342.23 L 663.58 337.72 L 667.77 335.61 L 671.96 330.55 L 676.15 331.07 L 680.34 338.81 L 684.53 348.92 L 688.72 357.26 L 692.91 353.11 L 697.09 355.89 L 701.28 358.85 L 705.47 357.23 L 709.66 359.50 L 713.85 357.64 L 718.04 353.79 L 722.23 352.97 L 726.42 354.58 L 730.61 353.60 L 734.80 356.75 L 738.99 354.76 L 743.18 351.00 L 747.37 342.14 L 751.56 338.75 L 755.75 339.49 L 759.94 336.34 L 764.13 334.36 L 768.32 330.15 L 772.51 328.04 L 776.69 326.20 L 780.88 336.40 L 785.07 335.26 L 789.26 340.34 L 793.45 340.60 L 797.64 337.65 L 801.83 326.75 L 806.02 327.45 L 810.21 329.72 L 814.40 330.76 L 818.59 321.98 L 822.78 322.56 L 826.97 322.47 L 831.16 326.70 L 835.35 332.47 L 839.54 325.62 L 843.73 316.79 L 847.92 311.70 L 852.11 306.48 L 856.29 312.19 L 860.48 319.69 L 864.67 327.45 L 868.86 344.77 L 873.05 344.21 L 877.24 341.83 L 881.43 343.47 L 885.62 345.19 L 889.81 348.17 L 894.00 347.79 L 898.19 342.24 L 902.38 337.68 L 906.57 328.70 L 910.76 327.80 L 914.95 331.74 L 919.14 333.55 L 923.33 334.11 L 927.52 334.49 L 931.71 332.23 L 935.89 334.29 L 940.08 332.46 L 944.27 336.24 L 948.46 334.49 L 952.65 320.02 L 956.84 315.30 L 961.03 307.69 L 965.22 307.44 L 969.41 310.61 L 973.60 307.25 L 977.79 309.56 L 981.98 311.24 L 986.17 315.65 L 990.36 319.90 L 994.55 323.89 L 998.74 323.42 L 1002.93 325.12 L 1007.12 323.71 L 1011.31 321.42 L 1015.49 321.58 L 1019.68 311.82 L 1023.87 312.73 L 1028.06 308.63 L 1032.25 306.13 L 1036.44 306.46 L 1040.63 309.69 L 1044.82 313.01 L 1049.01 310.26 L 1053.20 310.31 L 1057.39 314.22 L 1061.58 319.75 L 1065.77 333.71 L 1069.96 328.92 L 1074.15 334.50 L 1078.34 337.04 L 1082.53 333.85 L 1086.72 331.17 L 1090.91 329.71 L 1095.09 330.33 L 1099.28 330.97 L 1103.47 330.21 L 1107.66 327.88 L 1111.85 328.44 L 1116.04 310.33 L 1120.23 318.66 L 1124.42 325.69 L 1128.61 314.02 L 1132.80 310.57 L 1136.99 312.36 L 1141.18 308.54 L 1145.37 294.87 L 1149.56 298.06 L 1153.75 299.59 L 1157.94 300.25 L 1162.13 298.97 L 1166.32 291.10 L 1170.51 287.09 L 1174.69 279.86 L 1178.88 278.22 L 1183.07 274.57 L 1187.26 271.37 L 1191.45 262.15 L 1195.64 260.20 L 1199.83 278.45 L 1204.02 260.66 L 1208.21 252.75 L 1212.40 263.09 L 1216.59 253.02 L 1220.78 247.06 L 1224.97 246.57 L 1229.16 237.93 L 1233.35 243.00 L 1237.54 245.08 L 1241.73 226.91 L 1245.92 227.49 L 1250.11 232.35 L 1254.29 218.14 L 1258.48 197.14 L 1262.67 194.81 L 1266.86 194.84 L 1271.05 190.37 L 1275.24 180.65 L 1279.43 161.85 L 1283.62 180.99 L 1287.81 159.70 L 1292.00 145.72" fill="none" stroke="#1d4ed8" stroke-width="2"  />
  </g>
  <g>
    <text x="54" y="538" fill="#1f2937" font-size="16" font-weight="700">B. 绝对误差（越低越好）</text>
    <line x1="98" y1="558" x2="124" y2="558" stroke="#1d4ed8" stroke-width="2"  />
      <text x="130" y="562" fill="#24312e" font-size="12">持仓分段误差</text>
    <line x1="98" y1="560.00" x2="1292" y2="560.00" stroke="#d7e3df" stroke-width="1" />
      <text x="90" y="564.00" text-anchor="end" fill="#5b6b68" font-size="11">2.07%</text>
<line x1="98" y1="630.00" x2="1292" y2="630.00" stroke="#d7e3df" stroke-width="1" />
      <text x="90" y="634.00" text-anchor="end" fill="#5b6b68" font-size="11">1.55%</text>
<line x1="98" y1="700.00" x2="1292" y2="700.00" stroke="#d7e3df" stroke-width="1" />
      <text x="90" y="704.00" text-anchor="end" fill="#5b6b68" font-size="11">1.03%</text>
<line x1="98" y1="770.00" x2="1292" y2="770.00" stroke="#d7e3df" stroke-width="1" />
      <text x="90" y="774.00" text-anchor="end" fill="#5b6b68" font-size="11">0.52%</text>
<line x1="98" y1="840.00" x2="1292" y2="840.00" stroke="#d7e3df" stroke-width="1" />
      <text x="90" y="844.00" text-anchor="end" fill="#5b6b68" font-size="11">0.00%</text>
    <line x1="98.00" y1="560" x2="98.00" y2="840" stroke="#eef3f1" stroke-width="1" />
      <text x="98.00" y="868" text-anchor="middle" fill="#5b6b68" font-size="11">25-01-02</text>
<line x1="290.72" y1="560" x2="290.72" y2="840" stroke="#eef3f1" stroke-width="1" />
      <text x="290.72" y="868" text-anchor="middle" fill="#5b6b68" font-size="11">25-03-17</text>
<line x1="479.24" y1="560" x2="479.24" y2="840" stroke="#eef3f1" stroke-width="1" />
      <text x="479.24" y="868" text-anchor="middle" fill="#5b6b68" font-size="11">25-05-23</text>
<line x1="697.09" y1="560" x2="697.09" y2="840" stroke="#eef3f1" stroke-width="1" />
      <text x="697.09" y="868" text-anchor="middle" fill="#5b6b68" font-size="11">25-08-06</text>
<line x1="910.76" y1="560" x2="910.76" y2="840" stroke="#eef3f1" stroke-width="1" />
      <text x="910.76" y="868" text-anchor="middle" fill="#5b6b68" font-size="11">25-10-24</text>
<line x1="1099.28" y1="560" x2="1099.28" y2="840" stroke="#eef3f1" stroke-width="1" />
      <text x="1099.28" y="868" text-anchor="middle" fill="#5b6b68" font-size="11">25-12-26</text>
<line x1="1292.00" y1="560" x2="1292.00" y2="840" stroke="#eef3f1" stroke-width="1" />
      <text x="1292.00" y="868" text-anchor="middle" fill="#5b6b68" font-size="11">26-03-12</text>
    <line x1="1116.04" y1="560" x2="1116.04" y2="840" stroke="#f59e0b" stroke-width="1.4" stroke-dasharray="4 4" />
       <text x="1122.04" y="552" fill="#a16207" font-size="11">验证起点</text>
    <path d="M 98.00 829.38 L 102.19 808.04 L 106.38 837.53 L 110.57 796.45 L 114.76 826.67 L 118.95 816.32 L 123.14 834.64 L 127.33 795.89 L 131.52 733.21 L 135.71 764.23 L 139.89 810.41 L 144.08 835.55 L 148.27 801.28 L 152.46 732.54 L 156.65 745.31 L 160.84 835.45 L 165.03 762.78 L 169.22 647.84 L 173.41 803.73 L 177.60 772.61 L 181.79 811.70 L 185.98 836.86 L 190.17 799.61 L 194.36 781.68 L 198.55 802.00 L 202.74 767.55 L 206.93 795.69 L 211.12 727.21 L 215.31 792.08 L 219.49 812.96 L 223.68 772.96 L 227.87 817.90 L 232.06 739.50 L 236.25 812.51 L 240.44 813.84 L 244.63 824.33 L 248.82 715.19 L 253.01 766.63 L 257.20 812.29 L 261.39 797.91 L 265.58 807.98 L 269.77 779.19 L 273.96 819.76 L 278.15 813.72 L 282.34 795.54 L 286.53 782.34 L 290.72 748.23 L 294.91 837.08 L 299.09 792.16 L 303.28 829.75 L 307.47 762.82 L 311.66 761.62 L 315.85 804.56 L 320.04 822.90 L 324.23 794.05 L 328.42 763.26 L 332.61 809.11 L 336.80 740.72 L 340.99 804.98 L 345.18 705.83 L 349.37 798.06 L 353.56 791.54 L 357.75 713.56 L 361.94 681.75 L 366.13 817.20 L 370.32 729.34 L 374.51 831.68 L 378.69 782.89 L 382.88 812.22 L 387.07 836.39 L 391.26 590.00 L 395.45 825.05 L 399.64 806.19 L 403.83 820.42 L 408.02 838.11 L 412.21 758.22 L 416.40 792.92 L 420.59 735.96 L 424.78 719.71 L 428.97 824.42 L 433.16 829.09 L 437.35 756.78 L 441.54 816.53 L 445.73 778.45 L 449.92 839.29 L 454.11 814.43 L 458.29 809.81 L 462.48 782.61 L 466.67 808.66 L 470.86 771.43 L 475.05 787.87 L 479.24 812.53 L 483.43 808.33 L 487.62 738.41 L 491.81 774.79 L 496.00 823.44 L 500.19 759.46 L 504.38 752.57 L 508.57 806.96 L 512.76 838.31 L 516.95 809.40 L 521.14 818.96 L 525.33 835.73 L 529.52 798.46 L 533.71 831.23 L 537.89 815.27 L 542.08 804.88 L 546.27 823.48 L 550.46 790.45 L 554.65 802.07 L 558.84 779.26 L 563.03 819.61 L 567.22 825.36 L 571.41 812.61 L 575.60 813.57 L 579.79 816.63 L 583.98 788.62 L 588.17 818.87 L 592.36 685.47 L 596.55 831.59 L 600.74 805.14 L 604.93 683.80 L 609.12 766.52 L 613.31 773.18 L 617.49 803.27 L 621.68 839.56 L 625.87 788.33 L 630.06 732.21 L 634.25 754.12 L 638.44 825.86 L 642.63 815.67 L 646.82 761.19 L 651.01 777.77 L 655.20 830.95 L 659.39 741.07 L 663.58 782.16 L 667.77 806.90 L 671.96 762.92 L 676.15 716.01 L 680.34 736.63 L 684.53 737.80 L 688.72 798.46 L 692.91 823.74 L 697.09 798.58 L 701.28 804.68 L 705.47 826.34 L 709.66 818.20 L 713.85 831.48 L 718.04 815.23 L 722.23 820.83 L 726.42 785.50 L 730.61 792.66 L 734.80 816.47 L 738.99 808.87 L 743.18 821.47 L 747.37 795.76 L 751.56 837.12 L 755.75 831.13 L 759.94 832.17 L 764.13 792.35 L 768.32 783.92 L 772.51 812.41 L 776.69 822.32 L 780.88 822.44 L 785.07 774.36 L 789.26 818.54 L 793.45 813.42 L 797.64 832.56 L 801.83 829.26 L 806.02 829.78 L 810.21 808.98 L 814.40 803.16 L 818.59 839.92 L 822.78 828.62 L 826.97 823.51 L 831.16 735.82 L 835.35 816.57 L 839.54 768.90 L 843.73 798.88 L 847.92 807.37 L 852.11 805.80 L 856.29 740.42 L 860.48 769.24 L 864.67 790.48 L 868.86 748.95 L 873.05 780.82 L 877.24 824.49 L 881.43 822.34 L 885.62 743.87 L 889.81 834.85 L 894.00 708.85 L 898.19 819.43 L 902.38 818.71 L 906.57 786.37 L 910.76 770.95 L 914.95 804.84 L 919.14 792.15 L 923.33 823.60 L 927.52 837.55 L 931.71 832.26 L 935.89 767.41 L 940.08 770.49 L 944.27 820.90 L 948.46 724.35 L 952.65 826.34 L 956.84 776.34 L 961.03 782.57 L 965.22 765.03 L 969.41 825.99 L 973.60 791.04 L 977.79 754.36 L 981.98 838.28 L 986.17 794.55 L 990.36 747.09 L 994.55 838.43 L 998.74 837.76 L 1002.93 836.49 L 1007.12 793.14 L 1011.31 837.93 L 1015.49 706.20 L 1019.68 817.93 L 1023.87 776.79 L 1028.06 815.37 L 1032.25 825.11 L 1036.44 810.26 L 1040.63 743.93 L 1044.82 820.95 L 1049.01 822.23 L 1053.20 794.63 L 1057.39 779.82 L 1061.58 796.50 L 1065.77 715.16 L 1069.96 806.29 L 1074.15 784.57 L 1078.34 831.41 L 1082.53 802.33 L 1086.72 789.85 L 1090.91 835.06 L 1095.09 834.16 L 1099.28 807.34 L 1103.47 831.77 L 1107.66 828.46 L 1111.85 796.76 L 1116.04 833.48 L 1120.23 801.30 L 1124.42 821.51 L 1128.61 788.26 L 1132.80 812.53 L 1136.99 808.35 L 1141.18 766.40 L 1145.37 830.64 L 1149.56 802.80 L 1153.75 835.66 L 1157.94 810.67 L 1162.13 820.08 L 1166.32 758.52 L 1170.51 771.57 L 1174.69 795.06 L 1178.88 805.82 L 1183.07 831.15 L 1187.26 780.69 L 1191.45 816.78 L 1195.64 769.46 L 1199.83 748.11 L 1204.02 813.81 L 1208.21 815.45 L 1212.40 798.59 L 1216.59 824.24 L 1220.78 823.89 L 1224.97 800.52 L 1229.16 797.89 L 1233.35 760.99 L 1237.54 832.92 L 1241.73 839.07 L 1245.92 758.90 L 1250.11 802.68 L 1254.29 796.08 L 1258.48 770.70 L 1262.67 819.95 L 1266.86 808.55 L 1271.05 740.82 L 1275.24 590.64 L 1279.43 650.10 L 1283.62 796.38 L 1287.81 819.31 L 1292.00 696.21" fill="none" stroke="#1d4ed8" stroke-width="2"  />
  </g>
</svg>