<?xml version="1.0" encoding="UTF-8"?>
<svg xmlns="http://www.w3.org/2000/svg" width="1360" height="980" viewBox="0 0 1360 980">
  <defs>
    <linearGradient id="bg" x1="0" y1="0" x2="1" y2="1">
      <stop offset="0%" stop-color="#f4efe6" />
      <stop offset="100%" stop-color="#eef5f2" />
    </linearGradient>
  </defs>
  <rect x="0" y="0" width="1360" height="980" fill="url(#bg)" />
  <text x="46" y="36" fill="#1f2937" font-size="31" font-weight="700">164701 离线研究图（持仓逐日估值版）</text>
  <text x="46" y="66" fill="#5b6b68" font-size="13">历史前十大持仓 + 持仓逐日涨跌幅 + USDCNY；双目标 lambda=0.10；披露期数 50；覆盖率均值 92.1%</text>
  <g>
    <text x="54" y="110" fill="#1f2937" font-size="16" font-weight="700">A. 净值拟合（同日对齐，无平移）</text>
    <line x1="98" y1="112" x2="124" y2="112" stroke="#0f766e" stroke-width="2"  />
      <text x="130" y="116" fill="#24312e" font-size="12">真实净值</text>
<line x1="313" y1="112" x2="339" y2="112" stroke="#1d4ed8" stroke-width="2"  />
      <text x="345" y="116" fill="#24312e" font-size="12">持仓分段估值</text>
<line x1="528" y1="112" x2="554" y2="112" stroke="#b45309" stroke-width="2" stroke-dasharray="6 4" />
      <text x="560" y="116" fill="#24312e" font-size="12">持仓双目标估值</text>
    <line x1="98" y1="132.00" x2="1292" y2="132.00" stroke="#d7e3df" stroke-width="1" />
      <text x="90" y="136.00" text-anchor="end" fill="#5b6b68" font-size="11">2.226</text>
<line x1="98" y1="209.50" x2="1292" y2="209.50" stroke="#d7e3df" stroke-width="1" />
      <text x="90" y="213.50" text-anchor="end" fill="#5b6b68" font-size="11">1.947</text>
<line x1="98" y1="287.00" x2="1292" y2="287.00" stroke="#d7e3df" stroke-width="1" />
      <text x="90" y="291.00" text-anchor="end" fill="#5b6b68" font-size="11">1.667</text>
<line x1="98" y1="364.50" x2="1292" y2="364.50" stroke="#d7e3df" stroke-width="1" />
      <text x="90" y="368.50" text-anchor="end" fill="#5b6b68" font-size="11">1.388</text>
<line x1="98" y1="442.00" x2="1292" y2="442.00" stroke="#d7e3df" stroke-width="1" />
      <text x="90" y="446.00" text-anchor="end" fill="#5b6b68" font-size="11">1.109</text>
    <line x1="98.00" y1="132" x2="98.00" y2="442" stroke="#eef3f1" stroke-width="1" />
      <text x="98.00" y="470" text-anchor="middle" fill="#5b6b68" font-size="11">25-01-02</text>
<line x1="290.72" y1="132" x2="290.72" y2="442" stroke="#eef3f1" stroke-width="1" />
      <text x="290.72" y="470" text-anchor="middle" fill="#5b6b68" font-size="11">25-03-17</text>
<line x1="479.24" y1="132" x2="479.24" y2="442" stroke="#eef3f1" stroke-width="1" />
      <text x="479.24" y="470" text-anchor="middle" fill="#5b6b68" font-size="11">25-05-23</text>
<line x1="697.09" y1="132" x2="697.09" y2="442" stroke="#eef3f1" stroke-width="1" />
      <text x="697.09" y="470" text-anchor="middle" fill="#5b6b68" font-size="11">25-08-06</text>
<line x1="910.76" y1="132" x2="910.76" y2="442" stroke="#eef3f1" stroke-width="1" />
      <text x="910.76" y="470" text-anchor="middle" fill="#5b6b68" font-size="11">25-10-24</text>
<line x1="1099.28" y1="132" x2="1099.28" y2="442" stroke="#eef3f1" stroke-width="1" />
      <text x="1099.28" y="470" text-anchor="middle" fill="#5b6b68" font-size="11">25-12-26</text>
<line x1="1292.00" y1="132" x2="1292.00" y2="442" stroke="#eef3f1" stroke-width="1" />
      <text x="1292.00" y="470" text-anchor="middle" fill="#5b6b68" font-size="11">26-03-12</text>
    <line x1="1116.04" y1="132" x2="1116.04" y2="442" stroke="#f59e0b" stroke-width="1.4" stroke-dasharray="4 4" />
       <text x="1122.04" y="124" fill="#a16207" font-size="11">验证起点</text>
    <path d="M 98.00 436.72 L 102.19 438.94 L 106.38 438.94 L 110.57 437.00 L 114.76 435.05 L 118.95 435.05 L 123.14 431.17 L 127.33 436.16 L 131.52 434.50 L 135.71 430.89 L 139.89 428.39 L 144.08 430.34 L 148.27 430.34 L 152.46 426.73 L 156.65 425.06 L 160.84 425.89 L 165.03 423.67 L 169.22 427.84 L 173.41 412.29 L 177.60 412.85 L 181.79 412.57 L 185.98 406.47 L 190.17 407.58 L 194.36 407.30 L 198.55 403.41 L 202.74 409.52 L 206.93 409.52 L 211.12 403.13 L 215.31 402.86 L 219.49 402.30 L 223.68 403.13 L 227.87 401.19 L 232.06 406.19 L 236.25 405.63 L 240.44 410.91 L 244.63 413.40 L 248.82 409.24 L 253.01 405.91 L 257.20 405.63 L 261.39 407.30 L 265.58 407.02 L 269.77 409.80 L 273.96 405.91 L 278.15 404.52 L 282.34 398.42 L 286.53 398.42 L 290.72 396.75 L 294.91 392.31 L 299.09 391.20 L 303.28 391.48 L 307.47 394.25 L 311.66 395.92 L 315.85 394.25 L 320.04 394.53 L 324.23 389.81 L 328.42 387.31 L 332.61 382.04 L 336.80 382.87 L 340.99 382.32 L 345.18 383.98 L 349.37 394.81 L 353.56 393.97 L 357.75 384.82 L 361.94 377.60 L 366.13 371.21 L 370.32 373.44 L 374.51 371.21 L 378.69 358.17 L 382.88 360.39 L 387.07 360.39 L 391.26 347.90 L 395.45 354.01 L 399.64 362.61 L 403.83 357.61 L 408.02 362.33 L 412.21 357.34 L 416.40 361.22 L 420.59 364.28 L 424.78 349.56 L 428.97 355.67 L 433.16 363.17 L 437.35 360.11 L 441.54 371.21 L 445.73 369.83 L 449.92 378.43 L 454.11 372.32 L 458.29 377.04 L 462.48 372.32 L 466.67 364.83 L 470.86 361.78 L 475.05 365.66 L 479.24 357.34 L 483.43 357.89 L 487.62 364.00 L 491.81 364.83 L 496.00 362.61 L 500.19 365.39 L 504.38 358.45 L 508.57 355.95 L 512.76 357.61 L 516.95 362.61 L 521.14 360.94 L 525.33 360.67 L 529.52 359.00 L 533.71 354.28 L 537.89 349.29 L 542.08 354.56 L 546.27 354.56 L 550.46 356.78 L 554.65 356.78 L 558.84 357.34 L 563.03 355.95 L 567.22 362.61 L 571.41 361.22 L 575.60 362.06 L 579.79 368.99 L 583.98 365.11 L 588.17 362.33 L 592.36 360.11 L 596.55 362.61 L 600.74 362.61 L 604.93 362.33 L 609.12 365.94 L 613.31 364.83 L 617.49 363.72 L 621.68 360.11 L 625.87 361.50 L 630.06 363.17 L 634.25 360.94 L 638.44 362.06 L 642.63 360.94 L 646.82 355.39 L 651.01 351.79 L 655.20 356.78 L 659.39 359.00 L 663.58 362.89 L 667.77 364.83 L 671.96 363.72 L 676.15 370.94 L 680.34 368.44 L 684.53 361.22 L 688.72 359.56 L 692.91 359.00 L 697.09 359.56 L 701.28 356.78 L 705.47 356.50 L 709.66 362.06 L 713.85 362.33 L 718.04 360.94 L 722.23 363.72 L 726.42 363.17 L 730.61 364.28 L 734.80 366.22 L 738.99 362.33 L 743.18 364.00 L 747.37 359.56 L 751.56 361.50 L 755.75 358.72 L 759.94 358.45 L 764.13 355.67 L 768.32 352.06 L 772.51 351.79 L 776.69 342.63 L 780.88 339.57 L 785.07 341.52 L 789.26 336.52 L 793.45 332.63 L 797.64 333.47 L 801.83 331.80 L 806.02 332.36 L 810.21 331.25 L 814.40 326.80 L 818.59 326.53 L 822.78 330.14 L 826.97 331.25 L 831.16 325.97 L 835.35 318.76 L 839.54 317.64 L 843.73 320.98 L 847.92 318.20 L 852.11 315.15 L 856.29 308.76 L 860.48 305.99 L 864.67 293.22 L 868.86 289.06 L 873.05 278.23 L 877.24 275.73 L 881.43 267.68 L 885.62 257.97 L 889.81 267.96 L 894.00 252.42 L 898.19 282.39 L 902.38 282.67 L 906.57 281.28 L 910.76 282.95 L 914.95 296.27 L 919.14 299.60 L 923.33 301.55 L 927.52 292.39 L 931.71 294.88 L 935.89 294.05 L 940.08 301.82 L 944.27 296.83 L 948.46 297.38 L 952.65 294.88 L 956.84 282.95 L 961.03 281.01 L 965.22 273.79 L 969.41 277.40 L 973.60 286.56 L 977.79 291.83 L 981.98 288.22 L 986.17 287.39 L 990.36 287.39 L 994.55 288.78 L 998.74 281.28 L 1002.93 281.56 L 1007.12 277.68 L 1011.31 277.95 L 1015.49 271.29 L 1019.68 269.07 L 1023.87 271.57 L 1028.06 272.12 L 1032.25 272.68 L 1036.44 272.96 L 1040.63 274.07 L 1044.82 270.46 L 1049.01 268.24 L 1053.20 262.96 L 1057.39 261.58 L 1061.58 259.91 L 1065.77 260.47 L 1069.96 255.19 L 1074.15 256.58 L 1078.34 255.47 L 1082.53 243.81 L 1086.72 236.87 L 1090.91 238.54 L 1095.09 238.82 L 1099.28 234.38 L 1103.47 249.09 L 1107.66 248.81 L 1111.85 251.31 L 1116.04 241.32 L 1120.23 237.43 L 1124.42 241.04 L 1128.61 238.82 L 1132.80 236.04 L 1136.99 227.71 L 1141.18 228.55 L 1145.37 223.55 L 1149.56 226.60 L 1153.75 229.38 L 1157.94 229.38 L 1162.13 209.95 L 1166.32 202.18 L 1170.51 191.08 L 1174.69 183.86 L 1178.88 175.53 L 1183.07 160.54 L 1187.26 137.23 L 1191.45 135.29 L 1195.64 204.40 L 1199.83 227.16 L 1204.02 193.85 L 1208.21 194.96 L 1212.40 209.95 L 1216.59 193.30 L 1220.78 179.42 L 1224.97 185.52 L 1229.16 179.42 L 1233.35 199.13 L 1237.54 186.08 L 1241.73 171.65 L 1245.92 173.59 L 1250.11 169.43 L 1254.29 161.93 L 1258.48 154.16 L 1262.67 182.47 L 1266.86 177.75 L 1271.05 185.52 L 1275.24 176.92 L 1279.43 176.92 L 1283.62 172.20 L 1287.81 174.42 L 1292.00 185.25" fill="none" stroke="#0f766e" stroke-width="2"  />
<path d="M 98.00 438.50 L 102.19 437.12 L 106.38 438.71 L 110.57 437.77 L 114.76 435.31 L 118.95 434.23 L 123.14 434.50 L 127.33 431.81 L 131.52 434.92 L 135.71 431.76 L 139.89 429.03 L 144.08 429.12 L 148.27 430.43 L 152.46 430.24 L 156.65 425.73 L 160.84 424.89 L 165.03 425.19 L 169.22 424.27 L 173.41 416.32 L 177.60 411.61 L 181.79 412.53 L 185.98 408.97 L 190.17 406.89 L 194.36 406.63 L 198.55 405.64 L 202.74 408.68 L 206.93 409.47 L 211.12 408.28 L 215.31 402.21 L 219.49 402.61 L 223.68 402.53 L 227.87 401.80 L 232.06 403.61 L 236.25 405.59 L 240.44 409.03 L 244.63 411.49 L 248.82 410.60 L 253.01 407.78 L 257.20 404.88 L 261.39 406.49 L 265.58 407.49 L 269.77 407.21 L 273.96 407.59 L 278.15 404.42 L 282.34 400.50 L 286.53 398.06 L 290.72 396.50 L 294.91 394.81 L 299.09 391.01 L 303.28 391.00 L 307.47 392.53 L 311.66 394.63 L 315.85 394.28 L 320.04 393.90 L 324.23 390.66 L 328.42 388.87 L 332.61 383.66 L 336.80 381.97 L 340.99 381.92 L 345.18 385.08 L 349.37 397.61 L 353.56 393.44 L 357.75 382.63 L 361.94 380.19 L 366.13 373.24 L 370.32 368.56 L 374.51 371.87 L 378.69 363.12 L 382.88 358.61 L 387.07 359.19 L 391.26 358.27 L 395.45 347.92 L 399.64 358.59 L 403.83 360.08 L 408.02 361.12 L 412.21 358.83 L 416.40 361.34 L 420.59 362.68 L 424.78 355.81 L 428.97 354.60 L 433.16 358.92 L 437.35 361.69 L 441.54 365.33 L 445.73 370.44 L 449.92 376.81 L 454.11 374.15 L 458.29 375.59 L 462.48 374.61 L 466.67 365.99 L 470.86 363.29 L 475.05 363.65 L 479.24 360.91 L 483.43 352.65 L 487.62 356.59 L 491.81 364.72 L 496.00 363.48 L 500.19 363.74 L 504.38 360.55 L 508.57 357.41 L 512.76 355.69 L 516.95 359.39 L 521.14 361.12 L 525.33 360.86 L 529.52 359.99 L 533.71 356.70 L 537.89 351.64 L 542.08 348.95 L 546.27 353.32 L 550.46 355.58 L 554.65 355.93 L 558.84 356.15 L 563.03 355.78 L 567.22 361.65 L 571.41 361.49 L 575.60 360.96 L 579.79 368.31 L 583.98 368.18 L 588.17 363.73 L 592.36 360.41 L 596.55 360.99 L 600.74 361.74 L 604.93 360.63 L 609.12 364.08 L 613.31 365.26 L 617.49 363.76 L 621.68 360.36 L 625.87 359.28 L 630.06 362.21 L 634.25 361.97 L 638.44 360.84 L 642.63 361.49 L 646.82 357.11 L 651.01 353.19 L 655.20 355.09 L 659.39 358.00 L 663.58 361.00 L 667.77 363.73 L 671.96 364.23 L 676.15 369.89 L 680.34 369.55 L 684.53 362.63 L 688.72 358.02 L 692.91 358.54 L 697.09 358.78 L 701.28 357.85 L 705.47 356.38 L 709.66 358.93 L 713.85 361.58 L 718.04 361.41 L 722.23 362.18 L 726.42 363.25 L 730.61 362.88 L 734.80 365.46 L 738.99 364.13 L 743.18 362.28 L 747.37 361.26 L 751.56 359.33 L 755.75 359.84 L 759.94 357.86 L 764.13 357.08 L 768.32 352.72 L 772.51 350.31 L 776.69 350.45 L 780.88 340.16 L 785.07 340.18 L 789.26 338.30 L 793.45 333.31 L 797.64 332.90 L 801.83 331.87 L 806.02 330.96 L 810.21 330.94 L 814.40 328.47 L 818.59 326.27 L 822.78 329.10 L 826.97 330.24 L 831.16 327.02 L 835.35 319.95 L 839.54 317.77 L 843.73 318.60 L 847.92 318.86 L 852.11 315.91 L 856.29 310.42 L 860.48 306.99 L 864.67 294.09 L 868.86 290.43 L 873.05 277.64 L 877.24 276.56 L 881.43 269.52 L 885.62 259.04 L 889.81 266.81 L 894.00 259.61 L 898.19 281.65 L 902.38 281.88 L 906.57 281.31 L 910.76 281.66 L 914.95 292.53 L 919.14 297.24 L 923.33 299.58 L 927.52 292.87 L 931.71 293.61 L 935.89 293.55 L 940.08 301.13 L 944.27 297.74 L 948.46 297.18 L 952.65 295.63 L 956.84 284.76 L 961.03 281.32 L 965.22 274.15 L 969.41 277.20 L 973.60 284.64 L 977.79 289.68 L 981.98 289.76 L 986.17 287.27 L 990.36 287.42 L 994.55 287.88 L 998.74 284.05 L 1002.93 281.46 L 1007.12 279.03 L 1011.31 276.49 L 1015.49 277.06 L 1019.68 266.18 L 1023.87 269.16 L 1028.06 271.42 L 1032.25 272.18 L 1036.44 271.83 L 1040.63 272.40 L 1044.82 271.70 L 1049.01 268.88 L 1053.20 265.45 L 1057.39 262.30 L 1061.58 258.83 L 1065.77 259.64 L 1069.96 256.14 L 1074.15 255.58 L 1078.34 254.98 L 1082.53 249.53 L 1086.72 239.71 L 1090.91 237.01 L 1095.09 237.23 L 1099.28 237.60 L 1103.47 251.11 L 1107.66 247.24 L 1111.85 253.22 L 1116.04 238.31 L 1120.23 235.09 L 1124.42 240.07 L 1128.61 240.49 L 1132.80 236.16 L 1136.99 228.24 L 1141.18 226.82 L 1145.37 222.65 L 1149.56 224.62 L 1153.75 227.76 L 1157.94 227.65 L 1162.13 228.45 L 1166.32 206.95 L 1170.51 192.65 L 1174.69 182.07 L 1178.88 175.68 L 1183.07 164.19 L 1187.26 143.32 L 1191.45 135.07 L 1195.64 208.79 L 1199.83 231.50 L 1204.02 198.42 L 1208.21 191.16 L 1212.40 216.03 L 1216.59 192.95 L 1220.78 175.27 L 1224.97 183.80 L 1229.16 178.65 L 1233.35 201.48 L 1237.54 186.28 L 1241.73 166.06 L 1245.92 170.85 L 1250.11 171.42 L 1254.29 157.45 L 1258.48 156.25 L 1262.67 179.97 L 1266.86 179.68 L 1271.05 183.14 L 1275.24 176.81 L 1279.43 171.64 L 1283.62 174.20 L 1287.81 174.01 L 1292.00 183.02" fill="none" stroke="#1d4ed8" stroke-width="2"  />
<path d="M 98.00 440.45 L 102.19 436.26 L 106.38 438.41 L 110.57 438.33 L 114.76 436.40 L 118.95 433.59 L 123.14 433.59 L 127.33 430.81 L 131.52 435.56 L 135.71 433.81 L 139.89 430.26 L 144.08 427.92 L 148.27 428.85 L 152.46 428.85 L 156.65 426.12 L 160.84 424.55 L 165.03 425.26 L 169.22 423.27 L 173.41 426.68 L 177.60 411.74 L 181.79 412.27 L 185.98 411.80 L 190.17 405.93 L 194.36 406.96 L 198.55 406.59 L 202.74 403.03 L 206.93 407.94 L 211.12 407.94 L 215.31 402.54 L 219.49 402.24 L 223.68 401.75 L 227.87 402.49 L 232.06 400.80 L 236.25 405.57 L 240.44 405.26 L 244.63 410.41 L 248.82 412.65 L 253.01 408.53 L 257.20 405.24 L 261.39 405.11 L 265.58 406.71 L 269.77 406.58 L 273.96 409.01 L 278.15 405.25 L 282.34 403.69 L 286.53 397.81 L 290.72 397.74 L 294.91 396.00 L 299.09 391.66 L 303.28 390.62 L 307.47 391.00 L 311.66 393.70 L 315.85 395.21 L 320.04 393.66 L 324.23 393.70 L 328.42 389.14 L 332.61 386.52 L 336.80 381.46 L 340.99 382.20 L 345.18 381.94 L 349.37 384.02 L 353.56 394.17 L 357.75 392.85 L 361.94 383.86 L 366.13 376.66 L 370.32 370.63 L 374.51 372.71 L 378.69 370.13 L 382.88 357.58 L 387.07 358.58 L 391.26 358.58 L 395.45 347.42 L 399.64 353.55 L 403.83 361.76 L 408.02 357.13 L 412.21 361.47 L 416.40 356.82 L 420.59 360.67 L 424.78 363.07 L 428.97 349.15 L 433.16 355.26 L 437.35 362.39 L 441.54 359.82 L 445.73 370.48 L 449.92 369.50 L 454.11 377.57 L 458.29 371.85 L 462.48 376.24 L 466.67 371.38 L 470.86 364.05 L 475.05 361.27 L 479.24 364.69 L 483.43 355.51 L 487.62 356.07 L 491.81 363.39 L 496.00 364.07 L 500.19 362.06 L 504.38 364.38 L 508.57 357.70 L 512.76 355.25 L 516.95 357.10 L 521.14 361.84 L 525.33 360.28 L 529.52 359.95 L 533.71 358.16 L 537.89 353.44 L 542.08 348.78 L 546.27 353.83 L 550.46 353.99 L 554.65 354.96 L 558.84 354.96 L 563.03 356.61 L 567.22 355.51 L 571.41 361.88 L 575.60 360.54 L 579.79 361.68 L 583.98 368.18 L 588.17 364.34 L 592.36 361.56 L 596.55 359.52 L 600.74 360.81 L 604.93 360.81 L 609.12 361.82 L 613.31 365.25 L 617.49 364.09 L 621.68 362.83 L 625.87 359.53 L 630.06 360.92 L 634.25 362.43 L 638.44 360.29 L 642.63 361.36 L 646.82 360.02 L 651.01 354.56 L 655.20 351.27 L 659.39 356.21 L 663.58 358.52 L 667.77 362.31 L 671.96 364.14 L 676.15 363.36 L 680.34 370.22 L 684.53 367.51 L 688.72 360.45 L 692.91 358.85 L 697.09 358.34 L 701.28 358.75 L 705.47 356.12 L 709.66 356.08 L 713.85 361.39 L 718.04 361.59 L 722.23 360.40 L 726.42 363.06 L 730.61 362.52 L 734.80 363.74 L 738.99 365.39 L 743.18 361.70 L 747.37 363.15 L 751.56 358.94 L 755.75 360.74 L 759.94 358.02 L 764.13 357.64 L 768.32 354.81 L 772.51 350.21 L 776.69 349.94 L 780.88 341.82 L 785.07 338.96 L 789.26 340.63 L 793.45 335.65 L 797.64 331.97 L 801.83 332.69 L 806.02 331.08 L 810.21 331.57 L 814.40 330.36 L 818.59 326.06 L 822.78 325.97 L 826.97 329.47 L 831.16 330.30 L 835.35 324.93 L 839.54 317.97 L 843.73 317.04 L 847.92 320.10 L 852.11 317.33 L 856.29 314.12 L 860.48 307.90 L 864.67 304.67 L 868.86 292.24 L 873.05 287.75 L 877.24 277.34 L 881.43 274.56 L 885.62 266.43 L 889.81 257.57 L 894.00 266.52 L 898.19 252.85 L 902.38 281.61 L 906.57 281.80 L 910.76 280.55 L 914.95 282.69 L 919.14 295.59 L 923.33 298.85 L 927.52 300.41 L 931.71 291.71 L 935.89 294.09 L 940.08 293.61 L 944.27 300.82 L 948.46 296.08 L 952.65 296.49 L 956.84 293.57 L 961.03 282.04 L 965.22 279.83 L 969.41 273.16 L 973.60 276.98 L 977.79 285.97 L 981.98 290.90 L 986.17 287.38 L 990.36 286.64 L 994.55 286.67 L 998.74 287.65 L 1002.93 280.49 L 1007.12 280.52 L 1011.31 275.48 L 1015.49 275.76 L 1019.68 270.31 L 1023.87 268.32 L 1028.06 270.77 L 1032.25 271.37 L 1036.44 271.82 L 1040.63 272.19 L 1044.82 273.03 L 1049.01 269.52 L 1053.20 267.15 L 1057.39 262.12 L 1061.58 260.61 L 1065.77 259.09 L 1069.96 259.34 L 1074.15 254.43 L 1078.34 255.63 L 1082.53 254.16 L 1086.72 242.61 L 1090.91 236.04 L 1095.09 236.16 L 1099.28 236.44 L 1103.47 234.50 L 1107.66 248.07 L 1111.85 248.28 L 1116.04 249.71 L 1120.23 240.03 L 1124.42 236.84 L 1128.61 240.14 L 1132.80 237.69 L 1136.99 234.61 L 1141.18 226.79 L 1145.37 227.22 L 1149.56 222.81 L 1153.75 225.89 L 1157.94 226.96 L 1162.13 226.96 L 1166.32 208.83 L 1170.51 200.76 L 1174.69 189.63 L 1178.88 182.40 L 1183.07 173.96 L 1187.26 158.63 L 1191.45 136.13 L 1195.64 137.49 L 1199.83 204.33 L 1204.02 224.96 L 1208.21 192.82 L 1212.40 195.08 L 1216.59 208.30 L 1220.78 191.56 L 1224.97 178.76 L 1229.16 184.18 L 1233.35 179.53 L 1237.54 197.63 L 1241.73 184.13 L 1245.92 170.66 L 1250.11 172.42 L 1254.29 167.96 L 1258.48 160.83 L 1262.67 154.35 L 1266.86 181.33 L 1271.05 177.05 L 1275.24 184.19 L 1279.43 175.87 L 1283.62 175.64 L 1287.81 171.38 L 1292.00 173.88" fill="none" stroke="#b45309" stroke-width="2" stroke-dasharray="6 4" />
  </g>
  <g>
    <text x="54" y="538" fill="#1f2937" font-size="16" font-weight="700">B. 绝对误差（越低越好）</text>
    <line x1="98" y1="540" x2="124" y2="540" stroke="#1d4ed8" stroke-width="2"  />
      <text x="130" y="544" fill="#24312e" font-size="12">持仓分段误差</text>
<line x1="313" y1="540" x2="339" y2="540" stroke="#b45309" stroke-width="2" stroke-dasharray="6 4" />
      <text x="345" y="544" fill="#24312e" font-size="12">持仓双目标误差</text>
    <line x1="98" y1="560.00" x2="1292" y2="560.00" stroke="#d7e3df" stroke-width="1" />
      <text x="90" y="564.00" text-anchor="end" fill="#5b6b68" font-size="11">13.74%</text>
<line x1="98" y1="630.00" x2="1292" y2="630.00" stroke="#d7e3df" stroke-width="1" />
      <text x="90" y="634.00" text-anchor="end" fill="#5b6b68" font-size="11">10.30%</text>
<line x1="98" y1="700.00" x2="1292" y2="700.00" stroke="#d7e3df" stroke-width="1" />
      <text x="90" y="704.00" text-anchor="end" fill="#5b6b68" font-size="11">6.87%</text>
<line x1="98" y1="770.00" x2="1292" y2="770.00" stroke="#d7e3df" stroke-width="1" />
      <text x="90" y="774.00" text-anchor="end" fill="#5b6b68" font-size="11">3.43%</text>
<line x1="98" y1="840.00" x2="1292" y2="840.00" stroke="#d7e3df" stroke-width="1" />
      <text x="90" y="844.00" text-anchor="end" fill="#5b6b68" font-size="11">0.00%</text>
    <line x1="98.00" y1="560" x2="98.00" y2="840" stroke="#eef3f1" stroke-width="1" />
      <text x="98.00" y="868" text-anchor="middle" fill="#5b6b68" font-size="11">25-01-02</text>
<line x1="290.72" y1="560" x2="290.72" y2="840" stroke="#eef3f1" stroke-width="1" />
      <text x="290.72" y="868" text-anchor="middle" fill="#5b6b68" font-size="11">25-03-17</text>
<line x1="479.24" y1="560" x2="479.24" y2="840" stroke="#eef3f1" stroke-width="1" />
      <text x="479.24" y="868" text-anchor="middle" fill="#5b6b68" font-size="11">25-05-23</text>
<line x1="697.09" y1="560" x2="697.09" y2="840" stroke="#eef3f1" stroke-width="1" />
      <text x="697.09" y="868" text-anchor="middle" fill="#5b6b68" font-size="11">25-08-06</text>
<line x1="910.76" y1="560" x2="910.76" y2="840" stroke="#eef3f1" stroke-width="1" />
      <text x="910.76" y="868" text-anchor="middle" fill="#5b6b68" font-size="11">25-10-24</text>
<line x1="1099.28" y1="560" x2="1099.28" y2="840" stroke="#eef3f1" stroke-width="1" />
      <text x="1099.28" y="868" text-anchor="middle" fill="#5b6b68" font-size="11">25-12-26</text>
<line x1="1292.00" y1="560" x2="1292.00" y2="840" stroke="#eef3f1" stroke-width="1" />
      <text x="1292.00" y="868" text-anchor="middle" fill="#5b6b68" font-size="11">26-03-12</text>
    <line x1="1116.04" y1="560" x2="1116.04" y2="840" stroke="#f59e0b" stroke-width="1.4" stroke-dasharray="4 4" />
       <text x="1122.04" y="552" fill="#a16207" font-size="11">验证起点</text>
    <path d="M 98.00 828.44 L 102.19 828.10 L 106.38 838.48 L 110.57 834.94 L 114.76 838.37 L 118.95 834.69 L 123.14 818.67 L 127.33 811.71 L 131.52 837.25 L 135.71 834.46 L 139.89 835.95 L 144.08 832.25 L 148.27 839.43 L 152.46 817.83 L 156.65 835.83 L 160.84 833.68 L 165.03 830.53 L 169.22 817.43 L 173.41 815.70 L 177.60 832.51 L 181.79 839.73 L 185.98 825.16 L 190.17 835.90 L 194.36 836.03 L 198.55 826.89 L 202.74 835.00 L 206.93 839.69 L 211.12 809.75 L 215.31 836.18 L 219.49 838.20 L 223.68 836.42 L 227.87 836.42 L 232.06 824.72 L 236.25 839.72 L 240.44 828.70 L 244.63 828.38 L 248.82 831.87 L 253.01 828.91 L 257.20 835.56 L 261.39 835.22 L 265.58 837.20 L 269.77 824.52 L 273.96 830.06 L 278.15 839.40 L 282.34 827.89 L 286.53 837.92 L 290.72 838.58 L 294.91 825.74 L 299.09 838.92 L 303.28 837.31 L 307.47 830.10 L 311.66 832.59 L 315.85 839.83 L 320.04 836.41 L 324.23 835.20 L 328.42 831.28 L 332.61 831.03 L 336.80 835.01 L 340.99 837.81 L 345.18 833.86 L 349.37 823.91 L 353.56 836.92 L 357.75 827.79 L 361.94 825.81 L 366.13 829.09 L 370.32 813.58 L 374.51 836.46 L 378.69 814.25 L 382.88 830.68 L 387.07 833.73 L 391.26 787.44 L 395.45 808.69 L 399.64 818.84 L 403.83 827.17 L 408.02 833.64 L 412.21 832.26 L 416.40 839.40 L 420.59 831.58 L 424.78 808.21 L 428.97 834.44 L 433.16 817.62 L 437.35 831.75 L 441.54 808.31 L 445.73 836.70 L 449.92 831.12 L 454.11 830.16 L 458.29 832.03 L 462.48 827.65 L 466.67 833.85 L 470.86 832.07 L 475.05 829.32 L 479.24 821.47 L 483.43 812.77 L 487.62 800.85 L 491.81 839.40 L 496.00 835.40 L 500.19 831.26 L 504.38 829.05 L 508.57 832.42 L 512.76 830.01 L 516.95 823.07 L 521.14 839.10 L 525.33 839.02 L 529.52 834.86 L 533.71 827.57 L 537.89 828.04 L 542.08 811.09 L 546.27 833.59 L 550.46 833.78 L 554.65 835.61 L 558.84 833.86 L 563.03 839.15 L 567.22 834.97 L 571.41 838.58 L 575.60 834.22 L 579.79 836.36 L 583.98 823.75 L 588.17 832.63 L 592.36 838.44 L 596.55 831.48 L 600.74 835.41 L 604.93 831.03 L 609.12 830.13 L 613.31 837.73 L 617.49 839.77 L 621.68 838.73 L 625.87 828.37 L 630.06 834.94 L 634.25 834.65 L 638.44 833.63 L 642.63 837.16 L 646.82 831.11 L 651.01 832.80 L 655.20 831.21 L 659.39 834.77 L 663.58 830.08 L 667.77 834.15 L 671.96 837.29 L 676.15 834.34 L 680.34 834.08 L 684.53 832.64 L 688.72 831.95 L 692.91 837.57 L 697.09 835.94 L 701.28 834.47 L 705.47 839.36 L 709.66 823.55 L 713.85 836.06 L 718.04 837.58 L 722.23 831.89 L 726.42 839.55 L 730.61 832.62 L 734.80 835.99 L 738.99 830.57 L 743.18 830.94 L 747.37 831.09 L 751.56 828.61 L 755.75 834.21 L 759.94 836.92 L 764.13 832.70 L 768.32 836.64 L 772.51 832.47 L 776.69 800.85 L 780.88 837.07 L 785.07 833.34 L 789.26 831.21 L 793.45 836.70 L 797.64 837.24 L 801.83 839.65 L 806.02 833.17 L 810.21 838.49 L 814.40 832.00 L 818.59 838.78 L 822.78 834.96 L 826.97 835.09 L 831.16 834.94 L 835.35 834.34 L 839.54 839.43 L 843.73 828.69 L 847.92 836.90 L 852.11 836.40 L 856.29 832.33 L 860.48 835.40 L 864.67 836.11 L 868.86 833.93 L 873.05 837.43 L 877.24 836.44 L 881.43 832.22 L 885.62 835.56 L 889.81 835.13 L 894.00 810.55 L 898.19 836.75 L 902.38 836.54 L 906.57 839.88 L 910.76 834.35 L 914.95 823.18 L 919.14 829.29 L 923.33 831.08 L 927.52 837.83 L 931.71 834.30 L 935.89 837.75 L 940.08 836.85 L 944.27 835.92 L 948.46 839.07 L 952.65 836.66 L 956.84 832.11 L 961.03 838.62 L 965.22 838.47 L 969.41 839.13 L 973.60 831.55 L 977.79 830.42 L 981.98 833.23 L 986.17 839.49 L 990.36 839.87 L 994.55 836.04 L 998.74 827.98 L 1002.93 839.57 L 1007.12 834.15 L 1011.31 833.69 L 1015.49 815.43 L 1019.68 827.72 L 1023.87 829.74 L 1028.06 836.99 L 1032.25 837.86 L 1036.44 835.19 L 1040.63 832.86 L 1044.82 834.71 L 1049.01 837.30 L 1053.20 829.59 L 1057.39 836.99 L 1061.58 835.49 L 1065.77 836.56 L 1069.96 836.09 L 1074.15 835.85 L 1078.34 837.96 L 1082.53 816.99 L 1086.72 828.75 L 1090.91 833.90 L 1095.09 833.69 L 1099.28 827.25 L 1103.47 831.76 L 1107.66 833.64 L 1111.85 832.19 L 1116.04 827.96 L 1120.23 830.68 L 1124.42 836.13 L 1128.61 833.33 L 1132.80 839.54 L 1136.99 837.96 L 1141.18 833.26 L 1145.37 836.53 L 1149.56 832.27 L 1153.75 833.64 L 1157.94 833.22 L 1162.13 770.15 L 1166.32 822.25 L 1170.51 834.27 L 1174.69 833.56 L 1178.88 839.48 L 1183.07 827.39 L 1187.26 819.74 L 1191.45 839.30 L 1195.64 823.59 L 1199.83 823.06 L 1204.02 823.26 L 1208.21 826.04 L 1212.40 817.04 L 1216.59 838.73 L 1220.78 825.17 L 1224.97 833.78 L 1229.16 837.26 L 1233.35 831.30 L 1237.54 839.29 L 1241.73 820.32 L 1245.92 830.29 L 1250.11 833.00 L 1254.29 824.46 L 1258.48 832.86 L 1262.67 831.01 L 1266.86 833.14 L 1271.05 831.39 L 1275.24 839.62 L 1279.43 821.21 L 1283.62 832.95 L 1287.81 838.54 L 1292.00 831.96" fill="none" stroke="#1d4ed8" stroke-width="2"  />
<path d="M 98.00 815.70 L 102.19 822.43 L 106.38 836.50 L 110.57 831.29 L 114.76 831.30 L 118.95 830.53 L 123.14 824.50 L 127.33 805.20 L 131.52 833.14 L 135.71 821.36 L 139.89 828.17 L 144.08 824.57 L 148.27 830.53 L 152.46 826.60 L 156.65 833.36 L 160.84 831.57 L 165.03 830.12 L 169.22 811.07 L 173.41 753.13 L 177.60 833.27 L 181.79 838.20 L 185.98 808.36 L 190.17 830.22 L 194.36 837.97 L 198.55 821.33 L 202.74 801.14 L 206.93 830.53 L 211.12 811.77 L 215.31 838.13 L 219.49 839.66 L 223.68 831.88 L 227.87 832.40 L 232.06 808.02 L 236.25 839.63 L 240.44 806.06 L 244.63 821.85 L 248.82 819.57 L 253.01 824.47 L 257.20 837.69 L 261.39 826.97 L 265.58 838.17 L 269.77 820.70 L 273.96 821.61 L 278.15 835.73 L 282.34 809.40 L 286.53 836.50 L 290.72 834.26 L 294.91 818.95 L 299.09 837.41 L 303.28 835.13 L 307.47 821.36 L 311.66 827.22 L 315.85 834.50 L 320.04 834.98 L 324.23 818.00 L 328.42 829.72 L 332.61 815.17 L 336.80 832.18 L 340.99 839.35 L 345.18 828.60 L 349.37 778.05 L 353.56 838.89 L 357.75 795.12 L 361.94 805.72 L 366.13 810.71 L 370.32 824.79 L 374.51 831.92 L 378.69 777.77 L 382.88 825.29 L 387.07 830.53 L 391.26 785.84 L 395.45 806.10 L 399.64 792.31 L 403.83 818.44 L 408.02 812.66 L 412.21 818.52 L 416.40 816.94 L 420.59 820.94 L 424.78 771.23 L 428.97 806.26 L 433.16 798.34 L 437.35 828.11 L 441.54 778.69 L 445.73 836.48 L 449.92 791.02 L 454.11 811.69 L 458.29 811.63 L 462.48 818.88 L 466.67 805.32 L 470.86 828.09 L 475.05 816.69 L 479.24 801.80 L 483.43 827.63 L 487.62 798.13 L 491.81 832.36 L 496.00 832.32 L 500.19 822.37 L 504.38 809.10 L 508.57 830.92 L 512.76 827.71 L 516.95 810.97 L 521.14 835.29 L 525.33 837.97 L 529.52 835.03 L 533.71 820.03 L 537.89 818.85 L 542.08 810.19 L 546.27 836.24 L 550.46 825.53 L 554.65 830.53 L 558.84 827.64 L 563.03 836.59 L 567.22 802.63 L 571.41 836.57 L 575.60 832.06 L 579.79 800.87 L 583.98 823.72 L 588.17 829.43 L 592.36 832.45 L 596.55 823.71 L 600.74 830.53 L 604.93 832.00 L 609.12 818.10 L 613.31 837.77 L 617.49 838.07 L 621.68 825.78 L 625.87 829.64 L 630.06 828.16 L 634.25 832.22 L 638.44 830.74 L 642.63 837.84 L 646.82 816.09 L 651.01 825.77 L 655.20 811.42 L 659.39 825.44 L 663.58 817.01 L 667.77 826.64 L 671.96 837.77 L 676.15 799.25 L 680.34 830.48 L 684.53 807.01 L 688.72 835.34 L 692.91 839.22 L 697.09 833.66 L 701.28 829.81 L 705.47 838.00 L 709.66 808.57 L 713.85 835.03 L 718.04 836.64 L 722.23 822.48 L 726.42 839.43 L 730.61 830.72 L 734.80 826.81 L 738.99 823.90 L 743.18 827.84 L 747.37 821.23 L 751.56 826.56 L 755.75 829.50 L 759.94 837.80 L 764.13 829.83 L 768.32 825.91 L 772.51 831.96 L 776.69 803.41 L 780.88 828.84 L 785.07 827.23 L 789.26 819.74 L 793.45 825.26 L 797.64 832.68 L 801.83 835.66 L 806.02 833.77 L 810.21 838.41 L 814.40 822.89 L 818.59 837.76 L 822.78 819.79 L 826.97 831.33 L 831.16 819.17 L 835.35 810.80 L 839.54 838.49 L 843.73 821.31 L 847.92 831.04 L 852.11 829.78 L 856.29 815.25 L 860.48 831.23 L 864.67 788.90 L 868.86 825.91 L 873.05 798.85 L 877.24 833.07 L 881.43 810.95 L 885.62 804.92 L 889.81 796.07 L 894.00 782.23 L 898.19 711.21 L 902.38 835.35 L 906.57 837.78 L 910.76 829.52 L 914.95 778.99 L 919.14 821.82 L 923.33 827.76 L 927.52 804.25 L 931.71 825.80 L 935.89 839.84 L 940.08 802.64 L 944.27 822.02 L 948.46 834.13 L 952.65 832.80 L 956.84 793.65 L 961.03 835.50 L 965.22 814.13 L 969.41 821.70 L 973.60 797.87 L 977.79 813.93 L 981.98 828.19 L 986.17 839.97 L 990.36 836.70 L 994.55 830.67 L 998.74 812.30 L 1002.93 835.32 L 1007.12 827.71 L 1011.31 829.33 L 1015.49 820.97 L 1019.68 834.74 L 1023.87 826.15 L 1028.06 834.21 L 1032.25 834.42 L 1036.44 835.15 L 1040.63 831.98 L 1044.82 829.07 L 1049.01 834.58 L 1053.20 822.46 L 1057.39 837.71 L 1061.58 837.11 L 1065.77 834.28 L 1069.96 822.90 L 1074.15 831.11 L 1078.34 839.36 L 1082.53 798.33 L 1086.72 817.20 L 1090.91 830.04 L 1095.09 829.42 L 1099.28 831.83 L 1103.47 780.62 L 1107.66 836.98 L 1111.85 827.64 L 1116.04 806.37 L 1120.23 829.64 L 1124.42 823.18 L 1128.61 834.73 L 1132.80 833.45 L 1136.99 813.09 L 1141.18 833.12 L 1145.37 825.79 L 1149.56 825.23 L 1153.75 826.33 L 1157.94 830.53 L 1162.13 775.78 L 1166.32 815.25 L 1170.51 804.68 L 1174.69 819.21 L 1178.88 815.64 L 1183.07 793.62 L 1187.26 768.79 L 1191.45 837.22 L 1195.64 590.00 L 1199.83 750.98 L 1204.02 725.97 L 1208.21 832.12 L 1212.40 783.85 L 1216.59 785.07 L 1220.78 796.62 L 1224.97 815.57 L 1229.16 822.97 L 1233.35 767.50 L 1237.54 798.26 L 1241.73 795.98 L 1245.92 829.64 L 1250.11 829.48 L 1254.29 819.09 L 1258.48 817.17 L 1262.67 739.00 L 1266.86 827.27 L 1271.05 809.39 L 1275.24 814.16 L 1279.43 836.25 L 1283.62 827.86 L 1287.81 829.22 L 1292.00 798.95" fill="none" stroke="#b45309" stroke-width="2" stroke-dasharray="6 4" />
  </g>
</svg>