<?xml version="1.0" encoding="UTF-8"?>
<svg xmlns="http://www.w3.org/2000/svg" width="1360" height="980" viewBox="0 0 1360 980">
  <defs>
    <linearGradient id="bg" x1="0" y1="0" x2="1" y2="1">
      <stop offset="0%" stop-color="#f4efe6" />
      <stop offset="100%" stop-color="#eef5f2" />
    </linearGradient>
  </defs>
  <rect x="0" y="0" width="1360" height="980" fill="url(#bg)" />
  <text x="46" y="36" fill="#1f2937" font-size="31" font-weight="700">165520 离线研究图（持仓逐日估值版）</text>
  <text x="46" y="66" fill="#5b6b68" font-size="13">历史前十大持仓 + 持仓逐日涨跌幅 + USDCNY；双目标 lambda=0.10；披露期数 23；覆盖率均值 99.5%</text>
  <g>
    <text x="54" y="110" fill="#1f2937" font-size="16" font-weight="700">A. 净值拟合（同日对齐，无平移）</text>
    <line x1="98" y1="112" x2="124" y2="112" stroke="#0f766e" stroke-width="2"  />
      <text x="130" y="116" fill="#24312e" font-size="12">真实净值</text>
<line x1="313" y1="112" x2="339" y2="112" stroke="#1d4ed8" stroke-width="2"  />
      <text x="345" y="116" fill="#24312e" font-size="12">持仓分段估值</text>
<line x1="528" y1="112" x2="554" y2="112" stroke="#b45309" stroke-width="2" stroke-dasharray="6 4" />
      <text x="560" y="116" fill="#24312e" font-size="12">持仓双目标估值</text>
    <line x1="98" y1="132.00" x2="1292" y2="132.00" stroke="#d7e3df" stroke-width="1" />
      <text x="90" y="136.00" text-anchor="end" fill="#5b6b68" font-size="11">3.809</text>
<line x1="98" y1="209.50" x2="1292" y2="209.50" stroke="#d7e3df" stroke-width="1" />
      <text x="90" y="213.50" text-anchor="end" fill="#5b6b68" font-size="11">3.217</text>
<line x1="98" y1="287.00" x2="1292" y2="287.00" stroke="#d7e3df" stroke-width="1" />
      <text x="90" y="291.00" text-anchor="end" fill="#5b6b68" font-size="11">2.624</text>
<line x1="98" y1="364.50" x2="1292" y2="364.50" stroke="#d7e3df" stroke-width="1" />
      <text x="90" y="368.50" text-anchor="end" fill="#5b6b68" font-size="11">2.031</text>
<line x1="98" y1="442.00" x2="1292" y2="442.00" stroke="#d7e3df" stroke-width="1" />
      <text x="90" y="446.00" text-anchor="end" fill="#5b6b68" font-size="11">1.438</text>
    <line x1="98.00" y1="132" x2="98.00" y2="442" stroke="#eef3f1" stroke-width="1" />
      <text x="98.00" y="470" text-anchor="middle" fill="#5b6b68" font-size="11">25-01-02</text>
<line x1="290.04" y1="132" x2="290.04" y2="442" stroke="#eef3f1" stroke-width="1" />
      <text x="290.04" y="470" text-anchor="middle" fill="#5b6b68" font-size="11">25-03-17</text>
<line x1="482.08" y1="132" x2="482.08" y2="442" stroke="#eef3f1" stroke-width="1" />
      <text x="482.08" y="470" text-anchor="middle" fill="#5b6b68" font-size="11">25-05-26</text>
<line x1="695.00" y1="132" x2="695.00" y2="442" stroke="#eef3f1" stroke-width="1" />
      <text x="695.00" y="470" text-anchor="middle" fill="#5b6b68" font-size="11">25-08-06</text>
<line x1="907.92" y1="132" x2="907.92" y2="442" stroke="#eef3f1" stroke-width="1" />
      <text x="907.92" y="470" text-anchor="middle" fill="#5b6b68" font-size="11">25-10-24</text>
<line x1="1099.96" y1="132" x2="1099.96" y2="442" stroke="#eef3f1" stroke-width="1" />
      <text x="1099.96" y="470" text-anchor="middle" fill="#5b6b68" font-size="11">25-12-29</text>
<line x1="1292.00" y1="132" x2="1292.00" y2="442" stroke="#eef3f1" stroke-width="1" />
      <text x="1292.00" y="470" text-anchor="middle" fill="#5b6b68" font-size="11">26-03-13</text>
    <line x1="1112.48" y1="132" x2="1112.48" y2="442" stroke="#f59e0b" stroke-width="1.4" stroke-dasharray="4 4" />
       <text x="1118.48" y="124" fill="#a16207" font-size="11">验证起点</text>
    <path d="M 98.00 436.11 L 102.17 434.92 L 106.35 433.58 L 110.52 429.40 L 114.70 431.92 L 118.87 431.24 L 123.05 431.58 L 127.22 427.75 L 131.40 425.18 L 135.57 427.87 L 139.75 424.35 L 143.92 423.63 L 148.10 425.27 L 152.27 426.43 L 156.45 426.05 L 160.62 427.59 L 164.80 425.61 L 168.97 426.17 L 173.15 424.01 L 177.32 422.30 L 181.50 419.98 L 185.67 419.16 L 189.85 419.13 L 194.02 420.46 L 198.20 421.84 L 202.37 420.42 L 206.55 424.89 L 210.72 426.36 L 214.90 424.99 L 219.07 424.38 L 223.24 425.29 L 227.42 425.67 L 231.59 427.99 L 235.77 427.23 L 239.94 428.17 L 244.12 431.14 L 248.29 426.42 L 252.47 425.40 L 256.64 424.21 L 260.82 421.44 L 264.99 419.04 L 269.17 416.90 L 273.34 415.88 L 277.52 416.28 L 281.69 415.24 L 285.87 412.26 L 290.04 414.35 L 294.22 411.43 L 298.39 410.98 L 302.57 411.73 L 306.74 416.66 L 310.92 413.36 L 315.09 412.06 L 319.27 413.20 L 323.44 415.37 L 327.62 414.85 L 331.79 416.55 L 335.97 416.23 L 340.14 418.32 L 344.31 421.27 L 348.49 437.57 L 352.66 437.03 L 356.84 434.65 L 361.01 428.40 L 365.19 426.57 L 369.36 422.26 L 373.54 423.41 L 377.71 423.10 L 381.89 424.26 L 386.06 424.98 L 390.24 417.45 L 394.41 418.26 L 398.59 421.93 L 402.76 422.83 L 406.94 422.70 L 411.11 423.53 L 415.29 423.89 L 419.46 424.53 L 423.64 419.74 L 427.81 419.06 L 431.99 420.43 L 436.16 421.14 L 440.34 419.70 L 444.51 419.33 L 448.69 417.63 L 452.86 419.97 L 457.03 420.32 L 461.21 421.06 L 465.38 420.53 L 469.56 415.59 L 473.73 417.41 L 477.91 417.20 L 482.08 416.94 L 486.26 420.95 L 490.43 420.93 L 494.61 420.38 L 498.78 421.79 L 502.96 419.08 L 507.13 416.55 L 511.31 417.66 L 515.48 415.51 L 519.66 414.98 L 523.83 414.77 L 528.01 410.69 L 532.18 408.18 L 536.36 408.09 L 540.53 409.25 L 544.71 409.13 L 548.88 409.72 L 553.06 413.24 L 557.23 414.32 L 561.41 412.74 L 565.58 411.84 L 569.76 409.94 L 573.93 409.22 L 578.10 405.05 L 582.28 405.16 L 586.45 401.77 L 590.63 400.01 L 594.80 399.22 L 598.98 402.01 L 603.15 403.73 L 607.33 401.48 L 611.50 406.34 L 615.68 403.60 L 619.85 399.68 L 624.03 398.33 L 628.20 400.43 L 632.38 401.24 L 636.55 400.26 L 640.73 395.08 L 644.90 389.05 L 649.08 384.23 L 653.25 384.81 L 657.43 378.13 L 661.60 378.30 L 665.78 379.06 L 669.95 379.69 L 674.13 380.58 L 678.30 388.42 L 682.48 389.44 L 686.65 385.44 L 690.83 384.38 L 695.00 381.61 L 699.17 378.59 L 703.35 375.18 L 707.52 374.71 L 711.70 375.89 L 715.87 371.18 L 720.05 373.32 L 724.22 367.98 L 728.40 367.05 L 732.57 368.18 L 736.75 365.90 L 740.92 366.84 L 745.10 363.62 L 749.27 350.44 L 753.45 351.63 L 757.62 353.21 L 761.80 349.02 L 765.97 341.43 L 770.15 331.55 L 774.32 334.20 L 778.50 334.95 L 782.67 346.81 L 786.85 334.60 L 791.02 335.51 L 795.20 332.71 L 799.37 335.92 L 803.55 330.95 L 807.72 324.99 L 811.90 327.14 L 816.07 330.36 L 820.24 329.98 L 824.42 340.28 L 828.59 336.82 L 832.77 333.49 L 836.94 335.43 L 841.12 331.64 L 845.29 326.10 L 849.47 325.42 L 853.64 313.83 L 857.82 303.00 L 861.99 276.23 L 866.17 284.65 L 870.34 272.91 L 874.52 285.75 L 878.69 283.28 L 882.87 290.08 L 887.04 295.78 L 891.22 300.87 L 895.39 296.49 L 899.57 300.53 L 903.74 297.27 L 907.92 291.94 L 912.09 283.72 L 916.27 294.04 L 920.44 279.84 L 924.62 276.17 L 928.79 284.42 L 932.97 288.88 L 937.14 299.03 L 941.31 297.83 L 945.49 287.75 L 949.66 285.71 L 953.84 284.26 L 958.01 289.05 L 962.19 289.19 L 966.36 276.00 L 970.54 283.44 L 974.71 285.39 L 978.89 294.93 L 983.06 285.84 L 987.24 287.90 L 991.41 304.37 L 995.59 306.41 L 999.76 299.26 L 1003.94 299.39 L 1008.11 298.58 L 1012.29 294.04 L 1016.46 283.70 L 1020.64 288.50 L 1024.81 286.38 L 1028.99 285.36 L 1033.16 276.69 L 1037.34 274.70 L 1041.51 285.27 L 1045.69 282.31 L 1049.86 284.85 L 1054.03 279.89 L 1058.21 282.65 L 1062.38 291.69 L 1066.56 281.44 L 1070.73 282.08 L 1074.91 276.04 L 1079.08 267.66 L 1083.26 265.67 L 1087.43 264.07 L 1091.61 267.29 L 1095.78 255.82 L 1099.96 263.58 L 1104.13 257.20 L 1108.31 253.44 L 1112.48 243.59 L 1116.66 227.28 L 1120.83 224.62 L 1125.01 231.31 L 1129.18 219.65 L 1133.36 214.54 L 1137.53 210.91 L 1141.71 208.36 L 1145.88 202.57 L 1150.06 207.14 L 1154.23 206.76 L 1158.41 205.78 L 1162.58 194.57 L 1166.76 197.79 L 1170.93 187.92 L 1175.10 167.09 L 1179.28 169.27 L 1183.45 143.15 L 1187.63 134.63 L 1191.80 171.35 L 1195.98 205.31 L 1200.15 193.00 L 1204.33 191.17 L 1208.50 210.47 L 1212.68 208.84 L 1216.85 200.11 L 1221.03 199.91 L 1225.20 189.12 L 1229.38 185.98 L 1233.55 200.72 L 1237.73 188.14 L 1241.90 173.38 L 1246.08 176.87 L 1250.25 162.37 L 1254.43 146.73 L 1258.60 170.50 L 1262.78 172.71 L 1266.95 175.57 L 1271.13 184.01 L 1275.30 187.11 L 1279.48 184.02 L 1283.65 185.97 L 1287.83 188.14 L 1292.00 200.05" fill="none" stroke="#0f766e" stroke-width="2"  />
<path d="M 98.00 435.46 L 102.17 434.66 L 106.35 434.07 L 110.52 429.38 L 114.70 430.42 L 118.87 431.34 L 123.05 431.49 L 127.22 428.66 L 131.40 426.00 L 135.57 426.12 L 139.75 423.96 L 143.92 423.67 L 148.10 424.28 L 152.27 426.08 L 156.45 426.39 L 160.62 426.70 L 164.80 427.00 L 168.97 425.68 L 173.15 423.92 L 177.32 422.13 L 181.50 420.79 L 185.67 418.56 L 189.85 420.10 L 194.02 418.91 L 198.20 421.04 L 202.37 421.06 L 206.55 423.16 L 210.72 425.26 L 214.90 425.65 L 219.07 424.75 L 223.24 424.50 L 227.42 425.51 L 231.59 426.44 L 235.77 427.59 L 239.94 427.21 L 244.12 429.71 L 248.29 424.25 L 252.47 426.08 L 256.64 424.79 L 260.82 420.51 L 264.99 420.56 L 269.17 418.99 L 273.34 417.38 L 277.52 415.81 L 281.69 415.18 L 285.87 413.66 L 290.04 412.97 L 294.22 412.24 L 298.39 411.31 L 302.57 411.51 L 306.74 416.63 L 310.92 415.34 L 315.09 412.67 L 319.27 412.36 L 323.44 413.87 L 327.62 415.69 L 331.79 415.28 L 335.97 416.14 L 340.14 417.19 L 344.31 419.90 L 348.49 441.06 L 352.66 437.91 L 356.84 435.42 L 361.01 427.48 L 365.19 428.02 L 369.36 424.15 L 373.54 423.03 L 377.71 423.48 L 381.89 423.25 L 386.06 423.62 L 390.24 416.05 L 394.41 418.63 L 398.59 419.72 L 402.76 421.74 L 406.94 422.56 L 411.11 423.18 L 415.29 423.61 L 419.46 424.26 L 423.64 422.73 L 427.81 419.55 L 431.99 419.59 L 436.16 420.81 L 440.34 419.63 L 444.51 419.24 L 448.69 418.11 L 452.86 418.92 L 457.03 420.19 L 461.21 420.56 L 465.38 420.65 L 469.56 416.22 L 473.73 416.49 L 477.91 417.61 L 482.08 417.21 L 486.26 418.26 L 490.43 421.30 L 494.61 420.39 L 498.78 420.80 L 502.96 420.48 L 507.13 417.62 L 511.31 416.91 L 515.48 416.79 L 519.66 414.74 L 523.83 414.93 L 528.01 410.24 L 532.18 409.26 L 536.36 407.88 L 540.53 408.06 L 544.71 408.93 L 548.88 409.07 L 553.06 410.63 L 557.23 413.69 L 561.41 412.10 L 565.58 412.05 L 569.76 410.87 L 573.93 408.96 L 578.10 407.16 L 582.28 404.57 L 586.45 403.45 L 590.63 400.29 L 594.80 399.59 L 598.98 400.33 L 603.15 402.64 L 607.33 401.97 L 611.50 402.86 L 615.68 404.77 L 619.85 401.96 L 624.03 398.33 L 628.20 399.29 L 632.38 401.02 L 636.55 399.94 L 640.73 394.46 L 644.90 390.83 L 649.08 385.68 L 653.25 384.62 L 657.43 376.80 L 661.60 378.07 L 665.78 378.49 L 669.95 379.20 L 674.13 379.70 L 678.30 386.74 L 682.48 388.62 L 686.65 387.85 L 690.83 384.93 L 695.00 383.06 L 699.17 379.38 L 703.35 374.82 L 707.52 373.28 L 711.70 374.89 L 715.87 375.24 L 720.05 372.33 L 724.22 368.17 L 728.40 367.26 L 732.57 367.73 L 736.75 367.00 L 740.92 366.14 L 745.10 362.54 L 749.27 351.41 L 753.45 350.30 L 757.62 352.42 L 761.80 351.73 L 765.97 340.58 L 770.15 330.18 L 774.32 333.18 L 778.50 334.00 L 782.67 339.70 L 786.85 331.43 L 791.02 333.55 L 795.20 335.52 L 799.37 334.83 L 803.55 334.30 L 807.72 326.04 L 811.90 324.70 L 816.07 329.77 L 820.24 330.36 L 824.42 338.63 L 828.59 334.88 L 832.77 335.20 L 836.94 334.82 L 841.12 332.69 L 845.29 331.80 L 849.47 325.61 L 853.64 313.10 L 857.82 302.65 L 861.99 270.73 L 866.17 287.23 L 870.34 267.21 L 874.52 282.22 L 878.69 286.50 L 882.87 287.84 L 887.04 294.15 L 891.22 298.67 L 895.39 297.40 L 899.57 299.12 L 903.74 294.74 L 907.92 297.49 L 912.09 289.40 L 916.27 293.21 L 920.44 276.67 L 924.62 272.10 L 928.79 282.64 L 932.97 284.42 L 937.14 297.64 L 941.31 298.39 L 945.49 285.87 L 949.66 286.01 L 953.84 285.61 L 958.01 286.82 L 962.19 288.73 L 966.36 274.61 L 970.54 281.54 L 974.71 281.79 L 978.89 294.55 L 983.06 284.39 L 987.24 287.12 L 991.41 303.09 L 995.59 308.53 L 999.76 300.82 L 1003.94 299.12 L 1008.11 299.01 L 1012.29 297.24 L 1016.46 290.16 L 1020.64 285.83 L 1024.81 287.11 L 1028.99 285.62 L 1033.16 280.30 L 1037.34 274.85 L 1041.51 283.08 L 1045.69 283.79 L 1049.86 283.46 L 1054.03 282.83 L 1058.21 280.64 L 1062.38 289.46 L 1066.56 280.15 L 1070.73 281.15 L 1074.91 276.24 L 1079.08 271.72 L 1083.26 265.60 L 1087.43 264.80 L 1091.61 265.83 L 1095.78 256.90 L 1099.96 263.63 L 1104.13 257.13 L 1108.31 255.51 L 1112.48 243.79 L 1116.66 226.65 L 1120.83 225.82 L 1125.01 227.44 L 1129.18 223.71 L 1133.36 216.12 L 1137.53 211.03 L 1141.71 212.53 L 1145.88 200.53 L 1150.06 208.08 L 1154.23 204.51 L 1158.41 206.54 L 1162.58 196.19 L 1166.76 196.35 L 1170.93 192.69 L 1175.10 170.63 L 1179.28 167.26 L 1183.45 139.07 L 1187.63 134.48 L 1191.80 170.65 L 1195.98 206.54 L 1200.15 196.38 L 1204.33 192.55 L 1208.50 211.37 L 1212.68 208.82 L 1216.85 204.35 L 1221.03 200.21 L 1225.20 188.49 L 1229.38 188.81 L 1233.55 195.32 L 1237.73 187.87 L 1241.90 174.93 L 1246.08 174.43 L 1250.25 168.26 L 1254.43 145.13 L 1258.60 168.79 L 1262.78 171.16 L 1266.95 172.53 L 1271.13 184.40 L 1275.30 182.20 L 1279.48 185.81 L 1283.65 182.80 L 1287.83 185.45 L 1292.00 191.79" fill="none" stroke="#1d4ed8" stroke-width="2"  />
<path d="M 98.00 434.34 L 102.17 435.34 L 106.35 434.17 L 110.52 432.61 L 114.70 428.92 L 118.87 431.21 L 123.05 430.63 L 127.22 430.63 L 131.40 426.86 L 135.57 424.67 L 139.75 426.89 L 143.92 423.59 L 148.10 423.07 L 152.27 424.71 L 156.45 425.75 L 160.62 425.51 L 164.80 426.81 L 168.97 424.97 L 173.15 425.23 L 177.32 423.14 L 181.50 421.43 L 185.67 419.13 L 189.85 418.58 L 194.02 418.41 L 198.20 419.87 L 202.37 421.02 L 206.55 420.12 L 210.72 424.30 L 214.90 425.62 L 219.07 424.27 L 223.24 423.72 L 227.42 424.62 L 231.59 425.11 L 235.77 427.28 L 239.94 426.57 L 244.12 427.69 L 248.29 430.03 L 252.47 425.69 L 256.64 424.66 L 260.82 423.28 L 264.99 420.65 L 269.17 418.10 L 273.34 416.23 L 277.52 415.19 L 281.69 415.47 L 285.87 414.32 L 290.04 411.66 L 294.22 413.41 L 298.39 410.72 L 302.57 410.35 L 306.74 411.46 L 310.92 415.71 L 315.09 412.58 L 319.27 411.41 L 323.44 412.58 L 327.62 414.68 L 331.79 414.22 L 335.97 415.82 L 340.14 415.68 L 344.31 417.87 L 348.49 421.77 L 352.66 437.00 L 356.84 436.20 L 361.01 433.45 L 365.19 427.64 L 369.36 425.64 L 373.54 421.70 L 377.71 422.76 L 381.89 422.45 L 386.06 423.54 L 390.24 423.77 L 394.41 416.83 L 398.59 417.76 L 402.76 421.23 L 406.94 422.11 L 411.11 422.11 L 415.29 422.84 L 419.46 423.27 L 423.64 423.57 L 427.81 419.02 L 431.99 418.46 L 436.16 419.79 L 440.34 420.27 L 444.51 418.93 L 448.69 418.48 L 452.86 417.15 L 457.03 419.31 L 461.21 419.73 L 465.38 420.32 L 469.56 419.45 L 473.73 415.04 L 477.91 416.72 L 482.08 416.50 L 486.26 416.49 L 490.43 420.32 L 494.61 420.16 L 498.78 419.78 L 502.96 420.94 L 507.13 418.19 L 511.31 415.89 L 515.48 416.82 L 519.66 414.77 L 523.83 414.27 L 528.01 413.69 L 532.18 409.78 L 536.36 407.42 L 540.53 407.44 L 544.71 408.48 L 548.88 408.40 L 553.06 409.17 L 557.23 412.59 L 561.41 413.38 L 565.58 411.91 L 569.76 410.99 L 573.93 409.09 L 578.10 408.23 L 582.28 404.32 L 586.45 404.18 L 590.63 400.83 L 594.80 399.19 L 598.98 398.66 L 603.15 401.47 L 607.33 402.77 L 611.50 401.06 L 615.68 405.39 L 619.85 402.64 L 624.03 398.71 L 628.20 397.73 L 632.38 399.77 L 636.55 400.32 L 640.73 399.03 L 644.90 393.86 L 649.08 387.92 L 653.25 383.47 L 657.43 383.37 L 661.60 377.32 L 665.78 377.57 L 669.95 378.25 L 674.13 378.88 L 678.30 380.39 L 682.48 387.68 L 686.65 388.37 L 690.83 384.59 L 695.00 383.42 L 699.17 380.53 L 703.35 377.46 L 707.52 374.11 L 711.70 373.91 L 715.87 374.78 L 720.05 370.48 L 724.22 372.13 L 728.40 367.06 L 732.57 366.29 L 736.75 367.19 L 740.92 365.07 L 745.10 365.65 L 749.27 361.86 L 753.45 349.51 L 757.62 350.84 L 761.80 352.09 L 765.97 347.56 L 770.15 339.70 L 774.32 330.79 L 778.50 333.18 L 782.67 334.59 L 786.85 344.86 L 791.02 333.50 L 795.20 334.37 L 799.37 332.03 L 803.55 334.62 L 807.72 329.52 L 811.90 323.92 L 816.07 326.42 L 820.24 329.36 L 824.42 329.73 L 828.59 338.87 L 832.77 335.50 L 836.94 332.61 L 841.12 334.14 L 845.29 330.30 L 849.47 325.06 L 853.64 323.47 L 857.82 311.98 L 861.99 299.98 L 866.17 276.01 L 870.34 282.34 L 874.52 272.57 L 878.69 284.52 L 882.87 282.61 L 887.04 289.35 L 891.22 295.08 L 895.39 299.40 L 899.57 295.60 L 903.74 299.01 L 907.92 295.88 L 912.09 290.31 L 916.27 283.34 L 920.44 291.87 L 924.62 278.12 L 928.79 275.63 L 932.97 283.45 L 937.14 288.52 L 941.31 297.86 L 945.49 295.84 L 949.66 286.40 L 953.84 284.46 L 958.01 283.53 L 962.19 287.87 L 966.36 286.90 L 970.54 275.36 L 974.71 282.22 L 978.89 285.11 L 983.06 292.93 L 987.24 284.92 L 991.41 288.10 L 995.59 303.69 L 999.76 304.73 L 1003.94 298.12 L 1008.11 298.23 L 1012.29 297.16 L 1016.46 292.35 L 1020.64 282.92 L 1024.81 287.16 L 1028.99 285.15 L 1033.16 283.71 L 1037.34 275.34 L 1041.51 274.33 L 1045.69 283.93 L 1049.86 281.34 L 1054.03 283.45 L 1058.21 278.93 L 1062.38 282.12 L 1066.56 289.79 L 1070.73 280.24 L 1074.91 280.39 L 1079.08 274.29 L 1083.26 266.16 L 1087.43 264.32 L 1091.61 263.18 L 1095.78 265.25 L 1099.96 255.35 L 1104.13 261.75 L 1108.31 255.73 L 1112.48 251.46 L 1116.66 241.08 L 1120.83 225.80 L 1125.01 223.73 L 1129.18 229.36 L 1133.36 217.89 L 1137.53 212.80 L 1141.71 209.78 L 1145.88 206.31 L 1150.06 201.78 L 1154.23 205.68 L 1158.41 205.34 L 1162.58 203.57 L 1166.76 193.49 L 1170.93 195.81 L 1175.10 185.24 L 1179.28 165.72 L 1183.45 165.71 L 1187.63 140.78 L 1191.80 136.00 L 1195.98 172.09 L 1200.15 203.09 L 1204.33 191.53 L 1208.50 191.24 L 1212.68 208.91 L 1216.85 206.92 L 1221.03 198.72 L 1225.20 197.60 L 1229.38 187.62 L 1233.55 185.53 L 1237.73 198.37 L 1241.90 185.69 L 1246.08 172.00 L 1250.25 174.72 L 1254.43 159.83 L 1258.60 146.87 L 1262.78 169.11 L 1266.95 171.17 L 1271.13 174.88 L 1275.30 182.59 L 1279.48 185.41 L 1283.65 182.43 L 1287.83 184.56 L 1292.00 187.18" fill="none" stroke="#b45309" stroke-width="2" stroke-dasharray="6 4" />
  </g>
  <g>
    <text x="54" y="538" fill="#1f2937" font-size="16" font-weight="700">B. 绝对误差（越低越好）</text>
    <line x1="98" y1="540" x2="124" y2="540" stroke="#1d4ed8" stroke-width="2"  />
      <text x="130" y="544" fill="#24312e" font-size="12">持仓分段误差</text>
<line x1="313" y1="540" x2="339" y2="540" stroke="#b45309" stroke-width="2" stroke-dasharray="6 4" />
      <text x="345" y="544" fill="#24312e" font-size="12">持仓双目标误差</text>
    <line x1="98" y1="560.00" x2="1292" y2="560.00" stroke="#d7e3df" stroke-width="1" />
      <text x="90" y="564.00" text-anchor="end" fill="#5b6b68" font-size="11">9.19%</text>
<line x1="98" y1="630.00" x2="1292" y2="630.00" stroke="#d7e3df" stroke-width="1" />
      <text x="90" y="634.00" text-anchor="end" fill="#5b6b68" font-size="11">6.89%</text>
<line x1="98" y1="700.00" x2="1292" y2="700.00" stroke="#d7e3df" stroke-width="1" />
      <text x="90" y="704.00" text-anchor="end" fill="#5b6b68" font-size="11">4.60%</text>
<line x1="98" y1="770.00" x2="1292" y2="770.00" stroke="#d7e3df" stroke-width="1" />
      <text x="90" y="774.00" text-anchor="end" fill="#5b6b68" font-size="11">2.30%</text>
<line x1="98" y1="840.00" x2="1292" y2="840.00" stroke="#d7e3df" stroke-width="1" />
      <text x="90" y="844.00" text-anchor="end" fill="#5b6b68" font-size="11">0.00%</text>
    <line x1="98.00" y1="560" x2="98.00" y2="840" stroke="#eef3f1" stroke-width="1" />
      <text x="98.00" y="868" text-anchor="middle" fill="#5b6b68" font-size="11">25-01-02</text>
<line x1="290.04" y1="560" x2="290.04" y2="840" stroke="#eef3f1" stroke-width="1" />
      <text x="290.04" y="868" text-anchor="middle" fill="#5b6b68" font-size="11">25-03-17</text>
<line x1="482.08" y1="560" x2="482.08" y2="840" stroke="#eef3f1" stroke-width="1" />
      <text x="482.08" y="868" text-anchor="middle" fill="#5b6b68" font-size="11">25-05-26</text>
<line x1="695.00" y1="560" x2="695.00" y2="840" stroke="#eef3f1" stroke-width="1" />
      <text x="695.00" y="868" text-anchor="middle" fill="#5b6b68" font-size="11">25-08-06</text>
<line x1="907.92" y1="560" x2="907.92" y2="840" stroke="#eef3f1" stroke-width="1" />
      <text x="907.92" y="868" text-anchor="middle" fill="#5b6b68" font-size="11">25-10-24</text>
<line x1="1099.96" y1="560" x2="1099.96" y2="840" stroke="#eef3f1" stroke-width="1" />
      <text x="1099.96" y="868" text-anchor="middle" fill="#5b6b68" font-size="11">25-12-29</text>
<line x1="1292.00" y1="560" x2="1292.00" y2="840" stroke="#eef3f1" stroke-width="1" />
      <text x="1292.00" y="868" text-anchor="middle" fill="#5b6b68" font-size="11">26-03-13</text>
    <line x1="1112.48" y1="560" x2="1112.48" y2="840" stroke="#f59e0b" stroke-width="1.4" stroke-dasharray="4 4" />
       <text x="1118.48" y="552" fill="#a16207" font-size="11">验证起点</text>
    <path d="M 98.00 829.82 L 102.17 835.94 L 106.35 832.42 L 110.52 839.80 L 114.70 816.96 L 118.87 838.50 L 123.05 838.63 L 127.22 826.38 L 131.40 827.76 L 135.57 813.60 L 139.75 834.27 L 143.92 839.45 L 148.10 825.34 L 152.27 834.76 L 156.45 834.93 L 160.62 826.62 L 164.80 819.25 L 168.97 832.71 L 173.15 838.65 L 177.32 837.57 L 181.50 828.38 L 185.67 831.33 L 189.85 826.08 L 194.02 817.57 L 198.20 828.25 L 202.37 830.59 L 206.55 814.37 L 210.72 823.53 L 214.90 830.23 L 219.07 834.44 L 223.24 828.15 L 227.42 837.61 L 231.59 816.65 L 235.77 834.51 L 239.94 825.50 L 244.12 818.08 L 248.29 807.60 L 252.47 829.85 L 256.64 831.38 L 260.82 826.54 L 264.99 818.15 L 269.17 810.09 L 273.34 818.60 L 277.52 833.22 L 281.69 839.18 L 285.87 820.37 L 290.04 820.50 L 294.22 828.77 L 298.39 835.33 L 302.57 836.80 L 306.74 839.46 L 310.92 812.14 L 315.09 831.51 L 319.27 828.28 L 323.44 818.67 L 327.62 828.09 L 331.79 821.95 L 335.97 838.63 L 340.14 823.68 L 344.31 820.06 L 348.49 784.84 L 352.66 826.15 L 356.84 828.06 L 361.01 826.02 L 365.19 818.40 L 369.36 812.30 L 373.54 834.45 L 377.71 834.29 L 381.89 825.03 L 386.06 819.82 L 390.24 819.95 L 394.41 834.59 L 398.59 807.65 L 402.76 823.86 L 406.94 837.83 L 411.11 834.83 L 415.29 835.84 L 419.46 835.94 L 423.64 796.64 L 427.81 832.80 L 431.99 827.88 L 436.16 835.21 L 440.34 838.99 L 444.51 838.75 L 448.69 833.08 L 452.86 824.71 L 457.03 838.06 L 461.21 832.80 L 465.38 838.38 L 469.56 831.05 L 473.73 826.87 L 477.91 834.07 L 482.08 836.05 L 486.26 800.82 L 490.43 834.58 L 494.61 839.84 L 498.78 825.59 L 502.96 819.87 L 507.13 824.61 L 511.31 829.25 L 515.48 821.86 L 519.66 836.60 L 523.83 837.66 L 528.01 833.80 L 532.18 825.09 L 536.36 837.10 L 540.53 823.57 L 544.71 837.15 L 548.88 831.01 L 553.06 803.31 L 557.23 831.02 L 561.41 831.00 L 565.58 837.08 L 569.76 827.14 L 573.93 836.38 L 578.10 811.43 L 582.28 832.03 L 586.45 817.59 L 590.63 836.30 L 594.80 835.17 L 598.98 817.56 L 603.15 825.24 L 607.33 833.49 L 611.50 792.73 L 615.68 824.27 L 619.85 809.84 L 624.03 839.99 L 628.20 824.91 L 632.38 837.10 L 636.55 835.82 L 640.73 832.01 L 644.90 817.55 L 649.08 821.94 L 653.25 837.63 L 657.43 823.92 L 661.60 837.21 L 665.78 833.04 L 669.95 834.04 L 674.13 829.32 L 678.30 818.79 L 682.48 829.56 L 686.65 810.05 L 690.83 833.28 L 695.00 822.24 L 699.17 830.47 L 703.35 835.67 L 707.52 822.98 L 711.70 828.11 L 715.87 792.22 L 720.05 828.22 L 724.22 837.78 L 728.40 837.57 L 732.57 834.74 L 736.75 827.23 L 740.92 831.98 L 745.10 827.69 L 749.27 829.51 L 753.45 825.48 L 757.62 831.26 L 761.80 810.55 L 765.97 831.02 L 770.15 825.98 L 774.32 829.48 L 778.50 830.18 L 782.67 763.50 L 786.85 807.30 L 791.02 819.71 L 795.20 811.24 L 799.37 828.70 L 803.55 805.83 L 807.72 829.53 L 811.90 815.43 L 816.07 833.96 L 820.24 836.14 L 824.42 822.61 L 828.59 819.84 L 832.77 822.43 L 836.94 833.67 L 841.12 829.29 L 845.29 782.91 L 849.47 838.12 L 853.64 832.90 L 857.82 836.82 L 861.99 792.62 L 866.17 817.25 L 870.34 791.40 L 874.52 808.75 L 878.69 811.72 L 882.87 819.96 L 887.04 825.18 L 891.22 819.70 L 895.39 831.67 L 899.57 826.99 L 903.74 816.83 L 907.92 789.94 L 912.09 790.06 L 916.27 832.46 L 920.44 812.43 L 924.62 804.99 L 928.79 824.31 L 932.97 800.18 L 937.14 827.18 L 941.31 834.89 L 945.49 823.27 L 949.66 837.38 L 953.84 828.11 L 958.01 820.13 L 962.19 835.88 L 966.36 828.04 L 970.54 823.34 L 974.71 808.21 L 978.89 836.59 L 983.06 827.11 L 987.24 833.10 L 991.41 828.08 L 995.59 819.99 L 999.76 825.63 L 1003.94 837.53 L 1008.11 835.98 L 1012.29 811.04 L 1016.46 783.16 L 1020.64 816.20 L 1024.81 833.55 L 1028.99 837.69 L 1033.16 808.88 L 1037.34 838.74 L 1041.51 820.72 L 1045.69 827.03 L 1049.86 827.73 L 1054.03 814.50 L 1058.21 822.37 L 1062.38 819.98 L 1066.56 828.75 L 1070.73 831.92 L 1074.91 838.24 L 1079.08 805.82 L 1083.26 839.41 L 1087.43 833.95 L 1091.61 827.73 L 1095.78 831.22 L 1099.96 839.55 L 1104.13 839.43 L 1108.31 823.29 L 1112.48 838.41 L 1116.66 835.21 L 1120.83 830.93 L 1125.01 810.42 L 1129.18 809.85 L 1133.36 828.42 L 1137.53 839.14 L 1141.71 809.95 L 1145.88 825.42 L 1150.06 833.22 L 1154.23 823.83 L 1158.41 834.48 L 1162.58 828.67 L 1166.76 829.85 L 1170.93 807.09 L 1175.10 816.71 L 1179.28 826.68 L 1183.45 814.50 L 1187.63 839.09 L 1191.80 835.33 L 1195.98 831.15 L 1200.15 816.44 L 1204.33 830.45 L 1208.50 833.48 L 1212.68 839.87 L 1216.85 809.98 L 1221.03 837.86 L 1225.20 835.63 L 1229.38 820.61 L 1233.55 801.72 L 1237.73 838.12 L 1241.90 829.63 L 1246.08 823.63 L 1250.25 801.64 L 1254.43 829.93 L 1258.60 828.64 L 1262.78 829.68 L 1266.95 819.60 L 1271.13 837.31 L 1275.30 806.24 L 1279.48 827.80 L 1283.65 818.28 L 1287.83 821.46 L 1292.00 781.51" fill="none" stroke="#1d4ed8" stroke-width="2"  />
<path d="M 98.00 812.31 L 102.17 833.39 L 106.35 830.80 L 110.52 791.18 L 114.70 793.83 L 118.87 839.55 L 123.05 825.41 L 127.22 796.72 L 131.40 815.00 L 135.57 791.77 L 139.75 802.39 L 143.92 839.43 L 148.10 807.39 L 152.27 814.26 L 156.45 835.53 L 160.62 808.61 L 164.80 822.08 L 168.97 822.16 L 173.15 821.92 L 177.32 827.63 L 181.50 819.05 L 185.67 839.55 L 189.85 831.97 L 194.02 810.30 L 198.20 811.18 L 202.37 831.25 L 206.55 769.16 L 210.72 809.19 L 214.90 830.70 L 219.07 838.38 L 223.24 816.58 L 227.42 824.38 L 231.59 796.67 L 235.77 839.21 L 239.94 815.89 L 244.12 787.20 L 248.29 786.02 L 252.47 835.58 L 256.64 833.38 L 260.82 813.11 L 264.99 816.79 L 269.17 822.82 L 273.34 835.07 L 277.52 824.33 L 281.69 836.68 L 285.87 811.17 L 290.04 802.01 L 294.22 812.51 L 298.39 836.44 L 302.57 820.64 L 306.74 765.69 L 310.92 806.84 L 315.09 832.82 L 319.27 814.83 L 323.44 800.49 L 327.62 837.64 L 331.79 806.84 L 335.97 834.12 L 340.14 802.01 L 344.31 790.39 L 348.49 590.00 L 352.66 839.54 L 356.84 815.82 L 361.01 763.73 L 365.19 824.02 L 369.36 790.48 L 373.54 814.81 L 377.71 834.99 L 381.89 813.14 L 386.06 818.56 L 390.24 749.38 L 394.41 819.43 L 398.59 778.86 L 402.76 816.36 L 406.94 831.34 L 411.11 819.15 L 415.29 824.43 L 419.46 821.29 L 423.64 784.53 L 427.81 839.44 L 431.99 811.35 L 436.16 820.46 L 440.34 831.65 L 444.51 834.25 L 448.69 827.79 L 452.86 799.09 L 457.03 825.28 L 461.21 820.66 L 465.38 836.90 L 469.56 785.27 L 473.73 806.00 L 477.91 833.07 L 482.08 833.77 L 486.26 775.06 L 490.43 831.11 L 494.61 836.79 L 498.78 810.55 L 502.96 813.22 L 507.13 816.59 L 511.31 814.71 L 515.48 821.42 L 519.66 837.03 L 523.83 832.91 L 528.01 798.33 L 532.18 817.96 L 536.36 830.79 L 540.53 815.01 L 544.71 831.04 L 548.88 821.79 L 553.06 782.90 L 557.23 815.53 L 561.41 831.11 L 565.58 838.98 L 569.76 825.57 L 573.93 838.21 L 578.10 797.06 L 582.28 828.65 L 586.45 807.92 L 590.63 829.05 L 594.80 839.53 L 598.98 795.27 L 603.15 809.54 L 607.33 822.92 L 611.50 768.17 L 615.68 815.95 L 619.85 800.86 L 624.03 835.10 L 628.20 804.20 L 632.38 820.47 L 636.55 839.10 L 640.73 788.81 L 644.90 779.26 L 649.08 794.24 L 653.25 823.33 L 657.43 776.69 L 661.60 828.04 L 665.78 821.84 L 669.95 822.42 L 674.13 819.26 L 678.30 738.76 L 682.48 817.68 L 686.65 803.60 L 690.83 837.47 L 695.00 817.78 L 699.17 816.55 L 703.35 812.74 L 707.52 832.82 L 711.70 816.28 L 715.87 797.66 L 720.05 806.28 L 724.22 791.69 L 728.40 839.83 L 732.57 817.94 L 736.75 825.11 L 740.92 819.58 L 745.10 816.83 L 749.27 715.66 L 753.45 816.80 L 757.62 813.88 L 761.80 806.71 L 765.97 775.37 L 770.15 756.88 L 774.32 804.87 L 778.50 821.73 L 782.67 708.65 L 786.85 734.21 L 791.02 819.21 L 795.20 823.04 L 799.37 799.76 L 803.55 802.60 L 807.72 794.71 L 811.90 807.59 L 816.07 799.93 L 820.24 833.67 L 824.42 729.09 L 828.59 818.65 L 832.77 819.26 L 836.94 810.76 L 841.12 814.46 L 845.29 797.86 L 849.47 836.41 L 853.64 747.15 L 857.82 756.31 L 861.99 635.54 L 866.17 763.82 L 870.34 759.62 L 874.52 723.39 L 878.69 829.14 L 882.87 773.07 L 887.04 781.37 L 891.22 786.46 L 895.39 813.38 L 899.57 794.45 L 903.74 824.09 L 907.92 804.45 L 912.09 782.04 L 916.27 743.01 L 920.44 735.41 L 924.62 823.17 L 928.79 762.54 L 932.97 791.57 L 937.14 743.26 L 941.31 839.70 L 945.49 768.04 L 949.66 833.94 L 953.84 838.22 L 958.01 790.74 L 962.19 828.20 L 966.36 746.21 L 970.54 769.00 L 974.71 811.99 L 978.89 750.72 L 983.06 777.27 L 987.24 813.51 L 991.41 687.83 L 995.59 814.46 L 999.76 789.60 L 1003.94 828.33 L 1008.11 836.85 L 1012.29 811.76 L 1016.46 763.89 L 1020.64 790.30 L 1024.81 833.07 L 1028.99 838.13 L 1033.16 779.45 L 1037.34 834.59 L 1041.51 743.35 L 1045.69 825.80 L 1049.86 809.01 L 1054.03 809.07 L 1058.21 807.34 L 1062.38 753.84 L 1066.56 767.00 L 1070.73 823.92 L 1074.91 802.56 L 1079.08 784.21 L 1083.26 835.94 L 1087.43 837.98 L 1091.61 805.50 L 1095.78 763.30 L 1099.96 771.58 L 1104.13 802.83 L 1108.31 821.49 L 1112.48 777.98 L 1116.66 735.67 L 1120.83 831.11 L 1125.01 782.13 L 1129.18 767.93 L 1133.36 815.43 L 1137.53 826.27 L 1141.71 829.77 L 1145.88 813.38 L 1150.06 801.43 L 1154.23 832.28 L 1158.41 836.85 L 1162.58 777.06 L 1166.76 809.73 L 1170.93 785.65 L 1175.10 720.55 L 1179.28 816.49 L 1183.45 698.87 L 1187.63 802.17 L 1191.80 605.20 L 1195.98 601.81 L 1200.15 769.68 L 1204.33 837.52 L 1208.50 700.40 L 1212.68 839.44 L 1216.85 791.79 L 1221.03 831.57 L 1225.20 781.38 L 1229.38 828.75 L 1233.55 732.24 L 1237.73 769.50 L 1241.90 757.85 L 1246.08 807.26 L 1250.25 759.54 L 1254.43 757.43 L 1258.60 683.36 L 1262.78 816.00 L 1266.95 810.49 L 1271.13 777.65 L 1275.30 808.91 L 1279.48 830.48 L 1283.65 815.71 L 1287.83 815.35 L 1292.00 748.82" fill="none" stroke="#b45309" stroke-width="2" stroke-dasharray="6 4" />
  </g>
</svg>