<?xml version="1.0" encoding="UTF-8"?>
<svg xmlns="http://www.w3.org/2000/svg" width="1360" height="980" viewBox="0 0 1360 980">
  <defs>
    <linearGradient id="bg" x1="0" y1="0" x2="1" y2="1">
      <stop offset="0%" stop-color="#f4efe6" />
      <stop offset="100%" stop-color="#eef5f2" />
    </linearGradient>
  </defs>
  <rect x="0" y="0" width="1360" height="980" fill="url(#bg)" />
  <text x="46" y="36" fill="#1f2937" font-size="31" font-weight="700">167301 离线研究图（持仓逐日估值版）</text>
  <text x="46" y="66" fill="#5b6b68" font-size="13">历史前十大持仓 + 持仓逐日涨跌幅 + USDCNY；双目标 lambda=0.10；披露期数 39；覆盖率均值 99.5%</text>
  <g>
    <text x="54" y="110" fill="#1f2937" font-size="16" font-weight="700">A. 净值拟合（同日对齐，无平移）</text>
    <line x1="98" y1="112" x2="124" y2="112" stroke="#0f766e" stroke-width="2"  />
      <text x="130" y="116" fill="#24312e" font-size="12">真实净值</text>
<line x1="313" y1="112" x2="339" y2="112" stroke="#1d4ed8" stroke-width="2"  />
      <text x="345" y="116" fill="#24312e" font-size="12">持仓分段估值</text>
<line x1="528" y1="112" x2="554" y2="112" stroke="#b45309" stroke-width="2" stroke-dasharray="6 4" />
      <text x="560" y="116" fill="#24312e" font-size="12">持仓双目标估值</text>
    <line x1="98" y1="132.00" x2="1292" y2="132.00" stroke="#d7e3df" stroke-width="1" />
      <text x="90" y="136.00" text-anchor="end" fill="#5b6b68" font-size="11">1.352</text>
<line x1="98" y1="209.50" x2="1292" y2="209.50" stroke="#d7e3df" stroke-width="1" />
      <text x="90" y="213.50" text-anchor="end" fill="#5b6b68" font-size="11">1.242</text>
<line x1="98" y1="287.00" x2="1292" y2="287.00" stroke="#d7e3df" stroke-width="1" />
      <text x="90" y="291.00" text-anchor="end" fill="#5b6b68" font-size="11">1.132</text>
<line x1="98" y1="364.50" x2="1292" y2="364.50" stroke="#d7e3df" stroke-width="1" />
      <text x="90" y="368.50" text-anchor="end" fill="#5b6b68" font-size="11">1.022</text>
<line x1="98" y1="442.00" x2="1292" y2="442.00" stroke="#d7e3df" stroke-width="1" />
      <text x="90" y="446.00" text-anchor="end" fill="#5b6b68" font-size="11">0.912</text>
    <line x1="98.00" y1="132" x2="98.00" y2="442" stroke="#eef3f1" stroke-width="1" />
      <text x="98.00" y="470" text-anchor="middle" fill="#5b6b68" font-size="11">25-01-02</text>
<line x1="290.04" y1="132" x2="290.04" y2="442" stroke="#eef3f1" stroke-width="1" />
      <text x="290.04" y="470" text-anchor="middle" fill="#5b6b68" font-size="11">25-03-17</text>
<line x1="482.08" y1="132" x2="482.08" y2="442" stroke="#eef3f1" stroke-width="1" />
      <text x="482.08" y="470" text-anchor="middle" fill="#5b6b68" font-size="11">25-05-26</text>
<line x1="695.00" y1="132" x2="695.00" y2="442" stroke="#eef3f1" stroke-width="1" />
      <text x="695.00" y="470" text-anchor="middle" fill="#5b6b68" font-size="11">25-08-06</text>
<line x1="907.92" y1="132" x2="907.92" y2="442" stroke="#eef3f1" stroke-width="1" />
      <text x="907.92" y="470" text-anchor="middle" fill="#5b6b68" font-size="11">25-10-24</text>
<line x1="1099.96" y1="132" x2="1099.96" y2="442" stroke="#eef3f1" stroke-width="1" />
      <text x="1099.96" y="470" text-anchor="middle" fill="#5b6b68" font-size="11">25-12-29</text>
<line x1="1292.00" y1="132" x2="1292.00" y2="442" stroke="#eef3f1" stroke-width="1" />
      <text x="1292.00" y="470" text-anchor="middle" fill="#5b6b68" font-size="11">26-03-13</text>
    <line x1="1112.48" y1="132" x2="1112.48" y2="442" stroke="#f59e0b" stroke-width="1.4" stroke-dasharray="4 4" />
       <text x="1118.48" y="124" fill="#a16207" font-size="11">验证起点</text>
    <path d="M 98.00 395.49 L 102.17 405.34 L 106.35 406.75 L 110.52 406.04 L 114.70 402.52 L 118.87 408.16 L 123.05 418.72 L 127.22 425.05 L 131.40 412.38 L 135.57 414.49 L 139.75 410.27 L 143.92 408.16 L 148.10 403.93 L 152.27 405.34 L 156.45 415.20 L 160.62 393.37 L 164.80 389.85 L 168.97 391.97 L 173.15 406.75 L 177.32 400.41 L 181.50 392.67 L 185.67 393.37 L 189.85 396.19 L 194.02 390.56 L 198.20 391.97 L 202.37 382.81 L 206.55 382.81 L 210.72 386.33 L 214.90 387.04 L 219.07 395.49 L 223.24 389.85 L 227.42 383.52 L 231.59 396.19 L 235.77 386.33 L 239.94 384.22 L 244.12 406.04 L 248.29 408.16 L 252.47 411.68 L 256.64 406.04 L 260.82 394.78 L 264.99 399.71 L 269.17 407.45 L 273.34 406.04 L 277.52 407.45 L 281.69 408.16 L 285.87 374.37 L 290.04 372.26 L 294.22 372.26 L 298.39 370.14 L 302.57 388.45 L 306.74 395.49 L 310.92 389.15 L 315.09 389.85 L 319.27 394.08 L 323.44 389.15 L 327.62 390.56 L 331.79 391.97 L 335.97 391.26 L 340.14 388.45 L 344.31 390.56 L 348.49 435.61 L 352.66 425.05 L 356.84 427.87 L 361.01 420.12 L 365.19 422.94 L 369.36 418.01 L 373.54 413.79 L 377.71 411.68 L 381.89 408.16 L 386.06 404.64 L 390.24 407.45 L 394.41 402.52 L 398.59 402.52 L 402.76 396.89 L 406.94 399.71 L 411.11 402.52 L 415.29 407.45 L 419.46 414.49 L 423.64 408.86 L 427.81 399.00 L 431.99 391.26 L 436.16 391.26 L 440.34 384.93 L 444.51 384.22 L 448.69 351.84 L 452.86 359.58 L 457.03 369.44 L 461.21 370.85 L 465.38 366.62 L 469.56 365.22 L 473.73 362.40 L 477.91 372.96 L 482.08 370.85 L 486.26 371.55 L 490.43 370.14 L 494.61 367.33 L 498.78 368.74 L 502.96 363.10 L 507.13 358.88 L 511.31 353.25 L 515.48 357.47 L 519.66 356.06 L 523.83 358.88 L 528.01 345.51 L 532.18 340.58 L 536.36 345.51 L 540.53 339.17 L 544.71 340.58 L 548.88 346.91 L 553.06 354.66 L 557.23 341.28 L 561.41 334.95 L 565.58 317.35 L 569.76 299.75 L 573.93 303.97 L 578.10 318.05 L 582.28 315.24 L 586.45 313.12 L 590.63 314.53 L 594.80 313.83 L 598.98 307.49 L 603.15 304.68 L 607.33 303.97 L 611.50 313.12 L 615.68 302.57 L 619.85 295.53 L 624.03 296.93 L 628.20 302.57 L 632.38 306.79 L 636.55 306.79 L 640.73 301.86 L 644.90 303.97 L 649.08 309.60 L 653.25 295.53 L 657.43 292.71 L 661.60 294.82 L 665.78 273.00 L 669.95 282.86 L 674.13 271.59 L 678.30 292.01 L 682.48 297.64 L 686.65 296.23 L 690.83 284.26 L 695.00 284.26 L 699.17 287.78 L 703.35 293.41 L 707.52 296.93 L 711.70 291.30 L 715.87 292.01 L 720.05 275.11 L 724.22 270.18 L 728.40 268.78 L 732.57 280.04 L 736.75 266.66 L 740.92 265.96 L 745.10 255.40 L 749.27 249.07 L 753.45 257.51 L 757.62 278.63 L 761.80 275.82 L 765.97 263.85 L 770.15 279.34 L 774.32 276.52 L 778.50 292.71 L 782.67 294.82 L 786.85 294.82 L 791.02 301.16 L 795.20 299.75 L 799.37 300.45 L 803.55 290.60 L 807.72 302.57 L 811.90 308.90 L 816.07 318.05 L 820.24 318.76 L 824.42 334.95 L 828.59 339.17 L 832.77 341.28 L 836.94 339.17 L 841.12 337.76 L 845.29 341.28 L 849.47 336.35 L 853.64 327.20 L 857.82 334.24 L 861.99 334.24 L 866.17 329.31 L 870.34 334.24 L 874.52 313.12 L 878.69 298.34 L 882.87 284.97 L 887.04 298.34 L 891.22 289.89 L 895.39 281.45 L 899.57 279.34 L 903.74 274.41 L 907.92 275.11 L 912.09 271.59 L 916.27 271.59 L 920.44 265.96 L 924.62 268.07 L 928.79 288.49 L 932.97 289.89 L 937.14 282.15 L 941.31 289.19 L 945.49 280.74 L 949.66 282.86 L 953.84 273.70 L 958.01 279.34 L 962.19 265.26 L 966.36 258.92 L 970.54 265.96 L 974.71 280.04 L 978.89 286.37 L 983.06 272.30 L 987.24 273.00 L 991.41 289.19 L 995.59 296.93 L 999.76 282.86 L 1003.94 286.37 L 1008.11 284.26 L 1012.29 289.19 L 1016.46 289.89 L 1020.64 286.37 L 1024.81 296.23 L 1028.99 294.12 L 1033.16 261.03 L 1037.34 251.18 L 1041.51 261.03 L 1045.69 260.33 L 1049.86 262.44 L 1054.03 252.59 L 1058.21 230.76 L 1062.38 237.80 L 1066.56 218.09 L 1070.73 211.05 L 1074.91 211.05 L 1079.08 210.35 L 1083.26 202.61 L 1087.43 208.94 L 1091.61 194.16 L 1095.78 196.27 L 1099.96 201.20 L 1104.13 211.05 L 1108.31 212.46 L 1112.48 168.11 L 1116.66 139.25 L 1120.83 137.84 L 1125.01 158.96 L 1129.18 167.41 L 1133.36 175.86 L 1137.53 163.19 L 1141.71 177.97 L 1145.88 181.49 L 1150.06 195.57 L 1154.23 198.38 L 1158.41 194.16 L 1162.58 203.31 L 1166.76 217.39 L 1170.93 230.76 L 1175.10 215.98 L 1179.28 202.61 L 1183.45 204.72 L 1187.63 175.86 L 1191.80 186.42 L 1195.98 200.49 L 1200.15 202.61 L 1204.33 192.05 L 1208.50 194.86 L 1212.68 197.68 L 1216.85 183.60 L 1221.03 187.12 L 1225.20 194.16 L 1229.38 206.13 L 1233.55 218.80 L 1237.73 227.95 L 1241.90 228.65 L 1246.08 246.25 L 1250.25 248.36 L 1254.43 256.11 L 1258.60 250.47 L 1262.78 269.48 L 1266.95 265.26 L 1271.13 261.74 L 1275.30 275.82 L 1279.48 267.37 L 1283.65 263.14 L 1287.83 267.37 L 1292.00 272.30" fill="none" stroke="#0f766e" stroke-width="2"  />
<path d="M 98.00 401.18 L 102.17 402.57 L 106.35 406.05 L 110.52 407.00 L 114.70 402.13 L 118.87 406.14 L 123.05 414.88 L 127.22 425.41 L 131.40 410.32 L 135.57 412.60 L 139.75 411.56 L 143.92 410.65 L 148.10 405.18 L 152.27 405.33 L 156.45 415.66 L 160.62 396.55 L 164.80 393.84 L 168.97 391.58 L 173.15 404.76 L 177.32 404.23 L 181.50 398.57 L 185.67 392.22 L 189.85 398.96 L 194.02 392.98 L 198.20 390.35 L 202.37 388.74 L 206.55 379.92 L 210.72 386.65 L 214.90 386.23 L 219.07 393.54 L 223.24 386.68 L 227.42 385.73 L 231.59 394.50 L 235.77 389.88 L 239.94 383.78 L 244.12 402.61 L 248.29 406.96 L 252.47 410.79 L 256.64 405.66 L 260.82 399.76 L 264.99 396.87 L 269.17 402.91 L 273.34 406.72 L 277.52 406.28 L 281.69 406.98 L 285.87 373.97 L 290.04 373.52 L 294.22 372.63 L 298.39 369.12 L 302.57 386.52 L 306.74 391.64 L 310.92 386.83 L 315.09 388.45 L 319.27 392.46 L 323.44 391.40 L 327.62 390.63 L 331.79 389.74 L 335.97 392.45 L 340.14 388.89 L 344.31 386.72 L 348.49 438.77 L 352.66 428.28 L 356.84 426.39 L 361.01 423.45 L 365.19 420.93 L 369.36 415.39 L 373.54 411.34 L 377.71 411.59 L 381.89 410.81 L 386.06 406.04 L 390.24 404.47 L 394.41 401.90 L 398.59 403.55 L 402.76 396.31 L 406.94 398.84 L 411.11 403.50 L 415.29 405.09 L 419.46 406.44 L 423.64 412.78 L 427.81 401.36 L 431.99 396.47 L 436.16 389.71 L 440.34 387.22 L 444.51 383.64 L 448.69 350.84 L 452.86 353.54 L 457.03 366.45 L 461.21 369.40 L 465.38 369.56 L 469.56 365.86 L 473.73 363.50 L 477.91 371.07 L 482.08 371.51 L 486.26 370.39 L 490.43 371.73 L 494.61 370.16 L 498.78 366.57 L 502.96 365.54 L 507.13 361.79 L 511.31 356.99 L 515.48 353.75 L 519.66 357.24 L 523.83 355.95 L 528.01 348.33 L 532.18 344.00 L 536.36 342.74 L 540.53 338.49 L 544.71 339.12 L 548.88 343.67 L 553.06 352.29 L 557.23 343.38 L 561.41 336.07 L 565.58 318.88 L 569.76 305.12 L 573.93 300.39 L 578.10 320.94 L 582.28 319.24 L 586.45 312.66 L 590.63 312.73 L 594.80 315.51 L 598.98 306.76 L 603.15 303.01 L 607.33 304.17 L 611.50 309.77 L 615.68 311.19 L 619.85 297.57 L 624.03 291.29 L 628.20 299.36 L 632.38 304.55 L 636.55 307.22 L 640.73 304.04 L 644.90 300.28 L 649.08 306.56 L 653.25 297.89 L 657.43 292.86 L 661.60 293.14 L 665.78 275.58 L 669.95 277.20 L 674.13 275.02 L 678.30 289.93 L 682.48 296.52 L 686.65 297.96 L 690.83 284.50 L 695.00 283.36 L 699.17 285.01 L 703.35 290.26 L 707.52 293.72 L 711.70 293.62 L 715.87 293.93 L 720.05 275.32 L 724.22 266.14 L 728.40 267.80 L 732.57 274.59 L 736.75 266.13 L 740.92 264.57 L 745.10 262.49 L 749.27 253.05 L 753.45 252.65 L 757.62 275.22 L 761.80 279.44 L 765.97 268.29 L 770.15 277.31 L 774.32 278.81 L 778.50 288.66 L 782.67 291.15 L 786.85 296.95 L 791.02 299.12 L 795.20 300.24 L 799.37 299.80 L 803.55 296.40 L 807.72 298.81 L 811.90 306.57 L 816.07 316.01 L 820.24 318.89 L 824.42 331.36 L 828.59 336.90 L 832.77 343.32 L 836.94 341.69 L 841.12 339.15 L 845.29 339.56 L 849.47 338.97 L 853.64 327.70 L 857.82 329.42 L 861.99 332.24 L 866.17 332.26 L 870.34 330.75 L 874.52 317.31 L 878.69 299.90 L 882.87 283.44 L 887.04 291.77 L 891.22 291.17 L 895.39 283.04 L 899.57 278.18 L 903.74 277.08 L 907.92 274.41 L 912.09 270.99 L 916.27 271.45 L 920.44 264.44 L 924.62 266.16 L 928.79 278.41 L 932.97 293.43 L 937.14 289.78 L 941.31 284.16 L 945.49 280.14 L 949.66 282.27 L 953.84 275.34 L 958.01 275.05 L 962.19 258.20 L 966.36 264.40 L 970.54 260.95 L 974.71 277.29 L 978.89 282.21 L 983.06 267.67 L 987.24 270.35 L 991.41 289.64 L 995.59 298.46 L 999.76 286.79 L 1003.94 285.26 L 1008.11 284.09 L 1012.29 287.86 L 1016.46 291.55 L 1020.64 289.21 L 1024.81 295.22 L 1028.99 296.44 L 1033.16 264.71 L 1037.34 255.05 L 1041.51 260.16 L 1045.69 256.75 L 1049.86 260.53 L 1054.03 259.12 L 1058.21 236.47 L 1062.38 235.46 L 1066.56 215.77 L 1070.73 210.34 L 1074.91 208.09 L 1079.08 209.40 L 1083.26 207.62 L 1087.43 206.65 L 1091.61 199.02 L 1095.78 196.19 L 1099.96 196.69 L 1104.13 205.62 L 1108.31 212.81 L 1112.48 169.02 L 1116.66 142.56 L 1120.83 138.76 L 1125.01 152.37 L 1129.18 164.33 L 1133.36 169.75 L 1137.53 165.37 L 1141.71 178.25 L 1145.88 181.51 L 1150.06 192.49 L 1154.23 197.84 L 1158.41 195.53 L 1162.58 206.09 L 1166.76 213.43 L 1170.93 227.30 L 1175.10 216.11 L 1179.28 206.84 L 1183.45 204.93 L 1187.63 185.95 L 1191.80 179.87 L 1195.98 196.68 L 1200.15 202.10 L 1204.33 194.19 L 1208.50 191.06 L 1212.68 197.22 L 1216.85 185.91 L 1221.03 184.15 L 1225.20 188.98 L 1229.38 206.91 L 1233.55 214.54 L 1237.73 228.82 L 1241.90 228.80 L 1246.08 242.31 L 1250.25 246.57 L 1254.43 250.76 L 1258.60 246.06 L 1262.78 270.31 L 1266.95 267.55 L 1271.13 263.01 L 1275.30 274.32 L 1279.48 272.63 L 1283.65 265.15 L 1287.83 266.38 L 1292.00 267.36" fill="none" stroke="#1d4ed8" stroke-width="2"  />
<path d="M 98.00 366.12 L 102.17 394.67 L 106.35 404.31 L 110.52 405.71 L 114.70 404.93 L 118.87 401.67 L 123.05 407.32 L 127.22 417.88 L 131.40 423.82 L 135.57 411.40 L 139.75 413.40 L 143.92 409.29 L 148.10 407.15 L 152.27 402.95 L 156.45 404.59 L 160.62 413.72 L 164.80 392.32 L 168.97 388.74 L 173.15 391.27 L 177.32 405.67 L 181.50 399.33 L 185.67 391.66 L 189.85 392.32 L 194.02 395.06 L 198.20 389.52 L 202.37 390.78 L 206.55 381.77 L 210.72 381.75 L 214.90 385.33 L 219.07 386.12 L 223.24 394.46 L 227.42 388.77 L 231.59 382.71 L 235.77 395.00 L 239.94 385.23 L 244.12 383.55 L 248.29 405.08 L 252.47 407.25 L 256.64 410.50 L 260.82 404.94 L 264.99 393.84 L 269.17 398.86 L 273.34 406.40 L 277.52 405.08 L 281.69 406.44 L 285.87 406.61 L 290.04 373.25 L 294.22 371.21 L 298.39 371.10 L 302.57 369.40 L 306.74 387.57 L 310.92 394.29 L 315.09 388.11 L 319.27 388.95 L 323.44 392.95 L 327.62 388.19 L 331.79 389.49 L 335.97 390.99 L 340.14 390.14 L 344.31 387.39 L 348.49 390.37 L 352.66 434.46 L 356.84 424.17 L 361.01 426.80 L 365.19 419.14 L 369.36 421.81 L 373.54 416.85 L 377.71 412.69 L 381.89 410.64 L 386.06 407.07 L 390.24 403.72 L 394.41 406.33 L 398.59 401.53 L 402.76 401.34 L 406.94 395.97 L 411.11 398.70 L 415.29 401.61 L 419.46 406.67 L 423.64 413.42 L 427.81 407.63 L 431.99 397.90 L 436.16 390.17 L 440.34 390.13 L 444.51 383.82 L 448.69 382.66 L 452.86 350.86 L 457.03 358.71 L 461.21 368.45 L 465.38 369.75 L 469.56 365.51 L 473.73 364.08 L 477.91 361.55 L 482.08 371.92 L 486.26 369.79 L 490.43 370.50 L 494.61 369.09 L 498.78 366.25 L 502.96 367.55 L 507.13 361.98 L 511.31 357.71 L 515.48 352.21 L 519.66 356.41 L 523.83 355.00 L 528.01 357.60 L 532.18 344.34 L 536.36 339.58 L 540.53 344.26 L 544.71 338.08 L 548.88 339.50 L 553.06 345.91 L 557.23 353.34 L 561.41 340.01 L 565.58 333.50 L 569.76 315.91 L 573.93 298.62 L 578.10 303.27 L 582.28 316.90 L 586.45 314.00 L 590.63 311.99 L 594.80 313.43 L 598.98 312.52 L 603.15 306.30 L 607.33 303.51 L 611.50 302.92 L 615.68 311.77 L 619.85 301.42 L 624.03 294.31 L 628.20 295.89 L 632.38 301.51 L 636.55 305.67 L 640.73 305.53 L 644.90 300.76 L 649.08 302.94 L 653.25 308.23 L 657.43 294.41 L 661.60 291.59 L 665.78 293.39 L 669.95 271.99 L 674.13 281.47 L 678.30 270.64 L 682.48 290.91 L 686.65 296.39 L 690.83 294.80 L 695.00 283.06 L 699.17 283.10 L 703.35 286.72 L 707.52 292.36 L 711.70 295.66 L 715.87 290.21 L 720.05 290.59 L 724.22 273.92 L 728.40 268.94 L 732.57 267.66 L 736.75 278.64 L 740.92 265.39 L 745.10 264.63 L 749.27 254.11 L 753.45 247.97 L 757.62 256.70 L 761.80 277.42 L 765.97 274.44 L 770.15 262.92 L 774.32 277.96 L 778.50 275.63 L 782.67 291.43 L 786.85 293.79 L 791.02 293.79 L 795.20 299.95 L 799.37 298.60 L 803.55 299.14 L 807.72 289.65 L 811.90 301.55 L 816.07 307.93 L 820.24 316.94 L 824.42 317.98 L 828.59 333.94 L 832.77 338.17 L 836.94 340.01 L 841.12 338.09 L 845.29 336.75 L 849.47 340.11 L 853.64 335.15 L 857.82 326.19 L 861.99 333.10 L 866.17 333.05 L 870.34 328.28 L 874.52 332.67 L 878.69 311.78 L 882.87 296.81 L 887.04 283.97 L 891.22 297.05 L 895.39 288.53 L 899.57 280.14 L 903.74 278.05 L 907.92 273.22 L 912.09 273.78 L 916.27 270.38 L 920.44 270.44 L 924.62 264.78 L 928.79 267.17 L 932.97 287.26 L 937.14 288.51 L 941.31 281.06 L 945.49 287.91 L 949.66 279.62 L 953.84 281.51 L 958.01 272.56 L 962.19 277.83 L 966.36 263.98 L 970.54 257.78 L 974.71 265.02 L 978.89 278.93 L 983.06 284.89 L 987.24 271.03 L 991.41 272.06 L 995.59 288.20 L 999.76 295.48 L 1003.94 281.82 L 1008.11 285.11 L 1012.29 283.21 L 1016.46 288.05 L 1020.64 288.69 L 1024.81 285.39 L 1028.99 295.08 L 1033.16 292.57 L 1037.34 259.71 L 1041.51 250.04 L 1045.69 259.95 L 1049.86 259.11 L 1054.03 261.19 L 1058.21 251.12 L 1062.38 229.66 L 1066.56 236.26 L 1070.73 216.56 L 1074.91 209.84 L 1079.08 209.75 L 1083.26 208.93 L 1087.43 201.43 L 1091.61 207.51 L 1095.78 192.92 L 1099.96 194.93 L 1104.13 200.04 L 1108.31 209.76 L 1112.48 210.64 L 1116.66 166.40 L 1120.83 137.86 L 1125.01 136.74 L 1129.18 157.71 L 1133.36 166.08 L 1137.53 174.27 L 1141.71 162.16 L 1145.88 176.75 L 1150.06 180.42 L 1154.23 194.37 L 1158.41 196.96 L 1162.58 193.15 L 1166.76 202.27 L 1170.93 216.35 L 1175.10 229.22 L 1179.28 214.52 L 1183.45 201.38 L 1187.63 203.05 L 1191.80 174.63 L 1195.98 185.24 L 1200.15 199.35 L 1204.33 201.10 L 1208.50 190.70 L 1212.68 193.64 L 1216.85 196.16 L 1221.03 182.28 L 1225.20 185.87 L 1229.38 193.12 L 1233.55 205.05 L 1237.73 217.66 L 1241.90 226.70 L 1246.08 227.67 L 1250.25 245.06 L 1254.43 247.17 L 1258.60 254.62 L 1262.78 249.59 L 1266.95 268.18 L 1271.13 263.99 L 1275.30 260.73 L 1279.48 274.54 L 1283.65 266.07 L 1287.83 261.97 L 1292.00 266.21" fill="none" stroke="#b45309" stroke-width="2" stroke-dasharray="6 4" />
  </g>
  <g>
    <text x="54" y="538" fill="#1f2937" font-size="16" font-weight="700">B. 绝对误差（越低越好）</text>
    <line x1="98" y1="540" x2="124" y2="540" stroke="#1d4ed8" stroke-width="2"  />
      <text x="130" y="544" fill="#24312e" font-size="12">持仓分段误差</text>
<line x1="313" y1="540" x2="339" y2="540" stroke="#b45309" stroke-width="2" stroke-dasharray="6 4" />
      <text x="345" y="544" fill="#24312e" font-size="12">持仓双目标误差</text>
    <line x1="98" y1="560.00" x2="1292" y2="560.00" stroke="#d7e3df" stroke-width="1" />
      <text x="90" y="564.00" text-anchor="end" fill="#5b6b68" font-size="11">7.81%</text>
<line x1="98" y1="630.00" x2="1292" y2="630.00" stroke="#d7e3df" stroke-width="1" />
      <text x="90" y="634.00" text-anchor="end" fill="#5b6b68" font-size="11">5.86%</text>
<line x1="98" y1="700.00" x2="1292" y2="700.00" stroke="#d7e3df" stroke-width="1" />
      <text x="90" y="704.00" text-anchor="end" fill="#5b6b68" font-size="11">3.91%</text>
<line x1="98" y1="770.00" x2="1292" y2="770.00" stroke="#d7e3df" stroke-width="1" />
      <text x="90" y="774.00" text-anchor="end" fill="#5b6b68" font-size="11">1.95%</text>
<line x1="98" y1="840.00" x2="1292" y2="840.00" stroke="#d7e3df" stroke-width="1" />
      <text x="90" y="844.00" text-anchor="end" fill="#5b6b68" font-size="11">0.00%</text>
    <line x1="98.00" y1="560" x2="98.00" y2="840" stroke="#eef3f1" stroke-width="1" />
      <text x="98.00" y="868" text-anchor="middle" fill="#5b6b68" font-size="11">25-01-02</text>
<line x1="290.04" y1="560" x2="290.04" y2="840" stroke="#eef3f1" stroke-width="1" />
      <text x="290.04" y="868" text-anchor="middle" fill="#5b6b68" font-size="11">25-03-17</text>
<line x1="482.08" y1="560" x2="482.08" y2="840" stroke="#eef3f1" stroke-width="1" />
      <text x="482.08" y="868" text-anchor="middle" fill="#5b6b68" font-size="11">25-05-26</text>
<line x1="695.00" y1="560" x2="695.00" y2="840" stroke="#eef3f1" stroke-width="1" />
      <text x="695.00" y="868" text-anchor="middle" fill="#5b6b68" font-size="11">25-08-06</text>
<line x1="907.92" y1="560" x2="907.92" y2="840" stroke="#eef3f1" stroke-width="1" />
      <text x="907.92" y="868" text-anchor="middle" fill="#5b6b68" font-size="11">25-10-24</text>
<line x1="1099.96" y1="560" x2="1099.96" y2="840" stroke="#eef3f1" stroke-width="1" />
      <text x="1099.96" y="868" text-anchor="middle" fill="#5b6b68" font-size="11">25-12-29</text>
<line x1="1292.00" y1="560" x2="1292.00" y2="840" stroke="#eef3f1" stroke-width="1" />
      <text x="1292.00" y="868" text-anchor="middle" fill="#5b6b68" font-size="11">26-03-13</text>
    <line x1="1112.48" y1="560" x2="1112.48" y2="840" stroke="#f59e0b" stroke-width="1.4" stroke-dasharray="4 4" />
       <text x="1118.48" y="552" fill="#a16207" font-size="11">验证起点</text>
    <path d="M 98.00 810.36 L 102.17 825.39 L 106.35 836.33 L 110.52 834.92 L 114.70 837.94 L 118.87 829.32 L 123.05 819.36 L 127.22 838.05 L 131.40 829.03 L 135.57 829.87 L 139.75 833.13 L 143.92 826.75 L 148.10 833.45 L 152.27 839.96 L 156.45 837.49 L 160.62 823.53 L 164.80 819.43 L 168.97 838.00 L 173.15 829.50 L 177.32 819.98 L 181.50 809.42 L 185.67 834.02 L 189.85 825.56 L 194.02 827.47 L 198.20 831.64 L 202.37 809.71 L 206.55 825.19 L 210.72 838.37 L 214.90 835.85 L 219.07 829.89 L 223.24 823.59 L 227.42 828.69 L 231.59 831.19 L 235.77 821.78 L 239.94 837.75 L 244.12 821.87 L 248.29 833.63 L 252.47 835.30 L 256.64 837.95 L 260.82 814.10 L 264.99 825.11 L 269.17 815.94 L 273.34 836.40 L 277.52 833.80 L 281.69 833.74 L 285.87 837.98 L 290.04 833.63 L 294.22 838.11 L 298.39 834.86 L 302.57 830.10 L 306.74 819.98 L 310.92 828.04 L 315.09 832.75 L 319.27 831.60 L 323.44 828.37 L 327.62 839.63 L 331.79 828.46 L 335.97 833.85 L 340.14 837.69 L 344.31 820.19 L 348.49 822.51 L 352.66 822.45 L 356.84 831.93 L 361.01 822.03 L 365.19 829.13 L 369.36 825.88 L 373.54 826.94 L 377.71 839.53 L 381.89 825.93 L 386.06 832.59 L 390.24 824.21 L 394.41 836.74 L 398.59 834.58 L 402.76 836.95 L 406.94 835.45 L 411.11 834.87 L 415.29 827.50 L 419.46 796.90 L 423.64 819.20 L 427.81 827.68 L 431.99 813.07 L 436.16 831.98 L 440.34 828.23 L 444.51 837.03 L 448.69 835.12 L 452.86 810.12 L 457.03 824.99 L 461.21 832.74 L 465.38 825.34 L 469.56 836.80 L 473.73 834.56 L 477.91 830.49 L 482.08 836.68 L 486.26 834.17 L 490.43 832.01 L 494.61 825.82 L 498.78 829.17 L 502.96 827.89 L 507.13 825.60 L 511.31 821.63 L 515.48 821.63 L 519.66 834.20 L 523.83 825.52 L 528.01 826.28 L 532.18 823.53 L 536.36 826.56 L 540.53 836.73 L 544.71 832.98 L 548.88 824.25 L 553.06 828.39 L 557.23 829.89 L 561.41 834.61 L 565.58 832.82 L 569.76 815.48 L 573.93 823.56 L 578.10 826.50 L 582.28 821.32 L 586.45 837.86 L 590.63 831.61 L 594.80 832.16 L 598.98 836.64 L 603.15 832.34 L 607.33 839.09 L 611.50 824.40 L 615.68 800.46 L 619.85 830.72 L 624.03 814.29 L 628.20 825.32 L 632.38 829.68 L 636.55 837.99 L 640.73 830.03 L 644.90 823.01 L 649.08 825.91 L 653.25 829.27 L 657.43 839.33 L 661.60 832.36 L 665.78 828.59 L 669.95 814.72 L 674.13 824.88 L 678.30 830.60 L 682.48 834.93 L 686.65 832.15 L 690.83 838.94 L 695.00 835.96 L 699.17 827.50 L 703.35 825.68 L 707.52 825.35 L 711.70 829.54 L 715.87 831.28 L 720.05 839.06 L 724.22 822.19 L 728.40 835.70 L 732.57 815.70 L 736.75 837.64 L 740.92 833.90 L 745.10 809.32 L 749.27 822.90 L 753.45 818.90 L 757.62 824.82 L 761.80 823.93 L 765.97 820.58 L 770.15 830.98 L 774.32 829.85 L 778.50 821.65 L 782.67 823.33 L 786.85 830.32 L 791.02 830.65 L 795.20 837.76 L 799.37 837.02 L 803.55 813.78 L 807.72 822.77 L 811.90 829.23 L 816.07 830.47 L 820.24 839.37 L 824.42 822.84 L 828.59 829.09 L 832.77 830.15 L 836.94 827.89 L 841.12 833.32 L 845.29 831.71 L 849.47 827.44 L 853.64 837.65 L 857.82 816.95 L 861.99 830.41 L 866.17 826.04 L 870.34 823.33 L 874.52 820.56 L 878.69 832.87 L 882.87 833.14 L 887.04 810.03 L 891.22 834.24 L 895.39 832.90 L 899.57 834.84 L 903.74 828.18 L 907.92 836.90 L 912.09 837.36 L 916.27 839.36 L 920.44 833.36 L 924.62 831.59 L 928.79 794.62 L 932.97 824.04 L 937.14 805.90 L 941.31 817.30 L 945.49 837.30 L 949.66 837.39 L 953.84 832.75 L 958.01 820.91 L 962.19 809.11 L 966.36 816.19 L 970.54 818.07 L 974.71 827.76 L 978.89 821.30 L 983.06 819.57 L 987.24 828.29 L 991.41 837.98 L 995.59 833.03 L 999.76 822.38 L 1003.94 835.01 L 1008.11 839.23 L 1012.29 834.02 L 1016.46 832.53 L 1020.64 827.28 L 1024.81 835.42 L 1028.99 829.45 L 1033.16 823.99 L 1037.34 823.34 L 1041.51 836.18 L 1045.69 824.45 L 1049.86 831.66 L 1054.03 811.84 L 1058.21 816.04 L 1062.38 830.06 L 1066.56 830.41 L 1070.73 837.09 L 1074.91 827.83 L 1079.08 836.10 L 1083.26 819.60 L 1087.43 830.60 L 1091.61 820.44 L 1095.78 839.66 L 1099.96 821.69 L 1104.13 817.69 L 1108.31 838.58 L 1112.48 836.45 L 1116.66 827.44 L 1120.83 836.51 L 1125.01 814.46 L 1129.18 827.97 L 1133.36 815.90 L 1137.53 831.51 L 1141.71 838.89 L 1145.88 839.91 L 1150.06 827.59 L 1154.23 837.81 L 1158.41 834.48 L 1162.58 828.68 L 1166.76 823.62 L 1170.93 825.46 L 1175.10 839.45 L 1179.28 822.77 L 1183.45 839.14 L 1187.63 800.19 L 1191.80 813.89 L 1195.98 824.53 L 1200.15 837.95 L 1204.33 831.39 L 1208.50 824.66 L 1212.68 838.16 L 1216.85 830.81 L 1221.03 828.13 L 1225.20 819.16 L 1229.38 836.81 L 1233.55 822.38 L 1237.73 836.36 L 1241.90 839.36 L 1246.08 823.14 L 1250.25 832.31 L 1254.43 816.87 L 1258.60 821.01 L 1262.78 836.36 L 1266.95 829.98 L 1271.13 834.47 L 1275.30 833.39 L 1279.48 816.89 L 1283.65 831.24 L 1287.83 835.65 L 1292.00 818.20" fill="none" stroke="#1d4ed8" stroke-width="2"  />
<path d="M 98.00 687.17 L 102.17 783.64 L 106.35 827.11 L 110.52 838.22 L 114.70 827.36 L 118.87 805.60 L 123.05 778.60 L 127.22 801.02 L 131.40 778.96 L 135.57 823.43 L 139.75 823.36 L 143.92 833.98 L 148.10 823.03 L 152.27 827.36 L 156.45 783.18 L 160.62 734.41 L 164.80 827.29 L 168.97 823.29 L 173.15 758.08 L 177.32 812.43 L 181.50 805.49 L 185.67 831.09 L 189.85 819.82 L 194.02 816.74 L 198.20 827.33 L 202.37 799.29 L 206.55 834.66 L 210.72 816.47 L 214.90 831.22 L 219.07 791.26 L 223.24 816.22 L 227.42 813.11 L 231.59 769.79 L 235.77 795.48 L 239.94 834.85 L 244.12 721.08 L 248.29 823.69 L 252.47 816.42 L 256.64 816.45 L 260.82 787.21 L 264.99 809.25 L 269.17 794.48 L 273.34 838.11 L 277.52 827.43 L 281.69 830.90 L 285.87 677.17 L 290.04 834.98 L 294.22 834.76 L 298.39 835.18 L 302.57 741.90 L 306.74 798.82 L 310.92 813.50 L 315.09 830.99 L 319.27 813.39 L 323.44 820.40 L 327.62 827.76 L 331.79 827.20 L 335.97 838.61 L 340.14 831.29 L 344.31 823.64 L 348.49 590.00 L 352.66 788.81 L 356.84 819.82 L 361.01 803.99 L 365.19 819.39 L 369.36 819.55 L 373.54 823.64 L 377.71 834.62 L 381.89 826.83 L 386.06 827.15 L 390.24 820.25 L 394.41 819.97 L 398.59 834.79 L 402.76 816.83 L 406.94 820.44 L 411.11 819.89 L 415.29 809.07 L 419.46 798.14 L 423.64 815.82 L 427.81 794.90 L 431.99 805.65 L 436.16 834.37 L 440.34 813.31 L 444.51 837.92 L 448.69 689.18 L 452.86 796.85 L 457.03 786.20 L 461.21 827.95 L 465.38 824.40 L 469.56 838.52 L 473.73 831.66 L 477.91 782.49 L 482.08 834.61 L 486.26 831.16 L 490.43 838.19 L 494.61 831.17 L 498.78 827.54 L 502.96 817.89 L 507.13 824.68 L 511.31 818.13 L 515.48 814.04 L 519.66 838.28 L 523.83 820.80 L 528.01 781.30 L 532.18 821.84 L 536.36 811.27 L 540.53 815.53 L 544.71 827.96 L 548.88 803.97 L 553.06 797.03 L 557.23 781.80 L 561.41 815.78 L 565.58 764.51 L 569.76 766.15 L 573.93 815.39 L 578.10 770.83 L 582.28 832.26 L 586.45 835.92 L 590.63 828.17 L 594.80 838.12 L 598.98 816.82 L 603.15 832.55 L 607.33 837.89 L 611.50 792.55 L 615.68 797.80 L 619.85 813.23 L 624.03 828.05 L 628.20 809.39 L 632.38 815.66 L 636.55 834.84 L 640.73 823.19 L 644.90 825.24 L 649.08 809.14 L 653.25 782.29 L 657.43 832.28 L 661.60 825.32 L 665.78 749.89 L 669.95 791.41 L 674.13 796.43 L 678.30 743.33 L 682.48 809.35 L 686.65 839.26 L 690.83 792.80 L 695.00 834.59 L 699.17 818.91 L 703.35 809.65 L 707.52 819.20 L 711.70 820.32 L 715.87 831.88 L 720.05 771.44 L 724.22 823.57 L 728.40 839.27 L 732.57 784.84 L 736.75 787.51 L 740.92 837.48 L 745.10 800.10 L 749.27 818.37 L 753.45 798.63 L 757.62 742.44 L 761.80 832.90 L 765.97 793.73 L 770.15 766.88 L 774.32 833.61 L 778.50 762.66 L 782.67 824.58 L 786.85 835.30 L 791.02 806.29 L 795.20 839.07 L 799.37 831.53 L 803.55 801.43 L 807.72 780.77 L 811.90 806.03 L 816.07 792.64 L 820.24 831.51 L 824.42 758.82 L 828.59 814.86 L 832.77 825.00 L 836.94 835.97 L 841.12 838.41 L 845.29 818.11 L 849.47 822.02 L 853.64 802.39 L 857.82 801.52 L 861.99 834.53 L 866.17 822.27 L 870.34 811.50 L 874.52 749.14 L 878.69 778.72 L 882.87 786.87 L 887.04 774.46 L 891.22 807.73 L 895.39 808.39 L 899.57 836.42 L 903.74 823.87 L 907.92 831.61 L 912.09 830.35 L 916.27 834.65 L 920.44 820.37 L 924.62 825.56 L 928.79 743.97 L 932.97 828.12 L 937.14 811.59 L 941.31 803.36 L 945.49 808.01 L 949.66 825.55 L 953.84 805.48 L 958.01 809.83 L 962.19 784.99 L 966.36 818.05 L 970.54 804.16 L 974.71 773.04 L 978.89 806.57 L 983.06 784.40 L 987.24 831.28 L 991.41 762.75 L 995.59 800.22 L 999.76 783.55 L 1003.94 819.52 L 1008.11 836.21 L 1012.29 813.03 L 1016.46 831.70 L 1020.64 829.62 L 1024.81 790.71 L 1028.99 835.62 L 1033.16 702.71 L 1037.34 803.28 L 1041.51 792.15 L 1045.69 838.34 L 1049.86 825.45 L 1054.03 802.93 L 1058.21 754.50 L 1062.38 805.54 L 1066.56 764.83 L 1070.73 817.41 L 1074.91 835.01 L 1079.08 837.54 L 1083.26 814.29 L 1087.43 809.26 L 1091.61 786.23 L 1095.78 826.49 L 1099.96 814.55 L 1104.13 794.78 L 1108.31 828.88 L 1112.48 673.61 L 1116.66 737.04 L 1120.83 839.94 L 1125.01 753.91 L 1129.18 802.08 L 1133.36 801.44 L 1137.53 796.85 L 1141.71 777.50 L 1145.88 821.19 L 1150.06 778.92 L 1154.23 823.77 L 1158.41 828.72 L 1162.58 798.64 L 1166.76 777.47 L 1170.93 779.45 L 1175.10 785.35 L 1179.28 791.56 L 1183.45 826.39 L 1187.63 732.72 L 1191.80 792.96 L 1195.98 778.14 L 1200.15 826.76 L 1204.33 803.63 L 1208.50 823.22 L 1212.68 823.69 L 1216.85 790.00 L 1221.03 820.65 L 1225.20 806.61 L 1229.38 786.92 L 1233.55 783.05 L 1237.73 796.94 L 1241.90 831.83 L 1246.08 760.51 L 1250.25 825.82 L 1254.43 801.34 L 1258.60 822.19 L 1262.78 752.49 L 1266.95 827.23 L 1271.13 830.17 L 1275.30 773.13 L 1279.48 808.52 L 1283.65 827.23 L 1287.83 816.29 L 1292.00 813.14" fill="none" stroke="#b45309" stroke-width="2" stroke-dasharray="6 4" />
  </g>
</svg>