<?xml version="1.0" encoding="UTF-8"?>
<svg xmlns="http://www.w3.org/2000/svg" width="1360" height="980" viewBox="0 0 1360 980">
  <defs>
    <linearGradient id="bg" x1="0" y1="0" x2="1" y2="1">
      <stop offset="0%" stop-color="#f4efe6" />
      <stop offset="100%" stop-color="#eef5f2" />
    </linearGradient>
  </defs>
  <rect x="0" y="0" width="1360" height="980" fill="url(#bg)" />
  <text x="46" y="36" fill="#1f2937" font-size="31" font-weight="700">国联中证煤炭指数(LOF)A(168204)（168204）离线研究图（持仓逐日估值版）</text>
  <text x="46" y="66" fill="#5b6b68" font-size="13">历史前十大持仓 + 持仓逐日涨跌幅 + USDCNY；双目标 lambda=0.10；披露期数 35；覆盖率均值 59.2%</text>
  <g>
    <text x="54" y="110" fill="#1f2937" font-size="16" font-weight="700">A. 净值拟合（同日对齐，无平移）</text>
    <line x1="98" y1="130" x2="124" y2="130" stroke="#0f766e" stroke-width="2"  />
      <text x="130" y="134" fill="#24312e" font-size="12">真实净值</text>
<line x1="313" y1="130" x2="339" y2="130" stroke="#1d4ed8" stroke-width="2"  />
      <text x="345" y="134" fill="#24312e" font-size="12">持仓分段估值</text>
    <line x1="98" y1="132.00" x2="1292" y2="132.00" stroke="#d7e3df" stroke-width="1" />
      <text x="90" y="136.00" text-anchor="end" fill="#5b6b68" font-size="11">2.253</text>
<line x1="98" y1="209.50" x2="1292" y2="209.50" stroke="#d7e3df" stroke-width="1" />
      <text x="90" y="213.50" text-anchor="end" fill="#5b6b68" font-size="11">2.075</text>
<line x1="98" y1="287.00" x2="1292" y2="287.00" stroke="#d7e3df" stroke-width="1" />
      <text x="90" y="291.00" text-anchor="end" fill="#5b6b68" font-size="11">1.897</text>
<line x1="98" y1="364.50" x2="1292" y2="364.50" stroke="#d7e3df" stroke-width="1" />
      <text x="90" y="368.50" text-anchor="end" fill="#5b6b68" font-size="11">1.719</text>
<line x1="98" y1="442.00" x2="1292" y2="442.00" stroke="#d7e3df" stroke-width="1" />
      <text x="90" y="446.00" text-anchor="end" fill="#5b6b68" font-size="11">1.541</text>
    <line x1="98.00" y1="132" x2="98.00" y2="442" stroke="#eef3f1" stroke-width="1" />
      <text x="98.00" y="470" text-anchor="middle" fill="#5b6b68" font-size="11">25-01-02</text>
<line x1="290.18" y1="132" x2="290.18" y2="442" stroke="#eef3f1" stroke-width="1" />
      <text x="290.18" y="470" text-anchor="middle" fill="#5b6b68" font-size="11">25-03-18</text>
<line x1="478.28" y1="132" x2="478.28" y2="442" stroke="#eef3f1" stroke-width="1" />
      <text x="478.28" y="470" text-anchor="middle" fill="#5b6b68" font-size="11">25-05-27</text>
<line x1="695.00" y1="132" x2="695.00" y2="442" stroke="#eef3f1" stroke-width="1" />
      <text x="695.00" y="470" text-anchor="middle" fill="#5b6b68" font-size="11">25-08-11</text>
<line x1="911.72" y1="132" x2="911.72" y2="442" stroke="#eef3f1" stroke-width="1" />
      <text x="911.72" y="470" text-anchor="middle" fill="#5b6b68" font-size="11">25-10-31</text>
<line x1="1099.82" y1="132" x2="1099.82" y2="442" stroke="#eef3f1" stroke-width="1" />
      <text x="1099.82" y="470" text-anchor="middle" fill="#5b6b68" font-size="11">26-01-07</text>
<line x1="1292.00" y1="132" x2="1292.00" y2="442" stroke="#eef3f1" stroke-width="1" />
      <text x="1292.00" y="470" text-anchor="middle" fill="#5b6b68" font-size="11">26-03-23</text>
    <line x1="1091.64" y1="132" x2="1091.64" y2="442" stroke="#f59e0b" stroke-width="1.4" stroke-dasharray="4 4" />
       <text x="1097.64" y="124" fill="#a16207" font-size="11">验证起点</text>
    <path d="M 98.00 338.05 L 102.09 336.30 L 106.18 335.87 L 110.27 343.71 L 114.36 350.67 L 118.45 360.25 L 122.53 370.70 L 126.62 372.44 L 130.71 360.25 L 134.80 363.74 L 138.89 353.29 L 142.98 356.77 L 147.07 365.48 L 151.16 375.06 L 155.25 380.72 L 159.34 378.10 L 163.42 371.57 L 167.51 365.48 L 171.60 378.54 L 175.69 375.06 L 179.78 367.22 L 183.87 369.40 L 187.96 373.31 L 192.05 375.49 L 196.14 375.93 L 200.23 377.23 L 204.32 383.76 L 208.40 392.91 L 212.49 397.70 L 216.58 396.83 L 220.67 400.75 L 224.76 399.88 L 228.85 401.62 L 232.94 396.39 L 237.03 400.31 L 241.12 408.15 L 245.21 405.97 L 249.29 413.37 L 253.38 417.29 L 257.47 413.37 L 261.56 407.71 L 265.65 396.83 L 269.74 395.96 L 273.83 401.18 L 277.92 373.31 L 282.01 374.19 L 286.10 376.36 L 290.18 380.28 L 294.27 380.72 L 298.36 376.80 L 302.45 379.41 L 306.54 378.10 L 310.63 363.74 L 314.72 364.61 L 318.81 371.57 L 322.90 384.20 L 326.99 392.47 L 331.08 382.02 L 335.16 383.33 L 339.25 384.20 L 343.34 438.63 L 347.43 418.60 L 351.52 419.03 L 355.61 416.86 L 359.70 422.08 L 363.79 404.66 L 367.88 405.54 L 371.97 403.36 L 376.05 405.10 L 380.14 408.15 L 384.23 410.33 L 388.32 410.76 L 392.41 412.50 L 396.50 408.58 L 400.59 412.94 L 404.68 420.78 L 408.77 425.13 L 412.86 428.61 L 416.95 422.52 L 421.03 416.86 L 425.12 418.60 L 429.21 419.47 L 433.30 418.60 L 437.39 414.68 L 441.48 406.41 L 445.57 405.97 L 449.66 409.89 L 453.75 408.58 L 457.84 409.89 L 461.92 393.78 L 466.01 398.57 L 470.10 404.66 L 474.19 408.15 L 478.28 413.37 L 482.37 409.02 L 486.46 405.97 L 490.55 410.33 L 494.64 414.24 L 498.73 407.71 L 502.82 412.50 L 506.90 409.89 L 510.99 407.28 L 515.08 409.02 L 519.17 403.79 L 523.26 409.89 L 527.35 409.89 L 531.44 409.02 L 535.53 404.23 L 539.62 409.02 L 543.71 417.73 L 547.79 417.29 L 551.88 406.84 L 555.97 409.89 L 560.06 410.33 L 564.15 413.81 L 568.24 406.84 L 572.33 406.41 L 576.42 406.84 L 580.51 393.78 L 584.60 398.13 L 588.68 398.13 L 592.77 398.57 L 596.86 395.09 L 600.95 391.60 L 605.04 378.54 L 609.13 381.59 L 613.22 380.28 L 617.31 396.39 L 621.40 399.00 L 625.49 396.83 L 629.58 389.86 L 633.66 372.01 L 637.75 321.50 L 641.84 325.42 L 645.93 311.05 L 650.02 321.50 L 654.11 343.27 L 658.20 337.17 L 662.29 338.05 L 666.38 361.12 L 670.47 360.69 L 674.55 355.03 L 678.64 345.88 L 682.73 327.60 L 686.82 326.29 L 690.91 328.90 L 695.00 331.51 L 699.09 321.50 L 703.18 328.90 L 707.27 341.53 L 711.36 334.56 L 715.45 341.96 L 719.53 344.14 L 723.62 341.53 L 727.71 335.00 L 731.80 336.30 L 735.89 326.29 L 739.98 331.51 L 744.07 351.54 L 748.16 355.90 L 752.25 358.95 L 756.34 356.33 L 760.42 360.25 L 764.51 371.57 L 768.60 369.40 L 772.69 360.25 L 776.78 356.77 L 780.87 357.20 L 784.96 363.74 L 789.05 361.12 L 793.14 358.07 L 797.23 348.93 L 801.32 345.88 L 805.40 331.08 L 809.49 350.67 L 813.58 331.95 L 817.67 338.05 L 821.76 333.69 L 825.85 334.56 L 829.94 339.79 L 834.03 343.27 L 838.12 350.67 L 842.21 351.98 L 846.29 331.95 L 850.38 318.45 L 854.47 321.50 L 858.56 301.91 L 862.65 300.60 L 866.74 277.52 L 870.83 284.49 L 874.92 251.83 L 879.01 262.28 L 883.10 274.47 L 887.18 256.62 L 891.27 270.99 L 895.36 265.77 L 899.45 274.47 L 903.54 262.72 L 907.63 267.94 L 911.72 274.91 L 915.81 254.88 L 919.90 255.75 L 923.99 241.82 L 928.08 235.29 L 932.16 236.16 L 936.25 230.06 L 940.34 241.82 L 944.43 251.40 L 948.52 242.25 L 952.61 252.27 L 956.70 237.46 L 960.79 267.07 L 964.88 266.20 L 968.97 285.36 L 973.05 306.70 L 977.14 314.53 L 981.23 309.74 L 985.32 314.97 L 989.41 310.18 L 993.50 310.61 L 997.59 302.78 L 1001.68 302.34 L 1005.77 298.86 L 1009.86 305.39 L 1013.95 308.00 L 1018.03 320.19 L 1022.12 330.64 L 1026.21 328.90 L 1030.30 335.43 L 1034.39 337.61 L 1038.48 333.69 L 1042.57 345.45 L 1046.66 346.32 L 1050.75 332.82 L 1054.84 335.87 L 1058.92 336.74 L 1063.01 340.66 L 1067.10 343.27 L 1071.19 345.01 L 1075.28 342.40 L 1079.37 340.66 L 1083.46 345.45 L 1087.55 350.24 L 1091.64 346.32 L 1095.73 333.26 L 1099.82 305.82 L 1103.90 304.95 L 1107.99 302.34 L 1112.08 304.08 L 1116.17 311.48 L 1120.26 318.45 L 1124.35 322.37 L 1128.44 331.51 L 1132.53 321.93 L 1136.62 314.10 L 1140.71 324.11 L 1144.79 308.87 L 1148.88 314.10 L 1152.97 300.16 L 1157.06 319.76 L 1161.15 287.97 L 1165.24 282.75 L 1169.33 279.70 L 1173.42 327.16 L 1177.51 323.24 L 1181.60 260.11 L 1185.68 278.39 L 1189.77 281.01 L 1193.86 276.65 L 1197.95 269.68 L 1202.04 258.36 L 1206.13 254.88 L 1210.22 269.68 L 1214.31 243.99 L 1218.40 245.30 L 1222.49 252.70 L 1226.58 227.88 L 1230.66 200.89 L 1234.75 173.89 L 1238.84 189.57 L 1242.93 191.74 L 1247.02 202.19 L 1251.11 174.76 L 1255.20 204.37 L 1259.29 181.73 L 1263.38 136.88 L 1267.47 145.59 L 1271.55 168.23 L 1275.64 186.52 L 1279.73 192.61 L 1283.82 174.33 L 1287.91 172.15 L 1292.00 165.18" fill="none" stroke="#0f766e" stroke-width="2"  />
<path d="M 98.00 335.61 L 102.09 339.03 L 106.18 336.51 L 110.27 345.47 L 114.36 343.65 L 118.45 366.08 L 122.53 362.36 L 126.62 371.98 L 130.71 367.96 L 134.80 360.64 L 138.89 361.75 L 142.98 354.20 L 147.07 366.97 L 151.16 374.07 L 155.25 377.07 L 159.34 378.71 L 163.42 377.62 L 167.51 368.43 L 171.60 377.02 L 175.69 377.51 L 179.78 374.09 L 183.87 368.87 L 187.96 370.73 L 192.05 375.77 L 196.14 375.86 L 200.23 377.92 L 204.32 379.32 L 208.40 389.06 L 212.49 395.98 L 216.58 398.57 L 220.67 402.15 L 224.76 400.74 L 228.85 399.77 L 232.94 400.96 L 237.03 397.04 L 241.12 403.08 L 245.21 407.91 L 249.29 412.62 L 253.38 415.42 L 257.47 417.44 L 261.56 412.19 L 265.65 404.96 L 269.74 396.92 L 273.83 398.52 L 277.92 379.14 L 282.01 374.34 L 286.10 374.03 L 290.18 378.60 L 294.27 380.15 L 298.36 378.88 L 302.45 377.54 L 306.54 376.28 L 310.63 371.39 L 314.72 362.20 L 318.81 366.36 L 322.90 378.99 L 326.99 385.05 L 331.08 379.85 L 335.16 382.95 L 339.25 381.22 L 343.34 423.92 L 347.43 417.10 L 351.52 419.23 L 355.61 420.22 L 359.70 425.74 L 363.79 408.49 L 367.88 404.24 L 371.97 403.05 L 376.05 405.44 L 380.14 405.78 L 384.23 412.35 L 388.32 410.46 L 392.41 411.58 L 396.50 411.11 L 400.59 411.04 L 404.68 417.73 L 408.77 422.99 L 412.86 426.39 L 416.95 430.80 L 421.03 420.15 L 425.12 418.32 L 429.21 418.95 L 433.30 420.10 L 437.39 416.53 L 441.48 408.67 L 445.57 405.41 L 449.66 411.92 L 453.75 411.07 L 457.84 408.83 L 461.92 399.43 L 466.01 392.82 L 470.10 405.16 L 474.19 405.80 L 478.28 410.08 L 482.37 412.51 L 486.46 408.71 L 490.55 408.02 L 494.64 411.50 L 498.73 408.69 L 502.82 410.28 L 506.90 410.67 L 510.99 409.58 L 515.08 408.44 L 519.17 403.23 L 523.26 406.49 L 527.35 410.59 L 531.44 409.43 L 535.53 398.94 L 539.62 405.43 L 543.71 412.41 L 547.79 417.92 L 551.88 413.77 L 555.97 410.03 L 560.06 410.63 L 564.15 412.86 L 568.24 412.49 L 572.33 406.17 L 576.42 407.61 L 580.51 392.56 L 584.60 398.98 L 588.68 397.32 L 592.77 400.36 L 596.86 397.57 L 600.95 393.07 L 605.04 390.14 L 609.13 379.79 L 613.22 380.46 L 617.31 384.82 L 621.40 397.36 L 625.49 399.01 L 629.58 394.18 L 633.66 378.42 L 637.75 322.74 L 641.84 323.56 L 645.93 322.81 L 650.02 316.12 L 654.11 337.19 L 658.20 340.60 L 662.29 334.75 L 666.38 353.59 L 670.47 363.03 L 674.55 357.68 L 678.64 352.37 L 682.73 339.40 L 686.82 327.93 L 690.91 326.32 L 695.00 328.23 L 699.09 324.84 L 703.18 323.37 L 707.27 336.16 L 711.36 339.23 L 715.45 336.46 L 719.53 344.07 L 723.62 343.64 L 727.71 339.35 L 731.80 335.91 L 735.89 332.80 L 739.98 328.77 L 744.07 347.20 L 748.16 358.58 L 752.25 357.58 L 756.34 359.02 L 760.42 356.95 L 764.51 368.04 L 768.60 372.11 L 772.69 362.66 L 776.78 360.76 L 780.87 357.35 L 784.96 359.71 L 789.05 363.34 L 793.14 362.43 L 797.23 345.26 L 801.32 348.57 L 805.40 330.98 L 809.49 347.60 L 813.58 335.52 L 817.67 335.30 L 821.76 335.72 L 825.85 333.66 L 829.94 336.53 L 834.03 341.93 L 838.12 347.79 L 842.21 350.81 L 846.29 336.35 L 850.38 325.76 L 854.47 319.55 L 858.56 309.14 L 862.65 300.44 L 866.74 272.70 L 870.83 280.39 L 874.92 269.01 L 879.01 262.83 L 883.10 263.93 L 887.18 260.84 L 891.27 259.27 L 895.36 266.36 L 899.45 270.32 L 903.54 272.03 L 907.63 262.39 L 911.72 271.88 L 915.81 255.14 L 919.90 256.48 L 923.99 247.64 L 928.08 240.09 L 932.16 237.10 L 936.25 230.80 L 940.34 238.14 L 944.43 250.29 L 948.52 250.52 L 952.61 252.71 L 956.70 246.97 L 960.79 250.49 L 964.88 259.66 L 968.97 283.62 L 973.05 294.31 L 977.14 309.37 L 981.23 316.13 L 985.32 312.67 L 989.41 314.86 L 993.50 313.27 L 997.59 308.67 L 1001.68 304.09 L 1005.77 301.73 L 1009.86 298.22 L 1013.95 308.08 L 1018.03 311.64 L 1022.12 327.31 L 1026.21 331.39 L 1030.30 331.97 L 1034.39 338.72 L 1038.48 336.06 L 1042.57 337.04 L 1046.66 346.57 L 1050.75 335.45 L 1054.84 334.99 L 1058.92 335.54 L 1063.01 337.87 L 1067.10 347.36 L 1071.19 345.61 L 1075.28 346.84 L 1079.37 341.67 L 1083.46 341.66 L 1087.55 347.51 L 1091.64 349.33 L 1095.73 334.79 L 1099.82 305.65 L 1103.90 304.38 L 1107.99 304.57 L 1112.08 304.56 L 1116.17 306.65 L 1120.26 314.66 L 1124.35 320.60 L 1128.44 334.30 L 1132.53 329.38 L 1136.62 315.90 L 1140.71 321.77 L 1144.79 318.18 L 1148.88 314.96 L 1152.97 295.40 L 1157.06 316.26 L 1161.15 300.06 L 1165.24 285.07 L 1169.33 278.97 L 1173.42 327.25 L 1177.51 327.48 L 1181.60 263.08 L 1185.68 262.92 L 1189.77 281.08 L 1193.86 281.34 L 1197.95 273.94 L 1202.04 266.57 L 1206.13 257.96 L 1210.22 263.62 L 1214.31 250.28 L 1218.40 246.15 L 1222.49 251.58 L 1226.58 233.46 L 1230.66 185.29 L 1234.75 173.99 L 1238.84 176.80 L 1242.93 191.82 L 1247.02 193.51 L 1251.11 174.05 L 1255.20 219.72 L 1259.29 171.86 L 1263.38 146.13 L 1267.47 140.24 L 1271.55 158.36 L 1275.64 185.58 L 1279.73 190.22 L 1283.82 172.87 L 1287.91 175.32 L 1292.00 150.49" fill="none" stroke="#1d4ed8" stroke-width="2"  />
  </g>
  <g>
    <text x="54" y="538" fill="#1f2937" font-size="16" font-weight="700">B. 绝对误差（越低越好）</text>
    <line x1="98" y1="558" x2="124" y2="558" stroke="#1d4ed8" stroke-width="2"  />
      <text x="130" y="562" fill="#24312e" font-size="12">持仓分段误差</text>
    <line x1="98" y1="560.00" x2="1292" y2="560.00" stroke="#d7e3df" stroke-width="1" />
      <text x="90" y="564.00" text-anchor="end" fill="#5b6b68" font-size="11">2.44%</text>
<line x1="98" y1="630.00" x2="1292" y2="630.00" stroke="#d7e3df" stroke-width="1" />
      <text x="90" y="634.00" text-anchor="end" fill="#5b6b68" font-size="11">1.83%</text>
<line x1="98" y1="700.00" x2="1292" y2="700.00" stroke="#d7e3df" stroke-width="1" />
      <text x="90" y="704.00" text-anchor="end" fill="#5b6b68" font-size="11">1.22%</text>
<line x1="98" y1="770.00" x2="1292" y2="770.00" stroke="#d7e3df" stroke-width="1" />
      <text x="90" y="774.00" text-anchor="end" fill="#5b6b68" font-size="11">0.61%</text>
<line x1="98" y1="840.00" x2="1292" y2="840.00" stroke="#d7e3df" stroke-width="1" />
      <text x="90" y="844.00" text-anchor="end" fill="#5b6b68" font-size="11">0.00%</text>
    <line x1="98.00" y1="560" x2="98.00" y2="840" stroke="#eef3f1" stroke-width="1" />
      <text x="98.00" y="868" text-anchor="middle" fill="#5b6b68" font-size="11">25-01-02</text>
<line x1="290.18" y1="560" x2="290.18" y2="840" stroke="#eef3f1" stroke-width="1" />
      <text x="290.18" y="868" text-anchor="middle" fill="#5b6b68" font-size="11">25-03-18</text>
<line x1="478.28" y1="560" x2="478.28" y2="840" stroke="#eef3f1" stroke-width="1" />
      <text x="478.28" y="868" text-anchor="middle" fill="#5b6b68" font-size="11">25-05-27</text>
<line x1="695.00" y1="560" x2="695.00" y2="840" stroke="#eef3f1" stroke-width="1" />
      <text x="695.00" y="868" text-anchor="middle" fill="#5b6b68" font-size="11">25-08-11</text>
<line x1="911.72" y1="560" x2="911.72" y2="840" stroke="#eef3f1" stroke-width="1" />
      <text x="911.72" y="868" text-anchor="middle" fill="#5b6b68" font-size="11">25-10-31</text>
<line x1="1099.82" y1="560" x2="1099.82" y2="840" stroke="#eef3f1" stroke-width="1" />
      <text x="1099.82" y="868" text-anchor="middle" fill="#5b6b68" font-size="11">26-01-07</text>
<line x1="1292.00" y1="560" x2="1292.00" y2="840" stroke="#eef3f1" stroke-width="1" />
      <text x="1292.00" y="868" text-anchor="middle" fill="#5b6b68" font-size="11">26-03-23</text>
    <line x1="1091.64" y1="560" x2="1091.64" y2="840" stroke="#f59e0b" stroke-width="1.4" stroke-dasharray="4 4" />
       <text x="1097.64" y="552" fill="#a16207" font-size="11">验证起点</text>
    <path d="M 98.00 803.93 L 102.09 799.77 L 106.18 830.61 L 110.27 813.71 L 114.36 734.46 L 118.45 751.34 L 122.53 711.29 L 126.62 832.85 L 130.71 722.64 L 134.80 792.72 L 138.89 712.32 L 142.98 801.04 L 147.07 817.13 L 151.16 824.66 L 155.25 783.00 L 159.34 830.58 L 163.42 746.53 L 167.51 794.76 L 171.60 816.28 L 175.69 801.90 L 179.78 734.43 L 183.87 831.92 L 187.96 799.91 L 192.05 835.74 L 196.14 838.98 L 200.23 829.27 L 204.32 770.14 L 208.40 778.74 L 212.49 812.42 L 216.58 812.13 L 220.67 817.38 L 224.76 826.04 L 228.85 810.32 L 232.94 766.98 L 237.03 787.44 L 241.12 757.66 L 245.21 808.53 L 249.29 827.60 L 253.38 809.12 L 257.47 773.33 L 261.56 767.21 L 265.65 709.88 L 269.74 824.65 L 273.83 797.13 L 277.92 749.70 L 282.01 837.57 L 286.10 803.66 L 290.18 813.64 L 294.27 831.18 L 298.36 807.57 L 302.45 810.78 L 306.54 811.61 L 310.63 722.99 L 314.72 803.13 L 318.81 759.47 L 322.90 758.15 L 326.99 721.91 L 331.08 805.92 L 335.16 833.97 L 339.25 793.22 L 343.34 590.00 L 347.43 815.35 L 351.52 836.73 L 355.61 784.69 L 359.70 779.37 L 363.79 778.15 L 367.88 818.99 L 371.97 834.97 L 376.05 834.51 L 380.14 801.45 L 384.23 806.99 L 388.32 835.04 L 392.41 824.99 L 396.50 798.92 L 400.59 808.92 L 404.68 789.59 L 408.77 804.35 L 412.86 802.85 L 416.95 702.62 L 421.03 785.76 L 425.12 835.46 L 429.21 831.36 L 433.30 815.28 L 437.39 809.62 L 441.48 803.22 L 445.57 830.97 L 449.66 806.92 L 453.75 799.61 L 457.84 822.78 L 461.92 749.90 L 466.01 747.78 L 470.10 831.95 L 474.19 801.75 L 478.28 785.98 L 482.37 783.16 L 486.46 795.58 L 490.55 802.42 L 494.64 795.02 L 498.73 824.08 L 502.82 803.59 L 506.90 827.20 L 510.99 802.66 L 515.08 830.56 L 519.17 830.84 L 523.26 784.62 L 527.35 828.64 L 531.44 833.25 L 535.53 754.53 L 539.62 781.64 L 543.71 752.39 L 547.79 829.66 L 551.88 727.60 L 555.97 837.70 L 560.06 835.00 L 564.15 824.51 L 568.24 748.28 L 572.33 836.17 L 576.42 827.50 L 580.51 820.62 L 584.60 826.41 L 588.68 826.89 L 592.77 811.21 L 596.86 800.27 L 600.95 816.61 L 605.04 658.95 L 609.13 811.85 L 613.22 837.18 L 617.31 654.93 L 621.40 813.58 L 625.49 805.13 L 629.58 771.53 L 633.66 740.82 L 637.75 822.08 L 641.84 813.00 L 645.93 671.98 L 650.02 762.12 L 654.11 749.46 L 658.20 789.39 L 662.29 791.31 L 666.38 725.23 L 670.47 804.26 L 674.55 799.83 L 678.64 743.10 L 682.73 667.74 L 686.82 816.08 L 690.91 802.25 L 695.00 791.79 L 699.09 791.60 L 703.18 759.15 L 707.27 760.19 L 711.36 771.26 L 715.45 758.27 L 719.53 839.01 L 723.62 808.63 L 727.71 775.94 L 731.80 834.21 L 735.89 745.23 L 739.98 799.78 L 744.07 774.61 L 748.16 799.44 L 752.25 819.28 L 756.34 799.29 L 760.42 789.72 L 764.51 785.44 L 768.60 798.15 L 772.69 803.29 L 776.78 779.52 L 780.87 837.79 L 784.96 778.51 L 789.05 806.15 L 793.14 773.88 L 797.23 784.97 L 801.32 799.92 L 805.40 838.59 L 809.49 793.79 L 813.58 787.55 L 817.67 799.43 L 821.76 810.13 L 825.85 826.70 L 829.94 791.67 L 834.03 820.09 L 838.12 796.71 L 842.21 822.34 L 846.29 775.45 L 850.38 734.57 L 854.47 811.75 L 858.56 737.78 L 862.65 837.73 L 866.74 773.92 L 870.83 783.36 L 874.92 611.40 L 879.01 832.61 L 883.10 695.93 L 887.18 783.50 L 891.27 680.42 L 895.36 831.92 L 899.45 783.18 L 903.54 714.46 L 907.63 764.67 L 911.72 798.63 L 915.81 836.54 L 919.90 830.29 L 923.99 763.43 L 928.08 777.28 L 932.16 827.62 L 936.25 830.37 L 940.34 791.57 L 944.43 825.31 L 948.52 731.23 L 952.61 834.07 L 956.70 715.51 L 960.79 615.42 L 964.88 751.47 L 968.97 815.96 L 973.05 663.91 L 977.14 765.87 L 981.23 748.92 L 985.32 806.95 L 989.41 773.12 L 993.50 802.06 L 997.59 756.69 L 1001.68 815.33 L 1005.77 799.50 L 1009.86 738.27 L 1013.95 838.86 L 1018.03 716.42 L 1022.12 791.21 L 1026.21 803.59 L 1030.30 788.93 L 1034.39 823.57 L 1038.48 805.19 L 1042.57 714.42 L 1046.66 836.26 L 1050.75 801.38 L 1054.84 827.00 L 1058.92 822.36 L 1063.01 798.66 L 1067.10 779.05 L 1071.19 831.11 L 1075.28 773.92 L 1079.37 824.91 L 1083.46 783.48 L 1087.55 798.96 L 1091.64 794.96 L 1095.73 817.47 L 1099.82 837.55 L 1103.90 831.81 L 1107.99 808.54 L 1112.08 833.24 L 1116.17 770.82 L 1120.26 785.33 L 1124.35 814.29 L 1128.44 799.15 L 1132.53 732.10 L 1136.62 814.12 L 1140.71 805.93 L 1144.79 707.35 L 1148.88 827.69 L 1152.97 772.91 L 1157.06 789.52 L 1161.15 672.16 L 1165.24 807.91 L 1169.33 829.98 L 1173.42 838.65 L 1177.51 778.54 L 1181.60 800.07 L 1185.68 627.60 L 1189.77 838.95 L 1193.86 775.69 L 1197.95 782.16 L 1202.04 730.00 L 1206.13 798.90 L 1210.22 757.65 L 1214.31 757.05 L 1218.40 828.73 L 1222.49 825.10 L 1226.58 767.82 L 1230.66 644.09 L 1234.75 838.81 L 1238.84 681.56 L 1242.93 839.08 L 1247.02 730.71 L 1251.11 831.24 L 1255.20 646.46 L 1259.29 718.58 L 1263.38 731.43 L 1267.47 776.59 L 1271.55 720.26 L 1275.64 828.44 L 1279.73 810.22 L 1283.82 822.27 L 1287.91 801.40 L 1292.00 662.37" fill="none" stroke="#1d4ed8" stroke-width="2"  />
  </g>
</svg>