<?xml version="1.0" encoding="UTF-8"?>
<svg xmlns="http://www.w3.org/2000/svg" width="1360" height="980" viewBox="0 0 1360 980">
  <defs>
    <linearGradient id="bg" x1="0" y1="0" x2="1" y2="1">
      <stop offset="0%" stop-color="#f4efe6" />
      <stop offset="100%" stop-color="#eef5f2" />
    </linearGradient>
  </defs>
  <rect x="0" y="0" width="1360" height="980" fill="url(#bg)" />
  <text x="46" y="36" fill="#1f2937" font-size="31" font-weight="700">汇添富沪深300指数(LOF)A(501043)（501043）离线研究图（持仓逐日估值版）</text>
  <text x="46" y="66" fill="#5b6b68" font-size="13">历史前十大持仓 + 持仓逐日涨跌幅 + USDCNY；双目标 lambda=0.10；披露期数 33；覆盖率均值 19.9%</text>
  <g>
    <text x="54" y="110" fill="#1f2937" font-size="16" font-weight="700">A. 净值拟合（同日对齐，无平移）</text>
    <line x1="98" y1="130" x2="124" y2="130" stroke="#0f766e" stroke-width="2"  />
      <text x="130" y="134" fill="#24312e" font-size="12">真实净值</text>
<line x1="313" y1="130" x2="339" y2="130" stroke="#1d4ed8" stroke-width="2"  />
      <text x="345" y="134" fill="#24312e" font-size="12">持仓分段估值</text>
    <line x1="98" y1="132.00" x2="1292" y2="132.00" stroke="#d7e3df" stroke-width="1" />
      <text x="90" y="136.00" text-anchor="end" fill="#5b6b68" font-size="11">1.640</text>
<line x1="98" y1="209.50" x2="1292" y2="209.50" stroke="#d7e3df" stroke-width="1" />
      <text x="90" y="213.50" text-anchor="end" fill="#5b6b68" font-size="11">1.529</text>
<line x1="98" y1="287.00" x2="1292" y2="287.00" stroke="#d7e3df" stroke-width="1" />
      <text x="90" y="291.00" text-anchor="end" fill="#5b6b68" font-size="11">1.419</text>
<line x1="98" y1="364.50" x2="1292" y2="364.50" stroke="#d7e3df" stroke-width="1" />
      <text x="90" y="368.50" text-anchor="end" fill="#5b6b68" font-size="11">1.309</text>
<line x1="98" y1="442.00" x2="1292" y2="442.00" stroke="#d7e3df" stroke-width="1" />
      <text x="90" y="446.00" text-anchor="end" fill="#5b6b68" font-size="11">1.199</text>
    <line x1="98.00" y1="132" x2="98.00" y2="442" stroke="#eef3f1" stroke-width="1" />
      <text x="98.00" y="470" text-anchor="middle" fill="#5b6b68" font-size="11">25-01-02</text>
<line x1="290.18" y1="132" x2="290.18" y2="442" stroke="#eef3f1" stroke-width="1" />
      <text x="290.18" y="470" text-anchor="middle" fill="#5b6b68" font-size="11">25-03-18</text>
<line x1="478.28" y1="132" x2="478.28" y2="442" stroke="#eef3f1" stroke-width="1" />
      <text x="478.28" y="470" text-anchor="middle" fill="#5b6b68" font-size="11">25-05-27</text>
<line x1="695.00" y1="132" x2="695.00" y2="442" stroke="#eef3f1" stroke-width="1" />
      <text x="695.00" y="470" text-anchor="middle" fill="#5b6b68" font-size="11">25-08-11</text>
<line x1="911.72" y1="132" x2="911.72" y2="442" stroke="#eef3f1" stroke-width="1" />
      <text x="911.72" y="470" text-anchor="middle" fill="#5b6b68" font-size="11">25-10-31</text>
<line x1="1099.82" y1="132" x2="1099.82" y2="442" stroke="#eef3f1" stroke-width="1" />
      <text x="1099.82" y="470" text-anchor="middle" fill="#5b6b68" font-size="11">26-01-07</text>
<line x1="1292.00" y1="132" x2="1292.00" y2="442" stroke="#eef3f1" stroke-width="1" />
      <text x="1292.00" y="470" text-anchor="middle" fill="#5b6b68" font-size="11">26-03-23</text>
    <line x1="1091.64" y1="132" x2="1091.64" y2="442" stroke="#f59e0b" stroke-width="1.4" stroke-dasharray="4 4" />
       <text x="1097.64" y="124" fill="#a16207" font-size="11">验证起点</text>
    <path d="M 98.00 379.52 L 102.09 389.65 L 106.18 391.13 L 110.27 384.87 L 114.36 386.13 L 118.45 388.25 L 122.53 398.52 L 126.62 400.84 L 130.71 378.82 L 134.80 384.38 L 138.89 383.46 L 142.98 380.72 L 147.07 376.78 L 151.16 376.14 L 155.25 384.02 L 159.34 382.19 L 163.42 375.09 L 167.51 378.61 L 171.60 383.74 L 175.69 372.98 L 179.78 361.79 L 183.87 359.82 L 187.96 363.97 L 192.05 355.74 L 196.14 358.90 L 200.23 351.37 L 204.32 349.54 L 208.40 357.28 L 212.49 351.16 L 216.58 353.70 L 220.67 342.58 L 224.76 344.62 L 228.85 354.54 L 232.94 346.94 L 237.03 345.11 L 241.12 362.56 L 245.21 362.77 L 249.29 363.48 L 253.38 359.61 L 257.47 347.43 L 261.56 350.25 L 265.65 353.77 L 269.74 351.02 L 273.83 354.12 L 277.92 357.71 L 282.01 336.24 L 286.10 338.50 L 290.18 336.03 L 294.27 335.54 L 298.36 343.49 L 302.45 357.14 L 306.54 352.64 L 310.63 353.20 L 314.72 356.09 L 318.81 353.20 L 322.90 357.07 L 326.99 363.41 L 331.08 363.27 L 335.16 364.04 L 339.25 369.18 L 343.34 431.17 L 347.43 417.24 L 351.52 408.93 L 355.61 398.03 L 359.70 394.58 L 363.79 392.75 L 367.88 392.33 L 371.97 389.72 L 376.05 389.65 L 380.14 389.37 L 384.23 386.56 L 388.32 386.28 L 392.41 385.71 L 396.50 386.28 L 400.59 385.57 L 404.68 386.84 L 408.77 388.32 L 412.86 389.16 L 416.95 380.58 L 421.03 375.44 L 425.12 370.51 L 429.21 371.92 L 433.30 361.86 L 437.39 360.52 L 441.48 349.83 L 445.57 357.78 L 449.66 361.93 L 453.75 364.60 L 457.84 359.75 L 461.92 355.38 L 466.01 355.95 L 470.10 362.98 L 474.19 368.05 L 478.28 372.69 L 482.37 373.40 L 486.46 368.19 L 490.55 372.27 L 494.64 369.67 L 498.73 365.94 L 502.82 363.76 L 506.90 364.04 L 510.99 361.44 L 515.08 365.94 L 519.17 358.97 L 523.26 358.48 L 527.35 364.46 L 531.44 362.35 L 535.53 363.12 L 539.62 361.86 L 543.71 369.04 L 547.79 367.42 L 551.88 364.67 L 555.97 354.19 L 560.06 340.75 L 564.15 343.00 L 568.24 347.93 L 572.33 343.91 L 576.42 342.44 L 580.51 342.30 L 584.60 336.60 L 588.68 333.36 L 592.77 336.88 L 596.86 329.35 L 600.95 330.76 L 605.04 326.04 L 609.13 323.58 L 613.22 322.66 L 617.31 322.31 L 621.40 324.56 L 625.49 317.88 L 629.58 311.33 L 633.66 305.14 L 637.75 297.40 L 641.84 297.05 L 645.93 290.37 L 650.02 294.94 L 654.11 292.83 L 658.20 289.03 L 662.29 289.24 L 666.38 306.41 L 670.47 311.12 L 674.55 307.46 L 678.64 300.01 L 682.73 297.68 L 686.82 297.47 L 690.91 299.37 L 695.00 295.36 L 699.09 290.44 L 703.18 282.98 L 707.27 283.47 L 711.36 276.78 L 715.45 268.34 L 719.53 271.93 L 723.62 260.95 L 727.71 257.15 L 731.80 236.39 L 735.89 215.42 L 739.98 219.15 L 744.07 234.14 L 748.16 216.90 L 752.25 208.81 L 756.34 202.76 L 760.42 210.36 L 764.51 217.47 L 768.60 239.84 L 772.69 217.54 L 776.78 215.99 L 780.87 222.81 L 784.96 220.63 L 789.05 197.27 L 793.14 203.11 L 797.23 200.65 L 801.32 202.69 L 805.40 196.21 L 809.49 208.46 L 813.58 207.40 L 817.67 202.83 L 821.76 203.60 L 825.85 192.84 L 829.94 186.36 L 834.03 196.14 L 838.12 180.24 L 842.21 175.39 L 846.29 159.98 L 850.38 181.02 L 854.47 186.22 L 858.56 198.75 L 862.65 183.27 L 866.74 180.24 L 870.83 203.67 L 874.92 198.26 L 879.01 182.35 L 883.10 185.87 L 887.18 182.84 L 891.27 169.76 L 895.36 157.23 L 899.45 162.44 L 903.54 149.84 L 907.63 158.36 L 911.72 173.91 L 915.81 171.16 L 919.90 179.12 L 923.99 177.07 L 928.08 162.16 L 932.16 165.46 L 936.25 161.73 L 940.34 171.38 L 944.43 172.78 L 948.52 160.12 L 952.61 176.72 L 956.70 183.76 L 960.79 190.37 L 964.88 185.80 L 968.97 190.94 L 973.05 216.20 L 977.14 217.40 L 981.23 207.83 L 985.32 201.70 L 989.41 202.20 L 993.50 199.66 L 997.59 188.47 L 1001.68 193.47 L 1005.77 198.75 L 1009.86 195.23 L 1013.95 186.57 L 1018.03 178.13 L 1022.12 183.62 L 1026.21 184.82 L 1030.30 193.82 L 1034.39 186.72 L 1038.48 192.98 L 1042.57 205.57 L 1046.66 186.64 L 1050.75 192.63 L 1054.84 188.54 L 1058.92 178.76 L 1063.01 176.65 L 1067.10 173.56 L 1071.19 171.38 L 1075.28 168.07 L 1079.37 172.29 L 1083.46 169.48 L 1087.55 174.47 L 1091.64 154.42 L 1095.73 137.74 L 1099.82 140.98 L 1103.90 149.84 L 1107.99 144.92 L 1112.08 137.81 L 1116.17 144.35 L 1120.26 148.58 L 1124.35 146.39 L 1128.44 150.27 L 1132.53 149.70 L 1136.62 153.29 L 1140.71 152.17 L 1144.79 152.17 L 1148.88 156.60 L 1152.97 155.54 L 1157.06 155.82 L 1161.15 153.08 L 1165.24 144.85 L 1169.33 155.75 L 1173.42 178.90 L 1177.51 166.52 L 1181.60 157.79 L 1185.68 164.06 L 1189.77 169.62 L 1193.86 152.45 L 1197.95 151.32 L 1202.04 153.71 L 1206.13 152.31 L 1210.22 165.96 L 1214.31 155.40 L 1218.40 148.86 L 1222.49 151.04 L 1226.58 154.63 L 1230.66 150.69 L 1234.75 167.29 L 1238.84 179.54 L 1242.93 169.40 L 1247.02 166.31 L 1251.11 176.72 L 1255.20 163.14 L 1259.29 156.53 L 1263.38 160.47 L 1267.47 164.62 L 1271.55 164.20 L 1275.64 171.87 L 1279.73 167.29 L 1283.82 184.46 L 1287.91 187.98 L 1292.00 222.39" fill="none" stroke="#0f766e" stroke-width="2"  />
<path d="M 98.00 385.82 L 102.09 386.66 L 106.18 389.85 L 110.27 386.87 L 114.36 385.28 L 118.45 385.88 L 122.53 398.36 L 126.62 398.62 L 130.71 377.23 L 134.80 381.18 L 138.89 383.58 L 142.98 381.39 L 147.07 379.24 L 151.16 376.77 L 155.25 382.54 L 159.34 382.54 L 163.42 379.86 L 167.51 375.56 L 171.60 379.84 L 175.69 373.60 L 179.78 363.71 L 183.87 360.23 L 187.96 361.13 L 192.05 357.60 L 196.14 356.74 L 200.23 356.32 L 204.32 350.25 L 208.40 351.83 L 212.49 353.76 L 216.58 352.95 L 220.67 344.13 L 224.76 343.56 L 228.85 350.39 L 232.94 351.01 L 237.03 345.02 L 241.12 359.49 L 245.21 362.14 L 249.29 363.08 L 253.38 362.14 L 257.47 348.99 L 261.56 348.96 L 265.65 350.42 L 269.74 353.02 L 273.83 351.03 L 277.92 356.01 L 282.01 333.45 L 286.10 337.48 L 290.18 337.13 L 294.27 334.68 L 298.36 340.79 L 302.45 355.25 L 306.54 355.28 L 310.63 351.81 L 314.72 353.99 L 318.81 354.76 L 322.90 354.43 L 326.99 359.26 L 331.08 362.74 L 335.16 363.32 L 339.25 364.68 L 343.34 437.76 L 347.43 423.65 L 351.52 411.40 L 355.61 398.26 L 359.70 396.52 L 363.79 392.79 L 367.88 392.08 L 371.97 390.64 L 376.05 389.83 L 380.14 388.32 L 384.23 388.43 L 388.32 385.09 L 392.41 386.17 L 396.50 385.61 L 400.59 385.76 L 404.68 384.46 L 408.77 387.79 L 412.86 388.14 L 416.95 386.34 L 421.03 378.56 L 425.12 372.61 L 429.21 370.54 L 433.30 363.76 L 437.39 361.36 L 441.48 352.61 L 445.57 351.99 L 449.66 359.57 L 453.75 360.92 L 457.84 362.07 L 461.92 358.37 L 466.01 355.50 L 470.10 360.94 L 474.19 364.14 L 478.28 369.29 L 482.37 372.87 L 486.46 370.97 L 490.55 368.65 L 494.64 371.73 L 498.73 367.34 L 502.82 364.74 L 506.90 362.80 L 510.99 362.12 L 515.08 363.40 L 519.17 361.01 L 523.26 358.57 L 527.35 360.38 L 531.44 362.55 L 535.53 362.07 L 539.62 362.09 L 543.71 367.32 L 547.79 368.44 L 551.88 364.48 L 555.97 359.24 L 560.06 341.10 L 564.15 341.83 L 568.24 344.99 L 572.33 344.97 L 576.42 343.12 L 580.51 341.63 L 584.60 339.47 L 588.68 334.95 L 592.77 333.51 L 596.86 333.30 L 600.95 328.60 L 605.04 328.31 L 609.13 324.40 L 613.22 323.21 L 617.31 321.67 L 621.40 322.84 L 625.49 321.31 L 629.58 314.55 L 633.66 308.25 L 637.75 299.85 L 641.84 296.81 L 645.93 293.98 L 650.02 291.41 L 654.11 292.61 L 658.20 290.45 L 662.29 288.34 L 666.38 303.76 L 670.47 307.38 L 674.55 309.81 L 678.64 300.55 L 682.73 298.33 L 686.82 297.53 L 690.91 297.68 L 695.00 296.08 L 699.09 292.75 L 703.18 286.93 L 707.27 283.10 L 711.36 277.15 L 715.45 269.98 L 719.53 269.47 L 723.62 265.37 L 727.71 258.60 L 731.80 236.86 L 735.89 218.69 L 739.98 217.03 L 744.07 229.21 L 748.16 220.44 L 752.25 211.17 L 756.34 205.65 L 760.42 204.16 L 764.51 217.23 L 768.60 237.97 L 772.69 218.84 L 776.78 215.22 L 780.87 218.85 L 784.96 221.39 L 789.05 194.44 L 793.14 199.71 L 797.23 200.68 L 801.32 201.55 L 805.40 199.53 L 809.49 207.36 L 813.58 206.31 L 817.67 203.86 L 821.76 202.60 L 825.85 196.27 L 829.94 189.55 L 834.03 191.38 L 838.12 178.53 L 842.21 178.39 L 846.29 156.48 L 850.38 182.53 L 854.47 181.62 L 858.56 194.47 L 862.65 187.16 L 866.74 181.77 L 870.83 203.53 L 874.92 201.21 L 879.01 184.54 L 883.10 183.03 L 887.18 184.19 L 891.27 170.55 L 895.36 158.03 L 899.45 159.35 L 903.54 151.34 L 907.63 153.01 L 911.72 170.89 L 915.81 171.15 L 919.90 174.63 L 923.99 178.54 L 928.08 163.44 L 932.16 163.13 L 936.25 162.65 L 940.34 169.59 L 944.43 171.31 L 948.52 165.48 L 952.61 175.50 L 956.70 178.09 L 960.79 185.67 L 964.88 188.58 L 968.97 187.42 L 973.05 219.82 L 977.14 215.95 L 981.23 214.38 L 985.32 202.94 L 989.41 202.22 L 993.50 200.35 L 997.59 190.54 L 1001.68 190.34 L 1005.77 194.95 L 1009.86 197.07 L 1013.95 187.64 L 1018.03 179.65 L 1022.12 180.55 L 1026.21 183.93 L 1030.30 188.05 L 1034.39 190.92 L 1038.48 188.39 L 1042.57 202.77 L 1046.66 187.56 L 1050.75 189.94 L 1054.84 189.84 L 1058.92 181.89 L 1063.01 178.17 L 1067.10 174.82 L 1071.19 172.32 L 1075.28 168.83 L 1079.37 169.45 L 1083.46 170.74 L 1087.55 171.65 L 1091.64 155.61 L 1095.73 141.19 L 1099.82 138.69 L 1103.90 143.90 L 1107.99 147.22 L 1112.08 142.37 L 1116.17 139.13 L 1120.26 146.98 L 1124.35 148.09 L 1128.44 147.14 L 1132.53 149.24 L 1136.62 151.02 L 1140.71 152.53 L 1144.79 151.41 L 1148.88 154.93 L 1152.97 154.44 L 1157.06 155.41 L 1161.15 153.67 L 1165.24 146.74 L 1169.33 154.64 L 1173.42 178.77 L 1177.51 169.56 L 1181.60 162.51 L 1185.68 159.55 L 1189.77 166.37 L 1193.86 156.15 L 1197.95 152.14 L 1202.04 152.01 L 1206.13 152.84 L 1210.22 163.42 L 1214.31 158.51 L 1218.40 152.04 L 1222.49 150.97 L 1226.58 151.02 L 1230.66 151.23 L 1234.75 161.76 L 1238.84 178.76 L 1242.93 176.44 L 1247.02 165.55 L 1251.11 172.89 L 1255.20 168.08 L 1259.29 159.30 L 1263.38 158.13 L 1267.47 160.59 L 1271.55 163.19 L 1275.64 168.53 L 1279.73 169.90 L 1283.82 182.71 L 1287.91 185.92 L 1292.00 221.74" fill="none" stroke="#1d4ed8" stroke-width="2"  />
  </g>
  <g>
    <text x="54" y="538" fill="#1f2937" font-size="16" font-weight="700">B. 绝对误差（越低越好）</text>
    <line x1="98" y1="558" x2="124" y2="558" stroke="#1d4ed8" stroke-width="2"  />
      <text x="130" y="562" fill="#24312e" font-size="12">持仓分段误差</text>
    <line x1="98" y1="560.00" x2="1292" y2="560.00" stroke="#d7e3df" stroke-width="1" />
      <text x="90" y="564.00" text-anchor="end" fill="#5b6b68" font-size="11">0.86%</text>
<line x1="98" y1="630.00" x2="1292" y2="630.00" stroke="#d7e3df" stroke-width="1" />
      <text x="90" y="634.00" text-anchor="end" fill="#5b6b68" font-size="11">0.65%</text>
<line x1="98" y1="700.00" x2="1292" y2="700.00" stroke="#d7e3df" stroke-width="1" />
      <text x="90" y="704.00" text-anchor="end" fill="#5b6b68" font-size="11">0.43%</text>
<line x1="98" y1="770.00" x2="1292" y2="770.00" stroke="#d7e3df" stroke-width="1" />
      <text x="90" y="774.00" text-anchor="end" fill="#5b6b68" font-size="11">0.22%</text>
<line x1="98" y1="840.00" x2="1292" y2="840.00" stroke="#d7e3df" stroke-width="1" />
      <text x="90" y="844.00" text-anchor="end" fill="#5b6b68" font-size="11">0.00%</text>
    <line x1="98.00" y1="560" x2="98.00" y2="840" stroke="#eef3f1" stroke-width="1" />
      <text x="98.00" y="868" text-anchor="middle" fill="#5b6b68" font-size="11">25-01-02</text>
<line x1="290.18" y1="560" x2="290.18" y2="840" stroke="#eef3f1" stroke-width="1" />
      <text x="290.18" y="868" text-anchor="middle" fill="#5b6b68" font-size="11">25-03-18</text>
<line x1="478.28" y1="560" x2="478.28" y2="840" stroke="#eef3f1" stroke-width="1" />
      <text x="478.28" y="868" text-anchor="middle" fill="#5b6b68" font-size="11">25-05-27</text>
<line x1="695.00" y1="560" x2="695.00" y2="840" stroke="#eef3f1" stroke-width="1" />
      <text x="695.00" y="868" text-anchor="middle" fill="#5b6b68" font-size="11">25-08-11</text>
<line x1="911.72" y1="560" x2="911.72" y2="840" stroke="#eef3f1" stroke-width="1" />
      <text x="911.72" y="868" text-anchor="middle" fill="#5b6b68" font-size="11">25-10-31</text>
<line x1="1099.82" y1="560" x2="1099.82" y2="840" stroke="#eef3f1" stroke-width="1" />
      <text x="1099.82" y="868" text-anchor="middle" fill="#5b6b68" font-size="11">26-01-07</text>
<line x1="1292.00" y1="560" x2="1292.00" y2="840" stroke="#eef3f1" stroke-width="1" />
      <text x="1292.00" y="868" text-anchor="middle" fill="#5b6b68" font-size="11">26-03-23</text>
    <line x1="1091.64" y1="560" x2="1091.64" y2="840" stroke="#f59e0b" stroke-width="1.4" stroke-dasharray="4 4" />
       <text x="1097.64" y="552" fill="#a16207" font-size="11">验证起点</text>
    <path d="M 98.00 614.54 L 102.09 731.66 L 106.18 793.50 L 110.27 768.10 L 114.36 809.19 L 118.45 754.59 L 122.53 834.01 L 126.62 758.53 L 130.71 783.41 L 134.80 724.91 L 138.89 835.71 L 142.98 815.83 L 147.07 752.27 L 151.16 817.62 L 155.25 786.80 L 159.34 827.56 L 163.42 670.02 L 167.51 731.34 L 171.60 699.92 L 175.69 817.85 L 179.78 772.58 L 183.87 825.51 L 187.96 740.00 L 192.05 774.89 L 196.14 764.30 L 200.23 668.35 L 204.32 815.64 L 208.40 649.62 L 212.49 749.77 L 216.58 814.02 L 220.67 786.53 L 224.76 803.64 L 228.85 695.57 L 232.94 699.36 L 237.03 836.75 L 241.12 732.00 L 245.21 817.80 L 249.29 826.21 L 253.38 751.26 L 257.47 786.05 L 261.56 795.43 L 265.65 723.46 L 269.74 770.77 L 273.83 732.62 L 277.92 780.88 L 282.01 744.46 L 286.10 805.28 L 290.18 802.70 L 294.27 810.54 L 298.36 747.14 L 302.45 773.88 L 306.54 748.40 L 310.63 791.60 L 314.72 766.69 L 318.81 785.73 L 322.90 747.58 L 326.99 694.35 L 331.08 821.55 L 335.16 814.81 L 339.25 680.89 L 343.34 590.00 L 347.43 600.47 L 351.52 748.69 L 355.61 831.31 L 359.70 769.37 L 363.79 838.68 L 367.88 831.02 L 371.97 806.99 L 376.05 833.55 L 380.14 802.02 L 384.23 772.46 L 388.32 797.36 L 392.41 823.47 L 396.50 816.13 L 400.59 833.08 L 404.68 754.11 L 408.77 820.94 L 412.86 803.05 L 416.95 633.46 L 421.03 728.86 L 425.12 765.73 L 429.21 791.08 L 433.30 773.26 L 437.39 810.62 L 441.48 743.56 L 445.57 637.97 L 449.66 757.34 L 453.75 710.53 L 457.84 758.69 L 461.92 735.87 L 466.01 824.43 L 470.10 768.23 L 474.19 701.85 L 478.28 719.26 L 482.37 821.39 L 486.46 741.99 L 490.55 711.46 L 494.64 767.13 L 498.73 790.72 L 502.82 805.63 L 506.90 796.53 L 510.99 815.98 L 515.08 750.53 L 519.17 768.86 L 523.26 836.80 L 527.35 696.36 L 531.44 833.14 L 535.53 802.76 L 539.62 831.96 L 543.71 779.20 L 547.79 803.80 L 551.88 833.13 L 555.97 664.14 L 560.06 827.90 L 564.15 799.80 L 568.24 738.42 L 572.33 803.58 L 576.42 816.56 L 580.51 817.22 L 584.60 741.77 L 588.68 785.87 L 592.77 724.91 L 596.86 706.08 L 600.95 766.77 L 605.04 763.46 L 609.13 812.25 L 613.22 821.50 L 617.31 818.26 L 621.40 782.00 L 625.49 725.14 L 629.58 733.14 L 633.66 737.29 L 637.75 759.76 L 641.84 832.13 L 645.93 722.38 L 650.02 724.45 L 654.11 832.78 L 658.20 793.80 L 662.29 810.81 L 666.38 752.21 L 670.47 715.62 L 674.55 762.15 L 678.64 821.96 L 682.73 818.96 L 686.82 837.98 L 690.91 784.24 L 695.00 816.44 L 699.09 764.72 L 703.18 712.23 L 707.27 828.17 L 711.36 828.24 L 715.45 787.76 L 719.53 761.52 L 723.62 700.27 L 727.71 794.45 L 731.80 825.52 L 735.89 740.99 L 739.98 775.47 L 744.07 687.98 L 748.16 732.68 L 752.25 769.11 L 756.34 753.37 L 760.42 653.28 L 764.51 832.81 L 768.60 781.89 L 772.69 800.40 L 776.78 816.64 L 780.87 719.00 L 784.96 816.90 L 789.05 755.77 L 793.14 738.25 L 797.23 839.13 L 801.32 805.80 L 805.40 741.22 L 809.49 806.82 L 813.58 807.25 L 817.67 809.13 L 821.76 810.08 L 825.85 738.31 L 829.94 746.15 L 834.03 698.41 L 838.12 789.89 L 842.21 752.31 L 846.29 739.33 L 850.38 795.63 L 854.47 704.33 L 858.56 712.54 L 862.65 725.52 L 866.74 795.13 L 870.83 835.68 L 874.92 751.89 L 879.01 775.65 L 883.10 756.32 L 887.18 800.57 L 891.27 816.88 L 895.36 816.96 L 899.45 750.84 L 903.54 797.26 L 907.63 686.35 L 911.72 752.06 L 915.81 839.57 L 919.90 708.62 L 923.99 797.26 L 928.08 803.08 L 932.16 772.49 L 936.25 813.65 L 940.34 787.94 L 944.43 796.97 L 948.52 685.57 L 952.61 804.35 L 956.70 673.15 L 960.79 700.91 L 964.88 758.16 L 968.97 735.79 L 973.05 730.32 L 977.14 796.26 L 981.23 642.75 L 985.32 803.15 L 989.41 839.22 L 993.50 819.38 L 997.59 778.85 L 1001.68 747.03 L 1005.77 726.70 L 1009.86 785.24 L 1013.95 808.51 L 1018.03 795.53 L 1022.12 749.63 L 1026.21 813.91 L 1030.30 668.76 L 1034.39 716.06 L 1038.48 703.90 L 1042.57 755.86 L 1046.66 813.10 L 1050.75 760.37 L 1054.84 801.75 L 1058.92 748.56 L 1063.01 795.57 L 1067.10 803.25 L 1071.19 812.49 L 1075.28 817.95 L 1079.37 757.36 L 1083.46 803.34 L 1087.55 757.85 L 1091.64 805.67 L 1095.73 742.64 L 1099.82 775.21 L 1103.90 670.29 L 1107.99 774.47 L 1112.08 711.16 L 1116.17 691.70 L 1120.26 794.51 L 1124.35 791.66 L 1128.44 750.78 L 1132.53 826.72 L 1136.62 775.02 L 1140.71 829.50 L 1144.79 818.39 L 1148.88 792.15 L 1152.97 808.35 L 1157.06 828.15 L 1161.15 822.98 L 1165.24 786.23 L 1169.33 807.98 L 1173.42 835.98 L 1177.51 751.85 L 1181.60 704.43 L 1185.68 709.75 L 1189.77 745.68 L 1193.86 733.98 L 1197.95 816.73 L 1202.04 791.12 L 1206.13 824.78 L 1210.22 766.61 L 1214.31 750.82 L 1218.40 749.29 L 1222.49 838.07 L 1226.58 736.73 L 1230.66 824.64 L 1234.75 679.63 L 1238.84 817.32 L 1242.93 635.71 L 1247.02 818.17 L 1251.11 727.95 L 1255.20 697.31 L 1259.29 760.40 L 1263.38 772.63 L 1267.47 723.39 L 1271.55 810.93 L 1275.64 742.81 L 1279.73 764.52 L 1283.82 788.33 L 1287.91 779.15 L 1292.00 820.13" fill="none" stroke="#1d4ed8" stroke-width="2"  />
  </g>
</svg>