<?xml version="1.0" encoding="UTF-8"?>
<svg xmlns="http://www.w3.org/2000/svg" width="1360" height="980" viewBox="0 0 1360 980">
  <defs>
    <linearGradient id="bg" x1="0" y1="0" x2="1" y2="1">
      <stop offset="0%" stop-color="#f4efe6" />
      <stop offset="100%" stop-color="#eef5f2" />
    </linearGradient>
  </defs>
  <rect x="0" y="0" width="1360" height="980" fill="url(#bg)" />
  <text x="46" y="36" fill="#1f2937" font-size="31" font-weight="700">501018 离线研究图（持仓逐日估值版）</text>
  <text x="46" y="66" fill="#5b6b68" font-size="13">历史前十大持仓 + 持仓逐日涨跌幅 + USDCNY；双目标 lambda=0.10；披露期数 38；覆盖率均值 39.5%</text>
  <g>
    <text x="54" y="110" fill="#1f2937" font-size="16" font-weight="700">A. 净值拟合（同日对齐，无平移）</text>
    <line x1="98" y1="112" x2="124" y2="112" stroke="#0f766e" stroke-width="2"  />
      <text x="130" y="116" fill="#24312e" font-size="12">真实净值</text>
<line x1="313" y1="112" x2="339" y2="112" stroke="#1d4ed8" stroke-width="2"  />
      <text x="345" y="116" fill="#24312e" font-size="12">持仓分段估值</text>
<line x1="528" y1="112" x2="554" y2="112" stroke="#b45309" stroke-width="2" stroke-dasharray="6 4" />
      <text x="560" y="116" fill="#24312e" font-size="12">持仓双目标估值</text>
    <line x1="98" y1="132.00" x2="1292" y2="132.00" stroke="#d7e3df" stroke-width="1" />
      <text x="90" y="136.00" text-anchor="end" fill="#5b6b68" font-size="11">1.711</text>
<line x1="98" y1="209.50" x2="1292" y2="209.50" stroke="#d7e3df" stroke-width="1" />
      <text x="90" y="213.50" text-anchor="end" fill="#5b6b68" font-size="11">1.546</text>
<line x1="98" y1="287.00" x2="1292" y2="287.00" stroke="#d7e3df" stroke-width="1" />
      <text x="90" y="291.00" text-anchor="end" fill="#5b6b68" font-size="11">1.381</text>
<line x1="98" y1="364.50" x2="1292" y2="364.50" stroke="#d7e3df" stroke-width="1" />
      <text x="90" y="368.50" text-anchor="end" fill="#5b6b68" font-size="11">1.215</text>
<line x1="98" y1="442.00" x2="1292" y2="442.00" stroke="#d7e3df" stroke-width="1" />
      <text x="90" y="446.00" text-anchor="end" fill="#5b6b68" font-size="11">1.050</text>
    <line x1="98.00" y1="132" x2="98.00" y2="442" stroke="#eef3f1" stroke-width="1" />
      <text x="98.00" y="470" text-anchor="middle" fill="#5b6b68" font-size="11">25-01-02</text>
<line x1="290.72" y1="132" x2="290.72" y2="442" stroke="#eef3f1" stroke-width="1" />
      <text x="290.72" y="470" text-anchor="middle" fill="#5b6b68" font-size="11">25-03-17</text>
<line x1="479.24" y1="132" x2="479.24" y2="442" stroke="#eef3f1" stroke-width="1" />
      <text x="479.24" y="470" text-anchor="middle" fill="#5b6b68" font-size="11">25-05-23</text>
<line x1="697.09" y1="132" x2="697.09" y2="442" stroke="#eef3f1" stroke-width="1" />
      <text x="697.09" y="470" text-anchor="middle" fill="#5b6b68" font-size="11">25-08-06</text>
<line x1="910.76" y1="132" x2="910.76" y2="442" stroke="#eef3f1" stroke-width="1" />
      <text x="910.76" y="470" text-anchor="middle" fill="#5b6b68" font-size="11">25-10-24</text>
<line x1="1099.28" y1="132" x2="1099.28" y2="442" stroke="#eef3f1" stroke-width="1" />
      <text x="1099.28" y="470" text-anchor="middle" fill="#5b6b68" font-size="11">25-12-26</text>
<line x1="1292.00" y1="132" x2="1292.00" y2="442" stroke="#eef3f1" stroke-width="1" />
      <text x="1292.00" y="470" text-anchor="middle" fill="#5b6b68" font-size="11">26-03-12</text>
    <line x1="1116.04" y1="132" x2="1116.04" y2="442" stroke="#f59e0b" stroke-width="1.4" stroke-dasharray="4 4" />
       <text x="1122.04" y="124" fill="#a16207" font-size="11">验证起点</text>
    <path d="M 98.00 339.48 L 102.19 337.28 L 106.38 329.73 L 110.57 328.27 L 114.76 327.99 L 118.95 329.87 L 123.14 317.21 L 127.33 309.28 L 131.52 307.12 L 135.71 298.78 L 139.89 298.45 L 144.08 298.63 L 148.27 304.59 L 152.46 309.56 L 156.65 312.24 L 160.84 316.83 L 165.03 319.55 L 169.22 325.93 L 173.41 336.25 L 177.60 338.92 L 181.79 338.73 L 185.98 331.89 L 190.17 327.76 L 194.36 325.98 L 198.55 336.20 L 202.74 337.61 L 206.93 337.33 L 211.12 332.07 L 215.31 328.23 L 219.49 327.62 L 223.68 332.73 L 227.87 333.48 L 232.06 346.38 L 236.25 352.15 L 240.44 348.39 L 244.63 348.30 L 248.82 351.86 L 253.01 363.92 L 257.20 375.22 L 261.39 376.72 L 265.58 370.58 L 269.77 374.00 L 273.96 373.95 L 278.15 368.89 L 282.34 371.09 L 286.53 368.89 L 290.72 366.17 L 294.91 365.93 L 299.09 368.70 L 303.28 361.71 L 307.47 357.16 L 311.66 353.27 L 315.85 353.04 L 320.04 346.75 L 324.23 347.32 L 328.42 350.08 L 332.61 341.83 L 336.80 334.56 L 340.99 334.70 L 345.18 362.65 L 349.37 412.08 L 353.56 412.83 L 357.75 430.70 L 361.94 410.44 L 366.13 413.77 L 370.32 407.72 L 374.51 406.45 L 378.69 406.17 L 382.88 388.68 L 387.07 387.04 L 391.26 390.60 L 395.45 390.27 L 399.64 391.17 L 403.83 395.43 L 408.02 390.84 L 412.21 396.28 L 416.40 400.03 L 420.59 417.38 L 424.78 416.07 L 428.97 421.93 L 433.16 419.30 L 437.35 410.67 L 441.54 397.31 L 445.73 393.13 L 449.92 391.31 L 454.11 403.03 L 458.29 401.72 L 462.48 398.86 L 466.67 398.76 L 470.86 396.84 L 475.05 405.00 L 479.24 403.17 L 483.43 400.97 L 487.62 405.33 L 491.81 400.92 L 496.00 400.54 L 500.19 412.46 L 504.38 391.87 L 508.57 394.31 L 512.76 391.59 L 516.95 386.01 L 521.14 380.94 L 525.33 375.78 L 529.52 371.37 L 533.71 361.15 L 537.89 328.74 L 542.08 335.45 L 546.27 323.40 L 550.46 317.21 L 554.65 304.59 L 558.84 311.06 L 563.03 313.08 L 567.22 373.86 L 571.41 371.61 L 575.60 373.16 L 579.79 374.52 L 583.98 377.61 L 588.17 374.89 L 592.36 369.22 L 596.55 363.26 L 600.74 365.56 L 604.93 362.18 L 609.12 353.97 L 613.31 351.68 L 617.49 357.21 L 621.68 353.18 L 625.87 355.62 L 630.06 360.49 L 634.25 363.50 L 638.44 359.60 L 642.63 354.44 L 646.82 356.09 L 651.01 361.20 L 655.20 362.74 L 659.39 356.51 L 663.58 359.09 L 667.77 353.60 L 671.96 343.28 L 676.15 330.06 L 680.34 333.81 L 684.53 342.86 L 688.72 352.05 L 692.91 360.21 L 697.09 362.70 L 701.28 369.45 L 705.47 372.73 L 709.66 372.69 L 713.85 371.84 L 718.04 379.53 L 722.23 374.84 L 726.42 376.06 L 730.61 376.53 L 734.80 378.17 L 738.99 373.95 L 743.18 369.03 L 747.37 365.75 L 751.56 364.48 L 755.75 367.34 L 759.94 369.64 L 764.13 368.00 L 768.32 366.07 L 772.51 365.51 L 776.69 355.29 L 780.88 362.56 L 785.07 369.87 L 789.26 379.11 L 793.45 376.20 L 797.64 374.89 L 801.83 368.28 L 806.02 373.72 L 810.21 374.14 L 814.40 372.92 L 818.59 363.87 L 822.78 363.73 L 826.97 366.64 L 831.16 373.67 L 835.35 374.66 L 839.54 367.01 L 843.73 361.53 L 847.92 356.23 L 852.11 350.55 L 856.29 365.00 L 860.48 373.95 L 864.67 378.92 L 868.86 397.31 L 873.05 392.95 L 877.24 406.69 L 881.43 407.02 L 885.62 409.88 L 889.81 414.99 L 894.00 415.60 L 898.19 412.27 L 902.38 401.62 L 906.57 386.71 L 910.76 383.94 L 914.95 385.68 L 919.14 395.76 L 923.33 392.48 L 927.52 393.42 L 931.71 391.68 L 935.89 388.63 L 940.08 391.12 L 944.27 393.37 L 948.46 398.57 L 952.65 396.32 L 956.84 395.43 L 961.03 387.93 L 965.22 399.61 L 969.41 403.78 L 973.60 395.48 L 977.79 396.37 L 981.98 394.49 L 986.17 397.97 L 990.36 402.37 L 994.55 410.67 L 998.74 406.22 L 1002.93 411.80 L 1007.12 409.22 L 1011.31 406.27 L 1015.49 402.42 L 1019.68 400.69 L 1023.87 402.98 L 1028.06 403.59 L 1032.25 399.37 L 1036.44 396.98 L 1040.63 401.15 L 1044.82 407.91 L 1049.01 408.85 L 1053.20 414.33 L 1057.39 415.32 L 1061.58 420.99 L 1065.77 431.12 L 1069.96 425.21 L 1074.15 425.40 L 1078.34 424.51 L 1082.53 414.33 L 1086.72 411.47 L 1090.91 409.31 L 1095.09 409.50 L 1099.28 413.30 L 1103.47 415.27 L 1107.66 413.54 L 1111.85 414.90 L 1116.04 415.22 L 1120.23 417.33 L 1124.42 426.81 L 1128.61 418.27 L 1132.80 404.58 L 1136.99 405.09 L 1141.18 390.13 L 1145.37 388.96 L 1149.56 401.30 L 1153.75 400.03 L 1157.94 400.87 L 1162.13 397.73 L 1166.32 393.18 L 1170.51 397.03 L 1174.69 389.48 L 1178.88 389.62 L 1183.07 381.97 L 1187.26 373.81 L 1191.45 357.40 L 1195.64 354.35 L 1199.83 382.25 L 1204.02 374.56 L 1208.21 368.04 L 1212.40 370.53 L 1216.59 365.04 L 1220.78 364.76 L 1224.97 362.70 L 1229.16 356.04 L 1233.35 367.53 L 1237.54 373.44 L 1241.73 342.30 L 1245.92 349.28 L 1250.11 346.75 L 1254.29 340.84 L 1258.48 301.87 L 1262.67 280.95 L 1266.86 279.36 L 1271.05 259.38 L 1275.24 213.00 L 1279.43 166.05 L 1283.62 204.74 L 1287.81 196.44 L 1292.00 135.99" fill="none" stroke="#0f766e" stroke-width="2"  />
<path d="M 98.00 344.35 L 102.19 337.11 L 106.38 335.85 L 110.57 327.48 L 114.76 330.01 L 118.95 327.60 L 123.14 329.66 L 127.33 305.71 L 131.52 310.78 L 135.71 294.75 L 139.89 301.09 L 144.08 299.56 L 148.27 298.80 L 152.46 304.69 L 156.65 310.83 L 160.84 313.98 L 165.03 316.74 L 169.22 322.12 L 173.41 331.42 L 177.60 336.78 L 181.79 338.14 L 185.98 336.44 L 190.17 329.76 L 194.36 336.50 L 198.55 325.83 L 202.74 337.49 L 206.93 338.41 L 211.12 336.78 L 215.31 331.00 L 219.49 327.83 L 223.68 339.02 L 227.87 335.92 L 232.06 340.23 L 236.25 347.11 L 240.44 349.39 L 244.63 348.57 L 248.82 350.12 L 253.01 352.67 L 257.20 372.75 L 261.39 375.46 L 265.58 374.80 L 269.77 366.30 L 273.96 373.09 L 278.15 371.16 L 282.34 371.27 L 286.53 369.68 L 290.72 367.35 L 294.91 367.03 L 299.09 365.22 L 303.28 366.27 L 307.47 361.42 L 311.66 353.25 L 315.85 353.11 L 320.04 351.54 L 324.23 346.44 L 328.42 348.59 L 332.61 341.86 L 336.80 341.90 L 340.99 333.22 L 345.18 359.74 L 349.37 422.17 L 353.56 422.78 L 357.75 393.10 L 361.94 439.53 L 366.13 408.78 L 370.32 415.03 L 374.51 407.82 L 378.69 404.31 L 382.88 401.29 L 387.07 388.30 L 391.26 384.56 L 395.45 388.95 L 399.64 392.47 L 403.83 390.32 L 408.02 394.65 L 412.21 388.07 L 416.40 402.65 L 420.59 409.49 L 424.78 429.43 L 428.97 417.77 L 433.16 413.91 L 437.35 417.71 L 441.54 403.23 L 445.73 391.27 L 449.92 394.37 L 454.11 392.94 L 458.29 401.97 L 462.48 398.85 L 466.67 398.49 L 470.86 400.36 L 475.05 397.68 L 479.24 403.94 L 483.43 400.32 L 487.62 400.60 L 491.81 404.65 L 496.00 402.16 L 500.19 401.30 L 504.38 401.74 L 508.57 393.22 L 512.76 393.65 L 516.95 389.16 L 521.14 379.61 L 525.33 381.44 L 529.52 362.91 L 533.71 371.31 L 537.89 338.24 L 542.08 304.49 L 546.27 319.63 L 550.46 323.30 L 554.65 316.84 L 558.84 304.23 L 563.03 359.75 L 567.22 331.34 L 571.41 374.00 L 575.60 371.15 L 579.79 374.14 L 583.98 372.68 L 588.17 376.30 L 592.36 368.59 L 596.55 369.89 L 600.74 363.00 L 604.93 364.34 L 609.12 361.21 L 613.31 353.95 L 617.49 354.09 L 621.68 350.58 L 625.87 349.68 L 630.06 356.13 L 634.25 360.59 L 638.44 361.84 L 642.63 360.18 L 646.82 349.45 L 651.01 356.56 L 655.20 361.36 L 659.39 361.57 L 663.58 358.54 L 667.77 346.87 L 671.96 342.39 L 676.15 341.19 L 680.34 332.37 L 684.53 343.19 L 688.72 351.41 L 692.91 353.83 L 697.09 362.33 L 701.28 363.60 L 705.47 369.06 L 709.66 374.39 L 713.85 373.84 L 718.04 372.81 L 722.23 376.99 L 726.42 376.52 L 730.61 376.12 L 734.80 377.89 L 738.99 376.05 L 743.18 372.70 L 747.37 368.28 L 751.56 362.93 L 755.75 367.37 L 759.94 366.39 L 764.13 368.99 L 768.32 368.39 L 772.51 364.26 L 776.69 365.11 L 780.88 362.16 L 785.07 363.91 L 789.26 372.34 L 793.45 385.23 L 797.64 375.58 L 801.83 372.31 L 806.02 370.99 L 810.21 372.49 L 814.40 372.97 L 818.59 370.93 L 822.78 365.20 L 826.97 364.24 L 831.16 368.35 L 835.35 377.73 L 839.54 372.04 L 843.73 364.69 L 847.92 360.35 L 852.11 355.96 L 856.29 356.84 L 860.48 366.19 L 864.67 380.80 L 868.86 392.71 L 873.05 408.09 L 877.24 395.87 L 881.43 406.88 L 885.62 409.32 L 889.81 409.44 L 894.00 417.31 L 898.19 414.83 L 902.38 402.89 L 906.57 391.93 L 910.76 386.38 L 914.95 381.16 L 919.14 392.29 L 923.33 394.46 L 927.52 392.66 L 931.71 391.77 L 935.89 388.76 L 940.08 389.92 L 944.27 392.65 L 948.46 393.46 L 952.65 398.04 L 956.84 393.29 L 961.03 393.36 L 965.22 401.00 L 969.41 399.26 L 973.60 398.00 L 977.79 388.58 L 981.98 394.47 L 986.17 400.59 L 990.36 398.87 L 994.55 403.82 L 998.74 415.32 L 1002.93 408.59 L 1007.12 410.56 L 1011.31 408.99 L 1015.49 406.14 L 1019.68 398.87 L 1023.87 402.27 L 1028.06 402.27 L 1032.25 402.56 L 1036.44 398.35 L 1040.63 395.98 L 1044.82 402.00 L 1049.01 406.59 L 1053.20 411.22 L 1057.39 414.99 L 1061.58 416.86 L 1065.77 427.92 L 1069.96 424.66 L 1074.15 426.68 L 1078.34 423.95 L 1082.53 422.00 L 1086.72 413.74 L 1090.91 411.92 L 1095.09 409.09 L 1099.28 409.28 L 1103.47 414.70 L 1107.66 415.22 L 1111.85 414.30 L 1116.04 414.56 L 1120.23 420.19 L 1124.42 417.58 L 1128.61 414.54 L 1132.80 418.09 L 1136.99 393.89 L 1141.18 398.79 L 1145.37 391.73 L 1149.56 391.04 L 1153.75 400.02 L 1157.94 399.78 L 1162.13 400.68 L 1166.32 392.12 L 1170.51 395.39 L 1174.69 389.60 L 1178.88 385.34 L 1183.07 382.00 L 1187.26 380.50 L 1191.45 364.56 L 1195.64 356.41 L 1199.83 375.77 L 1204.02 374.73 L 1208.21 373.57 L 1212.40 369.91 L 1216.59 369.55 L 1220.78 362.01 L 1224.97 364.37 L 1229.16 361.06 L 1233.35 367.57 L 1237.54 367.08 L 1241.73 355.09 L 1245.92 343.38 L 1250.11 348.80 L 1254.29 334.50 L 1258.48 300.32 L 1262.67 286.75 L 1266.86 279.41 L 1271.05 265.69 L 1275.24 213.05 L 1279.43 182.75 L 1283.62 163.60 L 1287.81 201.94 L 1292.00 147.66" fill="none" stroke="#1d4ed8" stroke-width="2"  />
<path d="M 98.00 345.87 L 102.19 339.82 L 106.38 337.82 L 110.57 330.04 L 114.76 328.91 L 118.95 327.43 L 123.14 329.31 L 127.33 317.49 L 131.52 309.89 L 135.71 307.20 L 139.89 299.48 L 144.08 299.06 L 148.27 298.04 L 152.46 304.01 L 156.65 310.15 L 160.84 312.90 L 165.03 317.26 L 169.22 320.29 L 173.41 326.65 L 177.60 336.80 L 181.79 339.33 L 185.98 338.93 L 190.17 332.18 L 194.36 328.59 L 198.55 326.44 L 202.74 336.75 L 206.93 337.05 L 211.12 336.77 L 215.31 332.48 L 219.49 328.65 L 223.68 328.51 L 227.87 333.11 L 232.06 334.27 L 236.25 346.91 L 240.44 352.39 L 244.63 348.90 L 248.82 349.08 L 253.01 352.38 L 257.20 364.68 L 261.39 375.67 L 265.58 376.98 L 269.77 371.22 L 273.96 374.34 L 278.15 374.17 L 282.34 369.54 L 286.53 371.41 L 290.72 369.23 L 294.91 366.69 L 299.09 366.34 L 303.28 368.93 L 307.47 362.16 L 311.66 357.44 L 315.85 353.73 L 320.04 353.38 L 324.23 347.20 L 328.42 347.90 L 332.61 350.12 L 336.80 342.33 L 340.99 334.92 L 345.18 336.13 L 349.37 364.16 L 353.56 412.97 L 357.75 412.52 L 361.94 431.43 L 366.13 410.65 L 370.32 414.12 L 374.51 408.17 L 378.69 406.63 L 382.88 406.31 L 387.07 388.17 L 391.26 386.53 L 395.45 390.91 L 399.64 390.92 L 403.83 391.52 L 408.02 395.78 L 412.21 391.49 L 416.40 396.99 L 420.59 400.88 L 424.78 417.56 L 428.97 416.68 L 433.16 421.97 L 437.35 419.54 L 441.54 410.89 L 445.73 397.40 L 449.92 393.71 L 454.11 391.94 L 458.29 403.34 L 462.48 402.09 L 466.67 399.26 L 470.86 399.35 L 475.05 397.37 L 479.24 405.28 L 483.43 402.68 L 487.62 400.47 L 491.81 405.67 L 496.00 401.48 L 500.19 401.06 L 504.38 412.33 L 508.57 392.43 L 512.76 394.65 L 516.95 391.77 L 521.14 386.34 L 525.33 381.44 L 529.52 375.68 L 533.71 371.80 L 537.89 360.70 L 542.08 329.47 L 546.27 335.27 L 550.46 323.89 L 554.65 316.63 L 558.84 304.01 L 563.03 312.64 L 567.22 314.25 L 571.41 374.31 L 575.60 372.00 L 579.79 373.69 L 583.98 374.92 L 588.17 377.91 L 592.36 375.03 L 596.55 369.71 L 600.74 362.73 L 604.93 365.03 L 609.12 362.53 L 613.31 354.44 L 617.49 352.37 L 621.68 357.33 L 625.87 353.90 L 630.06 356.13 L 634.25 360.96 L 638.44 363.79 L 642.63 360.11 L 646.82 354.94 L 651.01 356.59 L 655.20 361.64 L 659.39 363.08 L 663.58 357.16 L 667.77 359.11 L 671.96 353.63 L 676.15 343.57 L 680.34 330.77 L 684.53 334.68 L 688.72 343.52 L 692.91 352.69 L 697.09 360.86 L 701.28 363.22 L 705.47 369.87 L 709.66 373.11 L 713.85 373.24 L 718.04 372.36 L 722.23 379.74 L 726.42 375.45 L 730.61 376.41 L 734.80 377.10 L 738.99 378.40 L 743.18 374.28 L 747.37 369.41 L 751.56 366.02 L 755.75 365.21 L 759.94 367.70 L 764.13 369.98 L 768.32 368.49 L 772.51 365.55 L 776.69 364.98 L 780.88 356.06 L 785.07 363.14 L 789.26 370.55 L 793.45 379.47 L 797.64 376.58 L 801.83 375.09 L 806.02 368.99 L 810.21 374.05 L 814.40 374.46 L 818.59 373.16 L 822.78 364.45 L 826.97 364.24 L 831.16 367.28 L 835.35 374.12 L 839.54 374.84 L 843.73 367.26 L 847.92 361.87 L 852.11 356.69 L 856.29 351.40 L 860.48 365.57 L 864.67 374.59 L 868.86 379.85 L 873.05 397.56 L 877.24 393.65 L 881.43 407.10 L 885.62 407.64 L 889.81 410.25 L 894.00 415.45 L 898.19 415.93 L 902.38 412.30 L 906.57 401.64 L 910.76 387.12 L 914.95 384.42 L 919.14 386.38 L 923.33 396.07 L 927.52 392.94 L 931.71 393.70 L 935.89 392.07 L 940.08 389.19 L 944.27 391.70 L 948.46 393.80 L 952.65 398.95 L 956.84 396.66 L 961.03 395.67 L 965.22 388.82 L 969.41 399.98 L 973.60 403.93 L 977.79 395.93 L 981.98 396.63 L 986.17 395.20 L 990.36 398.49 L 994.55 402.93 L 998.74 410.89 L 1002.93 406.83 L 1007.12 412.08 L 1011.31 408.73 L 1015.49 405.78 L 1019.68 402.83 L 1023.87 401.26 L 1028.06 403.33 L 1032.25 403.92 L 1036.44 399.70 L 1040.63 397.66 L 1044.82 401.66 L 1049.01 408.20 L 1053.20 409.48 L 1057.39 414.81 L 1061.58 415.88 L 1065.77 421.70 L 1069.96 431.21 L 1074.15 425.75 L 1078.34 425.65 L 1082.53 424.63 L 1086.72 414.67 L 1090.91 411.92 L 1095.09 408.83 L 1099.28 409.01 L 1103.47 413.55 L 1107.66 415.66 L 1111.85 414.03 L 1116.04 415.12 L 1120.23 415.89 L 1124.42 417.78 L 1128.61 426.68 L 1132.80 418.66 L 1136.99 404.82 L 1141.18 405.22 L 1145.37 390.72 L 1149.56 389.60 L 1153.75 401.60 L 1157.94 399.53 L 1162.13 400.38 L 1166.32 397.89 L 1170.51 393.84 L 1174.69 397.10 L 1178.88 389.96 L 1183.07 389.69 L 1187.26 382.25 L 1191.45 373.85 L 1195.64 357.79 L 1199.83 355.49 L 1204.02 382.34 L 1208.21 374.93 L 1212.40 368.69 L 1216.59 370.90 L 1220.78 365.28 L 1224.97 365.18 L 1229.16 363.02 L 1233.35 356.91 L 1237.54 367.97 L 1241.73 373.05 L 1245.92 342.87 L 1250.11 349.68 L 1254.29 346.81 L 1258.48 340.30 L 1262.67 301.87 L 1266.86 281.35 L 1271.05 279.35 L 1275.24 258.46 L 1279.43 214.04 L 1283.62 166.39 L 1287.81 205.06 L 1292.00 195.38" fill="none" stroke="#b45309" stroke-width="2" stroke-dasharray="6 4" />
  </g>
  <g>
    <text x="54" y="538" fill="#1f2937" font-size="16" font-weight="700">B. 绝对误差（越低越好）</text>
    <line x1="98" y1="540" x2="124" y2="540" stroke="#1d4ed8" stroke-width="2"  />
      <text x="130" y="544" fill="#24312e" font-size="12">持仓分段误差</text>
<line x1="313" y1="540" x2="339" y2="540" stroke="#b45309" stroke-width="2" stroke-dasharray="6 4" />
      <text x="345" y="544" fill="#24312e" font-size="12">持仓双目标误差</text>
    <line x1="98" y1="560.00" x2="1292" y2="560.00" stroke="#d7e3df" stroke-width="1" />
      <text x="90" y="564.00" text-anchor="end" fill="#5b6b68" font-size="11">11.91%</text>
<line x1="98" y1="630.00" x2="1292" y2="630.00" stroke="#d7e3df" stroke-width="1" />
      <text x="90" y="634.00" text-anchor="end" fill="#5b6b68" font-size="11">8.93%</text>
<line x1="98" y1="700.00" x2="1292" y2="700.00" stroke="#d7e3df" stroke-width="1" />
      <text x="90" y="704.00" text-anchor="end" fill="#5b6b68" font-size="11">5.95%</text>
<line x1="98" y1="770.00" x2="1292" y2="770.00" stroke="#d7e3df" stroke-width="1" />
      <text x="90" y="774.00" text-anchor="end" fill="#5b6b68" font-size="11">2.98%</text>
<line x1="98" y1="840.00" x2="1292" y2="840.00" stroke="#d7e3df" stroke-width="1" />
      <text x="90" y="844.00" text-anchor="end" fill="#5b6b68" font-size="11">0.00%</text>
    <line x1="98.00" y1="560" x2="98.00" y2="840" stroke="#eef3f1" stroke-width="1" />
      <text x="98.00" y="868" text-anchor="middle" fill="#5b6b68" font-size="11">25-01-02</text>
<line x1="290.72" y1="560" x2="290.72" y2="840" stroke="#eef3f1" stroke-width="1" />
      <text x="290.72" y="868" text-anchor="middle" fill="#5b6b68" font-size="11">25-03-17</text>
<line x1="479.24" y1="560" x2="479.24" y2="840" stroke="#eef3f1" stroke-width="1" />
      <text x="479.24" y="868" text-anchor="middle" fill="#5b6b68" font-size="11">25-05-23</text>
<line x1="697.09" y1="560" x2="697.09" y2="840" stroke="#eef3f1" stroke-width="1" />
      <text x="697.09" y="868" text-anchor="middle" fill="#5b6b68" font-size="11">25-08-06</text>
<line x1="910.76" y1="560" x2="910.76" y2="840" stroke="#eef3f1" stroke-width="1" />
      <text x="910.76" y="868" text-anchor="middle" fill="#5b6b68" font-size="11">25-10-24</text>
<line x1="1099.28" y1="560" x2="1099.28" y2="840" stroke="#eef3f1" stroke-width="1" />
      <text x="1099.28" y="868" text-anchor="middle" fill="#5b6b68" font-size="11">25-12-26</text>
<line x1="1292.00" y1="560" x2="1292.00" y2="840" stroke="#eef3f1" stroke-width="1" />
      <text x="1292.00" y="868" text-anchor="middle" fill="#5b6b68" font-size="11">26-03-12</text>
    <line x1="1116.04" y1="560" x2="1116.04" y2="840" stroke="#f59e0b" stroke-width="1.4" stroke-dasharray="4 4" />
       <text x="1122.04" y="552" fill="#a16207" font-size="11">验证起点</text>
    <path d="M 98.00 820.78 L 102.19 839.35 L 106.38 816.19 L 110.57 836.90 L 114.76 832.18 L 118.95 831.17 L 123.14 792.58 L 127.33 826.57 L 131.52 826.29 L 135.71 825.13 L 139.89 830.22 L 144.08 836.59 L 148.27 818.40 L 152.46 821.68 L 156.65 834.68 L 160.84 829.14 L 165.03 829.25 L 169.22 825.26 L 173.41 821.03 L 177.60 831.57 L 181.79 837.65 L 185.98 822.22 L 190.17 832.26 L 194.36 799.35 L 198.55 799.24 L 202.74 839.54 L 206.93 835.73 L 211.12 821.63 L 215.31 829.26 L 219.49 839.17 L 223.68 815.41 L 227.87 830.44 L 232.06 815.43 L 236.25 819.65 L 240.44 836.02 L 244.63 838.90 L 248.82 832.95 L 253.01 793.64 L 257.20 829.63 L 261.39 834.67 L 265.58 822.38 L 269.77 807.70 L 273.96 836.37 L 278.15 830.56 L 282.34 839.26 L 286.53 836.69 L 290.72 835.11 L 294.91 835.46 L 299.09 825.53 L 303.28 821.31 L 307.47 822.66 L 311.66 839.91 L 315.85 839.69 L 320.04 820.84 L 324.23 836.48 L 328.42 833.98 L 332.61 839.87 L 336.80 811.24 L 340.99 834.22 L 345.18 828.03 L 349.37 794.57 L 353.56 795.17 L 357.75 664.52 L 361.94 709.50 L 366.13 817.45 L 370.32 807.39 L 374.51 833.93 L 378.69 831.71 L 382.88 785.69 L 387.07 834.60 L 391.26 813.86 L 395.45 834.27 L 399.64 834.34 L 403.83 817.70 L 408.02 823.51 L 412.21 804.15 L 416.40 828.46 L 420.59 804.13 L 424.78 779.41 L 428.97 820.91 L 433.16 815.39 L 437.35 808.43 L 441.54 814.07 L 445.73 831.91 L 449.92 826.74 L 454.11 795.38 L 458.29 838.90 L 462.48 839.99 L 466.67 838.82 L 470.86 824.62 L 475.05 807.51 L 479.24 836.59 L 483.43 837.15 L 487.62 818.98 L 491.81 823.58 L 496.00 832.90 L 500.19 789.76 L 504.38 797.24 L 508.57 835.26 L 512.76 831.05 L 516.95 826.48 L 521.14 834.35 L 525.33 816.19 L 529.52 804.66 L 533.71 798.32 L 537.89 803.13 L 542.08 718.50 L 546.27 825.49 L 550.46 816.81 L 554.65 794.29 L 558.84 814.24 L 563.03 663.39 L 567.22 661.67 L 571.41 830.02 L 575.60 831.59 L 579.79 838.42 L 583.98 819.18 L 588.17 834.10 L 592.36 837.38 L 596.55 812.71 L 600.74 829.45 L 604.93 831.12 L 609.12 810.71 L 613.31 830.81 L 617.49 827.29 L 621.68 829.49 L 625.87 815.87 L 630.06 822.12 L 634.25 828.04 L 638.44 830.84 L 642.63 816.76 L 646.82 813.04 L 651.01 820.98 L 655.20 834.32 L 659.39 819.40 L 663.58 837.75 L 667.77 812.75 L 671.96 836.43 L 676.15 796.68 L 680.34 834.39 L 684.53 838.68 L 688.72 837.42 L 692.91 813.86 L 697.09 838.48 L 701.28 815.65 L 705.47 824.61 L 709.66 832.86 L 713.85 831.67 L 718.04 811.50 L 722.23 830.97 L 726.42 838.07 L 730.61 838.25 L 734.80 838.79 L 738.99 831.19 L 743.18 824.74 L 747.37 829.51 L 751.56 833.62 L 755.75 839.87 L 759.94 826.48 L 764.13 835.87 L 768.32 830.40 L 772.51 834.83 L 776.69 800.14 L 780.88 838.37 L 785.07 815.17 L 789.26 811.33 L 793.45 801.98 L 797.64 837.10 L 801.83 823.25 L 806.02 828.56 L 810.21 833.07 L 814.40 839.79 L 818.59 810.92 L 822.78 833.93 L 826.97 830.08 L 831.16 817.71 L 835.35 827.08 L 839.54 819.18 L 843.73 827.02 L 847.92 823.22 L 852.11 818.24 L 856.29 806.34 L 860.48 807.44 L 864.67 832.05 L 868.86 819.86 L 873.05 774.24 L 877.24 791.81 L 881.43 839.37 L 885.62 837.48 L 889.81 814.87 L 894.00 832.23 L 898.19 828.46 L 902.38 834.41 L 906.57 817.59 L 910.76 829.59 L 914.95 820.65 L 919.14 824.85 L 923.33 831.40 L 927.52 836.71 L 931.71 839.62 L 935.89 839.43 L 940.08 834.83 L 944.27 836.89 L 948.46 817.55 L 952.65 832.50 L 956.84 830.65 L 961.03 816.65 L 965.22 833.88 L 969.41 819.96 L 973.60 829.00 L 977.79 805.95 L 981.98 839.87 L 986.17 828.51 L 990.36 824.51 L 994.55 809.22 L 998.74 799.48 L 1002.93 825.57 L 1007.12 833.99 L 1011.31 827.87 L 1015.49 823.57 L 1019.68 831.99 L 1023.87 836.86 L 1028.06 834.16 L 1032.25 825.99 L 1036.44 834.01 L 1040.63 817.17 L 1044.82 813.62 L 1049.01 829.89 L 1053.20 825.95 L 1057.39 838.50 L 1061.58 821.06 L 1065.77 825.06 L 1069.96 837.46 L 1074.15 834.07 L 1078.34 837.40 L 1082.53 805.33 L 1086.72 829.79 L 1090.91 828.34 L 1095.09 838.17 L 1099.28 821.87 L 1103.47 837.43 L 1107.66 832.38 L 1111.85 837.30 L 1116.04 836.99 L 1120.23 827.02 L 1124.42 797.26 L 1128.61 823.00 L 1132.80 780.03 L 1136.99 790.25 L 1141.18 802.62 L 1145.37 828.06 L 1149.56 794.77 L 1153.75 839.96 L 1157.94 835.20 L 1162.13 827.09 L 1166.32 835.37 L 1170.51 832.82 L 1174.69 839.46 L 1178.88 821.52 L 1183.07 839.88 L 1187.26 811.96 L 1191.45 810.82 L 1195.64 831.63 L 1199.83 812.37 L 1204.02 839.31 L 1208.21 817.04 L 1212.40 837.40 L 1216.59 821.40 L 1220.78 828.63 L 1224.97 833.11 L 1229.16 819.60 L 1233.35 839.85 L 1237.54 813.36 L 1241.73 789.23 L 1245.92 816.26 L 1250.11 831.81 L 1254.29 814.87 L 1258.48 834.24 L 1262.67 819.16 L 1266.86 839.82 L 1271.05 818.02 L 1275.24 839.84 L 1279.43 788.91 L 1283.62 707.43 L 1287.81 822.48 L 1292.00 805.65" fill="none" stroke="#1d4ed8" stroke-width="2"  />
<path d="M 98.00 814.77 L 102.19 830.00 L 106.38 808.55 L 110.57 833.17 L 114.76 836.44 L 118.95 830.51 L 123.14 793.91 L 127.33 809.14 L 131.52 829.63 L 135.71 808.85 L 139.89 836.18 L 144.08 838.44 L 148.27 815.56 L 152.46 819.10 L 156.65 832.12 L 160.84 825.04 L 165.03 831.24 L 169.22 818.21 L 173.41 802.30 L 177.60 831.61 L 181.79 837.66 L 185.98 812.50 L 190.17 822.85 L 194.36 829.91 L 198.55 801.63 L 202.74 836.64 L 206.93 838.92 L 211.12 821.67 L 215.31 823.51 L 219.49 836.00 L 223.68 823.50 L 227.87 838.54 L 232.06 791.61 L 236.25 818.86 L 240.44 823.97 L 244.63 837.59 L 248.82 828.78 L 253.01 792.45 L 257.20 795.67 L 261.39 835.59 L 265.58 813.31 L 269.77 828.34 L 273.96 838.38 L 278.15 818.05 L 282.34 833.53 L 286.53 829.52 L 290.72 827.32 L 294.91 836.88 L 299.09 830.17 L 303.28 810.39 L 307.47 819.65 L 311.66 823.15 L 315.85 837.18 L 320.04 813.50 L 324.23 839.55 L 328.42 831.24 L 332.61 807.10 L 336.80 809.53 L 340.99 839.14 L 345.18 730.93 L 349.37 624.31 L 353.56 839.40 L 357.75 755.17 L 361.94 745.81 L 366.13 825.91 L 370.32 811.45 L 374.51 832.37 L 378.69 837.95 L 382.88 764.06 L 387.07 835.13 L 391.26 822.39 L 395.45 837.27 L 399.64 838.96 L 403.83 822.95 L 408.02 818.60 L 412.21 819.10 L 416.40 826.65 L 420.59 764.98 L 424.78 833.25 L 428.97 815.91 L 433.16 827.82 L 437.35 800.19 L 441.54 780.56 L 445.73 821.46 L 449.92 829.60 L 454.11 790.93 L 458.29 832.86 L 462.48 825.82 L 466.67 837.84 L 470.86 829.02 L 475.05 806.11 L 479.24 830.68 L 483.43 832.46 L 487.62 818.41 L 491.81 819.08 L 496.00 835.90 L 500.19 788.67 L 504.38 751.32 L 508.57 831.83 L 512.76 826.73 L 516.95 815.27 L 521.14 817.07 L 525.33 816.21 L 529.52 822.04 L 533.71 796.31 L 537.89 715.98 L 542.08 816.53 L 546.27 794.32 L 550.46 814.55 L 554.65 795.05 L 558.84 813.38 L 563.03 838.33 L 567.22 590.00 L 571.41 828.71 L 575.60 835.15 L 579.79 836.52 L 583.98 828.64 L 588.17 827.33 L 592.36 815.83 L 596.55 813.43 L 600.74 828.31 L 604.93 828.30 L 609.12 805.34 L 613.31 828.83 L 617.49 820.27 L 621.68 823.20 L 625.87 833.04 L 630.06 822.14 L 634.25 829.57 L 638.44 822.89 L 642.63 817.04 L 646.82 835.33 L 651.01 821.10 L 655.20 835.48 L 659.39 813.24 L 663.58 832.12 L 667.77 817.68 L 671.96 798.85 L 676.15 787.45 L 680.34 828.10 L 684.53 807.48 L 688.72 805.55 L 692.91 809.21 L 697.09 832.44 L 701.28 814.07 L 705.47 828.03 L 709.66 838.23 L 713.85 834.16 L 718.04 809.59 L 722.23 819.44 L 726.42 837.40 L 730.61 839.49 L 734.80 835.46 L 738.99 821.33 L 743.18 818.18 L 747.37 824.86 L 751.56 833.63 L 755.75 831.15 L 759.94 831.94 L 764.13 831.75 L 768.32 830.00 L 772.51 839.86 L 776.69 800.64 L 780.88 813.28 L 785.07 811.98 L 789.26 803.75 L 793.45 826.26 L 797.64 832.91 L 801.83 811.71 L 806.02 820.19 L 810.21 839.60 L 814.40 833.58 L 818.59 801.73 L 822.78 837.05 L 826.97 830.09 L 831.16 813.18 L 835.35 837.74 L 839.54 807.57 L 843.73 816.49 L 847.92 817.04 L 852.11 815.30 L 856.29 783.88 L 860.48 804.84 L 864.67 821.64 L 868.86 763.59 L 873.05 819.95 L 877.24 781.89 L 881.43 839.61 L 885.62 829.96 L 889.81 818.55 L 894.00 839.33 L 898.19 823.52 L 902.38 792.89 L 906.57 775.91 L 910.76 826.45 L 914.95 834.59 L 919.14 799.05 L 923.33 824.40 L 927.52 837.94 L 931.71 831.24 L 935.89 825.21 L 940.08 831.64 L 944.27 832.73 L 948.46 819.05 L 952.65 828.51 L 956.84 834.64 L 961.03 806.69 L 965.22 792.59 L 969.41 823.16 L 973.60 803.13 L 977.79 838.09 L 981.98 830.71 L 986.17 827.86 L 990.36 822.82 L 994.55 805.24 L 998.74 819.21 L 1002.93 817.65 L 1007.12 827.18 L 1011.31 829.02 L 1015.49 825.18 L 1019.68 830.55 L 1023.87 832.37 L 1028.06 838.83 L 1032.25 820.01 L 1036.44 828.11 L 1040.63 824.57 L 1044.82 812.11 L 1049.01 837.11 L 1053.20 818.08 L 1057.39 837.69 L 1061.58 816.58 L 1065.77 795.98 L 1069.96 812.30 L 1074.15 838.36 L 1078.34 834.74 L 1082.53 793.47 L 1086.72 825.64 L 1090.91 828.35 L 1095.09 836.97 L 1099.28 820.66 L 1103.47 832.19 L 1107.66 830.42 L 1111.85 836.09 L 1116.04 839.53 L 1120.23 833.45 L 1124.42 798.21 L 1128.61 801.69 L 1132.80 777.52 L 1136.99 838.78 L 1141.18 774.84 L 1145.37 832.41 L 1149.56 788.41 L 1153.75 833.07 L 1157.94 834.09 L 1162.13 828.41 L 1166.32 819.56 L 1170.51 826.04 L 1174.69 807.10 L 1178.88 838.54 L 1183.07 807.15 L 1187.26 804.61 L 1191.45 772.98 L 1195.64 826.07 L 1199.83 726.06 L 1204.02 807.33 L 1208.21 811.43 L 1212.40 832.32 L 1216.59 815.83 L 1220.78 837.84 L 1224.97 829.79 L 1229.16 811.62 L 1233.35 795.98 L 1237.54 817.09 L 1241.73 717.90 L 1245.92 814.22 L 1250.11 828.28 L 1254.29 816.37 L 1258.48 697.16 L 1262.67 764.76 L 1266.86 832.84 L 1271.05 770.46 L 1275.24 691.85 L 1279.43 693.18 L 1283.62 716.41 L 1287.81 812.56 L 1292.00 665.14" fill="none" stroke="#b45309" stroke-width="2" stroke-dasharray="6 4" />
  </g>
</svg>