<?xml version="1.0" encoding="UTF-8"?>
<svg xmlns="http://www.w3.org/2000/svg" width="1360" height="980" viewBox="0 0 1360 980">
  <defs>
    <linearGradient id="bg" x1="0" y1="0" x2="1" y2="1">
      <stop offset="0%" stop-color="#f4efe6" />
      <stop offset="100%" stop-color="#eef5f2" />
    </linearGradient>
  </defs>
  <rect x="0" y="0" width="1360" height="980" fill="url(#bg)" />
  <text x="46" y="36" fill="#1f2937" font-size="31" font-weight="700">汇添富中证500ETF联接(LOF)A(501036)（501036）离线研究图（持仓逐日估值版）</text>
  <text x="46" y="66" fill="#5b6b68" font-size="13">历史前十大持仓 + 持仓逐日涨跌幅 + USDCNY；双目标 lambda=0.10；披露期数 33；覆盖率均值 19.9%</text>
  <g>
    <text x="54" y="110" fill="#1f2937" font-size="16" font-weight="700">A. 净值拟合（同日对齐，无平移）</text>
    <line x1="98" y1="130" x2="124" y2="130" stroke="#0f766e" stroke-width="2"  />
      <text x="130" y="134" fill="#24312e" font-size="12">真实净值</text>
<line x1="313" y1="130" x2="339" y2="130" stroke="#1d4ed8" stroke-width="2"  />
      <text x="345" y="134" fill="#24312e" font-size="12">持仓分段估值</text>
    <line x1="98" y1="132.00" x2="1292" y2="132.00" stroke="#d7e3df" stroke-width="1" />
      <text x="90" y="136.00" text-anchor="end" fill="#5b6b68" font-size="11">1.642</text>
<line x1="98" y1="209.50" x2="1292" y2="209.50" stroke="#d7e3df" stroke-width="1" />
      <text x="90" y="213.50" text-anchor="end" fill="#5b6b68" font-size="11">1.482</text>
<line x1="98" y1="287.00" x2="1292" y2="287.00" stroke="#d7e3df" stroke-width="1" />
      <text x="90" y="291.00" text-anchor="end" fill="#5b6b68" font-size="11">1.321</text>
<line x1="98" y1="364.50" x2="1292" y2="364.50" stroke="#d7e3df" stroke-width="1" />
      <text x="90" y="368.50" text-anchor="end" fill="#5b6b68" font-size="11">1.161</text>
<line x1="98" y1="442.00" x2="1292" y2="442.00" stroke="#d7e3df" stroke-width="1" />
      <text x="90" y="446.00" text-anchor="end" fill="#5b6b68" font-size="11">1.000</text>
    <line x1="98.00" y1="132" x2="98.00" y2="442" stroke="#eef3f1" stroke-width="1" />
      <text x="98.00" y="470" text-anchor="middle" fill="#5b6b68" font-size="11">25-01-02</text>
<line x1="290.18" y1="132" x2="290.18" y2="442" stroke="#eef3f1" stroke-width="1" />
      <text x="290.18" y="470" text-anchor="middle" fill="#5b6b68" font-size="11">25-03-18</text>
<line x1="478.28" y1="132" x2="478.28" y2="442" stroke="#eef3f1" stroke-width="1" />
      <text x="478.28" y="470" text-anchor="middle" fill="#5b6b68" font-size="11">25-05-27</text>
<line x1="695.00" y1="132" x2="695.00" y2="442" stroke="#eef3f1" stroke-width="1" />
      <text x="695.00" y="470" text-anchor="middle" fill="#5b6b68" font-size="11">25-08-11</text>
<line x1="911.72" y1="132" x2="911.72" y2="442" stroke="#eef3f1" stroke-width="1" />
      <text x="911.72" y="470" text-anchor="middle" fill="#5b6b68" font-size="11">25-10-31</text>
<line x1="1099.82" y1="132" x2="1099.82" y2="442" stroke="#eef3f1" stroke-width="1" />
      <text x="1099.82" y="470" text-anchor="middle" fill="#5b6b68" font-size="11">26-01-07</text>
<line x1="1292.00" y1="132" x2="1292.00" y2="442" stroke="#eef3f1" stroke-width="1" />
      <text x="1292.00" y="470" text-anchor="middle" fill="#5b6b68" font-size="11">26-03-23</text>
    <line x1="1091.64" y1="132" x2="1091.64" y2="442" stroke="#f59e0b" stroke-width="1.4" stroke-dasharray="4 4" />
       <text x="1097.64" y="124" fill="#a16207" font-size="11">验证起点</text>
    <path d="M 98.00 416.85 L 102.09 427.03 L 106.18 427.13 L 110.27 422.21 L 114.36 424.19 L 118.45 424.62 L 122.53 432.10 L 126.62 431.09 L 130.71 414.68 L 134.80 418.98 L 138.89 417.00 L 142.98 413.33 L 147.07 410.97 L 151.16 409.28 L 155.25 411.60 L 159.34 413.53 L 163.42 407.79 L 167.51 413.04 L 171.60 411.02 L 175.69 399.44 L 179.78 392.01 L 183.87 387.28 L 187.96 389.94 L 192.05 382.89 L 196.14 386.51 L 200.23 382.31 L 204.32 382.27 L 208.40 391.53 L 212.49 382.65 L 216.58 381.49 L 220.67 372.91 L 224.76 374.02 L 228.85 379.61 L 232.94 373.44 L 237.03 375.46 L 241.12 390.03 L 245.21 387.81 L 249.29 383.33 L 253.38 382.22 L 257.47 373.78 L 261.56 376.77 L 265.65 376.81 L 269.74 374.11 L 273.83 374.45 L 277.92 378.55 L 282.01 369.39 L 286.10 368.76 L 290.18 366.59 L 294.27 369.34 L 298.36 372.95 L 302.45 380.58 L 306.54 380.87 L 310.63 382.75 L 314.72 382.60 L 318.81 381.83 L 322.90 385.35 L 326.99 390.37 L 331.08 387.38 L 335.16 386.80 L 339.25 391.43 L 343.34 439.58 L 347.43 436.25 L 351.52 426.41 L 355.61 417.34 L 359.70 414.10 L 363.79 410.20 L 367.88 412.37 L 371.97 416.37 L 376.05 416.28 L 380.14 415.99 L 384.23 408.89 L 388.32 410.44 L 392.41 409.52 L 396.50 411.98 L 400.59 410.15 L 404.68 412.66 L 408.77 412.08 L 412.86 409.76 L 416.95 400.40 L 421.03 399.58 L 425.12 397.46 L 429.21 401.95 L 433.30 395.77 L 437.39 396.83 L 441.48 395.24 L 445.57 402.43 L 449.66 402.38 L 453.75 401.95 L 457.84 399.58 L 461.92 398.62 L 466.01 403.11 L 470.10 407.25 L 474.19 405.76 L 478.28 407.16 L 482.37 408.36 L 486.46 401.13 L 490.55 405.04 L 494.64 402.96 L 498.73 399.01 L 502.82 396.06 L 506.90 396.50 L 510.99 392.64 L 515.08 396.74 L 519.17 392.93 L 523.26 392.20 L 527.35 396.40 L 531.44 394.04 L 535.53 395.34 L 539.62 395.63 L 543.71 401.47 L 547.79 404.17 L 551.88 401.13 L 555.97 393.07 L 560.06 384.58 L 564.15 386.51 L 568.24 384.05 L 572.33 379.47 L 576.42 377.78 L 580.51 381.40 L 584.60 378.79 L 588.68 379.61 L 592.77 380.53 L 596.86 373.39 L 600.95 375.37 L 605.04 372.71 L 609.13 368.66 L 613.22 369.24 L 617.31 369.39 L 621.40 368.95 L 625.49 363.26 L 629.58 361.71 L 633.66 356.26 L 637.75 351.68 L 641.84 352.89 L 645.93 344.44 L 650.02 343.91 L 654.11 341.79 L 658.20 338.94 L 662.29 342.56 L 666.38 350.23 L 670.47 351.34 L 674.55 347.15 L 678.64 343.48 L 682.73 338.75 L 686.82 340.49 L 690.91 341.55 L 695.00 335.57 L 699.09 333.30 L 703.18 325.39 L 707.27 332.14 L 711.36 319.89 L 715.45 311.16 L 719.53 312.27 L 723.62 305.90 L 727.71 308.02 L 731.80 297.55 L 735.89 286.31 L 739.98 285.20 L 744.07 290.70 L 748.16 279.37 L 752.25 276.52 L 756.34 270.83 L 760.42 283.71 L 764.51 291.72 L 768.60 306.53 L 772.69 287.71 L 776.78 280.91 L 780.87 286.41 L 784.96 286.07 L 789.05 269.43 L 793.14 267.21 L 797.23 268.17 L 801.32 264.27 L 805.40 258.38 L 809.49 263.69 L 813.58 266.15 L 817.67 261.47 L 821.76 265.28 L 825.85 252.74 L 829.94 250.90 L 834.03 259.44 L 838.12 249.94 L 842.21 244.49 L 846.29 232.77 L 850.38 245.79 L 854.47 247.72 L 858.56 263.40 L 862.65 254.76 L 866.74 260.17 L 870.83 282.12 L 874.92 275.99 L 879.01 265.96 L 883.10 270.88 L 887.18 269.62 L 891.27 259.35 L 895.36 248.73 L 899.45 252.06 L 903.54 240.00 L 907.63 248.15 L 911.72 252.64 L 915.81 252.54 L 919.90 263.40 L 923.99 261.66 L 928.08 251.82 L 932.16 253.27 L 936.25 251.82 L 940.34 256.11 L 944.43 260.41 L 948.52 251.48 L 952.61 261.32 L 956.70 261.28 L 960.79 268.66 L 964.88 271.02 L 968.97 276.38 L 973.05 297.36 L 977.14 293.16 L 981.23 285.98 L 985.32 285.11 L 989.41 286.07 L 993.50 279.37 L 997.59 273.77 L 1001.68 278.98 L 1005.77 282.70 L 1009.86 281.20 L 1013.95 273.92 L 1018.03 267.55 L 1022.12 271.99 L 1026.21 268.95 L 1030.30 275.17 L 1034.39 266.63 L 1038.48 271.41 L 1042.57 281.10 L 1046.66 269.24 L 1050.75 272.37 L 1054.84 266.44 L 1058.92 259.01 L 1063.01 258.96 L 1067.10 250.57 L 1071.19 245.41 L 1075.28 241.16 L 1079.37 243.72 L 1083.46 241.21 L 1087.55 240.77 L 1091.64 224.61 L 1095.73 210.43 L 1099.82 205.22 L 1103.90 203.63 L 1107.99 189.49 L 1112.08 172.85 L 1116.17 181.87 L 1120.26 174.78 L 1124.35 175.07 L 1128.44 174.25 L 1132.53 169.38 L 1136.62 172.95 L 1140.71 164.89 L 1144.79 160.93 L 1148.88 143.47 L 1152.97 150.85 L 1157.06 147.33 L 1161.15 142.89 L 1165.24 150.08 L 1169.33 162.72 L 1173.42 191.57 L 1177.51 170.00 L 1181.60 168.99 L 1185.68 181.97 L 1189.77 181.73 L 1193.86 167.78 L 1197.95 168.22 L 1202.04 166.39 L 1206.13 157.90 L 1210.22 168.65 L 1214.31 160.74 L 1218.40 149.26 L 1222.49 146.85 L 1226.58 138.21 L 1230.66 138.26 L 1234.75 170.44 L 1238.84 173.38 L 1242.93 168.46 L 1247.02 163.73 L 1251.11 170.53 L 1255.20 159.44 L 1259.29 160.21 L 1263.38 164.07 L 1267.47 174.06 L 1271.55 178.83 L 1275.64 193.11 L 1279.73 186.41 L 1283.82 205.36 L 1287.91 215.06 L 1292.00 242.85" fill="none" stroke="#0f766e" stroke-width="2"  />
<path d="M 98.00 420.56 L 102.09 428.09 L 106.18 426.43 L 110.27 424.02 L 114.36 422.79 L 118.45 423.56 L 122.53 432.04 L 126.62 430.70 L 130.71 412.91 L 134.80 416.16 L 138.89 417.64 L 142.98 414.92 L 147.07 411.78 L 151.16 410.69 L 155.25 409.71 L 159.34 411.86 L 163.42 410.60 L 167.51 411.87 L 171.60 411.01 L 175.69 397.82 L 179.78 391.84 L 183.87 389.17 L 187.96 388.20 L 192.05 382.60 L 196.14 384.63 L 200.23 384.46 L 204.32 381.57 L 208.40 389.37 L 212.49 383.11 L 216.58 382.43 L 220.67 372.93 L 224.76 372.37 L 228.85 376.47 L 232.94 374.50 L 237.03 374.14 L 241.12 389.91 L 245.21 388.45 L 249.29 385.46 L 253.38 383.13 L 257.47 374.63 L 261.56 375.14 L 265.65 375.59 L 269.74 375.66 L 273.83 373.26 L 277.92 375.99 L 282.01 371.10 L 286.10 368.58 L 290.18 367.17 L 294.27 367.45 L 298.36 370.29 L 302.45 379.94 L 306.54 379.90 L 310.63 380.94 L 314.72 382.17 L 318.81 381.76 L 322.90 383.25 L 326.99 389.37 L 331.08 388.15 L 335.16 386.91 L 339.25 388.14 L 343.34 437.68 L 347.43 434.61 L 351.52 427.84 L 355.61 419.45 L 359.70 416.38 L 363.79 412.27 L 367.88 411.01 L 371.97 413.81 L 376.05 416.20 L 380.14 416.10 L 384.23 410.29 L 388.32 409.01 L 392.41 410.22 L 396.50 410.09 L 400.59 411.08 L 404.68 410.34 L 408.77 412.54 L 412.86 410.07 L 416.95 404.56 L 421.03 399.30 L 425.12 397.65 L 429.21 399.29 L 433.30 397.52 L 437.39 396.46 L 441.48 395.47 L 445.57 399.82 L 449.66 402.76 L 453.75 400.72 L 457.84 400.74 L 461.92 399.13 L 466.01 400.11 L 470.10 405.23 L 474.19 405.39 L 478.28 406.35 L 482.37 407.34 L 486.46 403.03 L 490.55 402.40 L 494.64 403.79 L 498.73 401.01 L 502.82 397.41 L 506.90 395.76 L 510.99 393.73 L 515.08 394.54 L 519.17 394.67 L 523.26 392.36 L 527.35 393.92 L 531.44 394.35 L 535.53 394.43 L 539.62 395.11 L 543.71 398.05 L 547.79 402.72 L 551.88 401.66 L 555.97 396.17 L 560.06 385.27 L 564.15 385.32 L 568.24 385.24 L 572.33 380.98 L 576.42 378.66 L 580.51 378.75 L 584.60 380.27 L 588.68 378.27 L 592.77 378.92 L 596.86 373.94 L 600.95 374.02 L 605.04 373.80 L 609.13 370.07 L 613.22 368.02 L 617.31 368.79 L 621.40 369.29 L 625.49 363.10 L 629.58 362.20 L 633.66 358.97 L 637.75 352.87 L 641.84 352.49 L 645.93 346.67 L 650.02 344.01 L 654.11 341.71 L 658.20 339.74 L 662.29 339.97 L 666.38 347.78 L 670.47 350.27 L 674.55 348.49 L 678.64 345.76 L 682.73 340.19 L 686.82 339.73 L 690.91 340.35 L 695.00 336.42 L 699.09 333.89 L 703.18 326.60 L 707.27 328.45 L 711.36 317.91 L 715.45 312.43 L 719.53 312.27 L 723.62 305.27 L 727.71 307.00 L 731.80 299.60 L 735.89 287.41 L 739.98 285.79 L 744.07 290.90 L 748.16 281.22 L 752.25 277.11 L 756.34 273.31 L 760.42 280.69 L 764.51 286.14 L 768.60 306.63 L 772.69 287.34 L 776.78 283.75 L 780.87 283.03 L 784.96 285.77 L 789.05 268.15 L 793.14 268.67 L 797.23 266.20 L 801.32 265.82 L 805.40 260.25 L 809.49 261.09 L 813.58 264.06 L 817.67 262.49 L 821.76 263.03 L 825.85 250.80 L 829.94 252.59 L 834.03 254.00 L 838.12 249.87 L 842.21 247.32 L 846.29 230.80 L 850.38 246.04 L 854.47 245.34 L 858.56 261.81 L 862.65 259.56 L 866.74 257.23 L 870.83 279.38 L 874.92 279.50 L 879.01 267.52 L 883.10 267.66 L 887.18 269.84 L 891.27 260.89 L 895.36 249.87 L 899.45 250.15 L 903.54 239.93 L 907.63 245.98 L 911.72 250.11 L 915.81 250.85 L 919.90 260.51 L 923.99 262.43 L 928.08 253.00 L 932.16 252.61 L 936.25 251.35 L 940.34 253.52 L 944.43 257.44 L 948.52 253.81 L 952.61 261.71 L 956.70 260.03 L 960.79 263.73 L 964.88 269.46 L 968.97 273.24 L 973.05 300.87 L 977.14 294.15 L 981.23 289.96 L 985.32 285.35 L 989.41 285.62 L 993.50 282.95 L 997.59 275.27 L 1001.68 275.87 L 1005.77 280.50 L 1009.86 281.20 L 1013.95 275.58 L 1018.03 270.21 L 1022.12 269.51 L 1026.21 270.15 L 1030.30 270.84 L 1034.39 271.59 L 1038.48 267.22 L 1042.57 278.87 L 1046.66 270.77 L 1050.75 270.57 L 1054.84 269.40 L 1058.92 259.87 L 1063.01 258.99 L 1067.10 253.06 L 1071.19 247.93 L 1075.28 243.30 L 1079.37 241.14 L 1083.46 242.21 L 1087.55 240.65 L 1091.64 221.66 L 1095.73 211.58 L 1099.82 208.06 L 1103.90 203.86 L 1107.99 187.80 L 1112.08 169.96 L 1116.17 183.70 L 1120.26 178.30 L 1124.35 174.57 L 1128.44 174.41 L 1132.53 171.09 L 1136.62 170.52 L 1140.71 167.14 L 1144.79 162.45 L 1148.88 141.10 L 1152.97 154.55 L 1157.06 148.10 L 1161.15 145.13 L 1165.24 148.52 L 1169.33 159.60 L 1173.42 191.36 L 1177.51 171.40 L 1181.60 168.63 L 1185.68 179.91 L 1189.77 181.50 L 1193.86 167.82 L 1197.95 168.16 L 1202.04 166.99 L 1206.13 162.40 L 1210.22 165.36 L 1214.31 165.15 L 1218.40 151.67 L 1222.49 148.35 L 1226.58 139.51 L 1230.66 135.94 L 1234.75 168.94 L 1238.84 171.75 L 1242.93 170.68 L 1247.02 165.34 L 1251.11 167.73 L 1255.20 163.69 L 1259.29 159.16 L 1263.38 161.64 L 1267.47 166.49 L 1271.55 175.02 L 1275.64 192.06 L 1279.73 190.08 L 1283.82 203.46 L 1287.91 213.68 L 1292.00 243.06" fill="none" stroke="#1d4ed8" stroke-width="2"  />
  </g>
  <g>
    <text x="54" y="538" fill="#1f2937" font-size="16" font-weight="700">B. 绝对误差（越低越好）</text>
    <line x1="98" y1="558" x2="124" y2="558" stroke="#1d4ed8" stroke-width="2"  />
      <text x="130" y="562" fill="#24312e" font-size="12">持仓分段误差</text>
    <line x1="98" y1="560.00" x2="1292" y2="560.00" stroke="#d7e3df" stroke-width="1" />
      <text x="90" y="564.00" text-anchor="end" fill="#5b6b68" font-size="11">1.13%</text>
<line x1="98" y1="630.00" x2="1292" y2="630.00" stroke="#d7e3df" stroke-width="1" />
      <text x="90" y="634.00" text-anchor="end" fill="#5b6b68" font-size="11">0.85%</text>
<line x1="98" y1="700.00" x2="1292" y2="700.00" stroke="#d7e3df" stroke-width="1" />
      <text x="90" y="704.00" text-anchor="end" fill="#5b6b68" font-size="11">0.56%</text>
<line x1="98" y1="770.00" x2="1292" y2="770.00" stroke="#d7e3df" stroke-width="1" />
      <text x="90" y="774.00" text-anchor="end" fill="#5b6b68" font-size="11">0.28%</text>
<line x1="98" y1="840.00" x2="1292" y2="840.00" stroke="#d7e3df" stroke-width="1" />
      <text x="90" y="844.00" text-anchor="end" fill="#5b6b68" font-size="11">0.00%</text>
    <line x1="98.00" y1="560" x2="98.00" y2="840" stroke="#eef3f1" stroke-width="1" />
      <text x="98.00" y="868" text-anchor="middle" fill="#5b6b68" font-size="11">25-01-02</text>
<line x1="290.18" y1="560" x2="290.18" y2="840" stroke="#eef3f1" stroke-width="1" />
      <text x="290.18" y="868" text-anchor="middle" fill="#5b6b68" font-size="11">25-03-18</text>
<line x1="478.28" y1="560" x2="478.28" y2="840" stroke="#eef3f1" stroke-width="1" />
      <text x="478.28" y="868" text-anchor="middle" fill="#5b6b68" font-size="11">25-05-27</text>
<line x1="695.00" y1="560" x2="695.00" y2="840" stroke="#eef3f1" stroke-width="1" />
      <text x="695.00" y="868" text-anchor="middle" fill="#5b6b68" font-size="11">25-08-11</text>
<line x1="911.72" y1="560" x2="911.72" y2="840" stroke="#eef3f1" stroke-width="1" />
      <text x="911.72" y="868" text-anchor="middle" fill="#5b6b68" font-size="11">25-10-31</text>
<line x1="1099.82" y1="560" x2="1099.82" y2="840" stroke="#eef3f1" stroke-width="1" />
      <text x="1099.82" y="868" text-anchor="middle" fill="#5b6b68" font-size="11">26-01-07</text>
<line x1="1292.00" y1="560" x2="1292.00" y2="840" stroke="#eef3f1" stroke-width="1" />
      <text x="1292.00" y="868" text-anchor="middle" fill="#5b6b68" font-size="11">26-03-23</text>
    <line x1="1091.64" y1="560" x2="1091.64" y2="840" stroke="#f59e0b" stroke-width="1.4" stroke-dasharray="4 4" />
       <text x="1097.64" y="552" fill="#a16207" font-size="11">验证起点</text>
    <path d="M 98.00 659.15 L 102.09 787.55 L 106.18 805.11 L 110.27 750.56 L 114.36 770.75 L 118.45 787.44 L 122.53 836.87 L 126.62 820.79 L 130.71 753.72 L 134.80 702.08 L 138.89 808.90 L 142.98 763.15 L 147.07 800.64 L 151.16 772.26 L 155.25 748.73 L 159.34 759.15 L 163.42 704.93 L 167.51 783.17 L 171.60 839.64 L 175.69 763.71 L 179.78 832.09 L 183.87 753.01 L 187.96 759.36 L 192.05 826.49 L 196.14 753.33 L 200.23 741.71 L 204.32 808.27 L 208.40 739.68 L 212.49 818.90 L 216.58 797.19 L 220.67 839.18 L 224.76 766.03 L 228.85 696.93 L 232.94 792.18 L 237.03 780.09 L 241.12 834.10 L 245.21 810.80 L 249.29 742.17 L 253.38 798.30 L 257.47 801.56 L 261.56 766.38 L 265.65 784.55 L 269.74 770.37 L 273.83 786.13 L 277.92 723.91 L 282.01 763.32 L 286.10 832.24 L 290.18 814.26 L 294.27 755.81 L 298.36 720.41 L 302.45 811.11 L 306.54 796.07 L 310.63 757.05 L 314.72 820.30 L 318.81 836.79 L 322.90 743.30 L 326.99 793.67 L 331.08 804.33 L 335.16 834.89 L 339.25 686.86 L 343.34 742.93 L 347.43 756.87 L 351.52 768.85 L 355.61 736.77 L 359.70 729.33 L 363.79 740.20 L 367.88 774.47 L 371.97 715.07 L 376.05 836.13 L 380.14 834.29 L 384.23 773.11 L 388.32 770.98 L 392.41 806.41 L 396.50 748.45 L 400.59 794.94 L 404.68 727.92 L 408.77 817.91 L 412.86 825.15 L 416.95 643.25 L 421.03 826.64 L 425.12 830.94 L 429.21 713.92 L 433.30 758.27 L 437.39 822.60 L 441.48 829.44 L 445.57 716.00 L 449.66 822.08 L 453.75 781.79 L 457.84 785.39 L 461.92 816.13 L 466.01 697.35 L 470.10 743.04 L 474.19 822.30 L 478.28 801.30 L 482.37 790.63 L 486.46 750.04 L 490.55 714.29 L 494.64 800.82 L 498.73 745.51 L 502.82 776.56 L 506.90 805.35 L 510.99 789.18 L 515.08 736.75 L 519.17 758.67 L 523.26 832.64 L 527.35 723.39 L 531.44 825.14 L 535.53 797.32 L 539.62 815.69 L 543.71 678.22 L 547.79 771.11 L 551.88 814.87 L 555.97 695.46 L 560.06 808.36 L 564.15 785.21 L 568.24 785.37 L 572.33 771.28 L 576.42 800.05 L 580.51 719.05 L 584.60 773.03 L 588.68 779.00 L 592.77 766.60 L 596.86 815.28 L 600.95 779.02 L 605.04 791.19 L 609.13 777.07 L 613.22 785.57 L 617.31 813.29 L 621.40 825.09 L 625.49 833.11 L 629.58 818.70 L 633.66 721.77 L 637.75 788.60 L 641.84 822.59 L 645.93 744.84 L 650.02 835.82 L 654.11 836.76 L 658.20 806.54 L 662.29 729.60 L 666.38 734.17 L 670.47 793.80 L 674.55 782.44 L 678.64 742.72 L 682.73 779.34 L 686.82 807.66 L 690.91 789.03 L 695.00 803.93 L 699.09 815.19 L 703.18 789.71 L 707.27 685.42 L 711.36 758.77 L 715.45 788.61 L 719.53 839.90 L 723.62 814.87 L 727.71 798.94 L 731.80 759.07 L 735.89 797.46 L 739.98 817.29 L 744.07 832.45 L 748.16 768.63 L 752.25 817.39 L 756.34 745.78 L 760.42 723.20 L 764.51 621.45 L 768.60 835.67 L 772.69 825.33 L 776.78 730.63 L 780.87 708.57 L 784.96 828.12 L 789.05 791.70 L 793.14 784.82 L 797.23 765.47 L 801.32 781.84 L 805.40 770.33 L 809.49 742.64 L 813.58 761.26 L 817.67 801.81 L 821.76 755.21 L 825.85 768.40 L 829.94 777.87 L 834.03 637.05 L 838.12 837.36 L 842.21 736.77 L 846.29 769.41 L 850.38 830.81 L 854.47 752.94 L 858.56 780.27 L 862.65 662.45 L 866.74 730.55 L 870.83 734.48 L 874.92 705.66 L 879.01 781.15 L 883.10 718.08 L 887.18 831.70 L 891.27 782.59 L 895.36 798.34 L 899.45 769.43 L 903.54 837.34 L 907.63 760.36 L 911.72 746.45 L 915.81 777.39 L 919.90 731.62 L 923.99 811.21 L 928.08 796.58 L 932.16 815.84 L 936.25 822.46 L 940.34 743.70 L 944.43 729.37 L 948.52 754.34 L 952.61 825.77 L 956.70 793.25 L 960.79 653.57 L 964.88 780.73 L 968.97 720.01 L 973.05 701.38 L 977.14 801.41 L 981.23 685.19 L 985.32 830.44 L 989.41 822.41 L 993.50 702.17 L 997.59 782.92 L 1001.68 720.37 L 1005.77 755.26 L 1009.86 839.99 L 1013.95 776.48 L 1018.03 739.43 L 1022.12 745.83 L 1026.21 794.60 L 1030.30 674.72 L 1034.39 653.03 L 1038.48 681.00 L 1042.57 753.79 L 1046.66 782.14 L 1050.75 771.41 L 1054.84 728.34 L 1058.92 808.12 L 1063.01 838.94 L 1067.10 748.40 L 1071.19 747.81 L 1075.28 762.50 L 1079.37 746.00 L 1083.46 803.67 L 1087.55 835.48 L 1091.64 735.35 L 1095.73 799.97 L 1099.82 742.03 L 1103.90 832.16 L 1107.99 783.04 L 1112.08 744.54 L 1116.17 778.95 L 1120.26 723.50 L 1124.35 823.44 L 1128.44 834.57 L 1132.53 783.92 L 1136.62 759.93 L 1140.71 766.50 L 1144.79 790.68 L 1148.88 764.87 L 1152.97 721.47 L 1157.06 815.32 L 1161.15 769.15 L 1165.24 790.15 L 1169.33 738.52 L 1173.42 832.86 L 1177.51 794.00 L 1181.60 828.05 L 1185.68 771.29 L 1189.77 832.60 L 1193.86 838.78 L 1197.95 838.21 L 1202.04 820.09 L 1206.13 694.31 L 1210.22 732.14 L 1214.31 696.79 L 1218.40 762.99 L 1222.49 791.98 L 1226.58 799.04 L 1230.66 766.88 L 1234.75 790.70 L 1238.84 786.32 L 1242.93 767.19 L 1247.02 787.74 L 1251.11 747.91 L 1255.20 702.42 L 1259.29 806.01 L 1263.38 760.88 L 1267.47 590.00 L 1271.55 713.10 L 1275.64 804.29 L 1279.73 716.72 L 1283.82 774.34 L 1287.91 791.91 L 1292.00 832.28" fill="none" stroke="#1d4ed8" stroke-width="2"  />
  </g>
</svg>