<?xml version="1.0" encoding="UTF-8"?>
<svg xmlns="http://www.w3.org/2000/svg" width="1360" height="980" viewBox="0 0 1360 980">
  <defs>
    <linearGradient id="bg" x1="0" y1="0" x2="1" y2="1">
      <stop offset="0%" stop-color="#f4efe6" />
      <stop offset="100%" stop-color="#eef5f2" />
    </linearGradient>
  </defs>
  <rect x="0" y="0" width="1360" height="980" fill="url(#bg)" />
  <text x="46" y="36" fill="#1f2937" font-size="31" font-weight="700">501011 离线研究图（持仓逐日估值版）</text>
  <text x="46" y="66" fill="#5b6b68" font-size="13">历史前十大持仓 + 持仓逐日涨跌幅 + USDCNY；双目标 lambda=0.10；披露期数 36；覆盖率均值 99.5%</text>
  <g>
    <text x="54" y="110" fill="#1f2937" font-size="16" font-weight="700">A. 净值拟合（同日对齐，无平移）</text>
    <line x1="98" y1="112" x2="124" y2="112" stroke="#0f766e" stroke-width="2"  />
      <text x="130" y="116" fill="#24312e" font-size="12">真实净值</text>
<line x1="313" y1="112" x2="339" y2="112" stroke="#1d4ed8" stroke-width="2"  />
      <text x="345" y="116" fill="#24312e" font-size="12">持仓分段估值</text>
<line x1="528" y1="112" x2="554" y2="112" stroke="#b45309" stroke-width="2" stroke-dasharray="6 4" />
      <text x="560" y="116" fill="#24312e" font-size="12">持仓双目标估值</text>
    <line x1="98" y1="132.00" x2="1292" y2="132.00" stroke="#d7e3df" stroke-width="1" />
      <text x="90" y="136.00" text-anchor="end" fill="#5b6b68" font-size="11">1.213</text>
<line x1="98" y1="209.50" x2="1292" y2="209.50" stroke="#d7e3df" stroke-width="1" />
      <text x="90" y="213.50" text-anchor="end" fill="#5b6b68" font-size="11">1.169</text>
<line x1="98" y1="287.00" x2="1292" y2="287.00" stroke="#d7e3df" stroke-width="1" />
      <text x="90" y="291.00" text-anchor="end" fill="#5b6b68" font-size="11">1.126</text>
<line x1="98" y1="364.50" x2="1292" y2="364.50" stroke="#d7e3df" stroke-width="1" />
      <text x="90" y="368.50" text-anchor="end" fill="#5b6b68" font-size="11">1.082</text>
<line x1="98" y1="442.00" x2="1292" y2="442.00" stroke="#d7e3df" stroke-width="1" />
      <text x="90" y="446.00" text-anchor="end" fill="#5b6b68" font-size="11">1.039</text>
    <line x1="98.00" y1="132" x2="98.00" y2="442" stroke="#eef3f1" stroke-width="1" />
      <text x="98.00" y="470" text-anchor="middle" fill="#5b6b68" font-size="11">25-01-02</text>
<line x1="290.04" y1="132" x2="290.04" y2="442" stroke="#eef3f1" stroke-width="1" />
      <text x="290.04" y="470" text-anchor="middle" fill="#5b6b68" font-size="11">25-03-17</text>
<line x1="482.08" y1="132" x2="482.08" y2="442" stroke="#eef3f1" stroke-width="1" />
      <text x="482.08" y="470" text-anchor="middle" fill="#5b6b68" font-size="11">25-05-26</text>
<line x1="695.00" y1="132" x2="695.00" y2="442" stroke="#eef3f1" stroke-width="1" />
      <text x="695.00" y="470" text-anchor="middle" fill="#5b6b68" font-size="11">25-08-06</text>
<line x1="907.92" y1="132" x2="907.92" y2="442" stroke="#eef3f1" stroke-width="1" />
      <text x="907.92" y="470" text-anchor="middle" fill="#5b6b68" font-size="11">25-10-24</text>
<line x1="1099.96" y1="132" x2="1099.96" y2="442" stroke="#eef3f1" stroke-width="1" />
      <text x="1099.96" y="470" text-anchor="middle" fill="#5b6b68" font-size="11">25-12-29</text>
<line x1="1292.00" y1="132" x2="1292.00" y2="442" stroke="#eef3f1" stroke-width="1" />
      <text x="1292.00" y="470" text-anchor="middle" fill="#5b6b68" font-size="11">26-03-13</text>
    <line x1="1112.48" y1="132" x2="1112.48" y2="442" stroke="#f59e0b" stroke-width="1.4" stroke-dasharray="4 4" />
       <text x="1118.48" y="124" fill="#a16207" font-size="11">验证起点</text>
    <path d="M 98.00 306.45 L 102.17 321.94 L 106.35 273.14 L 110.52 303.95 L 114.70 314.82 L 118.87 327.82 L 123.05 365.23 L 127.22 368.97 L 131.40 324.26 L 135.57 338.33 L 139.75 342.25 L 143.92 328.00 L 148.10 332.10 L 152.27 338.87 L 156.45 358.64 L 160.62 361.67 L 164.80 364.34 L 168.97 356.32 L 173.15 345.46 L 177.32 337.08 L 181.50 326.57 L 185.67 324.08 L 189.85 333.52 L 194.02 330.67 L 198.20 330.85 L 202.37 313.22 L 206.55 331.56 L 210.72 358.64 L 214.90 358.28 L 219.07 360.60 L 223.24 372.00 L 227.42 375.20 L 231.59 397.29 L 235.77 382.15 L 239.94 373.60 L 244.12 384.29 L 248.29 368.97 L 252.47 368.43 L 256.64 381.97 L 260.82 374.85 L 264.99 381.44 L 269.17 367.01 L 273.34 359.35 L 277.52 364.34 L 281.69 362.91 L 285.87 330.14 L 290.04 331.38 L 294.22 335.48 L 298.39 336.19 L 302.57 339.40 L 306.74 336.37 L 310.92 332.63 L 315.09 337.80 L 319.27 343.32 L 323.44 328.53 L 327.62 342.07 L 331.79 355.97 L 335.97 315.00 L 340.14 323.72 L 344.31 310.90 L 348.49 432.20 L 352.66 392.13 L 356.84 373.24 L 361.01 355.43 L 365.19 365.41 L 369.36 361.84 L 373.54 343.32 L 377.71 348.48 L 381.89 350.09 L 386.06 358.82 L 390.24 356.86 L 394.41 336.55 L 398.59 360.78 L 402.76 352.23 L 406.94 366.65 L 411.11 386.43 L 415.29 390.34 L 419.46 382.69 L 423.64 374.13 L 427.81 361.49 L 431.99 359.71 L 436.16 356.86 L 440.34 357.39 L 444.51 349.02 L 448.69 343.68 L 452.86 343.50 L 457.03 323.37 L 461.21 334.23 L 465.38 315.00 L 469.56 312.68 L 473.73 328.71 L 477.91 323.01 L 482.08 342.07 L 486.26 325.86 L 490.43 328.36 L 494.61 313.22 L 498.78 304.31 L 502.96 274.56 L 507.13 275.99 L 511.31 296.12 L 515.48 298.79 L 519.66 275.27 L 523.83 272.96 L 528.01 267.26 L 532.18 272.60 L 536.36 305.20 L 540.53 317.49 L 544.71 326.75 L 548.88 340.65 L 553.06 355.97 L 557.23 352.58 L 561.41 355.08 L 565.58 335.84 L 569.76 327.29 L 573.93 333.17 L 578.10 331.56 L 582.28 332.81 L 586.45 321.77 L 590.63 330.49 L 594.80 307.69 L 598.98 309.30 L 603.15 316.78 L 607.33 311.61 L 611.50 314.11 L 615.68 307.34 L 619.85 298.61 L 624.03 295.22 L 628.20 313.04 L 632.38 288.99 L 636.55 274.92 L 640.73 271.36 L 644.90 267.44 L 649.08 249.98 L 653.25 254.26 L 657.43 231.10 L 661.60 246.95 L 665.78 241.43 L 669.95 220.59 L 674.13 202.95 L 678.30 223.08 L 682.48 191.73 L 686.65 186.74 L 690.83 190.66 L 695.00 210.26 L 699.17 226.29 L 703.35 219.52 L 707.52 195.29 L 711.70 201.35 L 715.87 200.64 L 720.05 213.11 L 724.22 199.75 L 728.40 175.17 L 732.57 170.71 L 736.75 158.07 L 740.92 151.83 L 745.10 148.98 L 749.27 142.75 L 753.45 155.04 L 757.62 202.06 L 761.80 208.65 L 765.97 200.82 L 770.15 188.88 L 774.32 205.27 L 778.50 230.03 L 782.67 245.17 L 786.85 225.75 L 791.02 201.89 L 795.20 217.38 L 799.37 223.97 L 803.55 212.93 L 807.72 226.47 L 811.90 237.15 L 816.07 237.87 L 820.24 241.25 L 824.42 255.32 L 828.59 268.68 L 832.77 279.91 L 836.94 299.32 L 841.12 278.12 L 845.29 291.48 L 849.47 296.83 L 853.64 288.10 L 857.82 293.62 L 861.99 283.82 L 866.17 266.90 L 870.34 284.54 L 874.52 276.52 L 878.69 258.53 L 882.87 244.64 L 887.04 262.63 L 891.22 269.57 L 895.39 265.83 L 899.57 258.71 L 903.74 266.19 L 907.92 277.23 L 912.09 281.86 L 916.27 293.62 L 920.44 284.89 L 924.62 300.39 L 928.79 272.42 L 932.97 264.94 L 937.14 278.48 L 941.31 277.06 L 945.49 274.92 L 949.66 250.51 L 953.84 222.19 L 958.01 204.91 L 962.19 197.08 L 966.36 190.31 L 970.54 179.98 L 974.71 211.50 L 978.89 233.77 L 983.06 257.82 L 987.24 259.78 L 991.41 297.90 L 995.59 287.21 L 999.76 267.26 L 1003.94 264.41 L 1008.11 264.59 L 1012.29 282.40 L 1016.46 263.87 L 1020.64 275.63 L 1024.81 261.38 L 1028.99 275.27 L 1033.16 274.38 L 1037.34 280.44 L 1041.51 301.82 L 1045.69 295.40 L 1049.86 300.21 L 1054.03 303.60 L 1058.21 307.34 L 1062.38 330.67 L 1066.56 320.70 L 1070.73 315.71 L 1074.91 305.91 L 1079.08 310.01 L 1083.26 320.16 L 1087.43 317.31 L 1091.61 312.15 L 1095.78 313.75 L 1099.96 331.03 L 1104.13 335.13 L 1108.31 342.07 L 1112.48 307.87 L 1116.66 295.58 L 1120.83 305.20 L 1125.01 303.95 L 1129.18 294.51 L 1133.36 292.55 L 1137.53 293.44 L 1141.71 304.31 L 1145.88 307.69 L 1150.06 318.38 L 1154.23 315.17 L 1158.41 302.53 L 1162.58 313.93 L 1166.76 315.35 L 1170.93 307.87 L 1175.10 285.43 L 1179.28 315.00 L 1183.45 338.69 L 1187.63 317.13 L 1191.80 337.44 L 1195.98 359.53 L 1200.15 345.28 L 1204.33 320.34 L 1208.50 299.50 L 1212.68 293.98 L 1216.85 286.67 L 1221.03 299.68 L 1225.20 301.82 L 1229.38 320.70 L 1233.55 329.96 L 1237.73 321.41 L 1241.90 313.57 L 1246.08 328.18 L 1250.25 324.79 L 1254.43 348.31 L 1258.60 366.12 L 1262.78 390.17 L 1266.95 383.75 L 1271.13 359.17 L 1275.30 367.37 L 1279.48 350.62 L 1283.65 352.76 L 1287.83 360.60 L 1292.00 364.52" fill="none" stroke="#0f766e" stroke-width="2"  />
<path d="M 98.00 324.00 L 102.17 312.50 L 106.35 260.90 L 110.52 300.39 L 114.70 310.16 L 118.87 324.44 L 123.05 367.00 L 127.22 367.06 L 131.40 325.95 L 135.57 332.29 L 139.75 341.52 L 143.92 335.96 L 148.10 335.37 L 152.27 335.04 L 156.45 370.74 L 160.62 359.71 L 164.80 366.49 L 168.97 360.86 L 173.15 333.21 L 177.32 339.72 L 181.50 333.60 L 185.67 323.09 L 189.85 329.32 L 194.02 332.23 L 198.20 331.60 L 202.37 327.45 L 206.55 329.49 L 210.72 354.31 L 214.90 357.81 L 219.07 362.91 L 223.24 366.39 L 227.42 376.27 L 231.59 392.25 L 235.77 391.95 L 239.94 378.09 L 244.12 377.29 L 248.29 378.13 L 252.47 369.95 L 256.64 381.28 L 260.82 378.19 L 264.99 377.74 L 269.17 377.42 L 273.34 364.18 L 277.52 360.76 L 281.69 361.85 L 285.87 337.97 L 290.04 331.08 L 294.22 333.57 L 298.39 333.44 L 302.57 338.43 L 306.74 338.06 L 310.92 333.12 L 315.09 330.74 L 319.27 339.67 L 323.44 338.15 L 327.62 332.46 L 331.79 357.53 L 335.97 317.48 L 340.14 321.11 L 344.31 309.03 L 348.49 415.88 L 352.66 403.10 L 356.84 375.89 L 361.01 369.09 L 365.19 369.85 L 369.36 364.43 L 373.54 355.17 L 377.71 346.71 L 381.89 351.38 L 386.06 350.65 L 390.24 357.88 L 394.41 315.39 L 398.59 366.00 L 402.76 359.59 L 406.94 362.95 L 411.11 390.54 L 415.29 391.04 L 419.46 377.04 L 423.64 383.81 L 427.81 367.16 L 431.99 356.63 L 436.16 358.36 L 440.34 357.17 L 444.51 352.22 L 448.69 345.31 L 452.86 344.81 L 457.03 326.73 L 461.21 328.87 L 465.38 318.36 L 469.56 315.56 L 473.73 317.89 L 477.91 321.69 L 482.08 339.35 L 486.26 337.98 L 490.43 328.08 L 494.61 307.54 L 498.78 313.51 L 502.96 291.90 L 507.13 276.68 L 511.31 281.10 L 515.48 293.30 L 519.66 273.48 L 523.83 268.85 L 528.01 268.82 L 532.18 280.96 L 536.36 289.84 L 540.53 310.75 L 544.71 323.28 L 548.88 330.41 L 553.06 346.41 L 557.23 351.21 L 561.41 355.97 L 565.58 350.02 L 569.76 332.13 L 573.93 330.30 L 578.10 333.13 L 582.28 333.79 L 586.45 330.03 L 590.63 327.90 L 594.80 311.70 L 598.98 307.03 L 603.15 312.50 L 607.33 313.70 L 611.50 312.99 L 615.68 312.19 L 619.85 303.64 L 624.03 297.90 L 628.20 297.07 L 632.38 295.99 L 636.55 273.38 L 640.73 271.11 L 644.90 273.29 L 649.08 253.80 L 653.25 251.97 L 657.43 240.22 L 661.60 239.00 L 665.78 236.52 L 669.95 223.23 L 674.13 204.70 L 678.30 219.30 L 682.48 193.64 L 686.65 189.57 L 690.83 187.25 L 695.00 196.56 L 699.17 218.23 L 703.35 221.30 L 707.52 202.45 L 711.70 197.02 L 715.87 202.42 L 720.05 203.24 L 724.22 191.76 L 728.40 177.27 L 732.57 174.07 L 736.75 171.25 L 740.92 160.29 L 745.10 144.57 L 749.27 143.64 L 753.45 160.60 L 757.62 197.27 L 761.80 201.24 L 765.97 192.25 L 770.15 195.74 L 774.32 194.03 L 778.50 236.88 L 782.67 256.63 L 786.85 223.84 L 791.02 203.54 L 795.20 208.60 L 799.37 220.89 L 803.55 220.08 L 807.72 219.93 L 811.90 229.73 L 816.07 241.38 L 820.24 242.20 L 824.42 245.49 L 828.59 259.77 L 832.77 273.50 L 836.94 304.35 L 841.12 281.54 L 845.29 285.54 L 849.47 294.10 L 853.64 291.99 L 857.82 291.20 L 861.99 289.49 L 866.17 277.86 L 870.34 272.01 L 874.52 282.17 L 878.69 261.21 L 882.87 244.15 L 887.04 250.28 L 891.22 248.79 L 895.39 269.21 L 899.57 252.25 L 903.74 267.45 L 907.92 272.46 L 912.09 278.05 L 916.27 287.18 L 920.44 285.62 L 924.62 289.54 L 928.79 261.07 L 932.97 269.15 L 937.14 274.33 L 941.31 277.92 L 945.49 275.38 L 949.66 239.49 L 953.84 235.65 L 958.01 208.41 L 962.19 200.93 L 966.36 195.45 L 970.54 184.48 L 974.71 206.92 L 978.89 233.43 L 983.06 251.08 L 987.24 258.82 L 991.41 289.12 L 995.59 295.36 L 999.76 271.97 L 1003.94 271.75 L 1008.11 263.69 L 1012.29 284.42 L 1016.46 276.25 L 1020.64 275.33 L 1024.81 272.08 L 1028.99 270.93 L 1033.16 274.68 L 1037.34 277.50 L 1041.51 294.97 L 1045.69 304.21 L 1049.86 297.52 L 1054.03 299.94 L 1058.21 300.64 L 1062.38 327.07 L 1066.56 325.09 L 1070.73 322.66 L 1074.91 313.66 L 1079.08 306.72 L 1083.26 312.11 L 1087.43 320.52 L 1091.61 313.63 L 1095.78 309.13 L 1099.96 320.02 L 1104.13 334.30 L 1108.31 338.11 L 1112.48 308.03 L 1116.66 301.79 L 1120.83 297.48 L 1125.01 308.80 L 1129.18 298.12 L 1133.36 297.37 L 1137.53 295.64 L 1141.71 300.44 L 1145.88 306.08 L 1150.06 309.01 L 1154.23 318.83 L 1158.41 307.35 L 1162.58 308.63 L 1166.76 315.41 L 1170.93 311.77 L 1175.10 281.58 L 1179.28 316.56 L 1183.45 340.92 L 1187.63 338.77 L 1191.80 329.47 L 1195.98 356.55 L 1200.15 354.66 L 1204.33 321.66 L 1208.50 301.26 L 1212.68 295.50 L 1216.85 288.11 L 1221.03 299.81 L 1225.20 300.11 L 1229.38 316.04 L 1233.55 323.05 L 1237.73 328.28 L 1241.90 317.00 L 1246.08 331.90 L 1250.25 325.37 L 1254.43 338.22 L 1258.60 360.05 L 1262.78 373.03 L 1266.95 388.87 L 1271.13 363.55 L 1275.30 362.36 L 1279.48 362.03 L 1283.65 350.64 L 1287.83 356.92 L 1292.00 362.80" fill="none" stroke="#1d4ed8" stroke-width="2"  />
<path d="M 98.00 263.66 L 102.17 307.56 L 106.35 322.28 L 110.52 274.40 L 114.70 305.05 L 118.87 315.96 L 123.05 329.19 L 127.22 366.22 L 131.40 369.38 L 135.57 325.37 L 139.75 339.34 L 143.92 343.04 L 148.10 329.09 L 152.27 333.05 L 156.45 340.17 L 160.62 359.61 L 164.80 362.64 L 168.97 365.22 L 173.15 356.99 L 177.32 346.28 L 181.50 337.93 L 185.67 327.45 L 189.85 325.15 L 194.02 334.44 L 198.20 331.61 L 202.37 331.65 L 206.55 314.42 L 210.72 332.83 L 214.90 359.57 L 219.07 359.29 L 223.24 361.67 L 227.42 373.03 L 231.59 376.42 L 235.77 398.05 L 239.94 382.98 L 244.12 374.62 L 248.29 385.00 L 252.47 369.89 L 256.64 369.55 L 260.82 382.78 L 264.99 375.82 L 269.17 382.28 L 273.34 367.82 L 277.52 360.34 L 281.69 365.20 L 285.87 363.47 L 290.04 331.15 L 294.22 332.37 L 298.39 336.39 L 302.57 337.21 L 306.74 340.32 L 310.92 337.25 L 315.09 333.53 L 319.27 338.80 L 323.44 344.10 L 327.62 329.58 L 331.79 343.28 L 335.97 356.40 L 340.14 316.10 L 344.31 324.48 L 348.49 313.21 L 352.66 432.70 L 356.84 392.80 L 361.01 374.01 L 365.19 356.53 L 369.36 366.31 L 373.54 362.61 L 377.71 344.28 L 381.89 349.49 L 386.06 351.04 L 390.24 359.72 L 394.41 357.34 L 398.59 337.84 L 402.76 361.68 L 406.94 353.34 L 411.11 367.94 L 415.29 387.41 L 419.46 391.05 L 423.64 383.54 L 427.81 374.88 L 431.99 362.31 L 436.16 360.60 L 440.34 357.76 L 444.51 358.15 L 448.69 349.85 L 452.86 344.66 L 457.03 344.12 L 461.21 324.51 L 465.38 334.90 L 469.56 315.95 L 473.73 313.81 L 477.91 329.41 L 482.08 324.25 L 486.26 342.89 L 490.43 326.87 L 494.61 328.94 L 498.78 314.19 L 502.96 305.00 L 507.13 275.61 L 511.31 277.12 L 515.48 296.99 L 519.66 299.38 L 523.83 276.05 L 528.01 273.77 L 532.18 268.52 L 536.36 273.94 L 540.53 306.30 L 544.71 318.65 L 548.88 327.83 L 553.06 341.76 L 557.23 356.71 L 561.41 353.59 L 565.58 355.79 L 569.76 336.65 L 573.93 328.31 L 578.10 334.10 L 582.28 332.54 L 586.45 333.65 L 590.63 322.90 L 594.80 331.12 L 598.98 308.63 L 603.15 310.37 L 607.33 317.63 L 611.50 312.62 L 615.68 314.98 L 619.85 308.16 L 624.03 299.52 L 628.20 296.25 L 632.38 313.73 L 636.55 289.71 L 640.73 275.78 L 644.90 272.38 L 649.08 268.14 L 653.25 250.99 L 657.43 254.98 L 661.60 232.32 L 665.78 247.71 L 669.95 242.13 L 674.13 221.34 L 678.30 204.26 L 682.48 223.66 L 686.65 192.62 L 690.83 187.79 L 695.00 191.84 L 699.17 211.44 L 703.35 227.15 L 707.52 220.21 L 711.70 196.35 L 715.87 202.35 L 720.05 201.69 L 724.22 213.87 L 728.40 200.39 L 732.57 176.15 L 736.75 171.66 L 740.92 159.10 L 745.10 152.71 L 749.27 149.89 L 753.45 144.02 L 757.62 156.59 L 761.80 203.06 L 765.97 209.43 L 770.15 201.71 L 774.32 190.02 L 778.50 206.65 L 782.67 231.35 L 786.85 245.83 L 791.02 226.40 L 795.20 203.03 L 799.37 218.46 L 803.55 224.87 L 807.72 214.09 L 811.90 227.64 L 816.07 238.22 L 820.24 238.94 L 824.42 242.35 L 828.59 256.43 L 832.77 269.87 L 836.94 281.19 L 841.12 300.02 L 845.29 279.27 L 849.47 292.52 L 853.64 297.63 L 857.82 289.13 L 861.99 294.49 L 866.17 284.62 L 870.34 268.12 L 874.52 285.44 L 878.69 277.23 L 882.87 259.28 L 887.04 245.75 L 891.22 263.61 L 895.39 270.52 L 899.57 266.64 L 903.74 259.87 L 907.92 267.30 L 912.09 278.20 L 916.27 282.94 L 920.44 294.38 L 924.62 285.98 L 928.79 300.86 L 932.97 273.25 L 937.14 266.13 L 941.31 279.42 L 945.49 277.95 L 949.66 275.39 L 953.84 251.20 L 958.01 222.92 L 962.19 205.77 L 966.36 197.98 L 970.54 191.10 L 974.71 181.39 L 978.89 212.87 L 983.06 235.05 L 987.24 258.81 L 991.41 261.16 L 995.59 298.74 L 999.76 287.86 L 1003.94 268.33 L 1008.11 265.35 L 1012.29 265.90 L 1016.46 283.19 L 1020.64 265.07 L 1024.81 276.45 L 1028.99 262.59 L 1033.16 276.21 L 1037.34 275.47 L 1041.51 281.68 L 1045.69 302.69 L 1049.86 296.41 L 1054.03 301.15 L 1058.21 304.50 L 1062.38 308.63 L 1066.56 331.42 L 1070.73 321.69 L 1074.91 316.58 L 1079.08 306.91 L 1083.26 311.00 L 1087.43 321.09 L 1091.61 318.15 L 1095.78 313.01 L 1099.96 314.89 L 1104.13 332.04 L 1108.31 336.15 L 1112.48 342.53 L 1116.66 308.63 L 1120.83 296.61 L 1125.01 306.23 L 1129.18 304.74 L 1133.36 295.52 L 1137.53 293.60 L 1141.71 294.60 L 1145.88 305.30 L 1150.06 308.69 L 1154.23 319.33 L 1158.41 315.93 L 1162.58 303.65 L 1166.76 314.91 L 1170.93 316.25 L 1175.10 308.49 L 1179.28 286.82 L 1183.45 316.29 L 1187.63 339.37 L 1191.80 318.40 L 1195.98 338.70 L 1200.15 360.32 L 1204.33 345.88 L 1208.50 320.97 L 1212.68 300.35 L 1216.85 294.79 L 1221.03 287.87 L 1225.20 300.65 L 1229.38 303.00 L 1233.55 321.75 L 1237.73 330.83 L 1241.90 322.22 L 1246.08 314.77 L 1250.25 329.07 L 1254.43 326.01 L 1258.60 349.50 L 1262.78 367.25 L 1266.95 391.02 L 1271.13 384.41 L 1275.30 360.21 L 1279.48 368.08 L 1283.65 351.55 L 1287.83 353.78 L 1292.00 361.62" fill="none" stroke="#b45309" stroke-width="2" stroke-dasharray="6 4" />
  </g>
  <g>
    <text x="54" y="538" fill="#1f2937" font-size="16" font-weight="700">B. 绝对误差（越低越好）</text>
    <line x1="98" y1="540" x2="124" y2="540" stroke="#1d4ed8" stroke-width="2"  />
      <text x="130" y="544" fill="#24312e" font-size="12">持仓分段误差</text>
<line x1="313" y1="540" x2="339" y2="540" stroke="#b45309" stroke-width="2" stroke-dasharray="6 4" />
      <text x="345" y="544" fill="#24312e" font-size="12">持仓双目标误差</text>
    <line x1="98" y1="560.00" x2="1292" y2="560.00" stroke="#d7e3df" stroke-width="1" />
      <text x="90" y="564.00" text-anchor="end" fill="#5b6b68" font-size="11">7.17%</text>
<line x1="98" y1="630.00" x2="1292" y2="630.00" stroke="#d7e3df" stroke-width="1" />
      <text x="90" y="634.00" text-anchor="end" fill="#5b6b68" font-size="11">5.37%</text>
<line x1="98" y1="700.00" x2="1292" y2="700.00" stroke="#d7e3df" stroke-width="1" />
      <text x="90" y="704.00" text-anchor="end" fill="#5b6b68" font-size="11">3.58%</text>
<line x1="98" y1="770.00" x2="1292" y2="770.00" stroke="#d7e3df" stroke-width="1" />
      <text x="90" y="774.00" text-anchor="end" fill="#5b6b68" font-size="11">1.79%</text>
<line x1="98" y1="840.00" x2="1292" y2="840.00" stroke="#d7e3df" stroke-width="1" />
      <text x="90" y="844.00" text-anchor="end" fill="#5b6b68" font-size="11">0.00%</text>
    <line x1="98.00" y1="560" x2="98.00" y2="840" stroke="#eef3f1" stroke-width="1" />
      <text x="98.00" y="868" text-anchor="middle" fill="#5b6b68" font-size="11">25-01-02</text>
<line x1="290.04" y1="560" x2="290.04" y2="840" stroke="#eef3f1" stroke-width="1" />
      <text x="290.04" y="868" text-anchor="middle" fill="#5b6b68" font-size="11">25-03-17</text>
<line x1="482.08" y1="560" x2="482.08" y2="840" stroke="#eef3f1" stroke-width="1" />
      <text x="482.08" y="868" text-anchor="middle" fill="#5b6b68" font-size="11">25-05-26</text>
<line x1="695.00" y1="560" x2="695.00" y2="840" stroke="#eef3f1" stroke-width="1" />
      <text x="695.00" y="868" text-anchor="middle" fill="#5b6b68" font-size="11">25-08-06</text>
<line x1="907.92" y1="560" x2="907.92" y2="840" stroke="#eef3f1" stroke-width="1" />
      <text x="907.92" y="868" text-anchor="middle" fill="#5b6b68" font-size="11">25-10-24</text>
<line x1="1099.96" y1="560" x2="1099.96" y2="840" stroke="#eef3f1" stroke-width="1" />
      <text x="1099.96" y="868" text-anchor="middle" fill="#5b6b68" font-size="11">25-12-29</text>
<line x1="1292.00" y1="560" x2="1292.00" y2="840" stroke="#eef3f1" stroke-width="1" />
      <text x="1292.00" y="868" text-anchor="middle" fill="#5b6b68" font-size="11">26-03-13</text>
    <line x1="1112.48" y1="560" x2="1112.48" y2="840" stroke="#f59e0b" stroke-width="1.4" stroke-dasharray="4 4" />
       <text x="1118.48" y="552" fill="#a16207" font-size="11">验证起点</text>
    <path d="M 98.00 805.46 L 102.17 821.27 L 106.35 816.32 L 110.52 833.01 L 114.70 830.80 L 118.87 833.27 L 123.05 836.40 L 127.22 836.12 L 131.40 836.64 L 135.57 827.92 L 139.75 838.53 L 143.92 824.17 L 148.10 833.47 L 152.27 832.35 L 156.45 815.55 L 160.62 836.04 L 164.80 835.64 L 168.97 830.84 L 173.15 815.42 L 177.32 834.73 L 181.50 826.03 L 185.67 838.04 L 189.85 831.62 L 194.02 836.90 L 198.20 838.50 L 202.37 811.89 L 206.55 835.87 L 210.72 831.25 L 214.90 839.05 L 219.07 835.33 L 223.24 828.59 L 227.42 837.82 L 231.59 829.61 L 235.77 819.94 L 239.94 830.85 L 244.12 825.67 L 248.29 821.39 L 252.47 836.92 L 256.64 838.59 L 260.82 833.19 L 264.99 832.44 L 269.17 818.86 L 273.34 830.23 L 277.52 832.75 L 281.69 837.85 L 285.87 824.40 L 290.04 839.40 L 294.22 836.19 L 298.39 834.49 L 302.57 838.07 L 306.74 836.63 L 310.92 839.02 L 315.09 825.89 L 319.27 832.69 L 323.44 820.86 L 327.62 820.74 L 331.79 836.84 L 335.97 835.09 L 340.14 834.80 L 344.31 836.32 L 348.49 805.71 L 352.66 817.43 L 356.84 834.62 L 361.01 812.44 L 365.19 830.99 L 369.36 834.76 L 373.54 816.24 L 377.71 836.43 L 381.89 837.39 L 386.06 823.49 L 390.24 837.94 L 394.41 797.72 L 398.59 829.42 L 402.76 825.17 L 406.94 832.47 L 411.11 831.57 L 415.29 838.57 L 419.46 828.46 L 423.64 820.30 L 427.81 828.51 L 431.99 833.78 L 436.16 836.96 L 440.34 839.55 L 444.51 833.57 L 448.69 836.72 L 452.86 837.37 L 457.03 833.32 L 461.21 829.29 L 465.38 833.35 L 469.56 834.32 L 473.73 818.47 L 477.91 837.39 L 482.08 834.55 L 486.26 815.91 L 490.43 839.45 L 494.61 828.80 L 498.78 821.91 L 502.96 806.43 L 507.13 838.65 L 511.31 810.61 L 515.48 829.25 L 519.66 836.52 L 523.83 832.05 L 528.01 836.99 L 532.18 823.84 L 536.36 809.79 L 540.53 826.66 L 544.71 833.10 L 548.88 819.50 L 553.06 820.72 L 557.23 837.24 L 561.41 838.19 L 565.58 811.67 L 569.76 830.37 L 573.93 834.29 L 578.10 836.88 L 582.28 838.04 L 586.45 823.61 L 590.63 834.84 L 594.80 832.11 L 598.98 835.53 L 603.15 831.53 L 607.33 835.88 L 611.50 837.80 L 615.68 830.45 L 619.85 830.14 L 624.03 834.77 L 628.20 808.48 L 632.38 826.35 L 636.55 837.02 L 640.73 839.53 L 644.90 828.70 L 649.08 832.69 L 653.25 835.62 L 657.43 822.71 L 661.60 824.81 L 665.78 830.64 L 669.95 835.01 L 674.13 836.74 L 678.30 832.86 L 682.48 836.45 L 686.65 834.76 L 690.83 833.66 L 695.00 814.30 L 699.17 824.75 L 703.35 836.65 L 707.52 826.67 L 711.70 831.91 L 715.87 836.67 L 720.05 821.46 L 724.22 825.07 L 728.40 836.11 L 732.57 833.81 L 736.75 815.85 L 740.92 824.56 L 745.10 831.96 L 749.27 838.38 L 753.45 829.83 L 757.62 831.04 L 761.80 826.09 L 765.97 823.98 L 770.15 827.26 L 774.32 818.95 L 778.50 827.01 L 782.67 818.12 L 786.85 836.37 L 791.02 836.91 L 795.20 823.45 L 799.37 834.17 L 803.55 826.57 L 807.72 827.64 L 811.90 825.87 L 816.07 833.31 L 820.24 838.20 L 824.42 821.14 L 828.59 822.79 L 832.77 827.55 L 836.94 830.15 L 841.12 833.37 L 845.29 828.39 L 849.47 834.66 L 853.64 832.41 L 857.82 835.26 L 861.99 828.97 L 866.17 818.86 L 870.34 815.62 L 874.52 829.05 L 878.69 834.84 L 882.87 839.08 L 887.04 816.22 L 891.22 799.84 L 895.39 833.49 L 899.57 827.59 L 903.74 837.57 L 907.92 830.74 L 912.09 832.59 L 916.27 827.41 L 920.44 838.59 L 924.62 818.72 L 928.79 818.02 L 932.97 831.88 L 937.14 831.95 L 941.31 838.32 L 945.49 839.10 L 949.66 818.89 L 953.84 814.60 L 958.01 833.45 L 962.19 832.81 L 966.36 830.43 L 970.54 831.66 L 974.71 831.39 L 978.89 839.35 L 983.06 827.06 L 987.24 838.17 L 991.41 822.81 L 995.59 824.11 L 999.76 830.91 L 1003.94 825.85 L 1008.11 838.27 L 1012.29 836.08 L 1016.46 816.15 L 1020.64 839.42 L 1024.81 819.42 L 1028.99 831.59 L 1033.16 839.43 L 1037.34 834.29 L 1041.51 826.56 L 1045.69 822.77 L 1049.86 834.72 L 1054.03 832.81 L 1058.21 826.82 L 1062.38 832.83 L 1066.56 831.29 L 1070.73 826.27 L 1074.91 824.76 L 1079.08 833.51 L 1083.26 824.05 L 1087.43 833.65 L 1091.61 837.06 L 1095.78 830.88 L 1099.96 818.06 L 1104.13 838.35 L 1108.31 832.06 L 1112.48 839.68 L 1116.66 827.85 L 1120.83 824.82 L 1125.01 830.47 L 1129.18 832.93 L 1133.36 830.59 L 1137.53 835.71 L 1141.71 832.39 L 1145.88 836.83 L 1150.06 821.45 L 1154.23 832.78 L 1158.41 830.54 L 1162.58 829.54 L 1166.76 839.88 L 1170.93 832.33 L 1175.10 832.51 L 1179.28 836.92 L 1183.45 835.54 L 1187.63 797.19 L 1191.80 824.07 L 1195.98 833.99 L 1200.15 821.16 L 1204.33 837.38 L 1208.50 836.55 L 1212.68 837.03 L 1216.85 837.21 L 1221.03 839.75 L 1225.20 836.66 L 1229.38 830.77 L 1233.55 826.24 L 1237.73 826.38 L 1241.90 833.23 L 1246.08 832.60 L 1250.25 838.85 L 1254.43 819.72 L 1258.60 827.68 L 1262.78 804.79 L 1266.95 829.52 L 1271.13 831.16 L 1275.30 829.83 L 1279.48 817.03 L 1283.65 835.72 L 1287.83 832.56 L 1292.00 836.52" fill="none" stroke="#1d4ed8" stroke-width="2"  />
<path d="M 98.00 755.80 L 102.17 811.46 L 106.35 744.89 L 110.52 781.91 L 114.70 820.70 L 118.87 816.41 L 123.05 766.93 L 127.22 834.40 L 131.40 750.41 L 135.57 814.08 L 139.75 834.16 L 143.92 810.09 L 148.10 834.00 L 152.27 828.37 L 156.45 802.67 L 160.62 835.85 L 164.80 836.56 L 168.97 822.03 L 173.15 816.86 L 177.32 821.62 L 181.50 817.43 L 185.67 833.31 L 189.85 823.30 L 194.02 832.50 L 198.20 838.48 L 202.37 803.59 L 206.55 805.84 L 210.72 787.85 L 214.90 837.40 L 219.07 837.35 L 223.24 818.99 L 227.42 835.57 L 231.59 796.96 L 235.77 807.48 L 239.94 820.90 L 244.12 820.20 L 248.29 807.42 L 252.47 837.05 L 256.64 814.58 L 260.82 823.84 L 264.99 828.51 L 269.17 809.00 L 273.34 822.87 L 277.52 831.89 L 281.69 835.37 L 285.87 773.62 L 290.04 839.53 L 294.22 833.78 L 298.39 839.61 L 302.57 835.61 L 306.74 832.12 L 310.92 830.78 L 315.09 831.46 L 319.27 830.94 L 323.44 809.02 L 327.62 814.98 L 331.79 814.40 L 335.97 758.17 L 340.14 824.87 L 344.31 813.22 L 348.49 590.00 L 352.66 756.55 L 356.84 800.17 L 361.01 802.52 L 365.19 822.00 L 369.36 830.96 L 373.54 801.32 L 377.71 831.55 L 381.89 838.80 L 386.06 824.29 L 390.24 834.22 L 394.41 798.46 L 398.59 793.59 L 402.76 820.96 L 406.94 812.98 L 411.11 802.11 L 415.29 833.96 L 419.46 822.89 L 423.64 820.84 L 427.81 812.89 L 431.99 834.73 L 436.16 832.44 L 440.34 839.26 L 444.51 821.64 L 448.69 827.62 L 452.86 837.66 L 457.03 798.81 L 461.21 820.60 L 465.38 800.67 L 469.56 833.55 L 473.73 810.35 L 477.91 827.30 L 482.08 804.28 L 486.26 806.16 L 490.43 837.05 L 494.61 808.95 L 498.78 820.58 L 502.96 781.05 L 507.13 839.27 L 511.31 802.82 L 515.48 836.48 L 519.66 793.31 L 523.83 834.02 L 528.01 827.43 L 532.18 832.09 L 536.36 778.52 L 540.53 817.85 L 544.71 823.89 L 548.88 814.34 L 553.06 811.34 L 557.23 831.68 L 561.41 837.01 L 565.58 800.15 L 569.76 821.38 L 573.93 830.32 L 578.10 834.95 L 582.28 839.46 L 586.45 816.44 L 590.63 824.88 L 594.80 793.88 L 598.98 838.69 L 603.15 827.32 L 607.33 828.14 L 611.50 837.06 L 615.68 824.96 L 619.85 821.28 L 624.03 831.60 L 628.20 806.86 L 632.38 791.74 L 636.55 811.35 L 640.73 831.45 L 644.90 830.46 L 649.08 805.24 L 653.25 833.73 L 657.43 794.72 L 661.60 812.05 L 665.78 828.03 L 669.95 799.36 L 674.13 805.62 L 678.30 804.46 L 682.48 780.61 L 686.65 829.09 L 690.83 834.65 L 695.00 805.43 L 699.17 811.91 L 703.35 825.61 L 707.52 793.57 L 711.70 830.65 L 715.87 836.81 L 720.05 818.55 L 724.22 813.62 L 728.40 793.44 L 732.57 829.99 L 736.75 815.11 L 740.92 826.74 L 745.10 833.20 L 749.27 827.02 L 753.45 819.86 L 757.62 754.98 L 761.80 829.51 L 765.97 823.92 L 770.15 816.16 L 774.32 811.45 L 778.50 795.71 L 782.67 813.62 L 786.85 802.03 L 791.02 794.17 L 795.20 812.98 L 799.37 829.58 L 803.55 817.57 L 807.72 816.59 L 811.90 821.92 L 816.07 839.33 L 820.24 835.60 L 824.42 815.11 L 828.59 816.33 L 832.77 820.52 L 836.94 804.45 L 841.12 797.51 L 845.29 816.15 L 849.47 831.56 L 853.64 821.42 L 857.82 831.22 L 861.99 819.25 L 866.17 805.81 L 870.34 808.05 L 874.52 822.70 L 878.69 804.07 L 882.87 812.05 L 887.04 807.51 L 891.22 828.47 L 895.39 830.96 L 899.57 824.76 L 903.74 827.81 L 907.92 820.74 L 912.09 832.87 L 916.27 819.11 L 920.44 821.54 L 924.62 811.73 L 928.79 784.98 L 932.97 823.99 L 937.14 816.03 L 941.31 835.41 L 945.49 834.13 L 949.66 792.39 L 953.84 785.24 L 958.01 806.30 L 962.19 823.78 L 966.36 825.74 L 970.54 819.42 L 974.71 783.45 L 978.89 800.31 L 983.06 796.28 L 987.24 838.15 L 991.41 768.02 L 995.59 817.52 L 999.76 800.25 L 1003.94 832.45 L 1008.11 838.53 L 1012.29 807.91 L 1016.46 802.79 L 1020.64 819.55 L 1024.81 811.01 L 1028.99 815.42 L 1033.16 836.46 L 1037.34 830.34 L 1041.51 800.46 L 1045.69 825.73 L 1049.86 832.53 L 1054.03 835.19 L 1058.21 834.40 L 1062.38 796.08 L 1066.56 818.74 L 1070.73 828.18 L 1074.91 819.02 L 1079.08 833.89 L 1083.26 821.85 L 1087.43 832.53 L 1091.61 828.15 L 1095.78 838.53 L 1099.96 807.85 L 1104.13 833.83 L 1108.31 828.14 L 1112.48 771.74 L 1116.66 814.47 L 1120.83 823.10 L 1125.01 835.53 L 1129.18 819.99 L 1133.36 834.19 L 1137.53 839.69 L 1141.71 820.92 L 1145.88 835.29 L 1150.06 820.81 L 1154.23 831.78 L 1158.41 813.68 L 1162.58 819.69 L 1166.76 839.13 L 1170.93 823.50 L 1175.10 795.09 L 1179.28 784.31 L 1183.45 795.20 L 1187.63 796.01 L 1191.80 801.93 L 1195.98 797.88 L 1200.15 809.82 L 1204.33 789.38 L 1208.50 797.90 L 1212.68 827.54 L 1216.85 824.19 L 1221.03 816.85 L 1225.20 837.71 L 1229.38 804.93 L 1233.55 823.66 L 1237.73 821.32 L 1241.90 822.92 L 1246.08 813.32 L 1250.25 831.50 L 1254.43 795.18 L 1258.60 806.29 L 1262.78 792.92 L 1266.95 825.13 L 1271.13 788.99 L 1275.30 825.48 L 1279.48 804.86 L 1283.65 837.57 L 1287.83 826.22 L 1292.00 834.13" fill="none" stroke="#b45309" stroke-width="2" stroke-dasharray="6 4" />
  </g>
</svg>