<?xml version="1.0" encoding="UTF-8"?>
<svg xmlns="http://www.w3.org/2000/svg" width="1360" height="980" viewBox="0 0 1360 980">
  <defs>
    <linearGradient id="bg" x1="0" y1="0" x2="1" y2="1">
      <stop offset="0%" stop-color="#f4efe6" />
      <stop offset="100%" stop-color="#eef5f2" />
    </linearGradient>
  </defs>
  <rect x="0" y="0" width="1360" height="980" fill="url(#bg)" />
  <text x="46" y="36" fill="#1f2937" font-size="31" font-weight="700">501050 离线研究图（持仓逐日估值版）</text>
  <text x="46" y="66" fill="#5b6b68" font-size="13">历史前十大持仓 + 持仓逐日涨跌幅 + USDCNY；双目标 lambda=0.10；披露期数 30；覆盖率均值 99.5%</text>
  <g>
    <text x="54" y="110" fill="#1f2937" font-size="16" font-weight="700">A. 净值拟合（同日对齐，无平移）</text>
    <line x1="98" y1="112" x2="124" y2="112" stroke="#0f766e" stroke-width="2"  />
      <text x="130" y="116" fill="#24312e" font-size="12">真实净值</text>
<line x1="313" y1="112" x2="339" y2="112" stroke="#1d4ed8" stroke-width="2"  />
      <text x="345" y="116" fill="#24312e" font-size="12">持仓分段估值</text>
<line x1="528" y1="112" x2="554" y2="112" stroke="#b45309" stroke-width="2" stroke-dasharray="6 4" />
      <text x="560" y="116" fill="#24312e" font-size="12">持仓双目标估值</text>
    <line x1="98" y1="132.00" x2="1292" y2="132.00" stroke="#d7e3df" stroke-width="1" />
      <text x="90" y="136.00" text-anchor="end" fill="#5b6b68" font-size="11">1.871</text>
<line x1="98" y1="209.50" x2="1292" y2="209.50" stroke="#d7e3df" stroke-width="1" />
      <text x="90" y="213.50" text-anchor="end" fill="#5b6b68" font-size="11">1.735</text>
<line x1="98" y1="287.00" x2="1292" y2="287.00" stroke="#d7e3df" stroke-width="1" />
      <text x="90" y="291.00" text-anchor="end" fill="#5b6b68" font-size="11">1.598</text>
<line x1="98" y1="364.50" x2="1292" y2="364.50" stroke="#d7e3df" stroke-width="1" />
      <text x="90" y="368.50" text-anchor="end" fill="#5b6b68" font-size="11">1.461</text>
<line x1="98" y1="442.00" x2="1292" y2="442.00" stroke="#d7e3df" stroke-width="1" />
      <text x="90" y="446.00" text-anchor="end" fill="#5b6b68" font-size="11">1.325</text>
    <line x1="98.00" y1="132" x2="98.00" y2="442" stroke="#eef3f1" stroke-width="1" />
      <text x="98.00" y="470" text-anchor="middle" fill="#5b6b68" font-size="11">25-01-02</text>
<line x1="290.04" y1="132" x2="290.04" y2="442" stroke="#eef3f1" stroke-width="1" />
      <text x="290.04" y="470" text-anchor="middle" fill="#5b6b68" font-size="11">25-03-17</text>
<line x1="482.08" y1="132" x2="482.08" y2="442" stroke="#eef3f1" stroke-width="1" />
      <text x="482.08" y="470" text-anchor="middle" fill="#5b6b68" font-size="11">25-05-26</text>
<line x1="695.00" y1="132" x2="695.00" y2="442" stroke="#eef3f1" stroke-width="1" />
      <text x="695.00" y="470" text-anchor="middle" fill="#5b6b68" font-size="11">25-08-06</text>
<line x1="907.92" y1="132" x2="907.92" y2="442" stroke="#eef3f1" stroke-width="1" />
      <text x="907.92" y="470" text-anchor="middle" fill="#5b6b68" font-size="11">25-10-24</text>
<line x1="1099.96" y1="132" x2="1099.96" y2="442" stroke="#eef3f1" stroke-width="1" />
      <text x="1099.96" y="470" text-anchor="middle" fill="#5b6b68" font-size="11">25-12-29</text>
<line x1="1292.00" y1="132" x2="1292.00" y2="442" stroke="#eef3f1" stroke-width="1" />
      <text x="1292.00" y="470" text-anchor="middle" fill="#5b6b68" font-size="11">26-03-13</text>
    <line x1="1112.48" y1="132" x2="1112.48" y2="442" stroke="#f59e0b" stroke-width="1.4" stroke-dasharray="4 4" />
       <text x="1118.48" y="124" fill="#a16207" font-size="11">验证起点</text>
    <path d="M 98.00 418.06 L 102.17 420.90 L 106.35 423.74 L 110.52 420.90 L 114.70 421.47 L 118.87 425.44 L 123.05 431.67 L 127.22 432.24 L 131.40 418.06 L 135.57 418.63 L 139.75 420.33 L 143.92 418.63 L 148.10 413.53 L 152.27 410.69 L 156.45 421.47 L 160.62 419.77 L 164.80 410.69 L 168.97 409.56 L 173.15 410.13 L 177.32 402.19 L 181.50 395.38 L 185.67 389.14 L 189.85 394.81 L 194.02 381.77 L 198.20 386.31 L 202.37 373.83 L 206.55 372.13 L 210.72 372.70 L 214.90 368.73 L 219.07 374.97 L 223.24 358.52 L 227.42 358.52 L 231.59 371.00 L 235.77 355.69 L 239.94 352.85 L 244.12 372.13 L 248.29 376.10 L 252.47 377.24 L 256.64 364.76 L 260.82 348.32 L 264.99 349.45 L 269.17 353.99 L 273.34 351.72 L 277.52 354.55 L 281.69 357.39 L 285.87 333.00 L 290.04 331.87 L 294.22 324.50 L 298.39 324.50 L 302.57 335.27 L 306.74 352.28 L 310.92 344.35 L 315.09 350.58 L 319.27 355.12 L 323.44 351.72 L 327.62 357.96 L 331.79 365.33 L 335.97 364.76 L 340.14 364.19 L 344.31 367.03 L 348.49 431.11 L 352.66 415.80 L 356.84 405.02 L 361.01 397.08 L 365.19 388.01 L 369.36 380.64 L 373.54 381.21 L 377.71 380.07 L 381.89 377.24 L 386.06 377.80 L 390.24 379.50 L 394.41 375.53 L 398.59 375.53 L 402.76 375.53 L 406.94 377.80 L 411.11 376.10 L 415.29 376.67 L 419.46 377.80 L 423.64 371.00 L 427.81 366.46 L 431.99 363.63 L 436.16 364.19 L 440.34 352.28 L 444.51 355.12 L 448.69 340.94 L 452.86 347.75 L 457.03 353.42 L 461.21 356.82 L 465.38 351.15 L 469.56 347.18 L 473.73 348.88 L 477.91 350.58 L 482.08 355.69 L 486.26 358.52 L 490.43 359.66 L 494.61 355.12 L 498.78 361.92 L 502.96 357.96 L 507.13 356.25 L 511.31 352.85 L 515.48 353.99 L 519.66 348.88 L 523.83 349.45 L 528.01 340.94 L 532.18 342.08 L 536.36 347.75 L 540.53 344.35 L 544.71 347.18 L 548.88 350.58 L 553.06 360.79 L 557.23 354.55 L 561.41 350.58 L 565.58 338.11 L 569.76 325.63 L 573.93 326.77 L 578.10 334.71 L 582.28 336.41 L 586.45 336.97 L 590.63 331.87 L 594.80 330.17 L 598.98 327.33 L 603.15 329.03 L 607.33 321.10 L 611.50 325.07 L 615.68 315.99 L 619.85 308.62 L 624.03 305.79 L 628.20 309.75 L 632.38 311.46 L 636.55 312.02 L 640.73 299.55 L 644.90 293.31 L 649.08 284.24 L 653.25 280.83 L 657.43 273.46 L 661.60 276.86 L 665.78 272.90 L 669.95 268.93 L 674.13 270.63 L 678.30 287.64 L 682.48 297.28 L 686.65 290.47 L 690.83 283.10 L 695.00 281.40 L 699.17 278.00 L 703.35 280.83 L 707.52 279.13 L 711.70 270.06 L 715.87 263.82 L 720.05 258.72 L 724.22 256.45 L 728.40 255.32 L 732.57 263.26 L 736.75 254.75 L 740.92 251.91 L 745.10 236.04 L 749.27 218.46 L 753.45 226.40 L 757.62 241.14 L 761.80 230.37 L 765.97 228.10 L 770.15 222.99 L 774.32 224.13 L 778.50 232.63 L 782.67 251.91 L 786.85 237.74 L 791.02 236.60 L 795.20 233.77 L 799.37 225.26 L 803.55 213.92 L 807.72 213.92 L 811.90 216.19 L 816.07 220.72 L 820.24 215.62 L 824.42 227.53 L 828.59 228.10 L 832.77 228.10 L 836.94 233.20 L 841.12 227.53 L 845.29 225.26 L 849.47 229.23 L 853.64 212.79 L 857.82 205.41 L 861.99 193.51 L 866.17 210.52 L 870.34 215.05 L 874.52 222.99 L 878.69 206.55 L 882.87 198.61 L 887.04 219.59 L 891.22 214.49 L 895.39 202.58 L 899.57 203.71 L 903.74 199.18 L 907.92 187.84 L 912.09 180.46 L 916.27 188.40 L 920.44 186.13 L 924.62 187.27 L 928.79 201.44 L 932.97 199.18 L 937.14 202.01 L 941.31 202.58 L 945.49 185.00 L 949.66 186.13 L 953.84 177.06 L 958.01 182.73 L 962.19 178.19 L 966.36 169.12 L 970.54 183.87 L 974.71 190.67 L 978.89 198.04 L 983.06 196.34 L 987.24 198.61 L 991.41 220.16 L 995.59 218.46 L 999.76 213.35 L 1003.94 211.08 L 1008.11 211.08 L 1012.29 212.79 L 1016.46 205.41 L 1020.64 208.25 L 1024.81 214.49 L 1028.99 208.82 L 1033.16 196.91 L 1037.34 193.51 L 1041.51 204.28 L 1045.69 204.85 L 1049.86 209.95 L 1054.03 198.61 L 1058.21 205.41 L 1062.38 220.72 L 1066.56 207.68 L 1070.73 206.55 L 1074.91 202.01 L 1079.08 196.91 L 1083.26 194.64 L 1087.43 195.21 L 1091.61 194.07 L 1095.78 191.80 L 1099.96 194.07 L 1104.13 190.10 L 1108.31 195.21 L 1112.48 173.09 L 1116.66 152.68 L 1120.83 156.08 L 1125.01 160.62 L 1129.18 156.08 L 1133.36 149.27 L 1137.53 150.41 L 1141.71 154.95 L 1145.88 156.65 L 1150.06 161.18 L 1154.23 164.02 L 1158.41 165.15 L 1162.58 162.88 L 1166.76 167.99 L 1170.93 170.82 L 1175.10 166.85 L 1179.28 161.75 L 1183.45 154.95 L 1187.63 137.93 L 1191.80 157.78 L 1195.98 177.06 L 1200.15 166.29 L 1204.33 156.65 L 1208.50 160.62 L 1212.68 169.12 L 1216.85 149.84 L 1221.03 144.17 L 1225.20 144.17 L 1229.38 143.04 L 1233.55 160.62 L 1237.73 157.21 L 1241.90 151.54 L 1246.08 162.88 L 1250.25 160.05 L 1254.43 166.85 L 1258.60 185.00 L 1262.78 198.61 L 1266.95 197.48 L 1271.13 193.51 L 1275.30 205.41 L 1279.48 196.91 L 1283.65 198.61 L 1287.83 203.15 L 1292.00 209.95" fill="none" stroke="#0f766e" stroke-width="2"  />
<path d="M 98.00 419.02 L 102.17 420.07 L 106.35 415.46 L 110.52 415.84 L 114.70 419.02 L 118.87 423.33 L 123.05 425.77 L 127.22 431.23 L 131.40 425.81 L 135.57 418.91 L 139.75 430.16 L 143.92 419.79 L 148.10 415.62 L 152.27 412.59 L 156.45 420.41 L 160.62 418.59 L 164.80 419.00 L 168.97 408.93 L 173.15 416.15 L 177.32 408.28 L 181.50 392.08 L 185.67 385.98 L 189.85 386.83 L 194.02 391.86 L 198.20 380.97 L 202.37 383.75 L 206.55 372.31 L 210.72 373.29 L 214.90 371.42 L 219.07 368.59 L 223.24 356.92 L 227.42 356.75 L 231.59 364.95 L 235.77 367.33 L 239.94 352.26 L 244.12 377.92 L 248.29 371.58 L 252.47 376.73 L 256.64 370.09 L 260.82 349.85 L 264.99 348.83 L 269.17 347.49 L 273.34 351.18 L 277.52 352.24 L 281.69 354.32 L 285.87 334.70 L 290.04 331.96 L 294.22 330.59 L 298.39 320.71 L 302.57 330.76 L 306.74 357.85 L 310.92 348.98 L 315.09 344.70 L 319.27 352.64 L 323.44 352.37 L 327.62 350.98 L 331.79 356.27 L 335.97 363.80 L 340.14 366.16 L 344.31 362.30 L 348.49 438.22 L 352.66 417.32 L 356.84 413.01 L 361.01 401.81 L 365.19 393.87 L 369.36 383.92 L 373.54 378.83 L 377.71 377.53 L 381.89 377.76 L 386.06 375.56 L 390.24 373.71 L 394.41 376.91 L 398.59 378.01 L 402.76 372.92 L 406.94 375.91 L 411.11 374.33 L 415.29 378.19 L 419.46 378.23 L 423.64 375.47 L 427.81 363.74 L 431.99 364.22 L 436.16 360.89 L 440.34 361.91 L 444.51 350.61 L 448.69 342.58 L 452.86 341.20 L 457.03 355.54 L 461.21 350.20 L 465.38 355.12 L 469.56 348.00 L 473.73 345.98 L 477.91 356.50 L 482.08 352.89 L 486.26 360.58 L 490.43 357.86 L 494.61 358.89 L 498.78 355.27 L 502.96 358.04 L 507.13 356.56 L 511.31 355.79 L 515.48 352.49 L 519.66 350.14 L 523.83 348.55 L 528.01 345.54 L 532.18 337.57 L 536.36 343.68 L 540.53 345.54 L 544.71 345.97 L 548.88 346.38 L 553.06 352.36 L 557.23 358.99 L 561.41 350.57 L 565.58 339.65 L 569.76 327.90 L 573.93 325.41 L 578.10 340.90 L 582.28 331.51 L 586.45 336.01 L 590.63 336.03 L 594.80 330.61 L 598.98 326.46 L 603.15 325.26 L 607.33 327.16 L 611.50 319.61 L 615.68 322.17 L 619.85 313.49 L 624.03 305.69 L 628.20 308.11 L 632.38 307.65 L 636.55 310.52 L 640.73 308.56 L 644.90 297.36 L 649.08 292.16 L 653.25 280.08 L 657.43 280.24 L 661.60 267.40 L 665.78 264.34 L 669.95 270.70 L 674.13 267.20 L 678.30 278.77 L 682.48 289.34 L 686.65 295.37 L 690.83 286.56 L 695.00 283.14 L 699.17 280.30 L 703.35 279.05 L 707.52 279.38 L 711.70 257.70 L 715.87 268.75 L 720.05 253.44 L 724.22 258.48 L 728.40 255.34 L 732.57 265.11 L 736.75 252.18 L 740.92 252.22 L 745.10 224.55 L 749.27 212.58 L 753.45 226.48 L 757.62 239.99 L 761.80 230.33 L 765.97 231.99 L 770.15 230.91 L 774.32 214.79 L 778.50 231.44 L 782.67 256.59 L 786.85 240.19 L 791.02 248.39 L 795.20 234.94 L 799.37 231.70 L 803.55 213.07 L 807.72 213.45 L 811.90 218.98 L 816.07 219.15 L 820.24 221.16 L 824.42 232.14 L 828.59 228.85 L 832.77 224.25 L 836.94 226.73 L 841.12 231.22 L 845.29 224.51 L 849.47 225.96 L 853.64 227.38 L 857.82 212.07 L 861.99 197.17 L 866.17 207.64 L 870.34 207.09 L 874.52 214.57 L 878.69 210.08 L 882.87 202.86 L 887.04 211.14 L 891.22 215.74 L 895.39 207.97 L 899.57 198.81 L 903.74 201.07 L 907.92 193.44 L 912.09 183.60 L 916.27 189.96 L 920.44 187.11 L 924.62 187.13 L 928.79 188.46 L 932.97 198.49 L 937.14 195.87 L 941.31 201.81 L 945.49 194.09 L 949.66 185.99 L 953.84 183.76 L 958.01 179.55 L 962.19 180.11 L 966.36 174.20 L 970.54 175.49 L 974.71 194.96 L 978.89 190.04 L 983.06 195.09 L 987.24 197.00 L 991.41 217.27 L 995.59 218.51 L 999.76 215.99 L 1003.94 211.30 L 1008.11 210.45 L 1012.29 211.86 L 1016.46 208.30 L 1020.64 207.63 L 1024.81 209.56 L 1028.99 211.88 L 1033.16 204.84 L 1037.34 184.75 L 1041.51 193.42 L 1045.69 206.93 L 1049.86 205.19 L 1054.03 207.90 L 1058.21 196.83 L 1062.38 221.43 L 1066.56 212.82 L 1070.73 205.51 L 1074.91 206.18 L 1079.08 200.23 L 1083.26 194.11 L 1087.43 195.57 L 1091.61 194.41 L 1095.78 191.88 L 1099.96 190.12 L 1104.13 193.06 L 1108.31 191.05 L 1112.48 171.81 L 1116.66 162.80 L 1120.83 155.27 L 1125.01 165.14 L 1129.18 157.92 L 1133.36 153.39 L 1137.53 148.78 L 1141.71 159.99 L 1145.88 155.77 L 1150.06 164.11 L 1154.23 159.78 L 1158.41 164.98 L 1162.58 167.25 L 1166.76 168.23 L 1170.93 172.97 L 1175.10 168.54 L 1179.28 164.90 L 1183.45 162.50 L 1187.63 141.34 L 1191.80 141.67 L 1195.98 173.05 L 1200.15 184.54 L 1204.33 163.65 L 1208.50 153.50 L 1212.68 165.61 L 1216.85 157.00 L 1221.03 148.36 L 1225.20 143.20 L 1229.38 145.01 L 1233.55 148.81 L 1237.73 160.50 L 1241.90 155.23 L 1246.08 151.75 L 1250.25 161.74 L 1254.43 158.25 L 1258.60 169.18 L 1262.78 198.86 L 1266.95 196.79 L 1271.13 195.05 L 1275.30 207.23 L 1279.48 202.21 L 1283.65 196.77 L 1287.83 199.61 L 1292.00 204.70" fill="none" stroke="#1d4ed8" stroke-width="2"  />
<path d="M 98.00 392.70 L 102.17 417.54 L 106.35 420.26 L 110.52 423.05 L 114.70 420.29 L 118.87 420.94 L 123.05 424.87 L 127.22 431.12 L 131.40 431.57 L 135.57 417.51 L 139.75 418.16 L 143.92 419.75 L 148.10 417.97 L 152.27 412.91 L 156.45 410.20 L 160.62 420.84 L 164.80 419.15 L 168.97 410.11 L 173.15 409.06 L 177.32 409.52 L 181.50 401.46 L 185.67 394.69 L 189.85 388.50 L 194.02 394.16 L 198.20 381.16 L 202.37 385.64 L 206.55 373.23 L 210.72 371.57 L 214.90 372.08 L 219.07 368.11 L 223.24 374.17 L 227.42 357.88 L 231.59 357.98 L 235.77 370.31 L 239.94 355.00 L 244.12 352.42 L 248.29 371.57 L 252.47 375.50 L 256.64 376.52 L 260.82 363.97 L 264.99 347.70 L 269.17 348.83 L 273.34 353.29 L 277.52 351.12 L 281.69 353.93 L 285.87 356.50 L 290.04 332.37 L 294.22 331.20 L 298.39 323.79 L 302.57 323.93 L 306.74 334.83 L 310.92 351.59 L 315.09 343.74 L 319.27 350.01 L 323.44 354.44 L 327.62 351.08 L 331.79 357.35 L 335.97 364.69 L 340.14 364.17 L 344.31 363.55 L 348.49 366.92 L 352.66 430.38 L 356.84 415.16 L 361.01 404.36 L 365.19 396.41 L 369.36 387.34 L 373.54 380.01 L 377.71 380.52 L 381.89 379.42 L 386.06 376.60 L 390.24 377.14 L 394.41 378.86 L 398.59 374.97 L 402.76 374.87 L 406.94 374.94 L 411.11 377.14 L 415.29 375.53 L 419.46 376.10 L 423.64 377.15 L 427.81 370.27 L 431.99 365.80 L 436.16 362.94 L 440.34 363.57 L 444.51 351.61 L 448.69 354.31 L 452.86 340.33 L 457.03 347.21 L 461.21 352.81 L 465.38 356.16 L 469.56 350.43 L 473.73 346.53 L 477.91 348.32 L 482.08 350.01 L 486.26 355.14 L 490.43 357.89 L 494.61 359.03 L 498.78 354.52 L 502.96 361.22 L 507.13 357.30 L 511.31 355.62 L 515.48 352.23 L 519.66 353.33 L 523.83 348.26 L 528.01 348.74 L 532.18 340.25 L 536.36 341.50 L 540.53 347.10 L 544.71 343.76 L 548.88 346.54 L 553.06 350.00 L 557.23 360.12 L 561.41 353.85 L 565.58 349.79 L 569.76 337.33 L 573.93 324.98 L 578.10 326.25 L 582.28 334.04 L 586.45 335.76 L 590.63 336.33 L 594.80 331.20 L 598.98 329.44 L 603.15 326.71 L 607.33 328.35 L 611.50 320.44 L 615.68 324.34 L 619.85 315.28 L 624.03 307.92 L 628.20 305.18 L 632.38 309.06 L 636.55 310.79 L 640.73 311.29 L 644.90 298.87 L 649.08 292.61 L 653.25 283.49 L 657.43 280.15 L 661.60 272.75 L 665.78 276.06 L 669.95 272.17 L 674.13 268.22 L 678.30 270.04 L 682.48 287.02 L 686.65 296.52 L 690.83 289.72 L 695.00 282.43 L 699.17 280.69 L 703.35 277.35 L 707.52 280.14 L 711.70 278.23 L 715.87 269.33 L 720.05 262.98 L 724.22 258.03 L 728.40 255.71 L 732.57 254.71 L 736.75 262.41 L 740.92 253.99 L 745.10 250.91 L 749.27 235.03 L 753.45 217.82 L 757.62 225.81 L 761.80 240.24 L 765.97 229.58 L 770.15 227.41 L 774.32 222.14 L 778.50 223.49 L 782.67 232.13 L 786.85 251.03 L 791.02 237.13 L 795.20 235.84 L 799.37 233.00 L 803.55 224.37 L 807.72 213.19 L 811.90 213.27 L 816.07 215.52 L 820.24 220.01 L 824.42 215.06 L 828.59 226.87 L 832.77 227.31 L 836.94 227.35 L 841.12 232.45 L 845.29 226.74 L 849.47 224.58 L 853.64 228.42 L 857.82 212.05 L 861.99 204.57 L 866.17 192.91 L 870.34 209.81 L 874.52 214.33 L 878.69 222.08 L 882.87 205.72 L 887.04 198.00 L 891.22 218.83 L 895.39 213.63 L 899.57 201.79 L 903.74 202.91 L 907.92 198.33 L 912.09 187.02 L 916.27 179.81 L 920.44 187.66 L 924.62 185.43 L 928.79 186.59 L 932.97 200.68 L 937.14 198.39 L 941.31 201.27 L 945.49 201.69 L 949.66 184.28 L 953.84 185.34 L 958.01 176.37 L 962.19 181.91 L 966.36 177.31 L 970.54 168.44 L 974.71 183.24 L 978.89 189.92 L 983.06 197.23 L 987.24 195.62 L 991.41 198.04 L 995.59 219.45 L 999.76 217.64 L 1003.94 212.56 L 1008.11 210.34 L 1012.29 210.37 L 1016.46 211.96 L 1020.64 204.73 L 1024.81 207.54 L 1028.99 213.69 L 1033.16 207.98 L 1037.34 196.05 L 1041.51 192.79 L 1045.69 203.60 L 1049.86 204.11 L 1054.03 209.16 L 1058.21 197.85 L 1062.38 204.82 L 1066.56 219.88 L 1070.73 206.90 L 1074.91 205.81 L 1079.08 201.23 L 1083.26 196.08 L 1087.43 193.91 L 1091.61 194.43 L 1095.78 193.28 L 1099.96 191.05 L 1104.13 193.30 L 1108.31 189.39 L 1112.48 194.22 L 1116.66 172.16 L 1120.83 151.98 L 1125.01 155.41 L 1129.18 159.79 L 1133.36 155.28 L 1137.53 148.52 L 1141.71 149.74 L 1145.88 154.20 L 1150.06 155.98 L 1154.23 160.45 L 1158.41 163.29 L 1162.58 164.47 L 1166.76 162.21 L 1170.93 167.31 L 1175.10 170.01 L 1179.28 166.06 L 1183.45 161.02 L 1187.63 153.89 L 1191.80 137.28 L 1195.98 157.14 L 1200.15 176.29 L 1204.33 165.43 L 1208.50 155.85 L 1212.68 159.93 L 1216.85 168.21 L 1221.03 149.04 L 1225.20 143.39 L 1229.38 143.43 L 1233.55 142.36 L 1237.73 159.88 L 1241.90 156.39 L 1246.08 150.77 L 1250.25 162.12 L 1254.43 159.27 L 1258.60 166.16 L 1262.78 184.39 L 1266.95 197.76 L 1271.13 196.69 L 1275.30 192.88 L 1279.48 204.56 L 1283.65 196.17 L 1287.83 197.89 L 1292.00 202.42" fill="none" stroke="#b45309" stroke-width="2" stroke-dasharray="6 4" />
  </g>
  <g>
    <text x="54" y="538" fill="#1f2937" font-size="16" font-weight="700">B. 绝对误差（越低越好）</text>
    <line x1="98" y1="540" x2="124" y2="540" stroke="#1d4ed8" stroke-width="2"  />
      <text x="130" y="544" fill="#24312e" font-size="12">持仓分段误差</text>
<line x1="313" y1="540" x2="339" y2="540" stroke="#b45309" stroke-width="2" stroke-dasharray="6 4" />
      <text x="345" y="544" fill="#24312e" font-size="12">持仓双目标误差</text>
    <line x1="98" y1="560.00" x2="1292" y2="560.00" stroke="#d7e3df" stroke-width="1" />
      <text x="90" y="564.00" text-anchor="end" fill="#5b6b68" font-size="11">9.43%</text>
<line x1="98" y1="630.00" x2="1292" y2="630.00" stroke="#d7e3df" stroke-width="1" />
      <text x="90" y="634.00" text-anchor="end" fill="#5b6b68" font-size="11">7.07%</text>
<line x1="98" y1="700.00" x2="1292" y2="700.00" stroke="#d7e3df" stroke-width="1" />
      <text x="90" y="704.00" text-anchor="end" fill="#5b6b68" font-size="11">4.72%</text>
<line x1="98" y1="770.00" x2="1292" y2="770.00" stroke="#d7e3df" stroke-width="1" />
      <text x="90" y="774.00" text-anchor="end" fill="#5b6b68" font-size="11">2.36%</text>
<line x1="98" y1="840.00" x2="1292" y2="840.00" stroke="#d7e3df" stroke-width="1" />
      <text x="90" y="844.00" text-anchor="end" fill="#5b6b68" font-size="11">0.00%</text>
    <line x1="98.00" y1="560" x2="98.00" y2="840" stroke="#eef3f1" stroke-width="1" />
      <text x="98.00" y="868" text-anchor="middle" fill="#5b6b68" font-size="11">25-01-02</text>
<line x1="290.04" y1="560" x2="290.04" y2="840" stroke="#eef3f1" stroke-width="1" />
      <text x="290.04" y="868" text-anchor="middle" fill="#5b6b68" font-size="11">25-03-17</text>
<line x1="482.08" y1="560" x2="482.08" y2="840" stroke="#eef3f1" stroke-width="1" />
      <text x="482.08" y="868" text-anchor="middle" fill="#5b6b68" font-size="11">25-05-26</text>
<line x1="695.00" y1="560" x2="695.00" y2="840" stroke="#eef3f1" stroke-width="1" />
      <text x="695.00" y="868" text-anchor="middle" fill="#5b6b68" font-size="11">25-08-06</text>
<line x1="907.92" y1="560" x2="907.92" y2="840" stroke="#eef3f1" stroke-width="1" />
      <text x="907.92" y="868" text-anchor="middle" fill="#5b6b68" font-size="11">25-10-24</text>
<line x1="1099.96" y1="560" x2="1099.96" y2="840" stroke="#eef3f1" stroke-width="1" />
      <text x="1099.96" y="868" text-anchor="middle" fill="#5b6b68" font-size="11">25-12-29</text>
<line x1="1292.00" y1="560" x2="1292.00" y2="840" stroke="#eef3f1" stroke-width="1" />
      <text x="1292.00" y="868" text-anchor="middle" fill="#5b6b68" font-size="11">26-03-13</text>
    <line x1="1112.48" y1="560" x2="1112.48" y2="840" stroke="#f59e0b" stroke-width="1.4" stroke-dasharray="4 4" />
       <text x="1118.48" y="552" fill="#a16207" font-size="11">验证起点</text>
    <path d="M 98.00 836.32 L 102.17 836.80 L 106.35 808.07 L 110.52 820.55 L 114.70 830.60 L 118.87 831.85 L 123.05 816.97 L 127.22 836.07 L 131.40 810.32 L 135.57 838.91 L 139.75 802.25 L 143.92 835.55 L 148.10 832.05 L 152.27 832.79 L 156.45 835.92 L 160.62 835.50 L 164.80 808.48 L 168.97 837.62 L 173.15 817.16 L 177.32 817.14 L 181.50 827.71 L 185.67 828.31 L 189.85 810.31 L 194.02 803.10 L 198.20 820.37 L 202.37 804.08 L 206.55 839.35 L 210.72 837.87 L 214.90 830.31 L 219.07 816.86 L 223.24 834.30 L 227.42 833.70 L 231.59 818.17 L 235.77 798.75 L 239.94 837.91 L 244.12 819.07 L 248.29 823.58 L 252.47 838.18 L 256.64 820.90 L 260.82 834.59 L 264.99 837.82 L 269.17 817.04 L 273.34 838.11 L 277.52 831.80 L 281.69 829.11 L 285.87 834.14 L 290.04 839.69 L 294.22 819.18 L 298.39 827.07 L 302.57 824.38 L 306.74 820.37 L 310.92 823.80 L 315.09 819.29 L 319.27 831.21 L 323.44 837.69 L 327.62 815.20 L 331.79 807.52 L 335.97 836.58 L 340.14 832.97 L 344.31 823.01 L 348.49 812.28 L 352.66 834.18 L 356.84 809.90 L 361.01 822.38 L 365.19 818.38 L 369.36 828.00 L 373.54 831.34 L 377.71 830.73 L 381.89 838.10 L 386.06 831.84 L 390.24 818.86 L 394.41 835.01 L 398.59 831.01 L 402.76 830.51 L 406.94 833.10 L 411.11 833.58 L 415.29 834.49 L 419.46 838.43 L 423.64 823.85 L 427.81 830.22 L 431.99 837.86 L 436.16 828.16 L 440.34 806.02 L 444.51 824.04 L 448.69 834.29 L 452.86 817.03 L 457.03 832.51 L 461.21 816.49 L 465.38 826.01 L 469.56 837.14 L 473.73 829.80 L 477.91 819.14 L 482.08 830.10 L 486.26 832.70 L 490.43 833.59 L 494.61 826.63 L 498.78 816.25 L 502.96 839.71 L 507.13 838.93 L 511.31 829.63 L 515.48 834.71 L 519.66 835.59 L 523.83 836.85 L 528.01 823.98 L 532.18 824.27 L 536.36 825.73 L 540.53 835.81 L 544.71 835.74 L 548.88 825.18 L 553.06 809.95 L 557.23 824.29 L 561.41 839.94 L 565.58 834.63 L 569.76 832.24 L 573.93 835.34 L 578.10 818.60 L 582.28 823.05 L 586.45 836.67 L 590.63 825.66 L 594.80 838.48 L 598.98 836.99 L 603.15 827.02 L 607.33 819.36 L 611.50 821.35 L 615.68 819.08 L 619.85 823.66 L 624.03 839.68 L 628.20 834.49 L 632.38 827.18 L 636.55 834.92 L 640.73 810.06 L 644.90 826.64 L 649.08 814.11 L 653.25 837.56 L 657.43 818.14 L 661.60 809.34 L 665.78 812.42 L 669.95 834.29 L 674.13 828.97 L 678.30 810.93 L 682.48 813.70 L 686.65 823.92 L 690.83 828.73 L 695.00 834.34 L 699.17 832.54 L 703.35 834.19 L 707.52 839.20 L 711.70 800.25 L 715.87 824.26 L 720.05 823.22 L 724.22 833.55 L 728.40 839.91 L 732.57 834.09 L 736.75 831.87 L 740.92 839.03 L 745.10 804.40 L 749.27 822.12 L 753.45 839.73 L 757.62 836.41 L 761.80 839.89 L 765.97 828.02 L 770.15 815.79 L 774.32 811.41 L 778.50 836.32 L 782.67 825.26 L 786.85 832.38 L 791.02 803.44 L 795.20 836.37 L 799.37 820.27 L 803.55 837.44 L 807.72 838.58 L 811.90 831.51 L 816.07 835.18 L 820.24 823.17 L 824.42 825.81 L 828.59 837.67 L 832.77 828.16 L 836.94 820.00 L 841.12 828.66 L 845.29 837.70 L 849.47 829.94 L 853.64 795.82 L 857.82 819.99 L 861.99 829.13 L 866.17 831.32 L 870.34 815.82 L 874.52 814.22 L 878.69 829.39 L 882.87 827.32 L 887.04 814.22 L 891.22 836.19 L 895.39 823.86 L 899.57 825.30 L 903.74 834.36 L 907.92 823.44 L 912.09 830.82 L 916.27 835.39 L 920.44 837.13 L 924.62 839.59 L 928.79 801.15 L 932.97 837.96 L 937.14 821.60 L 941.31 837.70 L 945.49 813.24 L 949.66 839.56 L 953.84 820.43 L 958.01 830.67 L 962.19 834.40 L 966.36 825.30 L 970.54 815.36 L 974.71 827.30 L 978.89 816.14 L 983.06 836.28 L 987.24 835.18 L 991.41 831.18 L 995.59 839.82 L 999.76 832.00 L 1003.94 839.35 L 1008.11 838.09 L 1012.29 837.19 L 1016.46 831.32 L 1020.64 838.15 L 1024.81 825.06 L 1028.99 830.76 L 1033.16 816.38 L 1037.34 814.01 L 1041.51 807.42 L 1045.69 833.74 L 1049.86 825.64 L 1054.03 812.27 L 1058.21 814.20 L 1062.38 837.85 L 1066.56 824.53 L 1070.73 836.87 L 1074.91 827.51 L 1079.08 830.11 L 1083.26 838.42 L 1087.43 838.92 L 1091.61 839.01 L 1095.78 839.78 L 1099.96 828.27 L 1104.13 831.26 L 1108.31 827.63 L 1112.48 836.27 L 1116.66 811.11 L 1120.83 837.69 L 1125.01 827.00 L 1129.18 834.74 L 1133.36 828.31 L 1137.53 835.35 L 1141.71 825.57 L 1145.88 837.50 L 1150.06 831.57 L 1154.23 827.77 L 1158.41 839.49 L 1162.58 827.43 L 1166.76 839.31 L 1170.93 833.77 L 1175.10 835.13 L 1179.28 830.92 L 1183.45 818.41 L 1187.63 830.42 L 1191.80 793.81 L 1195.98 828.29 L 1200.15 787.23 L 1204.33 819.93 L 1208.50 819.55 L 1212.68 829.83 L 1216.85 819.63 L 1221.03 828.14 L 1225.20 837.25 L 1229.38 834.43 L 1233.55 806.07 L 1237.73 830.58 L 1241.90 829.49 L 1246.08 807.91 L 1250.25 835.14 L 1254.43 815.12 L 1258.60 793.43 L 1262.78 839.25 L 1266.95 837.97 L 1271.13 835.41 L 1275.30 834.55 L 1279.48 824.21 L 1283.65 834.52 L 1287.83 829.40 L 1292.00 824.16" fill="none" stroke="#1d4ed8" stroke-width="2"  />
<path d="M 98.00 742.88 L 102.17 827.11 L 106.35 826.61 L 110.52 831.75 L 114.70 835.49 L 118.87 822.60 L 123.05 813.48 L 127.22 835.62 L 131.40 788.30 L 135.57 835.68 L 139.75 831.65 L 143.92 835.70 L 148.10 823.07 L 152.27 831.57 L 156.45 796.66 L 160.62 835.87 L 164.80 807.91 L 168.97 837.90 L 173.15 835.94 L 177.32 812.48 L 181.50 817.37 L 185.67 819.52 L 189.85 816.53 L 194.02 794.70 L 198.20 821.05 L 202.37 797.24 L 206.55 836.05 L 210.72 835.90 L 214.90 827.93 L 219.07 815.12 L 223.24 784.37 L 227.42 837.70 L 231.59 793.02 L 235.77 788.19 L 239.94 832.42 L 244.12 768.73 L 248.29 823.53 L 252.47 833.70 L 256.64 797.87 L 260.82 785.00 L 264.99 833.85 L 269.17 821.76 L 273.34 834.44 L 277.52 827.86 L 281.69 827.73 L 285.87 758.94 L 290.04 838.27 L 294.22 817.11 L 298.39 837.57 L 302.57 800.76 L 306.74 778.38 L 310.92 814.68 L 315.09 815.88 L 319.27 821.89 L 323.44 830.39 L 327.62 815.58 L 331.79 811.39 L 335.97 839.76 L 340.14 839.93 L 344.31 827.52 L 348.49 590.00 L 352.66 784.30 L 356.84 801.81 L 361.01 812.88 L 365.19 809.03 L 369.36 815.52 L 373.54 835.63 L 377.71 838.38 L 381.89 832.07 L 386.06 835.62 L 390.24 831.36 L 394.41 827.92 L 398.59 837.94 L 402.76 837.59 L 406.94 829.59 L 411.11 836.22 L 415.29 835.87 L 419.46 833.82 L 423.64 817.77 L 427.81 826.32 L 431.99 832.22 L 436.16 835.52 L 440.34 800.17 L 444.51 827.56 L 448.69 793.44 L 452.86 813.96 L 457.03 818.04 L 461.21 825.78 L 465.38 822.34 L 469.56 828.59 L 473.73 831.72 L 477.91 832.04 L 482.08 819.89 L 486.26 827.98 L 490.43 833.72 L 494.61 826.16 L 498.78 813.55 L 502.96 828.38 L 507.13 836.28 L 511.31 830.22 L 515.48 833.80 L 519.66 824.37 L 523.83 835.81 L 528.01 812.85 L 532.18 833.62 L 536.36 818.08 L 540.53 830.37 L 544.71 828.00 L 548.88 825.75 L 553.06 801.54 L 557.23 820.30 L 561.41 828.48 L 565.58 799.45 L 569.76 799.99 L 573.93 833.88 L 578.10 810.76 L 582.28 831.82 L 586.45 835.80 L 590.63 824.65 L 594.80 836.46 L 598.98 832.77 L 603.15 832.00 L 607.33 815.30 L 611.50 824.20 L 615.68 811.74 L 619.85 817.64 L 624.03 832.86 L 628.20 824.64 L 632.38 831.95 L 636.55 835.84 L 640.73 801.00 L 644.90 821.64 L 649.08 812.65 L 653.25 831.35 L 657.43 818.41 L 661.60 826.67 L 665.78 829.79 L 669.95 829.57 L 674.13 832.24 L 678.30 782.33 L 682.48 806.00 L 686.65 820.13 L 690.83 818.41 L 695.00 836.65 L 699.17 831.26 L 703.35 828.67 L 707.52 836.73 L 711.70 813.72 L 715.87 822.41 L 720.05 826.45 L 724.22 835.01 L 728.40 838.75 L 732.57 812.71 L 736.75 815.78 L 740.92 833.45 L 745.10 793.88 L 749.27 789.53 L 753.45 813.67 L 757.62 792.20 L 761.80 809.57 L 765.97 835.42 L 770.15 826.48 L 774.32 833.92 L 778.50 811.75 L 782.67 777.61 L 786.85 798.69 L 791.02 838.37 L 795.20 833.59 L 799.37 816.26 L 803.55 808.32 L 807.72 837.78 L 811.90 831.14 L 816.07 824.12 L 820.24 826.68 L 824.42 801.66 L 828.59 836.21 L 832.77 837.57 L 836.94 821.92 L 841.12 824.88 L 845.29 835.47 L 849.47 825.67 L 853.64 792.68 L 857.82 820.06 L 861.99 807.14 L 866.17 786.81 L 870.34 824.08 L 874.52 813.49 L 878.69 793.29 L 882.87 818.79 L 887.04 774.18 L 891.22 826.83 L 895.39 806.87 L 899.57 834.24 L 903.74 828.85 L 907.92 809.01 L 912.09 820.77 L 916.27 814.62 L 920.44 835.50 L 924.62 834.57 L 928.79 795.53 L 932.97 835.52 L 937.14 829.17 L 941.31 836.09 L 945.49 790.87 L 949.66 834.54 L 953.84 815.80 L 958.01 821.31 L 962.19 829.14 L 966.36 816.25 L 970.54 794.65 L 974.71 817.99 L 978.89 815.77 L 983.06 837.36 L 987.24 831.07 L 991.41 772.54 L 995.59 836.99 L 999.76 827.02 L 1003.94 835.54 L 1008.11 837.75 L 1012.29 832.68 L 1016.46 820.33 L 1020.64 829.40 L 1024.81 818.94 L 1028.99 825.31 L 1033.16 807.02 L 1037.34 832.44 L 1041.51 805.52 L 1045.69 836.26 L 1049.86 822.38 L 1054.03 808.50 L 1058.21 817.26 L 1062.38 791.45 L 1066.56 803.27 L 1070.73 838.95 L 1074.91 828.62 L 1079.08 827.13 L 1083.26 835.71 L 1087.43 836.15 L 1091.61 838.94 L 1095.78 835.62 L 1099.96 831.03 L 1104.13 830.54 L 1108.31 822.70 L 1112.48 778.52 L 1116.66 784.42 L 1120.83 828.27 L 1125.01 825.02 L 1129.18 829.37 L 1133.36 822.91 L 1137.53 834.61 L 1141.71 825.13 L 1145.88 833.01 L 1150.06 825.03 L 1154.23 829.69 L 1158.41 834.63 L 1162.58 835.44 L 1166.76 823.27 L 1170.93 829.80 L 1175.10 830.86 L 1179.28 827.60 L 1183.45 822.64 L 1187.63 795.13 L 1191.80 781.23 L 1195.98 781.80 L 1200.15 811.09 L 1204.33 814.85 L 1208.50 826.29 L 1212.68 813.37 L 1216.85 787.75 L 1221.03 826.23 L 1225.20 837.79 L 1229.38 838.90 L 1233.55 787.54 L 1237.73 832.37 L 1241.90 826.17 L 1246.08 805.11 L 1250.25 834.06 L 1254.43 818.08 L 1258.60 784.53 L 1262.78 797.55 L 1266.95 839.15 L 1271.13 830.55 L 1275.30 802.34 L 1279.48 817.21 L 1283.65 832.71 L 1287.83 824.25 L 1292.00 817.27" fill="none" stroke="#b45309" stroke-width="2" stroke-dasharray="6 4" />
  </g>
</svg>