<?xml version="1.0" encoding="UTF-8"?>
<svg xmlns="http://www.w3.org/2000/svg" width="1360" height="980" viewBox="0 0 1360 980">
  <defs>
    <linearGradient id="bg" x1="0" y1="0" x2="1" y2="1">
      <stop offset="0%" stop-color="#f4efe6" />
      <stop offset="100%" stop-color="#eef5f2" />
    </linearGradient>
  </defs>
  <rect x="0" y="0" width="1360" height="980" fill="url(#bg)" />
  <text x="46" y="36" fill="#1f2937" font-size="31" font-weight="700">501225 离线研究图（持仓逐日估值版）</text>
  <text x="46" y="66" fill="#5b6b68" font-size="13">历史前十大持仓 + 持仓逐日涨跌幅 + USDCNY；双目标 lambda=0.10；披露期数 11；覆盖率均值 66.4%</text>
  <g>
    <text x="54" y="110" fill="#1f2937" font-size="16" font-weight="700">A. 净值拟合（同日对齐，无平移）</text>
    <line x1="98" y1="112" x2="124" y2="112" stroke="#0f766e" stroke-width="2"  />
      <text x="130" y="116" fill="#24312e" font-size="12">真实净值</text>
<line x1="313" y1="112" x2="339" y2="112" stroke="#1d4ed8" stroke-width="2"  />
      <text x="345" y="116" fill="#24312e" font-size="12">持仓分段估值</text>
<line x1="528" y1="112" x2="554" y2="112" stroke="#b45309" stroke-width="2" stroke-dasharray="6 4" />
      <text x="560" y="116" fill="#24312e" font-size="12">持仓双目标估值</text>
    <line x1="98" y1="132.00" x2="1292" y2="132.00" stroke="#d7e3df" stroke-width="1" />
      <text x="90" y="136.00" text-anchor="end" fill="#5b6b68" font-size="11">2.347</text>
<line x1="98" y1="209.50" x2="1292" y2="209.50" stroke="#d7e3df" stroke-width="1" />
      <text x="90" y="213.50" text-anchor="end" fill="#5b6b68" font-size="11">2.036</text>
<line x1="98" y1="287.00" x2="1292" y2="287.00" stroke="#d7e3df" stroke-width="1" />
      <text x="90" y="291.00" text-anchor="end" fill="#5b6b68" font-size="11">1.724</text>
<line x1="98" y1="364.50" x2="1292" y2="364.50" stroke="#d7e3df" stroke-width="1" />
      <text x="90" y="368.50" text-anchor="end" fill="#5b6b68" font-size="11">1.413</text>
<line x1="98" y1="442.00" x2="1292" y2="442.00" stroke="#d7e3df" stroke-width="1" />
      <text x="90" y="446.00" text-anchor="end" fill="#5b6b68" font-size="11">1.102</text>
    <line x1="98.00" y1="132" x2="98.00" y2="442" stroke="#eef3f1" stroke-width="1" />
      <text x="98.00" y="470" text-anchor="middle" fill="#5b6b68" font-size="11">25-01-02</text>
<line x1="290.72" y1="132" x2="290.72" y2="442" stroke="#eef3f1" stroke-width="1" />
      <text x="290.72" y="470" text-anchor="middle" fill="#5b6b68" font-size="11">25-03-17</text>
<line x1="479.24" y1="132" x2="479.24" y2="442" stroke="#eef3f1" stroke-width="1" />
      <text x="479.24" y="470" text-anchor="middle" fill="#5b6b68" font-size="11">25-05-23</text>
<line x1="697.09" y1="132" x2="697.09" y2="442" stroke="#eef3f1" stroke-width="1" />
      <text x="697.09" y="470" text-anchor="middle" fill="#5b6b68" font-size="11">25-08-06</text>
<line x1="910.76" y1="132" x2="910.76" y2="442" stroke="#eef3f1" stroke-width="1" />
      <text x="910.76" y="470" text-anchor="middle" fill="#5b6b68" font-size="11">25-10-24</text>
<line x1="1099.28" y1="132" x2="1099.28" y2="442" stroke="#eef3f1" stroke-width="1" />
      <text x="1099.28" y="470" text-anchor="middle" fill="#5b6b68" font-size="11">25-12-26</text>
<line x1="1292.00" y1="132" x2="1292.00" y2="442" stroke="#eef3f1" stroke-width="1" />
      <text x="1292.00" y="470" text-anchor="middle" fill="#5b6b68" font-size="11">26-03-12</text>
    <line x1="1116.04" y1="132" x2="1116.04" y2="442" stroke="#f59e0b" stroke-width="1.4" stroke-dasharray="4 4" />
       <text x="1122.04" y="124" fill="#a16207" font-size="11">验证起点</text>
    <path d="M 98.00 356.67 L 102.19 351.19 L 106.38 343.70 L 110.57 344.74 L 114.76 346.51 L 118.95 346.46 L 123.14 352.71 L 127.33 354.88 L 131.52 350.20 L 135.71 345.04 L 139.89 345.61 L 144.08 337.27 L 148.27 337.22 L 152.46 333.46 L 156.65 329.60 L 160.84 331.57 L 165.03 336.82 L 169.22 364.69 L 173.41 349.08 L 177.60 346.34 L 181.79 350.37 L 185.98 346.29 L 190.17 347.96 L 194.36 345.99 L 198.55 344.94 L 202.74 344.59 L 206.93 343.52 L 211.12 341.03 L 215.31 334.63 L 219.49 334.71 L 223.68 338.72 L 227.87 344.97 L 232.06 351.72 L 236.25 344.54 L 240.44 360.53 L 244.63 361.28 L 248.82 372.44 L 253.01 369.10 L 257.20 364.14 L 261.39 372.21 L 265.58 366.91 L 269.77 378.79 L 273.96 380.88 L 278.15 375.95 L 282.34 379.84 L 286.53 370.22 L 290.72 367.91 L 294.91 370.87 L 299.09 369.55 L 303.28 371.64 L 307.47 376.17 L 311.66 368.60 L 315.85 371.07 L 320.04 378.81 L 324.23 383.30 L 328.42 391.77 L 332.61 392.96 L 336.80 391.94 L 340.99 390.10 L 345.18 412.81 L 349.37 430.94 L 353.56 436.47 L 357.75 398.12 L 361.94 414.23 L 366.13 406.88 L 370.32 405.76 L 374.51 405.59 L 378.69 413.53 L 382.88 414.65 L 387.07 415.40 L 391.26 419.04 L 395.45 415.25 L 399.64 407.36 L 403.83 396.65 L 408.02 393.96 L 412.21 394.88 L 416.40 395.97 L 420.59 393.93 L 424.78 388.63 L 428.97 384.69 L 433.16 382.05 L 437.35 381.65 L 441.54 364.64 L 445.73 357.64 L 449.92 355.43 L 454.11 358.44 L 458.29 359.94 L 462.48 361.11 L 466.67 360.86 L 470.86 366.61 L 475.05 368.60 L 479.24 373.09 L 483.43 372.91 L 487.62 365.74 L 491.81 368.30 L 496.00 365.32 L 500.19 372.09 L 504.38 361.50 L 508.57 357.15 L 512.76 357.02 L 516.95 355.23 L 521.14 350.00 L 525.33 346.06 L 529.52 346.61 L 533.71 346.69 L 537.89 354.08 L 542.08 346.09 L 546.27 348.60 L 550.46 346.39 L 554.65 346.56 L 558.84 349.33 L 563.03 346.71 L 567.22 335.03 L 571.41 330.99 L 575.60 329.08 L 579.79 328.85 L 583.98 327.83 L 588.17 330.47 L 592.36 326.44 L 596.55 324.02 L 600.74 324.20 L 604.93 329.70 L 609.12 323.92 L 613.31 323.22 L 617.49 321.51 L 621.68 321.16 L 625.87 323.97 L 630.06 320.88 L 634.25 321.68 L 638.44 319.26 L 642.63 318.99 L 646.82 318.44 L 651.01 323.62 L 655.20 323.82 L 659.39 322.85 L 663.58 321.31 L 667.77 316.13 L 671.96 314.38 L 676.15 313.14 L 680.34 323.12 L 684.53 328.18 L 688.72 322.35 L 692.91 324.97 L 697.09 325.49 L 701.28 321.41 L 705.47 320.26 L 709.66 320.36 L 713.85 309.45 L 718.04 306.11 L 722.23 305.17 L 726.42 310.95 L 730.61 308.16 L 734.80 314.51 L 738.99 312.76 L 743.18 314.26 L 747.37 297.89 L 751.56 296.70 L 755.75 294.03 L 759.94 293.16 L 764.13 285.32 L 768.32 296.57 L 772.51 295.30 L 776.69 301.63 L 780.88 304.54 L 785.07 306.21 L 789.26 299.29 L 793.45 296.03 L 797.64 297.07 L 801.83 290.27 L 806.02 282.23 L 810.21 280.24 L 814.40 276.77 L 818.59 274.61 L 822.78 274.26 L 826.97 260.24 L 831.16 263.67 L 835.35 254.71 L 839.54 255.65 L 843.73 252.71 L 847.92 253.76 L 852.11 254.06 L 856.29 252.96 L 860.48 247.76 L 864.67 223.57 L 868.86 251.57 L 873.05 234.78 L 877.24 246.81 L 881.43 235.78 L 885.62 234.61 L 889.81 239.94 L 894.00 232.99 L 898.19 232.04 L 902.38 240.46 L 906.57 233.46 L 910.76 222.98 L 914.95 212.07 L 919.14 211.89 L 923.33 205.72 L 927.52 213.04 L 931.71 215.95 L 935.89 214.58 L 940.08 229.20 L 944.27 220.26 L 948.46 223.87 L 952.65 228.63 L 956.84 218.69 L 961.03 228.78 L 965.22 224.97 L 969.41 235.65 L 973.60 240.54 L 977.79 246.89 L 981.98 253.29 L 986.17 248.43 L 990.36 264.89 L 994.55 266.01 L 998.74 251.29 L 1002.93 248.83 L 1007.12 239.41 L 1011.31 239.12 L 1015.49 231.97 L 1019.68 230.80 L 1023.87 225.39 L 1028.06 219.04 L 1032.25 219.49 L 1036.44 216.23 L 1040.63 209.38 L 1044.82 209.53 L 1049.01 203.67 L 1053.20 208.01 L 1057.39 224.45 L 1061.58 228.93 L 1065.77 233.64 L 1069.96 243.70 L 1074.15 236.72 L 1078.34 227.56 L 1082.53 220.14 L 1086.72 217.65 L 1090.91 215.73 L 1095.09 216.23 L 1099.28 216.30 L 1103.47 218.07 L 1107.66 217.27 L 1111.85 223.50 L 1116.04 199.12 L 1120.23 184.99 L 1124.42 185.82 L 1128.61 191.92 L 1132.80 180.79 L 1136.99 177.40 L 1141.18 178.57 L 1145.37 178.44 L 1149.56 169.85 L 1153.75 160.89 L 1157.94 161.93 L 1162.13 169.50 L 1166.32 151.77 L 1170.51 151.84 L 1174.69 158.32 L 1178.88 163.03 L 1183.07 151.50 L 1187.26 140.21 L 1191.45 143.25 L 1195.64 159.02 L 1199.83 158.25 L 1204.02 165.04 L 1208.21 183.92 L 1212.40 184.60 L 1216.59 163.50 L 1220.78 154.66 L 1224.97 155.98 L 1229.16 146.94 L 1233.35 154.36 L 1237.54 152.17 L 1241.73 142.08 L 1245.92 134.91 L 1250.11 147.91 L 1254.29 154.76 L 1258.48 154.66 L 1262.67 180.64 L 1266.86 173.94 L 1271.05 177.82 L 1275.24 194.33 L 1279.43 181.91 L 1283.62 176.70 L 1287.81 174.88 L 1292.00 189.30" fill="none" stroke="#0f766e" stroke-width="2"  />
<path d="M 98.00 353.91 L 102.19 346.31 L 106.38 344.87 L 110.57 346.26 L 114.76 346.09 L 118.95 346.93 L 123.14 346.75 L 127.33 354.40 L 131.52 353.56 L 135.71 342.70 L 139.89 343.24 L 144.08 337.25 L 148.27 336.68 L 152.46 337.98 L 156.65 329.78 L 160.84 329.17 L 165.03 339.80 L 169.22 367.75 L 173.41 353.56 L 177.60 346.33 L 181.79 349.20 L 185.98 347.66 L 190.17 345.80 L 194.36 348.36 L 198.55 342.89 L 202.74 344.68 L 206.93 344.13 L 211.12 343.37 L 215.31 337.82 L 219.49 333.40 L 223.68 345.75 L 227.87 342.89 L 232.06 352.33 L 236.25 346.24 L 240.44 364.30 L 244.63 359.15 L 248.82 371.16 L 253.01 372.62 L 257.20 364.63 L 261.39 376.64 L 265.58 365.53 L 269.77 378.18 L 273.96 381.63 L 278.15 374.41 L 282.34 375.91 L 286.53 370.99 L 290.72 366.23 L 294.91 370.01 L 299.09 369.13 L 303.28 369.97 L 307.47 373.26 L 311.66 372.12 L 315.85 367.98 L 320.04 379.90 L 324.23 384.98 L 328.42 392.24 L 332.61 393.03 L 336.80 392.17 L 340.99 390.24 L 345.18 418.35 L 349.37 427.06 L 353.56 440.62 L 357.75 391.52 L 361.94 413.58 L 366.13 413.50 L 370.32 404.83 L 374.51 404.35 L 378.69 415.47 L 382.88 415.30 L 387.07 414.84 L 391.26 415.86 L 395.45 414.92 L 399.64 406.38 L 403.83 392.58 L 408.02 393.09 L 412.21 394.21 L 416.40 396.16 L 420.59 394.95 L 424.78 391.71 L 428.97 384.81 L 433.16 382.07 L 437.35 380.05 L 441.54 363.76 L 445.73 355.15 L 449.92 355.29 L 454.11 355.61 L 458.29 359.20 L 462.48 360.84 L 466.67 361.10 L 470.86 365.30 L 475.05 368.36 L 479.24 371.46 L 483.43 374.19 L 487.62 372.98 L 491.81 365.74 L 496.00 367.66 L 500.19 368.01 L 504.38 363.33 L 508.57 357.08 L 512.76 357.15 L 516.95 355.44 L 521.14 351.35 L 525.33 343.84 L 529.52 345.56 L 533.71 346.11 L 537.89 353.43 L 542.08 350.14 L 546.27 345.98 L 550.46 347.77 L 554.65 346.32 L 558.84 346.95 L 563.03 347.78 L 567.22 335.80 L 571.41 331.39 L 575.60 328.56 L 579.79 328.59 L 583.98 327.86 L 588.17 328.68 L 592.36 325.66 L 596.55 324.44 L 600.74 323.91 L 604.93 323.71 L 609.12 327.21 L 613.31 321.82 L 617.49 321.55 L 621.68 321.50 L 625.87 322.21 L 630.06 322.02 L 634.25 320.73 L 638.44 320.35 L 642.63 318.78 L 646.82 318.48 L 651.01 321.02 L 655.20 324.66 L 659.39 323.68 L 663.58 322.41 L 667.77 317.76 L 671.96 314.69 L 676.15 312.27 L 680.34 321.19 L 684.53 326.53 L 688.72 325.83 L 692.91 322.80 L 697.09 325.89 L 701.28 322.94 L 705.47 318.98 L 709.66 319.69 L 713.85 312.37 L 718.04 305.97 L 722.23 305.34 L 726.42 310.96 L 730.61 310.38 L 734.80 310.54 L 738.99 316.25 L 743.18 312.87 L 747.37 307.17 L 751.56 294.92 L 755.75 294.05 L 759.94 292.73 L 764.13 291.94 L 768.32 292.94 L 772.51 298.17 L 776.69 295.08 L 780.88 302.79 L 785.07 301.95 L 789.26 303.68 L 793.45 295.64 L 797.64 294.78 L 801.83 293.64 L 806.02 287.02 L 810.21 280.27 L 814.40 277.32 L 818.59 275.35 L 822.78 274.51 L 826.97 259.60 L 831.16 259.04 L 835.35 260.01 L 839.54 253.57 L 843.73 256.38 L 847.92 252.69 L 852.11 252.74 L 856.29 252.70 L 860.48 250.16 L 864.67 221.93 L 868.86 247.95 L 873.05 237.96 L 877.24 238.74 L 881.43 237.78 L 885.62 232.65 L 889.81 235.06 L 894.00 235.80 L 898.19 233.31 L 902.38 241.06 L 906.57 232.56 L 910.76 228.00 L 914.95 214.40 L 919.14 209.49 L 923.33 207.29 L 927.52 207.88 L 931.71 212.99 L 935.89 213.01 L 940.08 230.85 L 944.27 220.07 L 948.46 227.09 L 952.65 226.29 L 956.84 221.72 L 961.03 225.67 L 965.22 226.85 L 969.41 238.78 L 973.60 237.46 L 977.79 242.99 L 981.98 255.11 L 986.17 250.10 L 990.36 265.60 L 994.55 264.68 L 998.74 251.64 L 1002.93 248.27 L 1007.12 239.77 L 1011.31 238.23 L 1015.49 239.50 L 1019.68 229.91 L 1023.87 225.79 L 1028.06 217.63 L 1032.25 219.32 L 1036.44 216.79 L 1040.63 212.21 L 1044.82 208.09 L 1049.01 205.62 L 1053.20 203.79 L 1057.39 228.65 L 1061.58 226.73 L 1065.77 230.82 L 1069.96 247.60 L 1074.15 237.39 L 1078.34 226.02 L 1082.53 222.70 L 1086.72 217.73 L 1090.91 216.50 L 1095.09 215.66 L 1099.28 216.53 L 1103.47 216.02 L 1107.66 218.46 L 1111.85 219.62 L 1116.04 203.54 L 1120.23 182.67 L 1124.42 184.45 L 1128.61 189.88 L 1132.80 181.79 L 1136.99 176.87 L 1141.18 174.70 L 1145.37 179.70 L 1149.56 173.63 L 1153.75 165.10 L 1157.94 159.09 L 1162.13 162.43 L 1166.32 157.20 L 1170.51 148.14 L 1174.69 155.01 L 1178.88 159.47 L 1183.07 155.12 L 1187.26 140.63 L 1191.45 137.26 L 1195.64 159.75 L 1199.83 156.24 L 1204.02 165.61 L 1208.21 182.49 L 1212.40 185.79 L 1216.59 162.38 L 1220.78 156.69 L 1224.97 154.09 L 1229.16 147.18 L 1233.35 154.57 L 1237.54 153.32 L 1241.73 145.46 L 1245.92 136.27 L 1250.11 147.55 L 1254.29 152.26 L 1258.48 153.23 L 1262.67 172.42 L 1266.86 179.75 L 1271.05 175.86 L 1275.24 193.86 L 1279.43 181.45 L 1283.62 178.54 L 1287.81 173.54 L 1292.00 187.85" fill="none" stroke="#1d4ed8" stroke-width="2"  />
<path d="M 98.00 354.88 L 102.19 355.56 L 106.38 350.01 L 110.57 343.43 L 114.76 344.30 L 118.95 346.21 L 123.14 346.16 L 127.33 352.24 L 131.52 354.15 L 135.71 349.20 L 139.89 344.38 L 144.08 344.50 L 148.27 336.96 L 152.46 336.91 L 156.65 332.54 L 160.84 329.04 L 165.03 331.36 L 169.22 338.07 L 173.41 363.15 L 177.60 348.51 L 181.79 346.07 L 185.98 349.52 L 190.17 345.73 L 194.36 347.41 L 198.55 345.12 L 202.74 344.32 L 206.93 344.29 L 211.12 343.22 L 215.31 340.19 L 219.49 333.99 L 223.68 334.74 L 227.87 338.62 L 232.06 344.83 L 236.25 350.70 L 240.44 345.16 L 244.63 359.65 L 248.82 361.47 L 253.01 371.75 L 257.20 368.16 L 261.39 364.38 L 265.58 371.14 L 269.77 367.26 L 273.96 378.38 L 278.15 379.91 L 282.34 375.52 L 286.53 378.69 L 290.72 369.42 L 294.91 367.63 L 299.09 370.14 L 303.28 369.11 L 307.47 371.28 L 311.66 375.10 L 315.85 368.14 L 320.04 371.08 L 324.23 378.64 L 328.42 383.32 L 332.61 391.32 L 336.80 392.40 L 340.99 391.29 L 345.18 391.34 L 349.37 413.17 L 353.56 431.03 L 357.75 433.29 L 361.94 398.96 L 366.13 413.40 L 370.32 406.31 L 374.51 405.19 L 378.69 405.77 L 382.88 413.16 L 387.07 414.41 L 391.26 415.15 L 395.45 418.25 L 399.64 414.16 L 403.83 405.96 L 408.02 395.95 L 412.21 393.52 L 416.40 394.51 L 420.59 395.35 L 424.78 393.11 L 428.97 387.79 L 433.16 383.98 L 437.35 381.37 L 441.54 379.87 L 445.73 363.53 L 449.92 356.96 L 454.11 354.97 L 458.29 357.94 L 462.48 359.47 L 466.67 360.57 L 470.86 360.66 L 475.05 366.25 L 479.24 368.40 L 483.43 372.80 L 487.62 372.63 L 491.81 365.34 L 496.00 367.73 L 500.19 365.20 L 504.38 370.78 L 508.57 360.68 L 512.76 356.66 L 516.95 356.32 L 521.14 354.26 L 525.33 349.02 L 529.52 345.52 L 533.71 345.98 L 537.89 346.62 L 542.08 352.95 L 546.27 345.67 L 550.46 347.91 L 554.65 346.08 L 558.84 346.26 L 563.03 348.62 L 567.22 345.36 L 571.41 334.24 L 575.60 330.20 L 579.79 328.47 L 583.98 328.22 L 588.17 327.34 L 592.36 329.44 L 596.55 325.66 L 600.74 323.70 L 604.93 323.87 L 609.12 328.72 L 613.31 323.19 L 617.49 322.42 L 621.68 320.92 L 625.87 320.70 L 630.06 323.09 L 634.25 320.33 L 638.44 320.90 L 642.63 318.64 L 646.82 318.32 L 651.01 318.16 L 655.20 323.03 L 659.39 323.19 L 663.58 322.23 L 667.77 320.30 L 671.96 315.44 L 676.15 313.56 L 680.34 313.16 L 684.53 322.78 L 688.72 327.16 L 692.91 321.92 L 697.09 324.43 L 701.28 324.54 L 705.47 320.59 L 709.66 319.66 L 713.85 319.08 L 718.04 308.58 L 722.23 305.45 L 726.42 305.02 L 730.61 310.19 L 734.80 307.89 L 738.99 313.98 L 743.18 312.20 L 747.37 313.01 L 751.56 297.24 L 755.75 295.77 L 759.94 293.30 L 764.13 292.34 L 768.32 285.29 L 772.51 296.23 L 776.69 294.96 L 780.88 301.03 L 785.07 303.57 L 789.26 305.26 L 793.45 298.39 L 797.64 295.29 L 801.83 296.02 L 806.02 289.38 L 810.21 281.50 L 814.40 279.31 L 818.59 276.00 L 822.78 273.94 L 826.97 272.67 L 831.16 259.66 L 835.35 262.54 L 839.54 254.02 L 843.73 255.03 L 847.92 252.05 L 852.11 252.96 L 856.29 253.28 L 860.48 251.98 L 864.67 245.32 L 868.86 224.48 L 873.05 249.59 L 877.24 234.52 L 881.43 245.30 L 885.62 234.88 L 889.81 233.93 L 894.00 238.72 L 898.19 232.37 L 902.38 231.90 L 906.57 239.05 L 910.76 232.24 L 914.95 221.48 L 919.14 211.18 L 923.33 210.62 L 927.52 205.29 L 931.71 212.14 L 935.89 214.96 L 940.08 214.86 L 944.27 227.62 L 948.46 220.06 L 952.65 223.34 L 956.84 227.06 L 961.03 218.53 L 965.22 227.63 L 969.41 225.14 L 973.60 234.95 L 977.79 240.21 L 981.98 246.68 L 986.17 252.11 L 990.36 248.87 L 994.55 263.90 L 998.74 264.20 L 1002.93 250.46 L 1007.12 247.42 L 1011.31 239.02 L 1015.49 238.72 L 1019.68 231.21 L 1023.87 229.52 L 1028.06 224.05 L 1032.25 218.44 L 1036.44 218.42 L 1040.63 215.11 L 1044.82 208.58 L 1049.01 208.29 L 1053.20 203.01 L 1057.39 208.54 L 1061.58 223.79 L 1065.77 228.32 L 1069.96 233.80 L 1074.15 242.32 L 1078.34 235.23 L 1082.53 226.46 L 1086.72 219.21 L 1090.91 216.78 L 1095.09 215.32 L 1099.28 215.82 L 1103.47 215.60 L 1107.66 217.30 L 1111.85 216.80 L 1116.04 221.23 L 1120.23 197.41 L 1124.42 184.39 L 1128.61 185.44 L 1132.80 190.26 L 1136.99 179.81 L 1141.18 176.33 L 1145.37 177.85 L 1149.56 177.03 L 1153.75 168.62 L 1157.94 160.43 L 1162.13 161.47 L 1166.32 167.66 L 1170.51 150.82 L 1174.69 151.36 L 1178.88 157.55 L 1183.07 161.44 L 1187.26 149.84 L 1191.45 139.19 L 1195.64 143.53 L 1199.83 157.60 L 1204.02 157.97 L 1208.21 165.37 L 1212.40 183.01 L 1216.59 182.12 L 1220.78 162.23 L 1224.97 153.88 L 1229.16 154.31 L 1233.35 146.76 L 1237.54 153.25 L 1241.73 150.54 L 1245.92 140.63 L 1250.11 135.00 L 1254.29 147.41 L 1258.48 153.73 L 1262.67 155.15 L 1266.86 179.23 L 1271.05 173.46 L 1275.24 178.19 L 1279.43 192.39 L 1283.62 180.81 L 1287.81 175.58 L 1292.00 175.00" fill="none" stroke="#b45309" stroke-width="2" stroke-dasharray="6 4" />
  </g>
  <g>
    <text x="54" y="538" fill="#1f2937" font-size="16" font-weight="700">B. 绝对误差（越低越好）</text>
    <line x1="98" y1="540" x2="124" y2="540" stroke="#1d4ed8" stroke-width="2"  />
      <text x="130" y="544" fill="#24312e" font-size="12">持仓分段误差</text>
<line x1="313" y1="540" x2="339" y2="540" stroke="#b45309" stroke-width="2" stroke-dasharray="6 4" />
      <text x="345" y="544" fill="#24312e" font-size="12">持仓双目标误差</text>
    <line x1="98" y1="560.00" x2="1292" y2="560.00" stroke="#d7e3df" stroke-width="1" />
      <text x="90" y="564.00" text-anchor="end" fill="#5b6b68" font-size="11">12.37%</text>
<line x1="98" y1="630.00" x2="1292" y2="630.00" stroke="#d7e3df" stroke-width="1" />
      <text x="90" y="634.00" text-anchor="end" fill="#5b6b68" font-size="11">9.28%</text>
<line x1="98" y1="700.00" x2="1292" y2="700.00" stroke="#d7e3df" stroke-width="1" />
      <text x="90" y="704.00" text-anchor="end" fill="#5b6b68" font-size="11">6.19%</text>
<line x1="98" y1="770.00" x2="1292" y2="770.00" stroke="#d7e3df" stroke-width="1" />
      <text x="90" y="774.00" text-anchor="end" fill="#5b6b68" font-size="11">3.09%</text>
<line x1="98" y1="840.00" x2="1292" y2="840.00" stroke="#d7e3df" stroke-width="1" />
      <text x="90" y="844.00" text-anchor="end" fill="#5b6b68" font-size="11">0.00%</text>
    <line x1="98.00" y1="560" x2="98.00" y2="840" stroke="#eef3f1" stroke-width="1" />
      <text x="98.00" y="868" text-anchor="middle" fill="#5b6b68" font-size="11">25-01-02</text>
<line x1="290.72" y1="560" x2="290.72" y2="840" stroke="#eef3f1" stroke-width="1" />
      <text x="290.72" y="868" text-anchor="middle" fill="#5b6b68" font-size="11">25-03-17</text>
<line x1="479.24" y1="560" x2="479.24" y2="840" stroke="#eef3f1" stroke-width="1" />
      <text x="479.24" y="868" text-anchor="middle" fill="#5b6b68" font-size="11">25-05-23</text>
<line x1="697.09" y1="560" x2="697.09" y2="840" stroke="#eef3f1" stroke-width="1" />
      <text x="697.09" y="868" text-anchor="middle" fill="#5b6b68" font-size="11">25-08-06</text>
<line x1="910.76" y1="560" x2="910.76" y2="840" stroke="#eef3f1" stroke-width="1" />
      <text x="910.76" y="868" text-anchor="middle" fill="#5b6b68" font-size="11">25-10-24</text>
<line x1="1099.28" y1="560" x2="1099.28" y2="840" stroke="#eef3f1" stroke-width="1" />
      <text x="1099.28" y="868" text-anchor="middle" fill="#5b6b68" font-size="11">25-12-26</text>
<line x1="1292.00" y1="560" x2="1292.00" y2="840" stroke="#eef3f1" stroke-width="1" />
      <text x="1292.00" y="868" text-anchor="middle" fill="#5b6b68" font-size="11">26-03-12</text>
    <line x1="1116.04" y1="560" x2="1116.04" y2="840" stroke="#f59e0b" stroke-width="1.4" stroke-dasharray="4 4" />
       <text x="1122.04" y="552" fill="#a16207" font-size="11">验证起点</text>
    <path d="M 98.00 822.63 L 102.19 809.78 L 106.38 832.91 L 110.57 830.74 L 114.76 837.42 L 118.95 837.13 L 123.14 802.90 L 127.33 837.00 L 131.52 819.25 L 135.71 825.71 L 139.89 825.49 L 144.08 839.85 L 148.27 836.79 L 152.46 813.28 L 156.65 838.97 L 160.84 825.92 L 165.03 822.28 L 169.22 820.31 L 173.41 812.41 L 177.60 839.96 L 181.79 832.75 L 185.98 831.63 L 190.17 826.78 L 194.36 825.53 L 198.55 827.49 L 202.74 839.45 L 206.93 836.29 L 211.12 825.88 L 215.31 821.10 L 219.49 832.25 L 223.68 797.87 L 227.87 827.33 L 232.06 836.19 L 236.25 829.67 L 240.44 816.06 L 244.63 826.45 L 248.82 831.60 L 253.01 817.06 L 257.20 836.86 L 261.39 810.89 L 265.58 831.04 L 269.77 835.91 L 273.96 834.97 L 278.15 829.76 L 282.34 813.61 L 286.53 834.95 L 290.72 829.13 L 294.91 834.39 L 299.09 837.29 L 303.28 829.02 L 307.47 820.59 L 311.66 817.10 L 315.85 819.77 L 320.04 832.73 L 324.23 828.58 L 328.42 836.67 L 332.61 839.51 L 336.80 838.43 L 340.99 839.00 L 345.18 798.75 L 349.37 809.22 L 353.56 806.48 L 357.75 793.12 L 361.94 835.13 L 366.13 791.63 L 370.32 833.20 L 374.51 831.02 L 378.69 825.51 L 382.88 835.15 L 387.07 835.79 L 391.26 815.80 L 395.45 837.54 L 399.64 832.87 L 403.83 811.19 L 408.02 833.90 L 412.21 835.32 L 416.40 838.67 L 420.59 832.84 L 424.78 818.72 L 428.97 839.19 L 433.16 839.89 L 437.35 829.17 L 441.54 834.31 L 445.73 824.28 L 449.92 839.15 L 454.11 822.08 L 458.29 835.30 L 462.48 838.33 L 466.67 838.44 L 470.86 831.53 L 475.05 838.41 L 479.24 829.31 L 483.43 831.57 L 487.62 793.26 L 491.81 823.34 L 496.00 824.87 L 500.19 813.23 L 504.38 828.36 L 508.57 839.61 L 512.76 839.19 L 516.95 838.65 L 521.14 831.65 L 525.33 826.42 L 529.52 833.58 L 533.71 836.46 L 537.89 835.93 L 542.08 815.25 L 546.27 823.84 L 550.46 831.57 L 554.65 838.55 L 558.84 825.36 L 563.03 833.43 L 567.22 835.44 L 571.41 837.69 L 575.60 836.98 L 579.79 838.47 L 583.98 839.85 L 588.17 829.52 L 592.36 835.47 L 596.55 837.56 L 600.74 838.33 L 604.93 804.99 L 609.12 821.03 L 613.31 831.90 L 617.49 839.74 L 621.68 838.05 L 625.87 829.85 L 630.06 833.52 L 634.25 834.55 L 638.44 833.82 L 642.63 838.78 L 646.82 839.79 L 651.01 825.00 L 655.20 835.16 L 659.39 835.24 L 663.58 833.68 L 667.77 830.75 L 671.96 838.28 L 676.15 835.14 L 680.34 828.88 L 684.53 830.38 L 688.72 820.02 L 692.91 827.47 L 697.09 837.67 L 701.28 831.22 L 705.47 832.69 L 709.66 836.19 L 713.85 823.77 L 718.04 839.18 L 722.23 839.06 L 726.42 839.92 L 730.61 827.69 L 734.80 817.67 L 738.99 820.45 L 743.18 832.22 L 747.37 789.88 L 751.56 830.40 L 755.75 839.92 L 759.94 837.69 L 764.13 805.25 L 768.32 820.41 L 772.51 824.62 L 776.69 804.26 L 780.88 830.38 L 785.07 816.48 L 789.26 816.16 L 793.45 837.90 L 797.64 827.64 L 801.83 822.12 L 806.02 815.04 L 810.21 839.83 L 814.40 837.21 L 818.59 836.18 L 822.78 838.69 L 826.97 836.84 L 831.16 816.85 L 835.35 814.00 L 839.54 829.78 L 843.73 822.14 L 847.92 834.75 L 852.11 833.55 L 856.29 838.70 L 860.48 828.41 L 864.67 832.46 L 868.86 822.40 L 873.05 825.06 L 877.24 801.13 L 881.43 830.58 L 885.62 830.83 L 889.81 816.83 L 894.00 826.83 L 898.19 834.10 L 902.38 837.14 L 906.57 835.79 L 910.76 816.96 L 914.95 829.52 L 919.14 829.24 L 923.33 833.03 L 927.52 816.82 L 931.71 826.61 L 935.89 832.93 L 940.08 832.37 L 944.27 839.14 L 948.46 825.21 L 952.65 829.15 L 956.84 826.22 L 961.03 825.58 L 965.22 831.32 L 969.41 825.27 L 973.60 825.38 L 977.79 821.23 L 981.98 831.11 L 986.17 831.93 L 990.36 836.48 L 994.55 833.32 L 998.74 838.34 L 1002.93 837.30 L 1007.12 838.30 L 1011.31 835.80 L 1015.49 804.82 L 1019.68 835.87 L 1023.87 838.16 L 1028.06 833.57 L 1032.25 839.24 L 1036.44 837.45 L 1040.63 827.36 L 1044.82 833.57 L 1049.01 831.41 L 1053.20 821.25 L 1057.39 820.68 L 1061.58 829.81 L 1065.77 826.79 L 1069.96 821.33 L 1074.15 836.88 L 1078.34 832.88 L 1082.53 828.30 L 1086.72 839.62 L 1090.91 836.51 L 1095.09 837.42 L 1099.28 838.99 L 1103.47 830.69 L 1107.66 834.61 L 1111.85 822.20 L 1116.04 820.64 L 1120.23 830.12 L 1124.42 834.15 L 1128.61 831.20 L 1132.80 835.74 L 1136.99 837.78 L 1141.18 823.71 L 1145.37 834.73 L 1149.56 824.34 L 1153.75 822.82 L 1157.94 828.39 L 1162.13 810.74 L 1166.32 818.25 L 1170.51 825.17 L 1174.69 826.58 L 1178.88 825.45 L 1183.07 825.48 L 1187.26 838.35 L 1191.45 816.34 L 1195.64 837.01 L 1199.83 831.85 L 1204.02 837.69 L 1208.21 833.90 L 1212.40 834.93 L 1216.59 835.40 L 1220.78 831.82 L 1224.97 832.39 L 1229.16 839.02 L 1233.35 839.17 L 1237.54 835.38 L 1241.73 826.70 L 1245.92 834.69 L 1250.11 838.58 L 1254.29 829.94 L 1258.48 834.26 L 1262.67 805.32 L 1266.86 815.76 L 1271.05 831.74 L 1275.24 837.94 L 1279.43 838.07 L 1283.62 832.27 L 1287.81 834.38 L 1292.00 833.78" fill="none" stroke="#1d4ed8" stroke-width="2"  />
<path d="M 98.00 828.70 L 102.19 812.93 L 106.38 801.71 L 110.57 832.02 L 114.76 826.49 L 118.95 838.44 L 123.14 799.22 L 127.33 823.51 L 131.52 815.57 L 135.71 814.70 L 139.89 832.45 L 144.08 796.86 L 148.27 838.43 L 152.46 819.63 L 156.65 822.78 L 160.84 825.17 L 165.03 807.46 L 169.22 668.79 L 173.41 753.34 L 177.60 826.72 L 181.79 813.44 L 185.98 820.21 L 190.17 826.34 L 194.36 831.34 L 198.55 838.89 L 202.74 838.31 L 206.93 835.36 L 211.12 826.84 L 215.31 807.04 L 219.49 835.74 L 223.68 816.17 L 227.87 801.34 L 232.06 797.30 L 236.25 802.55 L 240.44 742.28 L 244.63 829.62 L 248.82 767.85 L 253.01 822.75 L 257.20 814.19 L 261.39 788.53 L 265.58 812.64 L 269.77 762.76 L 273.96 823.13 L 278.15 813.70 L 282.34 811.00 L 286.53 784.67 L 290.72 830.15 L 294.91 818.79 L 299.09 836.17 L 303.28 823.39 L 307.47 807.47 L 311.66 797.75 L 315.85 820.83 L 320.04 788.17 L 324.23 808.40 L 328.42 781.13 L 332.61 828.50 L 336.80 836.81 L 340.99 831.72 L 345.18 680.04 L 349.37 699.16 L 353.56 796.01 L 357.75 590.00 L 361.94 725.66 L 366.13 792.39 L 370.32 835.98 L 374.51 837.08 L 378.69 782.03 L 382.88 828.82 L 387.07 832.52 L 391.26 810.45 L 395.45 817.48 L 399.64 790.20 L 403.83 774.15 L 408.02 826.02 L 412.21 830.42 L 416.40 829.69 L 420.59 830.02 L 424.78 809.06 L 428.97 818.87 L 433.16 826.96 L 437.35 838.09 L 441.54 742.09 L 445.73 802.91 L 449.92 830.41 L 454.11 818.08 L 458.29 827.33 L 462.48 829.60 L 466.67 838.15 L 470.86 801.49 L 475.05 824.68 L 479.24 809.12 L 483.43 839.29 L 487.62 795.55 L 491.81 820.72 L 496.00 824.46 L 500.19 794.73 L 504.38 780.86 L 508.57 817.77 L 512.76 837.75 L 516.95 833.15 L 521.14 813.68 L 525.33 821.95 L 529.52 833.33 L 533.71 835.68 L 537.89 793.41 L 542.08 798.09 L 546.27 821.94 L 550.46 830.67 L 554.65 837.07 L 558.84 821.09 L 563.03 828.29 L 567.22 778.73 L 571.41 820.93 L 575.60 833.45 L 579.79 837.77 L 583.98 837.73 L 588.17 821.63 L 592.36 822.59 L 596.55 830.56 L 600.74 837.13 L 604.93 805.91 L 609.12 812.33 L 613.31 839.80 L 617.49 834.74 L 621.68 838.63 L 625.87 821.12 L 630.06 827.38 L 634.25 832.24 L 638.44 830.69 L 642.63 838.01 L 646.82 839.28 L 651.01 808.56 L 655.20 835.43 L 659.39 838.03 L 663.58 834.70 L 667.77 816.40 L 671.96 834.04 L 676.15 837.65 L 680.34 782.66 L 684.53 808.55 L 688.72 812.39 L 692.91 822.40 L 697.09 833.87 L 701.28 822.03 L 705.47 838.12 L 709.66 836.00 L 713.85 786.48 L 718.04 826.40 L 722.23 838.44 L 726.42 806.96 L 730.61 828.73 L 734.80 802.73 L 738.99 833.16 L 743.18 828.42 L 747.37 758.29 L 751.56 837.11 L 755.75 830.68 L 759.94 839.29 L 764.13 803.14 L 768.32 779.20 L 772.51 835.03 L 776.69 803.61 L 780.88 820.70 L 785.07 825.44 L 789.26 807.62 L 793.45 827.28 L 797.64 830.37 L 801.83 809.47 L 806.02 802.73 L 810.21 833.47 L 814.40 826.95 L 818.59 832.87 L 822.78 838.38 L 826.97 778.34 L 831.16 819.97 L 835.35 801.63 L 839.54 831.97 L 843.73 828.70 L 847.92 831.66 L 852.11 834.60 L 856.29 838.46 L 860.48 819.63 L 864.67 740.19 L 868.86 708.15 L 873.05 770.43 L 877.24 780.77 L 881.43 795.20 L 885.62 838.70 L 889.81 811.47 L 894.00 813.16 L 898.19 838.48 L 902.38 799.29 L 906.57 813.83 L 910.76 797.53 L 914.95 797.78 L 919.14 836.81 L 923.33 818.28 L 927.52 805.19 L 931.71 822.78 L 935.89 838.28 L 940.08 773.41 L 944.27 806.46 L 948.46 822.50 L 952.65 815.46 L 956.84 801.95 L 961.03 792.47 L 965.22 827.77 L 969.41 790.54 L 973.60 813.43 L 977.79 807.84 L 981.98 807.75 L 986.17 822.22 L 990.36 759.72 L 994.55 829.38 L 998.74 777.23 L 1002.93 832.11 L 1007.12 802.01 L 1011.31 839.56 L 1015.49 808.45 L 1019.68 838.06 L 1023.87 820.98 L 1028.06 817.21 L 1032.25 835.24 L 1036.44 830.09 L 1040.63 814.44 L 1044.82 835.75 L 1049.01 819.63 L 1053.20 817.75 L 1057.39 766.87 L 1061.58 816.16 L 1065.77 815.11 L 1069.96 792.64 L 1074.15 813.60 L 1078.34 804.49 L 1082.53 811.16 L 1086.72 832.89 L 1090.91 835.26 L 1095.09 835.88 L 1099.28 837.80 L 1103.47 828.81 L 1107.66 839.88 L 1111.85 809.25 L 1116.04 743.27 L 1120.23 787.14 L 1124.42 833.90 L 1128.61 812.06 L 1132.80 799.96 L 1136.99 829.89 L 1141.18 830.60 L 1145.37 837.51 L 1149.56 810.29 L 1153.75 808.51 L 1157.94 833.87 L 1162.13 806.79 L 1166.32 776.35 L 1170.51 835.91 L 1174.69 811.77 L 1178.88 817.62 L 1183.07 800.16 L 1187.26 802.19 L 1191.45 823.97 L 1195.64 777.14 L 1199.83 837.40 L 1204.02 810.97 L 1208.21 761.18 L 1212.40 833.25 L 1216.59 763.82 L 1220.78 809.52 L 1224.97 831.52 L 1229.16 810.73 L 1233.35 809.42 L 1237.54 835.66 L 1241.73 806.67 L 1245.92 817.72 L 1250.11 788.64 L 1254.29 810.41 L 1258.48 836.27 L 1262.67 732.40 L 1266.86 817.93 L 1271.05 821.66 L 1275.24 770.03 L 1279.43 795.61 L 1283.62 822.77 L 1287.81 837.08 L 1292.00 778.61" fill="none" stroke="#b45309" stroke-width="2" stroke-dasharray="6 4" />
  </g>
</svg>