<?xml version="1.0" encoding="UTF-8"?>
<svg xmlns="http://www.w3.org/2000/svg" width="1360" height="980" viewBox="0 0 1360 980">
  <defs>
    <linearGradient id="bg" x1="0" y1="0" x2="1" y2="1">
      <stop offset="0%" stop-color="#f4efe6" />
      <stop offset="100%" stop-color="#eef5f2" />
    </linearGradient>
  </defs>
  <rect x="0" y="0" width="1360" height="980" fill="url(#bg)" />
  <text x="46" y="36" fill="#1f2937" font-size="31" font-weight="700">501312 离线研究图（持仓逐日估值版）</text>
  <text x="46" y="66" fill="#5b6b68" font-size="13">历史前十大持仓 + 持仓逐日涨跌幅 + USDCNY；双目标 lambda=0.10；披露期数 11；覆盖率均值 92.1%</text>
  <g>
    <text x="54" y="110" fill="#1f2937" font-size="16" font-weight="700">A. 净值拟合（同日对齐，无平移）</text>
    <line x1="98" y1="112" x2="124" y2="112" stroke="#0f766e" stroke-width="2"  />
      <text x="130" y="116" fill="#24312e" font-size="12">真实净值</text>
<line x1="313" y1="112" x2="339" y2="112" stroke="#1d4ed8" stroke-width="2"  />
      <text x="345" y="116" fill="#24312e" font-size="12">持仓分段估值</text>
<line x1="528" y1="112" x2="554" y2="112" stroke="#b45309" stroke-width="2" stroke-dasharray="6 4" />
      <text x="560" y="116" fill="#24312e" font-size="12">持仓双目标估值</text>
    <line x1="98" y1="132.00" x2="1292" y2="132.00" stroke="#d7e3df" stroke-width="1" />
      <text x="90" y="136.00" text-anchor="end" fill="#5b6b68" font-size="11">2.166</text>
<line x1="98" y1="209.50" x2="1292" y2="209.50" stroke="#d7e3df" stroke-width="1" />
      <text x="90" y="213.50" text-anchor="end" fill="#5b6b68" font-size="11">1.934</text>
<line x1="98" y1="287.00" x2="1292" y2="287.00" stroke="#d7e3df" stroke-width="1" />
      <text x="90" y="291.00" text-anchor="end" fill="#5b6b68" font-size="11">1.702</text>
<line x1="98" y1="364.50" x2="1292" y2="364.50" stroke="#d7e3df" stroke-width="1" />
      <text x="90" y="368.50" text-anchor="end" fill="#5b6b68" font-size="11">1.470</text>
<line x1="98" y1="442.00" x2="1292" y2="442.00" stroke="#d7e3df" stroke-width="1" />
      <text x="90" y="446.00" text-anchor="end" fill="#5b6b68" font-size="11">1.238</text>
    <line x1="98.00" y1="132" x2="98.00" y2="442" stroke="#eef3f1" stroke-width="1" />
      <text x="98.00" y="470" text-anchor="middle" fill="#5b6b68" font-size="11">25-01-02</text>
<line x1="290.72" y1="132" x2="290.72" y2="442" stroke="#eef3f1" stroke-width="1" />
      <text x="290.72" y="470" text-anchor="middle" fill="#5b6b68" font-size="11">25-03-17</text>
<line x1="479.24" y1="132" x2="479.24" y2="442" stroke="#eef3f1" stroke-width="1" />
      <text x="479.24" y="470" text-anchor="middle" fill="#5b6b68" font-size="11">25-05-23</text>
<line x1="697.09" y1="132" x2="697.09" y2="442" stroke="#eef3f1" stroke-width="1" />
      <text x="697.09" y="470" text-anchor="middle" fill="#5b6b68" font-size="11">25-08-06</text>
<line x1="910.76" y1="132" x2="910.76" y2="442" stroke="#eef3f1" stroke-width="1" />
      <text x="910.76" y="470" text-anchor="middle" fill="#5b6b68" font-size="11">25-10-24</text>
<line x1="1099.28" y1="132" x2="1099.28" y2="442" stroke="#eef3f1" stroke-width="1" />
      <text x="1099.28" y="470" text-anchor="middle" fill="#5b6b68" font-size="11">25-12-26</text>
<line x1="1292.00" y1="132" x2="1292.00" y2="442" stroke="#eef3f1" stroke-width="1" />
      <text x="1292.00" y="470" text-anchor="middle" fill="#5b6b68" font-size="11">26-03-12</text>
    <line x1="1116.04" y1="132" x2="1116.04" y2="442" stroke="#f59e0b" stroke-width="1.4" stroke-dasharray="4 4" />
       <text x="1122.04" y="124" fill="#a16207" font-size="11">验证起点</text>
    <path d="M 98.00 313.28 L 102.19 295.77 L 106.38 286.18 L 110.57 298.34 L 114.76 299.78 L 118.95 299.81 L 123.14 311.97 L 127.33 316.58 L 131.52 318.99 L 135.71 304.82 L 139.89 305.26 L 144.08 298.97 L 148.27 299.04 L 152.46 285.07 L 156.65 275.78 L 160.84 272.31 L 165.03 277.25 L 169.22 298.77 L 173.41 278.09 L 177.60 282.73 L 181.79 287.01 L 185.98 283.57 L 190.17 289.28 L 194.36 284.87 L 198.55 273.98 L 202.74 263.59 L 206.93 263.65 L 211.12 261.05 L 215.31 261.52 L 219.49 270.17 L 223.68 292.59 L 227.87 302.52 L 232.06 317.92 L 236.25 311.51 L 240.44 330.59 L 244.63 324.87 L 248.82 344.22 L 253.01 342.21 L 257.20 332.09 L 261.39 350.50 L 265.58 345.39 L 269.77 372.42 L 273.96 370.98 L 278.15 361.53 L 282.34 373.96 L 286.53 358.62 L 290.72 351.74 L 294.91 362.16 L 299.09 353.48 L 303.28 355.98 L 307.47 351.90 L 311.66 336.73 L 315.85 338.37 L 320.04 354.28 L 324.23 360.39 L 328.42 375.13 L 332.61 381.21 L 336.80 381.08 L 340.99 373.06 L 345.18 404.43 L 349.37 428.33 L 353.56 439.92 L 357.75 384.35 L 361.94 408.51 L 366.13 394.78 L 370.32 391.10 L 374.51 389.70 L 378.69 402.66 L 382.88 403.93 L 387.07 404.07 L 391.26 412.59 L 395.45 400.26 L 399.64 386.59 L 403.83 369.78 L 408.02 364.34 L 412.21 364.47 L 416.40 363.47 L 420.59 366.14 L 424.78 370.78 L 428.97 365.40 L 433.16 354.74 L 437.35 356.45 L 441.54 332.79 L 445.73 321.40 L 449.92 322.06 L 454.11 323.94 L 458.29 317.65 L 462.48 321.53 L 466.67 321.20 L 470.86 333.93 L 475.05 332.36 L 479.24 335.13 L 483.43 335.80 L 487.62 320.79 L 491.81 326.14 L 496.00 326.58 L 500.19 330.69 L 504.38 316.45 L 508.57 312.61 L 512.76 319.12 L 516.95 303.82 L 521.14 296.00 L 525.33 290.85 L 529.52 289.89 L 533.71 294.73 L 537.89 301.21 L 542.08 288.21 L 546.27 294.60 L 550.46 286.68 L 554.65 286.94 L 558.84 289.28 L 563.03 284.41 L 567.22 272.58 L 571.41 272.07 L 575.60 264.22 L 579.79 266.19 L 583.98 263.55 L 588.17 271.61 L 592.36 260.68 L 596.55 255.77 L 600.74 255.67 L 604.93 265.02 L 609.12 258.98 L 613.31 250.59 L 617.49 247.88 L 621.68 254.36 L 625.87 251.42 L 630.06 254.60 L 634.25 245.74 L 638.44 241.53 L 642.63 237.52 L 646.82 238.73 L 651.01 239.76 L 655.20 231.34 L 659.39 237.39 L 663.58 234.78 L 667.77 234.25 L 671.96 243.30 L 676.15 241.47 L 680.34 248.52 L 684.53 263.15 L 688.72 249.79 L 692.91 255.03 L 697.09 254.03 L 701.28 252.29 L 705.47 248.45 L 709.66 249.05 L 713.85 236.52 L 718.04 228.43 L 722.23 232.24 L 726.42 234.08 L 730.61 234.38 L 734.80 250.22 L 738.99 253.76 L 743.18 255.43 L 747.37 238.19 L 751.56 243.77 L 755.75 239.53 L 759.94 241.97 L 764.13 238.69 L 768.32 247.01 L 772.51 246.68 L 776.69 250.45 L 780.88 249.79 L 785.07 247.85 L 789.26 242.10 L 793.45 238.49 L 797.64 237.16 L 801.83 239.16 L 806.02 225.96 L 810.21 226.70 L 814.40 218.58 L 818.59 213.46 L 822.78 215.67 L 826.97 198.36 L 831.16 193.21 L 835.35 187.00 L 839.54 192.08 L 843.73 196.52 L 847.92 202.14 L 852.11 197.79 L 856.29 190.27 L 860.48 186.46 L 864.67 146.10 L 868.86 176.17 L 873.05 163.41 L 877.24 166.98 L 881.43 153.12 L 885.62 160.17 L 889.81 166.31 L 894.00 145.33 L 898.19 151.95 L 902.38 169.59 L 906.57 157.49 L 910.76 148.60 L 914.95 143.22 L 919.14 146.26 L 923.33 144.03 L 927.52 155.55 L 931.71 143.49 L 935.89 144.46 L 940.08 166.35 L 944.27 160.63 L 948.46 180.45 L 952.65 183.46 L 956.84 170.69 L 961.03 174.57 L 965.22 176.61 L 969.41 196.96 L 973.60 198.13 L 977.79 205.48 L 981.98 211.16 L 986.17 208.52 L 990.36 223.12 L 994.55 213.23 L 998.74 194.08 L 1002.93 188.64 L 1007.12 183.46 L 1011.31 183.66 L 1015.49 177.27 L 1019.68 185.80 L 1023.87 182.12 L 1028.06 170.96 L 1032.25 162.10 L 1036.44 164.61 L 1040.63 162.34 L 1044.82 162.20 L 1049.01 157.76 L 1053.20 161.50 L 1057.39 176.27 L 1061.58 182.49 L 1065.77 182.96 L 1069.96 197.76 L 1074.15 190.11 L 1078.34 177.68 L 1082.53 167.45 L 1086.72 170.19 L 1090.91 169.76 L 1095.09 170.46 L 1099.28 175.17 L 1103.47 179.95 L 1107.66 182.55 L 1111.85 188.27 L 1116.04 163.51 L 1120.23 151.11 L 1124.42 151.75 L 1128.61 159.00 L 1132.80 155.02 L 1136.99 143.89 L 1141.18 143.89 L 1145.37 142.66 L 1149.56 144.49 L 1153.75 143.22 L 1157.94 143.56 L 1162.13 159.36 L 1166.32 148.34 L 1170.51 135.94 L 1174.69 146.53 L 1178.88 151.01 L 1183.07 145.13 L 1187.26 147.63 L 1191.45 153.95 L 1195.64 173.13 L 1199.83 172.26 L 1204.02 178.48 L 1208.21 202.70 L 1212.40 221.52 L 1216.59 192.65 L 1220.78 181.92 L 1224.97 184.53 L 1229.16 187.87 L 1233.35 203.17 L 1237.54 195.95 L 1241.73 183.09 L 1245.92 177.21 L 1250.11 175.97 L 1254.29 185.46 L 1258.48 183.36 L 1262.67 201.27 L 1266.86 188.94 L 1271.05 197.36 L 1275.24 209.99 L 1279.43 195.99 L 1283.62 202.84 L 1287.81 202.34 L 1292.00 219.88" fill="none" stroke="#0f766e" stroke-width="2"  />
<path d="M 98.00 314.23 L 102.19 292.88 L 106.38 290.30 L 110.57 298.00 L 114.76 299.17 L 118.95 300.15 L 123.14 300.37 L 127.33 315.19 L 131.52 316.93 L 135.71 309.25 L 139.89 304.84 L 144.08 301.19 L 148.27 300.19 L 152.46 300.31 L 156.65 280.41 L 160.84 273.15 L 165.03 275.33 L 169.22 296.83 L 173.41 284.12 L 177.60 280.62 L 181.79 285.01 L 185.98 284.04 L 190.17 289.26 L 194.36 284.85 L 198.55 278.48 L 202.74 267.39 L 206.93 262.91 L 211.12 263.27 L 215.31 260.77 L 219.49 267.67 L 223.68 295.62 L 227.87 298.58 L 232.06 315.21 L 236.25 314.21 L 240.44 330.02 L 244.63 326.51 L 248.82 339.92 L 253.01 343.97 L 257.20 336.38 L 261.39 350.88 L 265.58 346.96 L 269.77 369.62 L 273.96 371.95 L 278.15 363.95 L 282.34 372.86 L 286.53 362.21 L 290.72 354.06 L 294.91 358.84 L 299.09 355.46 L 303.28 354.47 L 307.47 352.85 L 311.66 342.94 L 315.85 336.61 L 320.04 353.11 L 324.23 357.51 L 328.42 374.54 L 332.61 380.32 L 336.80 379.88 L 340.99 374.17 L 345.18 407.16 L 349.37 428.99 L 353.56 437.26 L 357.75 387.96 L 361.94 410.31 L 366.13 400.21 L 370.32 391.76 L 374.51 389.58 L 378.69 401.92 L 382.88 402.59 L 387.07 404.02 L 391.26 403.68 L 395.45 402.61 L 399.64 390.93 L 403.83 373.19 L 408.02 365.88 L 412.21 364.30 L 416.40 363.13 L 420.59 364.08 L 424.78 372.17 L 428.97 367.54 L 433.16 356.51 L 437.35 354.49 L 441.54 340.15 L 445.73 321.49 L 449.92 320.24 L 454.11 322.62 L 458.29 317.54 L 462.48 319.50 L 466.67 321.03 L 470.86 331.87 L 475.05 332.62 L 479.24 334.66 L 483.43 335.00 L 487.62 335.85 L 491.81 323.16 L 496.00 325.28 L 500.19 328.20 L 504.38 322.12 L 508.57 313.67 L 512.76 316.16 L 516.95 303.40 L 521.14 296.76 L 525.33 292.81 L 529.52 290.02 L 533.71 294.44 L 537.89 299.47 L 542.08 292.10 L 546.27 291.55 L 550.46 286.21 L 554.65 287.10 L 558.84 287.54 L 563.03 284.92 L 567.22 275.13 L 571.41 271.70 L 575.60 267.52 L 579.79 265.10 L 583.98 263.52 L 588.17 268.20 L 592.36 265.71 L 596.55 257.44 L 600.74 255.89 L 604.93 254.95 L 609.12 261.70 L 613.31 254.46 L 617.49 248.83 L 621.68 250.75 L 625.87 251.98 L 630.06 251.09 L 634.25 245.44 L 638.44 241.80 L 642.63 238.89 L 646.82 239.95 L 651.01 239.78 L 655.20 231.85 L 659.39 236.89 L 663.58 235.56 L 667.77 234.92 L 671.96 242.10 L 676.15 241.46 L 680.34 245.55 L 684.53 262.79 L 688.72 255.37 L 692.91 252.37 L 697.09 254.25 L 701.28 252.72 L 705.47 250.19 L 709.66 247.85 L 713.85 240.50 L 718.04 232.42 L 722.23 230.19 L 726.42 233.45 L 730.61 232.61 L 734.80 250.44 L 738.99 252.16 L 743.18 254.33 L 747.37 238.47 L 751.56 241.46 L 755.75 241.28 L 759.94 239.35 L 764.13 240.22 L 768.32 243.64 L 772.51 247.47 L 776.69 246.89 L 780.88 250.16 L 785.07 247.92 L 789.26 244.89 L 793.45 239.21 L 797.64 237.46 L 801.83 237.09 L 806.02 228.02 L 810.21 225.55 L 814.40 221.19 L 818.59 216.50 L 822.78 214.31 L 826.97 199.30 L 831.16 195.62 L 835.35 187.86 L 839.54 189.78 L 843.73 193.91 L 847.92 199.80 L 852.11 199.82 L 856.29 191.02 L 860.48 187.98 L 864.67 138.76 L 868.86 185.29 L 873.05 166.34 L 877.24 165.66 L 881.43 156.36 L 885.62 158.79 L 889.81 165.53 L 894.00 149.33 L 898.19 147.70 L 902.38 170.62 L 906.57 158.13 L 910.76 151.08 L 914.95 145.68 L 919.14 146.63 L 923.33 144.54 L 927.52 154.47 L 931.71 142.88 L 935.89 143.08 L 940.08 172.69 L 944.27 161.60 L 948.46 186.85 L 952.65 181.27 L 956.84 174.12 L 961.03 173.51 L 965.22 174.02 L 969.41 205.91 L 973.60 196.86 L 977.79 201.86 L 981.98 209.68 L 986.17 208.63 L 990.36 224.96 L 994.55 217.58 L 998.74 196.84 L 1002.93 190.85 L 1007.12 183.89 L 1011.31 183.35 L 1015.49 183.85 L 1019.68 181.68 L 1023.87 182.63 L 1028.06 168.71 L 1032.25 158.91 L 1036.44 161.84 L 1040.63 161.75 L 1044.82 161.43 L 1049.01 158.60 L 1053.20 158.99 L 1057.39 176.50 L 1061.58 181.29 L 1065.77 181.99 L 1069.96 196.81 L 1074.15 192.31 L 1078.34 181.14 L 1082.53 169.22 L 1086.72 167.48 L 1090.91 169.37 L 1095.09 170.12 L 1099.28 170.84 L 1103.47 176.91 L 1107.66 182.16 L 1111.85 185.74 L 1116.04 159.21 L 1120.23 156.86 L 1124.42 151.06 L 1128.61 155.61 L 1132.80 155.08 L 1136.99 147.95 L 1141.18 144.30 L 1145.37 144.28 L 1149.56 144.42 L 1153.75 142.87 L 1157.94 144.01 L 1162.13 144.16 L 1166.32 153.72 L 1170.51 143.67 L 1174.69 143.12 L 1178.88 150.95 L 1183.07 147.33 L 1187.26 144.48 L 1191.45 151.33 L 1195.64 172.11 L 1199.83 175.21 L 1204.02 178.26 L 1208.21 201.24 L 1212.40 222.57 L 1216.59 191.44 L 1220.78 185.17 L 1224.97 182.94 L 1229.16 189.78 L 1233.35 203.24 L 1237.54 195.33 L 1241.73 188.35 L 1245.92 177.96 L 1250.11 171.98 L 1254.29 182.16 L 1258.48 182.32 L 1262.67 195.78 L 1266.86 193.60 L 1271.05 192.34 L 1275.24 207.21 L 1279.43 201.44 L 1283.62 202.16 L 1287.81 202.26 L 1292.00 221.61" fill="none" stroke="#1d4ed8" stroke-width="2"  />
<path d="M 98.00 316.52 L 102.19 312.10 L 106.38 294.90 L 110.57 286.21 L 114.76 297.98 L 118.95 300.13 L 123.14 300.16 L 127.33 311.72 L 131.52 316.14 L 135.71 317.93 L 139.89 304.38 L 144.08 304.48 L 148.27 299.33 L 152.46 299.39 L 156.65 284.24 L 160.84 275.18 L 165.03 272.02 L 169.22 277.83 L 173.41 297.51 L 177.60 277.71 L 181.79 282.45 L 185.98 286.30 L 190.17 283.33 L 194.36 288.69 L 198.55 283.99 L 202.74 273.22 L 206.93 263.96 L 211.12 264.03 L 215.31 260.61 L 219.49 261.27 L 223.68 270.55 L 227.87 292.57 L 232.06 302.58 L 236.25 317.22 L 240.44 311.87 L 244.63 329.90 L 248.82 325.18 L 253.01 343.79 L 257.20 341.34 L 261.39 332.40 L 265.58 349.83 L 269.77 346.05 L 273.96 372.00 L 278.15 370.20 L 282.34 361.59 L 286.53 372.91 L 290.72 357.92 L 294.91 351.73 L 299.09 361.41 L 303.28 353.19 L 307.47 355.49 L 311.66 350.88 L 315.85 336.35 L 320.04 338.56 L 324.23 354.11 L 328.42 360.62 L 332.61 374.94 L 336.80 380.76 L 340.99 380.37 L 345.18 374.05 L 349.37 405.24 L 353.56 428.44 L 357.75 437.12 L 361.94 385.00 L 366.13 407.60 L 370.32 394.24 L 374.51 390.65 L 378.69 389.88 L 382.88 402.31 L 387.07 404.22 L 391.26 404.35 L 395.45 411.70 L 399.64 399.31 L 403.83 385.50 L 408.02 369.12 L 412.21 363.95 L 416.40 363.98 L 420.59 363.15 L 424.78 365.68 L 428.97 370.18 L 433.16 364.61 L 437.35 354.37 L 441.54 355.02 L 445.73 331.84 L 449.92 320.92 L 454.11 321.71 L 458.29 323.27 L 462.48 317.33 L 466.67 321.10 L 470.86 321.26 L 475.05 333.42 L 479.24 332.07 L 483.43 335.46 L 487.62 336.13 L 491.81 320.57 L 496.00 325.69 L 500.19 326.31 L 504.38 329.66 L 508.57 315.82 L 512.76 312.37 L 516.95 318.16 L 521.14 303.05 L 525.33 295.32 L 529.52 290.36 L 533.71 289.54 L 537.89 294.62 L 542.08 300.22 L 546.27 288.01 L 550.46 293.89 L 554.65 287.04 L 558.84 287.30 L 563.03 288.59 L 567.22 283.33 L 571.41 272.05 L 575.60 271.24 L 579.79 263.76 L 583.98 265.55 L 588.17 263.39 L 592.36 270.70 L 596.55 259.95 L 600.74 256.15 L 604.93 256.05 L 609.12 264.32 L 613.31 258.19 L 617.49 249.99 L 621.68 247.60 L 625.87 253.77 L 630.06 250.95 L 634.25 253.80 L 638.44 244.97 L 642.63 240.95 L 646.82 237.05 L 651.01 238.31 L 655.20 238.89 L 659.39 230.99 L 663.58 236.79 L 667.77 234.21 L 671.96 234.01 L 676.15 242.70 L 680.34 241.29 L 684.53 248.62 L 688.72 262.06 L 692.91 249.50 L 697.09 254.50 L 701.28 253.43 L 705.47 251.66 L 709.66 248.01 L 713.85 248.02 L 718.04 235.70 L 722.23 228.07 L 726.42 231.86 L 730.61 233.53 L 734.80 234.48 L 738.99 249.88 L 743.18 253.33 L 747.37 254.23 L 751.56 237.83 L 755.75 243.10 L 759.94 239.04 L 764.13 241.29 L 768.32 238.55 L 772.51 247.40 L 776.69 247.06 L 780.88 249.95 L 785.07 249.15 L 789.26 247.12 L 793.45 241.40 L 797.64 237.91 L 801.83 236.67 L 806.02 238.21 L 810.21 225.44 L 814.40 225.85 L 818.59 217.89 L 822.78 213.00 L 826.97 214.47 L 831.16 197.66 L 835.35 192.35 L 839.54 186.66 L 843.73 191.71 L 847.92 196.22 L 852.11 201.46 L 856.29 196.94 L 860.48 189.57 L 864.67 184.20 L 868.86 146.94 L 873.05 174.85 L 877.24 163.04 L 881.43 165.88 L 885.62 152.80 L 889.81 159.76 L 894.00 164.94 L 898.19 144.93 L 902.38 152.06 L 906.57 168.48 L 910.76 156.45 L 914.95 147.60 L 919.14 142.68 L 923.33 145.59 L 927.52 143.99 L 931.71 154.54 L 935.89 142.87 L 940.08 144.90 L 944.27 165.47 L 948.46 160.99 L 952.65 180.01 L 956.84 182.22 L 961.03 170.37 L 965.22 174.01 L 969.41 177.07 L 973.60 196.47 L 977.79 198.01 L 981.98 205.30 L 986.17 210.47 L 990.36 208.80 L 994.55 222.17 L 998.74 211.79 L 1002.93 193.29 L 1007.12 187.74 L 1011.31 183.88 L 1015.49 184.08 L 1019.68 176.99 L 1023.87 185.05 L 1028.06 181.07 L 1032.25 170.07 L 1036.44 161.57 L 1040.63 163.94 L 1044.82 161.73 L 1049.01 161.38 L 1053.20 157.29 L 1057.39 161.67 L 1061.58 176.02 L 1065.77 181.92 L 1069.96 183.10 L 1074.15 196.78 L 1078.34 188.96 L 1082.53 176.71 L 1086.72 166.90 L 1090.91 169.57 L 1095.09 170.19 L 1099.28 170.89 L 1103.47 174.76 L 1107.66 179.53 L 1111.85 182.25 L 1116.04 186.64 L 1120.23 162.40 L 1124.42 150.58 L 1128.61 151.46 L 1132.80 158.12 L 1136.99 154.12 L 1141.18 143.37 L 1145.37 143.35 L 1149.56 142.04 L 1153.75 143.80 L 1157.94 143.67 L 1162.13 144.01 L 1166.32 158.28 L 1170.51 147.34 L 1174.69 135.60 L 1178.88 146.05 L 1183.07 150.13 L 1187.26 144.50 L 1191.45 147.34 L 1195.64 154.15 L 1199.83 172.49 L 1204.02 172.15 L 1208.21 178.84 L 1212.40 202.87 L 1216.59 219.75 L 1220.78 191.64 L 1224.97 181.43 L 1229.16 184.07 L 1233.35 188.06 L 1237.54 202.33 L 1241.73 194.93 L 1245.92 182.09 L 1250.11 176.69 L 1254.29 175.79 L 1258.48 184.84 L 1262.67 183.51 L 1266.86 200.18 L 1271.05 188.63 L 1275.24 197.41 L 1279.43 208.90 L 1283.62 195.59 L 1287.81 202.24 L 1292.00 202.59" fill="none" stroke="#b45309" stroke-width="2" stroke-dasharray="6 4" />
  </g>
  <g>
    <text x="54" y="538" fill="#1f2937" font-size="16" font-weight="700">B. 绝对误差（越低越好）</text>
    <line x1="98" y1="540" x2="124" y2="540" stroke="#1d4ed8" stroke-width="2"  />
      <text x="130" y="544" fill="#24312e" font-size="12">持仓分段误差</text>
<line x1="313" y1="540" x2="339" y2="540" stroke="#b45309" stroke-width="2" stroke-dasharray="6 4" />
      <text x="345" y="544" fill="#24312e" font-size="12">持仓双目标误差</text>
    <line x1="98" y1="560.00" x2="1292" y2="560.00" stroke="#d7e3df" stroke-width="1" />
      <text x="90" y="564.00" text-anchor="end" fill="#5b6b68" font-size="11">12.54%</text>
<line x1="98" y1="630.00" x2="1292" y2="630.00" stroke="#d7e3df" stroke-width="1" />
      <text x="90" y="634.00" text-anchor="end" fill="#5b6b68" font-size="11">9.41%</text>
<line x1="98" y1="700.00" x2="1292" y2="700.00" stroke="#d7e3df" stroke-width="1" />
      <text x="90" y="704.00" text-anchor="end" fill="#5b6b68" font-size="11">6.27%</text>
<line x1="98" y1="770.00" x2="1292" y2="770.00" stroke="#d7e3df" stroke-width="1" />
      <text x="90" y="774.00" text-anchor="end" fill="#5b6b68" font-size="11">3.14%</text>
<line x1="98" y1="840.00" x2="1292" y2="840.00" stroke="#d7e3df" stroke-width="1" />
      <text x="90" y="844.00" text-anchor="end" fill="#5b6b68" font-size="11">0.00%</text>
    <line x1="98.00" y1="560" x2="98.00" y2="840" stroke="#eef3f1" stroke-width="1" />
      <text x="98.00" y="868" text-anchor="middle" fill="#5b6b68" font-size="11">25-01-02</text>
<line x1="290.72" y1="560" x2="290.72" y2="840" stroke="#eef3f1" stroke-width="1" />
      <text x="290.72" y="868" text-anchor="middle" fill="#5b6b68" font-size="11">25-03-17</text>
<line x1="479.24" y1="560" x2="479.24" y2="840" stroke="#eef3f1" stroke-width="1" />
      <text x="479.24" y="868" text-anchor="middle" fill="#5b6b68" font-size="11">25-05-23</text>
<line x1="697.09" y1="560" x2="697.09" y2="840" stroke="#eef3f1" stroke-width="1" />
      <text x="697.09" y="868" text-anchor="middle" fill="#5b6b68" font-size="11">25-08-06</text>
<line x1="910.76" y1="560" x2="910.76" y2="840" stroke="#eef3f1" stroke-width="1" />
      <text x="910.76" y="868" text-anchor="middle" fill="#5b6b68" font-size="11">25-10-24</text>
<line x1="1099.28" y1="560" x2="1099.28" y2="840" stroke="#eef3f1" stroke-width="1" />
      <text x="1099.28" y="868" text-anchor="middle" fill="#5b6b68" font-size="11">25-12-26</text>
<line x1="1292.00" y1="560" x2="1292.00" y2="840" stroke="#eef3f1" stroke-width="1" />
      <text x="1292.00" y="868" text-anchor="middle" fill="#5b6b68" font-size="11">26-03-12</text>
    <line x1="1116.04" y1="560" x2="1116.04" y2="840" stroke="#f59e0b" stroke-width="1.4" stroke-dasharray="4 4" />
       <text x="1122.04" y="552" fill="#a16207" font-size="11">验证起点</text>
    <path d="M 98.00 836.07 L 102.19 828.51 L 106.38 823.81 L 110.57 838.64 L 114.76 837.55 L 118.95 838.62 L 123.14 792.36 L 127.33 834.21 L 131.52 831.43 L 135.71 822.05 L 139.89 838.32 L 144.08 831.11 L 148.27 835.40 L 152.46 780.39 L 156.65 822.17 L 160.84 836.79 L 165.03 832.58 L 169.22 832.21 L 173.41 816.67 L 177.60 831.77 L 181.79 832.13 L 185.98 838.16 L 190.17 839.90 L 194.36 839.92 L 198.55 822.72 L 202.74 825.68 L 206.93 837.21 L 211.12 831.66 L 215.31 837.21 L 219.49 830.45 L 223.68 828.01 L 227.87 824.12 L 232.06 828.72 L 236.25 828.91 L 240.44 837.59 L 244.63 833.09 L 248.82 821.23 L 253.01 832.36 L 257.20 821.69 L 261.39 838.32 L 265.58 833.10 L 269.77 827.04 L 273.96 835.56 L 278.15 829.07 L 282.34 834.92 L 286.53 823.88 L 290.72 829.73 L 294.91 824.99 L 299.09 831.19 L 303.28 833.22 L 307.47 835.82 L 311.66 813.31 L 315.85 832.40 L 320.04 834.79 L 324.23 826.99 L 328.42 837.24 L 332.61 835.81 L 336.80 834.36 L 340.99 834.83 L 345.18 826.51 L 349.37 836.52 L 353.56 825.73 L 357.75 822.90 L 361.94 831.01 L 366.13 813.69 L 370.32 836.83 L 374.51 839.43 L 378.69 836.32 L 382.88 833.38 L 387.07 839.76 L 391.26 795.11 L 395.45 828.44 L 399.64 819.34 L 403.83 824.35 L 408.02 832.99 L 412.21 839.22 L 416.40 838.48 L 420.59 830.59 L 424.78 833.60 L 428.97 830.29 L 433.16 832.13 L 437.35 831.25 L 441.54 808.56 L 445.73 839.59 L 449.92 832.36 L 454.11 834.47 L 458.29 839.53 L 462.48 831.52 L 466.67 839.29 L 470.86 831.20 L 475.05 838.89 L 479.24 838.00 L 483.43 836.57 L 487.62 777.16 L 491.81 827.45 L 496.00 834.54 L 500.19 829.44 L 504.38 816.53 L 508.57 835.63 L 512.76 827.67 L 516.95 838.30 L 521.14 836.97 L 525.33 832.26 L 529.52 839.48 L 533.71 838.86 L 537.89 832.99 L 542.08 824.72 L 546.27 827.89 L 550.46 838.18 L 554.65 839.40 L 558.84 833.12 L 563.03 837.99 L 567.22 830.23 L 571.41 838.57 L 575.60 827.55 L 579.79 835.84 L 583.98 839.87 L 588.17 826.99 L 592.36 821.12 L 596.55 833.79 L 600.74 839.18 L 604.93 801.90 L 609.12 829.79 L 613.31 825.72 L 617.49 836.52 L 621.68 826.58 L 625.87 837.94 L 630.06 826.98 L 634.25 838.91 L 638.44 839.02 L 642.63 835.05 L 646.82 835.57 L 651.01 839.94 L 655.20 838.18 L 659.39 838.21 L 663.58 837.21 L 667.77 837.57 L 671.96 835.62 L 676.15 839.98 L 680.34 829.08 L 684.53 838.64 L 688.72 819.41 L 692.91 830.10 L 697.09 839.19 L 701.28 838.42 L 705.47 833.60 L 709.66 835.58 L 713.85 825.65 L 718.04 825.80 L 722.23 832.64 L 726.42 837.75 L 730.61 833.62 L 734.80 839.21 L 738.99 834.06 L 743.18 835.88 L 747.37 838.99 L 751.56 831.58 L 755.75 833.66 L 759.94 830.49 L 764.13 834.48 L 768.32 827.64 L 772.51 837.11 L 776.69 826.83 L 780.88 838.64 L 785.07 839.73 L 789.26 829.83 L 793.45 837.39 L 797.64 838.89 L 801.83 832.50 L 806.02 832.71 L 810.21 835.92 L 814.40 830.85 L 818.59 829.46 L 822.78 835.27 L 826.97 836.81 L 831.16 831.91 L 835.35 837.13 L 839.54 832.28 L 843.73 831.15 L 847.92 832.03 L 852.11 833.12 L 856.29 837.51 L 860.48 834.95 L 864.67 816.90 L 868.86 810.03 L 873.05 830.55 L 877.24 835.71 L 881.43 829.70 L 885.62 835.58 L 889.81 837.47 L 894.00 827.42 L 898.19 826.53 L 902.38 836.65 L 906.57 837.97 L 910.76 832.19 L 914.95 832.29 L 919.14 838.84 L 923.33 838.39 L 927.52 836.55 L 931.71 838.08 L 935.89 835.68 L 940.08 819.46 L 944.27 836.89 L 948.46 818.84 L 952.65 832.74 L 956.84 828.83 L 961.03 836.54 L 965.22 831.51 L 969.41 809.65 L 973.60 835.70 L 977.79 827.59 L 981.98 834.89 L 986.17 839.61 L 990.36 833.51 L 994.55 824.89 L 998.74 830.71 L 1002.93 832.59 L 1007.12 838.57 L 1011.31 838.98 L 1015.49 818.35 L 1019.68 826.30 L 1023.87 838.31 L 1028.06 832.67 L 1032.25 829.73 L 1036.44 831.05 L 1040.63 838.12 L 1044.82 837.50 L 1049.01 837.30 L 1053.20 831.91 L 1057.39 839.25 L 1061.58 836.03 L 1065.77 836.79 L 1069.96 836.80 L 1074.15 832.61 L 1078.34 828.59 L 1082.53 834.25 L 1086.72 831.16 L 1090.91 838.75 L 1095.09 838.89 L 1099.28 825.78 L 1103.47 829.95 L 1107.66 838.71 L 1111.85 831.55 L 1116.04 826.15 L 1120.23 821.78 L 1124.42 837.83 L 1128.61 829.15 L 1132.80 839.82 L 1136.99 827.27 L 1141.18 838.71 L 1145.37 834.92 L 1149.56 839.77 L 1153.75 838.88 L 1157.94 838.59 L 1162.13 791.23 L 1166.32 823.00 L 1170.51 816.01 L 1174.69 829.26 L 1178.88 839.80 L 1183.07 833.09 L 1187.26 830.06 L 1191.45 831.66 L 1195.64 836.65 L 1199.83 830.36 L 1204.02 839.27 L 1208.21 834.98 L 1212.40 836.30 L 1216.59 835.94 L 1220.78 829.22 L 1224.97 834.72 L 1229.16 833.61 L 1233.35 839.76 L 1237.54 837.89 L 1241.73 822.54 L 1245.92 837.54 L 1250.11 826.87 L 1254.29 829.00 L 1258.48 836.56 L 1262.67 821.28 L 1266.86 824.40 L 1271.05 822.98 L 1275.24 830.41 L 1279.43 821.54 L 1283.62 837.67 L 1287.81 839.75 L 1292.00 833.91" fill="none" stroke="#1d4ed8" stroke-width="2"  />
<path d="M 98.00 826.65 L 102.19 774.86 L 106.38 805.81 L 110.57 791.39 L 114.76 832.78 L 118.95 838.72 L 123.14 791.49 L 127.33 819.86 L 131.52 828.14 L 135.71 786.86 L 139.89 836.43 L 144.08 817.94 L 148.27 838.86 L 152.46 783.97 L 156.65 807.43 L 160.84 829.01 L 165.03 819.79 L 169.22 756.02 L 173.41 764.94 L 177.60 820.44 L 181.79 822.09 L 185.98 829.36 L 190.17 816.54 L 194.36 825.07 L 198.55 801.56 L 202.74 803.68 L 206.93 838.84 L 211.12 828.81 L 215.31 836.59 L 219.49 806.05 L 223.68 752.59 L 227.87 799.86 L 232.06 776.32 L 236.25 816.55 L 240.44 760.42 L 244.63 818.85 L 248.82 756.87 L 253.01 833.16 L 257.20 800.53 L 261.39 760.00 L 265.58 820.58 L 269.77 718.15 L 273.96 835.32 L 278.15 800.84 L 282.34 782.67 L 286.53 775.82 L 290.72 812.61 L 294.91 792.78 L 299.09 804.74 L 303.28 827.52 L 307.47 824.10 L 311.66 779.11 L 315.85 831.26 L 320.04 769.99 L 324.23 811.69 L 328.42 772.57 L 332.61 810.48 L 336.80 838.50 L 340.99 806.16 L 345.18 689.63 L 349.37 719.39 L 353.56 778.36 L 357.75 590.00 L 361.94 722.61 L 366.13 777.90 L 370.32 824.91 L 374.51 835.41 L 378.69 777.00 L 382.88 832.00 L 387.07 839.25 L 391.26 798.50 L 395.45 783.91 L 399.64 779.46 L 403.83 767.77 L 408.02 818.25 L 412.21 837.64 L 416.40 837.66 L 420.59 826.34 L 424.78 816.52 L 428.97 818.25 L 433.16 796.01 L 437.35 830.68 L 441.54 745.07 L 445.73 796.37 L 449.92 835.20 L 454.11 830.67 L 458.29 816.71 L 462.48 822.43 L 466.67 839.59 L 470.86 785.80 L 475.05 835.46 L 479.24 826.86 L 483.43 838.54 L 487.62 775.99 L 491.81 816.53 L 496.00 836.28 L 500.19 821.39 L 504.38 785.30 L 508.57 826.78 L 512.76 811.90 L 516.95 781.96 L 521.14 811.87 L 525.33 822.35 L 529.52 838.12 L 533.71 819.33 L 537.89 813.47 L 542.08 792.74 L 546.27 813.78 L 550.46 811.69 L 554.65 839.64 L 558.84 832.20 L 563.03 823.66 L 567.22 798.81 L 571.41 839.92 L 575.60 813.50 L 579.79 830.80 L 583.98 832.46 L 588.17 808.60 L 592.36 802.41 L 596.55 824.43 L 600.74 838.21 L 604.93 806.06 L 609.12 820.02 L 613.31 811.96 L 617.49 832.24 L 621.68 814.88 L 625.87 831.34 L 630.06 826.45 L 634.25 810.50 L 638.44 827.50 L 642.63 827.63 L 646.82 833.93 L 651.01 834.74 L 655.20 812.99 L 659.39 816.88 L 663.58 832.76 L 667.77 839.87 L 671.96 806.12 L 676.15 835.52 L 680.34 813.41 L 684.53 785.24 L 688.72 794.78 L 692.91 819.42 L 697.09 838.27 L 701.28 835.80 L 705.47 828.18 L 709.66 836.18 L 713.85 798.53 L 718.04 814.15 L 722.23 825.04 L 726.42 832.02 L 730.61 836.92 L 734.80 781.96 L 738.99 825.59 L 743.18 832.19 L 747.37 782.01 L 751.56 818.31 L 755.75 827.06 L 759.94 829.35 L 764.13 830.61 L 768.32 808.95 L 772.51 837.36 L 776.69 827.49 L 780.88 839.41 L 785.07 835.23 L 789.26 821.75 L 793.45 829.49 L 797.64 837.28 L 801.83 830.97 L 806.02 796.58 L 810.21 835.53 L 814.40 814.52 L 818.59 824.61 L 822.78 830.67 L 826.97 785.27 L 831.16 825.02 L 835.35 822.14 L 839.54 821.75 L 843.73 823.69 L 847.92 819.79 L 852.11 827.56 L 856.29 817.62 L 860.48 829.62 L 864.67 720.10 L 868.86 743.93 L 873.05 803.11 L 877.24 827.23 L 881.43 799.45 L 885.62 816.34 L 889.81 818.78 L 894.00 778.34 L 898.19 817.75 L 902.38 782.94 L 906.57 804.87 L 910.76 815.23 L 914.95 826.28 L 919.14 828.72 L 923.33 835.08 L 927.52 803.11 L 931.71 805.35 L 935.89 835.00 L 940.08 770.51 L 944.27 824.47 L 948.46 775.65 L 952.65 828.56 L 956.84 802.44 L 961.03 826.24 L 965.22 831.47 L 969.41 772.58 L 973.60 834.36 L 977.79 814.36 L 981.98 819.71 L 986.17 833.27 L 990.36 789.46 L 994.55 808.93 L 998.74 780.25 L 1002.93 824.42 L 1007.12 825.78 L 1011.31 839.25 L 1015.49 817.59 L 1019.68 810.64 L 1023.87 830.28 L 1028.06 807.03 L 1032.25 814.35 L 1036.44 830.16 L 1040.63 834.84 L 1044.82 838.48 L 1049.01 828.40 L 1053.20 826.46 L 1057.39 792.00 L 1061.58 818.54 L 1065.77 836.55 L 1069.96 790.27 L 1074.15 817.62 L 1078.34 802.84 L 1082.53 809.97 L 1086.72 829.29 L 1090.91 839.39 L 1095.09 839.13 L 1099.28 825.96 L 1103.47 822.87 L 1107.66 829.98 L 1111.85 819.86 L 1116.04 765.37 L 1120.23 804.23 L 1124.42 836.29 L 1128.61 815.83 L 1132.80 830.13 L 1136.99 807.93 L 1141.18 838.35 L 1145.37 837.81 L 1149.56 832.29 L 1153.75 838.18 L 1157.94 839.64 L 1162.13 790.76 L 1166.32 808.63 L 1170.51 804.62 L 1174.69 805.58 L 1178.88 824.27 L 1183.07 824.27 L 1187.26 830.11 L 1191.45 818.98 L 1195.64 777.90 L 1199.83 839.24 L 1204.02 819.13 L 1208.21 758.39 L 1212.40 774.33 L 1216.59 748.72 L 1220.78 807.78 L 1224.97 829.71 L 1229.16 827.30 L 1233.35 788.28 L 1237.54 818.43 L 1241.73 800.70 L 1245.92 823.94 L 1250.11 837.63 L 1254.29 807.77 L 1258.48 835.07 L 1262.67 779.42 L 1266.86 802.33 L 1271.05 810.40 L 1275.24 796.49 L 1279.43 796.31 L 1283.62 815.20 L 1287.81 839.65 L 1292.00 779.28" fill="none" stroke="#b45309" stroke-width="2" stroke-dasharray="6 4" />
  </g>
</svg>