<?xml version="1.0" encoding="UTF-8"?>
<svg xmlns="http://www.w3.org/2000/svg" width="1360" height="980" viewBox="0 0 1360 980">
  <defs>
    <linearGradient id="bg" x1="0" y1="0" x2="1" y2="1">
      <stop offset="0%" stop-color="#f4efe6" />
      <stop offset="100%" stop-color="#eef5f2" />
    </linearGradient>
  </defs>
  <rect x="0" y="0" width="1360" height="980" fill="url(#bg)" />
  <text x="46" y="36" fill="#1f2937" font-size="31" font-weight="700">513030 离线研究图（持仓逐日估值版）</text>
  <text x="46" y="66" fill="#5b6b68" font-size="13">历史前十大持仓 + 持仓逐日涨跌幅 + USDCNY；双目标 lambda=0.10；披露期数 39；覆盖率均值 92.1%</text>
  <g>
    <text x="54" y="110" fill="#1f2937" font-size="16" font-weight="700">A. 净值拟合（同日对齐，无平移）</text>
    <line x1="98" y1="112" x2="124" y2="112" stroke="#0f766e" stroke-width="2"  />
      <text x="130" y="116" fill="#24312e" font-size="12">真实净值</text>
<line x1="313" y1="112" x2="339" y2="112" stroke="#1d4ed8" stroke-width="2"  />
      <text x="345" y="116" fill="#24312e" font-size="12">持仓分段估值</text>
    <line x1="98" y1="132.00" x2="1292" y2="132.00" stroke="#d7e3df" stroke-width="1" />
      <text x="90" y="136.00" text-anchor="end" fill="#5b6b68" font-size="11">1.924</text>
<line x1="98" y1="209.50" x2="1292" y2="209.50" stroke="#d7e3df" stroke-width="1" />
      <text x="90" y="213.50" text-anchor="end" fill="#5b6b68" font-size="11">1.792</text>
<line x1="98" y1="287.00" x2="1292" y2="287.00" stroke="#d7e3df" stroke-width="1" />
      <text x="90" y="291.00" text-anchor="end" fill="#5b6b68" font-size="11">1.661</text>
<line x1="98" y1="364.50" x2="1292" y2="364.50" stroke="#d7e3df" stroke-width="1" />
      <text x="90" y="368.50" text-anchor="end" fill="#5b6b68" font-size="11">1.529</text>
<line x1="98" y1="442.00" x2="1292" y2="442.00" stroke="#d7e3df" stroke-width="1" />
      <text x="90" y="446.00" text-anchor="end" fill="#5b6b68" font-size="11">1.397</text>
    <line x1="98.00" y1="132" x2="98.00" y2="442" stroke="#eef3f1" stroke-width="1" />
      <text x="98.00" y="470" text-anchor="middle" fill="#5b6b68" font-size="11">25-01-02</text>
<line x1="290.72" y1="132" x2="290.72" y2="442" stroke="#eef3f1" stroke-width="1" />
      <text x="290.72" y="470" text-anchor="middle" fill="#5b6b68" font-size="11">25-03-17</text>
<line x1="479.24" y1="132" x2="479.24" y2="442" stroke="#eef3f1" stroke-width="1" />
      <text x="479.24" y="470" text-anchor="middle" fill="#5b6b68" font-size="11">25-05-23</text>
<line x1="697.09" y1="132" x2="697.09" y2="442" stroke="#eef3f1" stroke-width="1" />
      <text x="697.09" y="470" text-anchor="middle" fill="#5b6b68" font-size="11">25-08-06</text>
<line x1="910.76" y1="132" x2="910.76" y2="442" stroke="#eef3f1" stroke-width="1" />
      <text x="910.76" y="470" text-anchor="middle" fill="#5b6b68" font-size="11">25-10-24</text>
<line x1="1099.28" y1="132" x2="1099.28" y2="442" stroke="#eef3f1" stroke-width="1" />
      <text x="1099.28" y="470" text-anchor="middle" fill="#5b6b68" font-size="11">25-12-26</text>
<line x1="1292.00" y1="132" x2="1292.00" y2="442" stroke="#eef3f1" stroke-width="1" />
      <text x="1292.00" y="470" text-anchor="middle" fill="#5b6b68" font-size="11">26-03-12</text>
    <line x1="1116.04" y1="132" x2="1116.04" y2="442" stroke="#f59e0b" stroke-width="1.4" stroke-dasharray="4 4" />
       <text x="1122.04" y="124" fill="#a16207" font-size="11">验证起点</text>
    <path d="M 98.00 426.12 L 102.19 437.88 L 106.38 423.24 L 110.57 411.61 L 114.76 413.54 L 118.95 416.37 L 123.14 422.36 L 127.33 429.12 L 131.52 423.65 L 135.71 407.49 L 139.89 405.43 L 144.08 393.92 L 148.27 394.09 L 152.46 383.40 L 156.65 375.29 L 160.84 368.23 L 165.03 368.65 L 169.22 370.53 L 173.41 364.24 L 177.60 350.54 L 181.79 355.66 L 185.98 356.42 L 190.17 350.84 L 194.36 342.14 L 198.55 318.99 L 202.74 320.63 L 206.93 307.94 L 211.12 306.88 L 215.31 325.74 L 219.49 332.56 L 223.68 329.80 L 227.87 323.10 L 232.06 325.63 L 236.25 304.76 L 240.44 317.11 L 244.63 323.28 L 248.82 297.42 L 253.01 326.21 L 257.20 284.14 L 261.39 256.04 L 265.58 273.38 L 269.77 284.37 L 273.96 296.77 L 278.15 278.02 L 282.34 284.08 L 286.53 268.74 L 290.72 260.81 L 294.91 247.99 L 299.09 249.64 L 303.28 264.39 L 307.47 272.09 L 311.66 276.56 L 315.85 267.21 L 320.04 280.61 L 324.23 290.13 L 328.42 296.24 L 332.61 306.82 L 336.80 291.25 L 340.99 298.83 L 345.18 321.04 L 349.37 395.44 L 353.56 375.82 L 357.75 397.56 L 361.94 360.59 L 366.13 348.66 L 370.32 313.11 L 374.51 301.12 L 378.69 301.88 L 382.88 298.65 L 387.07 300.36 L 391.26 295.01 L 395.45 285.61 L 399.64 265.15 L 403.83 264.63 L 408.02 255.46 L 412.21 255.99 L 416.40 246.52 L 420.59 245.00 L 424.78 221.49 L 428.97 225.90 L 433.16 216.61 L 437.35 216.91 L 441.54 214.55 L 445.73 224.54 L 449.92 225.49 L 454.11 216.32 L 458.29 213.79 L 462.48 206.91 L 466.67 199.22 L 470.86 189.64 L 475.05 192.69 L 479.24 211.67 L 483.43 189.17 L 487.62 178.18 L 491.81 190.40 L 496.00 201.74 L 500.19 191.75 L 504.38 181.00 L 508.57 176.88 L 512.76 172.30 L 516.95 171.59 L 521.14 179.65 L 525.33 186.35 L 529.52 188.05 L 533.71 189.81 L 537.89 194.81 L 542.08 189.34 L 546.27 200.39 L 550.46 210.09 L 554.65 223.60 L 558.84 208.15 L 563.03 212.97 L 567.22 188.93 L 571.41 193.99 L 575.60 182.70 L 579.79 163.31 L 583.98 165.78 L 588.17 172.77 L 592.36 165.84 L 596.55 159.14 L 600.74 168.89 L 604.93 155.14 L 609.12 151.38 L 613.31 137.63 L 617.49 141.15 L 621.68 154.61 L 625.87 160.02 L 630.06 165.66 L 634.25 172.65 L 638.44 156.14 L 642.63 160.43 L 646.82 158.96 L 651.01 166.07 L 655.20 152.91 L 659.39 148.38 L 663.58 152.96 L 667.77 163.31 L 671.96 165.31 L 676.15 167.77 L 680.34 186.52 L 684.53 215.20 L 688.72 190.64 L 692.91 185.93 L 697.09 182.23 L 701.28 163.48 L 705.47 163.66 L 709.66 167.95 L 713.85 173.00 L 718.04 161.72 L 722.23 150.85 L 726.42 156.37 L 730.61 153.55 L 734.80 151.97 L 738.99 161.07 L 743.18 159.78 L 747.37 160.66 L 751.56 158.78 L 755.75 170.13 L 759.94 175.88 L 764.13 176.35 L 768.32 181.29 L 772.51 173.89 L 776.69 196.57 L 780.88 197.10 L 785.07 187.76 L 789.26 195.98 L 793.45 182.53 L 797.64 182.35 L 801.83 191.34 L 806.02 188.99 L 810.21 187.23 L 814.40 184.99 L 818.59 201.21 L 822.78 191.46 L 826.97 179.82 L 831.16 183.76 L 835.35 193.52 L 839.54 185.29 L 843.73 182.06 L 847.92 192.34 L 852.11 189.34 L 856.29 186.58 L 860.48 180.06 L 864.67 154.02 L 868.86 176.94 L 873.05 168.19 L 877.24 178.53 L 881.43 177.82 L 885.62 170.71 L 889.81 186.46 L 894.00 169.54 L 898.19 168.48 L 902.38 180.23 L 906.57 177.94 L 910.76 175.88 L 914.95 172.12 L 919.14 172.48 L 923.33 180.00 L 927.52 183.35 L 931.71 193.10 L 935.89 189.17 L 940.08 198.39 L 944.27 196.10 L 948.46 209.68 L 952.65 213.79 L 956.84 195.75 L 961.03 189.64 L 965.22 174.47 L 969.41 188.81 L 973.60 193.99 L 977.79 208.27 L 981.98 227.48 L 986.17 228.84 L 990.36 226.66 L 994.55 236.24 L 998.74 232.01 L 1002.93 221.55 L 1007.12 207.44 L 1011.31 203.62 L 1015.49 200.39 L 1019.68 211.73 L 1023.87 205.62 L 1028.06 205.33 L 1032.25 194.87 L 1036.44 188.34 L 1040.63 187.70 L 1044.82 182.53 L 1049.01 185.58 L 1053.20 174.12 L 1057.39 175.71 L 1061.58 173.65 L 1065.77 180.12 L 1069.96 186.58 L 1074.15 176.41 L 1078.34 174.24 L 1082.53 175.53 L 1086.72 169.42 L 1090.91 167.66 L 1095.09 169.54 L 1099.28 170.54 L 1103.47 171.54 L 1107.66 164.60 L 1111.85 168.71 L 1116.04 156.49 L 1120.23 156.78 L 1124.42 148.03 L 1128.61 148.44 L 1132.80 145.32 L 1136.99 141.15 L 1141.18 139.68 L 1145.37 146.03 L 1149.56 144.62 L 1153.75 150.44 L 1157.94 164.95 L 1162.13 175.12 L 1166.32 174.24 L 1170.51 163.84 L 1174.69 157.61 L 1178.88 148.44 L 1183.07 146.85 L 1187.26 141.50 L 1191.45 165.89 L 1195.64 156.90 L 1199.83 152.79 L 1204.02 159.61 L 1208.21 168.07 L 1212.40 174.42 L 1216.59 165.60 L 1220.78 151.14 L 1224.97 146.38 L 1229.16 153.73 L 1233.35 155.96 L 1237.54 154.55 L 1241.73 157.61 L 1245.92 154.26 L 1250.11 147.91 L 1254.29 151.38 L 1258.48 180.70 L 1262.67 223.08 L 1266.86 211.20 L 1271.05 226.48 L 1275.24 239.06 L 1279.43 252.22 L 1283.62 222.02 L 1287.81 238.88 L 1292.00 246.00" fill="none" stroke="#0f766e" stroke-width="2"  />
<path d="M 98.00 428.74 L 102.19 423.85 L 106.38 433.15 L 110.57 422.57 L 114.76 412.30 L 118.95 412.12 L 123.14 415.28 L 127.33 425.98 L 131.52 426.05 L 135.71 418.63 L 139.89 402.90 L 144.08 402.67 L 148.27 383.79 L 152.46 393.71 L 156.65 383.01 L 160.84 370.55 L 165.03 367.93 L 169.22 368.30 L 173.41 370.60 L 177.60 359.94 L 181.79 356.41 L 185.98 356.83 L 190.17 351.53 L 194.36 346.11 L 198.55 337.08 L 202.74 317.31 L 206.93 319.67 L 211.12 305.32 L 215.31 316.74 L 219.49 323.33 L 223.68 334.91 L 227.87 326.28 L 232.06 317.05 L 236.25 324.33 L 240.44 315.43 L 244.63 314.74 L 248.82 310.30 L 253.01 296.97 L 257.20 308.37 L 261.39 286.72 L 265.58 251.25 L 269.77 305.17 L 273.96 284.37 L 278.15 294.78 L 282.34 283.07 L 286.53 270.27 L 290.72 250.72 L 294.91 258.24 L 299.09 247.34 L 303.28 258.32 L 307.47 267.77 L 311.66 274.39 L 315.85 272.45 L 320.04 279.07 L 324.23 279.44 L 328.42 291.92 L 332.61 304.60 L 336.80 304.24 L 340.99 289.10 L 345.18 308.62 L 349.37 407.59 L 353.56 398.10 L 357.75 323.17 L 361.94 407.26 L 366.13 352.06 L 370.32 335.11 L 374.51 309.34 L 378.69 301.91 L 382.88 298.88 L 387.07 296.99 L 391.26 294.77 L 395.45 280.62 L 399.64 283.01 L 403.83 258.33 L 408.02 261.87 L 412.21 242.76 L 416.40 255.55 L 420.59 247.48 L 424.78 227.66 L 428.97 222.36 L 433.16 225.03 L 437.35 212.79 L 441.54 213.64 L 445.73 211.95 L 449.92 225.25 L 454.11 221.71 L 458.29 215.09 L 462.48 199.74 L 466.67 203.84 L 470.86 200.91 L 475.05 189.06 L 479.24 196.51 L 483.43 220.12 L 487.62 186.92 L 491.81 184.12 L 496.00 188.13 L 500.19 201.04 L 504.38 178.58 L 508.57 177.85 L 512.76 176.07 L 516.95 170.78 L 521.14 166.65 L 525.33 178.97 L 529.52 186.23 L 533.71 185.52 L 537.89 200.56 L 542.08 195.48 L 546.27 199.01 L 550.46 200.36 L 554.65 208.49 L 558.84 222.45 L 563.03 192.09 L 567.22 206.73 L 571.41 191.40 L 575.60 190.46 L 579.79 176.85 L 583.98 147.19 L 588.17 166.75 L 592.36 169.38 L 596.55 165.75 L 600.74 156.83 L 604.93 173.59 L 609.12 150.13 L 613.31 143.93 L 617.49 140.11 L 621.68 147.24 L 625.87 162.49 L 630.06 166.50 L 634.25 163.01 L 638.44 171.08 L 642.63 157.48 L 646.82 160.37 L 651.01 157.41 L 655.20 154.65 L 659.39 160.00 L 663.58 146.16 L 667.77 174.94 L 671.96 161.68 L 676.15 168.17 L 680.34 173.45 L 684.53 189.59 L 688.72 229.82 L 692.91 189.40 L 697.09 182.86 L 701.28 177.93 L 705.47 161.74 L 709.66 159.79 L 713.85 164.11 L 718.04 170.24 L 722.23 160.10 L 726.42 148.38 L 730.61 156.34 L 734.80 152.56 L 738.99 150.63 L 743.18 164.27 L 747.37 152.15 L 751.56 172.71 L 755.75 159.58 L 759.94 171.69 L 764.13 175.33 L 768.32 178.66 L 772.51 177.21 L 776.69 172.26 L 780.88 195.92 L 785.07 195.42 L 789.26 187.15 L 793.45 194.36 L 797.64 183.92 L 801.83 184.97 L 806.02 187.71 L 810.21 189.93 L 814.40 177.96 L 818.59 187.09 L 822.78 203.91 L 826.97 188.43 L 831.16 181.37 L 835.35 180.83 L 839.54 193.12 L 843.73 186.91 L 847.92 186.52 L 852.11 186.71 L 856.29 182.94 L 860.48 183.87 L 864.67 171.23 L 868.86 163.52 L 873.05 186.15 L 877.24 166.76 L 881.43 178.74 L 885.62 175.45 L 889.81 171.06 L 894.00 189.87 L 898.19 172.99 L 902.38 170.12 L 906.57 178.32 L 910.76 177.93 L 914.95 165.93 L 919.14 173.36 L 923.33 175.17 L 927.52 182.75 L 931.71 185.75 L 935.89 193.42 L 940.08 196.23 L 944.27 195.29 L 948.46 199.59 L 952.65 208.61 L 956.84 203.98 L 961.03 192.92 L 965.22 186.62 L 969.41 179.43 L 973.60 193.16 L 977.79 204.28 L 981.98 214.95 L 986.17 228.79 L 990.36 238.07 L 994.55 222.08 L 998.74 237.82 L 1002.93 225.32 L 1007.12 218.32 L 1011.31 206.23 L 1015.49 202.67 L 1019.68 193.77 L 1023.87 209.27 L 1028.06 203.80 L 1032.25 204.83 L 1036.44 194.00 L 1040.63 180.21 L 1044.82 188.05 L 1049.01 177.97 L 1053.20 181.93 L 1057.39 177.05 L 1061.58 173.04 L 1065.77 175.72 L 1069.96 183.88 L 1074.15 183.66 L 1078.34 175.04 L 1082.53 169.49 L 1086.72 174.38 L 1090.91 168.51 L 1095.09 165.89 L 1099.28 167.82 L 1103.47 170.41 L 1107.66 169.50 L 1111.85 166.83 L 1116.04 154.49 L 1120.23 155.43 L 1124.42 156.84 L 1128.61 147.91 L 1132.80 145.03 L 1136.99 139.98 L 1141.18 142.54 L 1145.37 139.14 L 1149.56 147.45 L 1153.75 143.07 L 1157.94 151.34 L 1162.13 163.40 L 1166.32 171.34 L 1170.51 171.91 L 1174.69 161.10 L 1178.88 151.26 L 1183.07 141.50 L 1187.26 153.16 L 1191.45 141.75 L 1195.64 169.28 L 1199.83 148.10 L 1204.02 153.84 L 1208.21 160.45 L 1212.40 174.36 L 1216.59 164.56 L 1220.78 151.84 L 1224.97 152.80 L 1229.16 145.85 L 1233.35 157.35 L 1237.54 156.14 L 1241.73 151.12 L 1245.92 154.26 L 1250.11 155.00 L 1254.29 149.42 L 1258.48 180.39 L 1262.67 202.61 L 1266.86 218.71 L 1271.05 226.08 L 1275.24 229.21 L 1279.43 246.19 L 1283.62 253.06 L 1287.81 222.46 L 1292.00 248.04" fill="none" stroke="#1d4ed8" stroke-width="2"  />
  </g>
  <g>
    <text x="54" y="538" fill="#1f2937" font-size="16" font-weight="700">B. 绝对误差（越低越好）</text>
    <line x1="98" y1="540" x2="124" y2="540" stroke="#1d4ed8" stroke-width="2"  />
      <text x="130" y="544" fill="#24312e" font-size="12">持仓分段误差</text>
    <line x1="98" y1="560.00" x2="1292" y2="560.00" stroke="#d7e3df" stroke-width="1" />
      <text x="90" y="564.00" text-anchor="end" fill="#5b6b68" font-size="11">9.63%</text>
<line x1="98" y1="630.00" x2="1292" y2="630.00" stroke="#d7e3df" stroke-width="1" />
      <text x="90" y="634.00" text-anchor="end" fill="#5b6b68" font-size="11">7.22%</text>
<line x1="98" y1="700.00" x2="1292" y2="700.00" stroke="#d7e3df" stroke-width="1" />
      <text x="90" y="704.00" text-anchor="end" fill="#5b6b68" font-size="11">4.81%</text>
<line x1="98" y1="770.00" x2="1292" y2="770.00" stroke="#d7e3df" stroke-width="1" />
      <text x="90" y="774.00" text-anchor="end" fill="#5b6b68" font-size="11">2.41%</text>
<line x1="98" y1="840.00" x2="1292" y2="840.00" stroke="#d7e3df" stroke-width="1" />
      <text x="90" y="844.00" text-anchor="end" fill="#5b6b68" font-size="11">0.00%</text>
    <line x1="98.00" y1="560" x2="98.00" y2="840" stroke="#eef3f1" stroke-width="1" />
      <text x="98.00" y="868" text-anchor="middle" fill="#5b6b68" font-size="11">25-01-02</text>
<line x1="290.72" y1="560" x2="290.72" y2="840" stroke="#eef3f1" stroke-width="1" />
      <text x="290.72" y="868" text-anchor="middle" fill="#5b6b68" font-size="11">25-03-17</text>
<line x1="479.24" y1="560" x2="479.24" y2="840" stroke="#eef3f1" stroke-width="1" />
      <text x="479.24" y="868" text-anchor="middle" fill="#5b6b68" font-size="11">25-05-23</text>
<line x1="697.09" y1="560" x2="697.09" y2="840" stroke="#eef3f1" stroke-width="1" />
      <text x="697.09" y="868" text-anchor="middle" fill="#5b6b68" font-size="11">25-08-06</text>
<line x1="910.76" y1="560" x2="910.76" y2="840" stroke="#eef3f1" stroke-width="1" />
      <text x="910.76" y="868" text-anchor="middle" fill="#5b6b68" font-size="11">25-10-24</text>
<line x1="1099.28" y1="560" x2="1099.28" y2="840" stroke="#eef3f1" stroke-width="1" />
      <text x="1099.28" y="868" text-anchor="middle" fill="#5b6b68" font-size="11">25-12-26</text>
<line x1="1292.00" y1="560" x2="1292.00" y2="840" stroke="#eef3f1" stroke-width="1" />
      <text x="1292.00" y="868" text-anchor="middle" fill="#5b6b68" font-size="11">26-03-12</text>
    <line x1="1116.04" y1="560" x2="1116.04" y2="840" stroke="#f59e0b" stroke-width="1.4" stroke-dasharray="4 4" />
       <text x="1122.04" y="552" fill="#a16207" font-size="11">验证起点</text>
    <path d="M 98.00 830.89 L 102.19 790.57 L 106.38 805.67 L 110.57 802.53 L 114.76 835.74 L 118.95 825.40 L 123.14 815.50 L 127.33 829.07 L 131.52 831.69 L 135.71 802.13 L 139.89 831.40 L 144.08 810.69 L 148.27 805.51 L 152.46 805.91 L 156.65 814.71 L 160.84 832.46 L 165.03 837.69 L 169.22 832.76 L 173.41 819.42 L 177.60 810.06 L 181.79 837.59 L 185.98 838.69 L 190.17 837.79 L 194.36 827.45 L 198.55 784.25 L 202.74 829.75 L 206.93 804.28 L 211.12 835.26 L 215.31 812.07 L 219.49 811.14 L 223.68 824.06 L 227.87 830.17 L 232.06 813.40 L 236.25 780.61 L 240.44 834.84 L 244.63 813.57 L 248.82 801.19 L 253.01 749.19 L 257.20 768.01 L 261.39 751.40 L 265.58 774.94 L 269.77 778.20 L 273.96 802.66 L 278.15 790.52 L 282.34 837.01 L 286.53 835.52 L 290.72 810.73 L 294.91 810.64 L 299.09 833.41 L 303.28 822.31 L 307.47 827.33 L 311.66 833.63 L 315.85 824.71 L 320.04 835.44 L 324.23 808.03 L 328.42 827.01 L 332.61 833.24 L 336.80 801.12 L 340.99 810.65 L 345.18 801.63 L 349.37 799.27 L 353.56 766.94 L 357.75 590.00 L 361.94 689.59 L 366.13 829.20 L 370.32 772.63 L 374.51 815.16 L 378.69 839.93 L 382.88 839.30 L 387.07 829.83 L 391.26 839.29 L 395.45 825.16 L 399.64 787.94 L 403.83 821.67 L 408.02 821.49 L 412.21 801.79 L 416.40 814.16 L 420.59 832.91 L 424.78 822.76 L 428.97 830.09 L 433.16 816.60 L 437.35 828.56 L 441.54 837.48 L 445.73 804.72 L 449.92 839.35 L 454.11 825.03 L 458.29 836.39 L 462.48 820.25 L 466.67 827.36 L 470.86 809.46 L 475.05 830.13 L 479.24 798.04 L 483.43 756.16 L 487.62 816.56 L 491.81 822.97 L 496.00 802.70 L 500.19 814.79 L 504.38 833.49 L 508.57 837.41 L 512.76 829.94 L 516.95 837.82 L 521.14 805.11 L 525.33 820.09 L 529.52 835.08 L 533.71 828.37 L 537.89 824.34 L 542.08 823.36 L 546.27 836.23 L 550.46 813.13 L 554.65 797.70 L 558.84 800.58 L 563.03 782.17 L 567.22 791.80 L 571.41 832.95 L 575.60 819.11 L 579.79 804.19 L 583.98 790.74 L 588.17 823.94 L 592.36 830.62 L 596.55 822.58 L 600.74 807.93 L 604.93 791.56 L 609.12 836.73 L 613.31 823.70 L 617.49 837.29 L 621.68 820.65 L 625.87 833.48 L 630.06 837.76 L 634.25 814.27 L 638.44 800.73 L 642.63 832.22 L 646.82 836.28 L 651.01 817.04 L 655.20 835.44 L 659.39 809.68 L 663.58 822.16 L 667.77 809.22 L 671.96 830.39 L 676.15 838.95 L 680.34 804.68 L 684.53 768.90 L 688.72 733.72 L 692.91 830.64 L 697.09 838.30 L 701.28 801.78 L 705.47 834.92 L 709.66 818.32 L 713.85 816.26 L 718.04 817.51 L 722.23 815.81 L 726.42 818.99 L 730.61 832.69 L 734.80 838.44 L 738.99 812.42 L 743.18 828.17 L 747.37 817.53 L 751.56 803.32 L 755.75 811.95 L 759.94 828.77 L 764.13 837.26 L 768.32 832.92 L 772.51 831.11 L 776.69 773.70 L 780.88 836.78 L 785.07 819.28 L 789.26 815.93 L 793.45 808.15 L 797.64 835.77 L 801.83 822.70 L 806.02 836.54 L 810.21 832.70 L 814.40 821.04 L 818.59 801.31 L 822.78 806.19 L 826.97 816.88 L 831.16 833.56 L 835.35 805.51 L 839.54 818.86 L 843.73 826.94 L 847.92 824.19 L 852.11 832.88 L 856.29 830.16 L 860.48 829.75 L 864.67 794.88 L 868.86 804.06 L 873.05 792.28 L 877.24 808.43 L 881.43 837.55 L 885.62 827.39 L 889.81 798.38 L 894.00 785.93 L 898.19 828.03 L 902.38 812.84 L 906.57 838.98 L 910.76 834.52 L 914.95 823.48 L 919.14 837.63 L 923.33 827.03 L 927.52 838.38 L 931.71 820.02 L 935.89 828.48 L 940.08 834.09 L 944.27 837.78 L 948.46 812.14 L 952.65 825.64 L 956.84 817.56 L 961.03 831.10 L 965.22 807.54 L 969.41 814.60 L 973.60 837.76 L 977.79 829.00 L 981.98 804.81 L 986.17 839.87 L 990.36 807.98 L 994.55 799.90 L 998.74 823.61 L 1002.93 829.47 L 1007.12 810.03 L 1011.31 832.85 L 1015.49 833.76 L 1019.68 790.30 L 1023.87 829.97 L 1028.06 835.80 L 1032.25 812.87 L 1036.44 824.68 L 1040.63 819.74 L 1044.82 825.13 L 1049.01 819.46 L 1053.20 819.15 L 1057.39 836.41 L 1061.58 838.37 L 1065.77 828.20 L 1069.96 832.69 L 1074.15 820.59 L 1078.34 837.86 L 1082.53 823.83 L 1086.72 826.81 L 1090.91 837.73 L 1095.09 830.31 L 1099.28 832.77 L 1103.47 837.01 L 1107.66 827.02 L 1111.85 834.99 L 1116.04 834.73 L 1120.23 836.44 L 1124.42 817.02 L 1128.61 838.62 L 1132.80 839.23 L 1136.99 836.95 L 1141.18 832.61 L 1145.37 822.05 L 1149.56 832.65 L 1153.75 820.73 L 1157.94 803.94 L 1162.13 808.66 L 1166.32 832.26 L 1170.51 818.65 L 1174.69 830.82 L 1178.88 832.63 L 1183.07 826.05 L 1187.26 809.78 L 1191.45 775.98 L 1195.64 807.44 L 1199.83 827.71 L 1204.02 824.81 L 1208.21 819.76 L 1212.40 839.84 L 1216.59 837.24 L 1220.78 838.17 L 1224.97 823.27 L 1229.16 819.35 L 1233.35 836.34 L 1237.54 835.84 L 1241.73 822.93 L 1245.92 840.00 L 1250.11 821.50 L 1254.29 834.88 L 1258.48 839.14 L 1262.67 782.75 L 1266.86 819.26 L 1271.05 838.85 L 1275.24 812.01 L 1279.43 822.65 L 1283.62 753.27 L 1287.81 793.36 L 1292.00 834.16" fill="none" stroke="#1d4ed8" stroke-width="2"  />
  </g>
</svg>