<?xml version="1.0" encoding="UTF-8"?>
<svg xmlns="http://www.w3.org/2000/svg" width="1360" height="980" viewBox="0 0 1360 980">
  <defs>
    <linearGradient id="bg" x1="0" y1="0" x2="1" y2="1">
      <stop offset="0%" stop-color="#f4efe6" />
      <stop offset="100%" stop-color="#eef5f2" />
    </linearGradient>
  </defs>
  <rect x="0" y="0" width="1360" height="980" fill="url(#bg)" />
  <text x="46" y="36" fill="#1f2937" font-size="31" font-weight="700">513100 离线研究图（持仓逐日估值版）</text>
  <text x="46" y="66" fill="#5b6b68" font-size="13">历史前十大持仓 + 持仓逐日涨跌幅 + USDCNY；双目标 lambda=0.10；披露期数 45；覆盖率均值 92.1%</text>
  <g>
    <text x="54" y="110" fill="#1f2937" font-size="16" font-weight="700">A. 净值拟合（同日对齐，无平移）</text>
    <line x1="98" y1="112" x2="124" y2="112" stroke="#0f766e" stroke-width="2"  />
      <text x="130" y="116" fill="#24312e" font-size="12">真实净值</text>
<line x1="313" y1="112" x2="339" y2="112" stroke="#1d4ed8" stroke-width="2"  />
      <text x="345" y="116" fill="#24312e" font-size="12">持仓分段估值</text>
    <line x1="98" y1="132.00" x2="1292" y2="132.00" stroke="#d7e3df" stroke-width="1" />
      <text x="90" y="136.00" text-anchor="end" fill="#5b6b68" font-size="11">1.864</text>
<line x1="98" y1="209.50" x2="1292" y2="209.50" stroke="#d7e3df" stroke-width="1" />
      <text x="90" y="213.50" text-anchor="end" fill="#5b6b68" font-size="11">1.705</text>
<line x1="98" y1="287.00" x2="1292" y2="287.00" stroke="#d7e3df" stroke-width="1" />
      <text x="90" y="291.00" text-anchor="end" fill="#5b6b68" font-size="11">1.546</text>
<line x1="98" y1="364.50" x2="1292" y2="364.50" stroke="#d7e3df" stroke-width="1" />
      <text x="90" y="368.50" text-anchor="end" fill="#5b6b68" font-size="11">1.388</text>
<line x1="98" y1="442.00" x2="1292" y2="442.00" stroke="#d7e3df" stroke-width="1" />
      <text x="90" y="446.00" text-anchor="end" fill="#5b6b68" font-size="11">1.229</text>
    <line x1="98.00" y1="132" x2="98.00" y2="442" stroke="#eef3f1" stroke-width="1" />
      <text x="98.00" y="470" text-anchor="middle" fill="#5b6b68" font-size="11">25-01-02</text>
<line x1="290.72" y1="132" x2="290.72" y2="442" stroke="#eef3f1" stroke-width="1" />
      <text x="290.72" y="470" text-anchor="middle" fill="#5b6b68" font-size="11">25-03-17</text>
<line x1="479.24" y1="132" x2="479.24" y2="442" stroke="#eef3f1" stroke-width="1" />
      <text x="479.24" y="470" text-anchor="middle" fill="#5b6b68" font-size="11">25-05-23</text>
<line x1="697.09" y1="132" x2="697.09" y2="442" stroke="#eef3f1" stroke-width="1" />
      <text x="697.09" y="470" text-anchor="middle" fill="#5b6b68" font-size="11">25-08-06</text>
<line x1="910.76" y1="132" x2="910.76" y2="442" stroke="#eef3f1" stroke-width="1" />
      <text x="910.76" y="470" text-anchor="middle" fill="#5b6b68" font-size="11">25-10-24</text>
<line x1="1099.28" y1="132" x2="1099.28" y2="442" stroke="#eef3f1" stroke-width="1" />
      <text x="1099.28" y="470" text-anchor="middle" fill="#5b6b68" font-size="11">25-12-26</text>
<line x1="1292.00" y1="132" x2="1292.00" y2="442" stroke="#eef3f1" stroke-width="1" />
      <text x="1292.00" y="470" text-anchor="middle" fill="#5b6b68" font-size="11">26-03-12</text>
    <line x1="1116.04" y1="132" x2="1116.04" y2="442" stroke="#f59e0b" stroke-width="1.4" stroke-dasharray="4 4" />
       <text x="1122.04" y="124" fill="#a16207" font-size="11">验证起点</text>
    <path d="M 98.00 303.33 L 102.19 290.65 L 106.38 282.84 L 110.57 296.02 L 114.76 296.02 L 118.95 296.02 L 123.14 307.73 L 127.33 309.68 L 131.52 310.65 L 135.71 294.06 L 139.89 299.43 L 144.08 286.74 L 148.27 286.74 L 152.46 284.30 L 156.65 274.55 L 160.84 272.59 L 165.03 276.98 L 169.22 299.92 L 173.41 281.38 L 177.60 277.47 L 181.79 287.23 L 185.98 277.96 L 190.17 279.91 L 194.36 279.42 L 198.55 268.20 L 202.74 265.27 L 206.93 265.76 L 211.12 263.81 L 215.31 263.32 L 219.49 267.23 L 223.68 283.33 L 227.87 292.11 L 232.06 301.38 L 236.25 299.43 L 240.44 319.93 L 244.63 308.21 L 248.82 324.32 L 253.01 326.76 L 257.20 317.49 L 261.39 337.98 L 265.58 332.61 L 269.77 358.96 L 273.96 360.91 L 278.15 353.59 L 282.34 366.28 L 286.53 349.69 L 290.72 346.27 L 294.91 357.50 L 299.09 348.71 L 303.28 350.18 L 307.47 347.74 L 311.66 332.61 L 315.85 328.71 L 320.04 341.88 L 324.23 346.27 L 328.42 364.33 L 332.61 364.33 L 336.80 358.96 L 340.99 353.59 L 345.18 389.70 L 349.37 427.28 L 353.56 438.99 L 357.75 366.77 L 361.94 394.58 L 366.13 382.38 L 370.32 378.48 L 374.51 377.50 L 378.69 397.51 L 382.88 397.51 L 387.07 398.00 L 391.26 413.61 L 395.45 397.02 L 399.64 382.38 L 403.83 364.33 L 408.02 356.52 L 412.21 357.01 L 416.40 353.11 L 420.59 352.62 L 424.78 344.81 L 428.97 342.37 L 433.16 334.56 L 437.35 334.56 L 441.54 306.26 L 445.73 295.53 L 449.92 291.62 L 454.11 291.14 L 458.29 287.72 L 462.48 287.23 L 466.67 290.16 L 470.86 299.92 L 475.05 299.43 L 479.24 306.26 L 483.43 306.75 L 487.62 289.18 L 491.81 292.11 L 496.00 290.65 L 500.19 292.11 L 504.38 280.40 L 508.57 278.45 L 512.76 284.79 L 516.95 277.47 L 521.14 276.01 L 525.33 271.13 L 529.52 274.06 L 533.71 272.59 L 537.89 282.84 L 542.08 271.62 L 546.27 279.91 L 550.46 279.91 L 554.65 279.91 L 558.84 283.82 L 563.03 275.52 L 567.22 264.30 L 571.41 262.83 L 575.60 256.00 L 579.79 252.59 L 583.98 248.20 L 588.17 255.51 L 592.36 249.66 L 596.55 242.34 L 600.74 242.34 L 604.93 248.68 L 609.12 248.20 L 613.31 242.34 L 617.49 243.80 L 621.68 245.76 L 625.87 243.32 L 630.06 242.34 L 634.25 240.88 L 638.44 236.00 L 642.63 236.00 L 646.82 231.60 L 651.01 236.48 L 655.20 233.56 L 659.39 232.09 L 663.58 229.65 L 667.77 226.24 L 671.96 227.70 L 676.15 227.21 L 680.34 230.63 L 684.53 246.73 L 688.72 233.07 L 692.91 239.41 L 697.09 228.68 L 701.28 226.73 L 705.47 218.43 L 709.66 221.36 L 713.85 210.13 L 718.04 210.62 L 722.23 211.11 L 726.42 215.01 L 730.61 215.50 L 734.80 226.73 L 738.99 231.12 L 743.18 236.00 L 747.37 223.31 L 751.56 227.21 L 755.75 223.80 L 759.94 223.31 L 764.13 218.92 L 768.32 229.17 L 772.51 228.68 L 776.69 235.02 L 780.88 228.68 L 785.07 221.36 L 789.26 220.38 L 793.45 216.97 L 797.64 215.01 L 801.83 214.04 L 806.02 209.16 L 810.21 206.23 L 814.40 198.42 L 818.59 199.89 L 822.78 201.84 L 826.97 193.06 L 831.16 186.71 L 835.35 182.32 L 839.54 189.15 L 843.73 191.59 L 847.92 194.52 L 852.11 190.62 L 856.29 187.69 L 860.48 185.74 L 864.67 170.61 L 868.86 201.84 L 873.05 184.27 L 877.24 189.64 L 881.43 184.27 L 885.62 187.69 L 889.81 182.32 L 894.00 171.10 L 898.19 172.07 L 902.38 180.37 L 906.57 173.54 L 910.76 164.27 L 914.95 149.14 L 919.14 142.80 L 923.33 138.89 L 927.52 152.07 L 931.71 147.68 L 935.89 143.77 L 940.08 162.31 L 944.27 155.48 L 948.46 173.05 L 952.65 175.98 L 956.84 156.46 L 961.03 159.39 L 965.22 160.36 L 969.41 177.93 L 973.60 177.93 L 977.79 185.25 L 981.98 195.01 L 986.17 190.13 L 990.36 209.65 L 994.55 203.79 L 998.74 182.32 L 1002.93 177.44 L 1007.12 170.12 L 1011.31 170.61 L 1015.49 163.78 L 1019.68 167.19 L 1023.87 159.39 L 1028.06 157.92 L 1032.25 159.39 L 1036.44 155.00 L 1040.63 156.95 L 1044.82 155.48 L 1049.01 152.07 L 1053.20 155.97 L 1057.39 173.54 L 1061.58 177.93 L 1065.77 176.47 L 1069.96 193.06 L 1074.15 180.37 L 1078.34 169.63 L 1082.53 165.49 L 1086.72 161.73 L 1090.91 160.02 L 1095.09 161.00 L 1099.28 161.83 L 1103.47 166.32 L 1107.66 168.27 L 1111.85 176.22 L 1116.04 171.83 L 1120.23 164.36 L 1124.42 163.73 L 1128.61 168.66 L 1132.80 160.66 L 1136.99 160.22 L 1141.18 161.88 L 1145.37 171.05 L 1149.56 168.95 L 1153.75 169.44 L 1157.94 169.83 L 1162.13 188.86 L 1166.32 177.25 L 1170.51 170.66 L 1174.69 168.80 L 1178.88 166.22 L 1183.07 158.36 L 1187.26 156.80 L 1191.45 161.34 L 1195.64 173.64 L 1199.83 167.19 L 1204.02 181.78 L 1208.21 197.84 L 1212.40 209.01 L 1216.59 191.01 L 1220.78 185.30 L 1224.97 190.76 L 1229.16 188.57 L 1233.35 205.69 L 1237.54 204.82 L 1241.73 196.47 L 1245.92 185.69 L 1250.11 196.76 L 1254.29 199.20 L 1258.48 198.08 L 1262.67 208.91 L 1266.86 195.94 L 1271.05 199.74 L 1275.24 212.14 L 1279.43 199.74 L 1283.62 202.13 L 1287.81 202.62 L 1292.00 216.58" fill="none" stroke="#0f766e" stroke-width="2"  />
<path d="M 98.00 300.75 L 102.19 292.08 L 106.38 282.44 L 110.57 302.55 L 114.76 295.13 L 118.95 296.14 L 123.14 296.44 L 127.33 309.02 L 131.52 312.64 L 135.71 292.89 L 139.89 298.26 L 144.08 289.47 L 148.27 288.18 L 152.46 288.13 L 156.65 275.73 L 160.84 272.67 L 165.03 273.02 L 169.22 313.96 L 173.41 275.41 L 177.60 277.63 L 181.79 287.63 L 185.98 280.09 L 190.17 277.18 L 194.36 279.91 L 198.55 276.20 L 202.74 267.05 L 206.93 265.16 L 211.12 265.50 L 215.31 262.29 L 219.49 264.99 L 223.68 285.02 L 227.87 288.41 L 232.06 299.54 L 236.25 297.06 L 240.44 323.63 L 244.63 309.71 L 248.82 331.64 L 253.01 324.07 L 257.20 316.43 L 261.39 340.75 L 265.58 332.55 L 269.77 357.78 L 273.96 357.78 L 278.15 351.64 L 282.34 365.72 L 286.53 352.51 L 290.72 349.84 L 294.91 358.80 L 299.09 349.30 L 303.28 349.29 L 307.47 347.25 L 311.66 339.32 L 315.85 330.56 L 320.04 342.85 L 324.23 344.18 L 328.42 363.34 L 332.61 362.86 L 336.80 360.50 L 340.99 356.87 L 345.18 399.42 L 349.37 408.51 L 353.56 431.53 L 357.75 372.50 L 361.94 400.35 L 366.13 380.83 L 370.32 382.13 L 374.51 378.83 L 378.69 397.38 L 382.88 398.51 L 387.07 397.54 L 391.26 397.99 L 395.45 399.21 L 399.64 380.78 L 403.83 364.03 L 408.02 355.15 L 412.21 357.86 L 416.40 356.22 L 420.59 353.10 L 424.78 342.63 L 428.97 343.61 L 433.16 337.91 L 437.35 334.11 L 441.54 300.17 L 445.73 293.85 L 449.92 291.31 L 454.11 292.95 L 458.29 290.33 L 462.48 288.52 L 466.67 287.88 L 470.86 291.96 L 475.05 298.07 L 479.24 306.68 L 483.43 308.45 L 487.62 307.23 L 491.81 288.36 L 496.00 288.43 L 500.19 290.73 L 504.38 287.82 L 508.57 276.13 L 512.76 279.39 L 516.95 280.72 L 521.14 276.75 L 525.33 272.99 L 529.52 272.13 L 533.71 272.06 L 537.89 279.80 L 542.08 277.48 L 546.27 273.91 L 550.46 279.83 L 554.65 280.89 L 558.84 281.00 L 563.03 280.83 L 567.22 266.41 L 571.41 260.29 L 575.60 257.97 L 579.79 252.09 L 583.98 249.86 L 588.17 252.09 L 592.36 252.02 L 596.55 245.86 L 600.74 242.82 L 604.93 241.60 L 609.12 249.25 L 613.31 241.47 L 617.49 242.08 L 621.68 243.06 L 625.87 244.58 L 630.06 240.23 L 634.25 242.35 L 638.44 238.34 L 642.63 235.16 L 646.82 231.92 L 651.01 234.15 L 655.20 234.40 L 659.39 230.45 L 663.58 231.11 L 667.77 226.76 L 671.96 226.75 L 676.15 226.21 L 680.34 220.68 L 684.53 246.69 L 688.72 240.52 L 692.91 234.89 L 697.09 230.09 L 701.28 227.61 L 705.47 222.50 L 709.66 218.41 L 713.85 214.19 L 718.04 211.01 L 722.23 208.31 L 726.42 211.52 L 730.61 215.20 L 734.80 226.29 L 738.99 229.99 L 743.18 232.33 L 747.37 225.21 L 751.56 222.75 L 755.75 225.54 L 759.94 222.57 L 764.13 220.49 L 768.32 225.56 L 772.51 230.29 L 776.69 229.23 L 780.88 224.72 L 785.07 225.05 L 789.26 219.60 L 793.45 218.24 L 797.64 215.96 L 801.83 212.68 L 806.02 213.88 L 810.21 207.12 L 814.40 200.40 L 818.59 198.27 L 822.78 203.22 L 826.97 199.48 L 831.16 188.80 L 835.35 185.16 L 839.54 185.96 L 843.73 189.40 L 847.92 192.22 L 852.11 193.26 L 856.29 189.63 L 860.48 186.13 L 864.67 176.67 L 868.86 208.01 L 873.05 171.92 L 877.24 189.39 L 881.43 185.86 L 885.62 183.72 L 889.81 185.08 L 894.00 176.79 L 898.19 171.79 L 902.38 173.86 L 906.57 176.43 L 910.76 160.10 L 914.95 154.00 L 919.14 142.11 L 923.33 136.53 L 927.52 158.25 L 931.71 149.71 L 935.89 144.00 L 940.08 156.31 L 944.27 159.85 L 948.46 169.55 L 952.65 174.59 L 956.84 153.19 L 961.03 157.42 L 965.22 162.16 L 969.41 177.52 L 973.60 176.65 L 977.79 177.90 L 981.98 194.23 L 986.17 191.01 L 990.36 199.95 L 994.55 207.71 L 998.74 165.26 L 1002.93 178.79 L 1007.12 174.51 L 1011.31 170.64 L 1015.49 171.43 L 1019.68 167.48 L 1023.87 164.29 L 1028.06 163.17 L 1032.25 154.68 L 1036.44 155.74 L 1040.63 155.22 L 1044.82 155.49 L 1049.01 153.98 L 1053.20 154.90 L 1057.39 180.22 L 1061.58 178.79 L 1065.77 175.35 L 1069.96 190.14 L 1074.15 182.17 L 1078.34 174.10 L 1082.53 169.24 L 1086.72 159.32 L 1090.91 160.50 L 1095.09 160.33 L 1099.28 161.38 L 1103.47 163.24 L 1107.66 165.60 L 1111.85 170.30 L 1116.04 177.08 L 1120.23 170.07 L 1124.42 162.05 L 1128.61 166.15 L 1132.80 164.18 L 1136.99 160.08 L 1141.18 160.58 L 1145.37 175.07 L 1149.56 169.12 L 1153.75 167.54 L 1157.94 170.67 L 1162.13 170.52 L 1166.32 186.87 L 1170.51 171.36 L 1174.69 167.10 L 1178.88 165.28 L 1183.07 158.95 L 1187.26 157.88 L 1191.45 156.19 L 1195.64 163.62 L 1199.83 172.63 L 1204.02 184.58 L 1208.21 194.08 L 1212.40 208.80 L 1216.59 203.68 L 1220.78 186.13 L 1224.97 188.73 L 1229.16 192.38 L 1233.35 205.94 L 1237.54 209.77 L 1241.73 196.43 L 1245.92 187.36 L 1250.11 195.83 L 1254.29 199.60 L 1258.48 196.28 L 1262.67 198.17 L 1266.86 203.65 L 1271.05 193.14 L 1275.24 208.13 L 1279.43 204.51 L 1283.62 200.11 L 1287.81 202.01 L 1292.00 215.62" fill="none" stroke="#1d4ed8" stroke-width="2"  />
  </g>
  <g>
    <text x="54" y="538" fill="#1f2937" font-size="16" font-weight="700">B. 绝对误差（越低越好）</text>
    <line x1="98" y1="540" x2="124" y2="540" stroke="#1d4ed8" stroke-width="2"  />
      <text x="130" y="544" fill="#24312e" font-size="12">持仓分段误差</text>
    <line x1="98" y1="560.00" x2="1292" y2="560.00" stroke="#d7e3df" stroke-width="1" />
      <text x="90" y="564.00" text-anchor="end" fill="#5b6b68" font-size="11">3.42%</text>
<line x1="98" y1="630.00" x2="1292" y2="630.00" stroke="#d7e3df" stroke-width="1" />
      <text x="90" y="634.00" text-anchor="end" fill="#5b6b68" font-size="11">2.57%</text>
<line x1="98" y1="700.00" x2="1292" y2="700.00" stroke="#d7e3df" stroke-width="1" />
      <text x="90" y="704.00" text-anchor="end" fill="#5b6b68" font-size="11">1.71%</text>
<line x1="98" y1="770.00" x2="1292" y2="770.00" stroke="#d7e3df" stroke-width="1" />
      <text x="90" y="774.00" text-anchor="end" fill="#5b6b68" font-size="11">0.86%</text>
<line x1="98" y1="840.00" x2="1292" y2="840.00" stroke="#d7e3df" stroke-width="1" />
      <text x="90" y="844.00" text-anchor="end" fill="#5b6b68" font-size="11">0.00%</text>
    <line x1="98.00" y1="560" x2="98.00" y2="840" stroke="#eef3f1" stroke-width="1" />
      <text x="98.00" y="868" text-anchor="middle" fill="#5b6b68" font-size="11">25-01-02</text>
<line x1="290.72" y1="560" x2="290.72" y2="840" stroke="#eef3f1" stroke-width="1" />
      <text x="290.72" y="868" text-anchor="middle" fill="#5b6b68" font-size="11">25-03-17</text>
<line x1="479.24" y1="560" x2="479.24" y2="840" stroke="#eef3f1" stroke-width="1" />
      <text x="479.24" y="868" text-anchor="middle" fill="#5b6b68" font-size="11">25-05-23</text>
<line x1="697.09" y1="560" x2="697.09" y2="840" stroke="#eef3f1" stroke-width="1" />
      <text x="697.09" y="868" text-anchor="middle" fill="#5b6b68" font-size="11">25-08-06</text>
<line x1="910.76" y1="560" x2="910.76" y2="840" stroke="#eef3f1" stroke-width="1" />
      <text x="910.76" y="868" text-anchor="middle" fill="#5b6b68" font-size="11">25-10-24</text>
<line x1="1099.28" y1="560" x2="1099.28" y2="840" stroke="#eef3f1" stroke-width="1" />
      <text x="1099.28" y="868" text-anchor="middle" fill="#5b6b68" font-size="11">25-12-26</text>
<line x1="1292.00" y1="560" x2="1292.00" y2="840" stroke="#eef3f1" stroke-width="1" />
      <text x="1292.00" y="868" text-anchor="middle" fill="#5b6b68" font-size="11">26-03-12</text>
    <line x1="1116.04" y1="560" x2="1116.04" y2="840" stroke="#f59e0b" stroke-width="1.4" stroke-dasharray="4 4" />
       <text x="1122.04" y="552" fill="#a16207" font-size="11">验证起点</text>
    <path d="M 98.00 811.30 L 102.19 824.44 L 106.38 835.66 L 110.57 768.23 L 114.76 830.26 L 118.95 838.61 L 123.14 714.17 L 127.33 832.63 L 131.52 817.80 L 135.71 827.17 L 139.89 827.10 L 144.08 810.47 L 148.27 824.38 L 152.46 798.63 L 156.65 827.40 L 160.84 839.21 L 165.03 797.57 L 169.22 685.09 L 173.41 775.80 L 177.60 838.33 L 181.79 835.63 L 185.98 817.21 L 190.17 810.64 L 194.36 834.76 L 198.55 755.40 L 202.74 821.30 L 206.93 833.62 L 211.12 822.21 L 215.31 829.18 L 219.49 816.40 L 223.68 821.69 L 227.87 799.60 L 232.06 819.66 L 236.25 813.89 L 240.44 798.02 L 244.63 823.31 L 248.82 756.43 L 253.01 809.19 L 257.20 828.09 L 261.39 807.80 L 265.58 839.27 L 269.77 825.89 L 273.96 802.35 L 278.15 816.70 L 282.34 833.24 L 286.53 806.63 L 290.72 798.07 L 294.91 824.41 L 299.09 833.14 L 303.28 829.45 L 307.47 834.23 L 311.66 762.51 L 315.85 818.73 L 320.04 828.73 L 324.23 815.31 L 328.42 828.02 L 332.61 822.18 L 336.80 821.59 L 340.99 800.99 L 345.18 718.05 L 349.37 590.00 L 353.56 738.65 L 357.75 770.48 L 361.94 767.08 L 366.13 820.76 L 370.32 794.90 L 374.51 823.62 L 378.69 838.32 L 382.88 827.25 L 387.07 834.17 L 391.26 636.38 L 395.45 812.19 L 399.64 820.03 L 403.83 836.39 L 408.02 823.61 L 412.21 829.87 L 416.40 803.04 L 420.59 834.23 L 424.78 814.37 L 428.97 825.48 L 433.16 801.21 L 437.35 834.70 L 441.54 772.15 L 445.73 821.60 L 449.92 836.55 L 454.11 820.16 L 458.29 811.62 L 462.48 826.01 L 466.67 815.20 L 470.86 752.18 L 475.05 824.98 L 479.24 835.31 L 483.43 821.06 L 487.62 643.71 L 491.81 799.00 L 496.00 815.86 L 500.19 824.87 L 504.38 760.23 L 508.57 815.15 L 512.76 781.59 L 516.95 805.23 L 521.14 832.05 L 525.33 820.19 L 529.52 819.45 L 533.71 834.31 L 537.89 807.15 L 542.08 777.66 L 546.27 775.47 L 550.46 839.06 L 554.65 829.54 L 558.84 809.57 L 563.03 783.23 L 567.22 817.79 L 571.41 813.29 L 575.60 819.51 L 579.79 834.80 L 583.98 822.83 L 588.17 804.31 L 592.36 815.65 L 596.55 803.93 L 600.74 835.11 L 604.93 766.86 L 609.12 829.14 L 613.31 831.08 L 617.49 822.34 L 621.68 812.32 L 625.87 827.00 L 630.06 818.38 L 634.25 824.98 L 638.44 816.14 L 642.63 831.45 L 646.82 836.78 L 651.01 816.26 L 655.20 831.51 L 659.39 823.44 L 663.58 825.27 L 667.77 834.77 L 671.96 830.46 L 676.15 829.93 L 680.34 739.60 L 684.53 839.60 L 688.72 764.52 L 692.91 793.84 L 697.09 825.77 L 701.28 831.12 L 705.47 799.57 L 709.66 810.63 L 713.85 800.10 L 718.04 836.19 L 722.23 812.41 L 726.42 805.43 L 730.61 836.97 L 734.80 835.58 L 738.99 828.62 L 743.18 802.75 L 747.37 821.03 L 751.56 795.15 L 755.75 822.55 L 759.94 832.63 L 764.13 824.32 L 768.32 803.64 L 772.51 823.79 L 776.69 781.25 L 780.88 800.18 L 785.07 803.11 L 789.26 832.23 L 793.45 827.31 L 797.64 830.67 L 801.83 826.57 L 806.02 793.60 L 810.21 831.26 L 814.40 820.84 L 818.59 824.23 L 822.78 826.53 L 826.97 778.03 L 831.16 820.03 L 835.35 812.95 L 839.54 809.35 L 843.73 818.87 L 847.92 817.79 L 852.11 814.61 L 856.29 821.35 L 860.48 836.20 L 864.67 783.05 L 868.86 779.89 L 873.05 722.10 L 877.24 837.56 L 881.43 824.82 L 885.62 802.00 L 889.81 813.67 L 894.00 786.51 L 898.19 837.28 L 902.38 778.10 L 906.57 812.76 L 910.76 801.14 L 914.95 795.40 L 919.14 833.72 L 923.33 818.53 L 927.52 783.07 L 931.71 821.41 L 935.89 837.92 L 940.08 784.08 L 944.27 799.71 L 948.46 807.02 L 952.65 826.87 L 956.84 809.81 L 961.03 821.74 L 965.22 823.34 L 969.41 836.12 L 973.60 827.89 L 977.79 769.80 L 981.98 832.50 L 986.17 831.55 L 990.36 744.55 L 994.55 801.70 L 998.74 677.51 L 1002.93 827.27 L 1007.12 798.83 L 1011.31 839.74 L 1015.49 768.67 L 1019.68 837.29 L 1023.87 794.51 L 1028.06 791.40 L 1032.25 796.31 L 1036.44 833.09 L 1040.63 823.99 L 1044.82 839.95 L 1049.01 822.39 L 1053.20 830.13 L 1057.39 777.02 L 1061.58 831.84 L 1065.77 829.48 L 1069.96 811.91 L 1074.15 822.90 L 1078.34 798.09 L 1082.53 804.89 L 1086.72 817.62 L 1090.91 835.52 L 1095.09 833.79 L 1099.28 835.82 L 1103.47 811.22 L 1107.66 814.99 L 1111.85 783.99 L 1116.04 790.59 L 1120.23 786.79 L 1124.42 824.30 L 1128.61 816.52 L 1132.80 807.22 L 1136.99 838.77 L 1141.18 827.94 L 1145.37 802.15 L 1149.56 838.46 L 1153.75 822.15 L 1157.94 832.15 L 1162.13 663.98 L 1166.32 748.86 L 1170.51 833.41 L 1174.69 824.03 L 1178.88 831.20 L 1183.07 834.53 L 1187.26 830.05 L 1191.45 792.11 L 1195.64 745.52 L 1199.83 789.12 L 1204.02 813.36 L 1208.21 803.54 L 1212.40 837.92 L 1216.59 718.03 L 1220.78 832.05 L 1224.97 820.47 L 1229.16 803.41 L 1233.35 837.64 L 1237.54 791.57 L 1241.73 839.56 L 1245.92 824.03 L 1250.11 830.91 L 1254.29 836.11 L 1258.48 822.47 L 1262.67 734.35 L 1266.86 765.37 L 1271.05 775.86 L 1275.24 800.49 L 1279.43 793.68 L 1283.62 820.32 L 1287.81 834.05 L 1292.00 830.52" fill="none" stroke="#1d4ed8" stroke-width="2"  />
  </g>
</svg>