<?xml version="1.0" encoding="UTF-8"?>
<svg xmlns="http://www.w3.org/2000/svg" width="1360" height="980" viewBox="0 0 1360 980">
  <defs>
    <linearGradient id="bg" x1="0" y1="0" x2="1" y2="1">
      <stop offset="0%" stop-color="#f4efe6" />
      <stop offset="100%" stop-color="#eef5f2" />
    </linearGradient>
  </defs>
  <rect x="0" y="0" width="1360" height="980" fill="url(#bg)" />
  <text x="46" y="36" fill="#1f2937" font-size="31" font-weight="700">513290 离线研究图（持仓逐日估值版）</text>
  <text x="46" y="66" fill="#5b6b68" font-size="13">历史前十大持仓 + 持仓逐日涨跌幅 + USDCNY；双目标 lambda=0.10；披露期数 13；覆盖率均值 92.1%</text>
  <g>
    <text x="54" y="110" fill="#1f2937" font-size="16" font-weight="700">A. 净值拟合（同日对齐，无平移）</text>
    <line x1="98" y1="112" x2="124" y2="112" stroke="#0f766e" stroke-width="2"  />
      <text x="130" y="116" fill="#24312e" font-size="12">真实净值</text>
<line x1="313" y1="112" x2="339" y2="112" stroke="#1d4ed8" stroke-width="2"  />
      <text x="345" y="116" fill="#24312e" font-size="12">持仓分段估值</text>
    <line x1="98" y1="132.00" x2="1292" y2="132.00" stroke="#d7e3df" stroke-width="1" />
      <text x="90" y="136.00" text-anchor="end" fill="#5b6b68" font-size="11">1.540</text>
<line x1="98" y1="209.50" x2="1292" y2="209.50" stroke="#d7e3df" stroke-width="1" />
      <text x="90" y="213.50" text-anchor="end" fill="#5b6b68" font-size="11">1.399</text>
<line x1="98" y1="287.00" x2="1292" y2="287.00" stroke="#d7e3df" stroke-width="1" />
      <text x="90" y="291.00" text-anchor="end" fill="#5b6b68" font-size="11">1.259</text>
<line x1="98" y1="364.50" x2="1292" y2="364.50" stroke="#d7e3df" stroke-width="1" />
      <text x="90" y="368.50" text-anchor="end" fill="#5b6b68" font-size="11">1.118</text>
<line x1="98" y1="442.00" x2="1292" y2="442.00" stroke="#d7e3df" stroke-width="1" />
      <text x="90" y="446.00" text-anchor="end" fill="#5b6b68" font-size="11">0.978</text>
    <line x1="98.00" y1="132" x2="98.00" y2="442" stroke="#eef3f1" stroke-width="1" />
      <text x="98.00" y="470" text-anchor="middle" fill="#5b6b68" font-size="11">25-01-02</text>
<line x1="290.72" y1="132" x2="290.72" y2="442" stroke="#eef3f1" stroke-width="1" />
      <text x="290.72" y="470" text-anchor="middle" fill="#5b6b68" font-size="11">25-03-17</text>
<line x1="479.24" y1="132" x2="479.24" y2="442" stroke="#eef3f1" stroke-width="1" />
      <text x="479.24" y="470" text-anchor="middle" fill="#5b6b68" font-size="11">25-05-23</text>
<line x1="697.09" y1="132" x2="697.09" y2="442" stroke="#eef3f1" stroke-width="1" />
      <text x="697.09" y="470" text-anchor="middle" fill="#5b6b68" font-size="11">25-08-06</text>
<line x1="910.76" y1="132" x2="910.76" y2="442" stroke="#eef3f1" stroke-width="1" />
      <text x="910.76" y="470" text-anchor="middle" fill="#5b6b68" font-size="11">25-10-24</text>
<line x1="1099.28" y1="132" x2="1099.28" y2="442" stroke="#eef3f1" stroke-width="1" />
      <text x="1099.28" y="470" text-anchor="middle" fill="#5b6b68" font-size="11">25-12-26</text>
<line x1="1292.00" y1="132" x2="1292.00" y2="442" stroke="#eef3f1" stroke-width="1" />
      <text x="1292.00" y="470" text-anchor="middle" fill="#5b6b68" font-size="11">26-03-12</text>
    <line x1="1116.04" y1="132" x2="1116.04" y2="442" stroke="#f59e0b" stroke-width="1.4" stroke-dasharray="4 4" />
       <text x="1122.04" y="124" fill="#a16207" font-size="11">验证起点</text>
    <path d="M 98.00 353.76 L 102.19 349.01 L 106.38 350.39 L 110.57 345.03 L 114.76 348.45 L 118.95 348.51 L 123.14 359.94 L 127.33 355.03 L 131.52 366.62 L 135.71 354.69 L 139.89 357.57 L 144.08 357.46 L 148.27 357.51 L 152.46 342.60 L 156.65 340.78 L 160.84 330.18 L 165.03 333.82 L 169.22 328.74 L 173.41 310.80 L 177.60 319.63 L 181.79 333.60 L 185.98 338.52 L 190.17 346.52 L 194.36 337.80 L 198.55 328.08 L 202.74 329.24 L 206.93 329.35 L 211.12 326.98 L 215.31 320.63 L 219.49 317.15 L 223.68 319.30 L 227.87 323.17 L 232.06 327.58 L 236.25 330.84 L 240.44 337.47 L 244.63 328.80 L 248.82 341.11 L 253.01 339.29 L 257.20 327.97 L 261.39 332.17 L 265.58 330.34 L 269.77 333.38 L 273.96 339.73 L 278.15 337.85 L 282.34 342.38 L 286.53 338.57 L 290.72 329.74 L 294.91 339.29 L 299.09 335.92 L 303.28 340.39 L 307.47 338.74 L 311.66 330.84 L 315.85 342.55 L 320.04 352.54 L 324.23 349.78 L 328.42 355.25 L 332.61 367.28 L 336.80 383.52 L 340.99 372.75 L 345.18 382.80 L 349.37 421.84 L 353.56 439.29 L 357.75 410.52 L 361.94 432.33 L 366.13 412.89 L 370.32 395.72 L 374.51 398.09 L 378.69 409.25 L 382.88 403.95 L 387.07 404.11 L 391.26 408.31 L 395.45 392.96 L 399.64 382.58 L 403.83 371.98 L 408.02 380.92 L 412.21 373.30 L 416.40 371.87 L 420.59 362.42 L 424.78 403.23 L 428.97 401.63 L 433.16 402.79 L 437.35 413.50 L 441.54 390.09 L 445.73 401.96 L 449.92 413.56 L 454.11 400.97 L 458.29 391.69 L 462.48 384.84 L 466.67 375.40 L 470.86 387.22 L 475.05 389.37 L 479.24 388.71 L 483.43 389.48 L 487.62 383.79 L 491.81 389.20 L 496.00 376.62 L 500.19 390.42 L 504.38 374.52 L 508.57 374.96 L 512.76 375.29 L 516.95 364.80 L 521.14 362.20 L 525.33 357.01 L 529.52 362.59 L 533.71 356.41 L 537.89 361.49 L 542.08 363.09 L 546.27 375.23 L 550.46 372.42 L 554.65 372.75 L 558.84 374.85 L 563.03 377.83 L 567.22 366.51 L 571.41 370.82 L 575.60 370.21 L 579.79 372.53 L 583.98 372.47 L 588.17 368.55 L 592.36 358.56 L 596.55 355.63 L 600.74 355.58 L 604.93 364.80 L 609.12 359.55 L 613.31 342.27 L 617.49 336.64 L 621.68 346.96 L 625.87 339.62 L 630.06 353.26 L 634.25 341.22 L 638.44 340.50 L 642.63 349.28 L 646.82 350.39 L 651.01 337.52 L 655.20 325.98 L 659.39 329.29 L 663.58 328.52 L 667.77 336.86 L 671.96 336.69 L 676.15 336.31 L 680.34 340.50 L 684.53 336.42 L 688.72 324.33 L 692.91 334.32 L 697.09 341.77 L 701.28 342.93 L 705.47 337.96 L 709.66 339.12 L 713.85 329.90 L 718.04 314.94 L 722.23 313.94 L 726.42 306.44 L 730.61 308.92 L 734.80 312.51 L 738.99 308.15 L 743.18 304.78 L 747.37 301.24 L 751.56 315.60 L 755.75 307.48 L 759.94 308.75 L 764.13 311.46 L 768.32 312.56 L 772.51 312.23 L 776.69 298.93 L 780.88 297.60 L 785.07 300.47 L 789.26 287.88 L 793.45 294.84 L 797.64 291.69 L 801.83 300.25 L 806.02 287.33 L 810.21 299.48 L 814.40 303.40 L 818.59 303.51 L 822.78 302.68 L 826.97 289.26 L 831.16 293.13 L 835.35 289.65 L 839.54 293.57 L 843.73 294.89 L 847.92 306.66 L 852.11 296.16 L 856.29 288.77 L 860.48 282.47 L 864.67 246.14 L 868.86 256.41 L 873.05 254.15 L 877.24 251.88 L 881.43 240.56 L 885.62 243.43 L 889.81 239.35 L 894.00 229.24 L 898.19 234.43 L 902.38 244.26 L 906.57 244.32 L 910.76 240.01 L 914.95 228.47 L 919.14 226.59 L 923.33 229.46 L 927.52 224.22 L 931.71 217.37 L 935.89 226.81 L 940.08 233.99 L 944.27 223.67 L 948.46 223.67 L 952.65 227.70 L 956.84 217.76 L 961.03 195.06 L 965.22 193.79 L 969.41 200.03 L 973.60 195.56 L 977.79 188.71 L 981.98 182.64 L 986.17 189.71 L 990.36 196.50 L 994.55 183.08 L 998.74 171.82 L 1002.93 161.27 L 1007.12 154.37 L 1011.31 154.59 L 1015.49 154.04 L 1019.68 172.26 L 1023.87 177.28 L 1028.06 161.82 L 1032.25 162.10 L 1036.44 165.74 L 1040.63 167.90 L 1044.82 182.58 L 1049.01 174.63 L 1053.20 169.11 L 1057.39 171.76 L 1061.58 171.54 L 1065.77 176.46 L 1069.96 181.15 L 1074.15 187.22 L 1078.34 168.67 L 1082.53 156.36 L 1086.72 159.78 L 1090.91 154.59 L 1095.09 155.53 L 1099.28 160.83 L 1103.47 167.23 L 1107.66 175.35 L 1111.85 175.90 L 1116.04 187.22 L 1120.23 170.22 L 1124.42 145.26 L 1128.61 164.20 L 1132.80 163.09 L 1136.99 169.88 L 1141.18 170.00 L 1145.37 160.11 L 1149.56 172.54 L 1153.75 172.09 L 1157.94 172.48 L 1162.13 171.60 L 1166.32 152.66 L 1170.51 139.24 L 1174.69 151.11 L 1178.88 148.68 L 1183.07 143.27 L 1187.26 158.79 L 1191.45 156.52 L 1195.64 165.14 L 1199.83 155.36 L 1204.02 156.69 L 1208.21 155.42 L 1212.40 172.15 L 1216.59 146.03 L 1220.78 148.07 L 1224.97 159.28 L 1229.16 155.64 L 1233.35 164.03 L 1237.54 156.58 L 1241.73 136.70 L 1245.92 142.17 L 1250.11 149.79 L 1254.29 142.99 L 1258.48 146.86 L 1262.67 167.40 L 1266.86 154.04 L 1271.05 174.85 L 1275.24 179.60 L 1279.43 162.15 L 1283.62 158.01 L 1287.81 164.14 L 1292.00 185.40" fill="none" stroke="#0f766e" stroke-width="2"  />
<path d="M 98.00 355.93 L 102.19 348.86 L 106.38 347.53 L 110.57 349.69 L 114.76 344.35 L 118.95 348.51 L 123.14 348.80 L 127.33 358.06 L 131.52 363.33 L 135.71 358.06 L 139.89 355.57 L 144.08 356.56 L 148.27 358.25 L 152.46 358.58 L 156.65 341.00 L 160.84 332.85 L 165.03 333.04 L 169.22 334.57 L 173.41 310.60 L 177.60 312.69 L 181.79 331.07 L 185.98 334.25 L 190.17 341.63 L 194.36 343.73 L 198.55 333.32 L 202.74 327.80 L 206.93 329.46 L 211.12 329.06 L 215.31 322.73 L 219.49 320.48 L 223.68 320.20 L 227.87 321.31 L 232.06 326.04 L 236.25 328.47 L 240.44 339.08 L 244.63 329.59 L 248.82 347.26 L 253.01 340.55 L 257.20 331.17 L 261.39 333.72 L 265.58 330.50 L 269.77 339.74 L 273.96 336.16 L 278.15 337.14 L 282.34 343.16 L 286.53 335.55 L 290.72 333.37 L 294.91 339.43 L 299.09 335.75 L 303.28 338.23 L 307.47 338.38 L 311.66 326.57 L 315.85 333.28 L 320.04 350.12 L 324.23 351.78 L 328.42 357.41 L 332.61 354.12 L 336.80 377.81 L 340.99 376.54 L 345.18 389.23 L 349.37 431.81 L 353.56 437.64 L 357.75 400.27 L 361.94 434.34 L 366.13 420.66 L 370.32 397.79 L 374.51 395.67 L 378.69 409.62 L 382.88 408.04 L 387.07 404.09 L 391.26 403.65 L 395.45 391.81 L 399.64 385.47 L 403.83 370.44 L 408.02 372.55 L 412.21 377.85 L 416.40 372.38 L 420.59 368.00 L 424.78 397.62 L 428.97 401.66 L 433.16 399.30 L 437.35 411.60 L 441.54 384.09 L 445.73 398.15 L 449.92 405.06 L 454.11 406.06 L 458.29 392.81 L 462.48 389.53 L 466.67 377.59 L 470.86 389.10 L 475.05 387.51 L 479.24 391.19 L 483.43 389.05 L 487.62 389.40 L 491.81 385.62 L 496.00 381.16 L 500.19 384.11 L 504.38 376.58 L 508.57 373.16 L 512.76 376.30 L 516.95 366.52 L 521.14 363.54 L 525.33 359.40 L 529.52 359.31 L 533.71 361.19 L 537.89 359.80 L 542.08 360.64 L 546.27 371.58 L 550.46 373.82 L 554.65 372.63 L 558.84 373.16 L 563.03 374.49 L 567.22 367.84 L 571.41 367.44 L 575.60 368.76 L 579.79 371.01 L 583.98 372.31 L 588.17 371.71 L 592.36 360.33 L 596.55 356.42 L 600.74 355.71 L 604.93 356.10 L 609.12 360.93 L 613.31 347.07 L 617.49 339.65 L 621.68 343.82 L 625.87 346.36 L 630.06 349.88 L 634.25 344.44 L 638.44 339.04 L 642.63 349.49 L 646.82 350.57 L 651.01 341.14 L 655.20 329.39 L 659.39 326.26 L 663.58 327.85 L 667.77 329.32 L 671.96 337.31 L 676.15 335.83 L 680.34 337.88 L 684.53 340.86 L 688.72 333.10 L 692.91 325.94 L 697.09 335.91 L 701.28 341.69 L 705.47 340.82 L 709.66 338.29 L 713.85 327.39 L 718.04 317.57 L 722.23 314.62 L 726.42 310.17 L 730.61 307.45 L 734.80 311.71 L 738.99 311.58 L 743.18 307.23 L 747.37 299.33 L 751.56 315.60 L 755.75 311.97 L 759.94 306.13 L 764.13 309.03 L 768.32 312.47 L 772.51 312.85 L 776.69 312.07 L 780.88 296.78 L 785.07 296.62 L 789.26 290.76 L 793.45 289.53 L 797.64 292.76 L 801.83 295.56 L 806.02 288.61 L 810.21 295.15 L 814.40 299.35 L 818.59 302.06 L 822.78 303.64 L 826.97 291.10 L 831.16 289.81 L 835.35 290.59 L 839.54 291.60 L 843.73 294.03 L 847.92 302.76 L 852.11 299.88 L 856.29 293.80 L 860.48 284.80 L 864.67 243.93 L 868.86 260.42 L 873.05 252.47 L 877.24 253.71 L 881.43 243.63 L 885.62 240.23 L 889.81 241.78 L 894.00 233.25 L 898.19 229.55 L 902.38 242.91 L 906.57 241.42 L 910.76 241.29 L 914.95 234.31 L 919.14 227.03 L 923.33 227.81 L 927.52 229.04 L 931.71 218.79 L 935.89 219.40 L 940.08 235.26 L 944.27 224.04 L 948.46 225.46 L 952.65 224.24 L 956.84 221.89 L 961.03 203.19 L 965.22 193.40 L 969.41 205.29 L 973.60 196.93 L 977.79 194.10 L 981.98 187.71 L 986.17 182.48 L 990.36 192.24 L 994.55 183.71 L 998.74 165.85 L 1002.93 166.27 L 1007.12 156.93 L 1011.31 154.28 L 1015.49 154.82 L 1019.68 170.66 L 1023.87 172.46 L 1028.06 166.62 L 1032.25 159.66 L 1036.44 161.22 L 1040.63 168.10 L 1044.82 172.49 L 1049.01 178.05 L 1053.20 173.02 L 1057.39 172.08 L 1061.58 172.21 L 1065.77 173.88 L 1069.96 179.61 L 1074.15 181.24 L 1078.34 167.53 L 1082.53 163.72 L 1086.72 157.45 L 1090.91 157.19 L 1095.09 154.88 L 1099.28 155.82 L 1103.47 163.05 L 1107.66 175.87 L 1111.85 177.36 L 1116.04 176.49 L 1120.23 173.52 L 1124.42 152.92 L 1128.61 160.55 L 1132.80 161.30 L 1136.99 165.81 L 1141.18 169.10 L 1145.37 168.30 L 1149.56 163.90 L 1153.75 173.48 L 1157.94 173.35 L 1162.13 172.86 L 1166.32 153.26 L 1170.51 141.99 L 1174.69 147.48 L 1178.88 150.66 L 1183.07 145.92 L 1187.26 151.36 L 1191.45 158.18 L 1195.64 166.07 L 1199.83 160.39 L 1204.02 157.44 L 1208.21 157.82 L 1212.40 172.55 L 1216.59 152.98 L 1220.78 144.99 L 1224.97 151.10 L 1229.16 158.84 L 1233.35 167.94 L 1237.54 160.68 L 1241.73 138.71 L 1245.92 136.23 L 1250.11 145.89 L 1254.29 148.11 L 1258.48 144.94 L 1262.67 159.76 L 1266.86 153.99 L 1271.05 168.13 L 1275.24 177.01 L 1279.43 161.30 L 1283.62 163.39 L 1287.81 159.69 L 1292.00 184.30" fill="none" stroke="#1d4ed8" stroke-width="2"  />
  </g>
  <g>
    <text x="54" y="538" fill="#1f2937" font-size="16" font-weight="700">B. 绝对误差（越低越好）</text>
    <line x1="98" y1="540" x2="124" y2="540" stroke="#1d4ed8" stroke-width="2"  />
      <text x="130" y="544" fill="#24312e" font-size="12">持仓分段误差</text>
    <line x1="98" y1="560.00" x2="1292" y2="560.00" stroke="#d7e3df" stroke-width="1" />
      <text x="90" y="564.00" text-anchor="end" fill="#5b6b68" font-size="11">2.80%</text>
<line x1="98" y1="630.00" x2="1292" y2="630.00" stroke="#d7e3df" stroke-width="1" />
      <text x="90" y="634.00" text-anchor="end" fill="#5b6b68" font-size="11">2.10%</text>
<line x1="98" y1="700.00" x2="1292" y2="700.00" stroke="#d7e3df" stroke-width="1" />
      <text x="90" y="704.00" text-anchor="end" fill="#5b6b68" font-size="11">1.40%</text>
<line x1="98" y1="770.00" x2="1292" y2="770.00" stroke="#d7e3df" stroke-width="1" />
      <text x="90" y="774.00" text-anchor="end" fill="#5b6b68" font-size="11">0.70%</text>
<line x1="98" y1="840.00" x2="1292" y2="840.00" stroke="#d7e3df" stroke-width="1" />
      <text x="90" y="844.00" text-anchor="end" fill="#5b6b68" font-size="11">0.00%</text>
    <line x1="98.00" y1="560" x2="98.00" y2="840" stroke="#eef3f1" stroke-width="1" />
      <text x="98.00" y="868" text-anchor="middle" fill="#5b6b68" font-size="11">25-01-02</text>
<line x1="290.72" y1="560" x2="290.72" y2="840" stroke="#eef3f1" stroke-width="1" />
      <text x="290.72" y="868" text-anchor="middle" fill="#5b6b68" font-size="11">25-03-17</text>
<line x1="479.24" y1="560" x2="479.24" y2="840" stroke="#eef3f1" stroke-width="1" />
      <text x="479.24" y="868" text-anchor="middle" fill="#5b6b68" font-size="11">25-05-23</text>
<line x1="697.09" y1="560" x2="697.09" y2="840" stroke="#eef3f1" stroke-width="1" />
      <text x="697.09" y="868" text-anchor="middle" fill="#5b6b68" font-size="11">25-08-06</text>
<line x1="910.76" y1="560" x2="910.76" y2="840" stroke="#eef3f1" stroke-width="1" />
      <text x="910.76" y="868" text-anchor="middle" fill="#5b6b68" font-size="11">25-10-24</text>
<line x1="1099.28" y1="560" x2="1099.28" y2="840" stroke="#eef3f1" stroke-width="1" />
      <text x="1099.28" y="868" text-anchor="middle" fill="#5b6b68" font-size="11">25-12-26</text>
<line x1="1292.00" y1="560" x2="1292.00" y2="840" stroke="#eef3f1" stroke-width="1" />
      <text x="1292.00" y="868" text-anchor="middle" fill="#5b6b68" font-size="11">26-03-12</text>
    <line x1="1116.04" y1="560" x2="1116.04" y2="840" stroke="#f59e0b" stroke-width="1.4" stroke-dasharray="4 4" />
       <text x="1122.04" y="552" fill="#a16207" font-size="11">验证起点</text>
    <path d="M 98.00 805.38 L 102.19 837.60 L 106.38 794.74 L 110.57 766.78 L 114.76 775.20 L 118.95 839.96 L 123.14 660.88 L 127.33 791.54 L 131.52 786.45 L 135.71 786.25 L 139.89 807.96 L 144.08 825.71 L 148.27 828.12 L 152.46 590.00 L 156.65 836.57 L 160.84 799.00 L 165.03 827.86 L 169.22 750.79 L 173.41 836.99 L 177.60 735.15 L 181.79 801.01 L 185.98 773.71 L 190.17 763.03 L 194.36 747.80 L 198.55 759.85 L 202.74 817.94 L 206.93 838.34 L 211.12 808.12 L 215.31 808.17 L 219.49 789.83 L 223.68 826.41 L 227.87 811.84 L 232.06 816.40 L 236.25 803.56 L 240.44 815.00 L 244.63 827.82 L 248.82 743.99 L 253.01 820.29 L 257.20 791.07 L 261.39 816.11 L 265.58 837.56 L 269.77 741.83 L 273.96 784.43 L 278.15 828.91 L 282.34 827.83 L 286.53 793.06 L 290.72 784.32 L 294.91 837.84 L 299.09 837.32 L 303.28 806.21 L 307.47 834.50 L 311.66 774.31 L 315.85 695.07 L 320.04 801.45 L 324.23 808.36 L 328.42 805.51 L 332.61 625.77 L 336.80 744.64 L 340.99 777.69 L 345.18 732.69 L 349.37 661.86 L 353.56 809.66 L 357.75 660.64 L 361.94 803.36 L 366.13 703.40 L 370.32 804.73 L 374.51 798.49 L 378.69 833.55 L 382.88 769.12 L 387.07 839.57 L 391.26 758.73 L 395.45 820.39 L 399.64 791.68 L 403.83 814.86 L 408.02 700.58 L 412.21 765.24 L 416.40 831.60 L 420.59 749.92 L 424.78 743.04 L 428.97 839.51 L 433.16 779.77 L 437.35 806.63 L 441.54 738.54 L 445.73 774.25 L 449.92 690.37 L 454.11 752.27 L 458.29 820.98 L 462.48 761.44 L 466.67 803.89 L 470.86 808.31 L 475.05 808.65 L 479.24 798.17 L 483.43 832.76 L 487.62 746.24 L 491.81 779.51 L 496.00 764.88 L 500.19 733.36 L 504.38 806.09 L 508.57 810.29 L 512.76 823.41 L 516.95 812.11 L 521.14 818.42 L 525.33 801.77 L 529.52 787.03 L 533.71 763.54 L 537.89 812.88 L 542.08 800.42 L 546.27 779.80 L 550.46 817.06 L 554.65 838.00 L 558.84 812.10 L 563.03 784.64 L 567.22 818.35 L 571.41 784.73 L 575.60 816.20 L 579.79 815.01 L 583.98 837.38 L 588.17 788.58 L 592.36 811.55 L 596.55 827.35 L 600.74 837.87 L 604.93 699.01 L 609.12 817.87 L 613.31 765.00 L 617.49 793.34 L 621.68 790.46 L 625.87 734.97 L 630.06 786.23 L 634.25 789.70 L 638.44 817.13 L 642.63 836.78 L 646.82 837.08 L 651.01 783.76 L 655.20 788.07 L 659.39 793.49 L 663.58 829.76 L 667.77 723.08 L 671.96 830.41 L 676.15 832.56 L 680.34 799.06 L 684.53 771.11 L 688.72 706.43 L 692.91 710.49 L 697.09 748.37 L 701.28 820.56 L 705.47 795.68 L 709.66 827.03 L 713.85 801.48 L 718.04 800.52 L 722.23 829.95 L 726.42 784.61 L 730.61 818.16 L 734.80 828.06 L 738.99 789.01 L 743.18 803.83 L 747.37 811.82 L 751.56 839.92 L 755.75 773.44 L 759.94 800.99 L 764.13 803.75 L 768.32 838.65 L 772.51 830.72 L 776.69 647.40 L 780.88 827.94 L 785.07 783.41 L 789.26 798.56 L 793.45 762.72 L 797.64 824.45 L 801.83 771.11 L 806.02 821.50 L 810.21 776.57 L 814.40 780.26 L 818.59 818.59 L 822.78 825.87 L 826.97 813.52 L 831.16 791.81 L 835.35 826.39 L 839.54 811.43 L 843.73 827.38 L 847.92 782.25 L 852.11 785.82 L 856.29 767.40 L 860.48 806.62 L 864.67 809.98 L 868.86 784.63 L 873.05 817.01 L 877.24 814.97 L 881.43 798.65 L 885.62 796.58 L 889.81 807.16 L 894.00 786.71 L 898.19 774.63 L 902.38 821.62 L 906.57 800.65 L 910.76 822.71 L 914.95 762.40 L 919.14 834.25 L 923.33 818.06 L 927.52 776.38 L 931.71 821.47 L 935.89 741.73 L 940.08 823.01 L 944.27 835.01 L 948.46 816.31 L 952.65 794.20 L 956.84 785.93 L 961.03 736.72 L 965.22 835.01 L 969.41 772.76 L 973.60 822.55 L 977.79 772.00 L 981.98 776.56 L 986.17 748.69 L 990.36 785.77 L 994.55 832.17 L 998.74 766.27 L 1002.93 779.10 L 1007.12 809.06 L 1011.31 836.28 L 1015.49 830.54 L 1019.68 820.20 L 1023.87 780.01 L 1028.06 781.41 L 1032.25 810.18 L 1036.44 784.54 L 1040.63 837.46 L 1044.82 713.70 L 1049.01 797.67 L 1053.20 791.84 L 1057.39 836.07 L 1061.58 831.77 L 1065.77 807.98 L 1069.96 820.75 L 1074.15 764.64 L 1078.34 825.95 L 1082.53 750.74 L 1086.72 811.60 L 1090.91 808.58 L 1095.09 832.13 L 1099.28 779.00 L 1103.47 788.62 L 1107.66 833.54 L 1111.85 821.86 L 1116.04 704.82 L 1120.23 799.29 L 1124.42 748.32 L 1128.61 795.36 L 1132.80 818.08 L 1136.99 789.79 L 1141.18 828.92 L 1145.37 740.34 L 1149.56 733.23 L 1153.75 822.84 L 1157.94 829.27 L 1162.13 824.39 L 1166.32 832.79 L 1170.51 807.32 L 1174.69 796.29 L 1178.88 816.29 L 1183.07 808.37 L 1187.26 749.72 L 1191.45 819.85 L 1195.64 828.59 L 1199.83 779.10 L 1204.02 830.83 L 1208.21 810.89 L 1212.40 834.99 L 1216.59 756.82 L 1220.78 802.94 L 1224.97 740.41 L 1229.16 801.19 L 1233.35 792.21 L 1237.54 790.32 L 1241.73 816.15 L 1245.92 769.26 L 1250.11 793.16 L 1254.29 778.96 L 1258.48 816.94 L 1262.67 746.09 L 1266.86 839.45 L 1271.05 756.60 L 1275.24 807.65 L 1279.43 829.58 L 1283.62 774.74 L 1287.81 785.52 L 1292.00 826.20" fill="none" stroke="#1d4ed8" stroke-width="2"  />
  </g>
</svg>