<?xml version="1.0" encoding="UTF-8"?>
<svg xmlns="http://www.w3.org/2000/svg" width="1360" height="980" viewBox="0 0 1360 980">
  <defs>
    <linearGradient id="bg" x1="0" y1="0" x2="1" y2="1">
      <stop offset="0%" stop-color="#f4efe6" />
      <stop offset="100%" stop-color="#eef5f2" />
    </linearGradient>
  </defs>
  <rect x="0" y="0" width="1360" height="980" fill="url(#bg)" />
  <text x="46" y="36" fill="#1f2937" font-size="31" font-weight="700">513300 离线研究图（持仓逐日估值版）</text>
  <text x="46" y="66" fill="#5b6b68" font-size="13">历史前十大持仓 + 持仓逐日涨跌幅 + USDCNY；双目标 lambda=0.10；披露期数 14；覆盖率均值 92.1%</text>
  <g>
    <text x="54" y="110" fill="#1f2937" font-size="16" font-weight="700">A. 净值拟合（同日对齐，无平移）</text>
    <line x1="98" y1="130" x2="124" y2="130" stroke="#0f766e" stroke-width="2"  />
      <text x="130" y="134" fill="#24312e" font-size="12">真实净值</text>
<line x1="313" y1="130" x2="339" y2="130" stroke="#1d4ed8" stroke-width="2"  />
      <text x="345" y="134" fill="#24312e" font-size="12">持仓分段估值</text>
    <line x1="98" y1="132.00" x2="1292" y2="132.00" stroke="#d7e3df" stroke-width="1" />
      <text x="90" y="136.00" text-anchor="end" fill="#5b6b68" font-size="11">2.333</text>
<line x1="98" y1="209.50" x2="1292" y2="209.50" stroke="#d7e3df" stroke-width="1" />
      <text x="90" y="213.50" text-anchor="end" fill="#5b6b68" font-size="11">2.139</text>
<line x1="98" y1="287.00" x2="1292" y2="287.00" stroke="#d7e3df" stroke-width="1" />
      <text x="90" y="291.00" text-anchor="end" fill="#5b6b68" font-size="11">1.946</text>
<line x1="98" y1="364.50" x2="1292" y2="364.50" stroke="#d7e3df" stroke-width="1" />
      <text x="90" y="368.50" text-anchor="end" fill="#5b6b68" font-size="11">1.753</text>
<line x1="98" y1="442.00" x2="1292" y2="442.00" stroke="#d7e3df" stroke-width="1" />
      <text x="90" y="446.00" text-anchor="end" fill="#5b6b68" font-size="11">1.560</text>
    <line x1="98.00" y1="132" x2="98.00" y2="442" stroke="#eef3f1" stroke-width="1" />
      <text x="98.00" y="470" text-anchor="middle" fill="#5b6b68" font-size="11">25-01-02</text>
<line x1="290.72" y1="132" x2="290.72" y2="442" stroke="#eef3f1" stroke-width="1" />
      <text x="290.72" y="470" text-anchor="middle" fill="#5b6b68" font-size="11">25-03-17</text>
<line x1="479.24" y1="132" x2="479.24" y2="442" stroke="#eef3f1" stroke-width="1" />
      <text x="479.24" y="470" text-anchor="middle" fill="#5b6b68" font-size="11">25-05-23</text>
<line x1="697.09" y1="132" x2="697.09" y2="442" stroke="#eef3f1" stroke-width="1" />
      <text x="697.09" y="470" text-anchor="middle" fill="#5b6b68" font-size="11">25-08-06</text>
<line x1="910.76" y1="132" x2="910.76" y2="442" stroke="#eef3f1" stroke-width="1" />
      <text x="910.76" y="470" text-anchor="middle" fill="#5b6b68" font-size="11">25-10-24</text>
<line x1="1099.28" y1="132" x2="1099.28" y2="442" stroke="#eef3f1" stroke-width="1" />
      <text x="1099.28" y="470" text-anchor="middle" fill="#5b6b68" font-size="11">25-12-26</text>
<line x1="1292.00" y1="132" x2="1292.00" y2="442" stroke="#eef3f1" stroke-width="1" />
      <text x="1292.00" y="470" text-anchor="middle" fill="#5b6b68" font-size="11">26-03-12</text>
    <line x1="1116.04" y1="132" x2="1116.04" y2="442" stroke="#f59e0b" stroke-width="1.4" stroke-dasharray="4 4" />
       <text x="1122.04" y="124" fill="#a16207" font-size="11">验证起点</text>
    <path d="M 98.00 298.86 L 102.19 284.98 L 106.38 274.30 L 110.57 288.75 L 114.76 287.95 L 118.95 287.99 L 123.14 300.19 L 127.33 302.68 L 131.52 303.80 L 135.71 286.02 L 139.89 291.48 L 144.08 278.96 L 148.27 280.32 L 152.46 280.04 L 156.65 268.88 L 160.84 266.84 L 165.03 275.35 L 169.22 297.34 L 173.41 277.23 L 177.60 271.73 L 181.79 281.89 L 185.98 270.01 L 190.17 272.30 L 194.36 271.33 L 198.55 261.62 L 202.74 260.62 L 206.93 262.62 L 211.12 257.85 L 215.31 257.12 L 219.49 262.50 L 223.68 281.57 L 227.87 291.20 L 232.06 299.07 L 236.25 298.14 L 240.44 318.25 L 244.63 304.28 L 248.82 320.34 L 253.01 324.07 L 257.20 316.36 L 261.39 339.04 L 265.58 333.30 L 269.77 359.47 L 273.96 364.68 L 278.15 355.41 L 282.34 369.06 L 286.53 352.40 L 290.72 347.91 L 294.91 361.19 L 299.09 350.96 L 303.28 353.01 L 307.47 349.39 L 311.66 333.30 L 315.85 328.48 L 320.04 341.89 L 324.23 346.18 L 328.42 365.25 L 332.61 366.45 L 336.80 359.11 L 340.99 353.41 L 345.18 389.21 L 349.37 428.42 L 353.56 438.85 L 357.75 362.04 L 361.94 392.06 L 366.13 381.62 L 370.32 379.33 L 374.51 377.29 L 378.69 397.19 L 382.88 399.44 L 387.07 399.56 L 391.26 417.14 L 395.45 397.64 L 399.64 384.07 L 403.83 364.85 L 408.02 357.82 L 412.21 356.82 L 416.40 356.18 L 420.59 355.05 L 424.78 351.92 L 428.97 347.91 L 433.16 339.96 L 437.35 339.08 L 441.54 313.07 L 445.73 302.84 L 449.92 297.14 L 454.11 296.50 L 458.29 293.93 L 462.48 291.88 L 466.67 294.25 L 470.86 306.01 L 475.05 305.00 L 479.24 313.87 L 483.43 314.36 L 487.62 295.29 L 491.81 299.11 L 496.00 297.74 L 500.19 297.70 L 504.38 286.82 L 508.57 284.70 L 512.76 291.68 L 516.95 283.77 L 521.14 282.61 L 525.33 276.83 L 529.52 280.08 L 533.71 278.56 L 537.89 288.79 L 542.08 277.95 L 546.27 285.58 L 550.46 285.18 L 554.65 284.62 L 558.84 288.67 L 563.03 280.32 L 567.22 269.16 L 571.41 268.16 L 575.60 261.10 L 579.79 257.81 L 583.98 253.07 L 588.17 260.58 L 592.36 254.15 L 596.55 246.69 L 600.74 246.37 L 604.93 251.99 L 609.12 251.55 L 613.31 244.44 L 617.49 246.29 L 621.68 248.94 L 625.87 246.45 L 630.06 244.84 L 634.25 243.52 L 638.44 237.18 L 642.63 237.78 L 646.82 234.13 L 651.01 238.18 L 655.20 236.21 L 659.39 235.33 L 663.58 231.92 L 667.77 228.03 L 671.96 229.47 L 676.15 227.83 L 680.34 230.88 L 684.53 245.24 L 688.72 233.81 L 692.91 238.74 L 697.09 227.87 L 701.28 226.62 L 705.47 218.03 L 709.66 221.08 L 713.85 208.96 L 718.04 210.17 L 722.23 211.05 L 726.42 214.34 L 730.61 214.58 L 734.80 226.18 L 738.99 231.60 L 743.18 235.41 L 747.37 222.13 L 751.56 228.39 L 755.75 223.49 L 759.94 222.33 L 764.13 219.92 L 768.32 231.20 L 772.51 230.96 L 776.69 235.65 L 780.88 229.35 L 785.07 222.29 L 789.26 221.85 L 793.45 218.52 L 797.64 216.59 L 801.83 216.71 L 806.02 211.45 L 810.21 208.16 L 814.40 200.66 L 818.59 202.38 L 822.78 204.95 L 826.97 196.88 L 831.16 190.22 L 835.35 184.84 L 839.54 191.50 L 843.73 193.75 L 847.92 196.60 L 852.11 191.87 L 856.29 190.14 L 860.48 187.21 L 864.67 171.64 L 868.86 203.22 L 873.05 183.64 L 877.24 188.49 L 881.43 184.60 L 885.62 187.77 L 889.81 181.91 L 894.00 170.88 L 898.19 172.04 L 902.38 180.15 L 906.57 172.48 L 910.76 163.25 L 914.95 148.16 L 919.14 142.90 L 923.33 139.33 L 927.52 151.81 L 931.71 146.59 L 935.89 142.14 L 940.08 160.24 L 944.27 153.42 L 948.46 171.52 L 952.65 174.05 L 956.84 154.86 L 961.03 157.35 L 965.22 158.35 L 969.41 179.79 L 973.60 178.86 L 977.79 185.60 L 981.98 195.12 L 986.17 190.66 L 990.36 210.61 L 994.55 204.39 L 998.74 182.55 L 1002.93 178.90 L 1007.12 173.00 L 1011.31 172.92 L 1015.49 166.34 L 1019.68 170.43 L 1023.87 163.17 L 1028.06 162.05 L 1032.25 162.37 L 1036.44 158.31 L 1040.63 160.48 L 1044.82 158.96 L 1049.01 156.23 L 1053.20 159.84 L 1057.39 177.62 L 1061.58 183.08 L 1065.77 181.63 L 1069.96 198.37 L 1074.15 185.73 L 1078.34 174.29 L 1082.53 170.67 L 1086.72 167.42 L 1090.91 166.74 L 1095.09 167.79 L 1099.28 167.95 L 1103.47 172.24 L 1107.66 176.82 L 1111.85 184.00 L 1116.04 180.23 L 1120.23 171.96 L 1124.42 170.07 L 1128.61 176.29 L 1132.80 167.34 L 1136.99 167.62 L 1141.18 168.99 L 1145.37 179.02 L 1149.56 176.45 L 1153.75 177.46 L 1157.94 178.18 L 1162.13 197.69 L 1166.32 185.48 L 1170.51 178.90 L 1174.69 175.69 L 1178.88 172.92 L 1183.07 165.14 L 1187.26 163.73 L 1191.45 168.39 L 1195.64 179.62 L 1199.83 172.84 L 1204.02 188.70 L 1208.21 204.19 L 1212.40 215.46 L 1216.59 197.40 L 1220.78 192.23 L 1224.97 199.05 L 1229.16 196.72 L 1233.35 215.59 L 1237.54 213.02 L 1241.73 207.16 L 1245.92 197.85 L 1250.11 211.61 L 1254.29 212.09 L 1258.48 207.48 L 1262.67 215.10 L 1266.86 200.37 L 1271.05 204.87 L 1275.24 217.51 L 1279.43 204.19 L 1283.62 210.01 L 1287.81 210.29 L 1292.00 224.05" fill="none" stroke="#0f766e" stroke-width="2"  />
<path d="M 98.00 296.80 L 102.19 285.76 L 106.38 275.10 L 110.57 294.28 L 114.76 287.50 L 118.95 288.01 L 123.14 288.68 L 127.33 301.92 L 131.52 306.27 L 135.71 284.22 L 139.89 291.11 L 144.08 279.16 L 148.27 281.00 L 152.46 282.95 L 156.65 270.27 L 160.84 266.31 L 165.03 269.27 L 169.22 316.88 L 173.41 266.32 L 177.60 272.54 L 181.79 284.16 L 185.98 271.96 L 190.17 269.25 L 194.36 272.33 L 198.55 267.37 L 202.74 261.58 L 206.93 260.35 L 211.12 262.11 L 215.31 256.27 L 219.49 259.62 L 223.68 279.25 L 227.87 289.34 L 232.06 295.67 L 236.25 295.04 L 240.44 321.23 L 244.63 307.03 L 248.82 331.09 L 253.01 320.90 L 257.20 316.02 L 261.39 337.03 L 265.58 334.47 L 269.77 359.72 L 273.96 359.10 L 278.15 354.46 L 282.34 368.81 L 286.53 355.20 L 290.72 352.59 L 294.91 361.68 L 299.09 351.93 L 303.28 351.72 L 307.47 349.50 L 311.66 338.27 L 315.85 330.85 L 320.04 343.14 L 324.23 344.94 L 328.42 364.43 L 332.61 364.04 L 336.80 359.60 L 340.99 356.81 L 345.18 394.55 L 349.37 410.93 L 353.56 431.30 L 357.75 369.42 L 361.94 394.57 L 366.13 381.30 L 370.32 381.19 L 374.51 379.88 L 378.69 397.88 L 382.88 398.87 L 387.07 399.61 L 391.26 399.55 L 395.45 401.10 L 399.64 382.82 L 403.83 365.91 L 408.02 355.29 L 412.21 359.56 L 416.40 356.56 L 420.59 356.50 L 424.78 347.40 L 428.97 350.63 L 433.16 343.26 L 437.35 339.54 L 441.54 302.67 L 445.73 302.06 L 449.92 298.35 L 454.11 298.38 L 458.29 295.74 L 462.48 295.27 L 466.67 292.62 L 470.86 296.68 L 475.05 303.93 L 479.24 313.96 L 483.43 316.42 L 487.62 314.33 L 491.81 294.69 L 496.00 295.95 L 500.19 297.56 L 504.38 292.71 L 508.57 282.79 L 512.76 285.78 L 516.95 287.73 L 521.14 283.74 L 525.33 279.66 L 529.52 277.55 L 533.71 278.28 L 537.89 282.73 L 542.08 283.19 L 546.27 280.03 L 550.46 285.25 L 554.65 285.96 L 558.84 285.72 L 563.03 285.80 L 567.22 272.62 L 571.41 265.08 L 575.60 263.02 L 579.79 256.79 L 583.98 255.78 L 588.17 257.75 L 592.36 256.22 L 596.55 250.06 L 600.74 247.01 L 604.93 245.66 L 609.12 252.74 L 613.31 243.01 L 617.49 244.53 L 621.68 245.78 L 625.87 248.18 L 630.06 243.10 L 634.25 244.71 L 638.44 240.72 L 642.63 236.40 L 646.82 233.87 L 651.01 237.38 L 655.20 236.13 L 659.39 232.72 L 663.58 233.92 L 667.77 229.07 L 671.96 228.58 L 676.15 227.74 L 680.34 217.81 L 684.53 247.19 L 688.72 240.51 L 692.91 235.69 L 697.09 228.69 L 701.28 226.89 L 705.47 220.13 L 709.66 218.83 L 713.85 213.37 L 718.04 210.49 L 722.23 207.90 L 726.42 211.53 L 730.61 215.24 L 734.80 224.89 L 738.99 229.75 L 743.18 232.99 L 747.37 225.39 L 751.56 222.48 L 755.75 226.69 L 759.94 222.24 L 764.13 220.15 L 768.32 226.86 L 772.51 232.50 L 776.69 231.14 L 780.88 225.05 L 785.07 225.09 L 789.26 220.43 L 793.45 220.18 L 797.64 217.59 L 801.83 213.92 L 806.02 216.57 L 810.21 209.24 L 814.40 202.17 L 818.59 201.00 L 822.78 206.67 L 826.97 202.41 L 831.16 192.72 L 835.35 188.90 L 839.54 188.66 L 843.73 191.55 L 847.92 194.44 L 852.11 195.09 L 856.29 191.60 L 860.48 188.76 L 864.67 177.98 L 868.86 200.41 L 873.05 176.07 L 877.24 188.27 L 881.43 185.70 L 885.62 184.44 L 889.81 185.75 L 894.00 175.70 L 898.19 171.68 L 902.38 173.62 L 906.57 176.83 L 910.76 161.25 L 914.95 153.09 L 919.14 141.81 L 923.33 136.66 L 927.52 156.56 L 931.71 149.28 L 935.89 142.45 L 940.08 154.62 L 944.27 157.57 L 948.46 166.72 L 952.65 172.95 L 956.84 152.44 L 961.03 155.88 L 965.22 160.06 L 969.41 176.25 L 973.60 178.60 L 977.79 178.63 L 981.98 195.39 L 986.17 190.62 L 990.36 201.36 L 994.55 208.54 L 998.74 170.74 L 1002.93 179.58 L 1007.12 176.20 L 1011.31 173.52 L 1015.49 174.02 L 1019.68 169.51 L 1023.87 167.93 L 1028.06 166.62 L 1032.25 159.06 L 1036.44 158.86 L 1040.63 157.94 L 1044.82 159.33 L 1049.01 157.63 L 1053.20 158.83 L 1057.39 179.35 L 1061.58 183.81 L 1065.77 181.20 L 1069.96 193.99 L 1074.15 188.88 L 1078.34 179.73 L 1082.53 173.45 L 1086.72 165.21 L 1090.91 166.76 L 1095.09 167.09 L 1099.28 168.18 L 1103.47 169.65 L 1107.66 172.08 L 1111.85 179.17 L 1116.04 184.92 L 1120.23 178.38 L 1124.42 169.51 L 1128.61 172.73 L 1132.80 171.64 L 1136.99 167.09 L 1141.18 167.88 L 1145.37 182.15 L 1149.56 177.27 L 1153.75 174.90 L 1157.94 178.71 L 1162.13 178.98 L 1166.32 194.81 L 1170.51 179.42 L 1174.69 175.29 L 1178.88 171.98 L 1183.07 164.19 L 1187.26 164.95 L 1191.45 163.22 L 1195.64 170.65 L 1199.83 178.80 L 1204.02 189.27 L 1208.21 200.40 L 1212.40 214.72 L 1216.59 210.06 L 1220.78 192.57 L 1224.97 196.08 L 1229.16 200.90 L 1233.35 214.93 L 1237.54 219.96 L 1241.73 205.26 L 1245.92 197.75 L 1250.11 211.35 L 1254.29 214.64 L 1258.48 208.44 L 1262.67 207.24 L 1266.86 209.86 L 1271.05 198.03 L 1275.24 209.29 L 1279.43 208.16 L 1283.62 205.81 L 1287.81 209.97 L 1292.00 221.76" fill="none" stroke="#1d4ed8" stroke-width="2"  />
  </g>
  <g>
    <text x="54" y="538" fill="#1f2937" font-size="16" font-weight="700">B. 绝对误差（越低越好）</text>
    <line x1="98" y1="558" x2="124" y2="558" stroke="#1d4ed8" stroke-width="2"  />
      <text x="130" y="562" fill="#24312e" font-size="12">持仓分段误差</text>
    <line x1="98" y1="560.00" x2="1292" y2="560.00" stroke="#d7e3df" stroke-width="1" />
      <text x="90" y="564.00" text-anchor="end" fill="#5b6b68" font-size="11">3.06%</text>
<line x1="98" y1="630.00" x2="1292" y2="630.00" stroke="#d7e3df" stroke-width="1" />
      <text x="90" y="634.00" text-anchor="end" fill="#5b6b68" font-size="11">2.30%</text>
<line x1="98" y1="700.00" x2="1292" y2="700.00" stroke="#d7e3df" stroke-width="1" />
      <text x="90" y="704.00" text-anchor="end" fill="#5b6b68" font-size="11">1.53%</text>
<line x1="98" y1="770.00" x2="1292" y2="770.00" stroke="#d7e3df" stroke-width="1" />
      <text x="90" y="774.00" text-anchor="end" fill="#5b6b68" font-size="11">0.77%</text>
<line x1="98" y1="840.00" x2="1292" y2="840.00" stroke="#d7e3df" stroke-width="1" />
      <text x="90" y="844.00" text-anchor="end" fill="#5b6b68" font-size="11">0.00%</text>
    <line x1="98.00" y1="560" x2="98.00" y2="840" stroke="#eef3f1" stroke-width="1" />
      <text x="98.00" y="868" text-anchor="middle" fill="#5b6b68" font-size="11">25-01-02</text>
<line x1="290.72" y1="560" x2="290.72" y2="840" stroke="#eef3f1" stroke-width="1" />
      <text x="290.72" y="868" text-anchor="middle" fill="#5b6b68" font-size="11">25-03-17</text>
<line x1="479.24" y1="560" x2="479.24" y2="840" stroke="#eef3f1" stroke-width="1" />
      <text x="479.24" y="868" text-anchor="middle" fill="#5b6b68" font-size="11">25-05-23</text>
<line x1="697.09" y1="560" x2="697.09" y2="840" stroke="#eef3f1" stroke-width="1" />
      <text x="697.09" y="868" text-anchor="middle" fill="#5b6b68" font-size="11">25-08-06</text>
<line x1="910.76" y1="560" x2="910.76" y2="840" stroke="#eef3f1" stroke-width="1" />
      <text x="910.76" y="868" text-anchor="middle" fill="#5b6b68" font-size="11">25-10-24</text>
<line x1="1099.28" y1="560" x2="1099.28" y2="840" stroke="#eef3f1" stroke-width="1" />
      <text x="1099.28" y="868" text-anchor="middle" fill="#5b6b68" font-size="11">25-12-26</text>
<line x1="1292.00" y1="560" x2="1292.00" y2="840" stroke="#eef3f1" stroke-width="1" />
      <text x="1292.00" y="868" text-anchor="middle" fill="#5b6b68" font-size="11">26-03-12</text>
    <line x1="1116.04" y1="560" x2="1116.04" y2="840" stroke="#f59e0b" stroke-width="1.4" stroke-dasharray="4 4" />
       <text x="1122.04" y="552" fill="#a16207" font-size="11">验证起点</text>
    <path d="M 98.00 815.47 L 102.19 830.85 L 106.38 830.85 L 110.57 775.11 L 114.76 834.78 L 118.95 839.77 L 123.14 702.94 L 127.33 830.98 L 131.52 810.44 L 135.71 818.92 L 139.89 835.60 L 144.08 837.68 L 148.27 832.18 L 152.46 806.25 L 156.65 824.09 L 160.84 834.01 L 165.03 769.88 L 169.22 608.23 L 173.41 713.90 L 177.60 830.73 L 181.79 813.52 L 185.98 817.59 L 190.17 805.06 L 194.36 828.54 L 198.55 774.77 L 202.74 829.11 L 206.93 814.22 L 211.12 791.86 L 215.31 830.39 L 219.49 807.29 L 223.68 813.10 L 227.87 818.10 L 232.06 799.59 L 236.25 803.16 L 240.44 803.64 L 244.63 807.06 L 248.82 708.46 L 253.01 801.00 L 257.20 835.84 L 261.39 814.78 L 265.58 825.40 L 269.77 836.78 L 273.96 767.38 L 278.15 827.70 L 282.34 836.69 L 286.53 804.28 L 290.72 780.57 L 294.91 833.71 L 299.09 827.61 L 303.28 823.55 L 307.47 838.61 L 311.66 778.16 L 315.85 810.77 L 320.04 824.22 L 324.23 824.32 L 328.42 829.43 L 332.61 808.53 L 336.80 833.62 L 340.99 796.48 L 345.18 768.00 L 349.37 590.00 L 353.56 730.21 L 357.75 744.34 L 361.94 806.06 L 366.13 835.70 L 370.32 815.36 L 374.51 805.65 L 378.69 830.61 L 382.88 832.18 L 387.07 839.41 L 391.26 592.90 L 395.45 792.71 L 399.64 823.23 L 403.83 826.13 L 408.02 807.47 L 412.21 804.80 L 416.40 835.08 L 420.59 821.40 L 424.78 782.31 L 428.97 805.43 L 433.16 798.56 L 437.35 834.18 L 441.54 714.10 L 445.73 830.69 L 449.92 825.62 L 454.11 817.72 L 458.29 818.65 L 462.48 800.05 L 466.67 820.74 L 470.86 728.10 L 475.05 827.13 L 479.24 838.95 L 483.43 814.96 L 487.62 614.81 L 491.81 787.53 L 496.00 818.69 L 500.19 838.35 L 504.38 771.17 L 508.57 817.76 L 512.76 770.46 L 516.95 793.86 L 521.14 826.87 L 525.33 807.35 L 529.52 810.61 L 533.71 836.82 L 537.89 768.95 L 542.08 779.39 L 546.27 775.22 L 550.46 839.22 L 554.65 824.34 L 558.84 805.45 L 563.03 776.47 L 567.22 800.45 L 571.41 804.82 L 575.60 818.25 L 579.79 828.52 L 583.98 809.62 L 588.17 808.00 L 592.36 816.76 L 596.55 802.51 L 600.74 832.81 L 604.93 769.07 L 609.12 826.62 L 613.31 824.08 L 617.49 820.46 L 621.68 804.77 L 625.87 820.68 L 630.06 820.61 L 634.25 826.83 L 638.44 801.01 L 642.63 824.83 L 646.82 837.16 L 651.01 831.20 L 655.20 839.12 L 659.39 811.31 L 663.58 818.15 L 667.77 828.63 L 671.96 830.26 L 676.15 839.07 L 680.34 697.28 L 684.53 818.35 L 688.72 766.54 L 692.91 806.34 L 697.09 831.01 L 701.28 837.08 L 705.47 817.41 L 709.66 815.65 L 713.85 793.08 L 718.04 836.53 L 722.23 806.38 L 726.42 809.86 L 730.61 832.93 L 734.80 826.03 L 738.99 819.76 L 743.18 813.40 L 747.37 804.69 L 751.56 775.71 L 755.75 805.40 L 759.94 839.01 L 764.13 837.52 L 768.32 792.59 L 772.51 823.17 L 776.69 790.49 L 780.88 793.08 L 785.07 809.69 L 789.26 824.66 L 793.45 822.11 L 797.64 829.26 L 801.83 810.05 L 806.02 785.39 L 810.21 828.50 L 814.40 824.07 L 818.59 825.39 L 822.78 821.78 L 826.97 781.99 L 831.16 813.96 L 835.35 797.97 L 839.54 810.35 L 843.73 816.98 L 847.92 817.31 L 852.11 806.37 L 856.29 824.79 L 860.48 823.91 L 864.67 775.29 L 868.86 810.26 L 873.05 761.74 L 877.24 837.68 L 881.43 828.63 L 885.62 805.37 L 889.81 800.43 L 894.00 790.84 L 898.19 836.33 L 902.38 772.78 L 906.57 795.59 L 910.76 819.79 L 914.95 790.95 L 919.14 829.24 L 923.33 813.69 L 927.52 792.62 L 931.71 813.34 L 935.89 836.90 L 940.08 783.38 L 944.27 798.47 L 948.46 791.08 L 952.65 828.79 L 956.84 815.71 L 961.03 825.22 L 965.22 822.82 L 969.41 803.61 L 973.60 837.30 L 977.79 767.78 L 981.98 837.12 L 986.17 839.59 L 990.36 741.42 L 994.55 796.02 L 998.74 718.05 L 1002.93 833.05 L 1007.12 807.30 L 1011.31 833.88 L 1015.49 762.18 L 1019.68 830.60 L 1023.87 791.86 L 1028.06 793.84 L 1032.25 806.66 L 1036.44 834.55 L 1040.63 814.46 L 1044.82 836.25 L 1049.01 825.97 L 1053.20 829.82 L 1057.39 822.17 L 1061.58 832.42 L 1065.77 835.54 L 1069.96 794.02 L 1074.15 807.27 L 1078.34 784.28 L 1082.53 811.68 L 1086.72 817.54 L 1090.91 839.83 L 1095.09 832.96 L 1099.28 837.67 L 1103.47 813.54 L 1107.66 791.42 L 1111.85 790.02 L 1116.04 791.69 L 1120.23 774.45 L 1124.42 834.28 L 1128.61 803.47 L 1132.80 796.37 L 1136.99 834.60 L 1141.18 828.71 L 1145.37 807.86 L 1149.56 831.68 L 1153.75 813.74 L 1157.94 834.51 L 1162.13 643.52 L 1166.32 743.45 L 1170.51 834.68 L 1174.69 835.89 L 1178.88 830.41 L 1183.07 830.39 L 1187.26 827.70 L 1191.45 787.53 L 1195.64 747.68 L 1199.83 779.21 L 1204.02 834.02 L 1208.21 799.88 L 1212.40 832.06 L 1216.59 707.07 L 1220.78 836.39 L 1224.97 808.72 L 1229.16 796.12 L 1233.35 833.02 L 1237.54 765.74 L 1241.73 819.88 L 1245.92 839.03 L 1250.11 837.19 L 1254.29 812.82 L 1258.48 829.80 L 1262.67 755.67 L 1266.86 740.04 L 1271.05 767.59 L 1275.24 751.62 L 1279.43 797.93 L 1283.62 795.31 L 1287.81 836.64 L 1292.00 815.10" fill="none" stroke="#1d4ed8" stroke-width="2"  />
  </g>
</svg>