<?xml version="1.0" encoding="UTF-8"?>
<svg xmlns="http://www.w3.org/2000/svg" width="1360" height="980" viewBox="0 0 1360 980">
  <defs>
    <linearGradient id="bg" x1="0" y1="0" x2="1" y2="1">
      <stop offset="0%" stop-color="#f4efe6" />
      <stop offset="100%" stop-color="#eef5f2" />
    </linearGradient>
  </defs>
  <rect x="0" y="0" width="1360" height="980" fill="url(#bg)" />
  <text x="46" y="36" fill="#1f2937" font-size="31" font-weight="700">513310 离线研究图（持仓逐日估值版）</text>
  <text x="46" y="66" fill="#5b6b68" font-size="13">历史前十大持仓 + 持仓逐日涨跌幅 + USDCNY；双目标 lambda=0.10；披露期数 11；覆盖率均值 82.6%</text>
  <g>
    <text x="54" y="110" fill="#1f2937" font-size="16" font-weight="700">A. 净值拟合（同日对齐，无平移）</text>
    <line x1="98" y1="112" x2="124" y2="112" stroke="#0f766e" stroke-width="2"  />
      <text x="130" y="116" fill="#24312e" font-size="12">真实净值</text>
<line x1="313" y1="112" x2="339" y2="112" stroke="#1d4ed8" stroke-width="2"  />
      <text x="345" y="116" fill="#24312e" font-size="12">持仓分段估值</text>
    <line x1="98" y1="132.00" x2="1292" y2="132.00" stroke="#d7e3df" stroke-width="1" />
      <text x="90" y="136.00" text-anchor="end" fill="#5b6b68" font-size="11">3.600</text>
<line x1="98" y1="209.50" x2="1292" y2="209.50" stroke="#d7e3df" stroke-width="1" />
      <text x="90" y="213.50" text-anchor="end" fill="#5b6b68" font-size="11">3.035</text>
<line x1="98" y1="287.00" x2="1292" y2="287.00" stroke="#d7e3df" stroke-width="1" />
      <text x="90" y="291.00" text-anchor="end" fill="#5b6b68" font-size="11">2.470</text>
<line x1="98" y1="364.50" x2="1292" y2="364.50" stroke="#d7e3df" stroke-width="1" />
      <text x="90" y="368.50" text-anchor="end" fill="#5b6b68" font-size="11">1.905</text>
<line x1="98" y1="442.00" x2="1292" y2="442.00" stroke="#d7e3df" stroke-width="1" />
      <text x="90" y="446.00" text-anchor="end" fill="#5b6b68" font-size="11">1.340</text>
    <line x1="98.00" y1="132" x2="98.00" y2="442" stroke="#eef3f1" stroke-width="1" />
      <text x="98.00" y="470" text-anchor="middle" fill="#5b6b68" font-size="11">25-01-02</text>
<line x1="290.04" y1="132" x2="290.04" y2="442" stroke="#eef3f1" stroke-width="1" />
      <text x="290.04" y="470" text-anchor="middle" fill="#5b6b68" font-size="11">25-03-17</text>
<line x1="482.08" y1="132" x2="482.08" y2="442" stroke="#eef3f1" stroke-width="1" />
      <text x="482.08" y="470" text-anchor="middle" fill="#5b6b68" font-size="11">25-05-26</text>
<line x1="695.00" y1="132" x2="695.00" y2="442" stroke="#eef3f1" stroke-width="1" />
      <text x="695.00" y="470" text-anchor="middle" fill="#5b6b68" font-size="11">25-08-06</text>
<line x1="907.92" y1="132" x2="907.92" y2="442" stroke="#eef3f1" stroke-width="1" />
      <text x="907.92" y="470" text-anchor="middle" fill="#5b6b68" font-size="11">25-10-24</text>
<line x1="1099.96" y1="132" x2="1099.96" y2="442" stroke="#eef3f1" stroke-width="1" />
      <text x="1099.96" y="470" text-anchor="middle" fill="#5b6b68" font-size="11">25-12-29</text>
<line x1="1292.00" y1="132" x2="1292.00" y2="442" stroke="#eef3f1" stroke-width="1" />
      <text x="1292.00" y="470" text-anchor="middle" fill="#5b6b68" font-size="11">26-03-13</text>
    <line x1="1112.48" y1="132" x2="1112.48" y2="442" stroke="#f59e0b" stroke-width="1.4" stroke-dasharray="4 4" />
       <text x="1118.48" y="124" fill="#a16207" font-size="11">验证起点</text>
    <path d="M 98.00 433.63 L 102.17 430.31 L 106.35 425.65 L 110.52 421.87 L 114.70 417.56 L 118.87 416.93 L 123.05 418.25 L 127.22 423.07 L 131.40 419.81 L 135.57 418.66 L 139.75 419.81 L 143.92 415.71 L 148.10 416.35 L 152.27 413.06 L 156.45 409.70 L 160.62 414.61 L 164.80 413.77 L 168.97 416.70 L 173.15 422.15 L 177.32 415.65 L 181.50 414.61 L 185.67 412.06 L 189.85 412.38 L 194.02 409.59 L 198.20 411.11 L 202.37 410.10 L 206.55 407.37 L 210.72 409.04 L 214.90 400.81 L 219.07 403.15 L 223.24 395.97 L 227.42 397.93 L 231.59 400.07 L 235.77 398.36 L 239.94 400.20 L 244.12 411.42 L 248.29 414.78 L 252.47 414.47 L 256.64 412.43 L 260.82 409.85 L 264.99 411.35 L 269.17 412.24 L 273.34 414.20 L 277.52 410.13 L 281.69 413.83 L 285.87 410.43 L 290.04 408.15 L 294.22 407.62 L 298.39 408.43 L 302.57 408.04 L 306.74 408.92 L 310.92 409.93 L 315.09 414.47 L 319.27 412.46 L 323.44 413.95 L 327.62 418.70 L 331.79 424.06 L 335.97 421.58 L 340.14 421.87 L 344.31 422.74 L 348.49 440.97 L 352.66 439.61 L 356.84 436.57 L 361.01 428.18 L 365.19 425.56 L 369.36 423.06 L 373.54 424.16 L 377.71 425.75 L 381.89 424.01 L 386.06 424.38 L 390.24 422.76 L 394.41 424.65 L 398.59 421.25 L 402.76 423.28 L 406.94 421.69 L 411.11 424.47 L 415.29 422.84 L 419.46 423.03 L 423.64 417.41 L 427.81 417.05 L 431.99 418.15 L 436.16 421.48 L 440.34 416.28 L 444.51 417.63 L 448.69 415.04 L 452.86 417.92 L 457.03 416.63 L 461.21 419.23 L 465.38 418.19 L 469.56 419.54 L 473.73 421.07 L 477.91 422.74 L 482.08 419.41 L 486.26 421.73 L 490.43 420.03 L 494.61 417.48 L 498.78 420.91 L 502.96 419.19 L 507.13 415.16 L 511.31 409.40 L 515.48 408.81 L 519.66 407.85 L 523.83 409.88 L 528.01 406.78 L 532.18 408.95 L 536.36 410.37 L 540.53 408.82 L 544.71 408.32 L 548.88 407.91 L 553.06 407.86 L 557.23 406.66 L 561.41 407.56 L 565.58 401.16 L 569.76 395.69 L 573.93 396.10 L 578.10 396.99 L 582.28 395.89 L 586.45 397.51 L 590.63 401.23 L 594.80 397.62 L 598.98 400.73 L 603.15 402.39 L 607.33 400.09 L 611.50 402.76 L 615.68 400.73 L 619.85 397.89 L 624.03 398.39 L 628.20 397.88 L 632.38 397.44 L 636.55 399.25 L 640.73 399.06 L 644.90 398.96 L 649.08 401.08 L 653.25 399.84 L 657.43 398.72 L 661.60 396.26 L 665.78 394.49 L 669.95 393.24 L 674.13 392.64 L 678.30 393.33 L 682.48 400.68 L 686.65 398.14 L 690.83 396.11 L 695.00 396.56 L 699.17 394.08 L 703.35 395.03 L 707.52 394.01 L 711.70 390.49 L 715.87 386.30 L 720.05 383.38 L 724.22 382.70 L 728.40 384.37 L 732.57 387.51 L 736.75 384.81 L 740.92 386.03 L 745.10 370.35 L 749.27 362.00 L 753.45 364.18 L 757.62 364.59 L 761.80 351.18 L 765.97 356.10 L 770.15 358.08 L 774.32 360.23 L 778.50 362.80 L 782.67 372.69 L 786.85 367.53 L 791.02 364.72 L 795.20 365.73 L 799.37 359.04 L 803.55 347.99 L 807.72 341.99 L 811.90 339.52 L 816.07 332.16 L 820.24 332.89 L 824.42 324.93 L 828.59 327.81 L 832.77 318.25 L 836.94 315.88 L 841.12 308.60 L 845.29 309.05 L 849.47 317.21 L 853.64 312.40 L 857.82 309.35 L 861.99 296.08 L 866.17 299.55 L 870.34 299.46 L 874.52 311.86 L 878.69 303.33 L 882.87 298.31 L 887.04 303.59 L 891.22 299.49 L 895.39 295.58 L 899.57 295.31 L 903.74 298.53 L 907.92 284.38 L 912.09 275.96 L 916.27 281.11 L 920.44 276.42 L 924.62 276.86 L 928.79 283.73 L 932.97 277.55 L 937.14 283.50 L 941.31 291.95 L 945.49 281.46 L 949.66 289.57 L 953.84 286.63 L 958.01 286.15 L 962.19 287.55 L 966.36 285.97 L 970.54 303.36 L 974.71 294.38 L 978.89 301.25 L 983.06 304.69 L 987.24 303.43 L 991.41 322.49 L 995.59 319.24 L 999.76 316.22 L 1003.94 309.31 L 1008.11 306.77 L 1012.29 306.29 L 1016.46 302.08 L 1020.64 301.73 L 1024.81 301.86 L 1028.99 300.42 L 1033.16 298.75 L 1037.34 290.37 L 1041.51 292.80 L 1045.69 291.29 L 1049.86 297.13 L 1054.03 295.64 L 1058.21 304.96 L 1062.38 312.59 L 1066.56 302.96 L 1070.73 306.10 L 1074.91 307.14 L 1079.08 294.65 L 1083.26 292.45 L 1087.43 291.01 L 1091.61 288.93 L 1095.78 284.76 L 1099.96 278.41 L 1104.13 274.02 L 1108.31 277.64 L 1112.48 249.06 L 1116.66 240.41 L 1120.83 237.75 L 1125.01 236.21 L 1129.18 239.87 L 1133.36 238.24 L 1137.53 246.35 L 1141.71 240.97 L 1145.88 235.94 L 1150.06 228.87 L 1154.23 228.64 L 1158.41 237.17 L 1162.58 227.42 L 1166.76 223.59 L 1170.93 223.77 L 1175.10 222.92 L 1179.28 205.71 L 1183.45 188.81 L 1187.63 191.39 L 1191.80 179.46 L 1195.98 209.82 L 1200.15 188.31 L 1204.33 194.31 L 1208.50 211.48 L 1212.68 212.62 L 1216.85 194.81 L 1221.03 198.93 L 1225.20 203.98 L 1229.38 186.07 L 1233.55 188.36 L 1237.73 165.91 L 1241.90 164.52 L 1246.08 134.86 L 1250.25 139.84 L 1254.43 144.24 L 1258.60 177.70 L 1262.78 212.06 L 1266.95 168.23 L 1271.13 170.78 L 1275.30 199.46 L 1279.48 175.47 L 1283.65 180.04 L 1287.83 185.01 L 1292.00 192.72" fill="none" stroke="#0f766e" stroke-width="2"  />
<path d="M 98.00 430.46 L 102.17 433.41 L 106.35 428.03 L 110.52 424.56 L 114.70 421.64 L 118.87 417.15 L 123.05 416.85 L 127.22 418.11 L 131.40 421.16 L 135.57 418.84 L 139.75 419.01 L 143.92 416.36 L 148.10 414.65 L 152.27 415.73 L 156.45 412.12 L 160.62 409.61 L 164.80 414.95 L 168.97 428.41 L 173.15 407.29 L 177.32 420.40 L 181.50 415.25 L 185.67 412.26 L 189.85 411.82 L 194.02 410.53 L 198.20 409.66 L 202.37 410.69 L 206.55 407.99 L 210.72 408.28 L 214.90 405.36 L 219.07 400.49 L 223.24 401.97 L 227.42 393.45 L 231.59 398.30 L 235.77 398.21 L 239.94 401.48 L 244.12 399.55 L 248.29 417.34 L 252.47 413.62 L 256.64 413.35 L 260.82 412.57 L 264.99 409.13 L 269.17 413.84 L 273.34 412.20 L 277.52 413.24 L 281.69 410.41 L 285.87 410.44 L 290.04 409.14 L 294.22 408.03 L 298.39 407.40 L 302.57 408.30 L 306.74 408.32 L 310.92 406.55 L 315.09 409.93 L 319.27 414.95 L 323.44 412.17 L 327.62 415.64 L 331.79 419.71 L 335.97 423.52 L 340.14 421.03 L 344.31 427.72 L 348.49 436.64 L 352.66 441.08 L 356.84 428.83 L 361.01 440.38 L 365.19 425.42 L 369.36 424.20 L 373.54 422.76 L 377.71 425.00 L 381.89 425.42 L 386.06 424.08 L 390.24 423.55 L 394.41 421.77 L 398.59 423.60 L 402.76 418.78 L 406.94 422.70 L 411.11 421.07 L 415.29 424.10 L 419.46 422.15 L 423.64 422.49 L 427.81 416.64 L 431.99 416.56 L 436.16 418.41 L 440.34 412.65 L 444.51 416.60 L 448.69 417.05 L 452.86 415.16 L 457.03 417.75 L 461.21 416.49 L 465.38 418.80 L 469.56 418.49 L 473.73 419.36 L 477.91 421.47 L 482.08 423.49 L 486.26 420.01 L 490.43 421.77 L 494.61 419.13 L 498.78 417.87 L 502.96 418.78 L 507.13 418.30 L 511.31 414.52 L 515.48 408.64 L 519.66 408.16 L 523.83 408.16 L 528.01 409.60 L 532.18 406.48 L 536.36 409.74 L 540.53 409.48 L 544.71 408.74 L 548.88 407.65 L 553.06 407.74 L 557.23 408.05 L 561.41 406.01 L 565.58 405.84 L 569.76 400.00 L 573.93 395.17 L 578.10 395.48 L 582.28 396.59 L 586.45 395.79 L 590.63 397.59 L 594.80 400.58 L 598.98 397.54 L 603.15 401.94 L 607.33 400.89 L 611.50 399.72 L 615.68 402.15 L 619.85 399.90 L 624.03 397.50 L 628.20 397.41 L 632.38 397.39 L 636.55 396.53 L 640.73 398.76 L 644.90 399.08 L 649.08 398.97 L 653.25 400.61 L 657.43 399.03 L 661.60 397.87 L 665.78 395.06 L 669.95 393.54 L 674.13 392.70 L 678.30 395.23 L 682.48 393.50 L 686.65 401.77 L 690.83 397.89 L 695.00 395.66 L 699.17 395.48 L 703.35 394.10 L 707.52 394.64 L 711.70 389.51 L 715.87 389.52 L 720.05 385.20 L 724.22 382.93 L 728.40 381.23 L 732.57 385.08 L 736.75 385.87 L 740.92 384.45 L 745.10 376.38 L 749.27 363.90 L 753.45 361.34 L 757.62 363.45 L 761.80 359.33 L 765.97 355.11 L 770.15 353.67 L 774.32 361.76 L 778.50 359.79 L 782.67 363.13 L 786.85 369.01 L 791.02 365.66 L 795.20 365.19 L 799.37 364.00 L 803.55 353.39 L 807.72 346.72 L 811.90 338.93 L 816.07 338.25 L 820.24 331.21 L 824.42 325.84 L 828.59 325.13 L 832.77 322.57 L 836.94 317.70 L 841.12 312.02 L 845.29 307.75 L 849.47 308.61 L 853.64 316.90 L 857.82 310.28 L 861.99 288.17 L 866.17 307.64 L 870.34 287.96 L 874.52 305.80 L 878.69 306.84 L 882.87 302.61 L 887.04 300.93 L 891.22 303.98 L 895.39 297.83 L 899.57 296.37 L 903.74 294.39 L 907.92 292.49 L 912.09 274.87 L 916.27 275.36 L 920.44 279.14 L 924.62 277.40 L 928.79 278.19 L 932.97 285.68 L 937.14 281.52 L 941.31 282.17 L 945.49 291.82 L 949.66 281.64 L 953.84 289.20 L 958.01 287.81 L 962.19 284.95 L 966.36 287.11 L 970.54 286.67 L 974.71 308.60 L 978.89 293.62 L 983.06 300.76 L 987.24 310.12 L 991.41 304.34 L 995.59 323.31 L 999.76 318.47 L 1003.94 311.78 L 1008.11 308.84 L 1012.29 305.54 L 1016.46 305.64 L 1020.64 302.59 L 1024.81 301.81 L 1028.99 301.10 L 1033.16 299.53 L 1037.34 295.60 L 1041.51 289.91 L 1045.69 291.58 L 1049.86 291.84 L 1054.03 301.56 L 1058.21 295.61 L 1062.38 305.42 L 1066.56 313.08 L 1070.73 301.54 L 1074.91 304.62 L 1079.08 303.30 L 1083.26 293.70 L 1087.43 291.32 L 1091.61 291.11 L 1095.78 289.14 L 1099.96 282.18 L 1104.13 277.51 L 1108.31 274.41 L 1112.48 257.69 L 1116.66 243.32 L 1120.83 236.91 L 1125.01 237.91 L 1129.18 230.80 L 1133.36 237.78 L 1137.53 238.72 L 1141.71 245.38 L 1145.88 238.49 L 1150.06 230.11 L 1154.23 226.97 L 1158.41 229.29 L 1162.58 226.42 L 1166.76 226.94 L 1170.93 223.62 L 1175.10 224.66 L 1179.28 218.11 L 1183.45 199.18 L 1187.63 191.20 L 1191.80 192.28 L 1195.98 175.79 L 1200.15 210.84 L 1204.33 193.19 L 1208.50 193.89 L 1212.68 203.95 L 1216.85 208.18 L 1221.03 193.90 L 1225.20 197.60 L 1229.38 203.28 L 1233.55 184.55 L 1237.73 185.04 L 1241.90 163.90 L 1246.08 161.23 L 1250.25 134.46 L 1254.43 135.78 L 1258.60 151.70 L 1262.78 172.90 L 1266.95 210.29 L 1271.13 166.90 L 1275.30 163.30 L 1279.48 197.39 L 1283.65 174.85 L 1287.83 183.82 L 1292.00 184.08" fill="none" stroke="#1d4ed8" stroke-width="2"  />
  </g>
  <g>
    <text x="54" y="538" fill="#1f2937" font-size="16" font-weight="700">B. 绝对误差（越低越好）</text>
    <line x1="98" y1="540" x2="124" y2="540" stroke="#1d4ed8" stroke-width="2"  />
      <text x="130" y="544" fill="#24312e" font-size="12">持仓分段误差</text>
    <line x1="98" y1="560.00" x2="1292" y2="560.00" stroke="#d7e3df" stroke-width="1" />
      <text x="90" y="564.00" text-anchor="end" fill="#5b6b68" font-size="11">10.60%</text>
<line x1="98" y1="630.00" x2="1292" y2="630.00" stroke="#d7e3df" stroke-width="1" />
      <text x="90" y="634.00" text-anchor="end" fill="#5b6b68" font-size="11">7.95%</text>
<line x1="98" y1="700.00" x2="1292" y2="700.00" stroke="#d7e3df" stroke-width="1" />
      <text x="90" y="704.00" text-anchor="end" fill="#5b6b68" font-size="11">5.30%</text>
<line x1="98" y1="770.00" x2="1292" y2="770.00" stroke="#d7e3df" stroke-width="1" />
      <text x="90" y="774.00" text-anchor="end" fill="#5b6b68" font-size="11">2.65%</text>
<line x1="98" y1="840.00" x2="1292" y2="840.00" stroke="#d7e3df" stroke-width="1" />
      <text x="90" y="844.00" text-anchor="end" fill="#5b6b68" font-size="11">0.00%</text>
    <line x1="98.00" y1="560" x2="98.00" y2="840" stroke="#eef3f1" stroke-width="1" />
      <text x="98.00" y="868" text-anchor="middle" fill="#5b6b68" font-size="11">25-01-02</text>
<line x1="290.04" y1="560" x2="290.04" y2="840" stroke="#eef3f1" stroke-width="1" />
      <text x="290.04" y="868" text-anchor="middle" fill="#5b6b68" font-size="11">25-03-17</text>
<line x1="482.08" y1="560" x2="482.08" y2="840" stroke="#eef3f1" stroke-width="1" />
      <text x="482.08" y="868" text-anchor="middle" fill="#5b6b68" font-size="11">25-05-26</text>
<line x1="695.00" y1="560" x2="695.00" y2="840" stroke="#eef3f1" stroke-width="1" />
      <text x="695.00" y="868" text-anchor="middle" fill="#5b6b68" font-size="11">25-08-06</text>
<line x1="907.92" y1="560" x2="907.92" y2="840" stroke="#eef3f1" stroke-width="1" />
      <text x="907.92" y="868" text-anchor="middle" fill="#5b6b68" font-size="11">25-10-24</text>
<line x1="1099.96" y1="560" x2="1099.96" y2="840" stroke="#eef3f1" stroke-width="1" />
      <text x="1099.96" y="868" text-anchor="middle" fill="#5b6b68" font-size="11">25-12-29</text>
<line x1="1292.00" y1="560" x2="1292.00" y2="840" stroke="#eef3f1" stroke-width="1" />
      <text x="1292.00" y="868" text-anchor="middle" fill="#5b6b68" font-size="11">26-03-13</text>
    <line x1="1112.48" y1="560" x2="1112.48" y2="840" stroke="#f59e0b" stroke-width="1.4" stroke-dasharray="4 4" />
       <text x="1118.48" y="552" fill="#a16207" font-size="11">验证起点</text>
    <path d="M 98.00 796.37 L 102.17 798.23 L 106.35 808.63 L 110.52 805.16 L 114.70 788.31 L 118.87 837.18 L 123.05 822.27 L 127.22 775.33 L 131.40 822.68 L 135.57 837.61 L 139.75 829.71 L 143.92 831.82 L 148.10 818.52 L 152.27 806.81 L 156.45 810.39 L 160.62 777.43 L 164.80 825.35 L 168.97 692.04 L 173.15 647.21 L 177.32 780.30 L 181.50 832.03 L 185.67 837.50 L 189.85 833.12 L 194.02 828.52 L 198.20 822.16 L 202.37 832.74 L 206.55 832.50 L 210.72 830.66 L 214.90 786.65 L 219.07 808.52 L 223.24 771.02 L 227.42 787.99 L 231.59 819.18 L 235.77 838.21 L 239.94 824.97 L 244.12 693.79 L 248.29 807.96 L 252.47 829.28 L 256.64 828.64 L 260.82 806.75 L 264.99 812.72 L 269.17 820.13 L 273.34 815.02 L 277.52 801.82 L 281.69 797.35 L 285.87 839.85 L 290.04 828.00 L 294.22 834.95 L 298.39 827.56 L 302.57 836.92 L 306.74 832.68 L 310.92 798.60 L 315.09 783.21 L 319.27 809.11 L 323.44 817.76 L 327.62 800.99 L 331.79 783.07 L 335.97 814.89 L 340.14 829.12 L 344.31 775.28 L 348.49 778.07 L 352.66 819.24 L 356.84 731.94 L 361.01 676.90 L 365.19 838.19 L 369.36 825.21 L 373.54 821.76 L 377.71 830.17 L 381.89 821.43 L 386.06 836.14 L 390.24 829.72 L 394.41 802.15 L 398.59 809.61 L 402.76 781.36 L 406.94 826.92 L 411.11 795.34 L 415.29 823.57 L 419.46 828.56 L 423.64 775.61 L 427.81 834.81 L 431.99 819.81 L 436.16 800.26 L 440.34 794.18 L 444.51 827.01 L 448.69 814.72 L 452.86 805.02 L 457.03 825.88 L 461.21 804.87 L 465.38 832.20 L 469.56 826.55 L 473.73 817.91 L 477.91 823.42 L 482.08 787.83 L 486.26 817.68 L 490.43 817.64 L 494.61 819.03 L 498.78 800.79 L 502.96 834.78 L 507.13 800.65 L 511.31 777.45 L 515.48 837.91 L 519.66 836.27 L 523.83 819.01 L 528.01 805.99 L 532.18 809.94 L 536.36 832.17 L 540.53 832.01 L 544.71 834.85 L 548.88 836.86 L 553.06 838.50 L 557.23 823.20 L 561.41 821.21 L 565.58 784.96 L 569.76 790.49 L 573.93 829.38 L 578.10 822.58 L 582.28 831.97 L 586.45 820.07 L 590.63 797.21 L 594.80 805.74 L 598.98 802.49 L 603.15 834.60 L 607.33 830.61 L 611.50 803.92 L 615.68 823.35 L 619.85 816.74 L 624.03 829.75 L 628.20 834.58 L 632.38 839.45 L 636.55 808.27 L 640.73 836.53 L 644.90 838.65 L 649.08 815.21 L 653.25 831.05 L 657.43 836.32 L 661.60 821.48 L 665.78 833.51 L 669.95 836.62 L 674.13 839.33 L 678.30 818.40 L 682.48 755.83 L 686.65 797.83 L 690.83 819.57 L 695.00 829.56 L 699.17 824.04 L 703.35 829.39 L 707.52 832.86 L 711.70 829.01 L 715.87 804.58 L 720.05 820.15 L 724.22 837.52 L 728.40 805.69 L 732.57 813.00 L 736.75 828.42 L 740.92 822.56 L 745.10 777.69 L 749.27 820.95 L 753.45 811.31 L 757.62 828.42 L 761.80 761.66 L 765.97 830.27 L 770.15 796.50 L 774.32 824.84 L 778.50 809.83 L 782.67 740.29 L 786.85 824.89 L 791.02 830.50 L 795.20 834.53 L 799.37 790.92 L 803.55 788.59 L 807.72 796.01 L 811.90 834.51 L 816.07 785.23 L 820.24 824.90 L 824.42 832.04 L 828.59 816.23 L 832.77 802.90 L 836.94 824.46 L 841.12 811.52 L 845.29 829.20 L 849.47 766.41 L 853.64 802.07 L 857.82 832.26 L 861.99 776.67 L 866.17 774.46 L 870.34 746.92 L 874.52 789.03 L 878.69 811.25 L 882.87 805.35 L 887.04 818.17 L 891.22 803.68 L 895.39 822.00 L 899.57 831.49 L 903.74 806.59 L 907.92 777.19 L 912.09 831.76 L 916.27 795.89 L 920.44 819.45 L 924.62 835.90 L 928.79 797.22 L 932.97 778.35 L 937.14 824.75 L 941.31 762.60 L 945.49 760.52 L 949.66 777.65 L 953.84 819.96 L 958.01 827.10 L 962.19 819.71 L 966.36 831.08 L 970.54 703.32 L 974.71 726.59 L 978.89 777.89 L 983.06 807.68 L 987.24 785.15 L 991.41 681.91 L 995.59 804.89 L 999.76 820.80 L 1003.94 819.36 L 1008.11 822.85 L 1012.29 833.77 L 1016.46 810.98 L 1020.64 832.93 L 1024.81 839.54 L 1028.99 834.49 L 1033.16 833.74 L 1037.34 798.85 L 1041.51 817.10 L 1045.69 837.69 L 1049.86 797.45 L 1054.03 792.60 L 1058.21 763.03 L 1062.38 779.52 L 1066.56 757.19 L 1070.73 802.31 L 1074.91 819.10 L 1079.08 770.97 L 1083.26 830.15 L 1087.43 837.57 L 1091.61 822.93 L 1095.78 806.11 L 1099.96 811.36 L 1104.13 813.78 L 1108.31 815.48 L 1112.48 779.51 L 1116.66 820.03 L 1120.83 834.27 L 1125.01 828.46 L 1129.18 777.89 L 1133.36 836.85 L 1137.53 786.92 L 1141.71 809.75 L 1145.88 822.67 L 1150.06 831.76 L 1154.23 828.91 L 1158.41 786.43 L 1162.58 833.40 L 1166.76 818.05 L 1170.93 838.99 L 1175.10 828.61 L 1179.28 762.00 L 1183.45 777.32 L 1187.63 838.86 L 1191.80 764.11 L 1195.98 623.87 L 1200.15 703.94 L 1204.33 833.13 L 1208.50 727.82 L 1212.68 784.59 L 1216.85 758.04 L 1221.03 808.85 L 1225.20 800.05 L 1229.38 736.64 L 1233.55 816.99 L 1237.73 730.10 L 1241.90 836.45 L 1246.08 698.13 L 1250.25 810.75 L 1254.43 793.59 L 1258.60 686.72 L 1262.78 590.00 L 1266.95 597.17 L 1271.13 817.46 L 1275.30 616.00 L 1279.48 711.44 L 1283.65 809.29 L 1287.83 832.83 L 1292.00 787.29" fill="none" stroke="#1d4ed8" stroke-width="2"  />
  </g>
</svg>