<?xml version="1.0" encoding="UTF-8"?>
<svg xmlns="http://www.w3.org/2000/svg" width="1360" height="980" viewBox="0 0 1360 980">
  <defs>
    <linearGradient id="bg" x1="0" y1="0" x2="1" y2="1">
      <stop offset="0%" stop-color="#f4efe6" />
      <stop offset="100%" stop-color="#eef5f2" />
    </linearGradient>
  </defs>
  <rect x="0" y="0" width="1360" height="980" fill="url(#bg)" />
  <text x="46" y="36" fill="#1f2937" font-size="31" font-weight="700">513400 离线研究图（持仓逐日估值版）</text>
  <text x="46" y="66" fill="#5b6b68" font-size="13">历史前十大持仓 + 持仓逐日涨跌幅 + USDCNY；双目标 lambda=0.10；披露期数 8；覆盖率均值 92.1%</text>
  <g>
    <text x="54" y="110" fill="#1f2937" font-size="16" font-weight="700">A. 净值拟合（同日对齐，无平移）</text>
    <line x1="98" y1="130" x2="124" y2="130" stroke="#0f766e" stroke-width="2"  />
      <text x="130" y="134" fill="#24312e" font-size="12">真实净值</text>
<line x1="313" y1="130" x2="339" y2="130" stroke="#1d4ed8" stroke-width="2"  />
      <text x="345" y="134" fill="#24312e" font-size="12">持仓分段估值</text>
    <line x1="98" y1="132.00" x2="1292" y2="132.00" stroke="#d7e3df" stroke-width="1" />
      <text x="90" y="136.00" text-anchor="end" fill="#5b6b68" font-size="11">1.268</text>
<line x1="98" y1="209.50" x2="1292" y2="209.50" stroke="#d7e3df" stroke-width="1" />
      <text x="90" y="213.50" text-anchor="end" fill="#5b6b68" font-size="11">1.194</text>
<line x1="98" y1="287.00" x2="1292" y2="287.00" stroke="#d7e3df" stroke-width="1" />
      <text x="90" y="291.00" text-anchor="end" fill="#5b6b68" font-size="11">1.120</text>
<line x1="98" y1="364.50" x2="1292" y2="364.50" stroke="#d7e3df" stroke-width="1" />
      <text x="90" y="368.50" text-anchor="end" fill="#5b6b68" font-size="11">1.047</text>
<line x1="98" y1="442.00" x2="1292" y2="442.00" stroke="#d7e3df" stroke-width="1" />
      <text x="90" y="446.00" text-anchor="end" fill="#5b6b68" font-size="11">0.973</text>
    <line x1="98.00" y1="132" x2="98.00" y2="442" stroke="#eef3f1" stroke-width="1" />
      <text x="98.00" y="470" text-anchor="middle" fill="#5b6b68" font-size="11">25-01-02</text>
<line x1="290.72" y1="132" x2="290.72" y2="442" stroke="#eef3f1" stroke-width="1" />
      <text x="290.72" y="470" text-anchor="middle" fill="#5b6b68" font-size="11">25-03-17</text>
<line x1="479.24" y1="132" x2="479.24" y2="442" stroke="#eef3f1" stroke-width="1" />
      <text x="479.24" y="470" text-anchor="middle" fill="#5b6b68" font-size="11">25-05-23</text>
<line x1="697.09" y1="132" x2="697.09" y2="442" stroke="#eef3f1" stroke-width="1" />
      <text x="697.09" y="470" text-anchor="middle" fill="#5b6b68" font-size="11">25-08-06</text>
<line x1="910.76" y1="132" x2="910.76" y2="442" stroke="#eef3f1" stroke-width="1" />
      <text x="910.76" y="470" text-anchor="middle" fill="#5b6b68" font-size="11">25-10-24</text>
<line x1="1099.28" y1="132" x2="1099.28" y2="442" stroke="#eef3f1" stroke-width="1" />
      <text x="1099.28" y="470" text-anchor="middle" fill="#5b6b68" font-size="11">25-12-26</text>
<line x1="1292.00" y1="132" x2="1292.00" y2="442" stroke="#eef3f1" stroke-width="1" />
      <text x="1292.00" y="470" text-anchor="middle" fill="#5b6b68" font-size="11">26-03-12</text>
    <line x1="1116.04" y1="132" x2="1116.04" y2="442" stroke="#f59e0b" stroke-width="1.4" stroke-dasharray="4 4" />
       <text x="1122.04" y="124" fill="#a16207" font-size="11">验证起点</text>
    <path d="M 98.00 313.39 L 102.19 304.14 L 106.38 304.77 L 110.57 309.50 L 114.76 306.56 L 118.95 306.56 L 123.14 325.16 L 127.33 315.70 L 131.52 309.81 L 135.71 290.90 L 139.89 292.79 L 144.08 283.75 L 148.27 283.86 L 152.46 272.19 L 156.65 268.83 L 160.84 257.80 L 165.03 261.47 L 169.22 253.91 L 173.41 249.91 L 177.60 253.28 L 181.79 265.05 L 185.98 260.21 L 190.17 256.75 L 194.36 262.84 L 198.55 253.59 L 202.74 257.59 L 206.93 257.69 L 211.12 257.38 L 215.31 255.27 L 219.49 267.15 L 223.68 287.54 L 227.87 286.38 L 232.06 281.97 L 236.25 286.90 L 240.44 291.95 L 244.63 275.35 L 248.82 292.26 L 253.01 310.34 L 257.20 297.73 L 261.39 309.60 L 265.58 303.51 L 269.77 326.52 L 273.96 339.24 L 278.15 342.07 L 282.34 355.74 L 286.53 337.45 L 290.72 328.62 L 294.91 334.93 L 299.09 325.26 L 303.28 324.74 L 307.47 324.00 L 311.66 307.71 L 315.85 307.19 L 320.04 311.49 L 324.23 315.80 L 328.42 335.14 L 332.61 323.16 L 336.80 324.00 L 340.99 317.38 L 345.18 360.68 L 349.37 428.67 L 353.56 436.86 L 357.75 356.47 L 361.94 383.37 L 366.13 366.67 L 370.32 357.63 L 374.51 362.25 L 378.69 380.85 L 382.88 395.56 L 387.07 395.88 L 391.26 421.84 L 395.45 394.09 L 399.64 382.22 L 403.83 369.50 L 408.02 369.40 L 412.21 366.67 L 416.40 358.68 L 420.59 355.11 L 424.78 351.01 L 428.97 343.44 L 433.16 335.45 L 437.35 338.08 L 441.54 307.19 L 445.73 315.59 L 449.92 318.64 L 454.11 310.97 L 458.29 301.83 L 462.48 298.36 L 466.67 301.30 L 470.86 323.26 L 475.05 323.79 L 479.24 330.41 L 483.43 331.78 L 487.62 310.97 L 491.81 317.38 L 496.00 314.02 L 500.19 313.07 L 504.38 305.72 L 508.57 308.03 L 512.76 310.86 L 516.95 299.31 L 521.14 299.31 L 525.33 296.57 L 529.52 296.99 L 533.71 294.47 L 537.89 315.59 L 542.08 306.45 L 546.27 315.17 L 550.46 316.12 L 554.65 316.64 L 558.84 316.22 L 563.03 306.03 L 567.22 293.21 L 571.41 295.94 L 575.60 285.85 L 579.79 274.08 L 583.98 267.46 L 588.17 257.59 L 592.36 257.80 L 596.55 248.55 L 600.74 248.34 L 604.93 260.21 L 609.12 264.21 L 613.31 258.22 L 617.49 253.49 L 621.68 261.58 L 625.87 259.06 L 630.06 270.72 L 634.25 264.00 L 638.44 258.95 L 642.63 262.00 L 646.82 261.89 L 651.01 258.22 L 655.20 245.40 L 659.39 254.43 L 663.58 248.23 L 667.77 249.18 L 671.96 254.01 L 676.15 259.79 L 680.34 267.78 L 684.53 282.39 L 688.72 268.41 L 692.91 270.51 L 697.09 267.67 L 701.28 274.82 L 705.47 268.41 L 709.66 273.45 L 713.85 260.21 L 718.04 248.97 L 722.23 249.49 L 726.42 247.71 L 730.61 249.70 L 734.80 248.55 L 738.99 247.50 L 743.18 253.17 L 747.37 229.63 L 751.56 241.72 L 755.75 237.41 L 759.94 234.89 L 764.13 233.73 L 768.32 236.15 L 772.51 235.52 L 776.69 241.61 L 780.88 241.93 L 785.07 233.31 L 789.26 238.99 L 793.45 236.57 L 797.64 231.73 L 801.83 236.57 L 806.02 220.60 L 810.21 228.16 L 814.40 225.74 L 818.59 229.63 L 822.78 222.91 L 826.97 218.39 L 831.16 213.03 L 835.35 211.66 L 839.54 214.92 L 843.73 219.23 L 847.92 223.12 L 852.11 214.61 L 856.29 213.87 L 860.48 212.40 L 864.67 212.50 L 868.86 236.67 L 873.05 221.75 L 877.24 216.29 L 881.43 217.23 L 885.62 225.74 L 889.81 219.65 L 894.00 205.36 L 898.19 200.42 L 902.38 208.83 L 906.57 205.57 L 910.76 192.75 L 914.95 184.66 L 919.14 180.87 L 923.33 183.19 L 927.52 185.81 L 931.71 184.45 L 935.89 190.75 L 940.08 197.16 L 944.27 190.86 L 948.46 202.21 L 952.65 200.73 L 956.84 190.02 L 961.03 174.88 L 965.22 166.69 L 969.41 187.39 L 973.60 196.01 L 977.79 211.03 L 981.98 223.43 L 986.17 221.86 L 990.36 231.52 L 994.55 218.60 L 998.74 213.77 L 1002.93 196.32 L 1007.12 188.44 L 1011.31 188.75 L 1015.49 180.98 L 1019.68 192.54 L 1023.87 186.44 L 1028.06 176.25 L 1032.25 177.20 L 1036.44 174.25 L 1040.63 179.40 L 1044.82 184.03 L 1049.01 171.10 L 1053.20 155.23 L 1057.39 162.59 L 1061.58 163.22 L 1065.77 172.26 L 1069.96 178.88 L 1074.15 176.88 L 1078.34 172.68 L 1082.53 166.37 L 1086.72 165.11 L 1090.91 158.49 L 1095.09 159.96 L 1099.28 161.12 L 1103.47 168.26 L 1107.66 170.47 L 1111.85 179.61 L 1116.04 156.60 L 1120.23 144.62 L 1124.42 156.70 L 1128.61 149.45 L 1132.80 144.41 L 1136.99 142.52 L 1141.18 153.13 L 1145.37 153.97 L 1149.56 147.35 L 1153.75 149.24 L 1157.94 149.87 L 1162.13 173.41 L 1166.32 157.75 L 1170.51 149.66 L 1174.69 158.70 L 1178.88 152.08 L 1183.07 162.59 L 1187.26 164.16 L 1191.45 162.48 L 1195.64 168.89 L 1199.83 155.13 L 1204.02 161.12 L 1208.21 155.76 L 1212.40 170.57 L 1216.59 138.63 L 1220.78 139.36 L 1224.97 138.94 L 1229.16 141.05 L 1233.35 158.28 L 1237.54 157.65 L 1241.73 165.53 L 1245.92 159.23 L 1250.11 160.59 L 1254.29 174.04 L 1258.48 174.99 L 1262.67 187.91 L 1266.86 181.19 L 1271.05 203.68 L 1275.24 215.24 L 1279.43 206.41 L 1283.62 210.19 L 1287.81 218.91 L 1292.00 237.09" fill="none" stroke="#0f766e" stroke-width="2"  />
<path d="M 98.00 311.44 L 102.19 299.70 L 106.38 305.15 L 110.57 308.27 L 114.76 307.17 L 118.95 306.98 L 123.14 307.32 L 127.33 320.37 L 131.52 312.68 L 135.71 294.03 L 139.89 289.11 L 144.08 286.90 L 148.27 285.78 L 152.46 285.66 L 156.65 271.50 L 160.84 262.59 L 165.03 259.56 L 169.22 258.33 L 173.41 252.45 L 177.60 247.19 L 181.79 257.89 L 185.98 262.32 L 190.17 259.18 L 194.36 258.57 L 198.55 258.90 L 202.74 254.92 L 206.93 256.93 L 211.12 257.59 L 215.31 255.74 L 219.49 263.72 L 223.68 284.59 L 227.87 285.93 L 232.06 285.69 L 236.25 282.25 L 240.44 290.39 L 244.63 274.07 L 248.82 282.25 L 253.01 314.43 L 257.20 301.57 L 261.39 312.36 L 265.58 307.41 L 269.77 317.92 L 273.96 338.14 L 278.15 337.22 L 282.34 351.26 L 286.53 337.44 L 290.72 333.20 L 294.91 335.05 L 299.09 325.12 L 303.28 325.52 L 307.47 324.80 L 311.66 312.47 L 315.85 306.19 L 320.04 309.18 L 324.23 312.44 L 328.42 330.86 L 332.61 331.26 L 336.80 321.73 L 340.99 321.34 L 345.18 361.64 L 349.37 435.32 L 353.56 433.01 L 357.75 354.69 L 361.94 389.77 L 366.13 373.19 L 370.32 357.01 L 374.51 358.11 L 378.69 382.19 L 382.88 383.99 L 387.07 396.49 L 391.26 396.82 L 395.45 388.80 L 399.64 383.49 L 403.83 363.99 L 408.02 368.64 L 412.21 369.87 L 416.40 364.17 L 420.59 357.53 L 424.78 355.49 L 428.97 347.69 L 433.16 334.43 L 437.35 335.75 L 441.54 315.93 L 445.73 305.41 L 449.92 316.33 L 454.11 311.33 L 458.29 306.51 L 462.48 300.75 L 466.67 300.18 L 470.86 323.11 L 475.05 323.15 L 479.24 327.80 L 483.43 331.36 L 487.62 332.14 L 491.81 314.31 L 496.00 314.82 L 500.19 312.99 L 504.38 311.51 L 508.57 306.13 L 512.76 309.84 L 516.95 300.35 L 521.14 300.07 L 525.33 297.45 L 529.52 296.72 L 533.71 296.06 L 537.89 308.49 L 542.08 311.45 L 546.27 310.48 L 550.46 315.16 L 554.65 316.84 L 558.84 317.67 L 563.03 307.42 L 567.22 295.66 L 571.41 294.35 L 575.60 288.01 L 579.79 281.67 L 583.98 270.90 L 588.17 264.87 L 592.36 255.05 L 596.55 249.02 L 600.74 248.69 L 604.93 247.06 L 609.12 261.21 L 613.31 259.83 L 617.49 255.30 L 621.68 256.45 L 625.87 258.77 L 630.06 266.68 L 634.25 267.34 L 638.44 256.34 L 642.63 259.38 L 646.82 263.21 L 651.01 260.13 L 655.20 247.58 L 659.39 246.11 L 663.58 249.18 L 667.77 249.43 L 671.96 252.07 L 676.15 255.11 L 680.34 261.68 L 684.53 288.77 L 688.72 280.63 L 692.91 270.10 L 697.09 267.10 L 701.28 270.25 L 705.47 270.49 L 709.66 267.60 L 713.85 262.06 L 718.04 257.38 L 722.23 249.22 L 726.42 250.85 L 730.61 246.19 L 734.80 249.73 L 738.99 248.17 L 743.18 248.58 L 747.37 236.54 L 751.56 234.31 L 755.75 237.76 L 759.94 235.67 L 764.13 234.24 L 768.32 235.06 L 772.51 237.26 L 776.69 235.52 L 780.88 240.83 L 785.07 235.16 L 789.26 235.80 L 793.45 238.58 L 797.64 235.85 L 801.83 230.66 L 806.02 228.46 L 810.21 221.64 L 814.40 227.29 L 818.59 226.80 L 822.78 228.77 L 826.97 219.67 L 831.16 216.10 L 835.35 213.31 L 839.54 213.04 L 843.73 215.79 L 847.92 221.21 L 852.11 216.20 L 856.29 213.99 L 860.48 211.98 L 864.67 214.71 L 868.86 237.15 L 873.05 224.75 L 877.24 218.60 L 881.43 215.83 L 885.62 226.51 L 889.81 222.87 L 894.00 209.13 L 898.19 203.67 L 902.38 203.82 L 906.57 204.88 L 910.76 198.74 L 914.95 190.03 L 919.14 184.79 L 923.33 181.63 L 927.52 184.45 L 931.71 183.82 L 935.89 183.80 L 940.08 193.06 L 944.27 194.88 L 948.46 196.53 L 952.65 200.05 L 956.84 196.44 L 961.03 187.57 L 965.22 172.02 L 969.41 187.61 L 973.60 188.70 L 977.79 206.38 L 981.98 215.04 L 986.17 220.61 L 990.36 236.32 L 994.55 220.48 L 998.74 215.33 L 1002.93 202.76 L 1007.12 191.59 L 1011.31 188.57 L 1015.49 189.37 L 1019.68 185.06 L 1023.87 189.69 L 1028.06 180.48 L 1032.25 173.67 L 1036.44 175.79 L 1040.63 175.17 L 1044.82 180.59 L 1049.01 172.02 L 1053.20 161.43 L 1057.39 158.31 L 1061.58 162.69 L 1065.77 165.68 L 1069.96 180.27 L 1074.15 175.85 L 1078.34 172.81 L 1082.53 169.32 L 1086.72 164.83 L 1090.91 162.83 L 1095.09 158.80 L 1099.28 160.30 L 1103.47 163.28 L 1107.66 169.35 L 1111.85 173.57 L 1116.04 156.73 L 1120.23 149.38 L 1124.42 152.79 L 1128.61 154.38 L 1132.80 145.21 L 1136.99 145.84 L 1141.18 144.90 L 1145.37 154.17 L 1149.56 150.75 L 1153.75 146.05 L 1157.94 150.80 L 1162.13 150.64 L 1166.32 162.44 L 1170.51 155.44 L 1174.69 152.78 L 1178.88 156.48 L 1183.07 152.25 L 1187.26 163.73 L 1191.45 162.15 L 1195.64 163.38 L 1199.83 162.31 L 1204.02 158.39 L 1208.21 160.25 L 1212.40 170.72 L 1216.59 139.84 L 1220.78 139.05 L 1224.97 141.31 L 1229.16 140.24 L 1233.35 159.43 L 1237.54 156.46 L 1241.73 159.19 L 1245.92 162.23 L 1250.11 159.23 L 1254.29 163.45 L 1258.48 170.25 L 1262.67 182.49 L 1266.86 184.44 L 1271.05 194.48 L 1275.24 216.13 L 1279.43 213.95 L 1283.62 210.21 L 1287.81 212.54 L 1292.00 240.25" fill="none" stroke="#1d4ed8" stroke-width="2"  />
  </g>
  <g>
    <text x="54" y="538" fill="#1f2937" font-size="16" font-weight="700">B. 绝对误差（越低越好）</text>
    <line x1="98" y1="558" x2="124" y2="558" stroke="#1d4ed8" stroke-width="2"  />
      <text x="130" y="562" fill="#24312e" font-size="12">持仓分段误差</text>
    <line x1="98" y1="560.00" x2="1292" y2="560.00" stroke="#d7e3df" stroke-width="1" />
      <text x="90" y="564.00" text-anchor="end" fill="#5b6b68" font-size="11">2.69%</text>
<line x1="98" y1="630.00" x2="1292" y2="630.00" stroke="#d7e3df" stroke-width="1" />
      <text x="90" y="634.00" text-anchor="end" fill="#5b6b68" font-size="11">2.02%</text>
<line x1="98" y1="700.00" x2="1292" y2="700.00" stroke="#d7e3df" stroke-width="1" />
      <text x="90" y="704.00" text-anchor="end" fill="#5b6b68" font-size="11">1.34%</text>
<line x1="98" y1="770.00" x2="1292" y2="770.00" stroke="#d7e3df" stroke-width="1" />
      <text x="90" y="774.00" text-anchor="end" fill="#5b6b68" font-size="11">0.67%</text>
<line x1="98" y1="840.00" x2="1292" y2="840.00" stroke="#d7e3df" stroke-width="1" />
      <text x="90" y="844.00" text-anchor="end" fill="#5b6b68" font-size="11">0.00%</text>
    <line x1="98.00" y1="560" x2="98.00" y2="840" stroke="#eef3f1" stroke-width="1" />
      <text x="98.00" y="868" text-anchor="middle" fill="#5b6b68" font-size="11">25-01-02</text>
<line x1="290.72" y1="560" x2="290.72" y2="840" stroke="#eef3f1" stroke-width="1" />
      <text x="290.72" y="868" text-anchor="middle" fill="#5b6b68" font-size="11">25-03-17</text>
<line x1="479.24" y1="560" x2="479.24" y2="840" stroke="#eef3f1" stroke-width="1" />
      <text x="479.24" y="868" text-anchor="middle" fill="#5b6b68" font-size="11">25-05-23</text>
<line x1="697.09" y1="560" x2="697.09" y2="840" stroke="#eef3f1" stroke-width="1" />
      <text x="697.09" y="868" text-anchor="middle" fill="#5b6b68" font-size="11">25-08-06</text>
<line x1="910.76" y1="560" x2="910.76" y2="840" stroke="#eef3f1" stroke-width="1" />
      <text x="910.76" y="868" text-anchor="middle" fill="#5b6b68" font-size="11">25-10-24</text>
<line x1="1099.28" y1="560" x2="1099.28" y2="840" stroke="#eef3f1" stroke-width="1" />
      <text x="1099.28" y="868" text-anchor="middle" fill="#5b6b68" font-size="11">25-12-26</text>
<line x1="1292.00" y1="560" x2="1292.00" y2="840" stroke="#eef3f1" stroke-width="1" />
      <text x="1292.00" y="868" text-anchor="middle" fill="#5b6b68" font-size="11">26-03-12</text>
    <line x1="1116.04" y1="560" x2="1116.04" y2="840" stroke="#f59e0b" stroke-width="1.4" stroke-dasharray="4 4" />
       <text x="1122.04" y="552" fill="#a16207" font-size="11">验证起点</text>
    <path d="M 98.00 822.38 L 102.19 800.19 L 106.38 836.62 L 110.57 828.95 L 114.76 834.51 L 118.95 836.18 L 123.14 676.89 L 127.33 797.64 L 131.52 814.12 L 135.71 812.17 L 139.89 807.28 L 144.08 812.23 L 148.27 823.07 L 152.46 722.31 L 156.65 816.76 L 160.84 798.63 L 165.03 823.45 L 169.22 801.95 L 173.41 818.25 L 177.60 787.65 L 181.79 777.79 L 185.98 821.81 L 190.17 819.02 L 194.36 803.01 L 198.55 794.33 L 202.74 816.99 L 206.93 833.42 L 211.12 838.12 L 215.31 835.97 L 219.49 810.12 L 223.68 813.94 L 227.87 836.06 L 232.06 807.22 L 236.25 798.82 L 240.44 826.14 L 244.63 828.82 L 248.82 751.00 L 253.01 803.07 L 257.20 805.67 L 261.39 815.12 L 265.58 805.00 L 269.77 761.24 L 273.96 829.82 L 278.15 794.89 L 282.34 797.91 L 286.53 839.91 L 290.72 798.02 L 294.91 838.89 L 299.09 838.70 L 303.28 832.82 L 307.47 832.67 L 311.66 797.18 L 315.85 831.03 L 320.04 819.10 L 324.23 809.47 L 328.42 800.49 L 332.61 766.05 L 336.80 819.29 L 340.99 804.07 L 345.18 830.87 L 349.37 773.03 L 353.56 800.94 L 357.75 823.20 L 361.94 778.36 L 366.13 778.07 L 370.32 834.19 L 374.51 800.88 L 378.69 827.09 L 382.88 727.15 L 387.07 834.03 L 391.26 590.00 L 395.45 788.53 L 399.64 827.72 L 403.83 787.55 L 408.02 832.80 L 412.21 809.60 L 416.40 788.28 L 420.59 817.21 L 424.78 798.02 L 428.97 800.51 L 433.16 830.53 L 437.35 818.42 L 441.54 761.32 L 445.73 747.64 L 449.92 818.97 L 454.11 836.74 L 458.29 798.03 L 462.48 818.63 L 466.67 829.93 L 470.86 838.58 L 475.05 834.17 L 479.24 815.98 L 483.43 836.19 L 487.62 648.81 L 491.81 812.12 L 496.00 832.73 L 500.19 839.31 L 504.38 787.93 L 508.57 822.88 L 512.76 830.75 L 516.95 830.64 L 521.14 833.17 L 525.33 832.14 L 529.52 837.59 L 533.71 825.83 L 537.89 775.62 L 542.08 795.05 L 546.27 797.48 L 550.46 831.34 L 554.65 838.24 L 558.84 826.90 L 563.03 827.52 L 567.22 818.22 L 571.41 825.77 L 575.60 820.98 L 579.79 773.58 L 583.98 810.08 L 588.17 777.08 L 592.36 816.25 L 596.55 835.94 L 600.74 836.95 L 604.93 726.22 L 609.12 813.99 L 613.31 826.09 L 617.49 824.39 L 621.68 795.55 L 625.87 837.49 L 630.06 804.68 L 634.25 810.96 L 638.44 817.42 L 642.63 817.28 L 646.82 828.56 L 651.01 823.45 L 655.20 821.30 L 659.39 768.36 L 663.58 831.90 L 667.77 837.83 L 671.96 823.23 L 676.15 799.51 L 680.34 786.88 L 684.53 783.76 L 688.72 733.57 L 692.91 836.43 L 697.09 835.02 L 701.28 799.94 L 705.47 821.91 L 709.66 788.83 L 713.85 824.03 L 718.04 767.86 L 722.23 837.65 L 726.42 813.06 L 730.61 809.83 L 734.80 829.84 L 738.99 834.26 L 743.18 800.47 L 747.37 781.72 L 751.56 776.92 L 755.75 837.02 L 759.94 833.37 L 764.13 835.71 L 768.32 830.76 L 772.51 825.21 L 776.69 788.05 L 780.88 830.60 L 785.07 824.39 L 789.26 812.88 L 793.45 822.96 L 797.64 805.19 L 801.83 789.89 L 806.02 774.15 L 810.21 785.04 L 814.40 827.01 L 818.59 816.06 L 822.78 790.81 L 826.97 829.26 L 831.16 814.47 L 835.35 826.31 L 839.54 824.33 L 843.73 811.22 L 847.92 823.98 L 852.11 826.71 L 856.29 839.03 L 860.48 836.55 L 864.67 821.64 L 868.86 835.97 L 873.05 814.84 L 877.24 820.69 L 881.43 828.24 L 885.62 833.61 L 889.81 813.04 L 894.00 808.81 L 898.19 813.21 L 902.38 798.44 L 906.57 834.30 L 910.76 790.87 L 914.95 796.27 L 919.14 808.18 L 923.33 827.33 L 927.52 828.88 L 931.71 834.94 L 935.89 783.16 L 940.08 806.26 L 944.27 807.09 L 948.46 793.18 L 952.65 834.39 L 956.84 787.50 L 961.03 737.49 L 965.22 797.21 L 969.41 838.23 L 973.60 779.99 L 977.79 801.30 L 981.98 769.56 L 986.17 829.55 L 990.36 799.45 L 994.55 824.28 L 998.74 826.97 L 1002.93 787.12 L 1007.12 814.29 L 1011.31 838.49 L 1015.49 771.87 L 1019.68 778.76 L 1023.87 813.49 L 1028.06 805.76 L 1032.25 811.45 L 1036.44 827.57 L 1040.63 805.71 L 1044.82 812.03 L 1049.01 832.59 L 1053.20 790.65 L 1057.39 805.80 L 1061.58 835.76 L 1065.77 786.97 L 1069.96 828.72 L 1074.15 831.69 L 1078.34 838.95 L 1082.53 816.36 L 1086.72 837.76 L 1090.91 805.39 L 1095.09 830.70 L 1099.28 833.49 L 1103.47 799.96 L 1107.66 830.96 L 1111.85 791.01 L 1116.04 838.94 L 1120.23 802.42 L 1124.42 808.83 L 1128.61 800.99 L 1132.80 833.67 L 1136.99 813.77 L 1141.18 774.64 L 1145.37 838.45 L 1149.56 813.08 L 1153.75 814.72 L 1157.94 832.66 L 1162.13 656.19 L 1166.32 802.68 L 1170.51 794.24 L 1174.69 792.80 L 1178.88 805.09 L 1183.07 757.27 L 1187.26 836.54 L 1191.45 837.36 L 1195.64 795.70 L 1199.83 782.82 L 1204.02 818.23 L 1208.21 804.20 L 1212.40 838.86 L 1216.59 830.48 L 1220.78 837.50 L 1224.97 821.42 L 1229.16 833.66 L 1233.35 830.80 L 1237.54 830.52 L 1241.73 789.17 L 1245.92 816.02 L 1250.11 829.12 L 1254.29 754.47 L 1258.48 801.68 L 1262.67 795.70 L 1266.86 813.64 L 1271.05 764.02 L 1275.24 832.59 L 1279.43 777.53 L 1283.62 839.87 L 1287.81 786.68 L 1292.00 813.23" fill="none" stroke="#1d4ed8" stroke-width="2"  />
  </g>
</svg>