<?xml version="1.0" encoding="UTF-8"?>
<svg xmlns="http://www.w3.org/2000/svg" width="1360" height="980" viewBox="0 0 1360 980">
  <defs>
    <linearGradient id="bg" x1="0" y1="0" x2="1" y2="1">
      <stop offset="0%" stop-color="#f4efe6" />
      <stop offset="100%" stop-color="#eef5f2" />
    </linearGradient>
  </defs>
  <rect x="0" y="0" width="1360" height="980" fill="url(#bg)" />
  <text x="46" y="36" fill="#1f2937" font-size="31" font-weight="700">513500 离线研究图（持仓逐日估值版）</text>
  <text x="46" y="66" fill="#5b6b68" font-size="13">历史前十大持仓 + 持仓逐日涨跌幅 + USDCNY；双目标 lambda=0.10；披露期数 47；覆盖率均值 73.7%</text>
  <g>
    <text x="54" y="110" fill="#1f2937" font-size="16" font-weight="700">A. 净值拟合（同日对齐，无平移）</text>
    <line x1="98" y1="112" x2="124" y2="112" stroke="#0f766e" stroke-width="2"  />
      <text x="130" y="116" fill="#24312e" font-size="12">真实净值</text>
<line x1="313" y1="112" x2="339" y2="112" stroke="#1d4ed8" stroke-width="2"  />
      <text x="345" y="116" fill="#24312e" font-size="12">持仓分段估值</text>
    <line x1="98" y1="132.00" x2="1292" y2="132.00" stroke="#d7e3df" stroke-width="1" />
      <text x="90" y="136.00" text-anchor="end" fill="#5b6b68" font-size="11">2.324</text>
<line x1="98" y1="209.50" x2="1292" y2="209.50" stroke="#d7e3df" stroke-width="1" />
      <text x="90" y="213.50" text-anchor="end" fill="#5b6b68" font-size="11">2.164</text>
<line x1="98" y1="287.00" x2="1292" y2="287.00" stroke="#d7e3df" stroke-width="1" />
      <text x="90" y="291.00" text-anchor="end" fill="#5b6b68" font-size="11">2.005</text>
<line x1="98" y1="364.50" x2="1292" y2="364.50" stroke="#d7e3df" stroke-width="1" />
      <text x="90" y="368.50" text-anchor="end" fill="#5b6b68" font-size="11">1.845</text>
<line x1="98" y1="442.00" x2="1292" y2="442.00" stroke="#d7e3df" stroke-width="1" />
      <text x="90" y="446.00" text-anchor="end" fill="#5b6b68" font-size="11">1.686</text>
    <line x1="98.00" y1="132" x2="98.00" y2="442" stroke="#eef3f1" stroke-width="1" />
      <text x="98.00" y="470" text-anchor="middle" fill="#5b6b68" font-size="11">25-01-02</text>
<line x1="290.72" y1="132" x2="290.72" y2="442" stroke="#eef3f1" stroke-width="1" />
      <text x="290.72" y="470" text-anchor="middle" fill="#5b6b68" font-size="11">25-03-17</text>
<line x1="479.24" y1="132" x2="479.24" y2="442" stroke="#eef3f1" stroke-width="1" />
      <text x="479.24" y="470" text-anchor="middle" fill="#5b6b68" font-size="11">25-05-23</text>
<line x1="697.09" y1="132" x2="697.09" y2="442" stroke="#eef3f1" stroke-width="1" />
      <text x="697.09" y="470" text-anchor="middle" fill="#5b6b68" font-size="11">25-08-06</text>
<line x1="910.76" y1="132" x2="910.76" y2="442" stroke="#eef3f1" stroke-width="1" />
      <text x="910.76" y="470" text-anchor="middle" fill="#5b6b68" font-size="11">25-10-24</text>
<line x1="1099.28" y1="132" x2="1099.28" y2="442" stroke="#eef3f1" stroke-width="1" />
      <text x="1099.28" y="470" text-anchor="middle" fill="#5b6b68" font-size="11">25-12-26</text>
<line x1="1292.00" y1="132" x2="1292.00" y2="442" stroke="#eef3f1" stroke-width="1" />
      <text x="1292.00" y="470" text-anchor="middle" fill="#5b6b68" font-size="11">26-03-12</text>
    <line x1="1116.04" y1="132" x2="1116.04" y2="442" stroke="#f59e0b" stroke-width="1.4" stroke-dasharray="4 4" />
       <text x="1122.04" y="124" fill="#a16207" font-size="11">验证起点</text>
    <path d="M 98.00 292.78 L 102.19 280.48 L 106.38 274.94 L 110.57 285.88 L 114.76 284.37 L 118.95 284.42 L 123.14 299.25 L 127.33 298.03 L 131.52 297.11 L 135.71 279.27 L 139.89 281.46 L 144.08 271.59 L 148.27 271.69 L 152.46 265.75 L 156.65 259.68 L 160.84 254.23 L 165.03 257.05 L 169.22 271.93 L 173.41 263.81 L 177.60 260.21 L 181.79 269.50 L 185.98 262.74 L 190.17 262.30 L 194.36 264.98 L 198.55 254.38 L 202.74 254.28 L 206.93 254.43 L 211.12 252.00 L 215.31 249.47 L 219.49 253.75 L 223.68 271.25 L 227.87 276.01 L 232.06 280.63 L 236.25 280.39 L 240.44 296.09 L 244.63 280.73 L 248.82 298.03 L 253.01 309.75 L 257.20 299.59 L 261.39 317.09 L 265.58 311.64 L 269.77 337.02 L 273.96 343.92 L 278.15 339.88 L 282.34 352.43 L 286.53 332.74 L 290.72 327.44 L 294.91 336.92 L 299.09 327.44 L 303.28 328.66 L 307.47 327.63 L 311.66 311.01 L 315.85 309.45 L 320.04 320.59 L 324.23 323.60 L 328.42 342.27 L 332.61 336.73 L 336.80 333.27 L 340.99 326.86 L 345.18 371.24 L 349.37 425.00 L 353.56 437.88 L 357.75 358.99 L 361.94 390.05 L 366.13 374.30 L 370.32 367.01 L 374.51 368.61 L 378.69 388.35 L 382.88 387.67 L 387.07 387.86 L 391.26 408.67 L 395.45 386.45 L 399.64 371.48 L 403.83 353.69 L 408.02 347.52 L 412.21 347.27 L 416.40 342.17 L 420.59 341.00 L 424.78 334.83 L 428.97 330.84 L 433.16 324.57 L 437.35 324.77 L 441.54 294.48 L 445.73 288.36 L 449.92 287.77 L 454.11 283.64 L 458.29 277.03 L 462.48 276.45 L 466.67 280.09 L 470.86 295.84 L 475.05 296.77 L 479.24 302.99 L 483.43 304.21 L 487.62 283.93 L 491.81 289.14 L 496.00 285.10 L 500.19 286.07 L 504.38 276.01 L 508.57 275.72 L 512.76 281.21 L 516.95 271.30 L 521.14 270.28 L 525.33 264.93 L 529.52 268.04 L 533.71 264.44 L 537.89 276.30 L 542.08 266.58 L 546.27 275.67 L 550.46 275.62 L 554.65 276.06 L 558.84 278.73 L 563.03 269.06 L 567.22 258.51 L 571.41 258.37 L 575.60 251.03 L 579.79 245.63 L 583.98 241.01 L 588.17 242.86 L 592.36 237.80 L 596.55 229.49 L 600.74 229.35 L 604.93 238.00 L 609.12 238.29 L 613.31 231.97 L 617.49 229.49 L 621.68 233.48 L 625.87 231.97 L 630.06 235.86 L 634.25 232.21 L 638.44 227.69 L 642.63 227.16 L 646.82 225.36 L 651.01 225.51 L 655.20 218.31 L 659.39 217.97 L 663.58 213.35 L 667.77 212.53 L 671.96 215.01 L 676.15 217.39 L 680.34 220.45 L 684.53 237.17 L 688.72 223.51 L 692.91 229.01 L 697.09 220.84 L 701.28 222.59 L 705.47 213.79 L 709.66 216.03 L 713.85 203.97 L 718.04 201.59 L 722.23 201.40 L 726.42 203.83 L 730.61 204.70 L 734.80 210.24 L 738.99 212.58 L 743.18 218.12 L 747.37 201.69 L 751.56 208.64 L 755.75 203.92 L 759.94 202.61 L 764.13 199.94 L 768.32 207.18 L 772.51 206.60 L 776.69 213.55 L 780.88 207.86 L 785.07 199.89 L 789.26 202.95 L 793.45 201.10 L 797.64 198.48 L 801.83 194.64 L 806.02 186.08 L 810.21 186.76 L 814.40 181.03 L 818.59 182.88 L 822.78 184.24 L 826.97 177.92 L 831.16 171.99 L 835.35 167.47 L 839.54 174.37 L 843.73 177.24 L 847.92 182.05 L 852.11 175.24 L 856.29 173.40 L 860.48 169.56 L 864.67 161.10 L 868.86 191.62 L 873.05 175.58 L 877.24 177.14 L 881.43 172.96 L 885.62 180.25 L 889.81 174.81 L 894.00 162.99 L 898.19 163.87 L 902.38 169.51 L 906.57 163.72 L 910.76 154.83 L 914.95 141.95 L 919.14 139.76 L 923.33 139.95 L 927.52 150.84 L 931.71 147.68 L 935.89 145.88 L 940.08 158.72 L 944.27 154.34 L 948.46 167.42 L 952.65 166.40 L 956.84 149.09 L 961.03 146.66 L 965.22 146.42 L 969.41 164.35 L 973.60 165.47 L 977.79 175.68 L 981.98 184.04 L 986.17 179.67 L 990.36 196.00 L 994.55 185.79 L 998.74 169.56 L 1002.93 159.88 L 1007.12 152.74 L 1011.31 153.03 L 1015.49 147.00 L 1019.68 153.03 L 1023.87 149.82 L 1028.06 147.05 L 1032.25 146.27 L 1036.44 143.79 L 1040.63 147.49 L 1044.82 148.36 L 1049.01 141.22 L 1053.20 140.05 L 1057.39 152.83 L 1061.58 154.29 L 1065.77 157.74 L 1069.96 170.92 L 1074.15 162.12 L 1078.34 153.08 L 1082.53 145.79 L 1086.72 141.51 L 1090.91 138.74 L 1095.09 140.05 L 1099.28 140.78 L 1103.47 145.20 L 1107.66 146.47 L 1111.85 155.60 L 1116.04 147.58 L 1120.23 141.56 L 1124.42 144.96 L 1128.61 144.91 L 1132.80 138.93 L 1136.99 137.62 L 1141.18 139.95 L 1145.37 145.88 L 1149.56 143.99 L 1153.75 144.52 L 1157.94 145.01 L 1162.13 168.73 L 1166.32 155.95 L 1170.51 149.77 L 1174.69 150.79 L 1178.88 146.51 L 1183.07 141.99 L 1187.26 143.74 L 1191.45 145.11 L 1195.64 151.42 L 1199.83 145.15 L 1204.02 156.09 L 1208.21 162.65 L 1212.40 175.68 L 1216.59 154.00 L 1220.78 149.82 L 1224.97 154.44 L 1229.16 154.83 L 1233.35 172.13 L 1237.54 172.42 L 1241.73 163.43 L 1245.92 155.70 L 1250.11 163.24 L 1254.29 168.19 L 1258.48 168.05 L 1262.67 180.54 L 1266.86 171.60 L 1271.05 179.47 L 1275.24 193.76 L 1279.43 182.68 L 1283.62 187.54 L 1287.81 189.44 L 1292.00 205.14" fill="none" stroke="#0f766e" stroke-width="2"  />
<path d="M 98.00 291.99 L 102.19 275.62 L 106.38 277.08 L 110.57 287.05 L 114.76 284.00 L 118.95 284.86 L 123.14 285.37 L 127.33 298.32 L 131.52 298.07 L 135.71 281.40 L 139.89 280.22 L 144.08 273.27 L 148.27 273.26 L 152.46 274.15 L 156.65 262.13 L 160.84 256.19 L 165.03 259.58 L 169.22 270.63 L 173.41 260.23 L 177.60 260.89 L 181.79 264.05 L 185.98 265.34 L 190.17 261.88 L 194.36 262.60 L 198.55 258.88 L 202.74 254.92 L 206.93 254.84 L 211.12 254.06 L 215.31 249.92 L 219.49 251.27 L 223.68 267.92 L 227.87 272.90 L 232.06 277.19 L 236.25 279.57 L 240.44 293.42 L 244.63 283.08 L 248.82 293.56 L 253.01 305.67 L 257.20 303.99 L 261.39 315.83 L 265.58 314.62 L 269.77 331.43 L 273.96 343.43 L 278.15 338.11 L 282.34 349.39 L 286.53 334.50 L 290.72 330.94 L 294.91 336.28 L 299.09 327.67 L 303.28 327.95 L 307.47 327.52 L 311.66 314.10 L 315.85 309.49 L 320.04 316.39 L 324.23 321.94 L 328.42 338.09 L 332.61 340.62 L 336.80 334.58 L 340.99 330.98 L 345.18 365.19 L 349.37 422.47 L 353.56 432.11 L 357.75 353.01 L 361.94 397.09 L 366.13 380.68 L 370.32 370.58 L 374.51 366.79 L 378.69 390.10 L 382.88 388.21 L 387.07 388.19 L 391.26 388.60 L 395.45 383.04 L 399.64 374.96 L 403.83 348.99 L 408.02 349.87 L 412.21 349.27 L 416.40 345.74 L 420.59 341.19 L 424.78 341.43 L 428.97 331.18 L 433.16 323.51 L 437.35 324.41 L 441.54 292.79 L 445.73 290.76 L 449.92 286.68 L 454.11 285.24 L 458.29 281.18 L 462.48 277.21 L 466.67 276.56 L 470.86 295.49 L 475.05 295.05 L 479.24 304.24 L 483.43 304.71 L 487.62 304.03 L 491.81 285.15 L 496.00 286.04 L 500.19 284.13 L 504.38 277.63 L 508.57 274.86 L 512.76 277.46 L 516.95 270.99 L 521.14 270.89 L 525.33 266.52 L 529.52 265.32 L 533.71 265.44 L 537.89 272.20 L 542.08 272.75 L 546.27 269.67 L 550.46 275.23 L 554.65 276.59 L 558.84 277.39 L 563.03 270.29 L 567.22 259.22 L 571.41 256.87 L 575.60 254.54 L 579.79 248.71 L 583.98 242.96 L 588.17 241.74 L 592.36 238.79 L 596.55 233.39 L 600.74 229.57 L 604.93 228.91 L 609.12 236.87 L 613.31 234.24 L 617.49 230.85 L 621.68 230.71 L 625.87 233.03 L 630.06 231.71 L 634.25 233.51 L 638.44 228.57 L 642.63 227.47 L 646.82 226.40 L 651.01 225.57 L 655.20 222.60 L 659.39 217.24 L 663.58 214.99 L 667.77 212.14 L 671.96 212.30 L 676.15 214.35 L 680.34 217.96 L 684.53 234.28 L 688.72 230.48 L 692.91 225.36 L 697.09 224.10 L 701.28 221.48 L 705.47 214.84 L 709.66 213.62 L 713.85 204.50 L 718.04 203.08 L 722.23 201.39 L 726.42 201.87 L 730.61 203.01 L 734.80 207.89 L 738.99 211.69 L 743.18 213.85 L 747.37 203.45 L 751.56 203.37 L 755.75 206.06 L 759.94 201.88 L 764.13 202.08 L 768.32 202.56 L 772.51 208.42 L 776.69 206.79 L 780.88 211.24 L 785.07 204.54 L 789.26 200.46 L 793.45 201.68 L 797.64 200.20 L 801.83 194.45 L 806.02 190.05 L 810.21 185.54 L 814.40 184.06 L 818.59 182.13 L 822.78 183.60 L 826.97 180.34 L 831.16 174.43 L 835.35 168.40 L 839.54 169.23 L 843.73 174.72 L 847.92 178.61 L 852.11 178.21 L 856.29 174.18 L 860.48 170.67 L 864.67 159.75 L 868.86 190.76 L 873.05 175.77 L 877.24 176.41 L 881.43 175.02 L 885.62 174.74 L 889.81 177.47 L 894.00 170.21 L 898.19 162.74 L 902.38 166.06 L 906.57 165.52 L 910.76 155.59 L 914.95 148.87 L 919.14 139.87 L 923.33 138.29 L 927.52 143.31 L 931.71 149.33 L 935.89 143.79 L 940.08 157.31 L 944.27 156.74 L 948.46 164.94 L 952.65 166.93 L 956.84 150.02 L 961.03 148.80 L 965.22 145.75 L 969.41 163.27 L 973.60 163.54 L 977.79 166.82 L 981.98 178.64 L 986.17 182.20 L 990.36 193.29 L 994.55 192.39 L 998.74 171.64 L 1002.93 166.53 L 1007.12 155.46 L 1011.31 152.77 L 1015.49 153.74 L 1019.68 147.48 L 1023.87 150.28 L 1028.06 147.56 L 1032.25 144.76 L 1036.44 143.95 L 1040.63 143.88 L 1044.82 146.78 L 1049.01 144.82 L 1053.20 140.27 L 1057.39 150.20 L 1061.58 154.98 L 1065.77 154.92 L 1069.96 166.58 L 1074.15 166.65 L 1078.34 152.97 L 1082.53 150.59 L 1086.72 143.63 L 1090.91 140.06 L 1095.09 139.20 L 1099.28 140.57 L 1103.47 142.07 L 1107.66 146.49 L 1111.85 149.35 L 1116.04 151.72 L 1120.23 143.24 L 1124.42 141.81 L 1128.61 146.90 L 1132.80 140.13 L 1136.99 137.85 L 1141.18 137.74 L 1145.37 142.92 L 1149.56 144.26 L 1153.75 143.61 L 1157.94 145.53 L 1162.13 146.18 L 1166.32 158.55 L 1170.51 153.27 L 1174.69 149.79 L 1178.88 148.03 L 1183.07 143.54 L 1187.26 141.72 L 1191.45 145.95 L 1195.64 146.93 L 1199.83 148.19 L 1204.02 154.92 L 1208.21 159.93 L 1212.40 173.42 L 1216.59 153.38 L 1220.78 150.33 L 1224.97 151.85 L 1229.16 154.40 L 1233.35 172.03 L 1237.54 171.06 L 1241.73 169.28 L 1245.92 157.69 L 1250.11 163.02 L 1254.29 164.66 L 1258.48 163.88 L 1262.67 170.78 L 1266.86 173.97 L 1271.05 174.24 L 1275.24 190.29 L 1279.43 183.00 L 1283.62 186.53 L 1287.81 187.98 L 1292.00 205.17" fill="none" stroke="#1d4ed8" stroke-width="2"  />
  </g>
  <g>
    <text x="54" y="538" fill="#1f2937" font-size="16" font-weight="700">B. 绝对误差（越低越好）</text>
    <line x1="98" y1="540" x2="124" y2="540" stroke="#1d4ed8" stroke-width="2"  />
      <text x="130" y="544" fill="#24312e" font-size="12">持仓分段误差</text>
    <line x1="98" y1="560.00" x2="1292" y2="560.00" stroke="#d7e3df" stroke-width="1" />
      <text x="90" y="564.00" text-anchor="end" fill="#5b6b68" font-size="11">2.64%</text>
<line x1="98" y1="630.00" x2="1292" y2="630.00" stroke="#d7e3df" stroke-width="1" />
      <text x="90" y="634.00" text-anchor="end" fill="#5b6b68" font-size="11">1.98%</text>
<line x1="98" y1="700.00" x2="1292" y2="700.00" stroke="#d7e3df" stroke-width="1" />
      <text x="90" y="704.00" text-anchor="end" fill="#5b6b68" font-size="11">1.32%</text>
<line x1="98" y1="770.00" x2="1292" y2="770.00" stroke="#d7e3df" stroke-width="1" />
      <text x="90" y="774.00" text-anchor="end" fill="#5b6b68" font-size="11">0.66%</text>
<line x1="98" y1="840.00" x2="1292" y2="840.00" stroke="#d7e3df" stroke-width="1" />
      <text x="90" y="844.00" text-anchor="end" fill="#5b6b68" font-size="11">0.00%</text>
    <line x1="98.00" y1="560" x2="98.00" y2="840" stroke="#eef3f1" stroke-width="1" />
      <text x="98.00" y="868" text-anchor="middle" fill="#5b6b68" font-size="11">25-01-02</text>
<line x1="290.72" y1="560" x2="290.72" y2="840" stroke="#eef3f1" stroke-width="1" />
      <text x="290.72" y="868" text-anchor="middle" fill="#5b6b68" font-size="11">25-03-17</text>
<line x1="479.24" y1="560" x2="479.24" y2="840" stroke="#eef3f1" stroke-width="1" />
      <text x="479.24" y="868" text-anchor="middle" fill="#5b6b68" font-size="11">25-05-23</text>
<line x1="697.09" y1="560" x2="697.09" y2="840" stroke="#eef3f1" stroke-width="1" />
      <text x="697.09" y="868" text-anchor="middle" fill="#5b6b68" font-size="11">25-08-06</text>
<line x1="910.76" y1="560" x2="910.76" y2="840" stroke="#eef3f1" stroke-width="1" />
      <text x="910.76" y="868" text-anchor="middle" fill="#5b6b68" font-size="11">25-10-24</text>
<line x1="1099.28" y1="560" x2="1099.28" y2="840" stroke="#eef3f1" stroke-width="1" />
      <text x="1099.28" y="868" text-anchor="middle" fill="#5b6b68" font-size="11">25-12-26</text>
<line x1="1292.00" y1="560" x2="1292.00" y2="840" stroke="#eef3f1" stroke-width="1" />
      <text x="1292.00" y="868" text-anchor="middle" fill="#5b6b68" font-size="11">26-03-12</text>
    <line x1="1116.04" y1="560" x2="1116.04" y2="840" stroke="#f59e0b" stroke-width="1.4" stroke-dasharray="4 4" />
       <text x="1122.04" y="552" fill="#a16207" font-size="11">验证起点</text>
    <path d="M 98.00 831.32 L 102.19 787.39 L 106.38 816.93 L 110.57 827.30 L 114.76 835.97 L 118.95 835.21 L 123.14 686.75 L 127.33 836.82 L 131.52 829.43 L 135.71 816.95 L 139.89 826.59 L 144.08 821.95 L 148.27 823.11 L 152.46 750.46 L 156.65 813.99 L 160.84 819.42 L 165.03 813.33 L 169.22 826.11 L 173.41 801.86 L 177.60 832.80 L 181.79 781.70 L 185.98 812.35 L 190.17 835.49 L 194.36 814.64 L 198.55 792.55 L 202.74 833.26 L 206.93 835.67 L 211.12 818.31 L 215.31 835.32 L 219.49 813.83 L 223.68 804.34 L 227.87 806.46 L 232.06 802.78 L 236.25 831.17 L 240.44 810.61 L 244.63 814.49 L 248.82 790.72 L 253.01 794.54 L 257.20 791.34 L 261.39 825.81 L 265.58 806.69 L 269.77 775.83 L 273.96 834.37 L 278.15 819.59 L 282.34 804.51 L 286.53 819.90 L 290.72 800.17 L 294.91 832.64 L 299.09 837.39 L 303.28 831.97 L 307.47 838.70 L 311.66 805.45 L 315.85 839.61 L 320.04 792.60 L 324.23 821.19 L 328.42 791.67 L 332.61 795.31 L 336.80 825.07 L 340.99 793.09 L 345.18 767.80 L 349.37 807.86 L 353.56 765.54 L 357.75 769.61 L 361.94 754.20 L 366.13 763.63 L 370.32 797.60 L 374.51 818.37 L 378.69 818.75 L 382.88 833.47 L 387.07 836.06 L 391.26 590.00 L 395.45 798.60 L 399.64 798.45 L 403.83 784.96 L 408.02 812.63 L 412.21 816.80 L 416.40 798.70 L 420.59 837.89 L 424.78 764.33 L 428.97 836.16 L 433.16 827.92 L 437.35 835.93 L 441.54 821.38 L 445.73 813.73 L 449.92 828.08 L 454.11 822.68 L 458.29 795.27 L 462.48 831.82 L 466.67 801.70 L 470.86 836.11 L 475.05 821.12 L 479.24 826.13 L 483.43 834.39 L 487.62 621.65 L 491.81 796.40 L 496.00 829.78 L 500.19 818.82 L 504.38 822.57 L 508.57 830.78 L 512.76 799.38 L 516.95 836.67 L 521.14 833.39 L 525.33 823.08 L 529.52 810.96 L 533.71 829.38 L 537.89 795.79 L 542.08 774.15 L 546.27 775.31 L 550.46 835.77 L 554.65 834.29 L 558.84 825.50 L 563.03 826.82 L 567.22 832.53 L 571.41 824.16 L 575.60 803.06 L 579.79 807.75 L 583.98 819.77 L 588.17 828.29 L 592.36 829.78 L 596.55 799.89 L 600.74 837.72 L 604.93 745.69 L 609.12 825.23 L 613.31 816.61 L 617.49 826.01 L 621.68 811.38 L 625.87 829.09 L 630.06 797.04 L 634.25 826.61 L 638.44 831.03 L 642.63 836.75 L 646.82 829.34 L 651.01 839.33 L 655.20 796.38 L 659.39 832.51 L 663.58 823.37 L 667.77 836.12 L 671.96 812.55 L 676.15 809.09 L 680.34 814.61 L 684.53 810.03 L 688.72 768.73 L 692.91 802.50 L 697.09 806.67 L 701.28 828.68 L 705.47 829.31 L 709.66 815.52 L 713.85 834.69 L 718.04 825.05 L 722.23 839.98 L 726.42 820.34 L 730.61 822.96 L 734.80 816.19 L 738.99 831.02 L 743.18 796.56 L 747.37 822.30 L 751.56 786.88 L 755.75 818.52 L 759.94 832.70 L 764.13 818.58 L 768.32 793.49 L 772.51 821.66 L 776.69 771.46 L 780.88 805.94 L 785.07 793.45 L 789.26 815.04 L 793.45 834.19 L 797.64 822.83 L 801.83 838.08 L 806.02 800.78 L 810.21 827.94 L 814.40 810.16 L 818.59 832.65 L 822.78 833.69 L 826.97 816.29 L 831.16 816.19 L 835.35 830.91 L 839.54 789.83 L 843.73 815.39 L 847.92 806.21 L 852.11 811.00 L 856.29 832.39 L 860.48 829.12 L 864.67 826.96 L 868.86 831.40 L 873.05 838.18 L 877.24 832.83 L 881.43 819.85 L 885.62 785.83 L 889.81 813.99 L 894.00 770.18 L 898.19 829.10 L 902.38 806.42 L 906.57 822.64 L 910.76 832.69 L 914.95 774.28 L 919.14 838.95 L 923.33 824.25 L 927.52 767.98 L 931.71 824.25 L 935.89 820.09 L 940.08 826.44 L 944.27 817.01 L 948.46 815.96 L 952.65 834.79 L 956.84 831.09 L 961.03 819.60 L 965.22 833.65 L 969.41 829.47 L 973.60 821.25 L 977.79 753.35 L 981.98 786.75 L 986.17 815.15 L 990.36 813.02 L 994.55 774.86 L 998.74 819.69 L 1002.93 775.88 L 1007.12 813.87 L 1011.31 837.52 L 1015.49 775.74 L 1019.68 786.84 L 1023.87 835.63 L 1028.06 835.12 L 1032.25 825.60 L 1036.44 838.49 L 1040.63 805.60 L 1044.82 824.93 L 1049.01 805.78 L 1053.20 837.95 L 1057.39 814.79 L 1061.58 833.37 L 1065.77 812.83 L 1069.96 797.74 L 1074.15 796.21 L 1078.34 838.94 L 1082.53 794.28 L 1086.72 819.90 L 1090.91 827.48 L 1095.09 831.92 L 1099.28 838.06 L 1103.47 810.16 L 1107.66 839.75 L 1111.85 779.93 L 1116.04 800.53 L 1120.23 824.00 L 1124.42 810.00 L 1128.61 821.03 L 1132.80 828.64 L 1136.99 837.78 L 1141.18 819.02 L 1145.37 811.74 L 1149.56 837.38 L 1153.75 831.37 L 1157.94 835.02 L 1162.13 620.73 L 1166.32 814.92 L 1170.51 806.57 L 1174.69 830.43 L 1178.88 825.56 L 1183.07 825.37 L 1187.26 820.80 L 1191.45 831.98 L 1195.64 796.95 L 1199.83 811.15 L 1204.02 828.74 L 1208.21 813.66 L 1212.40 817.90 L 1216.59 834.07 L 1220.78 835.12 L 1224.97 815.21 L 1229.16 835.93 L 1233.35 838.98 L 1237.54 826.73 L 1241.73 783.39 L 1245.92 820.90 L 1250.11 837.88 L 1254.29 805.66 L 1258.48 799.53 L 1262.67 744.06 L 1266.86 816.91 L 1271.05 788.59 L 1275.24 805.42 L 1279.43 836.88 L 1283.62 829.95 L 1287.81 825.58 L 1292.00 839.65" fill="none" stroke="#1d4ed8" stroke-width="2"  />
  </g>
</svg>