<?xml version="1.0" encoding="UTF-8"?>
<svg xmlns="http://www.w3.org/2000/svg" width="1360" height="980" viewBox="0 0 1360 980">
  <defs>
    <linearGradient id="bg" x1="0" y1="0" x2="1" y2="1">
      <stop offset="0%" stop-color="#f4efe6" />
      <stop offset="100%" stop-color="#eef5f2" />
    </linearGradient>
  </defs>
  <rect x="0" y="0" width="1360" height="980" fill="url(#bg)" />
  <text x="46" y="36" fill="#1f2937" font-size="31" font-weight="700">513520 离线研究图（持仓逐日估值版）</text>
  <text x="46" y="66" fill="#5b6b68" font-size="13">历史前十大持仓 + 持仓逐日涨跌幅 + USDCNY；双目标 lambda=0.10；披露期数 19；覆盖率均值 92.2%</text>
  <g>
    <text x="54" y="110" fill="#1f2937" font-size="16" font-weight="700">A. 净值拟合（同日对齐，无平移）</text>
    <line x1="98" y1="112" x2="124" y2="112" stroke="#0f766e" stroke-width="2"  />
      <text x="130" y="116" fill="#24312e" font-size="12">真实净值</text>
<line x1="313" y1="112" x2="339" y2="112" stroke="#1d4ed8" stroke-width="2"  />
      <text x="345" y="116" fill="#24312e" font-size="12">持仓分段估值</text>
    <line x1="98" y1="132.00" x2="1292" y2="132.00" stroke="#d7e3df" stroke-width="1" />
      <text x="90" y="136.00" text-anchor="end" fill="#5b6b68" font-size="11">2.037</text>
<line x1="98" y1="209.50" x2="1292" y2="209.50" stroke="#d7e3df" stroke-width="1" />
      <text x="90" y="213.50" text-anchor="end" fill="#5b6b68" font-size="11">1.828</text>
<line x1="98" y1="287.00" x2="1292" y2="287.00" stroke="#d7e3df" stroke-width="1" />
      <text x="90" y="291.00" text-anchor="end" fill="#5b6b68" font-size="11">1.620</text>
<line x1="98" y1="364.50" x2="1292" y2="364.50" stroke="#d7e3df" stroke-width="1" />
      <text x="90" y="368.50" text-anchor="end" fill="#5b6b68" font-size="11">1.412</text>
<line x1="98" y1="442.00" x2="1292" y2="442.00" stroke="#d7e3df" stroke-width="1" />
      <text x="90" y="446.00" text-anchor="end" fill="#5b6b68" font-size="11">1.204</text>
    <line x1="98.00" y1="132" x2="98.00" y2="442" stroke="#eef3f1" stroke-width="1" />
      <text x="98.00" y="470" text-anchor="middle" fill="#5b6b68" font-size="11">25-01-02</text>
<line x1="290.04" y1="132" x2="290.04" y2="442" stroke="#eef3f1" stroke-width="1" />
      <text x="290.04" y="470" text-anchor="middle" fill="#5b6b68" font-size="11">25-03-17</text>
<line x1="482.08" y1="132" x2="482.08" y2="442" stroke="#eef3f1" stroke-width="1" />
      <text x="482.08" y="470" text-anchor="middle" fill="#5b6b68" font-size="11">25-05-26</text>
<line x1="695.00" y1="132" x2="695.00" y2="442" stroke="#eef3f1" stroke-width="1" />
      <text x="695.00" y="470" text-anchor="middle" fill="#5b6b68" font-size="11">25-08-06</text>
<line x1="907.92" y1="132" x2="907.92" y2="442" stroke="#eef3f1" stroke-width="1" />
      <text x="907.92" y="470" text-anchor="middle" fill="#5b6b68" font-size="11">25-10-24</text>
<line x1="1099.96" y1="132" x2="1099.96" y2="442" stroke="#eef3f1" stroke-width="1" />
      <text x="1099.96" y="470" text-anchor="middle" fill="#5b6b68" font-size="11">25-12-29</text>
<line x1="1292.00" y1="132" x2="1292.00" y2="442" stroke="#eef3f1" stroke-width="1" />
      <text x="1292.00" y="470" text-anchor="middle" fill="#5b6b68" font-size="11">26-03-13</text>
    <line x1="1112.48" y1="132" x2="1112.48" y2="442" stroke="#f59e0b" stroke-width="1.4" stroke-dasharray="4 4" />
       <text x="1118.48" y="124" fill="#a16207" font-size="11">验证起点</text>
    <path d="M 98.00 360.10 L 102.17 360.36 L 106.35 368.06 L 110.52 358.87 L 114.70 360.13 L 118.87 364.64 L 123.05 370.97 L 127.22 367.69 L 131.40 378.60 L 135.57 378.07 L 139.75 372.42 L 143.92 372.16 L 148.10 369.63 L 152.27 368.25 L 156.45 361.51 L 160.62 359.76 L 164.80 357.72 L 168.97 363.04 L 173.15 363.22 L 177.32 356.45 L 181.50 357.16 L 185.67 356.75 L 189.85 356.64 L 194.02 360.21 L 198.20 357.34 L 202.37 356.12 L 206.55 354.74 L 210.72 352.21 L 214.90 352.91 L 219.07 356.30 L 223.24 355.89 L 227.42 352.80 L 231.59 359.61 L 235.77 360.84 L 239.94 357.72 L 244.12 373.05 L 248.29 366.02 L 252.47 369.96 L 256.64 371.38 L 260.82 365.64 L 264.99 372.34 L 269.17 369.14 L 273.34 372.23 L 277.52 375.95 L 281.69 374.50 L 285.87 372.94 L 290.04 370.89 L 294.22 367.47 L 298.39 368.43 L 302.57 363.48 L 306.74 368.21 L 310.92 368.47 L 315.09 368.92 L 319.27 365.27 L 323.44 368.62 L 327.62 375.36 L 331.79 390.06 L 335.97 391.96 L 340.14 390.80 L 344.31 392.89 L 348.49 439.75 L 352.66 418.24 L 356.84 420.06 L 361.01 392.63 L 365.19 396.20 L 369.36 388.65 L 373.54 385.56 L 377.71 387.16 L 381.89 383.51 L 386.06 377.18 L 390.24 378.93 L 394.41 375.25 L 398.59 374.32 L 402.76 374.95 L 406.94 368.36 L 411.11 365.38 L 415.29 362.96 L 419.46 360.99 L 423.64 357.90 L 427.81 355.11 L 431.99 353.99 L 436.16 352.73 L 440.34 353.44 L 444.51 354.78 L 448.69 351.24 L 452.86 352.62 L 457.03 351.02 L 461.21 353.51 L 465.38 350.12 L 469.56 350.64 L 473.73 354.81 L 477.91 353.25 L 482.08 346.10 L 486.26 344.32 L 490.43 347.93 L 494.61 344.13 L 498.78 342.57 L 502.96 346.88 L 507.13 347.78 L 511.31 347.48 L 515.48 347.81 L 519.66 344.17 L 523.83 343.39 L 528.01 342.05 L 532.18 341.41 L 536.36 345.54 L 540.53 340.18 L 544.71 339.29 L 548.88 335.83 L 553.06 340.82 L 557.23 343.83 L 561.41 350.72 L 565.58 339.03 L 569.76 336.17 L 573.93 325.86 L 578.10 316.10 L 582.28 309.92 L 586.45 316.07 L 590.63 319.56 L 594.80 320.53 L 598.98 320.90 L 603.15 327.34 L 607.33 329.32 L 611.50 330.62 L 615.68 330.21 L 619.85 334.56 L 624.03 337.62 L 628.20 335.50 L 632.38 339.89 L 636.55 335.31 L 640.73 337.10 L 644.90 335.64 L 649.08 335.27 L 653.25 313.01 L 657.43 300.69 L 661.60 309.37 L 665.78 318.08 L 669.95 324.11 L 674.13 323.70 L 678.30 318.60 L 682.48 327.38 L 686.65 326.86 L 690.83 320.87 L 695.00 318.00 L 699.17 314.95 L 703.35 304.42 L 707.52 304.97 L 711.70 294.63 L 715.87 285.99 L 720.05 289.49 L 724.22 281.79 L 728.40 277.88 L 732.57 281.34 L 736.75 289.75 L 740.92 293.62 L 745.10 298.31 L 749.27 292.58 L 753.45 299.54 L 757.62 297.68 L 761.80 291.46 L 765.97 293.70 L 770.15 301.44 L 774.32 302.59 L 778.50 310.52 L 782.67 300.14 L 786.85 294.48 L 791.02 285.51 L 795.20 284.09 L 799.37 281.15 L 803.55 274.57 L 807.72 268.54 L 811.90 269.17 L 816.07 265.22 L 820.24 265.48 L 824.42 261.20 L 828.59 266.45 L 832.77 262.43 L 836.94 260.42 L 841.12 258.45 L 845.29 260.20 L 849.47 268.39 L 853.64 266.38 L 857.82 264.89 L 861.99 233.40 L 866.17 242.07 L 870.34 237.72 L 874.52 252.49 L 878.69 239.88 L 882.87 231.06 L 887.04 235.26 L 891.22 217.66 L 895.39 220.00 L 899.57 221.12 L 903.74 232.36 L 907.92 225.62 L 912.09 211.07 L 916.27 211.11 L 920.44 197.45 L 924.62 201.17 L 928.79 189.63 L 932.97 189.93 L 937.14 198.23 L 941.31 215.27 L 945.49 209.58 L 949.66 213.86 L 953.84 208.39 L 958.01 210.25 L 962.19 209.77 L 966.36 209.65 L 970.54 220.56 L 974.71 220.78 L 978.89 242.48 L 983.06 246.50 L 987.24 239.54 L 991.41 252.72 L 995.59 250.71 L 999.76 252.90 L 1003.94 239.88 L 1008.11 231.69 L 1012.29 232.43 L 1016.46 241.33 L 1020.64 242.04 L 1024.81 235.37 L 1028.99 218.21 L 1033.16 222.35 L 1037.34 224.10 L 1041.51 225.99 L 1045.69 230.91 L 1049.86 233.59 L 1054.03 223.61 L 1058.21 230.09 L 1062.38 239.58 L 1066.56 239.43 L 1070.73 248.77 L 1074.91 243.56 L 1079.08 238.35 L 1083.26 233.33 L 1087.43 233.59 L 1091.61 234.59 L 1095.78 232.13 L 1099.96 235.22 L 1104.13 236.56 L 1108.31 239.32 L 1112.48 223.02 L 1116.66 211.89 L 1120.83 218.33 L 1125.01 230.42 L 1129.18 223.02 L 1133.36 226.44 L 1137.53 208.80 L 1141.71 200.68 L 1145.88 200.61 L 1150.06 202.69 L 1154.23 205.63 L 1158.41 214.38 L 1162.58 217.69 L 1166.76 208.24 L 1170.93 205.45 L 1175.10 198.53 L 1179.28 195.51 L 1183.45 187.47 L 1187.63 188.59 L 1191.80 193.24 L 1195.98 205.11 L 1200.15 182.82 L 1204.33 192.09 L 1208.50 199.16 L 1212.68 194.36 L 1216.85 168.08 L 1221.03 147.61 L 1225.20 136.67 L 1229.38 137.11 L 1233.55 146.34 L 1237.73 152.78 L 1241.90 140.72 L 1246.08 144.22 L 1250.25 140.87 L 1254.43 153.49 L 1258.60 176.79 L 1262.78 199.75 L 1266.95 188.62 L 1271.13 185.13 L 1275.30 223.72 L 1279.48 204.59 L 1283.65 200.31 L 1287.83 208.31 L 1292.00 218.10" fill="none" stroke="#0f766e" stroke-width="2"  />
<path d="M 98.00 357.09 L 102.17 359.12 L 106.35 360.56 L 110.52 368.10 L 114.70 358.67 L 118.87 360.29 L 123.05 364.91 L 127.22 372.88 L 131.40 367.56 L 135.57 375.57 L 139.75 378.83 L 143.92 371.34 L 148.10 373.27 L 152.27 370.21 L 156.45 368.17 L 160.62 360.23 L 164.80 358.76 L 168.97 356.27 L 173.15 353.06 L 177.32 362.41 L 181.50 357.65 L 185.67 358.41 L 189.85 356.19 L 194.02 357.13 L 198.20 358.38 L 202.37 357.30 L 206.55 357.32 L 210.72 354.82 L 214.90 352.61 L 219.07 352.87 L 223.24 357.08 L 227.42 357.14 L 231.59 351.15 L 235.77 359.36 L 239.94 360.84 L 244.12 357.95 L 248.29 375.29 L 252.47 366.89 L 256.64 364.05 L 260.82 372.15 L 264.99 364.66 L 269.17 384.02 L 273.34 369.73 L 277.52 367.22 L 281.69 376.22 L 285.87 370.71 L 290.04 370.12 L 294.22 371.07 L 298.39 366.31 L 302.57 368.74 L 306.74 363.19 L 310.92 368.50 L 315.09 367.78 L 319.27 369.67 L 323.44 365.15 L 327.62 374.93 L 331.79 376.23 L 335.97 390.35 L 340.14 391.73 L 344.31 397.28 L 348.49 439.41 L 352.66 439.27 L 356.84 400.09 L 361.01 426.39 L 365.19 386.91 L 369.36 390.00 L 373.54 387.61 L 377.71 386.17 L 381.89 382.47 L 386.06 383.67 L 390.24 372.78 L 394.41 373.25 L 398.59 374.64 L 402.76 373.21 L 406.94 373.98 L 411.11 360.71 L 415.29 364.67 L 419.46 363.18 L 423.64 357.66 L 427.81 357.96 L 431.99 354.17 L 436.16 353.37 L 440.34 352.21 L 444.51 353.99 L 448.69 355.54 L 452.86 349.78 L 457.03 351.77 L 461.21 347.77 L 465.38 352.63 L 469.56 350.59 L 473.73 350.05 L 477.91 353.93 L 482.08 352.46 L 486.26 346.16 L 490.43 348.85 L 494.61 347.10 L 498.78 343.31 L 502.96 340.68 L 507.13 346.68 L 511.31 348.20 L 515.48 346.24 L 519.66 346.25 L 523.83 343.67 L 528.01 343.13 L 532.18 341.11 L 536.36 341.64 L 540.53 347.56 L 544.71 340.74 L 548.88 337.91 L 553.06 335.98 L 557.23 341.05 L 561.41 342.33 L 565.58 349.86 L 569.76 339.15 L 573.93 330.51 L 578.10 320.33 L 582.28 311.92 L 586.45 310.12 L 590.63 315.49 L 594.80 320.25 L 598.98 320.64 L 603.15 320.60 L 607.33 326.22 L 611.50 328.62 L 615.68 330.66 L 619.85 330.39 L 624.03 335.78 L 628.20 338.05 L 632.38 334.81 L 636.55 338.90 L 640.73 335.74 L 644.90 335.57 L 649.08 334.87 L 653.25 324.09 L 657.43 312.42 L 661.60 301.15 L 665.78 321.50 L 669.95 318.20 L 674.13 323.26 L 678.30 323.28 L 682.48 313.60 L 686.65 329.55 L 690.83 326.52 L 695.00 319.14 L 699.17 317.00 L 703.35 309.49 L 707.52 302.51 L 711.70 299.18 L 715.87 294.38 L 720.05 286.14 L 724.22 283.78 L 728.40 280.65 L 732.57 277.55 L 736.75 281.33 L 740.92 290.61 L 745.10 291.41 L 749.27 303.65 L 753.45 292.36 L 757.62 299.68 L 761.80 296.72 L 765.97 292.74 L 770.15 294.20 L 774.32 301.60 L 778.50 302.53 L 782.67 308.95 L 786.85 299.05 L 791.02 280.02 L 795.20 286.95 L 799.37 283.28 L 803.55 279.14 L 807.72 275.09 L 811.90 267.02 L 816.07 269.16 L 820.24 265.18 L 824.42 264.09 L 828.59 261.85 L 832.77 267.64 L 836.94 262.23 L 841.12 260.13 L 845.29 258.39 L 849.47 259.50 L 853.64 269.48 L 857.82 266.48 L 861.99 256.17 L 866.17 249.67 L 870.34 239.04 L 874.52 236.14 L 878.69 250.57 L 882.87 239.29 L 887.04 229.79 L 891.22 223.55 L 895.39 218.41 L 899.57 219.69 L 903.74 220.42 L 907.92 231.50 L 912.09 221.16 L 916.27 210.59 L 920.44 211.81 L 924.62 196.33 L 928.79 200.46 L 932.97 182.92 L 937.14 190.32 L 941.31 197.56 L 945.49 214.82 L 949.66 208.44 L 953.84 212.55 L 958.01 207.94 L 962.19 208.81 L 966.36 216.40 L 970.54 207.67 L 974.71 230.94 L 978.89 228.23 L 983.06 242.18 L 987.24 247.95 L 991.41 233.01 L 995.59 252.72 L 999.76 250.37 L 1003.94 251.07 L 1008.11 240.30 L 1012.29 232.15 L 1016.46 229.41 L 1020.64 241.16 L 1024.81 241.69 L 1028.99 233.59 L 1033.16 217.63 L 1037.34 222.25 L 1041.51 223.23 L 1045.69 224.72 L 1049.86 230.23 L 1054.03 233.46 L 1058.21 218.80 L 1062.38 244.19 L 1066.56 240.48 L 1070.73 238.77 L 1074.91 251.07 L 1079.08 240.44 L 1083.26 237.22 L 1087.43 233.30 L 1091.61 233.84 L 1095.78 234.85 L 1099.96 229.80 L 1104.13 234.93 L 1108.31 236.45 L 1112.48 216.94 L 1116.66 222.72 L 1120.83 211.26 L 1125.01 217.75 L 1129.18 223.56 L 1133.36 220.40 L 1137.53 226.91 L 1141.71 207.53 L 1145.88 199.63 L 1150.06 199.83 L 1154.23 204.08 L 1158.41 205.89 L 1162.58 212.51 L 1166.76 216.91 L 1170.93 206.27 L 1175.10 202.63 L 1179.28 196.67 L 1183.45 196.04 L 1187.63 185.70 L 1191.80 188.01 L 1195.98 194.99 L 1200.15 203.38 L 1204.33 183.86 L 1208.50 196.97 L 1212.68 186.49 L 1216.85 182.12 L 1221.03 162.10 L 1225.20 146.05 L 1229.38 136.81 L 1233.55 135.77 L 1237.73 172.69 L 1241.90 150.48 L 1246.08 140.51 L 1250.25 143.46 L 1254.43 153.34 L 1258.60 169.33 L 1262.78 169.50 L 1266.95 212.03 L 1271.13 189.56 L 1275.30 181.48 L 1279.48 222.32 L 1283.65 204.97 L 1287.83 206.76 L 1292.00 208.55" fill="none" stroke="#1d4ed8" stroke-width="2"  />
  </g>
  <g>
    <text x="54" y="538" fill="#1f2937" font-size="16" font-weight="700">B. 绝对误差（越低越好）</text>
    <line x1="98" y1="540" x2="124" y2="540" stroke="#1d4ed8" stroke-width="2"  />
      <text x="130" y="544" fill="#24312e" font-size="12">持仓分段误差</text>
    <line x1="98" y1="560.00" x2="1292" y2="560.00" stroke="#d7e3df" stroke-width="1" />
      <text x="90" y="564.00" text-anchor="end" fill="#5b6b68" font-size="11">7.60%</text>
<line x1="98" y1="630.00" x2="1292" y2="630.00" stroke="#d7e3df" stroke-width="1" />
      <text x="90" y="634.00" text-anchor="end" fill="#5b6b68" font-size="11">5.70%</text>
<line x1="98" y1="700.00" x2="1292" y2="700.00" stroke="#d7e3df" stroke-width="1" />
      <text x="90" y="704.00" text-anchor="end" fill="#5b6b68" font-size="11">3.80%</text>
<line x1="98" y1="770.00" x2="1292" y2="770.00" stroke="#d7e3df" stroke-width="1" />
      <text x="90" y="774.00" text-anchor="end" fill="#5b6b68" font-size="11">1.90%</text>
<line x1="98" y1="840.00" x2="1292" y2="840.00" stroke="#d7e3df" stroke-width="1" />
      <text x="90" y="844.00" text-anchor="end" fill="#5b6b68" font-size="11">0.00%</text>
    <line x1="98.00" y1="560" x2="98.00" y2="840" stroke="#eef3f1" stroke-width="1" />
      <text x="98.00" y="868" text-anchor="middle" fill="#5b6b68" font-size="11">25-01-02</text>
<line x1="290.04" y1="560" x2="290.04" y2="840" stroke="#eef3f1" stroke-width="1" />
      <text x="290.04" y="868" text-anchor="middle" fill="#5b6b68" font-size="11">25-03-17</text>
<line x1="482.08" y1="560" x2="482.08" y2="840" stroke="#eef3f1" stroke-width="1" />
      <text x="482.08" y="868" text-anchor="middle" fill="#5b6b68" font-size="11">25-05-26</text>
<line x1="695.00" y1="560" x2="695.00" y2="840" stroke="#eef3f1" stroke-width="1" />
      <text x="695.00" y="868" text-anchor="middle" fill="#5b6b68" font-size="11">25-08-06</text>
<line x1="907.92" y1="560" x2="907.92" y2="840" stroke="#eef3f1" stroke-width="1" />
      <text x="907.92" y="868" text-anchor="middle" fill="#5b6b68" font-size="11">25-10-24</text>
<line x1="1099.96" y1="560" x2="1099.96" y2="840" stroke="#eef3f1" stroke-width="1" />
      <text x="1099.96" y="868" text-anchor="middle" fill="#5b6b68" font-size="11">25-12-29</text>
<line x1="1292.00" y1="560" x2="1292.00" y2="840" stroke="#eef3f1" stroke-width="1" />
      <text x="1292.00" y="868" text-anchor="middle" fill="#5b6b68" font-size="11">26-03-13</text>
    <line x1="1112.48" y1="560" x2="1112.48" y2="840" stroke="#f59e0b" stroke-width="1.4" stroke-dasharray="4 4" />
       <text x="1118.48" y="552" fill="#a16207" font-size="11">验证起点</text>
    <path d="M 98.00 819.11 L 102.17 831.38 L 106.35 787.07 L 110.52 776.03 L 114.70 829.82 L 118.87 809.49 L 123.05 797.02 L 127.22 803.40 L 131.40 760.52 L 135.57 821.95 L 139.75 794.35 L 143.92 834.16 L 148.10 814.23 L 152.27 826.14 L 156.45 793.60 L 160.62 836.75 L 164.80 832.75 L 168.97 792.68 L 173.15 768.97 L 177.32 798.83 L 181.50 836.60 L 185.67 828.51 L 189.85 836.95 L 194.02 818.59 L 198.20 832.82 L 202.37 831.84 L 206.55 822.22 L 210.72 822.10 L 214.90 837.93 L 219.07 816.30 L 223.24 831.81 L 227.42 810.28 L 231.59 781.21 L 235.77 829.68 L 239.94 818.36 L 244.12 732.41 L 248.29 774.84 L 252.47 818.28 L 256.64 787.96 L 260.82 794.28 L 264.99 785.37 L 269.17 734.81 L 273.34 822.19 L 277.52 777.40 L 281.69 827.71 L 285.87 824.10 L 290.04 834.55 L 294.22 814.60 L 298.39 825.03 L 302.57 803.26 L 306.74 804.54 L 310.92 839.83 L 315.09 831.95 L 319.27 809.11 L 323.44 815.50 L 327.62 836.91 L 331.79 738.09 L 335.97 828.07 L 340.14 833.15 L 344.31 807.48 L 348.49 837.25 L 352.66 675.76 L 356.84 683.51 L 361.01 590.00 L 365.19 770.68 L 369.36 830.08 L 373.54 825.01 L 377.71 832.81 L 381.89 832.47 L 386.06 793.39 L 390.24 795.66 L 394.41 825.75 L 398.59 837.69 L 402.76 827.56 L 406.94 800.31 L 411.11 807.23 L 415.29 828.06 L 419.46 824.75 L 423.64 838.34 L 427.81 820.39 L 431.99 838.76 L 436.16 835.59 L 440.34 831.61 L 444.51 834.61 L 448.69 810.59 L 452.86 820.53 L 457.03 834.82 L 461.21 800.60 L 465.38 822.88 L 469.56 839.62 L 473.73 807.20 L 477.91 835.32 L 482.08 796.92 L 486.26 827.57 L 490.43 833.72 L 494.61 819.98 L 498.78 834.99 L 502.96 797.95 L 507.13 832.56 L 511.31 835.13 L 515.48 829.29 L 519.66 825.98 L 523.83 838.09 L 528.01 832.74 L 532.18 837.95 L 536.36 813.58 L 540.53 790.57 L 544.71 830.33 L 548.88 826.20 L 553.06 807.54 L 557.23 821.22 L 561.41 782.68 L 565.58 767.63 L 569.76 820.15 L 573.93 809.58 L 578.10 812.89 L 582.28 827.36 L 586.45 801.86 L 590.63 813.68 L 594.80 838.15 L 598.98 838.31 L 603.15 795.85 L 607.33 819.69 L 611.50 826.81 L 615.68 837.05 L 619.85 812.30 L 624.03 827.74 L 628.20 823.02 L 632.38 806.02 L 636.55 816.12 L 640.73 830.94 L 644.90 839.52 L 649.08 837.36 L 653.25 769.28 L 657.43 766.73 L 661.60 787.91 L 665.78 817.93 L 669.95 801.56 L 674.13 837.18 L 678.30 809.82 L 682.48 749.82 L 686.65 822.38 L 690.83 803.43 L 695.00 832.70 L 699.17 826.90 L 703.35 808.10 L 707.52 824.47 L 711.70 811.87 L 715.87 788.84 L 720.05 819.45 L 724.22 827.93 L 728.40 823.32 L 732.57 817.07 L 736.75 788.31 L 740.92 821.42 L 745.10 797.04 L 749.27 771.75 L 753.45 795.23 L 757.62 827.59 L 761.80 807.66 L 765.97 834.08 L 770.15 794.71 L 774.32 833.75 L 778.50 789.23 L 782.67 784.97 L 786.85 811.74 L 791.02 806.59 L 795.20 822.65 L 799.37 827.11 L 803.55 812.63 L 807.72 801.14 L 811.90 827.23 L 816.07 816.77 L 820.24 838.21 L 824.42 823.12 L 828.59 812.84 L 832.77 809.41 L 836.94 829.42 L 841.12 830.19 L 845.29 829.41 L 849.47 787.32 L 853.64 821.68 L 857.82 830.63 L 861.99 712.26 L 866.17 796.81 L 870.34 832.53 L 874.52 745.53 L 878.69 779.44 L 882.87 793.99 L 887.04 809.22 L 891.22 807.74 L 895.39 831.27 L 899.57 832.14 L 903.74 773.12 L 907.92 807.42 L 912.09 785.25 L 916.27 837.19 L 920.44 763.60 L 924.62 814.13 L 928.79 783.06 L 932.97 803.12 L 937.14 797.92 L 941.31 743.34 L 945.49 811.63 L 949.66 810.51 L 953.84 817.52 L 958.01 827.49 L 962.19 834.81 L 966.36 803.49 L 970.54 769.08 L 974.71 784.08 L 978.89 758.97 L 983.06 815.27 L 987.24 792.41 L 991.41 726.13 L 995.59 828.42 L 999.76 825.36 L 1003.94 776.59 L 1008.11 791.80 L 1012.29 838.43 L 1016.46 772.35 L 1020.64 835.01 L 1024.81 804.46 L 1028.99 755.69 L 1033.16 813.98 L 1037.34 829.78 L 1041.51 824.70 L 1045.69 805.42 L 1049.86 821.17 L 1054.03 785.60 L 1058.21 777.01 L 1062.38 813.89 L 1066.56 834.03 L 1070.73 782.54 L 1074.91 797.20 L 1079.08 828.20 L 1083.26 818.18 L 1087.43 838.39 L 1091.61 835.77 L 1095.78 824.80 L 1099.96 809.51 L 1104.13 830.76 L 1108.31 823.75 L 1112.48 806.44 L 1116.66 781.14 L 1120.83 801.26 L 1125.01 769.22 L 1129.18 836.98 L 1133.36 806.46 L 1137.53 742.10 L 1141.71 803.40 L 1145.88 834.77 L 1150.06 824.63 L 1154.23 831.61 L 1158.41 793.69 L 1162.58 811.60 L 1166.76 793.14 L 1170.93 835.60 L 1175.10 818.11 L 1179.28 833.83 L 1183.45 795.06 L 1187.63 824.84 L 1191.80 812.35 L 1195.98 785.58 L 1200.15 732.93 L 1204.33 796.57 L 1208.50 828.33 L 1212.68 798.37 L 1216.85 768.39 L 1221.03 768.12 L 1225.20 794.11 L 1229.38 838.50 L 1233.55 787.65 L 1237.73 740.54 L 1241.90 792.02 L 1246.08 821.68 L 1250.25 827.28 L 1254.43 839.24 L 1258.60 801.50 L 1262.78 678.58 L 1266.95 717.11 L 1271.13 816.84 L 1275.30 606.48 L 1279.48 744.76 L 1283.65 815.10 L 1287.83 831.58 L 1292.00 787.66" fill="none" stroke="#1d4ed8" stroke-width="2"  />
  </g>
</svg>