<?xml version="1.0" encoding="UTF-8"?>
<svg xmlns="http://www.w3.org/2000/svg" width="1360" height="980" viewBox="0 0 1360 980">
  <defs>
    <linearGradient id="bg" x1="0" y1="0" x2="1" y2="1">
      <stop offset="0%" stop-color="#f4efe6" />
      <stop offset="100%" stop-color="#eef5f2" />
    </linearGradient>
  </defs>
  <rect x="0" y="0" width="1360" height="980" fill="url(#bg)" />
  <text x="46" y="36" fill="#1f2937" font-size="31" font-weight="700">513880 离线研究图（持仓逐日估值版）</text>
  <text x="46" y="66" fill="#5b6b68" font-size="13">历史前十大持仓 + 持仓逐日涨跌幅 + USDCNY；双目标 lambda=0.10；披露期数 20；覆盖率均值 92.2%</text>
  <g>
    <text x="54" y="110" fill="#1f2937" font-size="16" font-weight="700">A. 净值拟合（同日对齐，无平移）</text>
    <line x1="98" y1="112" x2="124" y2="112" stroke="#0f766e" stroke-width="2"  />
      <text x="130" y="116" fill="#24312e" font-size="12">真实净值</text>
<line x1="313" y1="112" x2="339" y2="112" stroke="#1d4ed8" stroke-width="2"  />
      <text x="345" y="116" fill="#24312e" font-size="12">持仓分段估值</text>
    <line x1="98" y1="132.00" x2="1292" y2="132.00" stroke="#d7e3df" stroke-width="1" />
      <text x="90" y="136.00" text-anchor="end" fill="#5b6b68" font-size="11">1.897</text>
<line x1="98" y1="209.50" x2="1292" y2="209.50" stroke="#d7e3df" stroke-width="1" />
      <text x="90" y="213.50" text-anchor="end" fill="#5b6b68" font-size="11">1.703</text>
<line x1="98" y1="287.00" x2="1292" y2="287.00" stroke="#d7e3df" stroke-width="1" />
      <text x="90" y="291.00" text-anchor="end" fill="#5b6b68" font-size="11">1.510</text>
<line x1="98" y1="364.50" x2="1292" y2="364.50" stroke="#d7e3df" stroke-width="1" />
      <text x="90" y="368.50" text-anchor="end" fill="#5b6b68" font-size="11">1.316</text>
<line x1="98" y1="442.00" x2="1292" y2="442.00" stroke="#d7e3df" stroke-width="1" />
      <text x="90" y="446.00" text-anchor="end" fill="#5b6b68" font-size="11">1.122</text>
    <line x1="98.00" y1="132" x2="98.00" y2="442" stroke="#eef3f1" stroke-width="1" />
      <text x="98.00" y="470" text-anchor="middle" fill="#5b6b68" font-size="11">25-01-02</text>
<line x1="290.04" y1="132" x2="290.04" y2="442" stroke="#eef3f1" stroke-width="1" />
      <text x="290.04" y="470" text-anchor="middle" fill="#5b6b68" font-size="11">25-03-17</text>
<line x1="482.08" y1="132" x2="482.08" y2="442" stroke="#eef3f1" stroke-width="1" />
      <text x="482.08" y="470" text-anchor="middle" fill="#5b6b68" font-size="11">25-05-26</text>
<line x1="695.00" y1="132" x2="695.00" y2="442" stroke="#eef3f1" stroke-width="1" />
      <text x="695.00" y="470" text-anchor="middle" fill="#5b6b68" font-size="11">25-08-06</text>
<line x1="907.92" y1="132" x2="907.92" y2="442" stroke="#eef3f1" stroke-width="1" />
      <text x="907.92" y="470" text-anchor="middle" fill="#5b6b68" font-size="11">25-10-24</text>
<line x1="1099.96" y1="132" x2="1099.96" y2="442" stroke="#eef3f1" stroke-width="1" />
      <text x="1099.96" y="470" text-anchor="middle" fill="#5b6b68" font-size="11">25-12-29</text>
<line x1="1292.00" y1="132" x2="1292.00" y2="442" stroke="#eef3f1" stroke-width="1" />
      <text x="1292.00" y="470" text-anchor="middle" fill="#5b6b68" font-size="11">26-03-13</text>
    <line x1="1112.48" y1="132" x2="1112.48" y2="442" stroke="#f59e0b" stroke-width="1.4" stroke-dasharray="4 4" />
       <text x="1118.48" y="124" fill="#a16207" font-size="11">验证起点</text>
    <path d="M 98.00 363.91 L 102.17 364.67 L 106.35 373.19 L 110.52 363.87 L 114.70 364.95 L 118.87 370.31 L 123.05 375.11 L 127.22 374.87 L 131.40 383.07 L 135.57 384.75 L 139.75 379.43 L 143.92 377.67 L 148.10 374.71 L 152.27 372.31 L 156.45 365.87 L 160.62 363.35 L 164.80 361.63 L 168.97 367.55 L 173.15 372.31 L 177.32 363.91 L 181.50 361.99 L 185.67 362.23 L 189.85 362.87 L 194.02 363.67 L 198.20 362.39 L 202.37 363.55 L 206.55 360.95 L 210.72 356.92 L 214.90 359.51 L 219.07 363.27 L 223.24 357.40 L 227.42 356.80 L 231.59 364.39 L 235.77 363.95 L 239.94 360.91 L 244.12 376.59 L 248.29 373.23 L 252.47 375.59 L 256.64 376.83 L 260.82 369.67 L 264.99 378.71 L 269.17 374.75 L 273.34 374.31 L 277.52 379.79 L 281.69 379.39 L 285.87 375.03 L 290.04 373.47 L 294.22 370.19 L 298.39 371.19 L 302.57 367.95 L 306.74 369.19 L 310.92 372.43 L 315.09 374.19 L 319.27 368.23 L 323.44 373.31 L 327.62 380.43 L 331.79 394.47 L 335.97 397.91 L 340.14 394.75 L 344.31 403.75 L 348.49 436.94 L 352.66 423.98 L 356.84 434.98 L 361.01 401.51 L 365.19 405.02 L 369.36 396.95 L 373.54 391.31 L 377.71 396.27 L 381.89 386.15 L 386.06 382.95 L 390.24 386.79 L 394.41 384.83 L 398.59 380.35 L 402.76 380.91 L 406.94 370.55 L 411.11 372.31 L 415.29 367.51 L 419.46 364.67 L 423.64 359.24 L 427.81 359.00 L 431.99 356.40 L 436.16 358.28 L 440.34 354.40 L 444.51 356.88 L 448.69 357.16 L 452.86 357.32 L 457.03 354.24 L 461.21 356.92 L 465.38 355.12 L 469.56 356.04 L 473.73 359.47 L 477.91 356.44 L 482.08 348.68 L 486.26 345.08 L 490.43 349.80 L 494.61 344.28 L 498.78 346.56 L 502.96 349.28 L 507.13 348.84 L 511.31 348.12 L 515.48 348.84 L 519.66 347.20 L 523.83 345.64 L 528.01 344.28 L 532.18 345.16 L 536.36 347.24 L 540.53 343.72 L 544.71 341.44 L 548.88 338.88 L 553.06 342.40 L 557.23 345.88 L 561.41 349.48 L 565.58 343.12 L 569.76 337.76 L 573.93 329.84 L 578.10 318.80 L 582.28 313.41 L 586.45 319.92 L 590.63 320.36 L 594.80 321.32 L 598.98 324.88 L 603.15 326.76 L 607.33 329.88 L 611.50 331.48 L 615.68 331.36 L 619.85 334.16 L 624.03 338.72 L 628.20 338.76 L 632.38 342.08 L 636.55 335.80 L 640.73 338.76 L 644.90 338.84 L 649.08 337.00 L 653.25 313.61 L 657.43 304.17 L 661.60 312.45 L 665.78 320.44 L 669.95 327.80 L 674.13 328.00 L 678.30 324.04 L 682.48 333.04 L 686.65 328.20 L 690.83 323.68 L 695.00 322.84 L 699.17 318.52 L 703.35 306.29 L 707.52 308.05 L 711.70 297.85 L 715.87 289.53 L 720.05 295.33 L 724.22 287.89 L 728.40 281.89 L 732.57 286.05 L 736.75 294.01 L 740.92 296.33 L 745.10 300.37 L 749.27 295.33 L 753.45 302.65 L 757.62 300.41 L 761.80 295.05 L 765.97 296.29 L 770.15 304.65 L 774.32 302.57 L 778.50 312.37 L 782.67 302.37 L 786.85 298.09 L 791.02 289.33 L 795.20 287.77 L 799.37 283.21 L 803.55 275.57 L 807.72 270.69 L 811.90 272.09 L 816.07 269.50 L 820.24 266.90 L 824.42 260.78 L 828.59 269.50 L 832.77 263.06 L 836.94 262.22 L 841.12 260.22 L 845.29 260.98 L 849.47 270.57 L 853.64 270.89 L 857.82 268.82 L 861.99 235.58 L 866.17 244.42 L 870.34 241.18 L 874.52 257.66 L 878.69 244.38 L 882.87 233.82 L 887.04 240.98 L 891.22 219.47 L 895.39 219.75 L 899.57 222.91 L 903.74 233.46 L 907.92 227.10 L 912.09 213.47 L 916.27 216.15 L 920.44 198.87 L 924.62 201.87 L 928.79 192.23 L 932.97 192.67 L 937.14 202.71 L 941.31 216.99 L 945.49 212.07 L 949.66 213.59 L 953.84 210.99 L 958.01 213.43 L 962.19 211.11 L 966.36 210.71 L 970.54 221.51 L 974.71 222.75 L 978.89 245.62 L 983.06 247.98 L 987.24 237.58 L 991.41 253.90 L 995.59 251.18 L 999.76 254.10 L 1003.94 240.10 L 1008.11 234.42 L 1012.29 232.82 L 1016.46 243.78 L 1020.64 241.34 L 1024.81 236.78 L 1028.99 220.19 L 1033.16 225.34 L 1037.34 223.95 L 1041.51 226.42 L 1045.69 231.66 L 1049.86 233.42 L 1054.03 222.79 L 1058.21 232.62 L 1062.38 239.78 L 1066.56 238.70 L 1070.73 248.26 L 1074.91 242.22 L 1079.08 239.42 L 1083.26 236.34 L 1087.43 234.90 L 1091.61 234.22 L 1095.78 229.50 L 1099.96 234.62 L 1104.13 235.22 L 1108.31 237.66 L 1112.48 220.47 L 1116.66 211.35 L 1120.83 218.91 L 1125.01 228.54 L 1129.18 220.15 L 1133.36 222.75 L 1137.53 205.15 L 1141.71 198.39 L 1145.88 201.19 L 1150.06 203.51 L 1154.23 204.67 L 1158.41 215.19 L 1162.58 217.59 L 1166.76 205.19 L 1170.93 205.31 L 1175.10 204.95 L 1179.28 195.23 L 1183.45 190.15 L 1187.63 190.11 L 1191.80 190.15 L 1195.98 205.79 L 1200.15 181.99 L 1204.33 189.83 L 1208.50 199.91 L 1212.68 194.67 L 1216.85 170.80 L 1221.03 151.48 L 1225.20 143.88 L 1229.38 137.12 L 1233.55 145.20 L 1237.73 147.36 L 1241.90 138.56 L 1246.08 139.44 L 1250.25 137.96 L 1254.43 151.16 L 1258.60 174.72 L 1262.78 202.55 L 1266.95 186.87 L 1271.13 185.91 L 1275.30 224.71 L 1279.48 205.07 L 1283.65 198.39 L 1287.83 207.67 L 1292.00 217.59" fill="none" stroke="#0f766e" stroke-width="2"  />
<path d="M 98.00 362.60 L 102.17 363.02 L 106.35 364.38 L 110.52 373.17 L 114.70 363.65 L 118.87 364.66 L 123.05 370.13 L 127.22 375.41 L 131.40 374.72 L 135.57 381.96 L 139.75 385.31 L 143.92 378.44 L 148.10 378.40 L 152.27 374.78 L 156.45 372.19 L 160.62 364.67 L 164.80 362.39 L 168.97 361.87 L 173.15 360.95 L 177.32 371.54 L 181.50 365.83 L 185.67 363.20 L 189.85 361.66 L 194.02 363.18 L 198.20 360.98 L 202.37 362.25 L 206.55 364.85 L 210.72 360.57 L 214.90 357.16 L 219.07 359.41 L 223.24 363.87 L 227.42 358.39 L 231.59 354.27 L 235.77 364.11 L 239.94 363.88 L 244.12 361.03 L 248.29 376.30 L 252.47 373.90 L 256.64 372.09 L 260.82 377.40 L 264.99 368.69 L 269.17 386.16 L 273.34 375.17 L 277.52 371.32 L 281.69 379.93 L 285.87 377.08 L 290.04 372.92 L 294.22 373.53 L 298.39 368.56 L 302.57 371.36 L 306.74 367.62 L 310.92 368.63 L 315.09 371.72 L 319.27 374.73 L 323.44 368.03 L 327.62 375.80 L 331.79 380.42 L 335.97 394.62 L 340.14 397.68 L 344.31 399.45 L 348.49 438.73 L 352.66 436.52 L 356.84 414.14 L 361.01 439.75 L 365.19 398.31 L 369.36 397.52 L 373.54 396.02 L 377.71 392.47 L 381.89 393.36 L 386.06 385.85 L 390.24 380.47 L 394.41 383.07 L 398.59 383.04 L 402.76 379.16 L 406.94 379.88 L 411.11 366.51 L 415.29 371.55 L 419.46 367.68 L 423.64 362.77 L 427.81 359.24 L 431.99 357.11 L 436.16 355.72 L 440.34 353.92 L 444.51 354.88 L 448.69 358.41 L 452.86 355.67 L 457.03 356.47 L 461.21 352.48 L 465.38 356.01 L 469.56 355.53 L 473.73 355.45 L 477.91 358.59 L 482.08 355.51 L 486.26 348.25 L 490.43 347.17 L 494.61 348.99 L 498.78 343.47 L 502.96 344.96 L 507.13 349.06 L 511.31 349.13 L 515.48 346.94 L 519.66 347.57 L 523.83 346.72 L 528.01 345.36 L 532.18 343.38 L 536.36 345.30 L 540.53 346.55 L 544.71 344.11 L 548.88 340.14 L 553.06 338.55 L 557.23 342.14 L 561.41 344.34 L 565.58 348.66 L 569.76 343.17 L 573.93 334.52 L 578.10 326.70 L 582.28 317.98 L 586.45 313.47 L 590.63 319.36 L 594.80 319.11 L 598.98 320.94 L 603.15 324.04 L 607.33 325.70 L 611.50 329.23 L 615.68 331.48 L 619.85 331.47 L 624.03 333.53 L 628.20 339.04 L 632.38 338.14 L 636.55 341.18 L 640.73 336.13 L 644.90 337.96 L 649.08 338.11 L 653.25 329.97 L 657.43 312.99 L 661.60 304.52 L 665.78 318.46 L 669.95 320.51 L 674.13 326.97 L 678.30 327.60 L 682.48 322.55 L 686.65 333.35 L 690.83 327.86 L 695.00 321.00 L 699.17 321.87 L 703.35 315.03 L 707.52 306.69 L 711.70 304.27 L 715.87 297.57 L 720.05 289.61 L 724.22 291.51 L 728.40 288.22 L 732.57 281.55 L 736.75 286.00 L 740.92 294.76 L 745.10 292.71 L 749.27 302.91 L 753.45 295.09 L 757.62 302.73 L 761.80 299.44 L 765.97 297.35 L 770.15 295.56 L 774.32 304.28 L 778.50 302.44 L 782.67 310.81 L 786.85 301.29 L 791.02 287.77 L 795.20 291.80 L 799.37 286.97 L 803.55 281.25 L 807.72 275.93 L 811.90 270.42 L 816.07 271.88 L 820.24 269.37 L 824.42 265.51 L 828.59 261.25 L 832.77 269.30 L 836.94 262.82 L 841.12 261.91 L 845.29 260.11 L 849.47 260.27 L 853.64 270.05 L 857.82 270.94 L 861.99 259.47 L 866.17 243.80 L 870.34 239.02 L 874.52 239.66 L 878.69 254.81 L 882.87 243.86 L 887.04 232.61 L 891.22 230.94 L 895.39 220.16 L 899.57 219.47 L 903.74 222.26 L 907.92 232.65 L 912.09 223.71 L 916.27 213.05 L 920.44 216.83 L 924.62 197.80 L 928.79 201.20 L 932.97 188.28 L 937.14 193.03 L 941.31 202.12 L 945.49 216.58 L 949.66 210.98 L 953.84 210.33 L 958.01 210.58 L 962.19 212.01 L 966.36 214.45 L 970.54 207.66 L 974.71 225.37 L 978.89 226.57 L 983.06 245.40 L 987.24 250.85 L 991.41 233.32 L 995.59 250.97 L 999.76 250.87 L 1003.94 251.33 L 1008.11 239.99 L 1012.29 234.36 L 1016.46 230.47 L 1020.64 243.64 L 1024.81 241.02 L 1028.99 234.16 L 1033.16 219.65 L 1037.34 224.33 L 1041.51 223.14 L 1045.69 225.21 L 1049.86 231.04 L 1054.03 233.31 L 1058.21 220.99 L 1062.38 238.89 L 1066.56 240.59 L 1070.73 238.11 L 1074.91 248.89 L 1079.08 241.48 L 1083.26 238.37 L 1087.43 236.33 L 1091.61 234.64 L 1095.78 233.96 L 1099.96 228.50 L 1104.13 234.34 L 1108.31 235.08 L 1112.48 220.20 L 1116.66 220.18 L 1120.83 210.78 L 1125.01 218.39 L 1129.18 224.57 L 1133.36 219.48 L 1137.53 223.08 L 1141.71 203.95 L 1145.88 197.40 L 1150.06 200.47 L 1154.23 203.58 L 1158.41 204.35 L 1162.58 212.66 L 1166.76 216.89 L 1170.93 205.38 L 1175.10 204.88 L 1179.28 202.45 L 1183.45 195.63 L 1187.63 188.44 L 1191.80 189.55 L 1195.98 190.16 L 1200.15 203.23 L 1204.33 180.58 L 1208.50 191.96 L 1212.68 192.20 L 1216.85 188.48 L 1221.03 166.96 L 1225.20 149.93 L 1229.38 143.90 L 1233.55 135.77 L 1237.73 160.37 L 1241.90 143.82 L 1246.08 138.26 L 1250.25 138.66 L 1254.43 147.62 L 1258.60 158.12 L 1262.78 170.58 L 1266.95 208.12 L 1271.13 187.60 L 1275.30 184.76 L 1279.48 223.45 L 1283.65 205.32 L 1287.83 201.17 L 1292.00 207.84" fill="none" stroke="#1d4ed8" stroke-width="2"  />
  </g>
  <g>
    <text x="54" y="538" fill="#1f2937" font-size="16" font-weight="700">B. 绝对误差（越低越好）</text>
    <line x1="98" y1="540" x2="124" y2="540" stroke="#1d4ed8" stroke-width="2"  />
      <text x="130" y="544" fill="#24312e" font-size="12">持仓分段误差</text>
    <line x1="98" y1="560.00" x2="1292" y2="560.00" stroke="#d7e3df" stroke-width="1" />
      <text x="90" y="564.00" text-anchor="end" fill="#5b6b68" font-size="11">8.75%</text>
<line x1="98" y1="630.00" x2="1292" y2="630.00" stroke="#d7e3df" stroke-width="1" />
      <text x="90" y="634.00" text-anchor="end" fill="#5b6b68" font-size="11">6.57%</text>
<line x1="98" y1="700.00" x2="1292" y2="700.00" stroke="#d7e3df" stroke-width="1" />
      <text x="90" y="704.00" text-anchor="end" fill="#5b6b68" font-size="11">4.38%</text>
<line x1="98" y1="770.00" x2="1292" y2="770.00" stroke="#d7e3df" stroke-width="1" />
      <text x="90" y="774.00" text-anchor="end" fill="#5b6b68" font-size="11">2.19%</text>
<line x1="98" y1="840.00" x2="1292" y2="840.00" stroke="#d7e3df" stroke-width="1" />
      <text x="90" y="844.00" text-anchor="end" fill="#5b6b68" font-size="11">0.00%</text>
    <line x1="98.00" y1="560" x2="98.00" y2="840" stroke="#eef3f1" stroke-width="1" />
      <text x="98.00" y="868" text-anchor="middle" fill="#5b6b68" font-size="11">25-01-02</text>
<line x1="290.04" y1="560" x2="290.04" y2="840" stroke="#eef3f1" stroke-width="1" />
      <text x="290.04" y="868" text-anchor="middle" fill="#5b6b68" font-size="11">25-03-17</text>
<line x1="482.08" y1="560" x2="482.08" y2="840" stroke="#eef3f1" stroke-width="1" />
      <text x="482.08" y="868" text-anchor="middle" fill="#5b6b68" font-size="11">25-05-26</text>
<line x1="695.00" y1="560" x2="695.00" y2="840" stroke="#eef3f1" stroke-width="1" />
      <text x="695.00" y="868" text-anchor="middle" fill="#5b6b68" font-size="11">25-08-06</text>
<line x1="907.92" y1="560" x2="907.92" y2="840" stroke="#eef3f1" stroke-width="1" />
      <text x="907.92" y="868" text-anchor="middle" fill="#5b6b68" font-size="11">25-10-24</text>
<line x1="1099.96" y1="560" x2="1099.96" y2="840" stroke="#eef3f1" stroke-width="1" />
      <text x="1099.96" y="868" text-anchor="middle" fill="#5b6b68" font-size="11">25-12-29</text>
<line x1="1292.00" y1="560" x2="1292.00" y2="840" stroke="#eef3f1" stroke-width="1" />
      <text x="1292.00" y="868" text-anchor="middle" fill="#5b6b68" font-size="11">26-03-13</text>
    <line x1="1112.48" y1="560" x2="1112.48" y2="840" stroke="#f59e0b" stroke-width="1.4" stroke-dasharray="4 4" />
       <text x="1118.48" y="552" fill="#a16207" font-size="11">验证起点</text>
    <path d="M 98.00 832.02 L 102.17 829.93 L 106.35 785.52 L 110.52 783.59 L 114.70 832.09 L 118.87 805.25 L 123.05 809.11 L 127.22 836.64 L 131.40 787.40 L 135.57 822.36 L 139.75 803.21 L 143.92 835.21 L 148.10 817.16 L 152.27 824.79 L 156.45 801.53 L 160.62 832.01 L 164.80 835.45 L 168.97 805.28 L 173.15 769.92 L 177.32 793.69 L 181.50 816.83 L 185.67 834.13 L 189.85 832.63 L 194.02 836.99 L 198.20 831.42 L 202.37 832.09 L 206.55 816.48 L 210.72 818.12 L 214.90 825.80 L 219.07 816.55 L 223.24 801.18 L 227.42 830.45 L 231.59 778.48 L 235.77 839.07 L 239.94 822.12 L 244.12 743.21 L 248.29 821.06 L 252.47 829.49 L 256.64 810.47 L 260.82 792.58 L 264.99 777.43 L 269.17 769.25 L 273.34 834.70 L 277.52 787.01 L 281.69 836.62 L 285.87 827.27 L 290.04 836.61 L 294.22 819.52 L 298.39 823.78 L 302.57 819.18 L 306.74 830.36 L 310.92 816.51 L 315.09 824.69 L 319.27 800.22 L 323.44 807.38 L 327.62 810.95 L 331.79 749.46 L 335.97 818.69 L 340.14 821.11 L 344.31 811.82 L 348.49 827.34 L 352.66 754.11 L 356.84 693.77 L 361.01 590.00 L 365.19 795.77 L 369.36 836.31 L 373.54 809.84 L 377.71 815.43 L 381.89 794.31 L 386.06 821.73 L 390.24 799.90 L 394.41 828.87 L 398.59 823.15 L 402.76 829.02 L 406.94 782.65 L 411.11 804.23 L 415.29 815.32 L 419.46 821.71 L 423.64 818.71 L 427.81 838.53 L 431.99 835.71 L 436.16 824.68 L 440.34 837.18 L 444.51 828.03 L 448.69 832.47 L 452.86 830.15 L 457.03 826.68 L 461.21 813.44 L 465.38 834.67 L 469.56 836.96 L 473.73 815.79 L 477.91 827.09 L 482.08 799.70 L 486.26 821.41 L 490.43 824.45 L 494.61 812.44 L 498.78 821.84 L 502.96 814.50 L 507.13 838.67 L 511.31 834.01 L 515.48 828.80 L 519.66 837.78 L 523.83 833.63 L 528.01 833.67 L 532.18 829.60 L 536.36 828.58 L 540.53 823.46 L 544.71 824.47 L 548.88 832.70 L 553.06 817.53 L 557.23 818.04 L 561.41 809.65 L 565.58 807.63 L 569.76 808.70 L 573.93 813.33 L 578.10 795.82 L 582.28 814.64 L 586.45 803.83 L 590.63 834.38 L 594.80 827.54 L 598.98 817.69 L 603.15 824.57 L 607.33 816.18 L 611.50 827.12 L 615.68 839.34 L 619.85 824.57 L 624.03 809.95 L 628.20 838.40 L 632.38 817.03 L 636.55 809.02 L 640.73 824.75 L 644.90 834.90 L 649.08 833.60 L 653.25 749.31 L 657.43 791.89 L 661.60 796.19 L 665.78 828.87 L 669.95 798.56 L 674.13 834.13 L 678.30 819.91 L 682.48 779.83 L 686.65 810.72 L 690.83 816.44 L 695.00 829.65 L 699.17 821.28 L 703.35 792.17 L 707.52 832.53 L 711.70 805.37 L 715.87 797.25 L 720.05 809.25 L 724.22 820.78 L 728.40 806.76 L 732.57 816.18 L 736.75 797.08 L 740.92 831.53 L 745.10 798.50 L 749.27 799.26 L 753.45 798.90 L 757.62 827.42 L 761.80 816.42 L 765.97 834.29 L 770.15 790.41 L 774.32 830.70 L 778.50 785.13 L 782.67 794.12 L 786.85 822.75 L 791.02 831.71 L 795.20 818.65 L 799.37 820.20 L 803.55 810.48 L 807.72 812.98 L 811.90 831.34 L 816.07 827.70 L 820.24 827.30 L 824.42 815.97 L 828.59 797.55 L 832.77 808.18 L 836.94 836.94 L 841.12 831.43 L 845.29 835.62 L 849.47 786.86 L 853.64 835.62 L 857.82 829.07 L 861.99 723.36 L 866.17 836.91 L 870.34 829.35 L 874.52 749.10 L 878.69 788.37 L 882.87 791.14 L 887.04 798.79 L 891.22 785.35 L 895.39 838.04 L 899.57 823.53 L 903.74 785.50 L 907.92 813.30 L 912.09 791.62 L 916.27 825.31 L 920.44 756.97 L 924.62 821.09 L 928.79 798.92 L 932.97 819.87 L 937.14 794.99 L 941.31 769.42 L 945.49 818.73 L 949.66 827.66 L 953.84 836.90 L 958.01 826.53 L 962.19 835.76 L 966.36 822.42 L 970.54 773.82 L 974.71 827.45 L 978.89 745.57 L 983.06 827.14 L 987.24 775.04 L 991.41 736.63 L 995.59 838.96 L 999.76 823.78 L 1003.94 784.82 L 1008.11 812.86 L 1012.29 832.54 L 1016.46 774.18 L 1020.64 828.67 L 1024.81 819.29 L 1028.99 773.34 L 1033.16 812.62 L 1037.34 838.18 L 1041.51 824.18 L 1045.69 808.71 L 1049.86 828.43 L 1054.03 789.61 L 1058.21 783.45 L 1062.38 835.60 L 1066.56 830.73 L 1070.73 789.47 L 1074.91 807.09 L 1079.08 829.87 L 1083.26 830.07 L 1087.43 833.06 L 1091.61 837.95 L 1095.78 818.44 L 1099.96 810.14 L 1104.13 835.69 L 1108.31 827.37 L 1112.48 838.73 L 1116.66 798.41 L 1120.83 801.32 L 1125.01 790.96 L 1129.18 818.91 L 1133.36 824.37 L 1137.53 756.33 L 1141.71 814.34 L 1145.88 822.40 L 1150.06 825.84 L 1154.23 834.91 L 1158.41 788.70 L 1162.58 816.61 L 1166.76 785.42 L 1170.93 839.66 L 1175.10 839.69 L 1179.28 806.82 L 1183.45 815.00 L 1187.63 832.37 L 1191.80 837.24 L 1195.98 767.00 L 1200.15 744.17 L 1204.33 797.76 L 1208.50 803.20 L 1212.68 828.62 L 1216.85 761.43 L 1221.03 773.01 L 1225.20 814.09 L 1229.38 811.24 L 1233.55 799.55 L 1237.73 784.04 L 1241.90 817.66 L 1246.08 834.94 L 1250.25 837.03 L 1254.43 824.69 L 1258.60 765.86 L 1262.78 691.42 L 1266.95 743.44 L 1271.13 832.37 L 1275.30 648.18 L 1279.48 754.27 L 1283.65 807.98 L 1287.83 809.55 L 1292.00 793.67" fill="none" stroke="#1d4ed8" stroke-width="2"  />
  </g>
</svg>