<?xml version="1.0" encoding="UTF-8"?>
<svg xmlns="http://www.w3.org/2000/svg" width="1360" height="980" viewBox="0 0 1360 980">
  <defs>
    <linearGradient id="bg" x1="0" y1="0" x2="1" y2="1">
      <stop offset="0%" stop-color="#f4efe6" />
      <stop offset="100%" stop-color="#eef5f2" />
    </linearGradient>
  </defs>
  <rect x="0" y="0" width="1360" height="980" fill="url(#bg)" />
  <text x="46" y="36" fill="#1f2937" font-size="31" font-weight="700">513850 离线研究图（持仓逐日估值版）</text>
  <text x="46" y="66" fill="#5b6b68" font-size="13">历史前十大持仓 + 持仓逐日涨跌幅 + USDCNY；双目标 lambda=0.10；披露期数 8；覆盖率均值 91.9%</text>
  <g>
    <text x="54" y="110" fill="#1f2937" font-size="16" font-weight="700">A. 净值拟合（同日对齐，无平移）</text>
    <line x1="98" y1="112" x2="124" y2="112" stroke="#0f766e" stroke-width="2"  />
      <text x="130" y="116" fill="#24312e" font-size="12">真实净值</text>
<line x1="313" y1="112" x2="339" y2="112" stroke="#1d4ed8" stroke-width="2"  />
      <text x="345" y="116" fill="#24312e" font-size="12">持仓分段估值</text>
    <line x1="98" y1="132.00" x2="1292" y2="132.00" stroke="#d7e3df" stroke-width="1" />
      <text x="90" y="136.00" text-anchor="end" fill="#5b6b68" font-size="11">1.662</text>
<line x1="98" y1="209.50" x2="1292" y2="209.50" stroke="#d7e3df" stroke-width="1" />
      <text x="90" y="213.50" text-anchor="end" fill="#5b6b68" font-size="11">1.525</text>
<line x1="98" y1="287.00" x2="1292" y2="287.00" stroke="#d7e3df" stroke-width="1" />
      <text x="90" y="291.00" text-anchor="end" fill="#5b6b68" font-size="11">1.389</text>
<line x1="98" y1="364.50" x2="1292" y2="364.50" stroke="#d7e3df" stroke-width="1" />
      <text x="90" y="368.50" text-anchor="end" fill="#5b6b68" font-size="11">1.253</text>
<line x1="98" y1="442.00" x2="1292" y2="442.00" stroke="#d7e3df" stroke-width="1" />
      <text x="90" y="446.00" text-anchor="end" fill="#5b6b68" font-size="11">1.117</text>
    <line x1="98.00" y1="132" x2="98.00" y2="442" stroke="#eef3f1" stroke-width="1" />
      <text x="98.00" y="470" text-anchor="middle" fill="#5b6b68" font-size="11">25-01-02</text>
<line x1="290.72" y1="132" x2="290.72" y2="442" stroke="#eef3f1" stroke-width="1" />
      <text x="290.72" y="470" text-anchor="middle" fill="#5b6b68" font-size="11">25-03-17</text>
<line x1="479.24" y1="132" x2="479.24" y2="442" stroke="#eef3f1" stroke-width="1" />
      <text x="479.24" y="470" text-anchor="middle" fill="#5b6b68" font-size="11">25-05-23</text>
<line x1="697.09" y1="132" x2="697.09" y2="442" stroke="#eef3f1" stroke-width="1" />
      <text x="697.09" y="470" text-anchor="middle" fill="#5b6b68" font-size="11">25-08-06</text>
<line x1="910.76" y1="132" x2="910.76" y2="442" stroke="#eef3f1" stroke-width="1" />
      <text x="910.76" y="470" text-anchor="middle" fill="#5b6b68" font-size="11">25-10-24</text>
<line x1="1099.28" y1="132" x2="1099.28" y2="442" stroke="#eef3f1" stroke-width="1" />
      <text x="1099.28" y="470" text-anchor="middle" fill="#5b6b68" font-size="11">25-12-26</text>
<line x1="1292.00" y1="132" x2="1292.00" y2="442" stroke="#eef3f1" stroke-width="1" />
      <text x="1292.00" y="470" text-anchor="middle" fill="#5b6b68" font-size="11">26-03-12</text>
    <line x1="1116.04" y1="132" x2="1116.04" y2="442" stroke="#f59e0b" stroke-width="1.4" stroke-dasharray="4 4" />
       <text x="1122.04" y="124" fill="#a16207" font-size="11">验证起点</text>
    <path d="M 98.00 297.75 L 102.19 286.65 L 106.38 278.91 L 110.57 291.49 L 114.76 290.98 L 118.95 290.98 L 123.14 302.81 L 127.33 304.06 L 131.52 306.97 L 135.71 289.04 L 139.89 296.95 L 144.08 286.82 L 148.27 286.88 L 152.46 283.92 L 156.65 274.59 L 160.84 270.55 L 165.03 273.73 L 169.22 291.32 L 173.41 280.73 L 177.60 276.29 L 181.79 286.31 L 185.98 279.71 L 190.17 279.14 L 194.36 280.33 L 198.55 270.60 L 202.74 269.46 L 206.93 269.58 L 211.12 270.94 L 215.31 268.27 L 219.49 271.97 L 223.68 287.22 L 227.87 293.19 L 232.06 299.74 L 236.25 299.00 L 240.44 315.84 L 244.63 302.13 L 248.82 319.88 L 253.01 326.31 L 257.20 317.09 L 261.39 333.65 L 265.58 330.35 L 269.77 356.42 L 273.96 359.55 L 278.15 352.77 L 282.34 365.58 L 286.53 349.08 L 290.72 348.56 L 294.91 358.75 L 299.09 349.59 L 303.28 350.38 L 307.47 346.40 L 311.66 331.61 L 315.85 328.59 L 320.04 341.85 L 324.23 344.35 L 328.42 361.71 L 332.61 358.81 L 336.80 354.99 L 340.99 350.50 L 345.18 387.20 L 349.37 426.81 L 353.56 436.65 L 357.75 367.29 L 361.94 393.80 L 366.13 379.86 L 370.32 376.16 L 374.51 377.19 L 378.69 396.88 L 382.88 398.58 L 387.07 398.70 L 391.26 415.83 L 395.45 398.30 L 399.64 383.67 L 403.83 367.80 L 408.02 358.18 L 412.21 359.38 L 416.40 356.02 L 420.59 356.02 L 424.78 350.78 L 428.97 348.28 L 433.16 343.21 L 437.35 343.50 L 441.54 315.84 L 445.73 308.16 L 449.92 303.67 L 454.11 303.67 L 458.29 299.62 L 462.48 299.51 L 466.67 303.04 L 470.86 313.17 L 475.05 312.20 L 479.24 319.43 L 483.43 320.34 L 487.62 302.41 L 491.81 305.32 L 496.00 301.33 L 500.19 302.58 L 504.38 293.65 L 508.57 291.89 L 512.76 298.77 L 516.95 289.78 L 521.14 287.79 L 525.33 282.55 L 529.52 285.63 L 533.71 282.50 L 537.89 291.26 L 542.08 282.78 L 546.27 289.61 L 550.46 290.01 L 554.65 290.35 L 558.84 294.62 L 563.03 286.31 L 567.22 277.66 L 571.41 274.07 L 575.60 268.04 L 579.79 263.66 L 583.98 259.96 L 588.17 266.34 L 592.36 260.47 L 596.55 252.91 L 600.74 252.79 L 604.93 260.25 L 609.12 261.61 L 613.31 254.84 L 617.49 253.76 L 621.68 255.18 L 625.87 254.21 L 630.06 252.56 L 634.25 249.55 L 638.44 246.76 L 642.63 246.30 L 646.82 242.55 L 651.01 247.21 L 655.20 241.01 L 659.39 239.02 L 663.58 235.78 L 667.77 232.36 L 671.96 235.09 L 676.15 235.09 L 680.34 234.35 L 684.53 250.86 L 688.72 238.79 L 692.91 243.29 L 697.09 232.48 L 701.28 233.67 L 705.47 223.60 L 709.66 225.53 L 713.85 216.43 L 718.04 217.62 L 722.23 214.78 L 726.42 215.86 L 730.61 216.54 L 734.80 226.62 L 738.99 230.37 L 743.18 234.87 L 747.37 221.95 L 751.56 225.19 L 755.75 220.53 L 759.94 219.62 L 764.13 216.14 L 768.32 224.40 L 772.51 223.94 L 776.69 229.46 L 780.88 220.01 L 785.07 212.79 L 789.26 216.43 L 793.45 214.15 L 797.64 209.49 L 801.83 203.28 L 806.02 199.47 L 810.21 195.94 L 814.40 187.41 L 818.59 187.81 L 822.78 190.71 L 826.97 187.35 L 831.16 179.10 L 835.35 173.52 L 839.54 182.97 L 843.73 185.13 L 847.92 188.20 L 852.11 184.79 L 856.29 183.88 L 860.48 179.78 L 864.67 168.46 L 868.86 195.77 L 873.05 180.24 L 877.24 185.93 L 881.43 181.20 L 885.62 185.24 L 889.81 180.64 L 894.00 170.34 L 898.19 172.73 L 902.38 177.62 L 906.57 173.07 L 910.76 163.51 L 914.95 149.68 L 919.14 142.00 L 923.33 136.70 L 927.52 148.48 L 931.71 145.18 L 935.89 141.83 L 940.08 154.57 L 944.27 152.75 L 948.46 165.50 L 952.65 168.29 L 956.84 149.17 L 961.03 147.97 L 965.22 149.22 L 969.41 166.24 L 973.60 165.78 L 977.79 172.21 L 981.98 182.29 L 986.17 176.82 L 990.36 190.42 L 994.55 185.47 L 998.74 167.21 L 1002.93 161.40 L 1007.12 155.71 L 1011.31 155.88 L 1015.49 151.61 L 1019.68 155.77 L 1023.87 153.15 L 1028.06 153.49 L 1032.25 152.64 L 1036.44 150.19 L 1040.63 152.01 L 1044.82 152.35 L 1049.01 149.22 L 1053.20 150.93 L 1057.39 162.43 L 1061.58 164.99 L 1065.77 165.95 L 1069.96 179.95 L 1074.15 170.28 L 1078.34 160.43 L 1082.53 154.91 L 1086.72 148.54 L 1090.91 146.38 L 1095.09 147.40 L 1099.28 148.20 L 1103.47 152.41 L 1107.66 153.15 L 1111.85 159.86 L 1116.04 158.16 L 1120.23 156.56 L 1124.42 155.88 L 1128.61 157.93 L 1132.80 153.61 L 1136.99 151.90 L 1141.18 154.52 L 1145.37 162.99 L 1149.56 163.34 L 1153.75 163.22 L 1157.94 163.56 L 1162.13 185.93 L 1166.32 177.39 L 1170.51 170.45 L 1174.69 167.89 L 1178.88 163.73 L 1183.07 158.73 L 1187.26 159.86 L 1191.45 162.37 L 1195.64 166.24 L 1199.83 161.17 L 1204.02 171.99 L 1208.21 181.43 L 1212.40 193.84 L 1216.59 177.16 L 1220.78 172.55 L 1224.97 178.25 L 1229.16 180.69 L 1233.35 196.06 L 1237.54 202.60 L 1241.73 191.79 L 1245.92 183.03 L 1250.11 194.29 L 1254.29 200.32 L 1258.48 198.79 L 1262.67 207.89 L 1266.86 199.47 L 1271.05 204.54 L 1275.24 216.14 L 1279.43 204.48 L 1283.62 205.56 L 1287.81 205.16 L 1292.00 217.74" fill="none" stroke="#0f766e" stroke-width="2"  />
<path d="M 98.00 296.50 L 102.19 285.79 L 106.38 282.58 L 110.57 286.59 L 114.76 291.88 L 118.95 291.74 L 123.14 292.11 L 127.33 303.68 L 131.52 304.32 L 135.71 294.91 L 139.89 287.08 L 144.08 290.14 L 148.27 287.03 L 152.46 289.39 L 156.65 280.71 L 160.84 269.73 L 165.03 272.53 L 169.22 282.43 L 173.41 286.51 L 177.60 276.43 L 181.79 281.36 L 185.98 284.84 L 190.17 278.30 L 194.36 279.49 L 198.55 274.47 L 202.74 269.46 L 206.93 270.25 L 211.12 269.98 L 215.31 269.79 L 219.49 269.43 L 223.68 282.49 L 227.87 290.45 L 232.06 295.48 L 236.25 300.45 L 240.44 310.04 L 244.63 306.45 L 248.82 310.52 L 253.01 329.84 L 257.20 321.60 L 261.39 328.60 L 265.58 334.24 L 269.77 348.32 L 273.96 362.86 L 278.15 356.84 L 282.34 359.28 L 286.53 353.24 L 290.72 345.84 L 294.91 355.84 L 299.09 352.22 L 303.28 348.23 L 307.47 349.24 L 311.66 336.25 L 315.85 327.16 L 320.04 335.76 L 324.23 345.31 L 328.42 358.98 L 332.61 364.04 L 336.80 355.71 L 340.99 351.74 L 345.18 383.38 L 349.37 434.95 L 353.56 438.81 L 357.75 368.87 L 361.94 385.22 L 366.13 389.12 L 370.32 374.79 L 374.51 375.54 L 378.69 394.11 L 382.88 399.43 L 387.07 399.67 L 391.26 399.74 L 395.45 397.69 L 399.64 385.92 L 403.83 364.81 L 408.02 361.70 L 412.21 357.76 L 416.40 357.47 L 420.59 355.02 L 424.78 356.42 L 428.97 347.49 L 433.16 343.98 L 437.35 342.31 L 441.54 321.32 L 445.73 308.48 L 449.92 305.52 L 454.11 300.27 L 458.29 301.08 L 462.48 298.61 L 466.67 299.98 L 470.86 315.40 L 475.05 314.14 L 479.24 317.89 L 483.43 322.24 L 487.62 320.82 L 491.81 300.94 L 496.00 303.61 L 500.19 300.25 L 504.38 297.04 L 508.57 291.15 L 512.76 293.54 L 516.95 291.03 L 521.14 287.76 L 525.33 283.97 L 529.52 282.25 L 533.71 284.25 L 537.89 289.21 L 542.08 289.16 L 546.27 284.51 L 550.46 290.24 L 554.65 291.08 L 558.84 291.68 L 563.03 287.19 L 567.22 277.57 L 571.41 275.37 L 575.60 269.21 L 579.79 264.48 L 583.98 260.72 L 588.17 260.29 L 592.36 263.73 L 596.55 255.20 L 600.74 252.46 L 604.93 253.12 L 609.12 261.03 L 613.31 257.79 L 617.49 252.62 L 621.68 254.84 L 625.87 254.48 L 630.06 254.46 L 634.25 250.38 L 638.44 245.99 L 642.63 246.09 L 646.82 245.25 L 651.01 241.89 L 655.20 245.04 L 659.39 239.38 L 663.58 236.12 L 667.77 234.33 L 671.96 232.04 L 676.15 235.09 L 680.34 235.62 L 684.53 243.90 L 688.72 243.63 L 692.91 238.34 L 697.09 237.98 L 701.28 230.91 L 705.47 226.93 L 709.66 221.61 L 713.85 216.34 L 718.04 214.19 L 722.23 217.52 L 726.42 214.66 L 730.61 215.52 L 734.80 219.34 L 738.99 229.62 L 743.18 232.57 L 747.37 222.42 L 751.56 221.38 L 755.75 223.31 L 759.94 218.44 L 764.13 218.73 L 768.32 218.54 L 772.51 227.29 L 776.69 224.55 L 780.88 227.47 L 785.07 214.15 L 789.26 212.40 L 793.45 215.72 L 797.64 212.61 L 801.83 206.76 L 806.02 196.79 L 810.21 197.93 L 814.40 192.70 L 818.59 187.11 L 822.78 188.57 L 826.97 187.53 L 831.16 183.29 L 835.35 174.83 L 839.54 175.09 L 843.73 185.01 L 847.92 187.36 L 852.11 184.88 L 856.29 182.99 L 860.48 181.48 L 864.67 174.40 L 868.86 191.42 L 873.05 182.56 L 877.24 178.50 L 881.43 184.81 L 885.62 183.37 L 889.81 182.55 L 894.00 170.01 L 898.19 168.79 L 902.38 175.44 L 906.57 175.17 L 910.76 166.00 L 914.95 151.59 L 919.14 145.54 L 923.33 139.36 L 927.52 145.46 L 931.71 147.40 L 935.89 141.75 L 940.08 152.75 L 944.27 153.59 L 948.46 162.36 L 952.65 166.90 L 956.84 152.87 L 961.03 145.29 L 965.22 147.39 L 969.41 165.37 L 973.60 168.48 L 977.79 166.64 L 981.98 176.78 L 986.17 181.39 L 990.36 189.36 L 994.55 187.78 L 998.74 169.77 L 1002.93 160.89 L 1007.12 157.17 L 1011.31 155.79 L 1015.49 157.27 L 1019.68 151.28 L 1023.87 154.29 L 1028.06 150.94 L 1032.25 152.47 L 1036.44 150.92 L 1040.63 150.02 L 1044.82 151.97 L 1049.01 149.58 L 1053.20 148.03 L 1057.39 157.76 L 1061.58 164.64 L 1065.77 166.00 L 1069.96 172.44 L 1074.15 178.60 L 1078.34 162.61 L 1082.53 157.10 L 1086.72 151.96 L 1090.91 145.97 L 1095.09 147.01 L 1099.28 148.53 L 1103.47 149.13 L 1107.66 153.85 L 1111.85 155.54 L 1116.04 158.15 L 1120.23 154.59 L 1124.42 156.31 L 1128.61 156.05 L 1132.80 155.03 L 1136.99 152.70 L 1141.18 151.70 L 1145.37 157.25 L 1149.56 163.04 L 1153.75 163.30 L 1157.94 165.14 L 1162.13 165.11 L 1166.32 181.94 L 1170.51 173.73 L 1174.69 169.01 L 1178.88 165.89 L 1183.07 160.29 L 1187.26 157.91 L 1191.45 161.35 L 1195.64 164.20 L 1199.83 164.80 L 1204.02 168.92 L 1208.21 176.90 L 1212.40 193.63 L 1216.59 178.70 L 1220.78 172.46 L 1224.97 173.84 L 1229.16 179.03 L 1233.35 196.32 L 1237.54 197.65 L 1241.73 200.85 L 1245.92 184.84 L 1250.11 189.05 L 1254.29 197.08 L 1258.48 198.52 L 1262.67 201.92 L 1266.86 202.46 L 1271.05 201.26 L 1275.24 214.70 L 1279.43 208.99 L 1283.62 205.57 L 1287.81 206.29 L 1292.00 216.00" fill="none" stroke="#1d4ed8" stroke-width="2"  />
  </g>
  <g>
    <text x="54" y="538" fill="#1f2937" font-size="16" font-weight="700">B. 绝对误差（越低越好）</text>
    <line x1="98" y1="540" x2="124" y2="540" stroke="#1d4ed8" stroke-width="2"  />
      <text x="130" y="544" fill="#24312e" font-size="12">持仓分段误差</text>
    <line x1="98" y1="560.00" x2="1292" y2="560.00" stroke="#d7e3df" stroke-width="1" />
      <text x="90" y="564.00" text-anchor="end" fill="#5b6b68" font-size="11">2.72%</text>
<line x1="98" y1="630.00" x2="1292" y2="630.00" stroke="#d7e3df" stroke-width="1" />
      <text x="90" y="634.00" text-anchor="end" fill="#5b6b68" font-size="11">2.04%</text>
<line x1="98" y1="700.00" x2="1292" y2="700.00" stroke="#d7e3df" stroke-width="1" />
      <text x="90" y="704.00" text-anchor="end" fill="#5b6b68" font-size="11">1.36%</text>
<line x1="98" y1="770.00" x2="1292" y2="770.00" stroke="#d7e3df" stroke-width="1" />
      <text x="90" y="774.00" text-anchor="end" fill="#5b6b68" font-size="11">0.68%</text>
<line x1="98" y1="840.00" x2="1292" y2="840.00" stroke="#d7e3df" stroke-width="1" />
      <text x="90" y="844.00" text-anchor="end" fill="#5b6b68" font-size="11">0.00%</text>
    <line x1="98.00" y1="560" x2="98.00" y2="840" stroke="#eef3f1" stroke-width="1" />
      <text x="98.00" y="868" text-anchor="middle" fill="#5b6b68" font-size="11">25-01-02</text>
<line x1="290.72" y1="560" x2="290.72" y2="840" stroke="#eef3f1" stroke-width="1" />
      <text x="290.72" y="868" text-anchor="middle" fill="#5b6b68" font-size="11">25-03-17</text>
<line x1="479.24" y1="560" x2="479.24" y2="840" stroke="#eef3f1" stroke-width="1" />
      <text x="479.24" y="868" text-anchor="middle" fill="#5b6b68" font-size="11">25-05-23</text>
<line x1="697.09" y1="560" x2="697.09" y2="840" stroke="#eef3f1" stroke-width="1" />
      <text x="697.09" y="868" text-anchor="middle" fill="#5b6b68" font-size="11">25-08-06</text>
<line x1="910.76" y1="560" x2="910.76" y2="840" stroke="#eef3f1" stroke-width="1" />
      <text x="910.76" y="868" text-anchor="middle" fill="#5b6b68" font-size="11">25-10-24</text>
<line x1="1099.28" y1="560" x2="1099.28" y2="840" stroke="#eef3f1" stroke-width="1" />
      <text x="1099.28" y="868" text-anchor="middle" fill="#5b6b68" font-size="11">25-12-26</text>
<line x1="1292.00" y1="560" x2="1292.00" y2="840" stroke="#eef3f1" stroke-width="1" />
      <text x="1292.00" y="868" text-anchor="middle" fill="#5b6b68" font-size="11">26-03-12</text>
    <line x1="1116.04" y1="560" x2="1116.04" y2="840" stroke="#f59e0b" stroke-width="1.4" stroke-dasharray="4 4" />
       <text x="1122.04" y="552" fill="#a16207" font-size="11">验证起点</text>
    <path d="M 98.00 823.56 L 102.19 828.76 L 106.38 792.80 L 110.57 775.92 L 114.76 828.20 L 118.95 830.04 L 123.14 697.95 L 127.33 834.86 L 131.52 804.76 L 135.71 763.48 L 139.89 709.99 L 144.08 796.83 L 148.27 838.08 L 152.46 769.11 L 156.65 761.55 L 160.84 829.65 L 165.03 824.66 L 169.22 723.83 L 173.41 765.39 L 177.60 838.28 L 181.79 775.73 L 185.98 773.88 L 190.17 829.21 L 194.36 829.07 L 198.55 790.68 L 202.74 839.93 L 206.93 831.44 L 211.12 827.76 L 215.31 820.63 L 219.49 807.57 L 223.68 778.49 L 227.87 804.02 L 232.06 783.63 L 236.25 820.78 L 240.44 761.67 L 244.63 782.74 L 248.82 712.90 L 253.01 791.73 L 257.20 779.10 L 261.39 770.15 L 265.58 786.47 L 269.77 724.61 L 273.96 792.54 L 278.15 782.28 L 282.34 749.09 L 286.53 781.21 L 290.72 801.55 L 294.91 798.43 L 299.09 802.82 L 303.28 809.60 L 307.47 800.07 L 311.66 776.04 L 315.85 820.35 L 320.04 754.88 L 324.23 826.62 L 328.42 800.79 L 332.61 765.18 L 336.80 829.79 L 340.99 822.46 L 345.18 783.13 L 349.37 711.41 L 353.56 805.46 L 357.75 817.10 L 361.94 710.90 L 366.13 703.47 L 370.32 819.93 L 374.51 815.88 L 378.69 798.22 L 382.88 827.13 L 387.07 825.23 L 391.26 590.00 L 395.45 830.77 L 399.64 806.79 L 403.83 796.66 L 408.02 789.74 L 412.21 816.83 L 416.40 819.25 L 420.59 825.79 L 424.78 760.19 L 428.97 828.86 L 433.16 829.27 L 437.35 823.40 L 441.54 766.01 L 445.73 835.77 L 449.92 815.34 L 454.11 794.93 L 458.29 820.73 L 462.48 828.06 L 466.67 799.40 L 470.86 810.00 L 475.05 813.89 L 479.24 819.15 L 483.43 814.18 L 487.62 595.81 L 491.81 781.79 L 496.00 809.84 L 500.19 809.00 L 504.38 795.55 L 508.57 830.40 L 512.76 770.87 L 516.95 823.69 L 521.14 839.65 L 525.33 821.73 L 529.52 796.13 L 533.71 817.29 L 537.89 813.15 L 542.08 757.53 L 546.27 773.39 L 550.46 836.96 L 554.65 830.40 L 558.84 801.47 L 563.03 828.55 L 567.22 838.86 L 571.41 823.40 L 575.60 825.12 L 579.79 829.64 L 583.98 830.52 L 588.17 763.36 L 592.36 798.96 L 596.55 811.45 L 600.74 835.92 L 604.93 750.36 L 609.12 832.64 L 613.31 803.16 L 617.49 825.73 L 621.68 835.78 L 625.87 836.71 L 630.06 816.40 L 634.25 829.62 L 638.44 830.45 L 642.63 837.40 L 646.82 806.78 L 651.01 774.07 L 655.20 790.53 L 659.39 835.62 L 663.58 835.77 L 667.77 816.07 L 671.96 802.69 L 676.15 839.94 L 680.34 824.59 L 684.53 753.45 L 688.72 780.74 L 692.91 779.05 L 697.09 773.02 L 701.28 806.36 L 705.47 799.94 L 709.66 792.63 L 713.85 838.89 L 718.04 798.99 L 722.23 807.29 L 726.42 825.71 L 730.61 827.82 L 734.80 752.10 L 738.99 830.89 L 743.18 812.00 L 747.37 834.29 L 751.56 794.05 L 755.75 806.55 L 759.94 825.89 L 764.13 809.15 L 768.32 769.37 L 772.51 799.65 L 776.69 780.49 L 780.88 750.58 L 785.07 823.81 L 789.26 791.90 L 793.45 821.35 L 797.64 802.96 L 801.83 799.13 L 806.02 808.62 L 810.21 816.85 L 814.40 778.84 L 818.59 831.99 L 822.78 815.18 L 826.97 837.95 L 831.16 792.01 L 835.35 825.13 L 839.54 749.43 L 843.73 838.59 L 847.92 830.22 L 852.11 838.96 L 856.29 829.78 L 860.48 820.56 L 864.67 772.74 L 868.86 789.29 L 873.05 813.37 L 877.24 754.29 L 881.43 798.69 L 885.62 818.39 L 889.81 818.01 L 894.00 836.31 L 898.19 795.25 L 902.38 815.07 L 906.57 816.09 L 910.76 811.99 L 914.95 818.79 L 919.14 801.07 L 923.33 810.94 L 927.52 806.53 L 931.71 815.56 L 935.89 839.21 L 940.08 819.67 L 944.27 830.70 L 948.46 804.63 L 952.65 824.35 L 956.84 798.96 L 961.03 810.29 L 965.22 819.71 L 969.41 830.17 L 973.60 809.58 L 977.79 776.71 L 981.98 776.74 L 986.17 787.90 L 990.36 827.73 L 994.55 813.44 L 998.74 811.03 L 1002.93 834.28 L 1007.12 823.74 L 1011.31 838.98 L 1015.49 777.21 L 1019.68 789.96 L 1023.87 827.29 L 1028.06 811.59 L 1032.25 838.14 L 1036.44 831.97 L 1040.63 817.84 L 1044.82 835.77 L 1049.01 836.06 L 1053.20 807.80 L 1057.39 787.55 L 1061.58 836.13 L 1065.77 839.43 L 1069.96 753.91 L 1074.15 745.71 L 1078.34 815.65 L 1082.53 815.63 L 1086.72 802.17 L 1090.91 835.47 L 1095.09 835.66 L 1099.28 836.33 L 1103.47 803.57 L 1107.66 832.18 L 1111.85 791.49 L 1116.04 839.92 L 1120.23 817.98 L 1124.42 835.24 L 1128.61 818.98 L 1132.80 824.09 L 1136.99 831.09 L 1141.18 808.60 L 1145.37 775.44 L 1149.56 836.70 L 1153.75 839.16 L 1157.94 822.24 L 1162.13 599.88 L 1166.32 788.10 L 1170.51 802.82 L 1174.69 827.38 L 1178.88 815.75 L 1183.07 822.49 L 1187.26 818.07 L 1191.45 828.51 L 1195.64 816.99 L 1199.83 799.25 L 1204.02 805.15 L 1208.21 787.95 L 1212.40 837.59 L 1216.59 822.44 L 1220.78 838.88 L 1224.97 789.65 L 1229.16 820.96 L 1233.35 836.91 L 1237.54 781.81 L 1241.73 734.78 L 1245.92 819.17 L 1250.11 778.92 L 1254.29 802.00 L 1258.48 836.83 L 1262.67 769.36 L 1266.86 805.04 L 1271.05 801.38 L 1275.24 822.72 L 1279.43 786.92 L 1283.62 839.92 L 1287.81 826.75 L 1292.00 819.27" fill="none" stroke="#1d4ed8" stroke-width="2"  />
  </g>
</svg>