<?xml version="1.0" encoding="UTF-8"?>
<svg xmlns="http://www.w3.org/2000/svg" width="1360" height="980" viewBox="0 0 1360 980">
  <defs>
    <linearGradient id="bg" x1="0" y1="0" x2="1" y2="1">
      <stop offset="0%" stop-color="#f4efe6" />
      <stop offset="100%" stop-color="#eef5f2" />
    </linearGradient>
  </defs>
  <rect x="0" y="0" width="1360" height="980" fill="url(#bg)" />
  <text x="46" y="36" fill="#1f2937" font-size="31" font-weight="700">513800 离线研究图（持仓逐日估值版）</text>
  <text x="46" y="66" fill="#5b6b68" font-size="13">历史前十大持仓 + 持仓逐日涨跌幅 + USDCNY；双目标 lambda=0.10；披露期数 26；覆盖率均值 92.2%</text>
  <g>
    <text x="54" y="110" fill="#1f2937" font-size="16" font-weight="700">A. 净值拟合（同日对齐，无平移）</text>
    <line x1="98" y1="112" x2="124" y2="112" stroke="#0f766e" stroke-width="2"  />
      <text x="130" y="116" fill="#24312e" font-size="12">真实净值</text>
<line x1="313" y1="112" x2="339" y2="112" stroke="#1d4ed8" stroke-width="2"  />
      <text x="345" y="116" fill="#24312e" font-size="12">持仓分段估值</text>
    <line x1="98" y1="132.00" x2="1292" y2="132.00" stroke="#d7e3df" stroke-width="1" />
      <text x="90" y="136.00" text-anchor="end" fill="#5b6b68" font-size="11">1.896</text>
<line x1="98" y1="209.50" x2="1292" y2="209.50" stroke="#d7e3df" stroke-width="1" />
      <text x="90" y="213.50" text-anchor="end" fill="#5b6b68" font-size="11">1.725</text>
<line x1="98" y1="287.00" x2="1292" y2="287.00" stroke="#d7e3df" stroke-width="1" />
      <text x="90" y="291.00" text-anchor="end" fill="#5b6b68" font-size="11">1.555</text>
<line x1="98" y1="364.50" x2="1292" y2="364.50" stroke="#d7e3df" stroke-width="1" />
      <text x="90" y="368.50" text-anchor="end" fill="#5b6b68" font-size="11">1.384</text>
<line x1="98" y1="442.00" x2="1292" y2="442.00" stroke="#d7e3df" stroke-width="1" />
      <text x="90" y="446.00" text-anchor="end" fill="#5b6b68" font-size="11">1.214</text>
    <line x1="98.00" y1="132" x2="98.00" y2="442" stroke="#eef3f1" stroke-width="1" />
      <text x="98.00" y="470" text-anchor="middle" fill="#5b6b68" font-size="11">25-01-02</text>
<line x1="290.04" y1="132" x2="290.04" y2="442" stroke="#eef3f1" stroke-width="1" />
      <text x="290.04" y="470" text-anchor="middle" fill="#5b6b68" font-size="11">25-03-17</text>
<line x1="482.08" y1="132" x2="482.08" y2="442" stroke="#eef3f1" stroke-width="1" />
      <text x="482.08" y="470" text-anchor="middle" fill="#5b6b68" font-size="11">25-05-26</text>
<line x1="695.00" y1="132" x2="695.00" y2="442" stroke="#eef3f1" stroke-width="1" />
      <text x="695.00" y="470" text-anchor="middle" fill="#5b6b68" font-size="11">25-08-06</text>
<line x1="907.92" y1="132" x2="907.92" y2="442" stroke="#eef3f1" stroke-width="1" />
      <text x="907.92" y="470" text-anchor="middle" fill="#5b6b68" font-size="11">25-10-24</text>
<line x1="1099.96" y1="132" x2="1099.96" y2="442" stroke="#eef3f1" stroke-width="1" />
      <text x="1099.96" y="470" text-anchor="middle" fill="#5b6b68" font-size="11">25-12-29</text>
<line x1="1292.00" y1="132" x2="1292.00" y2="442" stroke="#eef3f1" stroke-width="1" />
      <text x="1292.00" y="470" text-anchor="middle" fill="#5b6b68" font-size="11">26-03-13</text>
    <line x1="1112.48" y1="132" x2="1112.48" y2="442" stroke="#f59e0b" stroke-width="1.4" stroke-dasharray="4 4" />
       <text x="1118.48" y="124" fill="#a16207" font-size="11">验证起点</text>
    <path d="M 98.00 371.53 L 102.17 372.25 L 106.35 378.66 L 110.52 373.52 L 114.70 376.66 L 118.87 384.16 L 123.05 388.52 L 127.22 387.25 L 131.40 394.38 L 135.57 395.83 L 139.75 389.66 L 143.92 388.47 L 148.10 384.20 L 152.27 383.48 L 156.45 379.20 L 160.62 378.07 L 164.80 377.25 L 168.97 375.66 L 173.15 373.52 L 177.32 365.30 L 181.50 362.71 L 185.67 363.57 L 189.85 364.30 L 194.02 368.30 L 198.20 366.39 L 202.37 365.21 L 206.55 360.57 L 210.72 355.08 L 214.90 358.67 L 219.07 362.71 L 223.24 357.08 L 227.42 355.80 L 231.59 360.67 L 235.77 359.03 L 239.94 353.49 L 244.12 368.75 L 248.29 362.03 L 252.47 360.98 L 256.64 362.44 L 260.82 352.21 L 264.99 358.48 L 269.17 357.26 L 273.34 360.62 L 277.52 362.35 L 281.69 360.39 L 285.87 354.35 L 290.04 351.44 L 294.22 345.99 L 298.39 342.94 L 302.57 339.04 L 306.74 337.45 L 310.92 343.76 L 315.09 346.72 L 319.27 341.13 L 323.44 342.49 L 327.62 350.53 L 331.79 366.48 L 335.97 370.30 L 340.14 372.25 L 344.31 384.70 L 348.49 439.23 L 352.66 412.24 L 356.84 422.37 L 361.01 382.43 L 365.19 390.02 L 369.36 381.84 L 373.54 374.25 L 377.71 378.07 L 381.89 365.35 L 386.06 361.21 L 390.24 366.25 L 394.41 361.21 L 398.59 353.76 L 402.76 356.76 L 406.94 346.72 L 411.11 343.99 L 415.29 338.36 L 419.46 334.81 L 423.64 336.49 L 427.81 333.27 L 431.99 334.81 L 436.16 335.17 L 440.34 332.27 L 444.51 335.58 L 448.69 338.76 L 452.86 338.49 L 457.03 333.40 L 461.21 333.40 L 465.38 333.04 L 469.56 331.63 L 473.73 333.22 L 477.91 328.13 L 482.08 321.72 L 486.26 315.09 L 490.43 321.59 L 494.61 317.95 L 498.78 313.55 L 502.96 316.04 L 507.13 318.36 L 511.31 320.09 L 515.48 321.45 L 519.66 322.22 L 523.83 321.54 L 528.01 323.45 L 532.18 321.72 L 536.36 324.54 L 540.53 323.00 L 544.71 322.32 L 548.88 319.32 L 553.06 322.09 L 557.23 327.50 L 561.41 335.27 L 565.58 329.95 L 569.76 325.36 L 573.93 321.13 L 578.10 308.59 L 582.28 305.78 L 586.45 308.91 L 590.63 308.68 L 594.80 309.64 L 598.98 313.45 L 603.15 317.68 L 607.33 321.36 L 611.50 324.04 L 615.68 324.31 L 619.85 322.45 L 624.03 326.31 L 628.20 329.36 L 632.38 334.58 L 636.55 325.95 L 640.73 329.22 L 644.90 329.31 L 649.08 327.54 L 653.25 300.64 L 657.43 287.51 L 661.60 297.42 L 665.78 304.55 L 669.95 313.59 L 674.13 310.23 L 678.30 307.78 L 682.48 312.50 L 686.65 306.18 L 690.83 299.23 L 695.00 295.28 L 699.17 289.92 L 703.35 279.92 L 707.52 282.92 L 711.70 275.15 L 715.87 266.97 L 720.05 272.42 L 724.22 263.25 L 728.40 257.97 L 732.57 262.56 L 736.75 264.74 L 740.92 267.79 L 745.10 268.97 L 749.27 264.29 L 753.45 272.47 L 757.62 272.65 L 761.80 267.88 L 765.97 271.92 L 770.15 275.51 L 774.32 270.65 L 778.50 283.69 L 782.67 277.01 L 786.85 271.29 L 791.02 263.15 L 795.20 260.47 L 799.37 258.07 L 803.55 257.34 L 807.72 253.25 L 811.90 255.02 L 816.07 252.89 L 820.24 252.02 L 824.42 251.39 L 828.59 260.06 L 832.77 256.16 L 836.94 255.43 L 841.12 253.43 L 845.29 251.89 L 849.47 259.66 L 853.64 263.56 L 857.82 260.56 L 861.99 248.11 L 866.17 265.43 L 870.34 260.56 L 874.52 278.24 L 878.69 262.93 L 882.87 256.52 L 887.04 259.93 L 891.22 245.57 L 895.39 243.89 L 899.57 246.89 L 903.74 249.75 L 907.92 247.98 L 912.09 239.71 L 916.27 247.34 L 920.44 246.80 L 924.62 242.53 L 928.79 241.84 L 932.97 242.16 L 937.14 247.25 L 941.31 254.20 L 945.49 246.25 L 949.66 243.48 L 953.84 244.16 L 958.01 245.12 L 962.19 237.71 L 966.36 235.48 L 970.54 241.75 L 974.71 243.12 L 978.89 266.52 L 983.06 267.88 L 987.24 264.25 L 991.41 264.61 L 995.59 261.66 L 999.76 264.70 L 1003.94 250.16 L 1008.11 248.07 L 1012.29 245.52 L 1016.46 253.98 L 1020.64 250.89 L 1024.81 255.66 L 1028.99 238.16 L 1033.16 244.93 L 1037.34 239.66 L 1041.51 242.71 L 1045.69 246.52 L 1049.86 248.52 L 1054.03 232.62 L 1058.21 231.98 L 1062.38 242.89 L 1066.56 242.66 L 1070.73 249.30 L 1074.91 231.67 L 1079.08 248.52 L 1083.26 243.48 L 1087.43 244.30 L 1091.61 241.62 L 1095.78 242.43 L 1099.96 243.12 L 1104.13 243.43 L 1108.31 246.43 L 1112.48 234.98 L 1116.66 221.12 L 1120.83 226.35 L 1125.01 232.76 L 1129.18 228.53 L 1133.36 234.12 L 1137.53 215.35 L 1141.71 212.49 L 1145.88 202.90 L 1150.06 206.22 L 1154.23 205.08 L 1158.41 215.08 L 1162.58 221.21 L 1166.76 214.67 L 1170.93 213.35 L 1175.10 216.17 L 1179.28 206.72 L 1183.45 209.17 L 1187.63 207.58 L 1191.80 200.40 L 1195.98 218.81 L 1200.15 196.50 L 1204.33 195.27 L 1208.50 201.49 L 1212.68 191.86 L 1216.85 178.18 L 1221.03 157.74 L 1225.20 149.33 L 1229.38 137.88 L 1233.55 148.10 L 1237.73 159.24 L 1241.90 160.15 L 1246.08 156.78 L 1250.25 143.74 L 1254.43 155.69 L 1258.60 182.36 L 1262.78 215.72 L 1266.95 198.86 L 1271.13 197.72 L 1275.30 231.67 L 1279.48 213.58 L 1283.65 206.27 L 1287.83 221.31 L 1292.00 225.85" fill="none" stroke="#0f766e" stroke-width="2"  />
<path d="M 98.00 370.18 L 102.17 370.48 L 106.35 372.13 L 110.52 378.67 L 114.70 373.34 L 118.87 376.35 L 123.05 383.99 L 127.22 388.61 L 131.40 387.15 L 135.57 391.93 L 139.75 396.59 L 143.92 388.51 L 148.10 389.25 L 152.27 384.31 L 156.45 383.41 L 160.62 377.86 L 164.80 377.04 L 168.97 376.69 L 173.15 369.14 L 177.32 372.71 L 181.50 368.68 L 185.67 362.64 L 189.85 363.00 L 194.02 364.76 L 198.20 364.37 L 202.37 366.35 L 206.55 365.43 L 210.72 360.17 L 214.90 355.46 L 219.07 358.64 L 223.24 363.52 L 227.42 357.40 L 231.59 352.13 L 235.77 360.40 L 239.94 359.00 L 244.12 353.69 L 248.29 367.16 L 252.47 362.88 L 256.64 355.44 L 260.82 363.14 L 264.99 351.01 L 269.17 362.59 L 273.34 357.75 L 277.52 355.74 L 281.69 362.51 L 285.87 356.55 L 290.04 353.22 L 294.22 351.49 L 298.39 343.25 L 302.57 343.12 L 306.74 338.56 L 310.92 336.67 L 315.09 342.69 L 319.27 347.48 L 323.44 340.85 L 327.62 347.22 L 331.79 350.53 L 335.97 366.66 L 340.14 369.92 L 344.31 379.03 L 348.49 426.32 L 352.66 438.63 L 356.84 394.09 L 361.01 430.59 L 365.19 376.54 L 369.36 383.47 L 373.54 380.55 L 377.71 376.36 L 381.89 372.89 L 386.06 364.88 L 390.24 358.83 L 394.41 359.69 L 398.59 360.75 L 402.76 352.11 L 406.94 355.35 L 411.11 342.68 L 415.29 342.97 L 419.46 338.58 L 423.64 332.14 L 427.81 336.50 L 431.99 331.95 L 436.16 333.96 L 440.34 332.96 L 444.51 332.81 L 448.69 338.03 L 452.86 336.92 L 457.03 337.44 L 461.21 331.29 L 465.38 332.24 L 469.56 333.53 L 473.73 330.89 L 477.91 332.08 L 482.08 327.24 L 486.26 321.10 L 490.43 318.55 L 494.61 320.51 L 498.78 316.91 L 502.96 312.16 L 507.13 315.73 L 511.31 318.83 L 515.48 318.44 L 519.66 319.96 L 523.83 321.61 L 528.01 321.22 L 532.18 322.23 L 536.36 322.06 L 540.53 325.27 L 544.71 323.70 L 548.88 320.47 L 553.06 318.88 L 557.23 321.74 L 561.41 326.00 L 565.58 334.16 L 569.76 330.15 L 573.93 319.52 L 578.10 315.85 L 582.28 307.99 L 586.45 306.05 L 590.63 308.30 L 594.80 309.28 L 598.98 309.17 L 603.15 313.08 L 607.33 316.41 L 611.50 320.60 L 615.68 324.11 L 619.85 324.53 L 624.03 322.79 L 628.20 326.72 L 632.38 328.63 L 636.55 333.51 L 640.73 326.41 L 644.90 328.09 L 649.08 328.44 L 653.25 316.36 L 657.43 299.96 L 661.60 288.01 L 665.78 303.50 L 669.95 304.69 L 674.13 312.62 L 678.30 309.77 L 682.48 304.79 L 686.65 312.86 L 690.83 305.78 L 695.00 294.68 L 699.17 294.01 L 703.35 283.84 L 707.52 280.57 L 711.70 276.69 L 715.87 274.89 L 720.05 267.18 L 724.22 266.54 L 728.40 263.86 L 732.57 257.64 L 736.75 262.59 L 740.92 265.63 L 745.10 262.31 L 749.27 270.59 L 753.45 264.01 L 757.62 272.56 L 761.80 271.51 L 765.97 271.62 L 770.15 271.35 L 774.32 275.07 L 778.50 270.52 L 782.67 281.85 L 786.85 275.81 L 791.02 264.38 L 795.20 267.21 L 799.37 259.58 L 803.55 255.87 L 807.72 257.79 L 811.90 252.36 L 816.07 254.85 L 820.24 252.83 L 824.42 250.61 L 828.59 251.94 L 832.77 259.35 L 836.94 256.00 L 841.12 255.20 L 845.29 253.40 L 849.47 251.23 L 853.64 258.69 L 857.82 263.65 L 861.99 257.32 L 866.17 258.88 L 870.34 263.95 L 874.52 259.12 L 878.69 274.98 L 882.87 262.48 L 887.04 255.39 L 891.22 253.77 L 895.39 246.35 L 899.57 243.67 L 903.74 246.30 L 907.92 248.91 L 912.09 245.98 L 916.27 239.33 L 920.44 248.05 L 924.62 245.93 L 928.79 241.98 L 932.97 239.42 L 937.14 242.67 L 941.31 246.81 L 945.49 253.89 L 949.66 245.25 L 953.84 241.67 L 958.01 243.78 L 962.19 243.72 L 966.36 242.49 L 970.54 231.41 L 974.71 245.78 L 978.89 248.52 L 983.06 266.23 L 987.24 271.96 L 991.41 258.45 L 995.59 262.90 L 999.76 261.21 L 1003.94 260.65 L 1008.11 249.91 L 1012.29 247.90 L 1016.46 244.03 L 1020.64 253.76 L 1024.81 250.47 L 1028.99 252.13 L 1033.16 237.59 L 1037.34 244.87 L 1041.51 238.80 L 1045.69 241.40 L 1049.86 245.86 L 1054.03 248.41 L 1058.21 230.91 L 1062.38 241.31 L 1066.56 243.80 L 1070.73 241.99 L 1074.91 250.86 L 1079.08 229.23 L 1083.26 247.25 L 1087.43 243.37 L 1091.61 243.88 L 1095.78 241.19 L 1099.96 241.79 L 1104.13 242.76 L 1108.31 243.24 L 1112.48 231.51 L 1116.66 234.63 L 1120.83 220.43 L 1125.01 225.69 L 1129.18 226.67 L 1133.36 228.12 L 1137.53 234.44 L 1141.71 213.96 L 1145.88 211.40 L 1150.06 201.98 L 1154.23 206.71 L 1158.41 204.59 L 1162.58 211.08 L 1166.76 220.35 L 1170.93 213.66 L 1175.10 212.09 L 1179.28 212.49 L 1183.45 207.20 L 1187.63 207.28 L 1191.80 207.01 L 1195.98 201.47 L 1200.15 215.08 L 1204.33 195.19 L 1208.50 198.61 L 1212.68 189.93 L 1216.85 187.15 L 1221.03 172.46 L 1225.20 155.94 L 1229.38 149.31 L 1233.55 136.29 L 1237.73 161.86 L 1241.90 154.02 L 1246.08 159.82 L 1250.25 155.92 L 1254.43 152.27 L 1258.60 165.32 L 1262.78 176.41 L 1266.95 223.58 L 1271.13 199.57 L 1275.30 197.43 L 1279.48 230.21 L 1283.65 213.82 L 1287.83 210.29 L 1292.00 221.50" fill="none" stroke="#1d4ed8" stroke-width="2"  />
  </g>
  <g>
    <text x="54" y="538" fill="#1f2937" font-size="16" font-weight="700">B. 绝对误差（越低越好）</text>
    <line x1="98" y1="540" x2="124" y2="540" stroke="#1d4ed8" stroke-width="2"  />
      <text x="130" y="544" fill="#24312e" font-size="12">持仓分段误差</text>
    <line x1="98" y1="560.00" x2="1292" y2="560.00" stroke="#d7e3df" stroke-width="1" />
      <text x="90" y="564.00" text-anchor="end" fill="#5b6b68" font-size="11">8.83%</text>
<line x1="98" y1="630.00" x2="1292" y2="630.00" stroke="#d7e3df" stroke-width="1" />
      <text x="90" y="634.00" text-anchor="end" fill="#5b6b68" font-size="11">6.62%</text>
<line x1="98" y1="700.00" x2="1292" y2="700.00" stroke="#d7e3df" stroke-width="1" />
      <text x="90" y="704.00" text-anchor="end" fill="#5b6b68" font-size="11">4.41%</text>
<line x1="98" y1="770.00" x2="1292" y2="770.00" stroke="#d7e3df" stroke-width="1" />
      <text x="90" y="774.00" text-anchor="end" fill="#5b6b68" font-size="11">2.21%</text>
<line x1="98" y1="840.00" x2="1292" y2="840.00" stroke="#d7e3df" stroke-width="1" />
      <text x="90" y="844.00" text-anchor="end" fill="#5b6b68" font-size="11">0.00%</text>
    <line x1="98.00" y1="560" x2="98.00" y2="840" stroke="#eef3f1" stroke-width="1" />
      <text x="98.00" y="868" text-anchor="middle" fill="#5b6b68" font-size="11">25-01-02</text>
<line x1="290.04" y1="560" x2="290.04" y2="840" stroke="#eef3f1" stroke-width="1" />
      <text x="290.04" y="868" text-anchor="middle" fill="#5b6b68" font-size="11">25-03-17</text>
<line x1="482.08" y1="560" x2="482.08" y2="840" stroke="#eef3f1" stroke-width="1" />
      <text x="482.08" y="868" text-anchor="middle" fill="#5b6b68" font-size="11">25-05-26</text>
<line x1="695.00" y1="560" x2="695.00" y2="840" stroke="#eef3f1" stroke-width="1" />
      <text x="695.00" y="868" text-anchor="middle" fill="#5b6b68" font-size="11">25-08-06</text>
<line x1="907.92" y1="560" x2="907.92" y2="840" stroke="#eef3f1" stroke-width="1" />
      <text x="907.92" y="868" text-anchor="middle" fill="#5b6b68" font-size="11">25-10-24</text>
<line x1="1099.96" y1="560" x2="1099.96" y2="840" stroke="#eef3f1" stroke-width="1" />
      <text x="1099.96" y="868" text-anchor="middle" fill="#5b6b68" font-size="11">25-12-29</text>
<line x1="1292.00" y1="560" x2="1292.00" y2="840" stroke="#eef3f1" stroke-width="1" />
      <text x="1292.00" y="868" text-anchor="middle" fill="#5b6b68" font-size="11">26-03-13</text>
    <line x1="1112.48" y1="560" x2="1112.48" y2="840" stroke="#f59e0b" stroke-width="1.4" stroke-dasharray="4 4" />
       <text x="1118.48" y="552" fill="#a16207" font-size="11">验证起点</text>
    <path d="M 98.00 833.13 L 102.17 830.96 L 106.35 806.33 L 110.52 813.70 L 114.70 822.92 L 118.87 799.36 L 123.05 816.27 L 127.22 832.85 L 131.40 801.72 L 135.57 819.27 L 139.75 803.58 L 143.92 839.82 L 148.10 813.74 L 152.27 835.66 L 156.45 818.30 L 160.62 838.92 L 164.80 838.90 L 168.97 834.71 L 173.15 817.59 L 177.32 802.56 L 181.50 809.96 L 185.67 835.30 L 189.85 833.42 L 194.02 822.06 L 198.20 829.80 L 202.37 834.24 L 206.55 815.68 L 210.72 814.68 L 214.90 823.99 L 219.07 819.51 L 223.24 807.88 L 227.42 832.07 L 231.59 797.22 L 235.77 833.17 L 239.94 812.65 L 244.12 763.51 L 248.29 814.25 L 252.47 830.48 L 256.64 804.81 L 260.82 785.94 L 264.99 802.64 L 269.17 813.41 L 273.34 825.59 L 277.52 806.82 L 281.69 829.39 L 285.87 829.08 L 290.04 831.23 L 294.22 813.03 L 298.39 838.53 L 302.57 820.21 L 306.74 834.60 L 310.92 805.38 L 315.09 820.28 L 319.27 809.09 L 323.44 832.00 L 327.62 823.66 L 331.79 759.31 L 335.97 821.48 L 340.14 828.08 L 344.31 810.45 L 348.49 766.10 L 352.66 695.96 L 356.84 682.95 L 361.01 590.00 L 365.19 769.15 L 369.36 831.54 L 373.54 807.72 L 377.71 831.20 L 381.89 801.92 L 386.06 821.62 L 390.24 802.47 L 394.41 832.35 L 398.59 805.32 L 402.76 816.86 L 406.94 797.66 L 411.11 833.60 L 415.29 817.64 L 419.46 821.86 L 423.64 818.99 L 427.81 824.46 L 431.99 826.23 L 436.16 834.16 L 440.34 836.65 L 444.51 826.61 L 448.69 836.44 L 452.86 832.39 L 457.03 820.62 L 461.21 829.84 L 465.38 836.16 L 469.56 830.89 L 473.73 828.79 L 477.91 821.16 L 482.08 813.95 L 486.26 811.89 L 490.43 825.66 L 494.61 827.98 L 498.78 824.29 L 502.96 821.80 L 507.13 827.65 L 511.31 834.07 L 515.48 825.79 L 519.66 829.29 L 523.83 839.70 L 528.01 829.43 L 532.18 837.59 L 536.36 828.25 L 540.53 829.23 L 544.71 833.44 L 548.88 834.55 L 553.06 824.83 L 557.23 812.58 L 561.41 795.33 L 565.58 819.85 L 569.76 817.28 L 573.93 832.37 L 578.10 806.40 L 582.28 829.80 L 586.45 826.72 L 590.63 838.21 L 594.80 838.33 L 598.98 820.02 L 603.15 818.40 L 607.33 816.62 L 611.50 823.69 L 615.68 839.01 L 619.85 830.17 L 624.03 823.23 L 628.20 827.40 L 632.38 811.33 L 636.55 804.10 L 640.73 826.58 L 644.90 834.18 L 649.08 835.71 L 653.25 768.06 L 657.43 784.07 L 661.60 797.14 L 665.78 835.18 L 669.95 798.46 L 674.13 828.90 L 678.30 830.79 L 682.48 804.09 L 686.65 809.18 L 690.83 810.10 L 695.00 837.26 L 699.17 821.57 L 703.35 822.60 L 707.52 829.49 L 711.70 833.19 L 715.87 805.41 L 720.05 816.91 L 724.22 825.69 L 728.40 814.64 L 732.57 818.65 L 736.75 830.62 L 740.92 830.56 L 745.10 810.84 L 749.27 812.59 L 753.45 802.77 L 757.62 839.62 L 761.80 824.12 L 765.97 838.67 L 770.15 821.62 L 774.32 820.62 L 778.50 781.16 L 782.67 818.61 L 786.85 820.12 L 791.02 834.66 L 795.20 810.86 L 799.37 833.48 L 803.55 833.67 L 807.72 820.53 L 811.90 828.56 L 816.07 831.60 L 820.24 836.54 L 824.42 836.67 L 828.59 804.88 L 832.77 826.27 L 836.94 837.57 L 841.12 832.43 L 845.29 833.51 L 849.47 803.58 L 853.64 818.82 L 857.82 826.63 L 861.99 800.82 L 866.17 811.47 L 870.34 825.35 L 874.52 755.23 L 878.69 787.69 L 882.87 814.37 L 887.04 820.39 L 891.22 805.22 L 895.39 829.59 L 899.57 826.35 L 903.74 825.27 L 907.92 836.03 L 912.09 813.60 L 916.27 805.92 L 920.44 834.66 L 924.62 825.61 L 928.79 839.42 L 932.97 828.43 L 937.14 820.51 L 941.31 808.28 L 945.49 807.60 L 949.66 832.51 L 953.84 829.47 L 958.01 834.36 L 962.19 814.76 L 966.36 810.68 L 970.54 796.35 L 974.71 828.74 L 978.89 761.47 L 983.06 832.78 L 987.24 806.45 L 991.41 813.18 L 995.59 834.62 L 999.76 824.81 L 1003.94 795.23 L 1008.11 832.16 L 1012.29 829.94 L 1016.46 797.34 L 1020.64 827.71 L 1024.81 817.70 L 1028.99 781.35 L 1033.16 808.90 L 1037.34 818.10 L 1041.51 823.51 L 1045.69 818.26 L 1049.86 828.65 L 1054.03 774.17 L 1058.21 835.54 L 1062.38 833.33 L 1066.56 835.19 L 1070.73 808.88 L 1074.91 760.08 L 1079.08 757.87 L 1083.26 824.07 L 1087.43 836.09 L 1091.61 830.43 L 1095.78 834.75 L 1099.96 834.38 L 1104.13 837.15 L 1108.31 826.43 L 1112.48 825.48 L 1116.66 784.53 L 1120.83 815.52 L 1125.01 810.54 L 1129.18 832.28 L 1133.36 814.92 L 1137.53 762.20 L 1141.71 834.04 L 1145.88 805.92 L 1150.06 822.92 L 1154.23 833.46 L 1158.41 797.27 L 1162.58 798.38 L 1166.76 816.89 L 1170.93 838.75 L 1175.10 823.35 L 1179.28 816.76 L 1183.45 832.02 L 1187.63 838.78 L 1191.80 813.59 L 1195.98 769.02 L 1200.15 766.03 L 1204.33 839.69 L 1208.50 828.45 L 1212.68 832.37 L 1216.85 805.10 L 1221.03 784.11 L 1225.20 815.15 L 1229.38 797.62 L 1233.55 795.66 L 1237.73 830.01 L 1241.90 816.68 L 1246.08 828.50 L 1250.25 794.54 L 1254.43 827.04 L 1258.60 773.33 L 1262.78 679.70 L 1266.95 741.33 L 1271.13 832.62 L 1275.30 697.48 L 1279.48 772.38 L 1283.65 809.55 L 1287.83 794.74 L 1292.00 822.05" fill="none" stroke="#1d4ed8" stroke-width="2"  />
  </g>
</svg>